<svg width="64" height="64" viewBox="0 0 64 64" fill="none" xmlns="http://www.w3.org/2000/svg"><path fill-rule="evenodd" clip-rule="evenodd" d="M56.875 60.884c.222 0 .403-.18.403-.403V25.21a.401.401 0 0 0-.139-.303l-.004-.004-.002-.002-.002-.002-4.272-3.767a1.5 1.5 0 0 1-.508-1.125v-10.6h-5.753v2.883a1.499 1.499 0 0 1-2.492 1.125L32.394 3.085a.387.387 0 0 0-.253-.09.41.41 0 0 0-.265.098L7.147 24.9a.408.408 0 0 0-.147.31v35.27c0 .224.18.404.403.404h49.472Zm-1.524-41.552 3.76 3.314a3.402 3.402 0 0 1 1.167 2.565v35.27a3.406 3.406 0 0 1-3.403 3.403H7.403A3.406 3.406 0 0 1 4 60.48V25.21c0-.986.426-1.921 1.172-2.57L29.9.837A3.418 3.418 0 0 1 34.371.83l9.227 8.137v-1.06a1.5 1.5 0 0 1 1.5-1.5h8.753a1.5 1.5 0 0 1 1.5 1.5v11.425ZM29.14 38.647c0 1.654 1.346 3 3 3s3-1.346 3-3-1.346-3-3-3-3 1.346-3 3Zm-3 0c0-3.31 2.69-6 6-6 3.309 0 6 2.69 6 6 0 3.309-2.691 6-6 6-3.31 0-6-2.691-6-6Zm-1.072-9.17a1.5 1.5 0 0 0-2.12 0c-5.069 5.069-5.069 13.316 0 18.385.292.293.676.439 1.06.439a1.5 1.5 0 0 0 1.061-2.56c-3.899-3.9-3.899-10.243 0-14.142a1.5 1.5 0 0 0 0-2.121Zm14.143 0a1.5 1.5 0 0 1 2.121 0 12.915 12.915 0 0 1 3.808 9.192c0 3.473-1.353 6.738-3.808 9.193a1.495 1.495 0 0 1-1.061.439 1.5 1.5 0 0 1-1.06-2.56 9.935 9.935 0 0 0 2.929-7.072c0-2.67-1.04-5.181-2.929-7.07a1.5 1.5 0 0 1 0-2.121Zm-19.092-2.852a1.5 1.5 0 1 0-2.12-2.12c-7.799 7.797-7.799 20.485 0 28.283a1.496 1.496 0 0 0 2.12 0 1.5 1.5 0 0 0 0-2.12c-6.628-6.63-6.628-17.414 0-24.043Zm24.042 0a1.5 1.5 0 1 1 2.121-2.12c7.798 7.797 7.798 20.485 0 28.283a1.496 1.496 0 0 1-2.12 0 1.5 1.5 0 0 1 0-2.12c6.627-6.63 6.627-17.414 0-24.043Z" fill="currentColor"/></svg>