<svg width="64" height="64" viewBox="0 0 64 64" fill="none" xmlns="http://www.w3.org/2000/svg"><path fill-rule="evenodd" clip-rule="evenodd" d="M58 61H47v-7h11v7Zm-38 0h24V25H20v36Zm-3-28v28H6V33h11Zm29-14H18v3h28v-3Zm12-5H33.5v2h14a1.5 1.5 0 0 1 1.5 1.5V19h9v-5Zm0-3H33.5V3H58v8Zm0 40H47v-5h11v5Zm0-8H47v-5h11v5Zm0-8H47v-5h11v5Zm-9-11.5a1.5 1.5 0 0 1-1.5 1.5H47v2h11v-5h-9v1.5ZM61 61h1.5a1.5 1.5 0 0 1 0 3h-61a1.5 1.5 0 0 1 0-3H3V31.5A1.5 1.5 0 0 1 4.5 30H17v-5h-.5a1.5 1.5 0 0 1-1.5-1.5v-6a1.5 1.5 0 0 1 1.5-1.5h14V1.5A1.5 1.5 0 0 1 32 0h27.5A1.5 1.5 0 0 1 61 1.5V61ZM25.5 29h3a1.5 1.5 0 0 1 0 3h-3a1.5 1.5 0 0 1 0-3ZM10 37.5a1.5 1.5 0 0 1 3 0v2a1.5 1.5 0 0 1-3 0v-2ZM38.5 29h-3a1.5 1.5 0 0 0 0 3h3a1.5 1.5 0 0 0 0-3Zm-13 8h3a1.5 1.5 0 0 1 0 3h-3a1.5 1.5 0 0 1 0-3Zm13 0h-3a1.5 1.5 0 0 0 0 3h3a1.5 1.5 0 0 0 0-3Zm-13 8h3a1.5 1.5 0 0 1 0 3h-3a1.5 1.5 0 0 1 0-3Zm13 0h-3a1.5 1.5 0 0 0 0 3h3a1.5 1.5 0 0 0 0-3Zm-13 8h3a1.5 1.5 0 0 1 0 3h-3a1.5 1.5 0 0 1 0-3Zm13 0h-3a1.5 1.5 0 0 0 0 3h3a1.5 1.5 0 0 0 0-3ZM10 45.5a1.5 1.5 0 0 1 3 0v2a1.5 1.5 0 0 1-3 0v-2Zm1.5 6.5a1.5 1.5 0 0 0-1.5 1.5v2a1.5 1.5 0 0 0 3 0v-2a1.5 1.5 0 0 0-1.5-1.5Z" fill="currentColor"/></svg>