<svg width="64" height="65" viewBox="0 0 64 65" fill="none" xmlns="http://www.w3.org/2000/svg"><path d="M24.5 16.026a3.506 3.506 0 0 0-2.85 1.472C16.18 25.21 7 39.221 7 46.473a17.54 17.54 0 0 0 5.126 12.393A17.487 17.487 0 0 0 24.5 64c4.641 0 9.093-1.847 12.374-5.134A17.54 17.54 0 0 0 42 46.473c0-7.252-9.18-21.263-14.66-28.975a3.483 3.483 0 0 0-2.84-1.472Zm0 45.07a14.549 14.549 0 0 1-10.27-4.307A14.594 14.594 0 0 1 10 46.473c0-4.617 5.27-14.803 14.1-27.232a.49.49 0 0 1 .8 0C33.73 31.67 39 41.856 39 46.473a14.594 14.594 0 0 1-4.23 10.316 14.549 14.549 0 0 1-10.27 4.306ZM49.09 1.083a2.562 2.562 0 0 0-3.267-.796 2.562 2.562 0 0 0-.913.796C42 5.26 37 12.881 37 16.938c0 2.656 1.054 5.203 2.929 7.082a9.992 9.992 0 0 0 14.142 0A10.023 10.023 0 0 0 57 16.938c0-4.057-5-11.678-7.91-15.855ZM47 24.04a7.045 7.045 0 0 1-4.967-2.1A7.067 7.067 0 0 1 40 16.938c0-2.224 2.67-7.412 7-13.601 4.33 6.19 7 11.377 7 13.6a7.068 7.068 0 0 1-2.033 5.002 7.045 7.045 0 0 1-4.967 2.1Z" fill="currentColor"/><path d="M23 39.703v4.366l-3.75-2.163a1.499 1.499 0 0 0-2.05.55 1.505 1.505 0 0 0 .55 2.054l3.75 2.163-3.75 2.174a1.501 1.501 0 0 0-.164 2.494 1.47 1.47 0 0 0 1.664.1L23 49.246v4.337a1.503 1.503 0 0 0 1.5 1.502 1.498 1.498 0 0 0 1.5-1.502v-4.337l3.75 2.163c.227.137.486.21.75.21a1.498 1.498 0 0 0 1.45-1.113 1.505 1.505 0 0 0-.7-1.69l-3.75-2.174 3.75-2.163a1.503 1.503 0 0 0-1.5-2.604L26 44.069v-4.367a1.504 1.504 0 0 0-1.5-1.502 1.499 1.499 0 0 0-1.5 1.502Z" fill="currentColor"/></svg>