<svg width="64" height="64" viewBox="0 0 64 64" fill="none" xmlns="http://www.w3.org/2000/svg"><path fill-rule="evenodd" clip-rule="evenodd" d="M53.91 60.384a7.097 7.097 0 0 1-7.088-7.089 7.094 7.094 0 0 1 3.79-6.27l1.854 6.672a1.499 1.499 0 1 0 2.89-.803l-1.852-6.668c.136-.008.27-.02.407-.02 3.909 0 7.089 3.18 7.089 7.09a7.097 7.097 0 0 1-7.09 7.088Zm-43.82 0c-3.909 0-7.09-3.18-7.09-7.089 0-3.909 3.181-7.09 7.09-7.09.993 0 1.938.207 2.797.577a34.85 34.85 0 0 0-2.07 2.598 4.065 4.065 0 0 0-.727-.073 3.988 3.988 0 0 0 0 7.975 3.985 3.985 0 0 0 3.69-2.487h3.236c-.69 3.191-3.532 5.59-6.926 5.59Zm3.69-8.589a4.005 4.005 0 0 0-.431-.787 31.963 31.963 0 0 1 1.987-2.464 7.06 7.06 0 0 1 1.68 3.251H13.78Zm7.505 0h-1.23a10.043 10.043 0 0 0-2.6-5.372 19.675 19.675 0 0 1 1.942-1.519l1.888 6.891Zm32.626-8.59c-.415 0-.821.034-1.223.083L48.817 29.35l3.323-6.135A1.5 1.5 0 0 0 50.82 21h-8a1.5 1.5 0 1 0 0 3h5.484l-2.413 4.453c-.185.342-.23.743-.126 1.117l2.22 7.992-21.425 6.313-.844-3.042-.01-.03-3.317-11.945h3.426a1.5 1.5 0 1 0 0-3h-8.256a1.5 1.5 0 1 0 0 3h1.717l1.873 6.742h-3.644a.5.5 0 0 0-.483.633l1.547 5.647a22.64 22.64 0 0 0-3.49 2.657 10.023 10.023 0 0 0-4.988-1.331C4.526 43.206 0 47.731 0 53.296c0 5.563 4.526 10.088 10.09 10.088 5.052 0 9.237-3.736 9.965-8.589h7.564a1.5 1.5 0 0 0 1.446-1.9l-1.114-4.01 21.424-6.313.423 1.52c-3.517 1.577-5.976 5.105-5.976 9.203 0 5.564 4.526 10.09 10.089 10.09 5.563 0 10.089-4.526 10.089-10.09 0-5.563-4.526-10.09-10.09-10.09Z" fill="currentColor"/></svg>