<svg width="64" height="64" viewBox="0 0 64 64" fill="none" xmlns="http://www.w3.org/2000/svg"><path fill-rule="evenodd" clip-rule="evenodd" d="M62.5 25h-7.54a23.924 23.924 0 0 0-1.776-4.283l5.333-5.334a1.5 1.5 0 0 0 0-2.121l-7.78-7.779a1.5 1.5 0 0 0-2.12 0l-5.334 5.333A23.924 23.924 0 0 0 39 9.04V1.5A1.5 1.5 0 0 0 37.5 0h-11A1.5 1.5 0 0 0 25 1.5v7.52a22.163 22.163 0 0 0-4.286 1.794l-5.331-5.331a1.5 1.5 0 0 0-2.121 0l-7.78 7.779a1.5 1.5 0 0 0 .023 2.142l1.956 1.878a1.5 1.5 0 1 0 2.078-2.164l-.852-.817 5.635-5.636 5.079 5.079a1.5 1.5 0 0 0 1.83.227c1.909-1.142 3.79-1.925 5.595-2.327A1.499 1.499 0 0 0 28 10.18V3h8v7.18c0 .687.468 1.287 1.135 1.455a20.859 20.859 0 0 1 5.633 2.336 1.5 1.5 0 0 0 1.83-.227l5.08-5.079 5.657 5.657-5.08 5.079a1.501 1.501 0 0 0-.226 1.831 20.859 20.859 0 0 1 2.336 5.633A1.502 1.502 0 0 0 53.82 28H61v8h-7.18c-.687 0-1.287.468-1.455 1.135a20.859 20.859 0 0 1-2.336 5.633 1.501 1.501 0 0 0 .227 1.831l5.079 5.079-5.657 5.657-5.08-5.079a1.499 1.499 0 0 0-1.83-.227 20.859 20.859 0 0 1-5.633 2.336A1.502 1.502 0 0 0 36 53.82V61h-8v-7.18a1.5 1.5 0 0 0-1.177-1.465c-1.663-.366-3.422-1.056-5.086-1.996a1.5 1.5 0 0 0-1.474 2.614A22.552 22.552 0 0 0 25 54.984V62.5a1.5 1.5 0 0 0 1.5 1.5h11a1.5 1.5 0 0 0 1.5-1.5v-7.54a23.924 23.924 0 0 0 4.283-1.776l5.334 5.333a1.5 1.5 0 0 0 2.12 0l7.78-7.779a1.5 1.5 0 0 0 0-2.121l-5.333-5.334A23.924 23.924 0 0 0 54.96 39h7.54a1.5 1.5 0 0 0 1.5-1.5v-11a1.5 1.5 0 0 0-1.5-1.5ZM8.666 55.433l5.244-14.42c.167-.46.1-.973-.182-1.373A1.498 1.498 0 0 0 12.5 39H4.019l9.753-18h9.925l-6.445 9.668a1.498 1.498 0 0 0-.074 1.54c.26.488.769.792 1.322.792h9.704L8.666 55.433Zm24.199-24.554a1.5 1.5 0 0 0-1.365-.88H21.303l6.445-9.667A1.5 1.5 0 0 0 26.5 18H12.879c-.551 0-1.057.302-1.318.786l-11.38 21A1.498 1.498 0 0 0 1.5 42h8.858L3.09 61.988a1.5 1.5 0 0 0 2.54 1.498l27-31a1.5 1.5 0 0 0 .235-1.607ZM28.479 42.43a10.99 10.99 0 0 0 3.52.57c6.066 0 11-4.935 11-11 0-6.168-4.611-11-10.5-11a1.5 1.5 0 0 1 0-3C40.07 18 46 24.149 46 32c0 7.72-6.28 14-14 14a14 14 0 0 1-4.478-.727 1.5 1.5 0 1 1 .958-2.843Z" fill="currentColor"/></svg>