<svg width="64" height="64" viewBox="0 0 64 64" fill="none" xmlns="http://www.w3.org/2000/svg"><path fill-rule="evenodd" clip-rule="evenodd" d="M40.409 5.284c-3.049-.276-10.032-.676-16.032.69a74.087 74.087 0 0 0-13.129 4.353l1.23 4.3c2.216-.67 6.545-1.98 10.046-3.057 3.795-1.169 5.207-.08 6.327 1.133.486.53.507.547 1.232.352 2.401-.647 6.946-.913 9.135-1.007l1.191-6.764Zm-23.12 15.281a1.503 1.503 0 0 1 2.666 1.09c-.039.384-1.036 9.511-7.44 15.907a1.496 1.496 0 0 1-1.062.44c-.384 0-.768-.147-1.061-.44a1.497 1.497 0 0 1 0-2.12c2.814-2.813 4.456-6.312 5.394-9.12-4.162 3.286-8.158 3.697-10.876 2.745C1.881 28.005 0 25.287 0 21.97c0-6.016 5.965-9.035 8.575-10.069l-.568-1.986a1.5 1.5 0 0 1 .776-1.755l.003-.001c.3-.147 6.516-3.196 14.924-5.11 8.435-1.92 18.244-.63 18.658-.573a1.498 1.498 0 0 1 1.278 1.746l-1.68 9.541a1.502 1.502 0 0 1-1.441 1.24h-.005c-.21.005-6.861.196-9.654.95-2.483.67-3.572-.51-4.223-1.214l-.001-.002c-.54-.586-.932-1.007-3.234-.3-4.94 1.52-11.52 3.503-11.52 3.503a1.502 1.502 0 0 1-1.878-1.025l-.604-2.11c-2.15.904-6.403 3.193-6.403 7.165 0 2.034 1.085 3.63 2.901 4.266 2.586.907 6.932-.11 11.385-5.67Zm7.333 3.447a1.507 1.507 0 0 0-1.647 1.337c-.009.084-.946 8.467-6.577 14.092a1.497 1.497 0 0 0 1.062 2.56c.385 0 .768-.145 1.061-.438 6.405-6.398 7.402-15.524 7.441-15.908a1.5 1.5 0 0 0-1.34-1.643Zm6.007 4a1.502 1.502 0 0 0-1.647 1.337v.003c-.024.2-.987 8.505-6.577 14.09a1.496 1.496 0 0 0 0 2.12 1.498 1.498 0 0 0 2.122-.001c6.406-6.395 7.403-15.521 7.442-15.905a1.5 1.5 0 0 0-1.34-1.644Zm4.359 5.335a1.51 1.51 0 0 1 1.648-1.336 1.498 1.498 0 0 1 1.34 1.643c-.04.384-1.036 9.511-7.441 15.907a1.494 1.494 0 0 1-1.061.44c-.384 0-.77-.146-1.062-.44a1.497 1.497 0 0 1 0-2.12c5.63-5.625 6.567-14.01 6.576-14.094Zm7.655 2.663a1.507 1.507 0 0 0-1.648 1.337c-.01.084-.945 8.468-6.576 14.093A1.497 1.497 0 0 0 35.48 54a1.49 1.49 0 0 0 1.06-.438c6.406-6.398 7.403-15.523 7.442-15.907a1.5 1.5 0 0 0-1.34-1.645ZM47 41.347a1.503 1.503 0 0 1 2.988.307c-.039.384-1.036 9.51-7.44 15.906a1.495 1.495 0 0 1-1.062.44c-.384 0-.769-.147-1.062-.44a1.496 1.496 0 0 1 0-2.12c5.631-5.624 6.567-14.008 6.576-14.093Zm15.497 15.561c-2.128 0-3.698-.629-4.798-1.923-2.237-2.634-1.944-7.256-1.779-8.754.049-.326.07-.528.075-.578a1.5 1.5 0 0 0-1.294-1.639 1.51 1.51 0 0 0-1.682 1.239l-.008.052c-.013.085-.04.257-.068.501-.282 1.835-1.64 8.767-6.511 13.633a1.497 1.497 0 0 0 0 2.121 1.499 1.499 0 0 0 2.123 0c2.383-2.38 4.017-5.138 5.132-7.682.391 1.083.943 2.127 1.714 3.038 1.682 1.985 4.07 2.992 7.096 2.992.829 0 1.502-.672 1.502-1.5s-.673-1.5-1.502-1.5Z" fill="currentColor"/></svg>