<svg width="64" height="64" viewBox="0 0 64 64" fill="none" xmlns="http://www.w3.org/2000/svg"><path d="M62.81 14.33C60.82 10 56.55 6.81 50.13 5 45 3.54 40.69 4.09 37.35 6.62c-5.16 3.92-6.44 11.52-6.75 15.18a5.21 5.21 0 0 1-2.78-2.2c-.72-1.4-.49-3.57.7-6.8 2.68-7.26-.07-10.35-2.86-11.67a14.41 14.41 0 0 0-11.33.07C10 3.18 6.81 7.45 5 13.87 3.54 19 4.08 23.31 6.62 26.65c3.92 5.16 11.52 6.43 15.18 6.75a5.21 5.21 0 0 1-2.2 2.78c-1.41.71-3.57.49-6.8-.7-7.26-2.68-10.36.07-11.67 2.86a14.44 14.44 0 0 0 .06 11.33c2 4.38 6.26 7.52 12.68 9.34 1.712.505 3.485.77 5.27.79a12.099 12.099 0 0 0 7.51-2.42c5.16-3.92 6.44-11.52 6.75-15.18a5.21 5.21 0 0 1 2.78 2.2c.72 1.4.49 3.57-.7 6.8-2.68 7.26.07 10.35 2.86 11.67a14.36 14.36 0 0 0 11.33-.07c4.38-2 7.52-6.25 9.34-12.67 1.45-5.14.91-9.44-1.63-12.78-3.92-5.16-11.52-6.42-15.19-6.74a5.14 5.14 0 0 1 2.21-2.78c1.4-.72 3.57-.5 6.8.69 7.26 2.68 10.35-.07 11.67-2.86a14.44 14.44 0 0 0-.06-11.33ZM32 38.5a6.5 6.5 0 1 1 6.5-6.5 6.51 6.51 0 0 1-6.5 6.5ZM9 24.83c-1.93-2.54-2.3-5.95-1.12-10.14C9.44 9.15 12 5.53 15.57 3.93a11.42 11.42 0 0 1 8.81-.09c.89.42 3.62 1.72 1.33 7.92-1.53 4.13-1.7 7-.55 9.21a7 7 0 0 0 2.43 2.62 9.521 9.521 0 0 0-4.95 6.86c-2.9-.19-10.22-1.13-13.64-5.62ZM24.83 55c-2.54 1.94-6 2.32-10.14 1.13-5.54-1.57-9.16-4.13-10.76-7.7a11.43 11.43 0 0 1-.1-8.81c.43-.89 1.72-3.62 7.93-1.33 4.13 1.53 7 1.7 9.21.55a6.998 6.998 0 0 0 2.62-2.43 9.52 9.52 0 0 0 6.86 5c-.2 2.85-1.13 10.17-5.62 13.59ZM55 39.17c1.94 2.54 2.31 5.95 1.13 10.14-1.56 5.54-4.15 9.16-7.69 10.76a11.37 11.37 0 0 1-8.81.09c-.89-.42-3.62-1.72-1.33-7.92 1.53-4.13 1.7-7 .55-9.21a7 7 0 0 0-2.43-2.62 9.53 9.53 0 0 0 5-6.84c2.84.2 10.16 1.1 13.58 5.6Zm5.18-14.79c-.43.89-1.72 3.62-7.93 1.33-4.13-1.53-7-1.7-9.21-.55a7 7 0 0 0-2.62 2.43 9.52 9.52 0 0 0-6.86-4.95c.2-2.9 1.13-10.22 5.62-13.63 2.54-1.93 6-2.31 10.14-1.13 5.54 1.56 9.16 4.15 10.76 7.69a11.427 11.427 0 0 1 .09 8.81h.01Z" fill="currentColor"/></svg>