<svg width="64" height="64" viewBox="0 0 64 64" fill="none" xmlns="http://www.w3.org/2000/svg"><path fill-rule="evenodd" clip-rule="evenodd" d="m40.185 58.89 2.728-6.444a2.096 2.096 0 0 1 2.147-1.281l6.893.657a.531.531 0 0 1 .46.36.53.53 0 0 1-.134.568 29.244 29.244 0 0 1-11.426 6.868.53.53 0 0 1-.568-.153.525.525 0 0 1-.1-.575Zm20.492-28.356a.527.527 0 0 1-.592-.056L54.83 26.26a2.115 2.115 0 0 1-.662-2.377l2.167-5.912a.533.533 0 0 1 .467-.353c.017-.002.032-.002.048-.002a.53.53 0 0 1 .468.275 28.656 28.656 0 0 1 3.648 12.127.526.526 0 0 1-.29.516ZM40.183 42.28a2.127 2.127 0 0 1-.144-1.67l2.929-8.793a2.109 2.109 0 0 1 1.248-1.307l6.428-2.471a2.127 2.127 0 0 1 2.084.325s5.023 4.02 7.246 5.782c.588.466.887 1.226.779 1.982-.607 4.327-2.167 8.376-4.635 12.036a2.107 2.107 0 0 1-1.98.932 2178.89 2178.89 0 0 0-9.745-.969 2.109 2.109 0 0 1-1.663-1.105l-2.547-4.742Zm-18.109 5.942 3.596-4.475a2.104 2.104 0 0 1 1.648-.79h.026l8.66.105c.77.01 1.475.437 1.838 1.115l2.515 4.687c.305.566.335 1.23.085 1.826 0 0-2.584 6.146-3.698 8.86a2.134 2.134 0 0 1-1.73 1.301 26.78 26.78 0 0 1-3.077.187c-1.89 0-3.829-.202-5.767-.6a2.137 2.137 0 0 1-1.612-1.432c-.874-2.717-2.848-8.806-2.849-8.806a2.108 2.108 0 0 1 .365-1.978ZM4.096 34.792l7.158-5.951a2.113 2.113 0 0 1 1.95-.403l6.376 1.876c.67.196 1.2.71 1.416 1.375l2.69 8.277a2.113 2.113 0 0 1-.364 1.981l-3.598 4.47a2.104 2.104 0 0 1-1.648.79h-.027s-6.754-.086-9.695-.126A2.145 2.145 0 0 1 6.51 45.95a28.674 28.674 0 0 1-3.144-9.145 2.165 2.165 0 0 1 .73-2.013Zm15.623-29.11c.296-.14.61-.207.924-.207.439 0 .874.135 1.238.398l7.311 5.27c.532.385.852.979.878 1.633l.307 7.746c.029.712-.3 1.385-.879 1.8l-6.873 4.951a2.103 2.103 0 0 1-1.834.314l-7.292-2.147a2.1 2.1 0 0 1-1.37-1.25l-3.197-8.072a2.155 2.155 0 0 1 .319-2.114c2.8-3.55 6.419-6.428 10.468-8.322Zm34.523 9.412-3.253 8.872a2.116 2.116 0 0 1-1.227 1.246l-6.27 2.412a2.12 2.12 0 0 1-1.985-.25l-7.275-5.164a2.13 2.13 0 0 1-.889-1.642l-.314-7.972a2.113 2.113 0 0 1 .843-1.776l7.115-5.34a2.12 2.12 0 0 1 1.275-.421c.283 0 .57.055.839.168a29.388 29.388 0 0 1 10.734 7.723 2.14 2.14 0 0 1 .407 2.144ZM37.447 4.435l-5.343 4.008c-.466.351-1.1.358-1.571.015l-5.251-3.787a.526.526 0 0 1-.214-.547.528.528 0 0 1 .406-.42 28.69 28.69 0 0 1 6.459-.746c1.73 0 3.51.172 5.293.512.215.04.374.193.423.407a.529.529 0 0 1-.202.558ZM35.537 40.1l-7.21-.087a2.117 2.117 0 0 1-1.987-1.462l-2.235-6.875a2.111 2.111 0 0 1 .776-2.37l5.834-4.205a2.102 2.102 0 0 1 1.238-.401 2.1 2.1 0 0 1 1.225.393l5.927 4.212a2.105 2.105 0 0 1 .781 2.393l-2.316 6.956c-.292.877-1.114 1.434-2.032 1.446ZM6.94 19.133l2.256 5.665c.339.852.09 1.824-.614 2.41L3.82 31.162c-.332.276-.846.03-.827-.4a29.24 29.24 0 0 1 3.031-11.675c.191-.384.756-.352.915.046Zm10.126 31.02c.907.01 1.707.6 1.988 1.464l2.061 6.34c.067.209.01.42-.152.57a.53.53 0 0 1-.58.096 28.956 28.956 0 0 1-10.465-7.725c-.277-.324-.032-.83.395-.825l6.753.08Zm46.91-18.334a31.842 31.842 0 0 0-.922-7.348 32.316 32.316 0 0 0-7.88-14.44 32.374 32.374 0 0 0-4.82-4.175A31.994 31.994 0 0 0 36.288.292a31.968 31.968 0 0 0-18.723 3.152 32.034 32.034 0 0 0-9.053 6.843c-6.158 6.68-9.142 15.37-8.4 24.469a31.758 31.758 0 0 0 5.33 15.151A32.274 32.274 0 0 0 17.248 60.43c5.751 2.989 12.383 4.131 18.81 3.313a32.042 32.042 0 0 0 16.398-7.152 32.347 32.347 0 0 0 9.13-12.379c1.63-3.92 2.427-8.159 2.39-12.393Z" fill="currentColor"/></svg>