<svg width="64" height="64" viewBox="0 0 64 64" fill="none" xmlns="http://www.w3.org/2000/svg"><path fill-rule="evenodd" clip-rule="evenodd" d="M18.611 3c.954 0 1.73.776 1.73 1.73 0 .955-.776 1.731-1.73 1.731s-1.73-.776-1.73-1.73c0-.955.776-1.73 1.73-1.73Zm0 6.461a4.736 4.736 0 0 0 4.73-4.73A4.736 4.736 0 0 0 18.611 0a4.736 4.736 0 0 0-4.73 4.73 4.736 4.736 0 0 0 4.73 4.73ZM3.526 51.983C5.068 57.14 9.85 60.911 15.5 60.911s10.432-3.77 11.974-8.928H3.526Zm9.564-17.012c0 .668-.443 1.255-1.085 1.441C6.703 37.94 3 42.875 3 48.412c0 .119.008.236.016.353.005.073.01.145.013.218h24.942c.003-.073.008-.145.013-.218.008-.117.016-.234.016-.354 0-5.556-3.727-10.497-9.062-12.018a1.499 1.499 0 0 1-1.088-1.442v-9.74h-4.76v9.76Zm7.76-9.76v8.652C26.88 36.081 31 41.906 31 48.411c0 8.547-6.953 15.5-15.5 15.5S0 56.958 0 48.411c0-6.48 4.096-12.299 10.09-14.524V25.21H8.381a1.5 1.5 0 1 1 0-3h14a1.5 1.5 0 0 1 0 3H20.85Zm16.635 26.772-4.129 8.928h26.657l-4.132-8.928H37.485Zm6.795-15.022c0 .218-.047.432-.139.63l-5.268 11.392h15.62l-5.315-11.482a1.487 1.487 0 0 1-.138-.63v-8.21h-4.76v8.3Zm7.76-.42 11.681 25.24a1.502 1.502 0 0 1-1.36 2.13H31.008a1.5 1.5 0 0 1-1.36-2.13l11.631-25.15v-7.97h-1.596a1.5 1.5 0 1 1 0-3h14a1.5 1.5 0 1 1 0 3H52.04v7.88ZM29.62 12.578c0-.954-.776-1.73-1.73-1.73a1.731 1.731 0 1 0 1.729 1.73Zm3 0a4.736 4.736 0 0 1-4.73 4.73 4.736 4.736 0 0 1-4.731-4.73 4.736 4.736 0 0 1 4.73-4.73 4.736 4.736 0 0 1 4.73 4.73ZM51.434 17.2a1.731 1.731 0 0 1 0 3.46 1.732 1.732 0 0 1-1.731-1.73c0-.954.776-1.73 1.73-1.73Zm-4.731 1.73a4.736 4.736 0 0 0 4.73 4.73 4.736 4.736 0 0 0 4.73-4.73 4.736 4.736 0 0 0-4.73-4.73 4.736 4.736 0 0 0-4.73 4.73Zm-5.507-1.981c0-.954-.776-1.73-1.73-1.73a1.731 1.731 0 1 0 1.729 1.73Zm3 0a4.736 4.736 0 0 1-4.73 4.73 4.736 4.736 0 0 1-4.731-4.73 4.736 4.736 0 0 1 4.73-4.73 4.736 4.736 0 0 1 4.73 4.73Zm1.73-11.62a1.731 1.731 0 0 1 0 3.461c-.953 0-1.73-.776-1.73-1.73 0-.955.777-1.73 1.73-1.73Zm0 6.461a4.736 4.736 0 0 0 4.73-4.73 4.736 4.736 0 0 0-4.73-4.73 4.736 4.736 0 0 0-4.73 4.73 4.736 4.736 0 0 0 4.73 4.73ZM15.16 15.48a1.731 1.731 0 0 0-3.46 0c0 .954.776 1.73 1.73 1.73s1.73-.776 1.73-1.73Zm3 0a4.736 4.736 0 0 1-4.73 4.73 4.736 4.736 0 0 1-4.73-4.73 4.736 4.736 0 0 1 4.73-4.73 4.736 4.736 0 0 1 4.73 4.73Z" fill="currentColor"/></svg>