<svg width="65" height="64" viewBox="0 0 65 64" fill="none" xmlns="http://www.w3.org/2000/svg"><path fill-rule="evenodd" clip-rule="evenodd" d="M18.897 9.18a8.238 8.238 0 0 1 1.783-.195c2.775 0 5.444 1.389 6.996 3.757.342.52.972.776 1.582.643L48.64 9.108l2.427 1.566-1.533 2.441-2.432.536a1.513 1.513 0 0 0-.75.415l-1.994 2.036-2.67-1.006a1.495 1.495 0 0 0-1.605.354l-1.995 2.035-2.67-1.005a1.511 1.511 0 0 0-.855-.062l-4.521.997a1.5 1.5 0 0 0-1.155 1.213c-.557 3.329-3.067 5.955-6.393 6.69-4.478.99-8.923-1.827-9.914-6.275-.994-4.452 1.84-8.877 6.316-9.864ZM20.69 28.5c.81 0 1.632-.088 2.454-.269 4.188-.924 7.424-4.055 8.487-8.11l3.144-.692 3.17 1.194c.557.21 1.189.07 1.606-.355l1.994-2.035 2.67 1.005a1.502 1.502 0 0 0 1.606-.353l2.367-2.417 2.608-.574a1.5 1.5 0 0 0 .949-.667l2.648-4.215c.434-.69.23-1.6-.456-2.042l-4.191-2.707a1.52 1.52 0 0 0-1.142-.205l-19.035 4.2a11.418 11.418 0 0 0-11.323-3.994 11.244 11.244 0 0 0-7.095 4.94A11.138 11.138 0 0 0 9.65 19.69c1.168 5.235 5.854 8.81 11.04 8.81Zm40.2 17.693a1.972 1.972 0 0 1-1.015 1.14L31.878 60.907 3 51.97V37.141h14.666c8.485 0 10.076 5.113 10.135 5.316a1.501 1.501 0 0 0 1.449 1.105h13.713c.011 0 .02.003.03.003 1.103 0 2.001.894 2.001 1.99 0 1.097-.898 1.99-2.001 1.99H24.159c-.829 0-1.5.668-1.5 1.492s.671 1.492 1.5 1.492h18.834c.103 0 .204-.01.301-.03a4.955 4.955 0 0 0 1.962-.533.98.98 0 0 1 .031-.011l.019-.006a.721.721 0 0 0 .093-.036l12.722-6.159a2.01 2.01 0 0 1 2.676.918c.235.477.268 1.017.093 1.52Zm2.604-2.83c-1.208-2.465-4.211-3.493-6.686-2.291l-8.836 4.276c-.106-2.537-2.125-4.573-4.663-4.734a1.45 1.45 0 0 0-.316-.036H30.259c-1.03-2.097-4.175-6.421-12.593-6.421H1.5c-.828 0-1.5.668-1.5 1.492v17.419c0 .653.427 1.23 1.055 1.425l30.5 9.44a.047.047 0 0 0 .01.002h.006l.005.001c.133.04.272.061.414.062l.006.001L32 64h.001a1.48 1.48 0 0 0 .526-.105.744.744 0 0 1 .054-.017.546.546 0 0 0 .077-.028L61.19 50.016a4.958 4.958 0 0 0 2.537-2.85 4.932 4.932 0 0 0-.233-3.803ZM20.877 17.207a2.734 2.734 0 0 1-2.09 3.262 2.75 2.75 0 0 1-3.28-2.078 2.736 2.736 0 0 1 2.09-3.262 2.748 2.748 0 0 1 3.28 2.077Z" fill="currentColor"/></svg>