<svg width="64" height="64" viewBox="0 0 64 64" fill="none" xmlns="http://www.w3.org/2000/svg"><path fill-rule="evenodd" clip-rule="evenodd" d="M18.651 61h7V49h-7v12Zm37.478 0H28.65V47.5a1.5 1.5 0 0 0-1.5-1.5h-10a1.5 1.5 0 0 0-1.5 1.5V61H8.629V21.593L31.999 3.4l22.63 17.614v17.222a1.5 1.5 0 0 0 3 0V23.35l3.95 3.076a1.5 1.5 0 1 0 1.842-2.368L32.92.317a1.498 1.498 0 0 0-1.842 0l-30.5 23.74a1.5 1.5 0 0 0 1.842 2.368l3.208-2.497V62.5a1.5 1.5 0 0 0 1.5 1.5h49a1.5 1.5 0 0 0 0-3ZM27.15 38.03h-10a1.5 1.5 0 0 0 0 3h10a1.5 1.5 0 0 0 0-3Zm-10-7.971h10a1.5 1.5 0 0 1 0 3h-10a1.5 1.5 0 0 1 0-3Zm10-8h-10a1.5 1.5 0 0 0 0 3h10a1.5 1.5 0 0 0 0-3Zm8.838 0h10a1.5 1.5 0 0 1 0 3h-10a1.5 1.5 0 0 1 0-3Zm10 8h-10a1.5 1.5 0 0 0 0 3h10a1.5 1.5 0 0 0 0-3ZM41.74 50.872l3.835 3.139a5.548 5.548 0 0 0 7.796-.778c1.937-2.368 1.592-5.87-.772-7.805l-3.835-3.14-1.211 1.482-.003.004a.046.046 0 0 1-.002.004l-.006.005-4.582 5.598-.001.002-.001.002-.003.003-1.215 1.484Zm14.773 3.046c1.04.739 2.998 1.719 5.795 1.358a1.5 1.5 0 1 1 .383 2.975c-.544.07-1.066.103-1.566.103a10.892 10.892 0 0 1-6.527-2.125 8.54 8.54 0 0 1-5.522 2.03 8.503 8.503 0 0 1-5.401-1.926l-4.996-4.09a1.497 1.497 0 0 1-.542-1.01 1.494 1.494 0 0 1 .331-1.1l1.217-1.487-4.447-3.64a1.501 1.501 0 0 1 1.9-2.322l4.448 3.64 2.689-3.287-4.447-3.64a1.502 1.502 0 0 1-.211-2.111 1.503 1.503 0 0 1 2.111-.211l4.448 3.64 1.216-1.486a1.502 1.502 0 0 1 2.112-.211l4.996 4.089c3.257 2.668 4.02 7.259 2.013 10.81Z" fill="currentColor"/></svg>