<svg width="64" height="64" viewBox="0 0 64 64" fill="none" xmlns="http://www.w3.org/2000/svg"><path fill-rule="evenodd" clip-rule="evenodd" d="m50.965 47.974-11.42-4.146c-.029-.011-.057-.023-.086-.032l-8.046-2.921L59.75 11.497l-8.785 36.477Zm-24.106 4.71 2.841-9.241 6.233 2.262-9.074 6.979Zm24.585-36.897L27.651 40.454a1.463 1.463 0 0 0-.217.29c-.025.043-.038.089-.059.133-.027.059-.059.116-.078.177l-3.365 10.94-5.067-14.14 32.58-22.067ZM49.56 13.44 19.455 33.83l-2.602 1.764-11.2-4.066L49.558 13.44Zm14.4-6.603c.013-.055.004-.11.011-.165.01-.076.018-.148.016-.224 0-.041.006-.082.002-.123-.004-.043-.024-.083-.032-.125-.004-.02-.01-.036-.014-.053-.015-.068-.026-.132-.05-.196-.018-.043-.034-.084-.055-.126-.008-.016-.007-.034-.016-.05-.022-.04-.059-.067-.085-.105l-.028-.044c-.024-.034-.033-.074-.06-.106-.006-.007-.014-.01-.02-.016-.03-.035-.067-.061-.1-.093-.055-.053-.114-.094-.175-.138-.046-.032-.08-.075-.13-.103l-.003-.001c-.01-.005-.02-.005-.029-.01-.029-.014-.059-.017-.087-.03a1.607 1.607 0 0 0-.22-.077c-.053-.014-.102-.036-.154-.045-.045-.007-.089 0-.134-.003a1.557 1.557 0 0 0-.216 0c-.054.004-.105.006-.158.016-.059.012-.112.035-.17.053-.04.013-.083.009-.123.026l-61 25.13a1.5 1.5 0 0 0 .06 2.797l14.897 5.409 6.742 18.816c.01.027.028.047.04.073a1.412 1.412 0 0 0 .314.46c.047.049.092.099.145.14.054.042.112.074.171.109.06.034.118.063.18.088.061.026.122.049.186.066.083.02.167.032.252.039.042.004.081.019.124.019h.034c.33-.007.634-.123.881-.313l.003-.002 14.318-11.011 12.244 4.447a1.501 1.501 0 0 0 1.968-1.059L63.956 6.844l.002-.007Z" fill="currentColor"/></svg>