<svg width="64" height="64" viewBox="0 0 64 64" fill="none" xmlns="http://www.w3.org/2000/svg"><path fill-rule="evenodd" clip-rule="evenodd" d="M22.38 36.199v4.886c0 5.304 4.315 9.619 9.62 9.619 5.304 0 9.62-4.315 9.62-9.62V36.2H22.38Zm23.12-9v6h-27v-6h27ZM32 0c17.645 0 32 14.356 32 32a31.98 31.98 0 0 1-19.379 29.414h-.004l-.005.004-.006.003-.015.005a9.991 9.991 0 0 1-4.03.854c-5.076 0-9.274-3.773-9.966-8.66-6.299-.701-11.215-6.053-11.215-12.535v-4.886H17a1.5 1.5 0 0 1-1.5-1.5v-9a1.5 1.5 0 0 1 1.5-1.5h5.5v-11.49a1.5 1.5 0 1 1 3 0v11.49h13v-11.49a1.5 1.5 0 1 1 3 0v11.49H47a1.5 1.5 0 0 1 1.5 1.5v9a1.5 1.5 0 0 1-1.5 1.5h-2.38v4.886c0 6.407-4.806 11.703-10.999 12.503.646 3.24 3.51 5.692 6.94 5.692.972 0 1.931-.205 2.847-.61h.001c.005-.001.01-.005.014-.007A28.981 28.981 0 0 0 61 32C61 16.01 47.99 3 32 3S3 16.01 3 32a28.902 28.902 0 0 0 7.72 19.7 1.5 1.5 0 1 1-2.202 2.04A31.893 31.893 0 0 1 0 32C0 14.356 14.355 0 32 0Zm0 41.967a2.098 2.098 0 1 1 0 4.197 2.098 2.098 0 0 1-.001-4.197Z" fill="currentColor"/></svg>