<svg width="64" height="64" viewBox="0 0 64 64" fill="none" xmlns="http://www.w3.org/2000/svg"><path fill-rule="evenodd" clip-rule="evenodd" d="M60.629 36.802 36.802 60.629c-.481.48-1.322.48-1.803 0L3.373 29.003A1.268 1.268 0 0 1 3 28.102V4.276C3 3.573 3.572 3 4.275 3h23.827c.34 0 .66.133.9.373L60.63 34.999c.24.24.373.56.373.902 0 .34-.133.66-.373.9Zm2.12-3.924L31.125 1.252A4.247 4.247 0 0 0 28.102 0H4.275A4.28 4.28 0 0 0 0 4.276v23.826c0 1.14.444 2.215 1.252 3.022L32.878 62.75A4.262 4.262 0 0 0 35.9 64c1.095 0 2.19-.417 3.023-1.25L62.75 38.923a4.279 4.279 0 0 0 0-6.045Zm-17.202.014c-.822-.05-1.521.625-1.545 1.453-.028.91-.174 1.727-.433 2.422-1.075 2.888-3.981 4.31-7.562 3.718a12.557 12.557 0 0 1-3.247-1.028l4.436-4.503a1.5 1.5 0 1 0-2.136-2.106l-4.944 5.02a17.01 17.01 0 0 1-3.576-3.602l4.99-5.065a1.5 1.5 0 1 0-2.136-2.106l-4.433 4.5c-.514-1.11-.888-2.262-1.075-3.43-.387-2.403.074-4.544 1.297-6.027 1.099-1.334 2.73-2.073 4.716-2.138a1.5 1.5 0 0 0-.049-3h-.05c-2.83.093-5.292 1.239-6.933 3.229-1.78 2.157-2.47 5.144-1.945 8.412.29 1.805.919 3.568 1.808 5.217l-1.81 1.837a1.5 1.5 0 1 0 2.137 2.105l1.35-1.371a19.985 19.985 0 0 0 3.578 3.599l-1.398 1.42a1.5 1.5 0 1 0 2.137 2.105l1.823-1.851c1.575.85 3.252 1.457 4.969 1.74.7.117 1.388.175 2.055.175 4.1-.001 7.447-2.147 8.808-5.804.374-1.002.582-2.138.62-3.377a1.499 1.499 0 0 0-1.453-1.545ZM10 12.5c0 1.38 1.121 2.5 2.5 2.5s2.5-1.12 2.5-2.5c0-1.379-1.121-2.5-2.5-2.5a2.502 2.502 0 0 0-2.5 2.5Zm-3 0C7 9.468 9.468 7 12.5 7S18 9.468 18 12.5s-2.468 5.501-5.5 5.501a5.508 5.508 0 0 1-5.5-5.5Z" fill="currentColor"/></svg>