<svg width="64" height="64" viewBox="0 0 64 64" fill="none" xmlns="http://www.w3.org/2000/svg"><path fill-rule="evenodd" clip-rule="evenodd" d="M18.5 21.986a1.5 1.5 0 0 1 0-3h2.517a14.07 14.07 0 0 1 0-2.973H18.5a1.5 1.5 0 0 1 0-3h3.182a13.44 13.44 0 0 1 3.041-5.04c4.418-4.59 11.381-5.285 16.558-1.655a1.5 1.5 0 0 1-1.722 2.457C35.6 6 30.27 6.535 26.884 10.053c-.85.883-1.506 1.89-1.99 2.96H31.5a1.5 1.5 0 0 1 0 3h-7.467c-.134.988-.134 1.987.001 2.973H31.5a1.5 1.5 0 0 1 0 3h-6.604a10.44 10.44 0 0 0 1.99 2.958c2.678 2.786 6.58 3.76 10.181 2.548a9.848 9.848 0 0 0 2.493-1.286 1.495 1.495 0 0 1 2.088.366 1.498 1.498 0 0 1-.366 2.089 12.792 12.792 0 0 1-3.256 1.673 12.748 12.748 0 0 1-4.079.674c-3.41 0-6.726-1.388-9.223-3.984a13.435 13.435 0 0 1-3.04-5.038H18.5Zm41.373 25.258a1.99 1.99 0 0 0 1.016-1.146 2 2 0 0 0-2.769-2.451l-12.722 6.19a.639.639 0 0 1-.09.034l-.05.018a4.939 4.939 0 0 1-1.965.538c-.097.02-.2.03-.302.03H24.159a1.5 1.5 0 1 1 0-3H42.99a2.004 2.004 0 0 0 2.002-2c0-1.102-.9-2-2.002-2l-.03-.003H29.249a1.502 1.502 0 0 1-1.45-1.11c-.058-.205-1.65-5.345-10.134-5.345H3v14.906l28.877 8.985 27.996-13.646Zm.753-6.527a4.971 4.971 0 0 1 2.867 2.537c.584 1.2.667 2.558.232 3.822a4.972 4.972 0 0 1-2.537 2.866L32.657 63.848a.461.461 0 0 1-.083.03l-.048.016A1.486 1.486 0 0 1 32 64h-.005l-.006-.002a1.476 1.476 0 0 1-.414-.062l-.01-.001c-.004 0-.008 0-.011-.002l-30.499-9.49A1.5 1.5 0 0 1 0 53.01V35.5A1.5 1.5 0 0 1 1.5 34h16.165c8.418 0 11.563 4.347 12.593 6.455H42.99c.109 0 .214.013.316.036a4.983 4.983 0 0 1 4.665 4.76l8.835-4.3a4.977 4.977 0 0 1 3.819-.233Z" fill="currentColor"/></svg>