<svg width="64" height="64" viewBox="0 0 64 64" fill="none" xmlns="http://www.w3.org/2000/svg"><path fill-rule="evenodd" clip-rule="evenodd" d="M35.455 17.733a2.957 2.957 0 0 1-2.955 2.953 2.958 2.958 0 0 1-2.954-2.953 2.958 2.958 0 0 1 2.954-2.955 2.957 2.957 0 0 1 2.955 2.955ZM33.034 4.087a20.437 20.437 0 0 0-6.201.763C21.499.458 15.262.024 14.892.003a1.495 1.495 0 0 0-1.584 1.41 1.5 1.5 0 0 0 1.41 1.584c.07.004 4.483.31 8.743 3.125A20.597 20.597 0 0 0 12.26 20.288a1.5 1.5 0 0 0 1.144 1.787 1.496 1.496 0 0 0 1.787-1.145A17.622 17.622 0 0 1 26.067 8.237a16.482 16.482 0 0 1 3.213 4.495 5.948 5.948 0 0 0-2.734 5 5.96 5.96 0 0 0 5.954 5.954 5.961 5.961 0 0 0 5.955-5.953 5.961 5.961 0 0 0-5.955-5.955c-.078 0-.154.006-.23.01l-.107.008a19.723 19.723 0 0 0-2.817-4.462c1.164-.2 2.359-.295 3.578-.248 9.292.34 16.852 8.484 16.852 18.157v14.508a1.5 1.5 0 1 0 3 0V25.244c0-11.268-8.857-20.759-19.742-21.157ZM50.5 63.997H14.499A2.507 2.507 0 0 1 12 61.487V27.922a1.5 1.5 0 1 1 3 0v33.075h35V46.965a1.5 1.5 0 1 1 3 0v14.522a2.507 2.507 0 0 1-2.499 2.51Zm-28.184-6.09a1.494 1.494 0 0 0 1.913-.165l10.25-10.156a1.5 1.5 0 0 0-2.112-2.131l-4.445 4.406 2.738-6.022a1.5 1.5 0 0 0-1.365-2.121h-5.184l5.283-11.614h5.538l-2.142 4.71a1.497 1.497 0 0 0 1.132 2.103l6.125.964-2.561 2.538a1.5 1.5 0 0 0 2.112 2.13l4.666-4.623a1.5 1.5 0 0 0-.823-2.547l-7.103-1.118 2.29-5.036a1.5 1.5 0 0 0-1.366-2.121h-8.834a1.5 1.5 0 0 0-1.365.879l-6.647 14.614a1.498 1.498 0 0 0 1.365 2.12h5.184l-5.157 11.339c-.3.659-.086 1.438.508 1.85Z" fill="currentColor"/></svg>