<svg width="64" height="64" viewBox="0 0 64 64" fill="none" xmlns="http://www.w3.org/2000/svg"><path fill-rule="evenodd" clip-rule="evenodd" d="M60.997 43H44.979v-3h16.018v3ZM32.035 29.862h10.442a5.51 5.51 0 0 1 5.506 5.5V37h10.01v-4.638c0-6.892-5.614-12.5-12.513-12.5H32.035v10ZM19.271 33.5h8.51c.69 0 1.25-.561 1.25-1.25v-15.5c0-.689-.56-1.25-1.25-1.25h-8.51c-.69 0-1.251.561-1.251 1.25v15.5c0 .689.561 1.25 1.251 1.25Zm-4.255-4H9.01v-10h6.006v10Zm-10.511 6c.828 0 1.502-.673 1.502-1.5V15c0-.827-.674-1.5-1.502-1.5H3.003v22h1.502ZM16.245 3c-.83 0-1.502.673-1.502 1.5S15.416 6 16.245 6H31.26c.828 0 1.502-.673 1.502-1.5S32.089 3 31.26 3H16.245Zm44.752 34h.442A2.562 2.562 0 0 1 64 39.558v3.884A2.562 2.562 0 0 1 61.44 46H44.534a2.56 2.56 0 0 1-2.56-2.558v-3.884A2.56 2.56 0 0 1 44.536 37h.444v-1.638c0-1.379-1.122-2.5-2.502-2.5H31.973c-.3 2.052-2.056 3.638-4.193 3.638h-8.509c-2.26 0-4.097-1.774-4.23-4H9.01V34c0 2.481-2.021 4.5-4.505 4.5H1.502A1.501 1.501 0 0 1 0 37V12c0-.828.673-1.5 1.502-1.5h3.003A4.508 4.508 0 0 1 9.01 15v1.5h6.031c.133-2.226 1.97-4 4.23-4h2.98V9h-6.006a4.507 4.507 0 0 1-4.505-4.5c0-2.481 2.02-4.5 4.505-4.5H31.26a4.508 4.508 0 0 1 4.505 4.5c0 2.481-2.021 4.5-4.505 4.5h-6.006v3.5h2.525a4.256 4.256 0 0 1 4.255 4.25v.112H45.48c8.556 0 15.517 6.953 15.517 15.5V37ZM50.03 58.047A2.959 2.959 0 0 0 52.988 61a2.958 2.958 0 0 0 2.956-2.953c0-.944-1.387-3.182-2.956-5.191-1.57 2.009-2.958 4.247-2.958 5.191Zm1.827-8.535a1.504 1.504 0 0 1 2.26 0c.808.921 4.83 5.657 4.83 8.535 0 3.282-2.674 5.953-5.96 5.953s-5.96-2.671-5.96-5.953c0-2.878 4.023-7.614 4.83-8.535Z" fill="currentColor"/></svg>