<svg width="64" height="64" viewBox="0 0 64 64" fill="none" xmlns="http://www.w3.org/2000/svg"><path fill-rule="evenodd" clip-rule="evenodd" d="M49.663 23c-2.886 0-4.359-1.667-5.543-3.007C42.995 18.72 42.287 18 40.825 18c-1.461 0-2.168.72-3.292 1.993C36.35 21.333 34.878 23 31.994 23s-4.356-1.666-5.54-3.006l-.001-.001C25.328 18.72 24.621 18 23.16 18s-2.168.72-3.292 1.993C18.685 21.333 17.213 23 14.329 23s-4.356-1.667-5.539-3.007C7.666 18.72 6.959 18 5.5 18a1.5 1.5 0 1 1 0-3c2.883 0 4.354 1.666 5.537 3.006l.001.001C12.162 19.28 12.869 20 14.329 20s2.167-.72 3.291-1.993C18.803 16.667 20.275 15 23.16 15c2.884 0 4.356 1.666 5.54 3.006l.001.001C29.826 19.28 30.533 20 31.994 20c1.46 0 2.167-.72 3.291-1.993C36.468 16.667 37.94 15 40.825 15c2.886 0 4.359 1.667 5.543 3.007C47.493 19.28 48.201 20 49.663 20s2.169-.72 3.294-1.993C54.141 16.667 55.614 15 58.5 15a1.5 1.5 0 1 1 0 3c-1.462 0-2.17.72-3.295 1.994l-.001.001C54.02 21.335 52.547 23 49.663 23Zm0 13c-2.886 0-4.359-1.667-5.543-3.007C42.995 31.72 42.287 31 40.825 31c-1.461 0-2.168.72-3.292 1.993C36.35 34.333 34.878 36 31.994 36s-4.356-1.666-5.54-3.006l-.001-.001C25.328 31.72 24.621 31 23.16 31s-2.168.72-3.292 1.993C18.685 34.333 17.213 36 14.329 36c-2.882 0-4.354-1.666-5.537-3.005l-.002-.002C7.666 31.72 6.959 31 5.5 31a1.5 1.5 0 1 1 0-3c2.883 0 4.354 1.666 5.537 3.006l.001.001C12.162 32.28 12.869 33 14.329 33s2.167-.72 3.291-1.993C18.803 29.667 20.275 28 23.16 28c2.884 0 4.356 1.666 5.54 3.006l.001.001C29.826 32.28 30.533 33 31.994 33c1.46 0 2.167-.72 3.291-1.993C36.468 29.667 37.94 28 40.825 28c2.886 0 4.359 1.667 5.543 3.007C47.493 32.28 48.201 33 49.663 33s2.169-.72 3.294-1.993C54.141 29.667 55.614 28 58.5 28a1.5 1.5 0 1 1 0 3c-1.462 0-2.17.72-3.295 1.994l-.001.001C54.02 34.335 52.547 36 49.663 36Zm-5.543 9.993C45.304 47.333 46.777 49 49.663 49c2.885 0 4.358-1.667 5.542-3.007C56.33 44.721 57.038 44 58.5 44a1.5 1.5 0 0 0 0-3c-2.886 0-4.359 1.667-5.543 3.007C51.832 45.28 51.125 46 49.663 46s-2.17-.721-3.295-1.993C45.184 42.667 43.711 41 40.825 41c-2.885 0-4.357 1.667-5.54 3.007C34.161 45.28 33.454 46 31.994 46c-1.461 0-2.168-.72-3.293-1.993l-.001-.001C27.516 42.666 26.044 41 23.16 41c-2.885 0-4.357 1.667-5.54 3.007C16.496 45.28 15.789 46 14.329 46s-2.167-.72-3.291-1.993v-.001C9.853 42.666 8.382 41 5.5 41a1.5 1.5 0 0 0 0 3c1.459 0 2.166.72 3.29 1.992C9.975 47.333 11.447 49 14.33 49c2.884 0 4.356-1.667 5.539-3.007C20.992 44.72 21.699 44 23.16 44c1.461 0 2.168.72 3.293 1.993l.001.001C27.638 47.334 29.11 49 31.994 49s4.356-1.667 5.539-3.007C38.657 44.72 39.364 44 40.825 44c1.462 0 2.17.721 3.295 1.993Z" fill="currentColor"/></svg>