<svg width="64" height="64" viewBox="0 0 64 64" fill="none" xmlns="http://www.w3.org/2000/svg"><path fill-rule="evenodd" clip-rule="evenodd" d="m36.46 38.141 20.725 11.966.813-1.41-1.449-1.259a1.212 1.212 0 0 1-.108-.094L43.003 35.675l-4.693-.962a6.69 6.69 0 0 1-1.85 3.428Zm-4.714-8.449a3.7 3.7 0 0 0-3.697 3.697 3.7 3.7 0 0 0 3.697 3.697 3.7 3.7 0 0 0 3.697-3.697 3.7 3.7 0 0 0-3.697-3.697ZM7.302 47.802l16.835-5.806 3.188-3.59a6.682 6.682 0 0 1-2.047-3.313L4.547 47.061l.816 1.41 1.82-.628c.039-.015.078-.028.118-.04Zm26.202-20.868V3h-1.628l-.366 1.89c-.005.041-.014.08-.022.12l-.002.006-3.39 17.482 1.515 4.548a6.67 6.67 0 0 1 2.135-.354c.61 0 1.197.09 1.758.242Zm27.652-1.756a30.147 30.147 0 0 1-1.842 20.688l1.586 1.377c.543.471.675 1.26.315 1.883l-2.182 3.78a1.5 1.5 0 0 1-2.049.55L33.44 39.86a6.667 6.667 0 0 1-1.693.225 6.635 6.635 0 0 1-1.7-.227l-3.924 4.423a1.51 1.51 0 0 1-.634.422l-7.055 2.433a19.125 19.125 0 0 0 6.697 4.214 1.502 1.502 0 0 1 .89 1.926 1.503 1.503 0 0 1-1.925.891 22.11 22.11 0 0 1-8.786-5.954L10.134 50a27.131 27.131 0 0 0 14.794 10.067 1.5 1.5 0 0 1-.776 2.898A30.141 30.141 0 0 1 7.159 51.026l-1.986.685a1.502 1.502 0 0 1-1.788-.668l-2.182-3.78a1.5 1.5 0 0 1 .548-2.05l23.543-13.592a6.717 6.717 0 0 1 1.7-2.944l-1.867-5.605a1.493 1.493 0 0 1-.05-.759l1.421-7.327a19.114 19.114 0 0 0-6.998 3.692 1.499 1.499 0 1 1-1.919-2.304 22.086 22.086 0 0 1 9.545-4.632l1.046-5.389a27.158 27.158 0 0 0-16.12 7.793 1.496 1.496 0 0 1-2.12 0 1.5 1.5 0 0 1 0-2.12 30.147 30.147 0 0 1 18.837-8.749l.398-2.063A1.499 1.499 0 0 1 30.64 0h4.364a1.5 1.5 0 0 1 1.5 1.5v27.183a6.71 6.71 0 0 1 1.697 2.945l5.79 1.187c.253.052.488.168.682.337l5.635 4.893c.647-2.573.758-5.267.301-7.906a1.5 1.5 0 1 1 2.957-.51 22.09 22.09 0 0 1-.763 10.582l4.144 3.6a27.137 27.137 0 0 0 1.31-17.855 1.502 1.502 0 0 1 2.9-.778ZM5.1 23.105a1.498 1.498 0 0 1-1.366-2.116 29.885 29.885 0 0 1 1.766-3.34 1.5 1.5 0 0 1 2.558 1.567 27.282 27.282 0 0 0-1.59 3.005c-.25.556-.796.884-1.368.884Zm29.613 37.76c-1.124.112-2.27.154-3.398.126a1.496 1.496 0 0 0-1.54 1.462 1.502 1.502 0 0 0 1.463 1.538 29.944 29.944 0 0 0 3.774-.142 1.498 1.498 0 0 0 1.343-1.641c-.083-.824-.821-1.437-1.642-1.343Zm22.471-40.12a1.498 1.498 0 0 1-1.318-.782 27.48 27.48 0 0 0-1.809-2.88 1.5 1.5 0 0 1 2.436-1.75 30.484 30.484 0 0 1 2.008 3.196 1.5 1.5 0 0 1-1.317 2.217Z" fill="currentColor"/></svg>