<svg width="64" height="64" viewBox="0 0 64 64" fill="none" xmlns="http://www.w3.org/2000/svg"><path fill-rule="evenodd" clip-rule="evenodd" d="M33.5 5.5a1.5 1.5 0 0 1-3 0v-4a1.5 1.5 0 0 1 3 0v4Zm7.061 6.061A1.495 1.495 0 0 1 39.5 12a1.502 1.502 0 0 1-1.061-2.561l3-3a1.502 1.502 0 0 1 2.122 0 1.502 1.502 0 0 1 0 2.122l-3 3ZM41 19.5a1.5 1.5 0 0 0 1.5 1.5h4a1.5 1.5 0 0 0 0-3h-4a1.5 1.5 0 0 0-1.5 1.5ZM24.5 12a1.49 1.49 0 0 1-1.06-.44l-3-3a1.5 1.5 0 1 1 2.12-2.12l3 3A1.5 1.5 0 0 1 24.5 12Zm-7 9h4a1.5 1.5 0 0 0 0-3h-4a1.5 1.5 0 0 0 0 3ZM23 37.5V61h18V37.5c0-2.481-2.019-4.5-4.5-4.5h-9a4.505 4.505 0 0 0-4.5 4.5Zm9.04-25.502c-1.258.249-4.04 6.233-4.04 9.466 0 1.733 1.201 2.776 2.5 3.242V22.5a1.5 1.5 0 0 1 3 0v2.241c1.262-.429 2.5-1.433 2.5-3.277 0-3.444-2.812-9.234-3.96-9.466ZM44 61h4.5a1.5 1.5 0 0 1 0 3h-33a1.5 1.5 0 0 1 0-3H20V37.5c0-4.136 3.364-7.5 7.5-7.5h3v-2.17c-2.907-.61-5.5-2.892-5.5-6.366C25 18.356 27.852 9 32.062 9 36.198 9 39 18.356 39 21.464c0 3.514-2.604 5.808-5.5 6.388V30h3c4.136 0 7.5 3.364 7.5 7.5V61Z" fill="currentColor"/></svg>