<svg width="64" height="64" viewBox="0 0 64 64" fill="none" xmlns="http://www.w3.org/2000/svg"><path d="M61 29.51a1.545 1.545 0 0 0-.25-.79l-9-14.025a1.678 1.678 0 0 0-.18-.21 1.305 1.305 0 0 0-.27-.19h-.06l-.26-.1h-.1a.996.996 0 0 0-.25 0h-34.5c-.104.023-.205.06-.3.11h-.05a1.89 1.89 0 0 0-.23.16l-.07.07a1.29 1.29 0 0 0-.16.17l-10 14.024v.07a1.444 1.444 0 0 0-.22 1.002H5c.05.249.164.48.33.671l26.9 33.057a2 2 0 0 0 .26.24h.05c.1.068.207.122.32.16h.11c.136.044.277.067.42.071.14-.007.278-.034.41-.08h.11c.112-.05.22-.11.32-.18h.05c.093-.074.177-.158.25-.25L60.6 30.431a1.54 1.54 0 0 0 .33-.921H61ZM33.36 57.179l-7.84-26.125h15l-7.16 26.125Zm-7.03-29.13L33 18.201l6.67 9.847H26.33Zm-2.63-1.462-4.77-9.557h11.24l-6.47 9.557Zm12.13-9.557h12.08l-5.52 9.687-6.56-9.687Zm-19.56 1.403 4.8 9.616H9.42l6.85-9.616Zm6.11 12.621 7.43 24.743L9.66 31.053h12.72Zm14.45 24.813 6.81-24.813H56.4L36.83 55.866Zm8.26-27.818 5.49-9.626 6.17 9.626H45.09ZM33 11.019a1.499 1.499 0 0 0 1.5-1.503V1.503A1.504 1.504 0 0 0 33 0a1.499 1.499 0 0 0-1.5 1.503v8.013A1.504 1.504 0 0 0 33 11.02Zm7.73-.21a1.508 1.508 0 0 0 2.06-.52l3-5.01a1.507 1.507 0 0 0-1.072-2.26 1.5 1.5 0 0 0-1.508.718l-3 5.008a1.515 1.515 0 0 0 .52 2.064Zm-17.4-.351a1.48 1.48 0 0 0 1.17.561 1.498 1.498 0 0 0 1.491-1.675 1.504 1.504 0 0 0-.321-.77l-4-5.008a1.503 1.503 0 0 0-1.59-.501 1.5 1.5 0 0 0-1.072 1.28 1.504 1.504 0 0 0 .322 1.104l4 5.009ZM57.5 52.09H56v-1.503a1.504 1.504 0 0 0-1.5-1.503 1.499 1.499 0 0 0-1.5 1.503v1.503h-1.5a1.499 1.499 0 0 0-1.5 1.502 1.504 1.504 0 0 0 1.5 1.503H53v1.502a1.504 1.504 0 0 0 1.5 1.503 1.499 1.499 0 0 0 1.5-1.503v-1.502h1.5a1.499 1.499 0 0 0 1.5-1.503 1.504 1.504 0 0 0-1.5-1.502Zm-46-8.014H10v-1.503a1.504 1.504 0 0 0-1.5-1.502A1.499 1.499 0 0 0 7 42.573v1.503H5.5A1.499 1.499 0 0 0 4 45.578a1.504 1.504 0 0 0 1.5 1.503H7v1.503a1.504 1.504 0 0 0 1.5 1.502 1.499 1.499 0 0 0 1.5-1.502V47.08h1.5a1.499 1.499 0 0 0 1.5-1.503 1.504 1.504 0 0 0-1.5-1.502Z" fill="currentColor"/></svg>