<svg width="64" height="64" viewBox="0 0 64 64" fill="none" xmlns="http://www.w3.org/2000/svg"><path fill-rule="evenodd" clip-rule="evenodd" d="M27.192 55h7.061l-.002-21.327h8.246l.003-7.055h-8.249v-6.212c0-2.288.556-4.915 4.898-4.915l3.64-.002V9.008L37.13 9c-6.13 0-9.94 4.046-9.94 10.558v7.06H20v7.055h7.192V55Zm7.588 3h-8.115c-1.364 0-2.473-1.121-2.473-2.499V36.673h-4.72c-1.363 0-2.472-1.121-2.472-2.499v-8.056c0-1.379 1.109-2.5 2.472-2.5h4.718v-4.06C24.19 11.448 29.391 6 37.131 6l6.189.009a2.494 2.494 0 0 1 2.469 2.499v7.482c0 1.378-1.11 2.499-2.473 2.499l-4.166.002c-1.847 0-1.899.273-1.899 1.915v3.212h5.776c.658 0 1.3.273 1.762.746.459.471.711 1.094.711 1.754l-.003 8.057c0 1.377-1.11 2.498-2.473 2.498h-5.773l.002 18.828c0 1.378-1.11 2.499-2.473 2.499Z" fill="currentColor"/></svg>