<svg width="64" height="64" viewBox="0 0 64 64" fill="none" xmlns="http://www.w3.org/2000/svg"><path d="M59.5 17H55V6.5A1.5 1.5 0 0 0 53.5 5h-27A1.5 1.5 0 0 0 25 6.5V17h-6v-3a3 3 0 0 0-3-3H9a3 3 0 0 0-3 3v3H4.5A4.51 4.51 0 0 0 0 21.5v34A4.51 4.51 0 0 0 4.5 60h55a4.51 4.51 0 0 0 4.5-4.5v-34a4.51 4.51 0 0 0-4.5-4.5ZM28 17V8h24v25H28V17ZM9 17v-3h7v37H9V17Zm52 38.5a1.5 1.5 0 0 1-1.5 1.5h-55A1.5 1.5 0 0 1 3 55.5v-34A1.5 1.5 0 0 1 4.5 20H6v31a3 3 0 0 0 3 3h7a3 3 0 0 0 3-3V20h6v13h-1.5a1.5 1.5 0 1 0 0 3h33a1.5 1.5 0 1 0 0-3H55V20h4.5a1.5 1.5 0 0 1 1.5 1.5v34Z" fill="currentColor"/><path d="M32.5 42h-3a1.5 1.5 0 1 0 0 3h3a1.5 1.5 0 1 0 0-3Zm9 0h-3a1.5 1.5 0 1 0 0 3h3a1.5 1.5 0 1 0 0-3Zm-9-28h14a1.5 1.5 0 1 0 0-3h-14a1.5 1.5 0 1 0 0 3Zm0 6h7a1.5 1.5 0 1 0 0-3h-7a1.5 1.5 0 1 0 0 3Zm0 6h12a1.5 1.5 0 1 0 0-3h-12a1.5 1.5 0 1 0 0 3Zm18 16h-3a1.5 1.5 0 1 0 0 3h3a1.5 1.5 0 1 0 0-3Zm-18 6h-3a1.5 1.5 0 1 0 0 3h3a1.5 1.5 0 1 0 0-3Zm9 0h-3a1.5 1.5 0 1 0 0 3h3a1.5 1.5 0 1 0 0-3Zm9 0h-3a1.5 1.5 0 1 0 0 3h3a1.5 1.5 0 1 0 0-3Z" fill="currentColor"/></svg>