<svg width="64" height="64" viewBox="0 0 64 64" fill="none" xmlns="http://www.w3.org/2000/svg"><path fill-rule="evenodd" clip-rule="evenodd" d="M3 15.226h12.227V3H3v12.227Zm13.727 3H1.5a1.5 1.5 0 0 1-1.5-1.5V1.5A1.5 1.5 0 0 1 1.5 0h15.227a1.5 1.5 0 0 1 1.5 1.5v15.226a1.5 1.5 0 0 1-1.5 1.5Zm9.16-3h12.227V3H25.887v12.227Zm13.727 3H24.387a1.5 1.5 0 0 1-1.5-1.5V1.5a1.5 1.5 0 0 1 1.5-1.5h15.227a1.5 1.5 0 0 1 1.5 1.5v15.226a1.5 1.5 0 0 1-1.5 1.5Zm21.387-3H48.774V3H61v12.227Zm-13.727 3H62.5a1.5 1.5 0 0 0 1.5-1.5V1.5A1.5 1.5 0 0 0 62.5 0H47.274a1.5 1.5 0 0 0-1.5 1.5v15.226a1.5 1.5 0 0 0 1.5 1.5ZM3 38.113h12.227V25.886H3v12.227Zm13.727 3H1.5a1.5 1.5 0 0 1-1.5-1.5V24.386a1.5 1.5 0 0 1 1.5-1.5h15.227a1.5 1.5 0 0 1 1.5 1.5v15.227a1.5 1.5 0 0 1-1.5 1.5Zm21.387-3H25.887V25.886h12.227v12.227Zm-13.727 3h15.227a1.5 1.5 0 0 0 1.5-1.5V24.386a1.5 1.5 0 0 0-1.5-1.5H24.387a1.5 1.5 0 0 0-1.5 1.5v15.227a1.5 1.5 0 0 0 1.5 1.5Zm24.387-3H61V25.886H48.774v12.227Zm13.726 3H47.274a1.5 1.5 0 0 1-1.5-1.5V24.386a1.5 1.5 0 0 1 1.5-1.5H62.5a1.5 1.5 0 0 1 1.5 1.5v15.227a1.5 1.5 0 0 1-1.5 1.5ZM15.227 61H3V48.773h12.227V61ZM1.5 64h15.227a1.5 1.5 0 0 0 1.5-1.5V47.273a1.5 1.5 0 0 0-1.5-1.5H1.5a1.5 1.5 0 0 0-1.5 1.5V62.5A1.5 1.5 0 0 0 1.5 64Zm24.387-3h12.227V48.773H25.887V61Zm13.727 3H24.387a1.5 1.5 0 0 1-1.5-1.5V47.273a1.5 1.5 0 0 1 1.5-1.5h15.227a1.5 1.5 0 0 1 1.5 1.5V62.5a1.5 1.5 0 0 1-1.5 1.5ZM61 61H48.774V48.773H61V61Zm-13.727 3H62.5a1.5 1.5 0 0 0 1.5-1.5V47.273a1.5 1.5 0 0 0-1.5-1.5H47.274a1.5 1.5 0 0 0-1.5 1.5V62.5a1.5 1.5 0 0 0 1.5 1.5Z" fill="currentColor"/></svg>