<svg width="64" height="65" viewBox="0 0 64 65" fill="none" xmlns="http://www.w3.org/2000/svg"><path fill-rule="evenodd" clip-rule="evenodd" d="M42.172 51.772c0 5.19 4.223 9.414 9.414 9.414 5.19 0 9.414-4.223 9.414-9.414s-4.223-9.414-9.414-9.414c-.447 0-.883.042-1.313.102l1.729 5.582c1.884.209 3.356 1.79 3.356 3.73a3.772 3.772 0 0 1-7.544 0 3.75 3.75 0 0 1 1.32-2.845l-1.727-5.58c-3.097 1.544-5.235 4.735-5.235 8.425ZM23.744 34.354l5.824 15.66 14.182-15.66H23.744ZM3 51.748c0 5.192 4.223 9.415 9.414 9.415 4.522 0 8.306-3.206 9.208-7.462h-9.657a1.498 1.498 0 0 1-1.362-2.126l4.11-8.945a9.369 9.369 0 0 0-2.299-.296C7.223 42.334 3 46.557 3 51.748ZM14.306 50.7h7.46a9.415 9.415 0 0 0-4.298-6.882L14.306 50.7Zm12.317 0-5.509-14.814-2.386 5.192c3.36 1.997 5.702 5.525 6.047 9.622h1.848Zm22.754-11.135c.718-.13 1.454-.208 2.209-.208C58.43 39.358 64 44.927 64 51.772s-5.57 12.414-12.414 12.414c-6.845 0-12.414-5.57-12.414-12.414 0-5.036 3.019-9.373 7.339-11.317l-1.08-3.49L31.716 52.11c-.81.99-2.08 1.592-3.433 1.592h-3.624c-.941 5.918-6.066 10.462-12.245 10.462C5.569 64.163 0 58.593 0 51.748c0-6.844 5.569-12.414 12.414-12.414 1.242 0 2.439.189 3.571.53l3.509-7.636c.038-.084.092-.157.146-.229l.019-.025-1.057-2.841h-2.695l.352-3h10.646c1.075 1.302-1.505 1.973-1.505 1.973l-3.616.976.844 2.272h21.065l-.912-2.945a1.989 1.989 0 0 0-1.91-1.41H36.73V24h4.14a4.977 4.977 0 0 1 4.778 3.522l3.729 12.044ZM28.743 45.8l-2.572-6.917a.5.5 0 0 1 .294-.643l2.18-.81a.5.5 0 0 1 .632.265l3.009 6.754a.5.5 0 0 1-.282.672l-2.618.974a.5.5 0 0 1-.643-.295Z" fill="currentColor"/></svg>