<svg width="65" height="64" viewBox="0 0 65 64" fill="none" xmlns="http://www.w3.org/2000/svg"><path fill-rule="evenodd" clip-rule="evenodd" d="M61.023 35.498A2.504 2.504 0 0 1 58.52 38h-8.669a1.5 1.5 0 0 0-1.46 1.157l-2.26 9.622-9.255-10.283A1.509 1.509 0 0 0 35.76 38H17.283a2.504 2.504 0 0 1-2.503-2.502V9.502A2.505 2.505 0 0 1 17.282 7h41.239a2.505 2.505 0 0 1 2.502 2.502v25.996ZM30.274 49.217a1 1 0 0 1-.998.998H18.288c-.425 0-.83.179-1.114.495l-5.077 5.624-1.09-4.942a1.498 1.498 0 0 0-1.465-1.177H4.019a1 1 0 0 1-1-.997l-.018-15.974a.99.99 0 0 1 .292-.706.99.99 0 0 1 .706-.293h7.782v3.253A5.508 5.508 0 0 0 17.282 41h12.994v8.217ZM58.52 4H17.282a5.508 5.508 0 0 0-5.502 5.502v19.743H4c-1.07 0-2.075.416-2.832 1.173a3.974 3.974 0 0 0-1.167 2.83L.02 49.222a4.004 4.004 0 0 0 3.999 3.993h4.319l1.459 6.608A1.498 1.498 0 0 0 11.26 61c.42 0 .825-.176 1.115-.495l6.58-7.29h10.32a4.003 4.003 0 0 0 4-3.998V41h1.816L45.82 52.919a1.503 1.503 0 0 0 1.488.449 1.5 1.5 0 0 0 1.087-1.11L51.04 41h7.48a5.508 5.508 0 0 0 5.501-5.502V9.502A5.508 5.508 0 0 0 58.52 4Zm-36.5 14.957h18.716a1.5 1.5 0 1 0 0-3H22.021a1.5 1.5 0 1 0 0 3Zm0 6.497h31.762a1.5 1.5 0 1 1 0 3H22.02a1.5 1.5 0 1 1 0-3Z" fill="currentColor"/></svg>