<svg width="64" height="64" viewBox="0 0 64 64" fill="none" xmlns="http://www.w3.org/2000/svg"><path fill-rule="evenodd" clip-rule="evenodd" d="M27.129 55.367a2.523 2.523 0 0 0-2.626-.703l-6.888 2.199-1.539-7.065a2.522 2.522 0 0 0-1.923-1.922l-7.065-1.54 2.2-6.89a2.526 2.526 0 0 0-.704-2.624l-5.349-4.865 5.349-4.866a2.525 2.525 0 0 0 .703-2.627l-2.199-6.887 7.065-1.54a2.525 2.525 0 0 0 1.923-1.922l1.539-7.065 6.887 2.199a2.522 2.522 0 0 0 2.627-.703l4.866-5.35 4.865 5.349a2.518 2.518 0 0 0 2.626.704l6.888-2.2 1.54 7.067a2.522 2.522 0 0 0 1.922 1.922l7.065 1.539-2.2 6.889a2.52 2.52 0 0 0 .705 2.625l5.348 4.866-5.35 4.865a2.525 2.525 0 0 0-.702 2.626l2.199 6.888-7.063 1.54a2.523 2.523 0 0 0-1.925 1.923l-1.54 7.064-6.886-2.2a2.522 2.522 0 0 0-2.627.704l-4.865 5.35-4.866-5.35Zm3.005 7.762a2.52 2.52 0 0 0 1.86.823c.708 0 1.386-.3 1.862-.823l5.014-5.513 7.1 2.268a2.516 2.516 0 0 0 3.223-1.862l1.586-7.281 7.28-1.587a2.514 2.514 0 0 0 1.862-3.223l-2.267-7.1 5.512-5.012a2.524 2.524 0 0 0 .824-1.862c0-.708-.301-1.386-.824-1.861l-5.512-5.015 2.267-7.098a2.52 2.52 0 0 0-.218-2.024 2.523 2.523 0 0 0-1.643-1.2l-7.281-1.586-1.586-7.281a2.519 2.519 0 0 0-3.224-1.861l-7.1 2.266L33.857.785c-.951-1.047-2.771-1.046-3.722 0L25.12 6.297l-7.1-2.266a2.52 2.52 0 0 0-2.023.218 2.521 2.521 0 0 0-1.2 1.643l-1.586 7.28L5.93 14.76a2.517 2.517 0 0 0-1.861 3.224l2.266 7.098-5.511 5.014a2.52 2.52 0 0 0-.001 3.723l5.512 5.014-2.267 7.099a2.516 2.516 0 0 0 1.862 3.223l7.281 1.587 1.586 7.28a2.52 2.52 0 0 0 3.223 1.862l7.1-2.267 5.014 5.513Zm-9.83-31.336c.24-.235.536-.36.858-.36.306 0 .62.13.84.35l4.91 4.91a1.5 1.5 0 0 0 2.12 0l12.95-12.95a1.205 1.205 0 0 1 1.69-.01c.232.238.36.543.36.86 0 .317-.128.626-.35.849L29.033 40.09c-.284.283-.66.439-1.06.439a1.49 1.49 0 0 1-1.062-.441l-6.604-6.61a1.19 1.19 0 0 1-.005-1.685Zm7.668 11.736h.002a4.47 4.47 0 0 0 3.181-1.318l14.647-14.648a4.229 4.229 0 0 0 1.23-2.97c0-1.108-.433-2.16-1.235-2.975-1.642-1.628-4.306-1.626-5.936.004l-11.889 11.89-3.85-3.85a4.217 4.217 0 0 0-2.96-1.23c-1.108 0-2.16.434-2.97 1.23a4.18 4.18 0 0 0-1.235 2.984 4.15 4.15 0 0 0 1.234 2.958l6.598 6.604a4.466 4.466 0 0 0 3.183 1.32Z" fill="currentColor"/></svg>