<svg width="64" height="64" viewBox="0 0 64 64" fill="none" xmlns="http://www.w3.org/2000/svg"><path d="M57.15 23.32a5.86 5.86 0 0 0-2.99-.87l.9-1.41c1.74-2.82.87-6.52-1.95-8.26-.92-.57-1.95-.87-3.01-.89 1.52-2.78.62-6.3-2.11-7.98a5.937 5.937 0 0 0-4.54-.74 5.977 5.977 0 0 0-3.74 2.7l-.83 1.37c-.48-.92-1.2-1.73-2.15-2.31-2.81-1.74-6.52-.87-8.26 1.93L17.95 23.49c-.41.67-.7 1.03-.84 1.08 0 0-.13 0-.45-.18-1.58-.94-1.76-4.39-1.7-5.56.09-2.9-.74-5.08-2.46-6.47-2.9-2.34-7.17-1.33-7.35-1.29-.68.17-1.15.77-1.15 1.46V37.5c-.01.51-.25 12.48 10.72 19.33C19.08 59.55 24.18 61 29.1 61c1.8 0 3.58-.19 5.28-.59 5.08-1.18 9.11-4 11.67-8.13l13.06-20.7c1.74-2.81.87-6.52-1.95-8.26h-.01Zm-.6 6.67-13.06 20.7c-2.13 3.45-5.52 5.8-9.81 6.8-5.59 1.3-12.09.11-17.39-3.2C6.84 48.37 6.99 38.03 7 37.55V13.84c1.03-.07 2.55.01 3.6.86.95.77 1.4 2.13 1.35 4-.04.63-.25 6.24 3.17 8.27 3.08 1.82 4.75-.88 5.37-1.89L31.04 8.45c.42-.68 1.09-1.16 1.87-1.34.78-.19 1.59-.05 2.27.37 1.41.87 1.85 2.73.97 4.13-.11.18-.18.37-.21.56l-8.76 14.59c-.43.71-.2 1.63.52 2.06.71.43 1.63.2 2.06-.51L42.29 7.43a3.002 3.002 0 0 1 4.13-.97 3.01 3.01 0 0 1 .97 4.15l-2.32 3.83c-.07.1-.16.18-.22.29-.06.1-.11.21-.14.31l-9.52 15.73c-.43.71-.2 1.63.51 2.06.24.15.51.22.78.22.51 0 1-.26 1.29-.72l9.87-16.31c.42-.52.98-.89 1.64-1.05.78-.18 1.59-.05 2.27.37 1.41.87 1.85 2.72.99 4.11l-3.74 5.86-8.56 13.44c-.45.7-.24 1.63.46 2.07.25.16.53.24.81.24.5 0 .98-.25 1.27-.69l8.59-13.47c.88-1.43 2.82-1.89 4.24-1.02 1.41.87 1.85 2.73.98 4.12l-.04-.01Z" fill="currentColor"/></svg>