<svg xmlns="http://www.w3.org/2000/svg" width="24" height="24" fill="none" viewBox="0 0 24 24"><path fill="currentColor" d="M23.243 22.38a.75.75 0 0 1-.405-.12c-.03-.023-2.204-1.38-5.022-1.38-2.46 0-4.67 1.012-5.293 1.32a1.15 1.15 0 0 1-1.08-.03c-.531-.3-2.458-1.29-4.872-1.29-2.863 0-5.427 1.387-5.457 1.402a.75.75 0 0 1-1.02-.3.75.75 0 0 1 .293-1.02c.12-.067 2.923-1.589 6.177-1.589 2.578 0 4.67.975 5.45 1.394.869-.412 3.2-1.394 5.794-1.394 3.283 0 5.735 1.552 5.832 1.612a.75.75 0 0 1-.405 1.38zM23.4 2.432C22.606 2.005 20.432 1 17.426 1c-2.774 0-4.64.862-5.457 1.334C11.054 1.87 8.977 1 6.18 1 3.161 1 1.226 2.012.53 2.454c-.33.21-.525.563-.525.945v14.235c0 .383.195.735.518.945.33.21.734.24 1.094.082.952-.435 2.864-1.162 4.955-1.162 2.414 0 4.34.99 4.873 1.29.18.097.374.15.57.15q.26.002.51-.12c.621-.308 2.833-1.32 5.292-1.32 2.031 0 3.71.69 4.527 1.102.36.18.772.165 1.117-.045.338-.21.54-.562.54-.952V3.414a1.13 1.13 0 0 0-.592-.99zM9.21 7.694c0 .195-.21.308-.375.21l-1.207-.757a.23.23 0 0 0-.255 0l-1.207.757a.244.244 0 0 1-.374-.21V2.89a.25.25 0 0 1 .224-.247c1.792-.143 2.744.255 3.059.427a.24.24 0 0 1 .127.217v4.408z"/></svg>