<svg xmlns="http://www.w3.org/2000/svg" width="24" height="24" fill="none" viewBox="0 0 24 24"><path fill="currentColor" fill-rule="evenodd" d="M16.5 13.5V12c0-.412.337-.75.75-.75h1.5c.413 0 .75.338.75.75v1.5c0 .412-.337.75-.75.75h-1.5a.75.75 0 0 1-.75-.75m.75 3h1.5c.413 0 .75.337.75.75v1.5c0 .413-.337.75-.75.75h-1.5a.75.75 0 0 1-.75-.75v-1.5c0-.413.337-.75.75-.75m-6.75-3V12c0-.412.338-.75.75-.75h1.5c.412 0 .75.338.75.75v1.5c0 .412-.338.75-.75.75h-1.5a.75.75 0 0 1-.75-.75m.75 3h1.5c.412 0 .75.337.75.75v1.5c0 .413-.338.75-.75.75h-1.5a.75.75 0 0 1-.75-.75v-1.5c0-.413.338-.75.75-.75m-6.75-3V12c0-.412.338-.75.75-.75h1.5c.412 0 .75.338.75.75v1.5c0 .412-.338.75-.75.75h-1.5a.75.75 0 0 1-.75-.75m.75 3h1.5c.412 0 .75.337.75.75v1.5c0 .413-.338.75-.75.75h-1.5a.75.75 0 0 1-.75-.75v-1.5c0-.413.338-.75.75-.75M3.165 3H5.25v.75a.75.75 0 1 0 1.5 0V3h10.5v.75a.75.75 0 1 0 1.5 0V3h2.085c.922 0 1.665.743 1.665 1.665V7.5h-21V4.665C1.5 3.743 2.243 3 3.165 3m17.67-1.5H18.75V.75a.75.75 0 1 0-1.5 0v.75H6.75V.75a.75.75 0 1 0-1.5 0v.75H3.165A3.166 3.166 0 0 0 0 4.665v16.17A3.166 3.166 0 0 0 3.165 24h17.67A3.166 3.166 0 0 0 24 20.835V4.665A3.166 3.166 0 0 0 20.835 1.5" clip-rule="evenodd"/></svg>