<svg xmlns="http://www.w3.org/2000/svg" width="24" height="24" fill="none" viewBox="0 0 24 24"><path fill="currentColor" fill-rule="evenodd" d="M17.889 0c1.035 0 2.007.423 2.738 1.19 1.477 1.552 1.486 4.067.022 5.605l-4.732 4.973a.75.75 0 0 1-1.086 0L10.09 6.79c-1.465-1.535-1.454-4.048.022-5.6A3.76 3.76 0 0 1 12.853 0c.94 0 1.824.35 2.517.99A3.68 3.68 0 0 1 17.888 0m-5.552 23.734 10.516-5.123a2.045 2.045 0 0 0-1.793-3.675l-2.025.99.002.02a3 3 0 0 1-2.986 3.288H9.104a.75.75 0 0 1-.75-.75c0-.413.338-.75.75-.75h6.945a1.5 1.5 0 0 0 .398-2.948 1.3 1.3 0 0 0-.239-.037h-.039c-.037-.016-.075-.016-.12-.016h-4.575c-.457-.847-1.695-2.377-4.763-2.377H.75a.75.75 0 0 0-.75.75v6.458c0 .33.21.622.524.72l11.25 3.495q.015.009.039.007.087.032.187.03a.7.7 0 0 0 .33-.075z" clip-rule="evenodd"/></svg>