<svg width="24" height="24" viewBox="0 0 24 24" fill="none" xmlns="http://www.w3.org/2000/svg">
<path fill-rule="evenodd" clip-rule="evenodd" d="M13.8825 13.3875V14.85C13.8825 15.27 13.545 15.6 13.1325 15.6H10.185C9.76499 15.6 9.43499 15.27 9.43499 14.85V13.3875H0.0074932V19.56C0.0074932 20.655 1.13999 21.5025 2.59499 21.5025H21.405C22.86 21.5025 24 20.655 24 19.56V13.3875H13.8825ZM14.5724 3.74325L14.5725 3.74325V5.25H14.5724V5.25048H9.42742V3.75048L9.4275 3.75048V3.75L12.7269 3.74567L14.5724 3.74298V3.74325ZM21.405 5.25H16.0725V3.74325C16.0725 2.9175 15.3975 2.25 14.58 2.25H9.4275C8.6025 2.25 7.935 2.9175 7.935 3.74325V5.25H2.595C1.1625 5.25 0 6.285 0 7.545V11.8875H9.435V10.425C9.435 10.0125 9.765 9.675 10.185 9.675H13.1325C13.545 9.675 13.8825 10.0125 13.8825 10.425V11.8875H24V7.545C24 6.285 22.8375 5.25 21.405 5.25ZM10.935 14.1H12.3825V11.175H10.935V14.1Z" fill="black"/>
</svg>
