<svg width="24" height="24" viewBox="0 0 24 24" fill="none" xmlns="http://www.w3.org/2000/svg">
<path fill-rule="evenodd" clip-rule="evenodd" d="M21 4.875V4.5C21 3.9075 20.775 3.345 20.3625 2.82825C19.035 1.17075 15.7875 0 12 0C8.22 0 4.9875 1.17075 3.6525 2.8125C3.2325 3.3375 3 3.9 3 4.5V4.875C3 6.945 7.0275 8.625 12 8.625C16.965 8.625 21 6.945 21 4.875ZM21 20.25V17.625C19.5158 19.245 16.05 20.3775 12.0157 20.3775C7.9425 20.3775 4.455 19.2225 3 17.5875V20.25C3 22.32 7.0275 24 12 24C16.965 24 21 22.32 21 20.25ZM21 12.5024V15.1274C21 17.1974 16.965 18.8774 12 18.8774C7.0275 18.8774 3 17.1974 3 15.1274V12.4649C4.455 14.0999 7.9425 15.2549 12.0157 15.2549C16.05 15.2549 19.5158 14.1224 21 12.5024ZM21 9.99977V7.37476C19.5158 8.99476 16.05 10.1273 12.0157 10.1273C7.9425 10.1273 4.455 8.97226 3 7.33726V9.99977C3 12.0705 7.0275 13.7498 12 13.7498C16.965 13.7498 21 12.0705 21 9.99977Z" fill="black"/>
</svg>
