<svg xmlns="http://www.w3.org/2000/svg" width="24" height="24" fill="none" viewBox="0 0 24 24"><path fill="currentColor" d="M.375 17.588c1.455 1.635 4.942 2.79 9.016 2.79q.414 0 .819-.017a7.8 7.8 0 0 0 2.402 3.387A20.5 20.5 0 0 1 9.375 24c-4.972 0-9-1.68-9-3.75zm0-5.123c1.455 1.635 4.942 2.79 9.016 2.79q.386 0 .765-.014a7.76 7.76 0 0 0-.321 3.631q-.228.005-.46.005c-4.972 0-9-1.68-9-3.75zm0-5.128c1.455 1.635 4.942 2.79 9.016 2.79 4.034 0 7.5-1.133 8.984-2.753v2.622a7.77 7.77 0 0 0-7.503 3.7q-.731.052-1.497.053c-4.972 0-9-1.68-9-3.75zm9-7.337c3.787 0 7.035 1.17 8.362 2.828.413.517.638 1.08.638 1.672v.375c0 2.07-4.035 3.75-9 3.75-4.972 0-9-1.68-9-3.75V4.5c0-.6.232-1.163.652-1.687C2.362 1.17 5.595 0 9.375 0"/><path fill="currentColor" fill-rule="evenodd" d="M17.524 23.997a6.274 6.274 0 1 0 0-12.548 6.274 6.274 0 0 0 0 12.548" clip-rule="evenodd"/><path fill="currentColor" fill-rule="evenodd" d="M14.25 17.68v.003q0 .082.028.155l.002.006q.03.08.088.14l2.076 2.215c.157.167.41.167.566 0a.447.447 0 0 0 0-.603l-1.398-1.49 4.705-.017c.22 0 .4-.192.398-.428 0-.235-.18-.425-.4-.425l-4.696.016 1.428-1.523a.447.447 0 0 0 0-.604.4.4 0 0 0-.283-.125.4.4 0 0 0-.283.125l-2.114 2.255a.4.4 0 0 0-.087.14l-.002.006a.5.5 0 0 0-.028.155" clip-rule="evenodd"/></svg>