<svg xmlns="http://www.w3.org/2000/svg" width="24" height="24" fill="none" viewBox="0 0 24 24"><path fill="currentColor" fill-rule="evenodd" d="M18.375 4.5v.375c0 2.07-4.035 3.75-9 3.75-4.972 0-9-1.68-9-3.75V4.5c0-.6.233-1.162.653-1.687C2.362 1.17 5.595 0 9.375 0c3.787 0 7.035 1.17 8.363 2.828.412.517.637 1.08.637 1.672m-5.762 19.25c-1.005.161-2.097.25-3.238.25-4.972 0-9-1.68-9-3.75v-2.663c1.455 1.636 4.943 2.79 9.016 2.79q.413 0 .818-.015a7.8 7.8 0 0 0 2.404 3.388m5.762-13.755v-2.62c-1.484 1.62-4.95 2.752-8.984 2.752-4.073 0-7.561-1.155-9.016-2.79V10c0 2.07 4.028 3.75 9 3.75q.766 0 1.497-.052a7.77 7.77 0 0 1 7.503-3.703m-8.22 5.246q-.379.014-.764.014c-4.073 0-7.561-1.155-9.016-2.79v2.662c0 2.07 4.028 3.75 9 3.75q.23 0 .46-.004a7.84 7.84 0 0 1 .32-3.632" clip-rule="evenodd"/><path fill="currentColor" fill-rule="evenodd" d="M17.524 23.997a6.274 6.274 0 1 0 0-12.548 6.274 6.274 0 0 0 0 12.548" clip-rule="evenodd"/><path fill="currentColor" fill-rule="evenodd" d="M14.25 17.68v.003q0 .082.028.155l.002.006q.03.08.088.14l2.076 2.215c.157.167.41.167.566 0a.447.447 0 0 0 0-.603l-1.398-1.49 4.705-.017c.22 0 .4-.192.398-.428 0-.235-.18-.425-.4-.425l-4.696.016 1.428-1.523a.447.447 0 0 0 0-.604.4.4 0 0 0-.283-.125.4.4 0 0 0-.283.125l-2.114 2.255a.4.4 0 0 0-.087.14l-.002.006a.5.5 0 0 0-.028.155" clip-rule="evenodd"/></svg>