<svg xmlns="http://www.w3.org/2000/svg" width="24" height="24" fill="none" viewBox="0 0 24 24"><path fill="currentColor" fill-rule="evenodd" d="M21 4.875V4.5c0-.592-.225-1.155-.637-1.672C19.035 1.171 15.788 0 12 0 8.22 0 4.988 1.17 3.653 2.813 3.233 3.337 3 3.9 3 4.5v.375c0 2.07 4.028 3.75 9 3.75 4.965 0 9-1.68 9-3.75m0 15.375v-2.625c-1.484 1.62-4.95 2.753-8.984 2.753-4.073 0-7.561-1.155-9.016-2.79v2.662C3 22.32 7.028 24 12 24c4.965 0 9-1.68 9-3.75m0-7.748v2.625c0 2.07-4.035 3.75-9 3.75-4.972 0-9-1.68-9-3.75v-2.662c1.455 1.635 4.943 2.79 9.016 2.79 4.034 0 7.5-1.133 8.984-2.753M21 10V7.375c-1.484 1.62-4.95 2.752-8.984 2.752-4.073 0-7.561-1.155-9.016-2.79V10c0 2.07 4.028 3.75 9 3.75 4.965 0 9-1.68 9-3.75" clip-rule="evenodd"/></svg>