<svg xmlns="http://www.w3.org/2000/svg" width="24" height="24" fill="none" viewBox="0 0 24 24"><path fill="currentColor" fill-rule="evenodd" d="M7.5 10.5v12h9v-12zm-3 9.75v-.75a.75.75 0 0 0-.75-.75.75.75 0 0 0-.75.75v.75c0 .413.337.75.75.75.412 0 .75-.337.75-.75M3 16.5c0 .413.337.75.75.75.412 0 .75-.337.75-.75v-.75a.75.75 0 0 0-.75-.75.75.75 0 0 0-.75.75zm14.25-9V9H6.75V7.5zM19.5 9h2.25c.413 0 .75-.338.75-.75a.75.75 0 0 0-.75-.75H19.5a.75.75 0 0 0-.75.75c0 .412.337.75.75.75m-.75 3.75h3c.413 0 .75-.338.75-.75a.75.75 0 0 0-.75-.75h-3A.75.75 0 0 0 18 12c0 .412.337.75.75.75m0 3.75h3c.413 0 .75-.337.75-.75a.75.75 0 0 0-.75-.75h-3a.75.75 0 0 0-.75.75c0 .413.337.75.75.75m0 3.81h3c.413 0 .75-.33.75-.75a.75.75 0 0 0-.75-.75h-3a.75.75 0 0 0-.75.75c0 .42.337.75.75.75m3-16.56H13.5a.75.75 0 0 0-.75.75c0 .412.338.75.75.75h8.25c.413 0 .75-.338.75-.75a.75.75 0 0 0-.75-.75M12 0h11.25c.413 0 .75.338.75.75v22.5a.74.74 0 0 1-.75.75H.75a.75.75 0 0 1-.75-.75v-10.5c0-.412.338-.75.75-.75H6v-1.5a.75.75 0 0 1-.75-.75v-3c0-.412.338-.75.75-.75h5.25V.75c0-.412.338-.75.75-.75M9 13.5a.75.75 0 0 1 .75-.75h4.5a.75.75 0 1 1 0 1.5h-4.5A.75.75 0 0 1 9 13.5m.75 2.25a.75.75 0 1 0 0 1.5h4.5a.75.75 0 1 0 0-1.5zM9 19.5a.75.75 0 0 1 .75-.75h4.5a.75.75 0 1 1 0 1.5h-4.5A.75.75 0 0 1 9 19.5" clip-rule="evenodd"/></svg>