<svg xmlns="http://www.w3.org/2000/svg" width="24" height="24" fill="none" viewBox="0 0 24 24"><path fill="currentColor" fill-rule="evenodd" d="M10.556 3.982c.732 0 1.22-.378 1.48-.65a1 1 0 0 0 .656.263c.794 0 1.281-.243 1.535-.422.168.197.387.337.659.404.327.078.6.11.829.11.38 0 .637-.088.805-.187h.005c.15.218.36.375.585.458q.396.144.713.142c.877 0 1.328-.742 1.605-1.357.12-.27.264-.87.016-1.426-.173-.39-.495-.674-.945-.818-.465-.157-.886-.141-1.246.046q-.08.043-.158.098c-.252-.207-.858-.635-1.602-.639h-.009c-.46 0-.807.203-1.064.478C14.202.312 13.692 0 12.902 0h-.02c-.494.004-.989.286-1.248.815a22 22 0 0 0-1.103.013c-.524.045-.94.241-1.202.567-.173.217-.363.602-.283 1.207.114.852.691 1.38 1.51 1.38m11.282-1.36c.487-.067.983.129 1.516.593.405.353.638.84.645 1.373.015.623-.278 1.26-.795 1.755l-.088.08c-.249.229-.527.485-.836.692-.345.233-.727.405-1.132.405-.368 0-.75-.142-1.15-.487-.727-.645-.63-1.845.256-3.143.397-.577.894-1.178 1.584-1.268M9.245 5.232c2.034-1.131 4.796-.78 6.537-.142 1.117.413 2.041 1.073 2.686 1.905a4.9 4.9 0 0 1 1.044 2.881c.052 1.92-1.044 3.6-2.853 4.373-2.393 1.02-3.593 2.37-3.58 3.998.024 1.687-.72 4.013-2.392 5.13a3.6 3.6 0 0 1-1.262.533 8 8 0 0 0 .57-1.89c.098-.548.144-1.17.084-1.838.638-.9 1.26-2.235 1.162-3.968a4.85 4.85 0 0 0-1.238-2.97c-.472-.533-1.11-1.044-1.965-1.5a12 12 0 0 0-1.487-.645c.038-.668.12-1.5.345-2.558.316-1.508 1.112-2.626 2.35-3.309m-3.804 14.26a2.5 2.5 0 0 0 .585-.023c.293-.03.548-.105.743-.195a4.6 4.6 0 0 0-.533-.937 6 6 0 0 0-.225-.3q-.022-.023-.042-.05l-.018-.025a6 6 0 0 0-.292-.315 5.5 5.5 0 0 0-.6-.555 9 9 0 0 0-.97-.713.75.75 0 0 1-.217-1.035.7.7 0 0 1 .315-.263h.009a.74.74 0 0 1 .712.037q.293.19.563.391c.045.017.094.038.138.057l.042.018-.022.045q.326.239.607.487c.188.158.353.323.51.48l.034.038.035.038q.302.315.54.63.294.383.51.765c.12-.218.225-.465.285-.743.075-.277.112-.592.09-.93-.03-.525-.285-.968-.675-1.335a3.5 3.5 0 0 0-.601-.465 4.6 4.6 0 0 0-.66-.36 10 10 0 0 0-1.727-.608c-.757-.195-1.98-.57-3.054-1.117-.06 1.05 0 2.73.683 4.463.586 1.5 1.561 2.107 2.335 2.362q.045.012.09.028.039.014.082.025.293.076.563.098c.06.007.112.007.165.007m3.07.255q.056.29.078.573a4 4 0 0 1 .01.467q.002.024.001.047v.106c0 .067 0 .135-.007.195a7 7 0 0 1-.068.585.5.5 0 0 1-.022.15q-.047.247-.106.472a1 1 0 0 1-.037.143 1 1 0 0 1-.05.143l-.01.03a1 1 0 0 1-.052.164q-.047.155-.106.278a.3.3 0 0 1-.035.092l-.002.005h-.007a2.6 2.6 0 0 1-.218.45.7.7 0 0 1-.233.233v.005q-.002 0-.007-.005a.04.04 0 0 1-.015.017l-.008.005A.7.7 0 0 1 7.25 24a.74.74 0 0 1-.406-.119.04.04 0 0 1-.015-.016.34.34 0 0 1-.128-.105.7.7 0 0 1-.18-.293v-.022q.006-.007.002-.009l-.002-.006a.5.5 0 0 1-.022-.15q-.002-.055.007-.098a.2.2 0 0 1 .015-.112.6.6 0 0 1 .075-.188c0-.007 0-.015.009-.022l.015-.03.045-.083q.001-.023.014-.045h.007l.044-.112q.036-.09.076-.203c.046-.112.09-.255.136-.405.082-.33.158-.72.164-1.155 0-.023 0-.053-.006-.075a3.8 3.8 0 0 1-.946.217c-.18.023-.36.03-.54.03H5.59c-.068 0-.143 0-.21-.007a4 4 0 0 1-.788-.098 3 3 0 0 1-.27-.06c-1.59-.427-2.844-1.604-3.511-3.314-1.292-3.278-.66-6.3-.63-6.428a.76.76 0 0 1 .472-.547.78.78 0 0 1 .72.112c.721.555 2.027 1.11 3.588 1.523a13 13 0 0 1 1.59.525q.405.17.751.352.403.216.728.443c1.268.907 1.658 1.95 1.711 2.804a4.45 4.45 0 0 1-.27 1.846 5.1 5.1 0 0 1-.96 1.598" clip-rule="evenodd"/></svg>