<svg xmlns="http://www.w3.org/2000/svg" width="24" height="24" fill="none" viewBox="0 0 24 24"><path fill="currentColor" fill-rule="evenodd" d="M11.25 9.75c.412 0 .75.338.75.75s-.338.75-.75.75H8.31a5 5 0 0 0 0 1.5h2.94c.412 0 .75.338.75.75s-.338.75-.75.75H8.813c.18.338.382.668.652.953 1.08 1.177 2.648 1.59 4.088 1.08.337-.113.674-.3 1.004-.54a.744.744 0 0 1 1.043.157c.248.33.18.803-.157 1.05a5.23 5.23 0 0 1-3.143 1.058c-1.455 0-2.88-.623-3.945-1.793a6 6 0 0 1-1.2-1.965H6a.75.75 0 0 1-.75-.75c0-.412.338-.75.75-.75h.803a7 7 0 0 1 0-1.5H6a.75.75 0 0 1-.75-.75c0-.412.338-.75.75-.75h1.155a6.1 6.1 0 0 1 1.2-1.972c1.89-2.063 4.868-2.37 7.088-.735.337.24.405.712.165 1.05a.754.754 0 0 1-1.05.157c-1.59-1.17-3.735-.937-5.093.54-.27.293-.473.623-.652.96zM12 0C5.385 0 0 5.385 0 12s5.385 12 12 12 12-5.385 12-12S18.615 0 12 0" clip-rule="evenodd"/></svg>