<svg width="24" height="24" viewBox="0 0 24 24" fill="none" xmlns="http://www.w3.org/2000/svg">
<path d="M11.625 14.7375V3.375C11.625 2.47989 11.2694 1.62145 10.6365 0.988515C10.0036 0.355579 9.14511 0 8.25001 0C7.3549 0 6.49646 0.355579 5.86352 0.988515C5.23059 1.62145 4.87501 2.47989 4.87501 3.375V14.73C4.12355 15.3605 3.56376 16.1889 3.25912 17.1214C2.95447 18.0538 2.91715 19.0529 3.15139 20.0055C3.38562 20.958 3.88204 21.8259 4.58437 22.5107C5.2867 23.1955 6.16684 23.6699 7.12501 23.88C7.49469 23.9598 7.87181 24 8.25001 24C9.32528 23.9978 10.374 23.6655 11.2543 23.0481C12.1346 22.4306 12.804 21.5577 13.1722 20.5474C13.5403 19.5371 13.5893 18.4381 13.3126 17.399C13.0359 16.36 12.4468 15.4309 11.625 14.7375ZM7.50001 17.0325V12.435H9.00001V17.0325C9.39481 17.2048 9.71824 17.5078 9.91592 17.8905C10.1136 18.2732 10.1735 18.7124 10.0855 19.134C9.99745 19.5557 9.76693 19.9342 9.43266 20.2059C9.0984 20.4776 8.68077 20.626 8.25001 20.626C7.81925 20.626 7.40162 20.4776 7.06735 20.2059C6.73309 19.9342 6.50257 19.5557 6.41456 19.134C6.32655 18.7124 6.38642 18.2732 6.5841 17.8905C6.78178 17.5078 7.10521 17.2048 7.50001 17.0325Z" fill="black"/>
<path d="M18.75 9.75H14.25C14.0511 9.75 13.8603 9.82902 13.7197 9.96967C13.579 10.1103 13.5 10.3011 13.5 10.5C13.5 10.6989 13.579 10.8897 13.7197 11.0303C13.8603 11.171 14.0511 11.25 14.25 11.25H18.75C18.9489 11.25 19.1397 11.171 19.2803 11.0303C19.421 10.8897 19.5 10.6989 19.5 10.5C19.5 10.3011 19.421 10.1103 19.2803 9.96967C19.1397 9.82902 18.9489 9.75 18.75 9.75Z" fill="black"/>
</svg>
