<svg width="24" height="24" viewBox="0 0 24 24" fill="none" xmlns="http://www.w3.org/2000/svg">
<path fill-rule="evenodd" clip-rule="evenodd" d="M11.625 3.375V14.7375C12.4468 15.4309 13.0359 16.36 13.3126 17.399C13.5893 18.4381 13.5403 19.5371 13.1722 20.5474C12.804 21.5577 12.1346 22.4306 11.2543 23.0481C10.374 23.6655 9.32528 23.9978 8.25001 24C7.87181 24 7.49469 23.9598 7.12501 23.88C6.16684 23.6699 5.2867 23.1955 4.58437 22.5107C3.88204 21.8259 3.38562 20.958 3.15139 20.0055C2.91715 19.0529 2.95447 18.0538 3.25912 17.1214C3.56376 16.1889 4.12355 15.3605 4.87501 14.73V3.375C4.87501 2.47989 5.23059 1.62145 5.86352 0.988515C6.49646 0.355579 7.3549 0 8.25001 0C9.14511 0 10.0036 0.355579 10.6365 0.988515C11.2694 1.62145 11.625 2.47989 11.625 3.375ZM7.50001 12.435V17.0325C7.10521 17.2048 6.78178 17.5078 6.5841 17.8905C6.38642 18.2732 6.32655 18.7124 6.41456 19.134C6.50257 19.5557 6.73309 19.9342 7.06735 20.2059C7.40162 20.4776 7.81925 20.626 8.25001 20.626C8.68077 20.626 9.0984 20.4776 9.43266 20.2059C9.76693 19.9342 9.99745 19.5557 10.0855 19.134C10.1735 18.7124 10.1136 18.2732 9.91592 17.8905C9.71824 17.5078 9.39481 17.2048 9.00001 17.0325V12.435H7.50001ZM14.25 9.75H18.75C18.9489 9.75 19.1397 9.82902 19.2803 9.96967C19.421 10.1103 19.5 10.3011 19.5 10.5C19.5 10.6989 19.421 10.8897 19.2803 11.0303C19.1397 11.171 18.9489 11.25 18.75 11.25H14.25C14.0511 11.25 13.8603 11.171 13.7197 11.0303C13.579 10.8897 13.5 10.6989 13.5 10.5C13.5 10.3011 13.579 10.1103 13.7197 9.96967C13.8603 9.82902 14.0511 9.75 14.25 9.75Z" fill="black"/>
</svg>
