<svg xmlns="http://www.w3.org/2000/svg" width="24" height="24" fill="none" viewBox="0 0 24 24"><path fill="currentColor" fill-rule="evenodd" d="m11.625 12.953 1.665 1.665 1.44-3.097zm0 0 1.665 1.665 1.44-3.097zm1.665 1.665 1.44-3.097-3.105 1.432zm3.66-4.328-2.752 5.932a.72.72 0 0 1-.361.368l-5.932 2.753a.8.8 0 0 1-.315.067.75.75 0 0 1-.533-.218.74.74 0 0 1-.15-.847l2.753-5.933a.74.74 0 0 1 .36-.367l5.933-2.753a.765.765 0 0 1 .846.15.75.75 0 0 1 .151.848M11.932 1.5c.863 0 1.568.706 1.568 1.567a1.571 1.571 0 0 1-3.142 0c0-.861.705-1.567 1.574-1.567m2.4 3.45c.412-.517.668-1.17.668-1.883A3.077 3.077 0 0 0 11.932 0a3.077 3.077 0 0 0-3.074 3.067c0 .714.254 1.366.667 1.884C5.348 6.023 2.25 9.81 2.25 14.317c0 5.34 4.342 9.683 9.682 9.683 5.333 0 9.676-4.343 9.676-9.683 0-4.506-3.098-8.294-7.276-9.366m-2.707 8.003 1.665 1.665 1.44-3.097zm0 0 1.665 1.665 1.44-3.097z" clip-rule="evenodd"/></svg>