<svg width="24" height="24" viewBox="0 0 24 24" fill="none" xmlns="http://www.w3.org/2000/svg"><path fill-rule="evenodd" clip-rule="evenodd" d="M17.25 15.74a3.754 3.754 0 0 1-3.75-3.754 3.753 3.753 0 0 1 3.75-3.754c2.07 0 3.75 1.681 3.75 3.754a3.754 3.754 0 0 1-3.75 3.755ZM12 20.247a2.249 2.249 0 0 1-2.25-2.253A2.248 2.248 0 0 1 12 15.74a2.248 2.248 0 0 1 2.25 2.252A2.249 2.249 0 0 1 12 20.246ZM6.75 15.74A3.754 3.754 0 0 1 3 11.986a3.753 3.753 0 0 1 3.75-3.754c2.07 0 3.75 1.681 3.75 3.754a3.754 3.754 0 0 1-3.75 3.755ZM12 3.727a2.248 2.248 0 0 1 2.25 2.252A2.249 2.249 0 0 1 12 8.232a2.249 2.249 0 0 1-2.25-2.253A2.248 2.248 0 0 1 12 3.727Zm10.402 2.267.45-1.336a.757.757 0 0 0-.18-.774l-2.58-2.583a.751.751 0 0 0-.772-.18l-1.343.45c-3.637-2.095-8.332-2.095-11.955 0l-1.35-.45a.755.755 0 0 0-.772.18L1.327 3.884a.757.757 0 0 0-.18.774l.45 1.344A11.935 11.935 0 0 0 0 11.986C0 18.608 5.385 24 12 24s12-5.392 12-12.014c0-2.11-.555-4.175-1.598-5.992ZM6.75 14.239a2.253 2.253 0 0 1 0-4.505 2.253 2.253 0 0 1 0 4.505ZM15 11.987a2.253 2.253 0 0 0 2.25 2.252 2.253 2.253 0 0 0 0-4.505A2.253 2.253 0 0 0 15 11.987Zm-2.47-6.008.485-.485a.375.375 0 1 0-.53-.531L12 5.448l-.486-.485a.375.375 0 0 0-.53.53l.486.486-.486.485a.376.376 0 0 0 .53.531L12 6.51l.484.485a.374.374 0 1 0 .53-.53l-.484-.486Zm-.045 10.998a.374.374 0 0 1 .53 0 .376.376 0 0 1 0 .53l-.485.486.485.485a.376.376 0 0 1-.266.64.373.373 0 0 1-.264-.109l-.486-.485-.484.485a.373.373 0 0 1-.53 0 .376.376 0 0 1 0-.53l.484-.486-.484-.485a.376.376 0 0 1 0-.531.374.374 0 0 1 .53 0l.484.485.486-.485Z" fill="currentColor"/></svg>