<svg xmlns="http://www.w3.org/2000/svg" width="24" height="24" fill="none" viewBox="0 0 24 24"><path fill="currentColor" fill-rule="evenodd" d="M15.75 21.75a2.257 2.257 0 0 1-2.25-2.25 2.257 2.257 0 0 1 2.25-2.25A2.257 2.257 0 0 1 18 19.5a2.257 2.257 0 0 1-2.25 2.25m-3-10.5c0-.825.675-1.5 1.5-1.5s1.5.675 1.5 1.5-.675 1.5-1.5 1.5-1.5-.675-1.5-1.5M10.537 7.5a1.5 1.5 0 1 1 3 0 1.5 1.5 0 0 1-3 0m-.787 5.25c-.825 0-1.5-.675-1.5-1.5s.675-1.5 1.5-1.5 1.5.675 1.5 1.5-.675 1.5-1.5 1.5m-1.5 9A2.257 2.257 0 0 1 6 19.5a2.257 2.257 0 0 1 2.25-2.25 2.257 2.257 0 0 1 2.25 2.25 2.257 2.257 0 0 1-2.25 2.25M6 7.5C6 6.675 6.675 6 7.5 6S9 6.675 9 7.5 8.325 9 7.5 9 6 8.325 6 7.5M10.125 3c.623 0 1.125.502 1.125 1.125 0 .622-.502 1.125-1.125 1.125A1.123 1.123 0 0 1 9 4.125C9 3.503 9.502 3 10.125 3m3.75 0C14.498 3 15 3.502 15 4.125c0 .622-.502 1.125-1.125 1.125a1.123 1.123 0 0 1-1.125-1.125c0-.622.502-1.125 1.125-1.125M16.5 6c.825 0 1.5.675 1.5 1.5S17.325 9 16.5 9 15 8.325 15 7.5 15.675 6 16.5 6m.66 9.053a9.6 9.6 0 0 0 3.503-3.713 9.4 9.4 0 0 0 .607-7.357 9.6 9.6 0 0 0-1.215-2.415C19.793 1.2 18.848 0 17.52 0H6.488C5.565 0 4.59.623 3.885 1.665c-.495.72-.877 1.5-1.155 2.318a9.4 9.4 0 0 0 .607 7.358 9.6 9.6 0 0 0 3.503 3.711A4.506 4.506 0 0 0 3 19.5C3 21.983 5.018 24 7.5 24h9c2.483 0 4.5-2.017 4.5-4.5a4.506 4.506 0 0 0-3.84-4.447M9.75 19.5a1.5 1.5 0 1 1-3.001-.001 1.5 1.5 0 0 1 3.001.001m6 1.5a1.5 1.5 0 1 0-.001-3.001A1.5 1.5 0 0 0 15.75 21" clip-rule="evenodd"/></svg>