<svg xmlns="http://www.w3.org/2000/svg" width="24" height="24" fill="none" viewBox="0 0 24 24"><path fill="currentColor" d="M20.79 3.75H3.21C1.44 3.75 0 5.077 0 6.713V13.5h4.193l-.975-.967a.756.756 0 0 1 0-1.065.756.756 0 0 1 1.064 0l2.25 2.25a.756.756 0 0 1 0 1.065l-2.25 2.25a.77.77 0 0 1-.532.217.77.77 0 0 1-.533-.218.756.756 0 0 1 0-1.065L4.193 15H0v2.25c0 1.657 1.455 3 3.248 3h17.505c1.792 0 3.247-1.343 3.247-3V6.713c0-1.636-1.44-2.963-3.21-2.963m-9.54 9H8.625a.755.755 0 0 1-.51-1.305c1.935-1.77 2.182-2.588 2.213-2.707v-.023a.476.476 0 0 0-.48-.465.47.47 0 0 0-.473.465c0 .412-.338.75-.75.75a.75.75 0 0 1-.75-.75c0-1.087.885-1.965 1.973-1.965a1.98 1.98 0 0 1 1.98 1.912c.03.42-.173 1.215-1.396 2.588h.818c.412 0 .75.338.75.75s-.338.75-.75.75m5.212-5.01-1.5 4.5a.75.75 0 0 1-.712.51 1 1 0 0 1-.24-.037.76.76 0 0 1-.473-.953l1.17-3.51h-1.582a.75.75 0 0 1-.75-.75c0-.412.338-.75.75-.75h2.625a.757.757 0 0 1 .712.99M21 10.875a1.876 1.876 0 0 1-3.75 0v-2.25a1.876 1.876 0 0 1 3.75 0zM19.125 8.25a.37.37 0 0 0-.375.375v2.25c0 .21.165.375.375.375s.375-.165.375-.375v-2.25a.37.37 0 0 0-.375-.375"/></svg>