<svg xmlns="http://www.w3.org/2000/svg" width="24" height="24" fill="none" viewBox="0 0 24 24"><path fill="currentColor" d="M12.75 0v2.216a.753.753 0 0 1-.75.751.753.753 0 0 1-.75-.751V0c-4.2.376-7.5 3.951-7.5 8.285v7.392C3.75 20.267 7.448 24 12 24s8.25-3.733 8.25-8.323V8.285c0-4.334-3.3-7.91-7.5-8.285m2.963 5.273a.72.72 0 0 1 .72.721.727.727 0 0 1-.72.729.72.72 0 0 1-.72-.729c0-.405.322-.72.72-.72m-7.448 0a.72.72 0 0 1 .72.721.727.727 0 0 1-.72.729.72.72 0 0 1-.72-.729c0-.405.322-.72.72-.72M8.28 17.24a1.5 1.5 0 0 1-1.492-1.502 1.5 1.5 0 0 1 1.492-1.502c.825 0 1.485.676 1.485 1.502S9.097 17.24 8.28 17.24m0-5.258a1.5 1.5 0 0 1-1.492-1.502A1.5 1.5 0 0 1 8.28 8.977c.825 0 1.485.676 1.485 1.502S9.097 11.98 8.28 11.98M12 20.995a1.5 1.5 0 0 1-1.492-1.502A1.5 1.5 0 0 1 12 17.991a1.5 1.5 0 0 1 1.492 1.502A1.5 1.5 0 0 1 12 20.995m3.72-3.756a1.5 1.5 0 0 1-1.485-1.502c0-.826.668-1.502 1.485-1.502s1.492.676 1.492 1.502a1.5 1.5 0 0 1-1.492 1.502m0-5.258a1.5 1.5 0 0 1-1.485-1.502c0-.826.668-1.502 1.485-1.502s1.492.676 1.492 1.502a1.5 1.5 0 0 1-1.492 1.502"/></svg>