<svg xmlns="http://www.w3.org/2000/svg" width="24" height="24" fill="none" viewBox="0 0 24 24"><path fill="currentColor" d="M23.994 20.254a2.996 2.996 0 0 1-3 2.997 3 3 0 0 1-2.999-2.997c.006-.489.13-.97.36-1.4l-4.169-3.844a3.7 3.7 0 0 1-2.189.749h-.158l-.667 2.622a2.997 2.997 0 1 1-3.944 4.29 2.995 2.995 0 0 1 2.52-4.664l.66-2.63a3.75 3.75 0 0 1-1.5-1.259L5.953 15.34q.04.208.045.42a2.996 2.996 0 0 1-2.503 2.968 3 3 0 0 1-3.335-1.99 2.994 2.994 0 0 1 1.428-3.61 3 3 0 0 1 3.796.826l2.939-1.19a3.74 3.74 0 0 1 .547-2.81L4.5 5.593A3 3 0 0 1 .024 3.377 2.995 2.995 0 0 1 1.866.222a3.002 3.002 0 0 1 4.132 2.8 3 3 0 0 1-.427 1.499l4.364 4.353a3.706 3.706 0 0 1 4.536.33l3.75-2.81a2.99 2.99 0 0 1 .893-3.453 3 3 0 0 1 4.715 1.332 2.995 2.995 0 0 1-2.834 3.994 2.95 2.95 0 0 1-1.86-.667l-3.749 2.817c.234.5.357 1.044.36 1.596a3.74 3.74 0 0 1-.547 1.918l4.169 3.813a2.95 2.95 0 0 1 1.627-.487 3 3 0 0 1 2.999 2.997"/></svg>