<svg xmlns="http://www.w3.org/2000/svg" width="24" height="24" fill="none" viewBox="0 0 24 24"><path fill="currentColor" fill-rule="evenodd" d="m22.5 11.563-1.19 1.187h-2.12l3.31-3.313zm-8.565 1.187 4.5-4.5h2.13l-4.5 4.5zm-5.25 0 4.5-4.5h2.13l-4.5 4.5zm-.743-4.5h2.115l-4.5 4.5H3.442zM1.5 9.436 2.685 8.25h2.13L1.5 11.565zM5.625 1.5c1.034 0 1.875.842 1.875 1.875 0 1.034-.84 1.875-1.875 1.875A1.877 1.877 0 0 1 3.75 3.375c0-1.033.84-1.875 1.875-1.875m12.75 0c1.034 0 1.875.842 1.875 1.875a1.877 1.877 0 0 1-1.875 1.875A1.877 1.877 0 0 1 16.5 3.375c0-1.033.84-1.875 1.875-1.875m4.875 5.25h-3v-.57a3.37 3.37 0 0 0 1.5-2.805A3.38 3.38 0 0 0 18.375 0 3.374 3.374 0 0 0 16.5 6.18v.57h-9v-.57A3.37 3.37 0 0 0 9 3.374 3.38 3.38 0 0 0 5.625 0 3.38 3.38 0 0 0 2.25 3.375c0 1.168.596 2.197 1.5 2.804v.57h-3A.75.75 0 0 0 0 7.5v6c0 .415.335.75.75.75h3v9c0 .414.335.75.75.75h2.25a.75.75 0 0 0 .75-.75v-9h9v9c0 .414.335.75.75.75h2.25a.75.75 0 0 0 .75-.75v-9h3a.75.75 0 0 0 .75-.75v-6a.75.75 0 0 0-.75-.75" clip-rule="evenodd"/></svg>