<svg width="25" height="24" viewBox="0 0 25 24" fill="none" xmlns="http://www.w3.org/2000/svg"><path fill-rule="evenodd" clip-rule="evenodd" d="M16.5 3.75V1.5l3 3h-2.25a.752.752 0 0 1-.75-.75Zm0 12.75h-9a.752.752 0 0 1-.75-.75c0-.412.338-.75.75-.75h9c.413 0 .75.338.75.75 0 .413-.337.75-.75.75Zm-3 3h-6a.752.752 0 0 1-.75-.75c0-.413.338-.75.75-.75h6c.412 0 .75.337.75.75s-.338.75-.75.75ZM8.25 9c0-.203.082-.39.217-.533l3-3a.756.756 0 0 1 1.066 0l3 3c.135.143.217.33.217.533v3.75c0 .412-.338.75-.75.75H9a.752.752 0 0 1-.75-.75V9Zm11.828 8.422.172.173.75-.75V3.75a.775.775 0 0 0-.218-.533l-3-3A.775.775 0 0 0 17.25 0H3.75A.752.752 0 0 0 3 .75v22.5c0 .413.337.75.75.75h16.5c.413 0 .75-.337.75-.75v-1.282a1.867 1.867 0 0 1-2.078-.39l-1.5-1.5a1.888 1.888 0 0 1 0-2.655 1.888 1.888 0 0 1 2.655 0Zm-5.829-8.114V12h-4.5V9.308L12 7.058l2.25 2.25Zm6.533 11.474 3-3a.756.756 0 0 0 0-1.064.756.756 0 0 0-1.064 0L21 18.442l-.75.75-.75-.757-.218-.217a.756.756 0 0 0-1.064 0 .756.756 0 0 0 0 1.064l1.5 1.5c.15.143.337.218.532.218a.768.768 0 0 0 .532-.218Z" fill="currentColor"/></svg>