<svg xmlns="http://www.w3.org/2000/svg" width="25" height="24" fill="none" viewBox="0 0 25 24"><path fill="currentColor" fill-rule="evenodd" d="M16.5 3.75V1.5l3 3h-2.25a.75.75 0 0 1-.75-.75m0 12.75h-9a.75.75 0 0 1-.75-.75c0-.412.338-.75.75-.75h9c.413 0 .75.338.75.75 0 .413-.337.75-.75.75m-3 3h-6a.75.75 0 0 1-.75-.75c0-.413.338-.75.75-.75h6c.412 0 .75.337.75.75s-.338.75-.75.75M8.25 9c0-.203.082-.39.217-.533l3-3a.756.756 0 0 1 1.066 0l3 3c.135.143.217.33.217.533v3.75c0 .412-.338.75-.75.75H9a.75.75 0 0 1-.75-.75zm11.828 8.423.172.172.75-.75V3.75a.78.78 0 0 0-.218-.533l-3-3A.78.78 0 0 0 17.25 0H3.75A.75.75 0 0 0 3 .75v22.5c0 .413.337.75.75.75h16.5c.413 0 .75-.337.75-.75v-1.282a1.87 1.87 0 0 1-2.078-.39l-1.5-1.5a1.89 1.89 0 0 1 0-2.655 1.89 1.89 0 0 1 2.656 0m-5.829-8.115V12h-4.5V9.308L12 7.058zm6.533 11.474 3-3a.756.756 0 0 0 0-1.064.756.756 0 0 0-1.064 0L21 18.442l-.75.75-.75-.757-.218-.217a.756.756 0 0 0-1.064 0 .756.756 0 0 0 0 1.064l1.5 1.5c.15.143.337.218.532.218a.77.77 0 0 0 .532-.218" clip-rule="evenodd"/></svg>