<svg width="24" height="24" viewBox="0 0 24 24" fill="none" xmlns="http://www.w3.org/2000/svg"><path fill-rule="evenodd" clip-rule="evenodd" d="M5.25 9.202c0-2.174 1.519-3.935 3.375-3.935l.009-.017c1.81 0 3.285 1.667 3.37 3.745.092-2.078 1.566-3.729 3.37-3.729 1.865 0 3.376 1.77 3.376 3.936 0 1.322-.566 2.494-1.434 3.21 2.202.97 3.164 3.362 3.282 3.691.219.455.64 1.517.227 2.174-.118.177-.38.472-.928.472h-9.044c-.549 0-.819-.295-.929-.472-.413-.649.009-1.719.228-2.174.118-.329 1.08-2.722 3.282-3.69-.827-.675-1.379-1.776-1.43-3.022-.055 1.246-.606 2.334-1.43 3.014.16.075.27.227.304.404a.558.558 0 0 1-.16.506h-.001c-.055.055-2.083 2.068-2.083 4.87a.565.565 0 0 1-.566.565H4.103c-.549 0-.819-.295-.928-.472-.414-.649.008-1.719.227-2.174.119-.329 1.08-2.722 3.283-3.691-.87-.708-1.435-1.888-1.435-3.21Z" fill="currentColor"/></svg>