<svg xmlns="http://www.w3.org/2000/svg" width="24" height="24" fill="none" viewBox="0 0 24 24"><path fill="currentColor" d="M8.634 5.25c1.814 0 3.291 1.675 3.37 3.76.085-2.085 1.561-3.744 3.371-3.744 1.865 0 3.375 1.77 3.375 3.935 0 1.323-.566 2.495-1.435 3.211 2.202.97 3.164 3.361 3.283 3.69.219.456.64 1.518.227 2.175-.118.177-.38.472-.927.472h-9.045c-.548 0-.818-.295-.928-.472-.414-.649.008-1.72.227-2.175.119-.329 1.08-2.721 3.283-3.69-.836-.68-1.39-1.799-1.431-3.06-.045 1.262-.597 2.366-1.43 3.052a.56.56 0 0 1 .304.405.56.56 0 0 1-.16.506c-.025.025-2.084 2.048-2.084 4.87a.565.565 0 0 1-.566.565H4.103c-.548 0-.818-.295-.928-.472-.414-.649.008-1.72.227-2.174.119-.33 1.081-2.722 3.283-3.69-.87-.709-1.435-1.889-1.435-3.212 0-2.174 1.519-3.935 3.375-3.935z"/></svg>