<svg xmlns="http://www.w3.org/2000/svg" width="24" height="24" fill="none" viewBox="0 0 24 24"><path fill="currentColor" fill-rule="evenodd" d="M16.106 15.203a.75.75 0 0 1-.2.702L8.22 23.651a1.18 1.18 0 0 1-.837.349H2.25a.75.75 0 0 1-.727-.935l1.223-4.79c.215-1.088 1.024-2.026 2.155-2.47l4.302-1.415.238-.713c-1.417-.791-2.487-2.296-2.487-3.82v-.321C6.452 9.313 6 8.846 6 8.036v-.911c0-.907.437-1.324.895-1.513-.082-.76-.14-1.885.625-2.746.627-.702 1.623-1.044 3.048-1.044 3.21 0 4.067-1.351 4.116-1.433A.75.75 0 0 1 15.34 0c.192 0 .377.074.518.207 1.029.982 2.496 3.288 1.513 5.607.357.261.628.683.628 1.311v.91c0 .811-.451 1.278-.954 1.5v.322c0 1.524-1.07 3.029-2.487 3.82l.238.715.815.272a.75.75 0 0 1 .493.539m4.939.591 1.297-1.296q.159.416.158.877A2.63 2.63 0 0 1 19.875 18a2.6 2.6 0 0 1-.873-.161l-5.831 5.831a1.12 1.12 0 0 1-1.592 0 1.124 1.124 0 0 1 0-1.59l5.832-5.832a2.6 2.6 0 0 1-.161-.873 2.63 2.63 0 0 1 2.625-2.625q.462 0 .878.158l-1.298 1.297a1.117 1.117 0 0 0 0 1.59c.218.218.51.33.795.33s.577-.112.795-.33" clip-rule="evenodd"/></svg>