<svg width="24" height="24" viewBox="0 0 24 24" fill="none" xmlns="http://www.w3.org/2000/svg"><path fill-rule="evenodd" clip-rule="evenodd" d="M9 10.125A1.124 1.124 0 1 0 10.125 9C9.502 9 9 9.502 9 10.125ZM3 3c-.825 0-1.5.675-1.5 1.5V6h17.25V4.5c0-.825-.675-1.5-1.5-1.5h-1.512l-.004.754a.75.75 0 0 1-.75.746h-.003a.751.751 0 0 1-.747-.754L14.238 3h-8.25l-.004.754a.75.75 0 0 1-.75.746h-.003a.75.75 0 0 1-.747-.754L4.488 3H3Zm1.875 12.75a1.124 1.124 0 1 0 0-2.25c-.623 0-1.125.502-1.125 1.125 0 .622.502 1.125 1.125 1.125ZM3.75 10.125A1.124 1.124 0 1 0 4.875 9c-.623 0-1.125.502-1.125 1.125Zm10.5 0c0 .465.285.87.69 1.035a7.445 7.445 0 0 0-3.705 3.607.437.437 0 0 0 .015-.142c0-.623-.503-1.125-1.125-1.125-.623 0-1.125.502-1.125 1.125 0 .622.502 1.125 1.125 1.125.352 0 .667-.165.87-.42a7.372 7.372 0 0 0-.458 3.42c.023.255.06.51.113.75H3a3 3 0 0 1-3-3v-12a3 3 0 0 1 3-3h1.496L4.5.746A.764.764 0 0 1 5.254 0 .75.75 0 0 1 6 .754l-.004.746h8.25l.004-.754a.75.75 0 1 1 1.5.008l-.004.746h1.504a3 3 0 0 1 3 3v6.345a7.839 7.839 0 0 0-.75-.195 6.017 6.017 0 0 0-.75-.113 7.535 7.535 0 0 0-2.407.15c.104-.165.157-.352.157-.562C16.5 9.502 15.997 9 15.375 9c-.623 0-1.125.502-1.125 1.125Zm3.218 8.407.18.18.607.608.713.712c.15.143.337.218.532.218a.77.77 0 0 0 .532-.218.757.757 0 0 0 0-1.064l-.51-.51-.532-.533-.24-.24V15.75A.752.752 0 0 0 18 15a.752.752 0 0 0-.75.75V18c0 .06.007.128.03.188 0 .034.012.063.027.096l.003.008c.038.09.09.173.158.24Zm2.032-6.344c.255.067.51.157.75.255A6.004 6.004 0 0 1 24 18c0 3.308-2.692 6-6 6-2.79 0-5.137-1.913-5.812-4.5a8.075 8.075 0 0 1-.144-.75 6.008 6.008 0 0 1 7.456-6.562Z" fill="currentColor"/></svg>