<svg xmlns="http://www.w3.org/2000/svg" width="24" height="24" fill="none" viewBox="0 0 24 24"><path fill="currentColor" fill-rule="evenodd" d="M24 15.593a4.187 4.187 0 0 1-4.185 4.184 4.187 4.187 0 0 1-4.185-4.185c0-1.387.69-2.625 1.74-3.382l-6.712 1.845.375 1.343a.75.75 0 0 1-.128.652.74.74 0 0 1-.592.293H8.295a4.186 4.186 0 0 1-4.11 3.434A4.187 4.187 0 0 1 0 15.592a4.19 4.19 0 0 1 4.185-4.184c.735 0 1.433.194 2.033.54a6.8 6.8 0 0 1 2.002-1.08L7.155 7.041h-.48a.747.747 0 0 1-.75-.75c0-.412.33-.75.75-.75H9.72c.412 0 .75.338.75.75 0 .413-.338.75-.75.75H8.715l1.148 4.148c.007.008.007.015.007.03l.188.66 7.56-2.078-.735-2.64a.8.8 0 0 1 .067-.562l.735-1.35H15.99a.75.75 0 0 1-.75-.75c0-.413.338-.75.75-.75h2.948a.75.75 0 0 1 .66 1.11l-1.185 2.19 1.215 4.373c.06-.008.127-.015.187-.015A4.19 4.19 0 0 1 24 15.593" clip-rule="evenodd"/></svg>