<svg width="24" height="24" viewBox="0 0 24 24" fill="none" xmlns="http://www.w3.org/2000/svg"><path fill-rule="evenodd" clip-rule="evenodd" d="m7.74 22.5 3.9-3.828 3.9 3.828h-7.8Zm13.29 0h-1.95L15.998 9.937h3.112v.75c0 .413.337.75.75.75.42 0 .75-.337.75-.75V9.165c0-.09-.022-.18-.052-.262-.008-.015-.023-.03-.03-.045a.821.821 0 0 0-.12-.18c-.023-.023-.046-.037-.075-.06-.03-.023-.052-.053-.09-.075l-4.35-2.573V4.298h3.217v.75c0 .412.337.75.75.75.42 0 .75-.338.75-.75V3.525a.86.86 0 0 0-.052-.27c-.008-.015-.023-.022-.03-.038a.582.582 0 0 0-.12-.18c-.023-.021-.046-.044-.075-.067-.03-.023-.052-.053-.09-.068L15.525.105c-.023-.007-.039-.015-.06-.022a.267.267 0 0 0-.068-.03L15.352.03h-.014a.56.56 0 0 0-.196-.03H8.145a.82.82 0 0 0-.195.022.022.022 0 0 1-.015.008L7.89.052a.191.191 0 0 0-.068.03C7.8.09 7.778.09 7.762.106L3.037 2.902c-.03.015-.052.045-.082.068-.03.022-.052.046-.082.067a.99.99 0 0 0-.12.18c-.008.016-.016.023-.023.038a.706.706 0 0 0-.053.27c0 .008-.007.015-.007.022v1.5c0 .413.337.75.75.75.42 0 .75-.337.75-.75v-.75h3.225V5.97L3.037 8.543c-.03.022-.052.052-.082.075l-.082.06c-.046.06-.083.12-.12.18l-.023.044a.646.646 0 0 0-.053.263c0 .008-.007.015-.007.023v1.5c0 .412.337.75.75.75.42 0 .75-.338.75-.75v-.75h3.113L4.208 22.5H2.25a.752.752 0 0 0-.75.75c0 .413.338.75.75.75h18.78c.42 0 .75-.337.75-.75s-.33-.75-.75-.75Z" fill="currentColor"/></svg>