<svg xmlns="http://www.w3.org/2000/svg" width="24" height="24" fill="none" viewBox="0 0 24 24"><path fill="currentColor" fill-rule="evenodd" d="M20.571 12.857A3.43 3.43 0 0 1 24 16.286v4.285A3.43 3.43 0 0 1 20.571 24H3.43A3.43 3.43 0 0 1 0 20.57v-4.285a3.43 3.43 0 0 1 3.429-3.429zM4.286 15.61a.75.75 0 0 0-.75.75v4.139a.75.75 0 1 0 1.5 0V16.36a.75.75 0 0 0-.75-.75m3.857 0a.75.75 0 0 0-.75.75v4.139a.75.75 0 0 0 1.5 0V16.36a.75.75 0 0 0-.75-.75m3.857 0a.75.75 0 0 0-.75.75v4.139a.75.75 0 1 0 1.5 0V16.36a.75.75 0 0 0-.75-.75m3.857 0a.75.75 0 0 0-.75.75v4.139a.75.75 0 1 0 1.5 0V16.36a.75.75 0 0 0-.75-.75m3.857 0a.75.75 0 0 0-.75.75v4.139a.75.75 0 0 0 1.5 0V16.36a.75.75 0 0 0-.75-.75" clip-rule="evenodd"/><path fill="currentColor" d="M10.09 9.764a2.65 2.65 0 0 1 3.82 0 .75.75 0 1 1-1.077 1.045 1.15 1.15 0 0 0-1.667 0 .75.75 0 0 1-1.076-1.045M7.348 6.94a6.45 6.45 0 0 1 9.304 0 .75.75 0 0 1-1.076 1.045 4.95 4.95 0 0 0-7.152 0A.75.75 0 0 1 7.348 6.94"/><path fill="currentColor" d="M4.604 4.116a10.25 10.25 0 0 1 14.79 0 .75.75 0 1 1-1.075 1.045 8.753 8.753 0 0 0-12.638 0 .75.75 0 0 1-1.077-1.045"/></svg>