<svg xmlns="http://www.w3.org/2000/svg" width="24" height="24" fill="none" viewBox="0 0 24 24"><path fill="currentColor" fill-rule="evenodd" d="M4.875 2.25h6.75c.621 0 1.125.504 1.125 1.125v3c0 .621-.504 1.125-1.125 1.125h-6.75A1.125 1.125 0 0 1 3.75 6.375v-3c0-.621.504-1.125 1.125-1.125M1.125 9h4.5c.621 0 1.125.504 1.125 1.125v3c0 .621-.504 1.125-1.125 1.125h-4.5A1.125 1.125 0 0 1 0 13.125v-3C0 9.504.504 9 1.125 9m18-6.75h-3.75c-.621 0-1.125.504-1.125 1.125v3c0 .621.504 1.125 1.125 1.125h3.75c.621 0 1.125-.504 1.125-1.125v-3c0-.621-.504-1.125-1.125-1.125m-4.5 12h-5.25a1.125 1.125 0 0 1-1.125-1.125v-3C8.25 9.504 8.754 9 9.375 9h5.25c.621 0 1.125.504 1.125 1.125v3c0 .621-.504 1.125-1.125 1.125m3.75 0h4.5c.621 0 1.125-.504 1.125-1.125v-3C24 9.504 23.496 9 22.875 9h-4.5c-.621 0-1.125.504-1.125 1.125v3c0 .621.504 1.125 1.125 1.125m-6 6.75a1.125 1.125 0 0 1-1.125-1.125v-3c0-.621.504-1.125 1.125-1.125h6.75c.621 0 1.125.504 1.125 1.125v3c0 .621-.504 1.125-1.125 1.125zM3.75 19.875c0 .621.504 1.125 1.125 1.125h3.75c.621 0 1.125-.504 1.125-1.125v-3c0-.621-.504-1.125-1.125-1.125h-3.75c-.621 0-1.125.504-1.125 1.125z" clip-rule="evenodd"/></svg>