<svg width="24" height="24" viewBox="0 0 24 24" fill="none" xmlns="http://www.w3.org/2000/svg">
<path fill-rule="evenodd" clip-rule="evenodd" d="M18.1816 0.00961083C17.2059 0.107861 16.5001 1.00111 16.5001 1.98211V8.25061C16.5001 9.49336 15.4929 10.4999 14.2509 10.4999H9.74937C8.50737 10.4999 7.50012 9.49336 7.50012 8.25061V1.98211C7.50012 1.00111 6.79362 0.107861 5.81862 0.00961083C4.69662 -0.102139 3.75012 0.775361 3.75012 1.87486V11.2521V13.1249V22.4976C3.75012 23.3279 4.42212 23.9999 5.25237 23.9999H18.7479C19.5774 23.9999 20.2501 23.3279 20.2501 22.4976V13.1249V11.2521V1.87486C20.2501 0.775361 19.3036 -0.102139 18.1816 0.00961083Z" fill="black"/>
</svg>
