<svg xmlns="http://www.w3.org/2000/svg" width="24" height="24" fill="none" viewBox="0 0 24 24"><path fill="currentColor" fill-rule="evenodd" d="M6.164 7.81a.751.751 0 0 1 1.336.469c0 .135-.028 3.338-2.47 5.78a.75.75 0 0 1-.53.22.75.75 0 0 1-.53-1.28c.81-.81 1.296-1.737 1.59-2.555-1.214.836-2.477 1.103-3.594.71C.77 10.737 0 9.625 0 8.323 0 6.165 2.17 4.939 3.194 4.48l-.155-.463a.75.75 0 0 1 .355-.898c.095-.05 2.357-1.258 5.504-1.975s6.798-.237 6.953-.216a.752.752 0 0 1 .625.934l-.75 2.858a.75.75 0 0 1-.544.537c-.516.13-3.13.772-3.932.772-.817 0-1.203-.243-1.514-.44l-.003-.002c-.24-.153-.539-.276-1.2-.303a1.3 1.3 0 0 0-.543.104L4.79 6.72a.75.75 0 0 1-1.002-.454l-.118-.353c-.784.377-2.17 1.21-2.17 2.409 0 .666.367 1.209.961 1.418 1.053.368 2.44-.351 3.702-1.93m2.838 1.22a.75.75 0 0 0-.75.746c0 .027-.04 2.732-2.03 4.722a.75.75 0 1 0 1.06 1.06c2.442-2.441 2.47-5.644 2.47-5.78a.75.75 0 0 0-.748-.748m2.25 1.5h-.002a.75.75 0 0 0-.75.746c0 .027-.04 2.732-2.03 4.722a.75.75 0 1 0 1.06 1.06c2.442-2.441 2.47-5.644 2.47-5.78a.75.75 0 0 0-.748-.748m2.248 1.5h.002c.413 0 .748.335.748.749 0 .135-.028 3.338-2.47 5.78a.75.75 0 0 1-1.06 0 .75.75 0 0 1 0-1.06c1.99-1.991 2.03-4.696 2.03-4.723a.75.75 0 0 1 .75-.746m2.252 1.5h-.002a.75.75 0 0 0-.75.746c0 .027-.04 2.732-2.03 4.722a.75.75 0 1 0 1.06 1.06c2.442-2.441 2.47-5.644 2.47-5.78a.75.75 0 0 0-.748-.748M18 15.03h.002c.414 0 .748.335.748.749 0 .135-.028 3.338-2.47 5.78a.75.75 0 0 1-1.06 0 .75.75 0 0 1 0-1.06c1.99-1.991 2.03-4.696 2.03-4.723a.75.75 0 0 1 .75-.746m5.25 5.999c-.76 0-1.31-.214-1.686-.655-.527-.619-.637-1.62-.625-2.328a6 6 0 0 0 .061-.767.75.75 0 0 0-.688-.748.76.76 0 0 0-.801.625 6 6 0 0 0-.066.727c-.129.916-.556 2.696-1.975 4.115a.75.75 0 1 0 1.06 1.06 8.2 8.2 0 0 0 1.555-2.184q.143.244.332.466c.667.789 1.621 1.189 2.833 1.189a.75.75 0 1 0 0-1.5" clip-rule="evenodd"/></svg>