<svg xmlns="http://www.w3.org/2000/svg" width="24" height="24" fill="none" viewBox="0 0 24 24"><path fill="currentColor" d="M12.005 0a.75.75 0 0 1 .533.229l1.5 1.544c.288.297.28.77-.017 1.059a.75.75 0 0 1-1.06-.017l-.969-.998-9.436 9.458H3.75c.415 0 .75.335.75.75v10.478h6a.748.748 0 1 1 0 1.497H3.75a.75.75 0 0 1-.75-.75V12.773H.75a.75.75 0 0 1-.693-.46.75.75 0 0 1 .162-.816L11.468.22c.142-.143.334-.2.537-.221m9.745 18.76c.227 0 .443.103.586.28l1.5 1.872a.75.75 0 0 1 0 .936l-1.5 1.871a.75.75 0 0 1-.586.28H13.5a.75.75 0 0 1-.75-.747v-3.743c0-.414.335-.748.75-.748zm-1.5-6.736c.227 0 .443.103.586.28l1.5 1.873a.75.75 0 0 1 0 .935l-1.5 1.871a.75.75 0 0 1-.586.28H13.5a.75.75 0 0 1-.75-.748v-3.742c0-.414.335-.749.75-.749zM18 5.288c.227 0 .443.104.586.281l1.5 1.871a.75.75 0 0 1 0 .936l-1.5 1.87a.75.75 0 0 1-.586.281h-4.5a.75.75 0 0 1-.75-.748V6.037c0-.414.335-.749.75-.749z"/></svg>