<svg width="24" height="24" viewBox="0 0 24 24" fill="none" xmlns="http://www.w3.org/2000/svg">
<path fill-rule="evenodd" clip-rule="evenodd" d="M24 9.75V18C24 19.2375 22.9867 20.25 21.75 20.25H19.5C19.0875 20.25 18.75 19.9125 18.75 19.5V18H18V21C18 21.4125 17.6625 21.75 17.25 21.75H8.25C8.025 21.75 7.815 21.6525 7.67175 21.4725L5.4375 18.75H3.75C3.33 18.75 3 18.4125 3 18V14.625H1.5V17.25C1.5 17.6625 1.1625 18 0.75 18C0.33 18 0 17.6625 0 17.25V10.5C0 10.0875 0.33 9.75 0.75 9.75C1.1625 9.75 1.5 10.0875 1.5 10.5V13.125H3V9.75C3 9.3375 3.33 9 3.75 9H4.98675V7.5C4.98675 7.0875 5.32575 6.75 5.73675 6.75H9.375V4.5H6.75C6.33 4.5 6 4.1625 6 3.75C6 3.3375 6.33 3 6.75 3H13.5C13.9125 3 14.25 3.3375 14.25 3.75C14.25 4.1625 13.9125 4.5 13.5 4.5H10.875V6.75H14.7367C14.9625 6.75 15.1718 6.8475 15.315 7.0275L18.1575 10.5H18.75V8.25C18.75 7.8375 19.0875 7.5 19.5 7.5H21.75C22.9867 7.5 24 8.5125 24 9.75Z" fill="black"/>
</svg>
