<svg xmlns="http://www.w3.org/2000/svg" width="24" height="24" fill="none" viewBox="0 0 24 24"><path fill="currentColor" fill-rule="evenodd" d="M12.75 9.75c.412 0 .75.337.75.75 0 .412-.338.75-.75.75H7.56a5 5 0 0 0 0 1.5h5.19c.412 0 .75.338.75.75s-.338.75-.75.75H7.988c.247.533.57 1.035.997 1.47 1.335 1.395 3.293 1.882 5.085 1.275.428-.143.84-.36 1.252-.645a.75.75 0 0 1 1.043.188.74.74 0 0 1-.187 1.042 6.2 6.2 0 0 1-1.628.84 6.4 6.4 0 0 1-2.04.337c-1.703 0-3.36-.697-4.605-1.995a6.7 6.7 0 0 1-1.522-2.512H4.5a.75.75 0 0 1-.75-.75c0-.412.338-.75.75-.75h1.553a6.3 6.3 0 0 1 0-1.5H4.5a.75.75 0 0 1-.75-.75c0-.413.338-.75.75-.75h1.883a6.7 6.7 0 0 1 1.522-2.513c2.205-2.295 5.685-2.647 8.272-.825a.747.747 0 1 1-.855 1.223c-1.98-1.388-4.65-1.118-6.337.645-.428.435-.75.937-.997 1.47zM12 0C5.37 0 0 5.37 0 12s5.37 12 12 12 12-5.37 12-12S18.63 0 12 0" clip-rule="evenodd"/></svg>