<svg width="24" height="24" viewBox="0 0 24 24" fill="none" xmlns="http://www.w3.org/2000/svg">
<path fill-rule="evenodd" clip-rule="evenodd" d="M16.7728 3.47699C18.0387 4.74285 18.7498 6.45972 18.7498 8.24992C18.7498 9.13633 18.5752 10.0141 18.236 10.833C17.8968 11.6519 17.3996 12.396 16.7728 13.0228C16.146 13.6496 15.4019 14.1468 14.583 14.486C13.764 14.8253 12.8863 14.9998 11.9999 14.9998H11.7899C10.5824 17.9998 6.31496 18.7498 6.11996 18.7498H5.99996C5.88676 18.7398 5.7773 18.7043 5.67986 18.6458C5.58242 18.5874 5.49953 18.5075 5.43747 18.4123C5.36109 18.3044 5.31462 18.1781 5.30277 18.0464C5.29091 17.9147 5.3141 17.7822 5.36997 17.6623C5.73356 16.8026 5.94666 15.8868 5.99996 14.9548C4.29103 14.7567 2.72227 13.9134 1.6142 12.5974C0.506124 11.2814 -0.0576292 9.59191 0.0381188 7.87419C0.133867 6.15647 0.88189 4.54014 2.12936 3.35542C3.37682 2.17071 5.02958 1.50703 6.74995 1.49998H11.9999C13.7901 1.49998 15.507 2.21114 16.7728 3.47699ZM5.24997 7.49992H12.7499C12.9488 7.49992 13.1396 7.42091 13.2802 7.28026C13.4209 7.1396 13.4999 6.94884 13.4999 6.74993C13.4999 6.55102 13.4209 6.36026 13.2802 6.21961C13.1396 6.07896 12.9488 5.99994 12.7499 5.99994H5.24997C5.05106 5.99994 4.8603 6.07896 4.71964 6.21961C4.57899 6.36026 4.49998 6.55102 4.49998 6.74993C4.49998 6.94884 4.57899 7.1396 4.71964 7.28026C4.8603 7.42091 5.05106 7.49992 5.24997 7.49992ZM4.71964 10.2802C4.8603 10.4209 5.05106 10.4999 5.24997 10.4999H9.74992C9.94883 10.4999 10.1396 10.4209 10.2802 10.2802C10.4209 10.1396 10.4999 9.94881 10.4999 9.7499C10.4999 9.55099 10.4209 9.36023 10.2802 9.21958C10.1396 9.07893 9.94883 8.99991 9.74992 8.99991H5.24997C5.05106 8.99991 4.8603 9.07893 4.71964 9.21958C4.57899 9.36023 4.49998 9.55099 4.49998 9.7499C4.49998 9.94881 4.57899 10.1396 4.71964 10.2802ZM23.0437 12.0924C23.6761 12.9912 24.0105 14.0658 23.9997 15.1648C23.9978 16.2104 23.6764 17.2305 23.0786 18.0883C22.4808 18.9462 21.6351 19.6009 20.6548 19.9647C20.6204 20.4521 20.7027 20.9405 20.8948 21.3897C20.9606 21.5037 20.9952 21.6331 20.9952 21.7647C20.9952 21.8964 20.9606 22.0257 20.8948 22.1397C20.8275 22.2503 20.7327 22.3415 20.6197 22.4046C20.5066 22.4677 20.3792 22.5005 20.2498 22.4997C19.521 22.4796 18.8112 22.2635 18.1949 21.8742C17.5786 21.4848 17.0785 20.9366 16.7473 20.2872H16.3648C15.4641 20.3106 14.5766 20.0667 13.8145 19.5861C13.0523 19.1056 12.4496 18.41 12.0824 17.5873C12.0096 17.4124 12.0056 17.2166 12.0712 17.0389C12.1369 16.8613 12.2673 16.7151 12.4363 16.6296C12.6053 16.5442 12.8004 16.5258 12.9823 16.5783C13.1643 16.6307 13.3197 16.75 13.4173 16.9123C13.6638 17.4844 14.0767 17.9692 14.6024 18.3036C15.128 18.638 15.7421 18.8065 16.3648 18.7873H17.2873C17.4445 18.7868 17.5979 18.8359 17.7258 18.9274C17.8536 19.0189 17.9495 19.1483 17.9998 19.2972C18.0927 19.6027 18.2462 19.8862 18.4511 20.1311C18.6559 20.3759 18.908 20.5769 19.1923 20.7222C19.1414 20.2402 19.154 19.7535 19.2298 19.2747C19.2543 19.1318 19.3199 18.999 19.4184 18.8925C19.5169 18.786 19.6441 18.7104 19.7848 18.6748C20.5631 18.4747 21.2525 18.021 21.7442 17.3854C22.2359 16.7497 22.5017 15.9684 22.4997 15.1648C22.5167 14.3847 22.2864 13.6193 21.8418 12.978C21.3972 12.3368 20.7612 11.8526 20.0248 11.5948C19.9302 11.5653 19.8424 11.5174 19.7664 11.4539C19.6903 11.3904 19.6275 11.3126 19.5816 11.2248C19.5356 11.1371 19.5074 11.0412 19.4985 10.9425C19.4896 10.8438 19.5002 10.7444 19.5298 10.6498C19.5593 10.5553 19.6072 10.4675 19.6707 10.3914C19.7342 10.3154 19.812 10.2526 19.8998 10.2066C19.9875 10.1607 20.0834 10.1324 20.1821 10.1235C20.2808 10.1147 20.3802 10.1253 20.4748 10.1548C21.5128 10.5159 22.4113 11.1936 23.0437 12.0924Z" fill="black"/>
</svg>
