<svg width="24" height="24" viewBox="0 0 24 24" fill="none" xmlns="http://www.w3.org/2000/svg">
<path d="M18.7498 8.2499C18.7498 6.45971 18.0386 4.74284 16.7728 3.47698C15.5069 2.21113 13.7901 1.49998 11.9999 1.49998H6.74994C5.02957 1.50702 3.37682 2.1707 2.12935 3.35541C0.881887 4.54013 0.133866 6.15646 0.0381187 7.87417C-0.057629 9.59189 0.506123 11.2813 1.61419 12.5974C2.72226 13.9134 4.29102 14.7566 5.99995 14.9548C5.94664 15.8867 5.73354 16.8026 5.36995 17.6623C5.31408 17.7821 5.2909 17.9146 5.30275 18.0464C5.31461 18.1781 5.36108 18.3043 5.43745 18.4123C5.49952 18.5075 5.5824 18.5873 5.67985 18.6458C5.77729 18.7042 5.88675 18.7398 5.99995 18.7498H6.11994C6.31494 18.7498 10.5824 17.9998 11.7899 14.9998H11.9999C12.8863 14.9998 13.764 14.8252 14.583 14.486C15.4019 14.1468 16.146 13.6496 16.7728 13.0228C17.3996 12.396 17.8968 11.6519 18.236 10.833C18.5752 10.014 18.7498 9.13631 18.7498 8.2499ZM12.7499 7.4999H5.24996C5.05105 7.4999 4.86028 7.42089 4.71963 7.28024C4.57898 7.13959 4.49997 6.94882 4.49997 6.74991C4.49997 6.551 4.57898 6.36024 4.71963 6.21959C4.86028 6.07894 5.05105 5.99992 5.24996 5.99992H12.7499C12.9488 5.99992 13.1395 6.07894 13.2802 6.21959C13.4208 6.36024 13.4999 6.551 13.4999 6.74991C13.4999 6.94882 13.4208 7.13959 13.2802 7.28024C13.1395 7.42089 12.9488 7.4999 12.7499 7.4999ZM5.24996 10.4999C5.05105 10.4999 4.86028 10.4208 4.71963 10.2802C4.57898 10.1395 4.49997 9.94879 4.49997 9.74988C4.49997 9.55097 4.57898 9.3602 4.71963 9.21955C4.86028 9.0789 5.05105 8.99989 5.24996 8.99989H9.7499C9.94881 8.99989 10.1396 9.0789 10.2802 9.21955C10.4209 9.3602 10.4999 9.55097 10.4999 9.74988C10.4999 9.94879 10.4209 10.1395 10.2802 10.2802C10.1396 10.4208 9.94881 10.4999 9.7499 10.4999H5.24996Z" fill="black"/>
<path d="M23.9997 15.1647C24.0105 14.0658 23.6761 12.9912 23.0437 12.0924C22.4113 11.1936 21.5128 10.5159 20.4748 10.1548C20.3802 10.1253 20.2808 10.1146 20.1821 10.1235C20.0835 10.1324 19.9875 10.1606 19.8998 10.2066C19.812 10.2526 19.7342 10.3154 19.6707 10.3914C19.6072 10.4675 19.5593 10.5553 19.5298 10.6498C19.5002 10.7444 19.4896 10.8438 19.4985 10.9425C19.5074 11.0411 19.5356 11.1371 19.5816 11.2248C19.6275 11.3126 19.6903 11.3904 19.7664 11.4539C19.8424 11.5174 19.9302 11.5652 20.0248 11.5948C20.7612 11.8526 21.3972 12.3368 21.8418 12.978C22.2864 13.6192 22.5167 14.3847 22.4997 15.1647C22.5017 15.9683 22.2359 16.7497 21.7442 17.3853C21.2525 18.021 20.5631 18.4746 19.7848 18.6747C19.6442 18.7103 19.5169 18.786 19.4184 18.8925C19.3199 18.999 19.2544 19.1317 19.2298 19.2747C19.154 19.7535 19.1414 20.2401 19.1923 20.7222C18.908 20.5769 18.6559 20.3758 18.4511 20.131C18.2462 19.8862 18.0927 19.6026 17.9998 19.2972C17.9495 19.1482 17.8536 19.0188 17.7258 18.9273C17.5979 18.8358 17.4445 18.7868 17.2873 18.7872H16.3648C15.7421 18.8064 15.1281 18.6379 14.6024 18.3035C14.0768 17.9692 13.6639 17.4844 13.4174 16.9122C13.3197 16.75 13.1643 16.6306 12.9824 16.5782C12.8004 16.5258 12.6053 16.5442 12.4363 16.6296C12.2673 16.7151 12.1369 16.8613 12.0713 17.0389C12.0056 17.2165 12.0096 17.4124 12.0824 17.5872C12.4496 18.41 13.0523 19.1056 13.8145 19.5861C14.5767 20.0666 15.4641 20.3106 16.3648 20.2872H16.7473C17.0785 20.9366 17.5786 21.4848 18.1949 21.8741C18.8112 22.2634 19.5211 22.4795 20.2498 22.4997C20.3792 22.5004 20.5066 22.4677 20.6197 22.4046C20.7327 22.3415 20.8275 22.2502 20.8948 22.1397C20.9606 22.0256 20.9952 21.8963 20.9952 21.7647C20.9952 21.633 20.9606 21.5037 20.8948 21.3897C20.7027 20.9405 20.6204 20.452 20.6548 19.9647C21.6351 19.6009 22.4808 18.9462 23.0786 18.0883C23.6764 17.2304 23.9978 16.2104 23.9997 15.1647Z" fill="black"/>
</svg>
