<svg width="24" height="24" viewBox="0 0 24 24" fill="none" xmlns="http://www.w3.org/2000/svg"><path d="M21.75 6H21V2.25a.75.75 0 0 0-.75-.75H10.5a.75.75 0 0 0-.75.75V6h-1.5A2.25 2.25 0 0 0 6 3.75H4.5A2.25 2.25 0 0 0 2.25 6 2.25 2.25 0 0 0 0 8.25v12a2.25 2.25 0 0 0 2.25 2.25h19.5A2.25 2.25 0 0 0 24 20.25v-12A2.25 2.25 0 0 0 21.75 6Zm-18 0a.75.75 0 0 1 .75-.75H6a.75.75 0 0 1 .75.75v12a.75.75 0 0 1-.75.75H4.5a.75.75 0 0 1-.75-.75V6Zm7.5 0V3h8.25v7.5h-8.25V6Zm8.25 9.75h-.75a.75.75 0 1 1 0-1.5h.75a.75.75 0 1 1 0 1.5Zm.75 2.25a.75.75 0 0 1-.75.75h-.75a.75.75 0 1 1 0-1.5h.75a.75.75 0 0 1 .75.75Zm-4.5-2.25H15a.75.75 0 1 1 0-1.5h.75a.75.75 0 1 1 0 1.5ZM16.5 18a.75.75 0 0 1-.75.75H15a.75.75 0 1 1 0-1.5h.75a.75.75 0 0 1 .75.75ZM12 15.75h-.75a.75.75 0 1 1 0-1.5H12a.75.75 0 1 1 0 1.5Zm.75 2.25a.75.75 0 0 1-.75.75h-.75a.75.75 0 1 1 0-1.5H12a.75.75 0 0 1 .75.75Z" fill="currentColor"/><path d="M13.5 6h3.75a.75.75 0 1 0 0-1.5H13.5a.75.75 0 1 0 0 1.5Zm0 3h3.75a.75.75 0 1 0 0-1.5H13.5a.75.75 0 1 0 0 1.5Z" fill="currentColor"/></svg>