<svg width="24" height="24" viewBox="0 0 24 24" fill="none" xmlns="http://www.w3.org/2000/svg"><path fill-rule="evenodd" clip-rule="evenodd" d="M15.84 6.63a.727.727 0 0 1-.728-.72V1.823l4.815 4.807H15.84Zm.66 6.105h-9a.747.747 0 0 1-.75-.75c0-.412.337-.75.75-.75h9c.42 0 .75.338.75.75 0 .42-.33.75-.75.75Zm0 3.135h-9a.752.752 0 0 1-.75-.75c0-.412.337-.75.75-.75h9c.42 0 .75.338.75.75 0 .413-.33.75-.75.75Zm0 3.135h-9a.752.752 0 0 1-.75-.75c0-.412.337-.75.75-.75h9c.42 0 .75.338.75.75 0 .413-.33.75-.75.75Zm5.032-12.892L15.637.217A.755.755 0 0 0 15.106 0H3c-.413 0-.75.33-.75.75v22.485c0 .42.337.75.75.75h18c.42 0 .75-.33.75-.75V6.645a.755.755 0 0 0-.218-.532Z" fill="currentColor"/></svg>