<svg xmlns="http://www.w3.org/2000/svg" width="24" height="24" fill="none" viewBox="0 0 24 24"><path fill="currentColor" fill-rule="evenodd" d="M8.385 22.5h6.638v-.712H8.385zm1.425-6.727a.37.37 0 0 1-.286.442c-.021.008-.051.008-.081.008a.37.37 0 0 1-.36-.285c-.015-.075-.143-.698.337-1.5-.39-.413-.69-1.043-.54-1.995.105-.698.675-1.605 2.782-1.943.878-.143 1.628-.375 2.048-.637a.38.38 0 0 1 .36-.023.36.36 0 0 1 .21.293c.015.067.21 1.71-.652 3.397-.63 1.223-1.726 1.545-2.558 1.545-.263 0-.51-.03-.697-.082a2 2 0 0 1-.338-.12c-.292.517-.225.885-.225.9M8.58 1.86c0-.195.158-.36.353-.36h5.534c.195 0 .36.165.36.36v2.385H12.78v-.863c0-.42-.337-.75-.75-.75h-.803c-.412 0-.75.33-.75.75v.863H8.58zm8.1 2.385h-.352V1.86A1.86 1.86 0 0 0 14.468 0H8.932A1.86 1.86 0 0 0 7.08 1.86v2.385h-.36c-1.223 0-2.22.997-2.22 2.228V19.56c0 1.23.997 2.228 2.22 2.228h.165v1.237c0 .54.435.975.975.975h7.687a.98.98 0 0 0 .976-.975v-1.237h.157c1.23 0 2.227-.998 2.227-2.228V6.473c0-1.23-.997-2.228-2.227-2.228" clip-rule="evenodd"/></svg>