<svg width="24" height="24" viewBox="0 0 24 24" fill="none" xmlns="http://www.w3.org/2000/svg"><path fill-rule="evenodd" clip-rule="evenodd" d="M14.497 12.022c0-1.38-2.497-7.664-2.497-7.664s-2.498 6.285-2.498 7.664A2.501 2.501 0 0 0 12 14.52a2.501 2.501 0 0 0 2.497-2.498ZM5.325 12c0-2.64 1.56-5.04 3.982-6.105L8.7 4.523A8.177 8.177 0 0 0 3.825 12h1.5Zm13.357 0h1.5a8.19 8.19 0 0 0-4.875-7.477L14.7 5.895A6.683 6.683 0 0 1 18.682 12ZM3.308 17.88h17.384c.323-.473.608-.975.848-1.5H2.46c.24.525.525 1.027.848 1.5ZM0 12C0 5.385 5.385 0 12 0s12 5.385 12 12c0 1.935-.458 3.757-1.275 5.377v.008l-.045.09a.404.404 0 0 1-.053.097C20.61 21.397 16.605 24 12 24c-4.613 0-8.633-2.618-10.635-6.45a.562.562 0 0 1-.075-.15A11.872 11.872 0 0 1 0 12Zm12.997.023a.997.997 0 0 1-1.995.007c.015-.427.435-1.777.998-3.39.57 1.613.982 2.963.997 3.383Z" fill="currentColor"/></svg>