<svg width="24" height="24" viewBox="0 0 24 24" fill="none" xmlns="http://www.w3.org/2000/svg"><path fill-rule="evenodd" clip-rule="evenodd" d="M23.625 7.875c-.736.79-2.51 2.182-6 2.625-.875-1.75-3.48-4.418-7.875-4.875 1.267-1.05 3.218-1.875 6-1.875 5.122 0 7.148 2.617 7.875 4.125Zm-7.952 3.898c.347-.199.682-.39.827-.523-.075-.217-.36-.741-.757-1.254-1.04-1.346-2.873-3.104-7.005-3.239-.055-.004-.122-.005-.175-.006l-.068-.001a2.646 2.646 0 0 0-.163 0H8.25c-4.08 0-6.334 1.768-7.4 3.231-.323.442-.7.976-.85 1.269.644.6 3.038 2.115 8.288 2.115 3.795 0 5.977-.787 7.133-1.447l.251-.145Zm.827 1.232c-1.32.855-3.818 1.86-8.213 1.86-4.47 0-6.982-1.035-8.287-1.897v4.282c0 .011.004.022.007.033.004.012.008.023.008.035 0 .052.015.096.03.142.015.052.03.098.052.142a.05.05 0 0 0 .016.03c0 .007.007.023.014.03.015.023.046.067.09.12.165.218.593.667 1.41 1.126 1.193.66 3.248 1.342 6.623 1.342 3.367 0 5.423-.682 6.622-1.342.945-.526 1.366-1.035 1.478-1.209a.085.085 0 0 0 .014-.018l.003-.005.005-.007a.055.055 0 0 0 .015-.03c.005-.007.006-.014.008-.02a.048.048 0 0 1 .007-.017c.021-.04.034-.08.048-.119l.005-.015a.833.833 0 0 0 .026-.119l.005-.025c0-.014 0-.03.006-.037.008-.007.008-.023.008-.03v-4.252ZM24 14.25V9.405c-1.163.967-3.135 2.115-6.202 2.475l-.18.022c.007.03.007.053.007.083v5.182c4.695-.405 6.098-2.265 6.247-2.497a.132.132 0 0 0 .015-.034c.004-.011.008-.022.015-.034a.912.912 0 0 0 .08-.261l.003-.016c0-.016.004-.03.008-.043A.11.11 0 0 0 24 14.25Z" fill="currentColor"/></svg>