<svg xmlns="http://www.w3.org/2000/svg" width="24" height="24" fill="none" viewBox="0 0 24 24"><path fill="currentColor" fill-rule="evenodd" d="M6.75 12a.751.751 0 0 0 .521-1.29C5.968 9.452 5.25 7.778 5.25 6s.718-3.451 2.021-4.71A.75.75 0 1 0 6.23.21C4.63 1.757 3.75 3.813 3.75 6s.88 4.244 2.479 5.79a.75.75 0 0 0 .521.21m1.739-2.076a.745.745 0 0 0 1.06-.038.75.75 0 0 0-.038-1.06C8.697 8.068 8.251 7.064 8.251 6s.446-2.068 1.26-2.826a.749.749 0 1 0-1.022-1.098C7.368 3.122 6.75 4.515 6.75 6s.618 2.878 1.739 3.924M20.25 21a.75.75 0 0 1-.75-.75c0-.413.337-.75.75-.75s.75.337.75.75-.337.75-.75.75M18 21a.75.75 0 0 1-.75-.75c0-.413.337-.75.75-.75s.75.337.75.75-.337.75-.75.75m-2.25 0a.75.75 0 0 1-.75-.75c0-.413.338-.75.75-.75.413 0 .75.337.75.75s-.337.75-.75.75M12.015 6.75q-.006 0-.008-.004-.001-.003-.007-.003t-.008.003-.007.004A.76.76 0 0 1 11.25 6c0-.412.338-.75.75-.75s.75.338.75.75a.76.76 0 0 1-.735.75M4.5 20.25c-.825 0-1.5-.675-1.5-1.5s.675-1.5 1.5-1.5 1.5.675 1.5 1.5-.675 1.5-1.5 1.5M22.553 15H12.75V8.115c.87-.315 1.5-1.14 1.5-2.115A2.257 2.257 0 0 0 12 3.75 2.257 2.257 0 0 0 9.75 6c0 .975.63 1.8 1.5 2.115V15H1.448C.652 15 0 15.652 0 16.448v4.604c0 .796.653 1.448 1.448 1.448h.802v.75c0 .413.337.75.75.75s.75-.337.75-.75v-.75h16.5v.75c0 .413.337.75.75.75s.75-.337.75-.75v-.75h.802c.796 0 1.448-.652 1.448-1.448v-4.604c0-.796-.652-1.448-1.448-1.448M15 10.125a.75.75 0 0 1-.51-1.298c.813-.759 1.26-1.763 1.26-2.827s-.447-2.068-1.261-2.826a.75.75 0 1 1 1.022-1.098C16.633 3.121 17.25 4.515 17.25 6s-.617 2.878-1.739 3.924a.75.75 0 0 1-.511.2m1.729.586C18.032 9.45 18.75 7.777 18.75 6s-.718-3.451-2.021-4.71A.75.75 0 0 1 17.77.21c1.6 1.547 2.48 3.603 2.48 5.79s-.88 4.244-2.479 5.79a.75.75 0 1 1-1.042-1.08" clip-rule="evenodd"/></svg>