<svg xmlns="http://www.w3.org/2000/svg" width="24" height="24" fill="none" viewBox="0 0 24 24"><path fill="currentColor" fill-rule="evenodd" d="M23.246 3.302h.02a.75.75 0 0 1-.016 1.501h-.043c-.203 0-1.49.022-3.094.428a17.3 17.3 0 0 1-1.888 3.29c1.655-.318 3.266-.277 3.554-.266a.75.75 0 0 1 .72.779c-.016.413-.364.756-.778.72-1.158-.045-4.42.09-5.59 1.214l-2.423 2.33a.75.75 0 0 1-1.04-1.082l2.417-2.324a17.7 17.7 0 0 0 3.005-3.965 9.7 9.7 0 0 0-2.462 1.559q-.016.013-.034.021l-.024.014-.084.095q-.069.083-.147.163l-3.565 3.564a.75.75 0 1 1-1.061-1.061l3.565-3.564c2.327-2.329 1.5-5.75 1.49-5.785a.75.75 0 1 1 1.456-.366c.03.117.49 2.032-.114 4.163a13 13 0 0 1 1.882-.748c.408-1.091.508-1.794.511-1.821V2.16a.75.75 0 0 1 1.49.18c-.005.054-.063.499-.27 1.215a14 14 0 0 1 2.523-.253m-8.47 12.238a.74.74 0 0 0 .217-.533.747.747 0 0 0-1.275-.532c-.203.195-.608.233-1.103.105-.645-.173-1.365-.622-1.965-1.23-.592-.585-1.027-1.313-1.2-1.987-.142-.556-.067-.938.075-1.08a.754.754 0 0 0 0-1.058.756.756 0 0 0-1.065 0L.585 17.107c-1.117 1.11-.6 3.188 1.26 5.048C3.053 23.355 4.35 24 5.415 24c.578 0 1.088-.188 1.478-.585z" clip-rule="evenodd"/></svg>