<svg width="27" height="24" viewBox="0 0 27 24" fill="none" xmlns="http://www.w3.org/2000/svg">
<path d="M10.5425 12.9023L8.37765 9.67891C8.20989 9.43096 7.84243 9.43096 7.67467 9.67891L1.07626 20.6288C0.884535 20.9088 1.09223 21.2927 1.42775 21.2927H24.5781C24.9136 21.2927 25.1213 20.9168 24.9296 20.6368L14.7764 4.19196C14.6086 3.93601 14.2411 3.93601 14.0734 4.19196L9.63183 11.5426" fill="black"/>
<path d="M10.5425 12.9023L8.37765 9.67891C8.20989 9.43096 7.84243 9.43096 7.67467 9.67891L1.07626 20.6288C0.884535 20.9088 1.09223 21.2927 1.42775 21.2927H24.5781C24.9136 21.2927 25.1213 20.9168 24.9296 20.6368L14.7764 4.19196C14.6086 3.93601 14.2411 3.93601 14.0734 4.19196L9.63183 11.5426" stroke="black" stroke-width="2" stroke-miterlimit="10" stroke-linecap="round"/>
<path d="M13.0029 12V14.7435" stroke="black" stroke-width="2" stroke-miterlimit="10" stroke-linecap="round"/>
<path d="M11.5621 11.0363L14.5338 12.4121C14.8374 12.548 14.8453 12.972 14.5578 13.1239L11.0029 14.9876V11.3963C11.0029 11.1083 11.2985 10.9163 11.5621 11.0363Z" stroke="black" stroke-width="2" stroke-miterlimit="10" stroke-linecap="round"/>
</svg>
