<svg xmlns="http://www.w3.org/2000/svg" width="24" height="24" fill="none" viewBox="0 0 24 24"><path fill="currentColor" fill-rule="evenodd" d="m19.635 14.157-5.663-4.958a.74.74 0 0 0-.495-.187h-2.991a.74.74 0 0 0-.563.255c-.75.847-1.485 1.275-2.198 1.216-.644-.039-1.177-.435-1.5-.759l2.43-3.075 3.33-.637 7.245 1.38 1.598 6.367zM23.67 3.132a.73.73 0 0 0-.698-.075l-3.78 1.522a.744.744 0 0 0-.449.87l.082.338-6.705-1.268a.6.6 0 0 0-.277 0l-3.735.705c-.016 0-.038.009-.052.009l-2.918.554.082-.338a.75.75 0 0 0-.442-.87L1.035 3.057a.76.76 0 0 0-.704.075.76.76 0 0 0-.331.622v10.5c0 .42.338.75.75.75h1.23l6.682 5.535c.375.3.826.458 1.29.458q.111.002.21-.008a2.03 2.03 0 0 0 1.665-1.207l.218.172c.42.345.96.51 1.492.45a2 2 0 0 0 1.38-.742 2 2 0 0 0 .308-.525c.277.142.585.217.9.217.067 0 .143 0 .21-.007a2 2 0 0 0 1.38-.743 2 2 0 0 0 .308-.525c.278.15.585.218.9.218.068 0 .142 0 .21-.008a2 2 0 0 0 1.372-.742c.345-.42.51-.953.45-1.493a2.1 2.1 0 0 0-.187-.69l1.072-.36h1.41c.413 0 .75-.33.75-.75v-10.5c0-.247-.12-.48-.33-.622" clip-rule="evenodd"/></svg>