<svg xmlns="http://www.w3.org/2000/svg" width="24" height="24" fill="none" viewBox="0 0 24 24"><path fill="currentColor" fill-rule="evenodd" d="M21.404 5.86c-1.824-1.43-4.574-1.55-8.173-.356.154-.63.377-1.49.57-2.02.31-.848 1.005-2.17 1.09-2.33A.786.786 0 0 0 14.56.09a.8.8 0 0 0-1.072.335c-.175.334-.736 1.418-1.08 2.28C10.4-.7 7.008.081 6.972.09a.77.77 0 0 0-.481.346.78.78 0 0 0-.1.76c1.43 3.549 4.167 3.82 5.345 3.761-.066.264-.123.506-.167.695-3.811-1.348-6.702-1.278-8.594.208C1.126 7.312.395 10.026.912 13.503q.013.069.023.136h.761l2.721-1.992a.84.84 0 0 1 1.307.462l.41 1.538 1.62-5.218a.84.84 0 0 1 1.638.172l.686 7.504 1.07-3.777a.81.81 0 0 1 .823-.61.84.84 0 0 1 .8.64l.3 1.216a.84.84 0 0 1 .473-.183l3.956-.25c.456-.015.862.322.892.785a.84.84 0 0 1-.786.891l-3.33.211-.45 1.988a.84.84 0 0 1-.812.654c-.403-.018-.73-.26-.823-.64l-.292-1.19-1.438 5.07a.84.84 0 0 1-1.643-.152l-.714-7.794-1.23 3.965c-.11.358-.458.571-.819.59a.84.84 0 0 1-.795-.623l-.842-3.168-1.95 1.429a.84.84 0 0 1-.496.162h-.68c.833 3.147 2.63 6.459 5.274 7.903a6.14 6.14 0 0 0 2.98.779q1.287 0 2.643-.537c1.982.784 3.896.701 5.623-.242 3.163-1.728 5.12-6.127 5.654-9.719.517-3.477-.215-6.19-2.062-7.642" clip-rule="evenodd"/></svg>