<svg width="24" height="24" viewBox="0 0 24 24" fill="none" xmlns="http://www.w3.org/2000/svg">
<path d="M12 0C9.62663 0 7.30655 0.703788 5.33317 2.02236C3.35978 3.34094 1.8217 5.21509 0.913451 7.4078C0.00519937 9.60051 -0.232441 12.0133 0.230582 14.3411C0.693605 16.6689 1.8365 18.8071 3.51473 20.4853C5.19296 22.1635 7.33115 23.3064 9.65892 23.7694C11.9867 24.2324 14.3995 23.9948 16.5922 23.0866C18.7849 22.1783 20.6591 20.6402 21.9776 18.6668C23.2962 16.6935 24 14.3734 24 12C24 8.8174 22.7357 5.76516 20.4853 3.51472C18.2348 1.26428 15.1826 0 12 0V0ZM18.75 19.5C18.75 19.6989 18.671 19.8897 18.5303 20.0303C18.3897 20.171 18.1989 20.25 18 20.25C17.8011 20.25 17.6103 20.171 17.4697 20.0303C17.329 19.8897 17.25 19.6989 17.25 19.5V19.29C15.6996 20.4142 13.8297 21.0118 11.9147 20.9951C9.99968 20.9783 8.14048 20.3481 6.61003 19.1969C5.07958 18.0457 3.95849 16.4342 3.41134 14.5989C2.86419 12.7636 2.9198 10.8013 3.57001 9C3.59781 8.89925 3.64636 8.80542 3.71255 8.72454C3.77874 8.64365 3.8611 8.57749 3.95436 8.5303C4.04761 8.48311 4.1497 8.45593 4.25408 8.45051C4.35845 8.44509 4.46281 8.46154 4.56045 8.49881C4.6581 8.53609 4.74687 8.59336 4.82109 8.66695C4.8953 8.74054 4.95331 8.82883 4.9914 8.92616C5.0295 9.02349 5.04682 9.1277 5.04228 9.23212C5.03773 9.33654 5.01141 9.43885 4.96501 9.5325C4.47664 10.8672 4.38532 12.3149 4.70209 13.7004C5.01886 15.0859 5.73016 16.3501 6.75001 17.34C8.02807 18.5971 9.71415 19.3548 11.5028 19.4759C13.2914 19.597 15.0642 19.0734 16.5 18H15.75C15.5511 18 15.3603 17.921 15.2197 17.7803C15.079 17.6397 15 17.4489 15 17.25C15 17.0511 15.079 16.8603 15.2197 16.7197C15.3603 16.579 15.5511 16.5 15.75 16.5H18C18.1989 16.5 18.3897 16.579 18.5303 16.7197C18.671 16.8603 18.75 17.0511 18.75 17.25V19.5ZM9.8175 8.5575C9.76977 8.46692 9.74109 8.36753 9.73323 8.26545C9.72537 8.16336 9.73849 8.06075 9.77178 7.96393C9.80508 7.86711 9.85785 7.77814 9.92684 7.70248C9.99583 7.62683 10.0796 7.5661 10.1729 7.52405C10.2663 7.48199 10.3672 7.45949 10.4696 7.45793C10.572 7.45638 10.6736 7.4758 10.7682 7.515C10.8628 7.55421 10.9483 7.61236 11.0196 7.68588C11.0908 7.7594 11.1463 7.84674 11.1825 7.9425C11.5231 8.62363 11.7004 9.37471 11.7004 10.1363C11.7004 10.8978 11.5231 11.6489 11.1825 12.33C10.9265 12.8074 10.7925 13.3408 10.7925 13.8825C10.7925 14.4242 10.9265 14.9576 11.1825 15.435C11.2241 15.5246 11.2476 15.6215 11.2516 15.7202C11.2557 15.8189 11.2402 15.9174 11.206 16.0101C11.1719 16.1028 11.1197 16.1878 11.0526 16.2603C10.9855 16.3328 10.9048 16.3913 10.815 16.4325C10.7161 16.4776 10.6087 16.5006 10.5 16.5C10.3566 16.5004 10.216 16.4596 10.095 16.3825C9.97408 16.3054 9.87775 16.1952 9.8175 16.065C9.47967 15.4018 9.30356 14.668 9.30356 13.9237C9.30356 13.1795 9.47967 12.4457 9.8175 11.7825C10.0802 11.2856 10.2175 10.7321 10.2175 10.17C10.2175 9.60794 10.0802 9.05439 9.8175 8.5575ZM12.8175 8.5575C12.7698 8.46692 12.7411 8.36753 12.7332 8.26545C12.7254 8.16336 12.7385 8.06075 12.7718 7.96393C12.8051 7.86711 12.8579 7.77814 12.9268 7.70248C12.9958 7.62683 13.0796 7.5661 13.1729 7.52405C13.2663 7.48199 13.3672 7.45949 13.4696 7.45793C13.572 7.45638 13.6736 7.4758 13.7682 7.515C13.8628 7.55421 13.9483 7.61236 14.0196 7.68588C14.0908 7.7594 14.1463 7.84674 14.1825 7.9425C14.5231 8.62363 14.7004 9.37471 14.7004 10.1363C14.7004 10.8978 14.5231 11.6489 14.1825 12.33C13.9265 12.8074 13.7925 13.3408 13.7925 13.8825C13.7925 14.4242 13.9265 14.9576 14.1825 15.435C14.2241 15.5246 14.2476 15.6215 14.2516 15.7202C14.2557 15.8189 14.2402 15.9174 14.206 16.0101C14.1719 16.1028 14.1197 16.1878 14.0526 16.2603C13.9855 16.3328 13.9048 16.3913 13.815 16.4325C13.7161 16.4776 13.6087 16.5006 13.5 16.5C13.3566 16.5004 13.216 16.4596 13.095 16.3825C12.9741 16.3054 12.8778 16.1952 12.8175 16.065C12.4797 15.4018 12.3036 14.668 12.3036 13.9237C12.3036 13.1795 12.4797 12.4457 12.8175 11.7825C13.0802 11.2856 13.2175 10.7321 13.2175 10.17C13.2175 9.60794 13.0802 9.05439 12.8175 8.5575ZM20.4525 15C20.3989 15.1436 20.3026 15.2672 20.1765 15.3544C20.0505 15.4415 19.9008 15.488 19.7475 15.4875C19.6573 15.489 19.5677 15.4711 19.485 15.435C19.2995 15.3658 19.1488 15.2261 19.0659 15.0462C18.983 14.8664 18.9746 14.661 19.0425 14.475C19.5345 13.1394 19.6307 11.6902 19.3194 10.3013C19.0081 8.91236 18.3026 7.64281 17.2875 6.645C16.0053 5.38027 14.3109 4.61914 12.5138 4.50071C10.7167 4.38228 8.93706 4.91446 7.50001 6H8.25001C8.44892 6 8.63968 6.07902 8.78034 6.21967C8.92099 6.36032 9.00001 6.55109 9.00001 6.75C9.00001 6.94891 8.92099 7.13968 8.78034 7.28033C8.63968 7.42098 8.44892 7.5 8.25001 7.5H6.00001C5.80109 7.5 5.61033 7.42098 5.46968 7.28033C5.32902 7.13968 5.25001 6.94891 5.25001 6.75V4.5C5.25001 4.30109 5.32902 4.11032 5.46968 3.96967C5.61033 3.82902 5.80109 3.75 6.00001 3.75C6.19892 3.75 6.38968 3.82902 6.53034 3.96967C6.67099 4.11032 6.75001 4.30109 6.75001 4.5V4.71C8.47511 3.4622 10.5867 2.86637 12.7096 3.02841C14.8325 3.19044 16.8293 4.09983 18.345 5.595C19.562 6.79496 20.4079 8.31989 20.7816 9.98763C21.1553 11.6554 21.0411 13.3954 20.4525 15Z" fill="black"/>
</svg>
