<svg xmlns="http://www.w3.org/2000/svg" width="24" height="24" fill="none" viewBox="0 0 24 24"><path fill="currentColor" d="M12 0a12 12 0 1 0 0 24 12 12 0 0 0 0-24m6.75 19.5a.75.75 0 1 1-1.5 0v-.21A8.956 8.956 0 0 1 3.57 9a.75.75 0 1 1 1.395.533A7.36 7.36 0 0 0 6.75 17.34a7.5 7.5 0 0 0 9.75.66h-.75a.75.75 0 1 1 0-1.5H18a.75.75 0 0 1 .75.75zM9.818 8.558a.75.75 0 1 1 1.364-.615 4.9 4.9 0 0 1 0 4.387 3.29 3.29 0 0 0 0 3.105.75.75 0 0 1-.682 1.065.75.75 0 0 1-.682-.435 4.72 4.72 0 0 1 0-4.283 3.45 3.45 0 0 0 0-3.225m3 0a.751.751 0 1 1 1.364-.615 4.9 4.9 0 0 1 0 4.387 3.29 3.29 0 0 0 0 3.105.75.75 0 0 1-.682 1.065.75.75 0 0 1-.682-.435 4.72 4.72 0 0 1 0-4.283 3.45 3.45 0 0 0 0-3.225M20.453 15a.75.75 0 0 1-.706.488.6.6 0 0 1-.262-.053.75.75 0 0 1-.442-.96 7.4 7.4 0 0 0-1.755-7.83A7.5 7.5 0 0 0 7.5 6h.75a.75.75 0 0 1 0 1.5H6a.75.75 0 0 1-.75-.75V4.5a.75.75 0 1 1 1.5 0v.21a9 9 0 0 1 11.595.885A8.9 8.9 0 0 1 20.453 15"/></svg>