<svg xmlns="http://www.w3.org/2000/svg" width="24" height="24" fill="none" viewBox="0 0 24 24"><path fill="currentColor" fill-rule="evenodd" d="M10.923 16.887a1.058 1.058 0 1 1 2.111.126 1.058 1.058 0 0 1-2.112-.126m-.678-7.556q-.052.226-.076.456c0 .094-.043.12-.135.117H8.258c-.053 0-.096 0-.091-.075a4.55 4.55 0 0 1 .374-1.774c.327-.7.889-1.263 1.589-1.59a4.65 4.65 0 0 1 3.624-.18A2.99 2.99 0 0 1 15.61 8.02c.198.52.267 1.08.204 1.632a2.73 2.73 0 0 1-.877 1.77c-.385.373-.797.72-1.2 1.069-.317.235-.565.55-.72.912a3 3 0 0 0-.16.878c0 .108-.016.214-.02.32 0 .054-.02.08-.08.08h-1.591c-.05 0-.076-.013-.074-.069a6.5 6.5 0 0 1 .157-1.546c.157-.527.46-1 .875-1.362.354-.33.708-.66 1.046-1.009a2.04 2.04 0 0 0 .556-1.05c.132-.676-.122-1.174-.767-1.41a2.46 2.46 0 0 0-1.92.073 1.46 1.46 0 0 0-.795 1.024M24 12c0-6.628-5.374-12-12-12S0 5.372 0 12c0 6.627 5.373 12 12 12a12 12 0 0 0 12-12" clip-rule="evenodd"/></svg>