<svg xmlns="http://www.w3.org/2000/svg" width="24" height="24" fill="none" viewBox="0 0 24 24"><path fill="currentColor" fill-rule="evenodd" d="M8.587 3.084a.749.749 0 1 0 1.426-.461L9.335.519A.75.75 0 0 0 8.39.037a.75.75 0 0 0-.482.943zM23.852 13.25c-.32-.579-.928-.779-1.581-.555l-1.807.63 1.991-5.23a1.2 1.2 0 0 0-.024-.912 1.192 1.192 0 0 0-2.199.063l.716-1.876a1.17 1.17 0 0 0-.027-.91 1.18 1.18 0 0 0-.661-.625 1.193 1.193 0 0 0-1.535.689l-.464 1.227a1.22 1.22 0 0 0-.027-.913 1.17 1.17 0 0 0-.661-.626 1.19 1.19 0 0 0-1.535.689l-.787 2.066a1.145 1.145 0 0 0-.665-1.48l-.075-.031a1.15 1.15 0 0 0-1.483.665L11.64 9.772l-.674-1.999c-.2-.601-.853-.92-1.455-.72l-.08.027c-.596.206-.92.85-.72 1.453L8.009 6.44a1.19 1.19 0 0 0-1.507-.748 1.18 1.18 0 0 0-.684.602 1.2 1.2 0 0 0-.063.905l-.417-1.244a1.19 1.19 0 0 0-1.507-.743 1.16 1.16 0 0 0-.685.598c-.138.271-.17.594-.063.909l.64 1.897a1.189 1.189 0 0 0-2.253.767l2.057 6.102-1.722-1.188a1.19 1.19 0 0 0-1.633.405c-.19.31-.216.677-.107.996.06.18.166.35.31.483l4.227 3.592c1.404 1.145 3.29 1.578 5.068.976a5.2 5.2 0 0 0 2.844-2.353c.389.307.83.555 1.314.74 1.75.669 3.651.31 5.1-.779l4.665-3.636a1.14 1.14 0 0 0 .33-.476c.119-.314.107-.68-.07-.995m-9.484 7.18a.75.75 0 0 1 .944.484l.68 2.103a.749.749 0 1 1-1.427.462l-.679-2.104a.75.75 0 0 1 .482-.944M5.182 3.594l.976.622a.75.75 0 1 0 .807-1.264l-.976-.622a.751.751 0 0 0-.807 1.264m12.83 16.821.976.623a.75.75 0 1 1-.807 1.265l-.976-.624a.75.75 0 1 1 .807-1.264M11.81 2.537a.75.75 0 0 0 .965-.44l.406-1.084a.75.75 0 0 0-1.405-.526l-.405 1.085a.75.75 0 0 0 .44.965M11.214 21.9a.75.75 0 0 1 1.405.526l-.406 1.084a.75.75 0 1 1-1.405-.525z" clip-rule="evenodd"/></svg>