<svg width="24" height="24" viewBox="0 0 24 24" fill="none" xmlns="http://www.w3.org/2000/svg">
<path fill-rule="evenodd" clip-rule="evenodd" d="M23.9995 21.7601C23.9995 22.171 23.662 22.507 23.2495 22.507H14.1147C13.7997 23.3725 12.9747 23.9995 11.9998 23.9995C11.0248 23.9995 10.1998 23.3725 9.8848 22.507H0.749985C0.337493 22.507 0 22.171 0 21.7601C0 21.3498 0.337493 21.0138 0.749985 21.0138H9.8848C10.1173 20.3793 10.6123 19.8866 11.2498 19.6549V18.0274H4.49991C4.08742 18.0274 3.74992 17.6921 3.74992 17.2811V9.81655H2.24995C2.03246 9.81655 1.82996 9.72655 1.67997 9.55556C1.40997 9.24206 1.44747 8.77182 1.76246 8.50258L11.4748 0.179996C11.7523 -0.0599988 12.1723 -0.0599988 12.4497 0.179996L22.237 8.50258C22.552 8.77182 22.5895 9.24206 22.3195 9.55556C22.1695 9.72655 21.9596 9.81655 21.7496 9.81655H20.2496V17.2811C20.2496 17.6921 19.9121 18.0274 19.4996 18.0274H12.7497V19.6549C13.3872 19.8866 13.8822 20.3793 14.1147 21.0138H23.2495C23.662 21.0138 23.9995 21.3498 23.9995 21.7601Z" fill="black"/>
</svg>
