<svg xmlns="http://www.w3.org/2000/svg" width="24" height="24" fill="none" viewBox="0 0 24 24"><path fill="currentColor" d="M11.853.152a1.3 1.3 0 0 1 1.221 0L23.23 5.496c.434.225.703.674.704 1.161V9.14c0 .726-.593 1.311-1.312 1.311v.007h-.944v8.664h.952c.727 0 1.311.592 1.311 1.312v2.256c0 .726-.592 1.31-1.311 1.311H2.312A1.313 1.313 0 0 1 1 22.689v-2.256c0-.727.592-1.312 1.312-1.312h.944v-8.664h-.944A1.313 1.313 0 0 1 1 9.146V6.665c0-.487.27-.937.704-1.162zM7.58 19.122h2.72v-8.665H7.58zm7.045 0h2.451v-8.665h-2.451zm-9.878-.009h1.327v-8.656H4.747zm7.053 0h1.326v-8.656H11.8zm6.775 0h1.604v-8.656h-1.604z"/></svg>