<svg width="24" height="24" viewBox="0 0 24 24" fill="none" xmlns="http://www.w3.org/2000/svg">
<path fill-rule="evenodd" clip-rule="evenodd" d="M17.0761 10.457H14.6253V19.1208H17.0761V10.457ZM7.58034 10.457H10.3009V19.1208H7.58034V10.457ZM3.25591 10.457H2.31157C1.58459 10.457 1 9.86488 1 9.14539V6.66465C1 6.17749 1.26981 5.72781 1.7045 5.50297L11.8523 0.151767C12.2345 -0.0505891 12.6917 -0.0505891 13.0739 0.151767L23.2292 5.49548C23.6639 5.72032 23.9337 6.17 23.9337 6.65715V9.13789C23.9337 9.86488 23.3417 10.4495 22.6222 10.4495V10.457H21.6778V19.1208H22.6297C23.3566 19.1208 23.9412 19.7129 23.9412 20.4324V22.6883C23.9412 23.4153 23.3491 23.9999 22.6297 23.9999H22.6222H2.31157C1.58459 23.9999 1 23.4078 1 22.6883V20.4324C1 19.7054 1.59208 19.1208 2.31157 19.1208H3.25591V10.457ZM20.1789 19.1134H18.575V10.4571H20.1789V19.1134ZM11.7998 19.1134H13.1264V10.4571H11.7998V19.1134ZM6.07391 19.1134H4.74735V10.4571H6.07391V19.1134Z" fill="black"/>
</svg>
