<svg xmlns="http://www.w3.org/2000/svg" width="25" height="24" fill="none" viewBox="0 0 25 24"><path fill="currentColor" d="M23.68 11.385a.75.75 0 0 0-.683-.09l-7.245 2.633V12a.75.75 0 0 0-1.005-.705l-7.995 2.91-.368-4.455h-5.25L.002 23.19a.8.8 0 0 0 .195.57.75.75 0 0 0 .555.24h22.5a.75.75 0 0 0 .75-.75V12a.75.75 0 0 0-.323-.615M12.001 21h-2.25a.75.75 0 1 1 0-1.5h2.25a.75.75 0 0 1 0 1.5m0-3h-2.25a.75.75 0 1 1 0-1.5h2.25a.75.75 0 0 1 0 1.5m8.25 3h-2.25a.75.75 0 1 1 0-1.5h2.25a.75.75 0 0 1 0 1.5m0-3h-2.25a.75.75 0 1 1 0-1.5h2.25a.75.75 0 0 1 0 1.5M6.002 5.19a.75.75 0 0 0-.75-.69h-3a.75.75 0 0 0-.75.69l-.255 3.06h5.01zM2.934 3.105a.75.75 0 0 1-.75-.75A2.363 2.363 0 0 1 4.539 0h7.463a.75.75 0 0 1 0 1.5H4.539a.855.855 0 0 0-.855.855.75.75 0 0 1-.75.75"/><path fill="currentColor" d="M15.002 3.75h-9.75a.75.75 0 1 1 0-1.5h9.75a.75.75 0 0 1 0 1.5"/></svg>