<svg xmlns="http://www.w3.org/2000/svg" width="24" height="24" fill="none" viewBox="0 0 24 24"><path fill="currentColor" fill-rule="evenodd" d="M5.912 6.664c.128.547.669.892 1.215.772a1.01 1.01 0 0 0 .766-1.215 1.003 1.003 0 0 0-1.208-.765c-.547.12-.893.66-.773 1.208m12.534-4.35 1.551 1.005a.38.38 0 0 1 .113.51l-.983 1.567a.37.37 0 0 1-.232.165l-1.012.226-.916.937a.39.39 0 0 1-.396.09l-1.096-.42-.818.84a.39.39 0 0 1-.405.09l-1.215-.466-1.32.293a3.97 3.97 0 0 1-3.021 2.986A3.98 3.98 0 0 1 5.68 9.61a3.95 3.95 0 0 1-1.748-2.505 4 4 0 0 1 .525-3.015 3.93 3.93 0 0 1 2.505-1.748 4.01 4.01 0 0 1 4.065 1.5L18.16 2.26a.38.38 0 0 1 .286.052m-6.11 21.374 10.516-5.122a2.045 2.045 0 0 0-1.793-3.674l-2.024.99.002.02a3 3 0 0 1-2.986 3.285H9.104a.75.75 0 0 1-.75-.749c0-.412.338-.75.75-.75h6.945a1.5 1.5 0 0 0 1.5-1.5 1.5 1.5 0 0 0-1.102-1.447 1.3 1.3 0 0 0-.248-.037h-.03c-.038-.016-.075-.016-.12-.016h-4.575c-.457-.847-1.695-2.377-4.763-2.377H.75a.75.75 0 0 0-.75.75v6.458c0 .33.21.622.524.72l11.25 3.495q.015.009.039.007a.5.5 0 0 0 .187.03.74.74 0 0 0 .33-.075z" clip-rule="evenodd"/></svg>