<svg xmlns="http://www.w3.org/2000/svg" width="24" height="24" fill="none" viewBox="0 0 24 24"><path fill="currentColor" fill-rule="evenodd" d="M13.91 17.318a.75.75 0 0 1-.651-.378l-1.131-1.982a.75.75 0 0 1 .272-1.02l.666-.39-.897-1.572-9.924 5.82a1.48 1.48 0 0 1-1.132.155 1.48 1.48 0 0 1-.91-.692 1.5 1.5 0 0 1 .534-2.045l9.95-5.834-1.027-1.8-.652.381a.76.76 0 0 1-.573.077.75.75 0 0 1-.456-.353L6.847 5.703a.75.75 0 0 1 .272-1.02l7.84-4.58a.75.75 0 0 1 1.029.276l1.132 1.983a.75.75 0 0 1-.273 1.019l-.665.39 3.406 5.968.652-.381a.75.75 0 0 1 1.03.276l1.131 1.983a.75.75 0 0 1-.272 1.019l-7.84 4.58a.75.75 0 0 1-.379.102M13.5 21h9.75a.75.75 0 0 1 .75.75v1.5a.75.75 0 0 1-.75.75H13.5a.75.75 0 0 1-.75-.75v-1.5a.75.75 0 0 1 .75-.75" clip-rule="evenodd"/></svg>