<svg xmlns="http://www.w3.org/2000/svg" width="24" height="24" fill="none" viewBox="0 0 24 24"><path fill="currentColor" d="M4.599 15.923a.76.76 0 0 0-.953 0l-3.368 2.76A.75.75 0 0 0 0 19.26v3.99c0 .413.338.75.75.75h6.752c.413 0 .75-.337.75-.75v-3.99a.73.73 0 0 0-.277-.577zM8.628 8.25h6.752c.412 0 .75-.337.75-.75V3.51a.73.73 0 0 0-.277-.577L12.476.173a.76.76 0 0 0-.952 0l-3.376 2.76a.75.75 0 0 0-.278.577V7.5c0 .413.338.75.75.75zM23.73 18.683l-3.376-2.76a.76.76 0 0 0-.953 0l-3.376 2.76a.75.75 0 0 0-.278.577v3.99c0 .413.338.75.75.75h6.753c.412 0 .75-.337.75-.75v-3.99a.73.73 0 0 0-.278-.577zm-8.35-3.578-2.626-1.53v-3.067a.75.75 0 0 0-.75-.75.75.75 0 0 0-.75.75v3.067l-2.634 1.53a.75.75 0 0 0-.27 1.028c.143.24.39.375.653.375.127 0 .255-.03.375-.105l2.626-1.53 2.618 1.53c.12.067.248.105.375.105.255 0 .51-.135.645-.375a.75.75 0 0 0-.27-1.028z"/></svg>