<svg width="24" height="24" viewBox="0 0 24 24" fill="none" xmlns="http://www.w3.org/2000/svg"><path d="M23.992 8.075a.752.752 0 0 0-.374-.652L21.346 6.11V3.944c0-.818-.667-1.485-1.485-1.485h-4.063L12.424.135a.744.744 0 0 0-.855 0L8.203 2.467H4.319c-.817 0-1.485.667-1.485 1.484v2.055L.375 7.423a.734.734 0 0 0-.375.66c0 .037.008.067.015.097 0 .037-.015.075-.015.112V21.78a1.86 1.86 0 0 0 1.86 1.86h20.28c1.028 0 1.86-.832 1.86-1.86V8.3a.578.578 0 0 0-.015-.113c0-.037.015-.075.015-.112h-.008ZM19.846 3.95v5.886l-7.85 7.13-7.662-6.965-.015-6.043 15.527-.015v.007Z" fill="currentColor"/><path d="m5.938 9.207.488.352.525-.705.517.705.495-.352-.525-.712.832-.278-.187-.577-.833.277V7.04h-.607v.877l-.832-.27-.195.578.84.27-.518.712Zm3.254 0 .495.352.525-.705.517.705.488-.352-.518-.712.833-.278-.188-.577-.832.277V7.04h-.607v.877l-.84-.27-.188.578.84.27-.525.712Zm3.254 0 .495.352.525-.705.517.705.488-.352-.518-.712.833-.278-.188-.577-.832.277V7.04h-.607v.877l-.84-.27-.188.578.84.27-.525.712Zm3.262 0 .487.352.525-.705.517.705.495-.352-.517-.712.825-.278-.188-.577-.832.277V7.04h-.607v.877l-.833-.27-.195.578.84.27-.517.712Z" fill="currentColor"/></svg>