<svg xmlns="http://www.w3.org/2000/svg" width="25" height="24" fill="none" viewBox="0 0 25 24"><path fill="currentColor" fill-rule="evenodd" d="M12.157 8.377c.413 0 .75.33.75.75 0 .413-.337.75-.75.75h-5.07q-.09.608 0 1.215h5.07c.413 0 .75.338.75.75 0 .413-.337.75-.75.75H7.62c.172.285.367.563.615.81a4.12 4.12 0 0 0 4.192 1.005 4 4 0 0 0 1.02-.51.75.75 0 0 1 1.043.203.74.74 0 0 1-.203 1.035 5.6 5.6 0 0 1-1.402.697 5.6 5.6 0 0 1-1.748.279 5.63 5.63 0 0 1-5.204-3.519h-1.65a.747.747 0 0 1-.75-.75c0-.412.33-.75.75-.75h1.282a5.5 5.5 0 0 1 0-1.215H4.283a.747.747 0 0 1-.75-.75c0-.42.33-.75.75-.75h1.65a5.624 5.624 0 0 1 8.355-2.557.75.75 0 0 1 .202 1.042.75.75 0 0 1-1.043.203 4.115 4.115 0 0 0-5.212.502 4.2 4.2 0 0 0-.615.81zM23.67 22.081l-5.025-5.026a10.46 10.46 0 0 0 2.325-6.57C20.97 4.704 16.267 0 10.485 0 4.702 0 0 4.703 0 10.486 0 16.268 4.702 20.97 10.485 20.97c2.482 0 4.77-.878 6.57-2.325l5.025 5.026a1.14 1.14 0 0 0 .795.329 1.14 1.14 0 0 0 .795-.33 1.12 1.12 0 0 0 0-1.59" clip-rule="evenodd"/></svg>