<svg xmlns="http://www.w3.org/2000/svg" width="25" height="24" fill="none" viewBox="0 0 25 24"><path fill="currentColor" d="M11.997 9.182c-4.073 0-7.386 3.321-7.386 7.409S7.924 24 11.997 24c4.072 0 7.386-3.322 7.386-7.41 0-4.087-3.314-7.408-7.386-7.408m3.411 7.018-1.383 1.353.324 1.908a.446.446 0 0 1-.654.474l-1.698-.902-1.698.902a.43.43 0 0 1-.473-.038.45.45 0 0 1-.181-.443l.323-1.909-1.375-1.352a.45.45 0 0 1-.113-.466.46.46 0 0 1 .368-.308l1.901-.278.85-1.736a.47.47 0 0 1 .405-.255c.173 0 .33.097.406.248l.85 1.735 1.9.278a.45.45 0 0 1 .248.767zM7.068.549A1.15 1.15 0 0 0 6.09 0H1.13C.72 0 .359.21.156.556s-.21.766 0 1.127l4.613 8.108c.136.24.369.405.647.443.045 0 .09.007.135.007a.88.88 0 0 0 .616-.248 7.3 7.3 0 0 1 3.825-1.886.896.896 0 0 0 .638-1.33zm16.816.007A1.13 1.13 0 0 0 22.907 0H17.94c-.398 0-.774.21-.984.571l-3.517 6.184a.95.95 0 0 0-.03.864.94.94 0 0 0 .691.518c1.406.24 2.698.88 3.742 1.849.18.165.406.255.64.255.044 0 .097 0 .142-.007a.92.92 0 0 0 .669-.466l4.59-8.07a1.14 1.14 0 0 0-.007-1.127z"/></svg>