<svg width="24" height="24" viewBox="0 0 24 24" fill="none" xmlns="http://www.w3.org/2000/svg"><path d="M19.38 4.07c-.15 0-.3.03-.442.046A10.526 10.526 0 0 0 12 1.5c-1.29 0-2.535.232-3.713.682a10.68 10.68 0 0 0-3.225 1.934C4.92 4.1 4.77 4.07 4.62 4.07A4.625 4.625 0 0 0 0 8.687a4.596 4.596 0 0 0 1.11 2.99c.067-1.648.742-2.42.885-2.57l.308-.315.442-.022c.84-.03 1.522.42 2.018 1.064C6.45 8.14 7.47 7.863 8.136 7.691c2.085-.533 3.105.802 3.233.989 0 0 .008 0 .008.015.022.022.044.037.06.06.052.06.097.112.157.15h.007s.023.015.038.022a.733.733 0 0 0 .225.083h.286c.03 0 .06-.023.098-.038a.542.542 0 0 0 .15-.06c.007 0 .007 0 .014-.015.03-.022.053-.052.083-.075.045-.045.098-.082.128-.127 0 0 .007 0 .007-.015.12-.187 1.14-1.514 3.232-.99.676.173 1.89.585 3.376 2.144.495-.644 1.192-1.094 2.017-1.064l.443.022.307.315c.143.15.818.922.885 2.57A4.596 4.596 0 0 0 24 8.688c0-2.54-2.078-4.609-4.62-4.609v-.007ZM12 19.712c-2.265 0-2.213-2.323-2.213-2.323h4.425s.053 2.323-2.212 2.323Zm.375-4.49h-.75a.752.752 0 0 0-.75.75c0 .412.338.75.75.75h.75c.412 0 .75-.338.75-.75a.752.752 0 0 0-.75-.75Z" fill="currentColor"/><path d="M20.745 16.384a9.809 9.809 0 0 0 1.035-4.361c0-1.514-.57-2.106-.57-2.106-1.178-.053-1.748 2.046-1.748 2.046-2.542-3.965-6.345-3.815-5.527.652.802 4.384 4.53 5.126 4.53 5.126l.09.427a9.04 9.04 0 0 1-6.548 2.833 9.024 9.024 0 0 1-6.54-2.833l.09-.42s3.728-.749 4.53-5.126c.818-4.467-2.985-4.617-5.527-.652 0 0-.57-2.098-1.748-2.046 0 0-.577.592-.57 2.106 0 1.566.375 3.05 1.035 4.362 0 0-.135.262-1.17 2.353.908 1.56 2.663 2.796 2.663 2.796l.345-1.634a10.508 10.508 0 0 0 6.907 2.593c2.573 0 5.01-.944 6.908-2.6l.345 1.64s1.755-1.236 2.662-2.795c-1.035-2.09-1.17-2.346-1.17-2.346l-.022-.015Z" fill="currentColor"/></svg>