<svg xmlns="http://www.w3.org/2000/svg" width="24" height="24" fill="none" viewBox="0 0 24 24"><path fill="currentColor" d="M19.5 1.5h-.75V.75c0-.412-.33-.75-.75-.75a.75.75 0 0 0-.75.75v.75H6.75V.75C6.75.338 6.42 0 6 0a.75.75 0 0 0-.75.75v.75H4.5c-1.658 0-3 1.35-3 3v15a3 3 0 0 0 3 3h15a3 3 0 0 0 3-3v-15c0-1.65-1.343-3-3-3M9.735 18.608c-.315.097-.63.142-.937.142-1.005 0-1.958-.503-2.648-1.44a.746.746 0 0 1 .157-1.05.744.744 0 0 1 1.043.157c.713.96 1.523.885 1.95.758.645-.203 1.177-.765 1.2-1.283.023-.532-.113-.937-.39-1.207-.337-.338-.915-.495-1.62-.45a.74.74 0 0 1-.713-.397.74.74 0 0 1 .083-.818l1.417-1.77H6.84a.747.747 0 0 1-.75-.75c0-.412.33-.75.75-.75h4.005c.292 0 .555.165.675.428.128.262.09.57-.09.794l-1.545 1.913c.502.15.938.39 1.275.728.412.397.893 1.132.832 2.347-.045 1.148-.997 2.265-2.257 2.648M17.07 18c0 .413-.33.75-.75.75a.75.75 0 0 1-.75-.75v-5.94l-.652.525a.74.74 0 0 1-1.05-.113.75.75 0 0 1 .112-1.057l1.875-1.5a.747.747 0 0 1 1.215.585zM21 6H3V4.5C3 3.675 3.675 3 4.5 3h.75v.75c0 .412.338.75.75.75.42 0 .75-.338.75-.75V3h10.5v.75c0 .412.337.75.75.75.42 0 .75-.338.75-.75V3h.75c.825 0 1.5.675 1.5 1.5z"/></svg>