<svg xmlns="http://www.w3.org/2000/svg" width="24" height="24" fill="none" viewBox="0 0 24 24"><path fill="currentColor" fill-rule="evenodd" d="M20.482 10.755h-4.965V7.043h3.511c.134 0 .262.082.314.21l1.344 3.187a.224.224 0 0 1-.204.315m-2.391 10.282a1.474 1.474 0 1 1-.009-2.948 1.474 1.474 0 0 1 .009 2.948M12.547 9.975a.754.754 0 0 1-1.057 0l-.21-.21v3.18c0 .412-.338.75-.75.75H4.627a.747.747 0 0 1-.75-.75v-3.18l-.21.21a.756.756 0 0 1-1.065 0 .75.75 0 0 1 0-1.057l1.493-1.493L7.042 4.47a.755.755 0 0 1 1.065 0l2.933 2.933.045.045 1.462 1.47a.746.746 0 0 1 0 1.057m-6.63 11.062a1.474 1.474 0 1 1-.007-2.948 1.474 1.474 0 0 1 .007 2.948m17.378-10.034a.5.5 0 0 0-.098-.076l-.052-.037-.818-.57a.4.4 0 0 1-.127-.15l-1.478-3.495a1.85 1.85 0 0 0-1.71-1.132h-3.495v-2.19c0-1.02-.831-1.853-1.852-1.853H1.86A1.85 1.85 0 0 0 .007 3.353v10.32H0v4.784c0 1.02.832 1.853 1.86 1.853h1.177a2.965 2.965 0 0 0 5.745 0h6.435a2.965 2.965 0 0 0 5.746 0h1.184c1.02 0 1.853-.833 1.853-1.853V12.45c0-.57-.263-1.102-.705-1.447" clip-rule="evenodd"/></svg>