<svg width="24" height="24" viewBox="0 0 24 24" fill="none" xmlns="http://www.w3.org/2000/svg"><path fill-rule="evenodd" clip-rule="evenodd" d="M6 0H.75A.75.75 0 0 0 0 .75V6c0 .415.335.75.75.75H6A.75.75 0 0 0 6.75 6V.75A.75.75 0 0 0 6 0Zm17.25 0H18a.75.75 0 0 0-.75.75V6c0 .415.335.75.75.75h5.25A.75.75 0 0 0 24 6V.75a.75.75 0 0 0-.75-.75ZM9.375 0h5.25a.75.75 0 0 1 .75.75V6a.75.75 0 0 1-.75.75h-5.25a.75.75 0 0 1-.75-.75V.75a.75.75 0 0 1 .75-.75ZM6 17.25H.75A.75.75 0 0 0 0 18v5.25c0 .415.335.75.75.75H6a.75.75 0 0 0 .75-.75V18a.75.75 0 0 0-.75-.75Zm12 0h5.25A.75.75 0 0 1 24 18v5.25a.75.75 0 0 1-.75.75H18a.75.75 0 0 1-.75-.75V18a.75.75 0 0 1 .75-.75Zm-3.375 0h-5.25a.75.75 0 0 0-.75.75v5.25c0 .415.335.75.75.75h5.25a.75.75 0 0 0 .75-.75V18a.75.75 0 0 0-.75-.75ZM.75 8.625H6a.75.75 0 0 1 .75.75v5.25a.75.75 0 0 1-.75.75H.75a.75.75 0 0 1-.75-.75v-5.25a.75.75 0 0 1 .75-.75Zm22.5 0H18a.75.75 0 0 0-.75.75v5.25c0 .415.335.75.75.75h5.25a.75.75 0 0 0 .75-.75v-5.25a.75.75 0 0 0-.75-.75Zm-13.875 0h5.25a.75.75 0 0 1 .75.75v5.25a.75.75 0 0 1-.75.75h-5.25a.75.75 0 0 1-.75-.75v-5.25a.75.75 0 0 1 .75-.75Z" fill="currentColor"/></svg>