<svg xmlns="http://www.w3.org/2000/svg" width="24" height="24" fill="none" viewBox="0 0 24 24"><path fill="currentColor" fill-rule="evenodd" d="m9.023 16.32.54-2.258a3.05 3.05 0 0 1 2.512-2.302 2.74 2.74 0 0 1-1.23-2.287c0-1.508 1.185-2.723 2.655-2.723s2.655 1.215 2.655 2.723c0 .96-.495 1.8-1.23 2.287a3.035 3.035 0 0 1 2.505 2.303l.547 2.257a.742.742 0 0 1-.712.93h-7.53a.742.742 0 0 1-.712-.93M20.25 0h-15A2.256 2.256 0 0 0 3 2.25v1.5h2.25c.824 0 1.5.676 1.5 1.5 0 .825-.676 1.5-1.5 1.5H3v1.5h2.25c.824 0 1.5.676 1.5 1.5 0 .825-.676 1.5-1.5 1.5H3v1.5h2.25c.824 0 1.5.676 1.5 1.5 0 .825-.676 1.5-1.5 1.5H3v1.5h2.25c.824 0 1.5.676 1.5 1.5 0 .825-.676 1.5-1.5 1.5H3v1.5A2.256 2.256 0 0 0 5.25 24h15a2.256 2.256 0 0 0 2.25-2.25V2.25A2.257 2.257 0 0 0 20.25 0m-18 6h3c.412 0 .75-.337.75-.75a.75.75 0 0 0-.75-.75h-3a.75.75 0 0 0-.75.75c0 .413.337.75.75.75M4.5 19.5H2.25a.75.75 0 0 1-.75-.75c0-.412.337-.75.75-.75h3c.412 0 .75.338.75.75 0 .413-.338.75-.75.75zM2.25 15h3c.412 0 .75-.337.75-.75a.75.75 0 0 0-.75-.75h-3a.75.75 0 0 0-.75.75c0 .413.337.75.75.75M3 10.5h-.75a.75.75 0 0 1-.75-.75c0-.412.337-.75.75-.75h3c.412 0 .75.338.75.75 0 .413-.338.75-.75.75z" clip-rule="evenodd"/></svg>