<svg width="24" height="24" viewBox="0 0 24 24" fill="none" xmlns="http://www.w3.org/2000/svg">
<path d="M12 12C14.6924 12 16.875 9.81739 16.875 7.125C16.875 4.43261 14.6924 2.25 12 2.25C9.30761 2.25 7.125 4.43261 7.125 7.125C7.125 9.81739 9.30761 12 12 12Z" fill="black"/>
<path d="M12 13.875C7.59003 13.875 3.21004 14.415 2.25754 20.8875C2.22754 21.105 2.28754 21.3225 2.43004 21.4875C2.57254 21.6525 2.78254 21.75 3.00004 21.75H21C21.2175 21.75 21.4275 21.6525 21.57 21.4875C21.7125 21.3225 21.7725 21.105 21.7425 20.8875C20.79 14.415 16.41 13.875 12 13.875Z" fill="black"/>
</svg>
