<svg xmlns="http://www.w3.org/2000/svg" width="24" height="24" fill="none" viewBox="0 0 24 24"><path fill="currentColor" d="m22.2 11.31-4.117-.758-1.853-1.837c-1.103-1.02-2.43-1.965-4.597-1.965H9.6c-3.195 0-5.992 2.002-6.607 2.475l-1.658.51C.548 9.983 0 10.748 0 11.61v2.528c0 .915.6 1.702 1.455 1.905l1.703.397h.075A2.62 2.62 0 0 0 5.624 18a2.63 2.63 0 0 0 2.363-1.5h8.024c.428.885 1.32 1.5 2.363 1.5a2.63 2.63 0 0 0 2.363-1.5h1.777c.817 0 1.485-.697 1.485-1.553V13.62c0-1.11-.75-2.077-1.8-2.31M11.633 8.25c1.567 0 2.535.6 3.562 1.553l.645.637-4.222-.135-.263-2.055zm-2.033 0h.24l.262 2.01-3.847-.127C6.705 9.33 7.657 8.25 9.6 8.25M5.625 16.5A1.123 1.123 0 0 1 4.5 15.375c0-.623.503-1.125 1.125-1.125s1.125.502 1.125 1.125S6.247 16.5 5.625 16.5m12.75 0a1.123 1.123 0 0 1-1.125-1.125c0-.623.503-1.125 1.125-1.125s1.125.502 1.125 1.125-.503 1.125-1.125 1.125"/></svg>