<svg xmlns="http://www.w3.org/2000/svg" width="24" height="24" fill="none" viewBox="0 0 24 24"><path fill="currentColor" d="M23.25 12h-.75V3.75a2.257 2.257 0 0 0-2.25-2.25H6.75A2.25 2.25 0 0 0 4.5 3.75V7.5h-.75A2.257 2.257 0 0 0 1.5 9.75V18H.75a.75.75 0 0 0-.75.75v1.5a2.257 2.257 0 0 0 2.25 2.25h16.5A2.25 2.25 0 0 0 21 20.25v-1.5c0-.413-.33-.75-.75-.75h-.75v-1.5h2.25A2.257 2.257 0 0 0 24 14.25v-1.5a.75.75 0 0 0-.75-.75m-3.75 8.25c0 .413-.33.75-.75.75H2.25a.75.75 0 0 1-.75-.75v-.75h6.443l.532.532A.77.77 0 0 0 9 20.25h3c.203 0 .39-.082.533-.218l.532-.532H19.5zM17.25 7.5H6V3.75c0-.413.33-.75.75-.75h13.5c.413 0 .75.337.75.75V12h-1.5V9.75a2.25 2.25 0 0 0-2.25-2.25m5.25 6.75c0 .412-.337.75-.75.75H19.5v-1.5h3z"/></svg>