<svg xmlns="http://www.w3.org/2000/svg" width="24" height="24" fill="none" viewBox="0 0 24 24"><path fill="currentColor" d="M21.72 10.328h-.682V9.75a.75.75 0 0 0-.75-.75h-6.286l-2.82-7.755a.743.743 0 0 0-.96-.45.75.75 0 0 0-.442.96l.863 2.385L8.108.338a.74.74 0 0 0-1.035-.21.75.75 0 0 0-.21 1.035L12.075 9h-.457L6.6 1.823a.747.747 0 1 0-1.223.855l2.086 2.985-3.938-3.945a.747.747 0 0 0-1.057 0 .756.756 0 0 0 0 1.065l3.915 3.922-4.418-3.54a.743.743 0 0 0-1.05.12.74.74 0 0 0 .113 1.05l.262.21a.7.7 0 0 0-.322.173.756.756 0 0 0 0 1.065L4.185 9h-.472a.75.75 0 0 0-.75.75v.578H2.28c-1.125 0-1.53 1.597-1.53 3.082s.405 3.09 1.53 3.09h.683v3.803A3.7 3.7 0 0 0 6.653 24h10.695a3.7 3.7 0 0 0 3.69-3.697V16.5h.682c1.125 0 1.53-1.597 1.53-3.09s-.405-3.082-1.53-3.082M2.963 15h-.458c-.112-.24-.255-.802-.255-1.59 0-.787.143-1.342.255-1.582h.458zm1.14-8.205L6.848 9H6.3zM21.495 15h-.457v-3.172h.457c.113.24.255.802.255 1.582s-.142 1.35-.255 1.59"/></svg>