<svg xmlns="http://www.w3.org/2000/svg" width="25" height="24" fill="none" viewBox="0 0 25 24"><path fill="currentColor" d="M17.91 7.643a.77.77 0 0 1 .728-.09c.24.097.412.314.457.57.435 2.557 1.71 4.26 2.835 5.76 1.05 1.402 2.04 2.73 2.07 4.425.068 3.84-2.902 5.391-4.477 5.676a.4.4 0 0 1-.135.016.74.74 0 0 1-.638-.36.73.73 0 0 1 .045-.848c.013-.018.551-.773.277-1.484-.104-.255-.397-.548-.72-.856-.487-.487-1.094-1.087-1.387-1.934-.42.555-.66 1.132-.705 1.724-.127 1.395.822 2.486.84 2.505.21.233.255.57.112.848a.76.76 0 0 1-.75.397c-1.8-.195-5.212-1.733-5.212-6.12v-.622q-.002-.428.075-.855c.21.067.443.105.675.105q.034.002.068-.008a2 2 0 0 0 .787-.165h.008a2.24 2.24 0 0 0 1.387-2.077 2.247 2.247 0 0 0 2.025-3.232 2.2 2.2 0 0 0-.45-.623 2.2 2.2 0 0 0-.623-.427c.375-.383.63-.616.668-.654a24 24 0 0 1 2.04-1.671M6.15.556A1.28 1.28 0 0 1 7.59.061c.548.165.907.667.907 1.245V6h4.253c.825 0 1.185.353 1.335.653.322.623-.09 1.26-.173 1.38-.045.053-.12.143-.21.255a2.1 2.1 0 0 0-.57-.48 2.1 2.1 0 0 0-.757-.27A1.6 1.6 0 0 0 12 7.5a2.247 2.247 0 0 0-2.25 2.25 2.247 2.247 0 0 0-1.958 3.352c.12.233.293.436.488.593.187.173.405.3.645.39-.292.345-.495.585-.57.668l-1.028 1.23A1.25 1.25 0 0 1 6.3 16.5c-.135 0-.262-.015-.39-.06a1.284 1.284 0 0 1-.908-1.245V10.5H1.327c-.517 0-.975-.262-1.192-.675-.21-.397-.172-.862.098-1.252zm5.985 8.46c.27.045.488.24.57.487a.7.7 0 0 1 .045.247v1.5h1.5c.225 0 .428.098.563.256.12.135.187.307.187.494 0 .412-.337.75-.75.75h-1.335c-.052.082-.112.166-.165.256v1.244c0 .412-.337.75-.75.75a.6.6 0 0 1-.262-.052.74.74 0 0 1-.488-.698v-1.5h-1.5a.78.78 0 0 1-.517-.202.753.753 0 0 1 .518-1.298h1.5v-1.5c0-.412.337-.75.75-.75q.067.002.134.016"/></svg>