<svg xmlns="http://www.w3.org/2000/svg" width="24" height="24" fill="none" viewBox="0 0 24 24"><path fill="currentColor" fill-rule="evenodd" d="M20.25 7.5h-12a.75.75 0 0 1-.75-.75c0-.412.338-.75.75-.75h12c.413 0 .75.338.75.75s-.337.75-.75.75m.75 8.25c0 .413-.337.75-.75.75H16.5a.75.75 0 0 1-.75-.75v-6c0-.412.337-.75.75-.75h3.75c.413 0 .75.338.75.75zM13.5 12H8.25a.75.75 0 0 1-.75-.75c0-.412.338-.75.75-.75h5.25c.412 0 .75.338.75.75s-.338.75-.75.75m0 3H8.25a.75.75 0 0 1-.75-.75c0-.412.338-.75.75-.75h5.25c.412 0 .75.338.75.75s-.338.75-.75.75m-9 4.515c0 .825-.675 1.5-1.5 1.5-.022 0-.038.008-.053.008-.022 0-.037-.008-.052-.008-.795 0-1.395-.645-1.395-1.5V10.5h3zM23.783 1.718a.8.8 0 0 0-.533-.218l-18 .015a.75.75 0 0 0-.75.75V9H.75a.75.75 0 0 0-.75.75v9.765c0 1.68 1.267 3 2.895 3 .015 0 .03-.008.052-.015.015.008.03.015.053.015h18c1.657 0 3-1.35 3-3V2.25a.78.78 0 0 0-.218-.532" clip-rule="evenodd"/></svg>