<svg width="24" height="24" viewBox="0 0 24 24" fill="none" xmlns="http://www.w3.org/2000/svg">
<path fill-rule="evenodd" clip-rule="evenodd" d="M6 8.9925H18V1.5H6V8.9925ZM6 22.5H18V18H6V22.5ZM5.25 13.5H3.75C3.3375 13.5 3 13.1625 3 12.75C3 12.3375 3.3375 12 3.75 12H5.25C5.67 12 6 12.3375 6 12.75C6 13.1625 5.67 13.5 5.25 13.5ZM21 8.9925H19.5V0.75C19.5 0.3375 19.17 0 18.75 0H5.25C4.8375 0 4.5 0.3375 4.5 0.75V8.9925H3C1.35 8.9925 0 10.335 0 11.9925V20.25C0 20.6625 0.3375 21 0.75 21H4.5V23.25C4.5 23.6625 4.8375 24 5.25 24H18.75C19.17 24 19.5 23.6625 19.5 23.25V21H23.25C23.67 21 24 20.6625 24 20.25V11.9925C24 10.335 22.6575 8.9925 21 8.9925Z" fill="black"/>
</svg>
