<svg xmlns="http://www.w3.org/2000/svg" width="24" height="24" fill="none" viewBox="0 0 24 24"><path fill="currentColor" d="M12 0C5.37 0 0 5.37 0 12s5.37 12 12 12 12-5.37 12-12S18.63 0 12 0m8.872 13.5C20.16 17.753 16.456 21 12 21c-4.965 0-9-4.035-9-9 0-.412.337-.75.75-.75.412 0 .75.338.75.75 0 4.133 3.367 7.5 7.5 7.5 5.618 0 7.5-5.265 7.5-7.5a7.52 7.52 0 0 0-2.212-5.34C14.625 4.02 10.44 3.803 7.515 6h.735c.412 0 .75.338.75.75s-.338.75-.75.75H6a.75.75 0 0 1-.75-.75V4.5c0-.412.338-.75.75-.75s.75.338.75.75v.21c3.488-2.542 8.438-2.242 11.595.885a8.92 8.92 0 0 1 2.625 7.132 9 9 0 0 1-.098.773M6.75 12c0-.412.338-.75.75-.75h4.14l2.775-3.465a.743.743 0 0 1 1.05-.12c.33.255.383.728.12 1.05l-3 3.758a.76.76 0 0 1-.585.277H7.5a.75.75 0 0 1-.75-.75"/></svg>