<svg width="24" height="24" viewBox="0 0 24 24" fill="none" xmlns="http://www.w3.org/2000/svg">
<path fill-rule="evenodd" clip-rule="evenodd" d="M3.75 3C3.33525 3 3 3.33525 3 3.75V6C3 6.41475 3.33525 6.75 3.75 6.75C11.1938 6.75 17.25 12.8062 17.25 20.25C17.25 20.6647 17.5852 21 18 21H20.25C20.6647 21 21 20.6647 21 20.25C21 10.7378 13.2622 3 3.75 3ZM3.75 9C3.33525 9 3 9.33525 3 9.75V12C3 12.4148 3.33525 12.75 3.75 12.75C7.8855 12.75 11.25 16.1145 11.25 20.25C11.25 20.6647 11.5852 21 12 21H14.25C14.6648 21 15 20.6647 15 20.25C15 14.0468 9.95325 9 3.75 9ZM3 18.375C3 16.9275 4.1775 15.75 5.625 15.75C7.0725 15.75 8.25 16.9275 8.25 18.375C8.25 19.8225 7.0725 21 5.625 21C4.1775 21 3 19.8225 3 18.375Z" fill="black"/>
</svg>
