<svg xmlns="http://www.w3.org/2000/svg" width="24" height="24" fill="none" viewBox="0 0 24 24"><path fill="currentColor" fill-rule="evenodd" d="M11.25 3.802c2.692 5.955.75 8.43 0 9.097zm12 16.455c-1.29 0-1.958.803-2.453 1.388-.33.397-.57.652-.877.772l1.77-4.118a.74.74 0 0 0-.068-.704.75.75 0 0 0-.622-.338h-9.75v-2.25h8.25c.412 0 .75-.33.75-.743 0-8.062-7.62-13.245-9.278-14.093a.75.75 0 0 0-.855-.067.7.7 0 0 0-.307.368v.007a1 1 0 0 0-.038.083L3.81 13.957a.748.748 0 0 0 .69 1.05h5.25v2.25H3a.75.75 0 0 0-.675 1.072l2.002 4.148c-.442-.06-.712-.33-1.125-.832-.495-.585-1.162-1.388-2.452-1.388a.746.746 0 1 0 0 1.493c.562 0 .832.292 1.297.854C2.535 23.197 3.21 24 4.5 24c1.282 0 1.957-.803 2.445-1.396.472-.562.742-.854 1.305-.854.555 0 .825.292 1.297.854C10.035 23.197 10.71 24 12 24c1.282 0 1.957-.803 2.445-1.396.472-.562.742-.854 1.305-.854.555 0 .825.292 1.297.854C17.535 23.197 18.21 24 19.5 24s1.957-.803 2.452-1.396c.465-.562.735-.854 1.297-.854a.748.748 0 1 0 0-1.493" clip-rule="evenodd"/></svg>