<svg xmlns="http://www.w3.org/2000/svg" width="24" height="24" fill="none" viewBox="0 0 24 24"><path fill="currentColor" fill-rule="evenodd" d="M14.078 8.04a1.84 1.84 0 0 0-1.83-1.838 1.84 1.84 0 0 0-1.839 1.838v1.418h3.669zm-2.58 4.822c0-.412.33-.75.75-.75.411 0 .75.338.75.75v.923c0 .412-.339.75-.75.75a.747.747 0 0 1-.75-.75zm-2.19 2.828h5.872v-4.732H9.308zm7.372.75c0 .412-.33.75-.75.75H8.558a.75.75 0 0 1-.75-.75v-6.232c0-.42.337-.75.75-.75h.351V8.04c0-1.838 1.5-3.338 3.339-3.338 1.837 0 3.33 1.5 3.33 3.338v1.418h.352c.42 0 .75.33.75.75zM19.988 2.1c-3.15 0-4.088-.63-4.913-1.185C14.4.465 13.703 0 12.248 0c-1.464 0-2.16.465-2.835.915C8.588 1.47 7.643 2.1 4.499 2.1a.753.753 0 0 0-.75.75v11.01a7.36 7.36 0 0 0 2.791 5.805l5.235 4.17a.76.76 0 0 0 .473.165c.165 0 .33-.053.465-.164l5.235-4.171a7.36 7.36 0 0 0 2.79-5.805V2.85a.75.75 0 0 0-.75-.75m-5.91 5.94a1.84 1.84 0 0 0-1.83-1.838 1.84 1.84 0 0 0-1.839 1.838v1.418h3.669zm-1.08 5.745c0 .412-.339.75-.75.75a.747.747 0 0 1-.75-.75v-.923c0-.412.33-.75.75-.75.411 0 .75.338.75.75zm-3.69 1.905h5.872v-4.732H9.308zm3.69-1.905c0 .412-.339.75-.75.75a.747.747 0 0 1-.75-.75v-.923c0-.412.33-.75.75-.75.411 0 .75.338.75.75zm-3.69 1.905h5.872v-4.732H9.308zm2.94-9.488a1.84 1.84 0 0 0-1.839 1.838v1.418h3.669V8.04a1.84 1.84 0 0 0-1.83-1.838" clip-rule="evenodd"/></svg>