<svg xmlns="http://www.w3.org/2000/svg" width="24" height="24" fill="none" viewBox="0 0 24 24"><path fill="currentColor" d="M16.842 0c.63 0 1.145.514 1.145 1.146v5.957c0 .632-.513 1.146-1.145 1.146h-1.574l-.007 3.342a1.38 1.38 0 0 1 1.382-1.296c.777 0 1.398.617 1.398 1.377v1.183c0-.76.621-1.368 1.398-1.368.768 0 1.39.609 1.39 1.368v1.177c0-.76.622-1.368 1.398-1.368.769 0 1.398.6 1.398 1.36v2.455s.049 1.665-.639 3.416C21.972 22.44 19.733 24 16.953 24c-2.232 0-4.292-1.175-5.396-3.071l-3.688-5.824a1.365 1.365 0 0 1 .515-1.88c.67-.384 1.399-.184 1.914.503l2.117 2.856.06-8.334H10.89a1.15 1.15 0 0 1-1.147-1.146V1.146A1.15 1.15 0 0 1 10.891 0zM7.495 0c.827 0 1.5.673 1.5 1.5v5.25c0 .827-.673 1.5-1.5 1.5H2.25a1.5 1.5 0 0 1-1.5-1.5V1.5C.75.673 1.422 0 2.249 0zM2.25 6.75h5.246V1.5H2.25zm8.993 0h1.394A1.39 1.39 0 0 1 13.879 6c.542 0 1.005.305 1.234.75h1.376V1.5h-5.247zm3.237-4.298a.749.749 0 1 1 1.024 1.097l-1.607 1.5a.75.75 0 0 1-1.023 0l-.642-.6a.75.75 0 0 1 1.021-1.097l.134.123z"/></svg>