<svg xmlns="http://www.w3.org/2000/svg" width="24" height="24" fill="none" viewBox="0 0 24 24"><path fill="currentColor" d="m21.24 3.038-9-3.008s-.06-.007-.09-.015C12.097.015 12.052 0 12 0c-.053 0-.098.008-.143.015-.03.008-.067 0-.097.015l-9 3.008a.76.76 0 0 0-.51.712v10.493s0 .06.007.09c.03.292.9 7.282 9.548 9.637.06.023.127.03.188.03h.014a.6.6 0 0 0 .188-.03c8.648-2.355 9.517-9.345 9.548-9.637q.009-.045.007-.09V3.75a.76.76 0 0 0-.51-.712m-4.132 5.64-5.385 7.507a.74.74 0 0 1-.556.308c-.014 0-.037.007-.052.007a.74.74 0 0 1-.54-.233l-3.615-3.72a.763.763 0 0 1 .015-1.065.763.763 0 0 1 1.065.016l2.985 3.082 4.868-6.772a.746.746 0 1 1 1.215.87"/></svg>