<svg xmlns="http://www.w3.org/2000/svg" width="24" height="24" fill="none" viewBox="0 0 24 24"><path fill="currentColor" fill-rule="evenodd" d="m21.726 15.18 2.25-9a.74.74 0 0 0-.136-.645.75.75 0 0 0-.593-.285H4.95L3.727.562Q3.722.548 3.716.54C3.71.53 3.705.523 3.705.51L3.684.467l-.054-.1-.006-.01a1 1 0 0 0-.062-.096 2 2 0 0 0-.12-.105L3.398.13 3.337.09Q3.28.064 3.222.046L3.195.037a1 1 0 0 0-.163-.033Q3.018.001 3 0H.75A.75.75 0 0 0 0 .75c0 .412.337.75.75.75h1.672l4.35 16.687a.1.1 0 0 0 .016.03l.014.03c.007.03.023.068.045.098a.4.4 0 0 0 .09.134 1 1 0 0 0 .067.075 1 1 0 0 0 .143.098l.042.022.04.022c.09.03.173.054.27.054h12.75c.412 0 .75-.338.75-.75a.75.75 0 0 0-.75-.75H8.076l-.39-1.5h13.311a.746.746 0 0 0 .728-.57m-8.977 6.57A2.257 2.257 0 0 1 10.5 24a2.257 2.257 0 0 1-2.25-2.25 2.257 2.257 0 0 1 2.25-2.25 2.257 2.257 0 0 1 2.25 2.25m6.75 0A2.257 2.257 0 0 1 17.25 24 2.257 2.257 0 0 1 15 21.75a2.257 2.257 0 0 1 2.25-2.25 2.257 2.257 0 0 1 2.25 2.25" clip-rule="evenodd"/></svg>