<svg width="24" height="24" viewBox="0 0 24 24" fill="none" xmlns="http://www.w3.org/2000/svg"><path fill-rule="evenodd" clip-rule="evenodd" d="m21.726 15.18 2.25-9a.74.74 0 0 0-.136-.645.75.75 0 0 0-.593-.285H4.95L3.727.562C3.724.552 3.72.546 3.716.54 3.71.53 3.705.523 3.705.51L3.684.467a2.057 2.057 0 0 0-.054-.1l-.006-.01a1.166 1.166 0 0 0-.062-.096 1.829 1.829 0 0 0-.12-.105L3.398.13a1.371 1.371 0 0 0-.061-.04C3.3.072 3.26.059 3.222.046a.748.748 0 0 0-.19-.042C3.022.002 3.012 0 3 0H.75A.752.752 0 0 0 0 .75c0 .412.337.75.75.75h1.672l4.35 16.687a.13.13 0 0 0 .016.03l.014.03c.007.03.023.068.045.098a.415.415 0 0 0 .09.134.89.89 0 0 0 .067.075 1.046 1.046 0 0 0 .143.098.588.588 0 0 1 .042.022l.04.022c.09.03.173.054.27.054h12.75c.412 0 .75-.338.75-.75a.752.752 0 0 0-.75-.75H8.076l-.39-1.5h13.311a.746.746 0 0 0 .728-.57Zm-8.977 6.57A2.257 2.257 0 0 1 10.5 24a2.257 2.257 0 0 1-2.25-2.25 2.257 2.257 0 0 1 2.25-2.25 2.257 2.257 0 0 1 2.25 2.25Zm6.75 0a2.257 2.257 0 0 1-2.25 2.25 2.257 2.257 0 0 1-2.25-2.25 2.257 2.257 0 0 1 2.25-2.25 2.257 2.257 0 0 1 2.25 2.25Z" fill="currentColor"/></svg>