<svg xmlns="http://www.w3.org/2000/svg" width="24" height="25" fill="none" viewBox="0 0 24 25"><path fill="currentColor" fill-rule="evenodd" d="M5.814.75C5.089.75 4.5 1.338 4.5 2.064v9.928h2.629V2.064c0-.726-.59-1.314-1.315-1.314M16.08 15.127h2.402c.62 0 1.123.503 1.123 1.123v1.187c0 4.028-3.39 7.305-7.552 7.305-4.163 0-7.553-3.277-7.553-7.305v-2.82c0-.62.503-1.125 1.125-1.125h8.048a1.1 1.1 0 0 1 .787.338c.12.12.255.315.248.585a.92.92 0 0 1-.263.585c-.187.173-.427.27-.69.27H8.648a.753.753 0 0 0-.75.75c0 .412.337.75.75.75h.975c2.265 0 4.11 1.762 4.11 3.93 0 .412.337.75.75.75.412 0 .75-.338.75-.75 0-1.545-.675-2.94-1.756-3.93h.278a2.48 2.48 0 0 0 1.725-.69c.278-.27.48-.6.6-.953M8.66 7.178a1.314 1.314 0 1 1 2.627 0v4.814H8.66zm6.783.831v4.673a2.3 2.3 0 0 0-.323-.262c-.443-.3-.982-.427-1.515-.427h-.787V8.009c0-.727.584-1.32 1.312-1.32s1.313.593 1.313 1.32m4.162 4.306V8.91a1.31 1.31 0 0 0-1.312-1.312c-.729 0-1.313.585-1.313 1.312v3.405c0 .727.584 1.312 1.313 1.312a1.31 1.31 0 0 0 1.312-1.312" clip-rule="evenodd"/></svg>