<svg xmlns="http://www.w3.org/2000/svg" width="24" height="24" fill="none" viewBox="0 0 24 24"><path fill="currentColor" fill-rule="evenodd" d="M6.578 4.229C8.035 2.469 9.96 1.5 12 1.5s3.965.969 5.422 2.729a.75.75 0 0 0 1.056.1.75.75 0 0 0 .1-1.057C16.83 1.162 14.494 0 12 0S7.17 1.162 5.422 3.272a.75.75 0 1 0 1.156.957M12 3c-1.36 0-2.632.63-3.578 1.772a.75.75 0 0 0 1.157.957C10.234 4.936 11.093 4.5 12 4.5s1.765.436 2.422 1.229a.75.75 0 0 0 1.156-.957C14.632 3.629 13.361 3 12 3m3.75 17.25h-1.5v-9h1.5zm-6 0h-1.5v-9h1.5zm10.5 0H21c.413 0 .75.338.75.75 0 .413-.337.75-.75.75h-.75A2.257 2.257 0 0 1 18 24a2.257 2.257 0 0 1-2.25-2.25h-1.5A2.257 2.257 0 0 1 12 24a2.257 2.257 0 0 1-2.25-2.25h-1.5v.038C8.25 23.01 7.237 24 6 24s-2.25-.99-2.25-2.212v-.038H3a.75.75 0 0 1-.75-.75c0-.412.337-.75.75-.75h.75v-9H3a.75.75 0 0 1-.75-.75c0-.412.337-.75.75-.75h.75v-.037C3.75 8.49 4.763 7.5 6 7.5s2.25.99 2.25 2.213v.037h1.5A2.257 2.257 0 0 1 12 7.5a2.257 2.257 0 0 1 2.25 2.25h1.5A2.257 2.257 0 0 1 18 7.5a2.257 2.257 0 0 1 2.25 2.25H21c.413 0 .75.338.75.75 0 .413-.337.75-.75.75h-.75z" clip-rule="evenodd"/></svg>