<svg width="24" height="24" viewBox="0 0 24 24" fill="none" xmlns="http://www.w3.org/2000/svg"><path d="M12 0C5.385 0 0 5.385 0 12s5.385 12 12 12 12-5.385 12-12S18.615 0 12 0ZM5.423 10.02l1.875-2.25c.284-.345.87-.345 1.155 0l1.875 2.25a.757.757 0 0 1-.098 1.058.77.77 0 0 1-.48.172.743.743 0 0 1-.578-.27L7.875 9.42l-1.298 1.56a.75.75 0 0 1-1.057.098.757.757 0 0 1-.097-1.058Zm.997 4.238a.756.756 0 0 1 1.005.337c.06.12 1.343 2.588 4.598 2.588s4.5-2.476 4.552-2.58a.75.75 0 0 1 1.35.652c-.067.143-1.68 3.428-5.902 3.428-4.223 0-5.88-3.278-5.948-3.42a.75.75 0 0 1 .345-1.005Zm12.06-3.18a.77.77 0 0 1-.48.172.743.743 0 0 1-.578-.27l-1.297-1.56-1.297 1.56a.75.75 0 1 1-1.155-.96l1.874-2.25c.285-.345.87-.345 1.155 0l1.875 2.25a.757.757 0 0 1-.097 1.058Z" fill="currentColor"/></svg>