<svg xmlns="http://www.w3.org/2000/svg" width="24" height="24" fill="none" viewBox="0 0 24 24"><path fill="currentColor" d="M12 0C5.385 0 0 5.385 0 12s5.385 12 12 12 12-5.385 12-12S18.615 0 12 0M3.75 10.5c0-.412.338-.75.75-.75 2.43 0 3.03-1.717 3.037-1.74a.76.76 0 0 1 .953-.473c.39.136.6.555.473.953-.038.112-.96 2.76-4.463 2.76a.75.75 0 0 1-.75-.75m1.425 3.975a.75.75 0 0 1-.15-1.05.75.75 0 0 1 1.05-.15c1.777 1.335 3.585.015 3.6 0a.75.75 0 0 1 1.05.15c.248.33.18.802-.15 1.05-.547.412-1.582.893-2.775.893a4.3 4.3 0 0 1-2.625-.893m8.7 5.4h-3.75a.75.75 0 0 1-.75-.75c0-.413.338-.75.75-.75h3.75c.412 0 .75.337.75.75s-.338.75-.75.75m4.95-5.4c-.547.412-1.582.893-2.775.893a4.3 4.3 0 0 1-2.625-.893.75.75 0 0 1-.15-1.05.75.75 0 0 1 1.05-.15c1.777 1.335 3.578.015 3.6 0a.75.75 0 0 1 1.05.15c.247.33.18.802-.15 1.05m.675-3.225c-3.502 0-4.425-2.648-4.462-2.76a.76.76 0 0 1 .472-.953.76.76 0 0 1 .952.473c.03.082.66 1.74 3.038 1.74.413 0 .75.338.75.75s-.337.75-.75.75"/></svg>