<svg width="24" height="24" viewBox="0 0 24 24" fill="none" xmlns="http://www.w3.org/2000/svg"><path fill-rule="evenodd" clip-rule="evenodd" d="M18 12h-1.83l.592-3h2.423L18 12Zm-3.36 0h-1.89v-1.635A2.276 2.276 0 0 0 14.115 9h1.117l-.592 3ZM12 9a.752.752 0 0 1-.75-.75c0-.412.338-.75.75-.75s.75.338.75.75S12.412 9 12 9Zm-.75 3H9.36l-.592-3h1.117a2.276 2.276 0 0 0 1.365 1.365V12ZM6 12 4.815 9h2.422l.593 3H6Zm17.25-9.75H.75A.752.752 0 0 0 0 3v5.25c0 .412.338.75.75.75h2.453l1.59 4.027a.75.75 0 0 0 .697.473h13.02a.75.75 0 0 0 .697-.473L20.797 9h2.453c.413 0 .75-.338.75-.75V3a.752.752 0 0 0-.75-.75ZM12 18.75c1.36 0 2.631-.63 3.578-1.771a.751.751 0 0 0-1.156-.957c-.657.792-1.516 1.228-2.422 1.228-.906 0-1.765-.436-2.422-1.229a.75.75 0 0 0-1.156.957c.947 1.143 2.217 1.772 3.578 1.772Zm0 1.5c2.039 0 3.965-.969 5.422-2.728a.75.75 0 0 1 1.156.956C16.83 20.588 14.494 21.75 12 21.75c-2.494 0-4.83-1.162-6.578-3.272a.749.749 0 1 1 1.156-.956C8.035 19.282 9.96 20.25 12 20.25Z" fill="currentColor"/></svg>