<svg xmlns="http://www.w3.org/2000/svg" width="24" height="25" fill="none" viewBox="0 0 24 25"><path fill="currentColor" fill-rule="evenodd" d="M11.822 3a.75.75 0 0 0 .75-.75V.75a.75.75 0 1 0-1.5 0v1.5c0 .415.336.75.75.75m-.002 6.238a2.585 2.585 0 0 0 2.584-2.584 2.585 2.585 0 0 0-5.168 0 2.585 2.585 0 0 0 2.584 2.584m-7.696 9.454.924-3.69a.715.715 0 0 1 .695-.538h3.475l-.093.717-.48 3.511zm4.37 1.075-.472 3.518-.1.716H3.714c-.222 0-.43-.1-.566-.28a.72.72 0 0 1-.13-.608l.84-3.346zm1.233-1.075h4.227l-.387-3.51-.078-.718h-3.19l-.1.717zm4.807 5.31h-5.53l.092-.717.48-3.518h4.493l.387 3.518zm.114-8.82.388 3.51h4.478l-.917-3.69a.72.72 0 0 0-.695-.538H14.57zm5.84 8.54a.7.7 0 0 1-.566.28h-4.306l-.078-.717-.387-3.518h4.634l.832 3.346a.69.69 0 0 1-.129.609M8.71 4.289a.75.75 0 0 1-.53-.22L7.12 3.01a.75.75 0 1 1 1.06-1.06l1.06 1.06a.75.75 0 0 1-.53 1.28M5.92 7.402h1.5a.75.75 0 1 0 0-1.5h-1.5a.75.75 0 1 0 0 1.5m1.199 2.892 1.06-1.06a.75.75 0 1 1 1.06 1.06l-1.06 1.06a.75.75 0 0 1-1.06 0 .75.75 0 0 1 0-1.06m3.953.759v1.5a.75.75 0 1 0 1.5 0v-1.5a.75.75 0 1 0-1.5 0m3.332-.759a.749.749 0 1 1 1.06-1.06l1.062 1.06a.75.75 0 1 1-1.06 1.06zm1.07-3.642c0 .415.335.75.75.75h1.5a.75.75 0 1 0 0-1.5h-1.5a.75.75 0 0 0-.75.75m-.01-2.583a.75.75 0 0 1-1.06 0 .75.75 0 0 1 0-1.06l1.061-1.06a.75.75 0 1 1 1.06 1.06z" clip-rule="evenodd"/></svg>