<svg xmlns="http://www.w3.org/2000/svg" width="24" height="24" fill="none" viewBox="0 0 24 24"><path fill="currentColor" fill-rule="evenodd" d="M11.994 4.873a.75.75 0 0 1-.75-.75V.75a.75.75 0 1 1 1.5 0v3.373a.75.75 0 0 1-.75.75m5.656 7.122a5.654 5.654 0 0 1-5.655 5.655 5.66 5.66 0 0 1-5.663-5.655 5.66 5.66 0 0 1 5.663-5.662 5.656 5.656 0 0 1 5.655 5.662M5.898 6.958a.75.75 0 0 0 1.06 0 .75.75 0 0 0 0-1.06L4.573 3.511a.75.75 0 0 0-1.06 1.06zm-1.775 5.785H.75a.75.75 0 1 1 0-1.5h3.373a.75.75 0 1 1 0 1.5m-.61 7.73a.75.75 0 0 0 1.06 0l2.385-2.384a.75.75 0 0 0-1.06-1.06l-2.385 2.384a.75.75 0 0 0 0 1.06m8.48 3.514a.75.75 0 0 1-.75-.75v-3.372a.75.75 0 1 1 1.5 0v3.372a.75.75 0 0 1-.75.75m7.42-3.513a.75.75 0 0 0 1.06 0 .75.75 0 0 0 0-1.06l-2.383-2.386a.75.75 0 0 0-1.06 1.06zm3.824-7.73h-3.373a.75.75 0 1 1 0-1.5h3.373a.75.75 0 1 1 0 1.5m-6.208-5.786a.75.75 0 0 0 1.06 0l2.385-2.385a.75.75 0 1 0-1.06-1.06l-2.385 2.384a.75.75 0 0 0 0 1.06" clip-rule="evenodd"/></svg>