<svg width="24" height="24" viewBox="0 0 24 24" fill="none" xmlns="http://www.w3.org/2000/svg"><path fill-rule="evenodd" clip-rule="evenodd" d="M12.488 21.727c-.15.008-.3.023-.458.023H12c-.165 0-.33-.015-.502-.023-2.244-.187-3.998-1.62-3.998-3.352 0-1.5 1.313-2.775 3.12-3.21a1.5 1.5 0 1 0 2.76 0c1.808.435 3.12 1.71 3.12 3.21 0 1.74-1.762 3.173-4.012 3.352ZM9.75 9.75c.824 0 1.5.676 1.5 1.5a1.5 1.5 0 1 1-1.5-1.5Zm4.5 0c.824 0 1.5.676 1.5 1.5a1.5 1.5 0 1 1-1.5-1.5Zm8.354-1.89c.886-.773 1.389-1.845 1.389-2.985C23.992 2.602 21.974.75 19.5.75c-1.605 0-3.053.765-3.855 2.002a13.537 13.537 0 0 0-7.29 0C7.552 1.523 6.104.75 4.5.75 2.018.75 0 2.602 0 4.875c0 1.14.51 2.212 1.395 2.986A9.393 9.393 0 0 0 .007 12.75c0 5.602 5.032 10.178 11.356 10.47.209.023.42.03.637.03h.06c.194-.007.382-.015.57-.03C18.951 22.935 24 18.352 24 12.75c0-1.702-.48-3.382-1.396-4.89Z" fill="currentColor"/></svg>