<svg xmlns="http://www.w3.org/2000/svg" width="24" height="24" fill="none" viewBox="0 0 24 24"><path fill="currentColor" fill-rule="evenodd" d="m16.542 9.781-5.483 5.483a.75.75 0 0 1-1.06 0L7.51 12.776a.75.75 0 1 1 1.061-1.06l1.957 1.957 4.953-4.952a.75.75 0 1 1 1.06 1.06m7.457 2.201c0-.316-.134-.619-.368-.832l-1.94-1.765.798-2.498a1.126 1.126 0 0 0-.832-1.441l-2.562-.558-.56-2.565a1.13 1.13 0 0 0-1.44-.83l-2.499.797L12.832.35c-.425-.466-1.24-.467-1.664 0L9.403 2.29l-2.5-.798a1.12 1.12 0 0 0-1.44.833l-.559 2.563-2.561.558a1.127 1.127 0 0 0-.832 1.441l.797 2.498-1.94 1.766a1.124 1.124 0 0 0 0 1.663l1.94 1.765-.798 2.498c-.096.3-.06.63.097.905.16.274.427.47.735.537l2.562.558.56 2.565a1.126 1.126 0 0 0 1.44.83l2.499-.798 1.764 1.94a1.127 1.127 0 0 0 1.665 0l1.764-1.94 2.5.798a1.125 1.125 0 0 0 1.44-.832l.559-2.563 2.56-.558a1.13 1.13 0 0 0 .737-.537 1.13 1.13 0 0 0 .098-.904l-.799-2.499 1.94-1.766c.234-.212.368-.515.368-.83" clip-rule="evenodd"/></svg>