<svg width="25" height="25" viewBox="0 0 25 25" fill="none" xmlns="http://www.w3.org/2000/svg"><path fill-rule="evenodd" clip-rule="evenodd" d="M12.511 11.333a1.17 1.17 0 1 0 1.17 1.17c0-.217-.062-.429-.17-.6a1.16 1.16 0 0 0-1-.57Zm9.015-3.317-6.368 3.81a2.734 2.734 0 0 1-2.647 3.41 2.738 2.738 0 0 1-2.59-1.866H6.236a.783.783 0 0 1-.78-.78c0-.429.35-.781.78-.781h3.637a2.731 2.731 0 0 1 2.638-2.037c.718 0 1.358.274 1.842.719l6.37-3.818a.787.787 0 0 1 1.076.274.783.783 0 0 1-.273 1.069Zm-17.109-.28a.778.778 0 0 1-1.06.288.788.788 0 0 1-.29-1.069.78.78 0 0 1 1.07-.282.77.77 0 0 1 .28 1.063Zm-2.075 5.463a.783.783 0 0 1-.78-.78c0-.438.35-.78.78-.78.43 0 .78.342.78.78 0 .428-.35.78-.78.78Zm4.76-10.217a.787.787 0 0 1 1.07.29c.21.373.085.85-.29 1.06a.768.768 0 0 1-1.06-.28.78.78 0 0 1 .28-1.07Zm5.48-1.42c.436 0 .78.351.78.78 0 .429-.344.78-.78.78a.783.783 0 0 1-.781-.78c0-.429.351-.78.78-.78Zm4.394 1.794a.789.789 0 0 1 1.069-.289.78.78 0 0 1 .28 1.07.768.768 0 0 1-1.06.281.778.778 0 0 1-.289-1.062Zm8 8.438c0-.087-.008-.18-.016-.266a8.936 8.936 0 0 0-.07-.656 7.878 7.878 0 0 0-.094-.6 2.909 2.909 0 0 0-.054-.289 13.195 13.195 0 0 0-.164-.703 13.63 13.63 0 0 0-.234-.772 11.6 11.6 0 0 0-.702-1.671 6.433 6.433 0 0 0-.235-.444c-.023-.04-.047-.086-.07-.125a12.586 12.586 0 0 0-4.238-4.386 6.243 6.243 0 0 0-.484-.282 12.333 12.333 0 0 0-6.01-1.6h-.109C5.596 0 .008 5.59 0 12.496v.008c0 .43.022.859.061 1.28.086.835.258 1.646.5 2.427.18.594.406 1.163.671 1.71.18.358.375.71.578 1.053v.008c.211.343.438.67.671.99.352.478.75.938 1.179 1.36a12.13 12.13 0 0 0 2.357 1.857c.343.203.702.398 1.061.578a12.597 12.597 0 0 0 4.137 1.17c.421.039.851.063 1.28.063.429 0 .858-.024 1.28-.062a12.591 12.591 0 0 0 4.145-1.171c.359-.173.71-.368 1.053-.578h.008a12.615 12.615 0 0 0 4.207-4.207v-.008c.21-.343.405-.695.577-1.054.266-.546.492-1.115.671-1.71.125-.39.227-.787.305-1.186v-.006c.086-.407.148-.82.195-1.234.04-.421.062-.85.062-1.28 0-.235-.008-.476-.022-.71Z" fill="currentColor"/></svg>