<svg xmlns="http://www.w3.org/2000/svg" width="24" height="24" fill="none" viewBox="0 0 24 24"><path fill="currentColor" fill-rule="evenodd" d="M15.279 5.955a2.51 2.51 0 0 0-2.097-1.876 2.2 2.2 0 0 0 1.032-1.865 2.213 2.213 0 1 0-4.427 0c0 .787.413 1.473 1.03 1.865A2.51 2.51 0 0 0 8.72 5.957L8.268 7.79a.614.614 0 0 0 .596.76h6.273c.398 0 .69-.374.595-.761zm8.25 15.451.453 1.832a.614.614 0 0 1-.596.762h-6.272a.614.614 0 0 1-.596-.761l.45-1.83a2.52 2.52 0 0 1 2.1-1.88 2.21 2.21 0 0 1-1.032-1.865 2.214 2.214 0 0 1 4.428 0 2.21 2.21 0 0 1-1.031 1.866 2.52 2.52 0 0 1 2.096 1.876M4.933 19.529c1.01.144 1.85.875 2.096 1.877l.453 1.832a.613.613 0 0 1-.595.761H.614a.614.614 0 0 1-.596-.76l.452-1.831a2.51 2.51 0 0 1 2.098-1.879 2.2 2.2 0 0 1-1.031-1.865 2.213 2.213 0 1 1 4.427 0c0 .787-.413 1.473-1.031 1.865m7.784-4.75 2.394 1.383a.749.749 0 1 1-.75 1.299l-2.394-1.382-2.395 1.382a.75.75 0 0 1-.75-1.299l2.395-1.382v-2.765a.75.75 0 1 1 1.5 0z" clip-rule="evenodd"/></svg>