<svg xmlns="http://www.w3.org/2000/svg" width="25" height="25" fill="none" viewBox="0 0 25 25"><path fill="currentColor" fill-rule="evenodd" d="m22.112 18.048-1.836-.494-4.402-4.4 2.601-2.603a5.31 5.31 0 0 0 4.904-1.436 5.33 5.33 0 0 0 1.316-5.384l-.387-1.224-3.349 3.35-1.503-.37-.37-1.504L22.433.637 21.208.252a5.31 5.31 0 0 0-5.373 1.315 5.32 5.32 0 0 0-1.436 4.907L13 7.871c-.464-.646-.542-1.118-.544-1.133l-.03-.274-5.23-5.23a4.23 4.23 0 0 0-5.97 0 4.227 4.227 0 0 0 .013 5.959l5.035 5.035.197.186.258.036c.025.004.497.08 1.14.542l-1.403 1.402a5.34 5.34 0 0 0-4.9 1.438A5.32 5.32 0 0 0 .25 21.217l.386 1.224 3.35-3.349 1.503.369.37 1.504-3.346 3.344 1.224.386a5.31 5.31 0 0 0 5.374-1.314 5.32 5.32 0 0 0 1.439-4.9l2.608-2.61 4.4 4.4.494 1.838 4.436 2.888L25 22.485z" clip-rule="evenodd"/></svg>