<svg xmlns="http://www.w3.org/2000/svg" width="25" height="24" fill="none" viewBox="0 0 25 24"><path fill="currentColor" fill-rule="evenodd" d="M23.569 4.763a1.897 1.897 0 0 0-2.67-.285l-.044.037-1.05-1.155q.027 0 .052-.007t.053-.008h.015c.3.023.57-.172.69-.45a.74.74 0 0 0-.143-.81L19.295.833A2.64 2.64 0 0 0 17.3.001c-1.14.037-2.317.787-3.501 2.227-.42.51-1.792 1.822-3.074 1.822h-.008c-.3.015-.577.18-.697.45-.12.278-.06.6.142.818l1.177 1.245c.51.54 1.185.84 1.905.84h.09c.15-.008.292-.023.442-.053l1.478 1.643L.707 20.617a1.905 1.905 0 0 0 .997 3.375q.102.01.203.008c.435 0 .855-.15 1.192-.42L23.291 7.44a1.93 1.93 0 0 0 .698-1.282 1.88 1.88 0 0 0-.42-1.395M17.9 6.87l-1.297-1.432q.057-.067.116-.131.06-.065.117-.132.006-.002.013-.016l.01-.014 1.349 1.485zm1.777-1.417-.3.24-1.41-1.56q.119-.083.24-.162l.083-.056zm-6.388.45c-.442-.015-.697-.195-.862-.368l-.255-.277c1.357-.533 2.422-1.65 2.774-2.093l.015.015c.87-1.065 1.717-1.657 2.384-1.68.413-.03.698.188.863.368l.255.27c-1.495.594-2.615 1.884-2.774 2.066l-.016.019c-.87 1.057-1.717 1.657-2.384 1.68m1.927.81q.158-.11.315-.233l1.2 1.335-.3.24zM8.626 3a1.125 1.125 0 1 0 0-2.25 1.125 1.125 0 0 0 0 2.25M9 7.875a2.625 2.625 0 1 1-5.25.001 2.625 2.625 0 0 1 5.25 0" clip-rule="evenodd"/></svg>