<svg xmlns="http://www.w3.org/2000/svg" width="25" height="25" fill="none" viewBox="0 0 25 25"><path fill="currentColor" d="M18.02.001a2.75 2.75 0 0 1 2.078.868l1.226 1.304a.77.77 0 0 1 .148.844c-.125.289-.406.491-.718.468h-.016c-.039 0-.07.016-.11.016l1.094 1.203.047-.04a1.976 1.976 0 0 1 2.78.298c.336.406.493.929.438 1.452a2 2 0 0 1-.726 1.337L3.228 24.56a2 2 0 0 1-1.242.44c-.07 0-.14 0-.21-.009a1.985 1.985 0 0 1-1.04-3.515L15.888 9.367l-1.538-1.71a3 3 0 0 1-.461.054h-.094a2.7 2.7 0 0 1-1.984-.875L10.585 5.54a.79.79 0 0 1-.148-.851c.125-.281.414-.453.726-.469h.008c1.336 0 2.765-1.367 3.202-1.898 1.234-1.5 2.46-2.28 3.648-2.32M6.64 5.471a2.734 2.734 0 1 1 0 5.468 2.734 2.734 0 0 1 0-5.469m9.209 1.522 1.265 1.397.313-.249-1.25-1.39c-.109.086-.219.164-.328.242m1.687-1.602c-.078.094-.164.18-.242.274l1.351 1.492.32-.25L17.56 5.36c-.008.008-.016.03-.024.03m.531-3.828c-.695.024-1.578.64-2.483 1.75l-.016-.015c-.367.46-1.476 1.625-2.89 2.18l.266.288c.172.18.438.367.898.383.695-.024 1.577-.649 2.483-1.75.07-.078 1.274-1.523 2.906-2.171l-.266-.282c-.171-.188-.468-.414-.898-.383m.648 2.743 1.47 1.624.311-.25-1.445-1.601c-.117.078-.226.148-.336.227M8.985.783a1.172 1.172 0 1 1 0 2.344 1.172 1.172 0 0 1 0-2.344"/></svg>