<svg width="24" height="24" viewBox="0 0 24 24" fill="none" xmlns="http://www.w3.org/2000/svg"><path fill-rule="evenodd" clip-rule="evenodd" d="M12 19.5c-1.5 0-4.058-.709-3.75-1.5l1.643-3.75c.18-.46.494-.75.982-.75h2.25c.488 0 .758.29.937.75L15.75 18c.307.791-2.039 1.5-3.75 1.5Zm10.003-1.662c-.634-.63-1.377-.815-2.317-.572-.458-1.218-2.083-5.101-2.651-6.63-.07-.188-.535-1.311-.535-3.136l3.196 1.493a.395.395 0 0 0 .374-.1l1.567-1.59a.385.385 0 0 0 .057-.476L19.5 2.625V.382A.376.376 0 0 0 19.125 0c-1.884 0-3.835.54-4.86 1.602C12.492 3.443 11.933 6.434 12 8.25H9.246c-.469 0-.6-.203-.912-.547a8.902 8.902 0 0 0-.275-.29l-.064-.067c-.377-.38-.893-.596-1.905-.596-1.738 0-2.303 1.708-2.34 3v2.554c0 .215.159.446.375.446.334 0 .41-.266.507-.46.504-1.023 1.297-1.007 1.908-1.152l-2.168 6.159c-.961-.259-1.717-.073-2.373.578-.849.853-.467 2.245.056 2.916.67.875 1.83 1.539 1.873 1.564C5.735 23.422 9.668 24 12.45 24c3.158 0 7.464-1.01 9.454-3.227l.018-.02c.426-.55 1.012-1.979.081-2.915Z" fill="currentColor"/></svg>