<svg xmlns="http://www.w3.org/2000/svg" width="24" height="24" fill="none" viewBox="0 0 24 24"><path fill="currentColor" fill-rule="evenodd" d="M16.5 18.375c0 .413-.33.75-.75.75a.75.75 0 0 1-.75-.75v-9c0-.412.337-.75.75-.75.42 0 .75.338.75.75zm-3.75 0c0 .413-.33.75-.75.75a.75.75 0 0 1-.75-.75v-9c0-.412.337-.75.75-.75.42 0 .75.338.75.75zM9 1.688c0-.112.046-.188.008-.188l5.932-.015a.33.33 0 0 1 .06.203V3.75H9zm0 16.687c0 .413-.33.75-.75.75a.75.75 0 0 1-.75-.75v-9c0-.412.337-.75.75-.75.42 0 .75.338.75.75zM21.75 3.75H16.5V1.688C16.5.758 15.832 0 15 0H9c-.825 0-1.5.758-1.5 1.688V3.75H2.25a.75.75 0 0 0-.75.75c0 .412.337.75.75.75h1.5v16.298C3.75 22.898 4.837 24 6.172 24h11.663c1.335 0 2.415-1.102 2.415-2.453V5.25h1.5c.42 0 .75-.338.75-.75s-.33-.75-.75-.75" clip-rule="evenodd"/></svg>