<svg width="24" height="24" viewBox="0 0 24 24" fill="none" xmlns="http://www.w3.org/2000/svg"><path d="m23.925 19.17-2.175-4.425V3.743c0-.825-.668-1.493-1.492-1.493H3.742c-.825 0-1.493.667-1.493 1.493v11.002L.075 19.17A.79.79 0 0 0 0 19.5v1.508A1.49 1.49 0 0 0 1.492 22.5h21.015c.825 0 1.493-.668 1.493-1.492V19.5a.79.79 0 0 0-.075-.33ZM9.75 7.5A2.247 2.247 0 0 1 12 5.25a2.247 2.247 0 0 1 1.553 3.877c1.267.36 2.197 1.508 2.197 2.873 0 .412-.338.75-.75.75H9a.752.752 0 0 1-.75-.75c0-1.365.93-2.512 2.197-2.873A2.26 2.26 0 0 1 9.75 7.5Zm-6.322 8.25h17.145l1.47 3H1.957l1.47-3Z" fill="currentColor"/></svg>