<svg xmlns="http://www.w3.org/2000/svg" width="24" height="24" fill="none" viewBox="0 0 24 24"><path fill="currentColor" d="m23.925 19.17-2.175-4.425V3.743c0-.825-.668-1.493-1.492-1.493H3.742c-.825 0-1.493.668-1.493 1.493v11.002L.075 19.17A.8.8 0 0 0 0 19.5v1.508c0 .825.668 1.492 1.493 1.492h21.015c.825 0 1.492-.668 1.492-1.492V19.5a.8.8 0 0 0-.075-.33M9.75 7.5A2.247 2.247 0 0 1 12 5.25a2.247 2.247 0 0 1 1.553 3.877c1.267.36 2.197 1.508 2.197 2.873 0 .412-.338.75-.75.75H9a.75.75 0 0 1-.75-.75c0-1.365.93-2.512 2.198-2.873A2.26 2.26 0 0 1 9.75 7.5m-6.322 8.25h17.145l1.47 3H1.957z"/></svg>