<svg width="24" height="24" viewBox="0 0 24 24" fill="none" xmlns="http://www.w3.org/2000/svg"><path fill-rule="evenodd" clip-rule="evenodd" d="M12 9a3 3 0 1 0 0 6 3 3 0 1 0 0-6Zm9.208 2.25c.26-.447.739-.75 1.292-.75a1.5 1.5 0 0 1 0 3 1.494 1.494 0 0 1-1.292-.75h-1.745a7.535 7.535 0 0 1-1.65 3.997l-.003.003 1.232 1.231a1.49 1.49 0 0 1 1.443.383 1.498 1.498 0 0 1 0 2.12 1.498 1.498 0 0 1-2.121 0 1.49 1.49 0 0 1-.383-1.442L16.75 17.81l-.003.003c-1.11.9-2.49 1.5-3.997 1.65v1.745c.447.26.75.739.75 1.292a1.5 1.5 0 0 1-3 0c0-.553.303-1.032.75-1.292v-1.745a7.535 7.535 0 0 1-3.997-1.65l-.003-.003-1.231 1.232a1.49 1.49 0 0 1-.383 1.443 1.498 1.498 0 0 1-2.12 0 1.498 1.498 0 0 1 0-2.121c.39-.392.943-.515 1.442-.383L6.19 16.75l-.003-.003c-.9-1.11-1.5-2.49-1.65-3.997H2.792c-.26.447-.738.75-1.292.75a1.5 1.5 0 0 1 0-3c.554 0 1.032.303 1.292.75h1.745a7.535 7.535 0 0 1 1.65-3.997l.003-.003-1.232-1.23a1.49 1.49 0 0 1-1.443-.383 1.498 1.498 0 0 1 0-2.12 1.498 1.498 0 0 1 2.121 0c.392.39.515.943.383 1.442L7.25 6.19l.003-.003c1.11-.9 2.49-1.5 3.997-1.65V2.792A1.494 1.494 0 0 1 10.5 1.5a1.5 1.5 0 0 1 3 0c0 .554-.303 1.032-.75 1.292v1.745c1.508.15 2.887.75 3.997 1.65l.003.003 1.231-1.232a1.49 1.49 0 0 1 .383-1.443 1.498 1.498 0 0 1 2.12 0 1.498 1.498 0 0 1 0 2.121c-.39.392-.943.515-1.442.383L17.81 7.25l.003.003c.9 1.11 1.5 2.49 1.65 3.997h1.745ZM13.5 12c0 .825-.675 1.5-1.5 1.5s-1.5-.675-1.5-1.5.675-1.5 1.5-1.5 1.5.675 1.5 1.5Z" fill="currentColor"/></svg>