<svg xmlns="http://www.w3.org/2000/svg" width="25" height="24" fill="none" viewBox="0 0 25 24"><path fill="currentColor" fill-rule="evenodd" d="M22.493.668A.747.747 0 0 0 21.75 0H12a.75.75 0 0 0-.742.66L10.11 9.75H2.025A2.026 2.026 0 0 0 0 11.775v10.2C0 23.092.908 24 2.025 24h10.2a2.026 2.026 0 0 0 2.025-2.025V15h9c.21 0 .42-.09.563-.248a.76.76 0 0 0 .187-.585zM21.9 9h-2.46l-.12-3h2.25zm-.502-4.5h-2.13l-.12-3h1.92zm-3.63 0h-1.83l.15-3h1.567l.12 3zm-3.188-3-.15 3h-2.152l.382-3zm-2.588 16.838c0 1.034-.817 1.882-1.83 1.882a1.82 1.82 0 0 1-1.53-.855l-.2-.348c-.47-.824-.678-1.19-1.72-1.31-.738-.085-1.058-.352-1.377-.619-.384-.32-.767-.64-1.877-.64-1.215 0-1.215-.84-1.215-.84q0-1.251 1.215-1.253l.12.001c.43.008 1.122.02 1.77-.601.405-.405.96-.66 1.567-.66.96 0 1.718.585 2.032 1.47 0 0 .376 1.635 1.823 2.092.705.263 1.223.863 1.223 1.68m.225-8.588h-.607L12.083 6h2.272l-.113 2.213c-.022.412.3.765.713.787h.037a.755.755 0 0 0 .75-.713L15.856 6h1.965l.12 3h-.698a.75.75 0 0 0-.75.75c0 .412.338.75.75.75H18l.12 3h-3.87v-1.725a2.026 2.026 0 0 0-2.025-2.025zm7.396 3.75-.12-3h2.572l.33 3zm-12.675 3a1.125 1.125 0 1 0 0-2.25 1.125 1.125 0 0 0 0 2.25m2.625 1.965c0-.36.292-.652.66-.652.36 0 .652.285.652.652a.65.65 0 0 1-.652.66.66.66 0 0 1-.66-.66" clip-rule="evenodd"/></svg>