<svg xmlns="http://www.w3.org/2000/svg" width="24" height="24" fill="none" viewBox="0 0 24 24"><path fill="currentColor" d="M13.5.668a1.935 1.935 0 0 0-2.925 0C8.947 2.64 3 10.875 3 15a9 9 0 0 0 18 0c0-4.125-5.948-12.36-7.5-14.332m-3.158 17.617a.75.75 0 0 1-.922 1.138.75.75 0 0 1-.263-.215c-1.62-2.123-.75-3.533-.045-4.568s1.028-1.597 0-2.955a.75.75 0 1 1 1.2-.892c1.613 2.19.698 3.622 0 4.665-.697 1.042-.937 1.552.03 2.827m3.75 0a.75.75 0 0 1-.923 1.138.75.75 0 0 1-.262-.215c-1.62-2.123-.712-3.533-.045-4.568.668-1.035 1.028-1.597.038-2.955a.75.75 0 1 1 1.2-.892c1.612 2.19.697 3.622 0 4.665-.698 1.042-.975 1.552-.008 2.827"/></svg>