<svg xmlns="http://www.w3.org/2000/svg" width="24" height="24" fill="none" viewBox="0 0 24 24"><path fill="currentColor" fill-rule="evenodd" d="M2.25 0h19.5c.413 0 .75.338.75.75v22.5c0 .413-.337.75-.75.75H2.25a.75.75 0 0 1-.75-.75V.75c0-.412.337-.75.75-.75m15 3.375a1.124 1.124 0 1 0-2.25 0c0 .623.502 1.125 1.125 1.125.622 0 1.125-.502 1.125-1.125m-12.375 10.5A7.13 7.13 0 0 0 12 21a7.13 7.13 0 0 0 7.125-7.125A7.13 7.13 0 0 0 12 6.75a7.13 7.13 0 0 0-7.125 7.125M18 3.375c0 .623.503 1.125 1.125 1.125s1.125-.502 1.125-1.125a1.124 1.124 0 1 0-2.25 0m-.45 11.355a9 9 0 0 0-.367-.195l-.023-.012c-.643-.348-1.199-.648-2.385-.648-1.193 0-1.756.304-2.404.654l-.01.006-.02.01c-.723.388-1.548.83-3.108.83-1.335 0-2.13-.322-2.79-.66.412 2.7 2.745 4.785 5.557 4.785s5.138-2.078 5.55-4.77" clip-rule="evenodd"/></svg>