<svg xmlns="http://www.w3.org/2000/svg" width="24" height="24" fill="none" viewBox="0 0 24 24"><path fill="currentColor" fill-rule="evenodd" d="M21.197 8.1h1.263V1.5h-1.263v.351l.001.004V8.1m-18.436 0H1.499V1.5h1.262zM20.91 0h1.838c.668 0 1.212.544 1.212 1.21v7.18c0 .667-.544 1.211-1.212 1.211H20.91a1.21 1.21 0 0 1-1.201-1.105h-6.3a.75.75 0 0 1-.565-1.243l1.165-1.332-1.78.015a.76.76 0 0 1-.728-.547l-.326-1.16-.878.615.413 1.585a.75.75 0 0 1-.178.702L9.477 8.258a.75.75 0 0 1-.547.237H4.25A1.21 1.21 0 0 1 3.05 9.6H1.21A1.213 1.213 0 0 1 0 8.389V1.21C0 .543.542 0 1.21 0h1.84a1.21 1.21 0 0 1 1.2 1.105h15.46A1.21 1.21 0 0 1 20.909 0m-8.932 19.571a3.516 3.516 0 0 0 3.511-3.51c0-1.312-1.425-3.578-2.617-5.25a1.11 1.11 0 0 0-.894-.457c-.351 0-.681.172-.892.457-1.193 1.672-2.617 3.938-2.617 5.25a3.514 3.514 0 0 0 3.51 3.51m4.91-6.277a.75.75 0 0 1 1.06 0 4.25 4.25 0 0 1 1.256 3.029c0 1.144-.446 2.22-1.255 3.028a.75.75 0 0 1-1.06 0 .75.75 0 0 1 0-1.06 2.77 2.77 0 0 0 .815-1.968c0-.743-.29-1.442-.816-1.968a.75.75 0 0 1 0-1.06m2.405-2.363a.75.75 0 0 0 0 1.061 6.13 6.13 0 0 1 0 8.662.75.75 0 1 0 1.06 1.06c2.974-2.973 2.974-7.81 0-10.782a.75.75 0 0 0-1.06 0M6.018 13.295a.75.75 0 1 1 1.06 1.06 2.79 2.79 0 0 0 0 3.937.75.75 0 1 1-1.06 1.06 4.287 4.287 0 0 1 0-6.057m-1.344-1.302a.75.75 0 1 0-1.06-1.06c-2.973 2.973-2.973 7.81 0 10.782a.75.75 0 0 0 1.06 0 .75.75 0 0 0 0-1.06 6.13 6.13 0 0 1 0-8.662" clip-rule="evenodd"/></svg>