<svg width="24" height="24" viewBox="0 0 24 24" fill="none" xmlns="http://www.w3.org/2000/svg"><path fill-rule="evenodd" clip-rule="evenodd" d="M16.971 8.25c-1.506 0-2.3-.73-2.939-1.318l-.003-.004C13.445 6.39 13.022 6 12.09 6c-.93 0-1.351.39-1.936.928-.638.59-1.433 1.322-2.94 1.322-1.506 0-2.3-.731-2.938-1.32l-.003-.002-.003-.002C3.69 6.389 3.267 6 2.337 6a.746.746 0 0 1-.743-.75c0-.414.332-.75.743-.75 1.509 0 2.303.733 2.94 1.322.585.539 1.007.928 1.937.928.93 0 1.352-.39 1.936-.927l.002-.002.002-.001c.637-.589 1.43-1.32 2.937-1.32s2.3.731 2.939 1.32l.002.002c.585.538 1.008.928 1.939.928.93 0 1.354-.39 1.938-.928l.002-.003c.639-.588 1.432-1.319 2.94-1.319.41 0 .743.336.743.75s-.332.75-.744.75c-.93 0-1.352.39-1.936.927l-.002.002-.003.003c-.64.588-1.432 1.318-2.938 1.318Zm0 6c-1.506 0-2.3-.73-2.939-1.318l-.003-.004C13.445 12.39 13.022 12 12.09 12c-.93 0-1.351.39-1.936.928-.638.59-1.433 1.322-2.94 1.322-1.506 0-2.3-.731-2.938-1.32l-.003-.002-.003-.002C3.69 12.389 3.267 12 2.337 12a.746.746 0 0 1-.743-.75c0-.414.332-.75.743-.75 1.509 0 2.303.733 2.94 1.322.585.539 1.007.928 1.937.928.93 0 1.352-.39 1.936-.927l.002-.002.002-.001c.637-.589 1.43-1.32 2.937-1.32s2.3.731 2.939 1.32l.002.002c.585.538 1.008.928 1.939.928.93 0 1.354-.39 1.938-.928l.002-.003c.639-.588 1.432-1.319 2.94-1.319.41 0 .743.336.743.75s-.332.75-.744.75c-.93 0-1.352.39-1.936.927l-.002.002-.003.003c-.64.588-1.432 1.318-2.938 1.318Zm-2.939 4.682c.64.588 1.433 1.318 2.939 1.318s2.299-.73 2.938-1.318l.004-.003.001-.002c.584-.538 1.006-.927 1.936-.927a.746.746 0 0 0 .744-.75.746.746 0 0 0-.744-.75c-1.507 0-2.3.731-2.939 1.32l-.002.002c-.584.538-1.007.928-1.938.928s-1.354-.39-1.938-.928l-.003-.003c-.639-.588-1.432-1.319-2.94-1.319-1.506 0-2.299.731-2.936 1.32l-.002.002-.002.001c-.584.538-1.006.927-1.936.927-.93 0-1.352-.39-1.936-.928-.638-.59-1.432-1.322-2.941-1.322a.746.746 0 0 0-.743.75c0 .414.332.75.743.75.93 0 1.352.389 1.934.926l.003.003.003.002c.638.588 1.432 1.319 2.937 1.319 1.508 0 2.303-.733 2.94-1.321h.001c.585-.54 1.006-.929 1.936-.929.931 0 1.354.39 1.938.928l.003.004Z" fill="currentColor"/></svg>