<svg width="24" height="25" viewBox="0 0 24 25" fill="none" xmlns="http://www.w3.org/2000/svg"><path d="m22.755 15.197-2.918-2.64a.788.788 0 0 0-.457-.194l-1.125-.068V7.502a.748.748 0 0 0-.675-.742.754.754 0 0 0-.81.592l-.817 3.855a.73.73 0 0 0 .06.488l.51 1.02-4.14 2.4a.748.748 0 0 0 .607 1.357l3.638-1.177-.278 7.215H8.97L8.302 9.13l4.726 2.782c.12.068.247.105.382.105a.739.739 0 0 0 .6-.3.75.75 0 0 0-.098-.997L10.26 7.36a.722.722 0 0 0-.465-.195l-1.59-.098V.752a.761.761 0 0 0-.675-.75.75.75 0 0 0-.81.593L5.692 5.5a.73.73 0 0 0 .06.487l.72 1.47-5.355 3.15a.74.74 0 0 0-.3.953.752.752 0 0 0 .915.405l4.68-1.545a.789.789 0 0 0 .233-.127l-.608 12.21H3a.752.752 0 0 0-.75.75c0 .412.337.75.75.75h18c.413 0 .75-.338.75-.75a.752.752 0 0 0-.75-.75h-2.468l-.314-8.22 3.66 2.115a.757.757 0 0 0 .982-.21.75.75 0 0 0-.105-.998v.008Z" fill="currentColor"/></svg>