<svg xmlns="http://www.w3.org/2000/svg" width="24" height="24" fill="none" viewBox="0 0 24 24"><path fill="currentColor" fill-rule="evenodd" d="M18.195 9.504a.75.75 0 0 0 1.11 0l3.826-4.211c1.155-1.205 1.155-3.165 0-4.369A2.93 2.93 0 0 0 21 0c-.808 0-1.565.33-2.132.925l-.117.123-.116-.123A2.93 2.93 0 0 0 16.5 0c-.809 0-1.566.33-2.132.923-1.155 1.205-1.155 3.165-.013 4.355zM15 13.5c0 1.655-1.345 3-3 3s-3-1.345-3-3c0-1.654 1.345-3 3-3s3 1.346 3 3m5.25-.75h3a.75.75 0 1 1 0 1.5h-2.398l-1.37 6.163a.753.753 0 0 1-1.148.461l-2.584-1.723v4.1A.75.75 0 0 1 15 24H9a.75.75 0 0 1-.75-.75v-4.1l-2.584 1.723a.75.75 0 0 1-1.149-.461L3.148 14.25H.75a.75.75 0 1 1 0-1.5h3a.75.75 0 0 1 .733.587l1.261 5.682 2.465-1.643a.75.75 0 0 1 .416-.126h6.75a.75.75 0 0 1 .416.126l2.465 1.643 1.261-5.682a.75.75 0 0 1 .733-.587m-15-10.5h-1.5V1.5h1.5zm3 7.5H.75A.75.75 0 0 1 0 9V3a.75.75 0 0 1 .75-.75h1.5V.75A.75.75 0 0 1 3 0h3a.75.75 0 0 1 .75.75v1.5h1.5A.75.75 0 0 1 9 3v6a.75.75 0 0 1-.75.75" clip-rule="evenodd"/></svg>