<svg width="24" height="24" viewBox="0 0 24 24" fill="none" xmlns="http://www.w3.org/2000/svg"><path fill-rule="evenodd" clip-rule="evenodd" d="M4 22h16V2H4v20ZM20.403 0H3.597C2.716 0 2 .716 2 1.597v20.806C2 23.284 2.716 24 3.597 24h16.806c.881 0 1.597-.716 1.597-1.597V1.597C22 .716 21.284 0 20.403 0ZM8 7.733h8V6H8v1.733Zm-1 2h10a1 1 0 0 0 1-1V5a1 1 0 0 0-1-1H7a1 1 0 0 0-1 1v3.733a1 1 0 0 0 1 1Zm1 4.263H7a1 1 0 1 1 0-2h1a1 1 0 1 1 0 2Zm9-2h-1a1 1 0 1 0 0 2h1a1 1 0 1 0 0-2Zm-5.5 0h1a1 1 0 1 1 0 2h-1a1 1 0 1 1 0-2Zm-4.5 5h1a1 1 0 1 0 0-2H7a1 1 0 1 0 0 2Zm9-2h1a1 1 0 1 1 0 2h-1a1 1 0 1 1 0-2Zm-3.5 0h-1a1 1 0 1 0 0 2h1a1 1 0 1 0 0-2Zm-4.5 5H7a1 1 0 1 1 0-2h1a1 1 0 1 1 0 2Zm9-2h-1a1 1 0 1 0 0 2h1a1 1 0 1 0 0-2Zm-5.5 0h1a1 1 0 1 1 0 2h-1a1 1 0 1 1 0-2Z" fill="currentColor"/></svg>