<svg width="24" height="24" viewBox="0 0 24 24" fill="none" xmlns="http://www.w3.org/2000/svg"><path d="M19.438 6.607a7.463 7.463 0 0 0-2.457-4.716 7.494 7.494 0 0 0-9.955 0 7.463 7.463 0 0 0-2.458 4.716 5.506 5.506 0 0 0-3.422 2.057 5.483 5.483 0 0 0 .639 7.402 5.51 5.51 0 0 0 3.724 1.444 1.003 1.003 0 0 0 1.01-.79.996.996 0 0 0-.01-.458.997.997 0 0 0 0-.25V7.515c0-1.456.58-2.853 1.613-3.883a5.51 5.51 0 0 1 7.783 0 5.485 5.485 0 0 1 1.612 3.883v11.163c0 .499-.198.977-.55 1.331a1.893 1.893 0 0 1-1.331.556h-.35a2.446 2.446 0 0 0-2.282-1.557h-2.131a2.454 2.454 0 0 0-1.724.716 2.444 2.444 0 0 0-.718 1.72v.12c.003.645.26 1.263.718 1.72a2.454 2.454 0 0 0 1.724.716h2.131a2.436 2.436 0 0 0 2.222-1.438h.4a3.897 3.897 0 0 0 2.746-1.141 3.88 3.88 0 0 0 1.136-2.743V17.43a5.516 5.516 0 0 0 3.233-1.907 5.494 5.494 0 0 0-.04-7.046 5.516 5.516 0 0 0-3.253-1.87h-.01Zm-14.93 8.756a3.49 3.49 0 0 1 0-6.7v6.7Zm8.926 6.2a.44.44 0 0 1-.43.44h-2.131a.44.44 0 0 1-.44-.44v-.12a.439.439 0 0 1 .44-.438h2.131a.441.441 0 0 1 .44.439l-.01.12Zm6.064-6.19v-6.71a3.49 3.49 0 0 1 0 6.71Z" fill="currentColor"/></svg>