<svg width="24" height="24" viewBox="0 0 24 24" fill="none" xmlns="http://www.w3.org/2000/svg"><path fill-rule="evenodd" clip-rule="evenodd" d="M20.843 2.25H3.157a.907.907 0 0 0-.907.907v17.686c0 .5.406.907.907.907h17.686a.907.907 0 0 0 .907-.907V3.157a.906.906 0 0 0-.907-.907Zm-5.834 14.724-.04 2.518a.407.407 0 0 1-.413.402h-2.472a.409.409 0 0 1-.412-.402v-2.518h-.01v-.813c0-.876-.731-1.59-1.627-1.59H9.16c-.898 0-1.628.714-1.628 1.59h-.017v3.33a.408.408 0 0 1-.412.404H4.63a.408.408 0 0 1-.412-.403V4.507c0-.22.185-.401.412-.401h2.473c.228 0 .412.181.412.402v7.071a5.077 5.077 0 0 1 1.645-.274h.837v-.01c.9 0 1.628-.713 1.628-1.587l.053-.815a.409.409 0 0 1 .405-.334h2.472a.41.41 0 0 1 .406.335h.01v.814a4.77 4.77 0 0 1-1.242 3.206 4.78 4.78 0 0 1 1.279 3.247v.813Zm2.834-9.485-.606.593a.81.81 0 0 1-1.129.004l-.1-.098a.764.764 0 0 1 .005-1.1l.565-.554.038-.037a.214.214 0 0 1 .296 0l.077.076c.081.08.088.211.006.292l-.605.59a.25.25 0 0 0 0 .361l.1.098c.102.099.27.102.371.002l.606-.592a.216.216 0 0 1 .297.004l.076.075c.082.08.085.208.003.286Zm0-2.421-.076.074a.218.218 0 0 1-.3.006l-.603-.592a.27.27 0 0 0-.371 0l-.1.098a.257.257 0 0 0-.002.364l.605.59c.082.08.078.21-.004.29l-.075.076a.21.21 0 0 1-.294.002l-.607-.591a.766.766 0 0 1-.003-1.103l.1-.097a.81.81 0 0 1 1.128.005l.565.552.037.036c.082.08.082.21 0 .29Zm2.152 2.918-.099.096a.81.81 0 0 1-1.13-.004l-.565-.552-.038-.037a.2.2 0 0 1 0-.288l.077-.075c.081-.079.217-.086.298-.006l.606.59c.101.1.269.1.37 0l.1-.096a.253.253 0 0 0 .002-.364l-.605-.591a.202.202 0 0 1 .003-.29l.078-.074a.21.21 0 0 1 .292-.004l.607.592a.766.766 0 0 1 .004 1.103Zm.002-2.596-.567.552-.038.036a.215.215 0 0 1-.296 0l-.077-.076a.205.205 0 0 1-.005-.291l.606-.591a.251.251 0 0 0 0-.36l-.1-.099a.27.27 0 0 0-.373-.001l-.604.59a.213.213 0 0 1-.297-.004l-.077-.073a.199.199 0 0 1-.004-.287l.606-.593a.813.813 0 0 1 1.13-.003l.098.096a.767.767 0 0 1-.002 1.104Z" fill="currentColor"/></svg>