<svg width="24" height="24" viewBox="0 0 24 24" fill="none" xmlns="http://www.w3.org/2000/svg"><path d="M22.425 2.25c0-.075 0-.075 0 0-.15-.3-.375-.525-.6-.6-.15-.15-.3-.15-.45-.15h-6.75c-.6 0-1.125.525-1.125 1.125s.525 1.125 1.125 1.125h4.05l-5.55 5.55c-.45.45-.45 1.125 0 1.575.225.225.525.3.825.3.3 0 .6-.075.825-.3l5.475-5.55v4.05c0 .6.525 1.125 1.125 1.125S22.5 9.975 22.5 9.375v-6.75c0-.15 0-.3-.075-.375ZM9.3 13.05l-5.55 5.625v-4.05c0-.6-.525-1.125-1.125-1.125S1.5 14.025 1.5 14.625v6.75c0 .15 0 .3.075.375.15.3.3.525.6.6.15.15.3.15.45.15h6.75c.6 0 1.125-.525 1.125-1.125s-.525-1.125-1.125-1.125h-4.05l5.55-5.55c.45-.45.45-1.125 0-1.575A1.16 1.16 0 0 0 9.3 13.05Z" fill="currentColor"/></svg>