<svg width="24" height="24" viewBox="0 0 24 24" fill="none" xmlns="http://www.w3.org/2000/svg"><path fill-rule="evenodd" clip-rule="evenodd" d="M17.55 18.33h-4.86a.747.747 0 0 1-.75-.75c0-.413.33-.75.75-.75h4.86c.413 0 .75.337.75.75s-.337.75-.75.75Zm-4.897-7.522h4.867c.413 0 .75.337.75.75 0 .419-.337.75-.75.75h-4.867a.748.748 0 0 1-.75-.75c0-.413.337-.75.75-.75Zm-2.003.217-2.146 2.137a.73.73 0 0 1-.532.217.718.718 0 0 1-.525-.217l-1.29-1.283a.756.756 0 0 1 0-1.064.757.757 0 0 1 1.065 0l.75.757L9.585 9.96a.755.755 0 0 1 1.065 0 .757.757 0 0 1 0 1.065Zm-.247 7.417a.749.749 0 0 1 0 1.058.732.732 0 0 1-1.058 0l-.862-.862-.863.862a.744.744 0 0 1-.532.224.727.727 0 0 1-.525-.224.735.735 0 0 1 0-1.058l.855-.862-.855-.862a.735.735 0 0 1 0-1.059.748.748 0 0 1 1.057 0l.863.864.862-.864a.748.748 0 0 1 1.058 1.059l-.864.862.864.862ZM8.372 3.313l1.903.032c.413 0 .75-.338.75-.75a1.092 1.092 0 1 1 2.183 0c0 .412.337.75.75.75h1.908v2.2l-7.494-.033V3.313Zm12.11-1.468h-5.88A2.605 2.605 0 0 0 12.12 0c-1.178 0-2.167.78-2.49 1.845H3.75a.752.752 0 0 0-.75.75v20.648c0 .419.338.75.75.75h16.733c.412 0 .75-.331.75-.75V2.595a.752.752 0 0 0-.75-.75Z" fill="currentColor"/></svg>