<svg width="24" height="24" viewBox="0 0 24 24" fill="none" xmlns="http://www.w3.org/2000/svg"><path fill-rule="evenodd" clip-rule="evenodd" d="M16.105 15.203a.752.752 0 0 1-.2.702l-7.684 7.746a1.176 1.176 0 0 1-.837.349H2.25a.75.75 0 0 1-.727-.935l1.223-4.79c.215-1.088 1.024-2.026 2.155-2.47l4.302-1.415.238-.713c-1.417-.791-2.487-2.296-2.487-3.82v-.321C6.452 9.313 6 8.846 6 8.036v-.911c0-.907.437-1.324.895-1.513-.082-.76-.14-1.885.625-2.746.627-.702 1.623-1.044 3.048-1.044 3.21 0 4.067-1.351 4.116-1.433A.747.747 0 0 1 15.34 0a.75.75 0 0 1 .518.207c1.029.982 2.496 3.288 1.513 5.607.357.261.628.683.628 1.311v.91c0 .811-.451 1.278-.954 1.5v.322c0 1.524-1.07 3.029-2.487 3.82l.238.715.815.272a.75.75 0 0 1 .493.539Zm4.94.591 1.297-1.296c.106.277.158.57.158.877A2.628 2.628 0 0 1 19.875 18a2.59 2.59 0 0 1-.873-.161l-5.831 5.831a1.122 1.122 0 0 1-1.592 0 1.124 1.124 0 0 1 0-1.59l5.832-5.832a2.582 2.582 0 0 1-.161-.873 2.628 2.628 0 0 1 2.625-2.625c.308 0 .6.053.878.158l-1.298 1.297a1.117 1.117 0 0 0 0 1.59c.218.218.51.33.795.33.285 0 .577-.112.795-.33Z" fill="currentColor"/></svg>