<svg width="24" height="24" viewBox="0 0 24 24" fill="none" xmlns="http://www.w3.org/2000/svg"><path fill-rule="evenodd" clip-rule="evenodd" d="M23.738 9.77c-.693-.56-3.133-2.474-5.635-3.308a26.963 26.963 0 0 0-5.557-1.211c-.03 0-.061-.008-.085-.008a.763.763 0 0 0-.754.599l-.035.163c-1.365-.19-1.807-.734-2.303-1.357C8.783 3.913 8.052 3 6 3 4.15 3 3 4.437 3 6.75c0 2.514 2.286 4.066 4.497 5.567 1.93 1.311 3.753 2.55 3.753 4.183 0 1.12-.292 3-2.25 3-1.788 0-2.33-1.902-2.469-3.498-.104-1.196-.585-2.154-1.427-2.85C3.387 11.738.783 11.99.671 12.005a.748.748 0 0 0-.667.822.764.764 0 0 0 .821.67c.02-.003 2.102-.199 3.328.818.526.435.814 1.03.883 1.818C5.306 19.225 6.75 21 8.999 21c2.765 0 3.75-2.325 3.75-4.5 0-2.429-2.242-3.951-4.41-5.424-1.975-1.34-3.84-2.606-3.84-4.326 0-1.027.26-2.25 1.5-2.25 1.332 0 1.676.431 2.197 1.084.577.721 1.283 1.596 3.167 1.889l-.099.466a.735.735 0 0 0 .552.856l3.932 1.02c1.111.287 1.244.598 1.414.997.14.332.319.746.957 1.086.73.384 2.059 1.1 2.72 1.447l.093.052a.802.802 0 0 0 1.003-.2l1.911-2.422a.726.726 0 0 0-.108-1.005Z" fill="currentColor"/></svg>