<svg width="24" height="24" viewBox="0 0 24 24" fill="none" xmlns="http://www.w3.org/2000/svg"><path fill-rule="evenodd" clip-rule="evenodd" d="M13.763 9.88c.42 0 .75.33.75.75 0 .412-.33.749-.75.749H8.701c-.06.405-.06.81 0 1.215h5.062c.42 0 .75.338.75.75 0 .413-.33.75-.75.75h-4.53c.172.285.367.562.608.81a4.126 4.126 0 0 0 4.191 1.005 3.955 3.955 0 0 0 1.028-.51.75.75 0 0 1 .84 1.237 5.57 5.57 0 0 1-1.403.698 5.613 5.613 0 0 1-5.715-1.373 5.649 5.649 0 0 1-1.236-1.867H5.888a.752.752 0 0 1-.75-.75c0-.412.337-.75.75-.75h1.29a5.486 5.486 0 0 1 0-1.215h-1.29a.752.752 0 0 1-.75-.75c0-.42.337-.75.75-.75h1.658c.277-.682.69-1.32 1.236-1.867a5.634 5.634 0 0 1 7.118-.69.748.748 0 0 1 .202 1.042.75.75 0 0 1-1.042.203 4.124 4.124 0 0 0-5.22.502c-.24.248-.435.525-.607.81h4.53Zm10.236 2.106c0-.315-.127-.622-.366-.832l-1.935-1.77.795-2.497c.097-.3.06-.63-.098-.9a1.124 1.124 0 0 0-.736-.54l-2.565-.555-.555-2.565a1.12 1.12 0 0 0-.54-.735 1.111 1.111 0 0 0-.9-.098l-2.497.795-1.77-1.935c-.42-.472-1.237-.472-1.664 0L9.405 2.29l-2.498-.795a1.11 1.11 0 0 0-.899.098 1.124 1.124 0 0 0-.54.735l-.563 2.565-2.558.555a1.135 1.135 0 0 0-.734.532 1.133 1.133 0 0 0-.097.908l.794 2.497-1.942 1.77a1.13 1.13 0 0 0-.368.832c0 .316.136.615.368.833l1.942 1.762-.794 2.498c-.098.3-.06.63.097.907.158.27.427.465.734.533l2.558.562.562 2.558c.068.307.264.577.533.735.278.157.608.195.907.097l2.498-.795 1.763 1.943c.217.232.517.367.832.367.323 0 .622-.135.833-.367l1.77-1.943 2.496.795c.308.098.631.06.909-.097.27-.158.464-.428.531-.735l.555-2.558 2.565-.562c.308-.068.579-.263.736-.533.158-.277.195-.607.098-.907l-.795-2.498 1.934-1.762c.24-.218.367-.518.367-.833Z" fill="currentColor"/></svg>