<svg width="24" height="24" viewBox="0 0 24 24" fill="none" xmlns="http://www.w3.org/2000/svg"><path d="M23.544 5.405c-.758-1.648-2.37-2.862-4.791-3.551-1.964-.555-3.606-.338-4.888.63-1.68 1.28-2.25 3.573-2.49 5.072a2.58 2.58 0 0 0-.479.09c-.1-.086-.185-.19-.247-.307-.24-.457-.15-1.207.27-2.353 1.087-2.96-.263-4.114-1.163-4.541a5.535 5.535 0 0 0-4.348 0c-1.65.78-2.864 2.39-3.553 4.81-.555 1.964-.338 3.605.63 4.886 1.281 1.679 3.575 2.248 5.067 2.48a3.5 3.5 0 0 0 .098.488c-.086.1-.19.184-.308.247-.457.24-1.207.15-2.354-.27C2.027 12 .872 13.348.445 14.248a5.528 5.528 0 0 0 0 4.346c.75 1.67 2.37 2.862 4.798 3.552a7.663 7.663 0 0 0 2.002.3 4.688 4.688 0 0 0 2.886-.93c1.68-1.281 2.25-3.567 2.49-5.073.162-.015.322-.045.48-.09.1.086.184.19.247.308.24.457.15 1.206-.27 2.352-1.072 2.96.277 4.114 1.177 4.541a5.529 5.529 0 0 0 4.348 0c1.672-.749 2.864-2.367 3.554-4.795.554-1.964.337-3.605-.63-4.886-1.282-1.678-3.576-2.248-5.068-2.48a3.497 3.497 0 0 0-.098-.487c.087-.101.19-.185.308-.248.457-.24 1.207-.15 2.354.27 2.961 1.072 4.116-.277 4.543-1.176a5.527 5.527 0 0 0-.022-4.347ZM13.31 14.69c-.404.204-.851.31-1.304.307a3 3 0 0 1-2.692-1.694A2.854 2.854 0 0 1 9.007 12 2.996 2.996 0 0 1 10.7 9.31c.404-.205.851-.31 1.305-.308a3 3 0 0 1 2.691 1.694c.205.404.31.85.307 1.304a2.996 2.996 0 0 1-1.694 2.69Z" fill="currentColor"/></svg>