<svg width="24" height="24" viewBox="0 0 24 24" fill="none" xmlns="http://www.w3.org/2000/svg"><path fill-rule="evenodd" clip-rule="evenodd" d="m17.327 19.869-.098-.006a.9.9 0 0 0-.828.552l-.878 2.076a.533.533 0 0 0 .679.707 12.026 12.026 0 0 0 3.64-2.189.534.534 0 0 0-.303-.93l-2.212-.21Zm-10.7.204a.903.903 0 0 0-.848-.622l-2.104-.025h-.007a.532.532 0 0 0-.49.324.528.528 0 0 0 .104.579 11.953 11.953 0 0 0 3.25 2.391.523.523 0 0 0 .584-.072.533.533 0 0 0 .162-.57l-.651-2.005Zm16.344-9.09a.535.535 0 0 0 .864-.482 11.828 11.828 0 0 0-1.138-3.76.515.515 0 0 0-.505-.293.533.533 0 0 0-.475.349l-.677 1.849a.903.903 0 0 0 .283 1.013l1.648 1.324Zm-3.366-.644-2.648 1.018a.904.904 0 0 0-.533.558l-1.207 3.622a.913.913 0 0 0 .06.714l1.051 1.954a.9.9 0 0 0 .721.475c.131.009 3.387.333 4.018.4l.067.002a.907.907 0 0 0 .764-.402 11.75 11.75 0 0 0 1.917-4.975.92.92 0 0 0-.333-.844c-.916-.726-2.986-2.382-2.986-2.382a.913.913 0 0 0-.89-.14Zm-5.236 6.665a.902.902 0 0 0-.785-.475l-3.573-.043a.907.907 0 0 0-.71.337c-.249.309-1.621 1.98-1.666 2.264a1.055 1.055 0 0 0-.011.253c.018.254.126.49.202.732.325 1.033.683 2.049 1.01 3.07.1.31.365.544.687.61.801.164 1.603.248 2.385.248.402 0 .819-.026 1.272-.077a.91.91 0 0 0 .737-.557c.46-1.118 1.524-3.65 1.524-3.649a.9.9 0 0 0-.036-.78l-1.036-1.933Zm-5.986-.886a.9.9 0 0 0 .153-.845L7.43 11.865a.9.9 0 0 0-.605-.59l-2.63-.773a.904.904 0 0 0-.83.172l-2.95 2.453a.929.929 0 0 0-.313.86 11.834 11.834 0 0 0 1.3 3.777c.158.293.46.479.786.483l4.002.052a.906.906 0 0 0 .71-.337l1.484-1.844ZM3.715 8.794a.895.895 0 0 0 .585.533l3.003.885a.898.898 0 0 0 .785-.133l2.833-2.04a.904.904 0 0 0 .376-.769l-.127-3.192a.901.901 0 0 0-.375-.699L7.783 1.21a.914.914 0 0 0-.921-.085l-.004.002a12.055 12.055 0 0 0-4.323 3.438.913.913 0 0 0-.136.903l1.316 3.327Zm7.597-6.47a.572.572 0 0 0 .685-.007l1.677-1.257a.531.531 0 0 0 .193-.563.528.528 0 0 0-.441-.392 11.382 11.382 0 0 0-3.549.073.533.533 0 0 0-.215.957l1.65 1.19Zm1.144 4.966c.01.278.153.541.38.702l2.998 2.129a.91.91 0 0 0 .847.105l2.585-.992a.907.907 0 0 0 .523-.534l1.341-3.656a.917.917 0 0 0-.173-.915A12.187 12.187 0 0 0 16.522.94a.944.944 0 0 0-.903.106l-2.932 2.202a.906.906 0 0 0-.36.757l.129 3.286Zm-.02 1.838a.915.915 0 0 0-1.05.004l-2.405 1.733a.906.906 0 0 0-.332 1.012l.922 2.833a.9.9 0 0 0 .848.624l2.977.035a.905.905 0 0 0 .862-.616l.956-2.867a.9.9 0 0 0-.334-1.022l-2.444-1.736ZM.903 7.31c.084-.199.288-.345.495-.322.218.002.41.134.49.334l.676 1.698a.899.899 0 0 1-.261 1.029l-1.43 1.186a.531.531 0 0 1-.593.059.527.527 0 0 1-.277-.522c.127-1.19.43-2.356.9-3.462Z" fill="currentColor"/></svg>