<svg width="25" height="24" viewBox="0 0 25 24" fill="none" xmlns="http://www.w3.org/2000/svg"><path fill-rule="evenodd" clip-rule="evenodd" d="M12.157 8.377c.413 0 .75.33.75.75 0 .413-.337.75-.75.75h-5.07c-.06.405-.06.81 0 1.215h5.07c.413 0 .75.338.75.75 0 .413-.337.75-.75.75H7.62c.172.285.367.563.615.81a4.121 4.121 0 0 0 4.192 1.005 4.03 4.03 0 0 0 1.02-.51.75.75 0 0 1 1.043.203.742.742 0 0 1-.203 1.035 5.56 5.56 0 0 1-1.402.697 5.6 5.6 0 0 1-1.748.279 5.626 5.626 0 0 1-5.205-3.519h-1.65a.747.747 0 0 1-.75-.75c0-.412.33-.75.75-.75h1.283a5.485 5.485 0 0 1 0-1.215H4.283a.747.747 0 0 1-.75-.75c0-.42.33-.75.75-.75h1.65a5.624 5.624 0 0 1 8.355-2.557.75.75 0 0 1 .202 1.042.749.749 0 0 1-1.043.203 4.115 4.115 0 0 0-5.212.502 4.199 4.199 0 0 0-.615.81h4.537ZM23.67 22.081l-5.025-5.026a10.463 10.463 0 0 0 2.325-6.57C20.97 4.704 16.267 0 10.485 0 4.702 0 0 4.703 0 10.486 0 16.268 4.702 20.97 10.485 20.97c2.482 0 4.77-.878 6.57-2.325l5.025 5.026a1.135 1.135 0 0 0 .795.329 1.135 1.135 0 0 0 .795-.33 1.118 1.118 0 0 0 0-1.59Z" fill="currentColor"/></svg>