<svg width="24" height="24" viewBox="0 0 24 24" fill="none" xmlns="http://www.w3.org/2000/svg"><path fill-rule="evenodd" clip-rule="evenodd" d="m17.512 9.51-1.551 1.553.097.104a1.181 1.181 0 0 1 0 1.665l-.983.983a3.911 3.911 0 0 1-2.752 1.14c-.706 0-1.41-.195-2.01-.586l-1.876 1.875a.766.766 0 0 1-.532.218.784.784 0 0 1-.533-.218.756.756 0 0 1 0-1.064l1.875-1.875a3.716 3.716 0 0 1-.614-2.01 3.68 3.68 0 0 1 1.087-2.67l1.065-1.065a1.192 1.192 0 0 1 1.673 0l.097.105 1.553-1.56a.756.756 0 0 1 1.064 0 .745.745 0 0 1 0 1.058l-1.56 1.56 1.284 1.282 1.559-1.56a.746.746 0 0 1 1.058 0 .756.756 0 0 1 0 1.065Zm2.438-7.418c-3.142 0-4.08-.622-4.905-1.177C14.37.465 13.68 0 12.225 0c-1.454 0-2.152.464-2.827.915-.825.555-1.763 1.177-4.898 1.177-.42 0-.75.338-.75.75V13.83a7.353 7.353 0 0 0 2.782 5.79l5.228 4.155a.72.72 0 0 0 .465.165.72.72 0 0 0 .465-.165l5.228-4.156A7.353 7.353 0 0 0 20.7 13.83V2.842a.752.752 0 0 0-.75-.75Z" fill="currentColor"/></svg>