<svg width="24" height="24" viewBox="0 0 24 24" fill="none" xmlns="http://www.w3.org/2000/svg"><path fill-rule="evenodd" clip-rule="evenodd" d="M14.078 8.04a1.84 1.84 0 0 0-1.83-1.838 1.841 1.841 0 0 0-1.839 1.838v1.418h3.668V8.04Zm-2.58 4.822c0-.412.33-.75.75-.75.411 0 .75.338.75.75v.923c0 .412-.339.75-.75.75a.747.747 0 0 1-.75-.75v-.923Zm-2.19 2.828h5.872v-4.732H9.308v4.732Zm7.372.75c0 .412-.33.75-.75.75H8.558a.752.752 0 0 1-.75-.75v-6.232c0-.42.337-.75.75-.75h.351V8.04c0-1.838 1.5-3.338 3.338-3.338s3.33 1.5 3.33 3.338v1.418h.353c.42 0 .75.33.75.75v6.232ZM19.988 2.1c-3.15 0-4.088-.63-4.913-1.185C14.4.465 13.703 0 12.248 0c-1.464 0-2.16.465-2.835.915C8.588 1.47 7.643 2.1 4.499 2.1a.753.753 0 0 0-.75.75v11.01a7.359 7.359 0 0 0 2.791 5.805l5.235 4.17a.76.76 0 0 0 .473.165c.165 0 .33-.053.465-.164l5.235-4.171a7.358 7.358 0 0 0 2.79-5.805V2.85a.748.748 0 0 0-.75-.75Zm-5.91 5.94a1.84 1.84 0 0 0-1.83-1.838 1.841 1.841 0 0 0-1.839 1.838v1.418h3.668V8.04Zm-1.08 5.745c0 .412-.339.75-.75.75a.747.747 0 0 1-.75-.75v-.923c0-.412.33-.75.75-.75.411 0 .75.338.75.75v.923Zm-3.69 1.905h5.872v-4.732H9.308v4.732Zm3.69-1.905c0 .412-.339.75-.75.75a.747.747 0 0 1-.75-.75v-.923c0-.412.33-.75.75-.75.411 0 .75.338.75.75v.923Zm-3.69 1.905h5.872v-4.732H9.308v4.732Zm2.94-9.488a1.841 1.841 0 0 0-1.839 1.838v1.418h3.668V8.04a1.84 1.84 0 0 0-1.83-1.838Z" fill="currentColor"/></svg>