<svg width="24" height="24" viewBox="0 0 24 24" fill="none" xmlns="http://www.w3.org/2000/svg"><path fill-rule="evenodd" clip-rule="evenodd" d="M20.838 22.5H3.162A1.664 1.664 0 0 1 1.5 20.838V8.25h21v12.588c0 .916-.745 1.662-1.662 1.662ZM3.162 3H5.25v.75a.75.75 0 1 0 1.5 0V3h10.5v.75a.75.75 0 1 0 1.5 0V3h2.088c.916 0 1.662.745 1.662 1.662V6.75h-21V4.662C1.5 3.745 2.246 3 3.162 3Zm17.676-1.5H18.75V.75a.75.75 0 1 0-1.5 0v.75H6.75V.75a.75.75 0 1 0-1.5 0v.75H3.162A3.166 3.166 0 0 0 0 4.662v16.176A3.166 3.166 0 0 0 3.162 24h17.676A3.166 3.166 0 0 0 24 20.838V4.662A3.166 3.166 0 0 0 20.838 1.5ZM6.75 11.25h-1.5a.75.75 0 0 0-.75.75v1.5c0 .415.335.75.75.75h1.5a.75.75 0 0 0 .75-.75V12a.75.75 0 0 0-.75-.75Zm4.5 0h1.5a.75.75 0 0 1 .75.75v1.5a.75.75 0 0 1-.75.75h-1.5a.75.75 0 0 1-.75-.75V12a.75.75 0 0 1 .75-.75Zm7.5 0h-1.5a.75.75 0 0 0-.75.75v1.5c0 .415.335.75.75.75h1.5a.75.75 0 0 0 .75-.75V12a.75.75 0 0 0-.75-.75ZM5.25 16.5h1.5a.75.75 0 0 1 .75.75v1.5a.75.75 0 0 1-.75.75h-1.5a.75.75 0 0 1-.75-.75v-1.5a.75.75 0 0 1 .75-.75Zm7.5 0h-1.5a.75.75 0 0 0-.75.75v1.5c0 .415.335.75.75.75h1.5a.75.75 0 0 0 .75-.75v-1.5a.75.75 0 0 0-.75-.75Zm4.5 0h1.5a.75.75 0 0 1 .75.75v1.5a.75.75 0 0 1-.75.75h-1.5a.75.75 0 0 1-.75-.75v-1.5a.75.75 0 0 1 .75-.75Z" fill="currentColor"/></svg>