<svg width="24" height="24" viewBox="0 0 24 24" fill="none" xmlns="http://www.w3.org/2000/svg"><path fill-rule="evenodd" clip-rule="evenodd" d="M11.8 12.85a.752.752 0 0 1 .734.903c-.397 1.906.616 2.902 1.689 3.957.622.612 1.21 1.19 1.502 1.94.33.842.29 1.655.124 2.33 1.553-.744 3.714-2.442 3.65-6.11-.035-1.944-1.226-3.535-2.734-5.549-1.557-2.08-3.46-4.62-4.353-8.258C7.092 6.231 4.5 10.753 4.5 15.857c0 3.672 2.3 5.355 4.006 6.1-.4-.88-.724-2.033-.617-3.347.168-2.045 1.327-3.928 3.447-5.599a.747.747 0 0 1 .464-.16Zm2.655 11.148a.75.75 0 0 1-.598-1.203c.017-.021.97-1.32.471-2.6-.175-.45-.652-.92-1.156-1.415-.832-.819-1.892-1.86-2.162-3.438-.983 1.074-1.53 2.21-1.626 3.39-.187 2.283 1.349 3.993 1.364 4.01a.751.751 0 0 1-.661 1.248C10.016 23.98 3 22.88 3 15.859 3 9.95 6.095 4.81 12.461.145a.751.751 0 0 1 1.182.478c.675 3.928 2.613 6.516 4.323 8.8 1.537 2.053 2.989 3.992 3.032 6.421.121 6.876-6.343 8.13-6.408 8.143a.818.818 0 0 1-.134.011Z" fill="currentColor"/></svg>