<svg width="24" height="24" viewBox="0 0 24 24" fill="none" xmlns="http://www.w3.org/2000/svg"><path fill-rule="evenodd" clip-rule="evenodd" d="M20.19 14.823a1.13 1.13 0 0 1 .313-1.173L22.319 12l-1.814-1.648a1.13 1.13 0 0 1-.314-1.176l.745-2.334-2.394-.522a1.133 1.133 0 0 1-.86-.858l-.523-2.397-2.334.745a1.127 1.127 0 0 1-1.175-.313L12 1.683l-1.65 1.813a1.124 1.124 0 0 1-1.175.314l-2.334-.745-.522 2.395a1.125 1.125 0 0 1-.859.86l-2.396.522.746 2.334c.134.418.01.879-.314 1.175L1.682 12l1.814 1.648c.324.297.447.758.314 1.175l-.746 2.335 2.395.522c.43.092.768.43.86.861l.522 2.394 2.334-.746a1.122 1.122 0 0 1 1.178.318L12 22.318l1.65-1.813a1.125 1.125 0 0 1 1.17-.316l2.338.747.522-2.395c.095-.431.433-.769.863-.86l2.392-.522-.746-2.336Zm3.442-3.655a1.126 1.126 0 0 1 0 1.664l-1.94 1.765.797 2.5c.096.3.061.63-.096.903a1.13 1.13 0 0 1-.736.537l-2.563.559-.557 2.562a1.13 1.13 0 0 1-.535.733c-.273.16-.6.196-.905.1l-2.5-.799-1.765 1.94a1.126 1.126 0 0 1-1.663 0l-1.767-1.94-2.497.798a1.124 1.124 0 0 1-1.442-.833l-.558-2.562-2.563-.559a1.126 1.126 0 0 1-.832-1.438l.798-2.5-1.94-1.765a1.13 1.13 0 0 1 0-1.665l1.94-1.764-.797-2.499a1.127 1.127 0 0 1 .832-1.442l2.562-.558.559-2.563a1.124 1.124 0 0 1 1.441-.831l2.498.797 1.765-1.94c.423-.467 1.238-.468 1.664 0l1.764 1.94 2.5-.797a1.127 1.127 0 0 1 1.441.832l.557 2.562 2.564.558a1.127 1.127 0 0 1 .83 1.442l-.796 2.499 1.94 1.764ZM16.099 8.38a.752.752 0 0 1-1.041.202 4.124 4.124 0 0 0-5.217.504c-.245.246-.44.52-.612.807h4.535a.75.75 0 1 1 0 1.5h-5.07c-.06.405-.06.814 0 1.218h5.07a.75.75 0 1 1 0 1.5H9.229c.171.285.366.56.611.805a4.112 4.112 0 0 0 4.193 1.007 4.07 4.07 0 0 0 1.023-.51.751.751 0 0 1 .84 1.243 5.608 5.608 0 0 1-1.4.693 5.599 5.599 0 0 1-5.716-1.373 5.586 5.586 0 0 1-1.236-1.865H5.888a.75.75 0 1 1 0-1.5H7.17a5.708 5.708 0 0 1 0-1.218H5.888a.75.75 0 1 1 0-1.5h1.656A5.592 5.592 0 0 1 8.78 8.026a5.63 5.63 0 0 1 7.116-.687.75.75 0 0 1 .202 1.04Z" fill="currentColor"/></svg>