<svg width="24" height="24" viewBox="0 0 24 24" fill="none" xmlns="http://www.w3.org/2000/svg"><path fill-rule="evenodd" clip-rule="evenodd" d="M15.827 11.079c2.005 1.425 2.79 2.814 3.045 3.909.732-.84 1.448-1.941 1.372-3.059-.063-.946-.699-1.855-1.887-2.701L14.6 6.553c-2.004-1.426-2.789-2.814-3.045-3.909-.73.84-1.448 1.942-1.372 3.06.064.945.7 1.854 1.888 2.7l3.757 2.675Zm3.4-3.073c1.573 1.12 2.419 2.405 2.514 3.822.166 2.461-2.023 4.512-2.959 5.388l-.216.204a.751.751 0 0 1-1.19-.878c.029-.065.831-1.93-2.419-4.242L11.2 9.626C9.627 8.506 8.78 7.22 8.686 5.804c-.166-2.46 2.022-4.511 2.956-5.387l.218-.205a.752.752 0 0 1 1.192.877c-.03.066-.832 1.93 2.417 4.242l3.758 2.675Zm-9.826 9.441c2.005 1.426 2.789 2.814 3.045 3.909.731-.84 1.448-1.942 1.372-3.06-.064-.945-.7-1.854-1.887-2.7l-3.758-2.675c-2.005-1.425-2.789-2.813-3.045-3.909-.73.84-1.448 1.941-1.372 3.059.063.947.699 1.856 1.888 2.702L9.4 17.447ZM9.043 11.7l3.758 2.674c1.572 1.12 2.418 2.405 2.513 3.822.166 2.46-2.022 4.511-2.956 5.387l-.218.205a.75.75 0 0 1-1.192-.877c.03-.066.833-1.93-2.417-4.242l-3.757-2.675c-1.574-1.12-2.42-2.405-2.515-3.822-.166-2.461 2.023-4.512 2.959-5.388l.216-.204a.75.75 0 0 1 1.191.878c-.03.065-.832 1.93 2.418 4.242Z" fill="currentColor"/></svg>