<svg width="24" height="24" viewBox="0 0 24 24" fill="none" xmlns="http://www.w3.org/2000/svg"><path fill-rule="evenodd" clip-rule="evenodd" d="M12 1.5C6.21 1.5 1.5 6.21 1.5 12S6.21 22.5 12 22.5 22.5 17.79 22.5 12 17.79 1.5 12 1.5ZM12 24C5.383 24 0 18.616 0 12 0 5.383 5.383 0 12 0c6.616 0 12 5.383 12 12 0 6.616-5.384 12-12 12Zm1.037-7.077c.008.383-.195.75-.532.945a1.05 1.05 0 0 1-1.08-.015 1.056 1.056 0 0 1 .57-1.958c.57.008 1.027.458 1.042 1.028Zm1.898-5.505c.51-.457.817-1.087.885-1.77a3.45 3.45 0 0 0-.21-1.627 2.983 2.983 0 0 0-1.853-1.732 4.658 4.658 0 0 0-3.63.18A3.248 3.248 0 0 0 8.545 8.05a4.424 4.424 0 0 0-.375 1.777c-.008.075.038.075.09.075h1.777c.09.008.135-.022.135-.112a3.17 3.17 0 0 1 .075-.458c.09-.45.383-.825.795-1.027a2.473 2.473 0 0 1 1.92-.075c.645.24.9.735.765 1.41-.075.398-.27.765-.555 1.05-.337.352-.69.682-1.05 1.012a2.914 2.914 0 0 0-.87 1.366 6.317 6.317 0 0 0-.157 1.544c-.008.053.022.068.075.068h1.59c.06 0 .075-.03.075-.082l.01-.113c.006-.068.012-.135.012-.202.008-.3.06-.6.158-.886a2.25 2.25 0 0 1 .72-.907l.232-.201c.33-.284.659-.568.968-.872Z" fill="currentColor"/></svg>