<svg width="25" height="24" viewBox="0 0 25 24" fill="none" xmlns="http://www.w3.org/2000/svg"><path fill-rule="evenodd" clip-rule="evenodd" d="M20.187 14.996c-2.058 2.058-4.25 2.341-7.117 2.516-1.595.087-3.1.17-4.118 1.188l-.14.14-1.294-1.295 6.348-6.349 1.433.159.199 1.79a.75.75 0 0 0 1.491-.165l-.264-2.387a.751.751 0 0 0-.663-.663l-1.792-.199-.198-1.79a.751.751 0 0 0-.663-.664l-2.387-.265a.761.761 0 0 0-.828.663.751.751 0 0 0 .663.829l1.79.197.159 1.434-6.349 6.35-1.296-1.297.14-.14c1.007-1.007 1.095-2.45 1.199-4.121.175-2.873.458-5.066 2.514-7.121A7.842 7.842 0 0 1 14.592 1.5h.006a7.869 7.869 0 0 1 5.588 2.314A7.877 7.877 0 0 1 22.5 9.41a7.842 7.842 0 0 1-2.314 5.587ZM3.951 22.187 1.815 20.05a1.07 1.07 0 0 1-.003-1.512l.331-.332 3.652 3.651-.332.332a1.07 1.07 0 0 1-1.512-.002Zm1.973-4.114.002.003.003.002 1.823 1.823-.897.896-3.651-3.652.897-.895 1.823 1.823ZM21.247 2.754l-.001-.002A9.357 9.357 0 0 0 14.599 0h-.006a9.339 9.339 0 0 0-6.64 2.744c-2.419 2.42-2.768 5.096-2.95 8.092-.091 1.478-.157 2.546-.762 3.15l-2.626 2.627-.002.002-.001.002-.86.86a2.57 2.57 0 0 0 .002 3.634l2.137 2.137A2.56 2.56 0 0 0 4.71 24c.658 0 1.315-.25 1.815-.75l3.49-3.49c.57-.57 1.566-.664 3.143-.751 2.994-.183 5.67-.529 8.09-2.95a9.332 9.332 0 0 0 2.754-6.65 9.366 9.366 0 0 0-2.754-6.655Z" fill="currentColor"/></svg>