<svg width="24" height="24" viewBox="0 0 24 24" fill="none" xmlns="http://www.w3.org/2000/svg"><path fill-rule="evenodd" clip-rule="evenodd" d="M22.125 19.241a.376.376 0 0 0 .375-.375V5.626a.376.376 0 0 0-.375-.375H1.875a.376.376 0 0 0-.375.375v13.24c0 .206.17.375.375.375h20.25ZM1.875 3.751h20.25c1.034 0 1.875.84 1.875 1.875v13.24c0 1.034-.84 1.875-1.875 1.875H1.875A1.877 1.877 0 0 1 0 18.866V5.626C0 4.592.841 3.75 1.875 3.75Zm18.602 4.87-4.393 3.796 4.395 3.821a.751.751 0 0 1-.492 1.317.747.747 0 0 1-.492-.185l-4.557-3.962-2.59 2.239a.398.398 0 0 1-.087.052l-.039.02-.029.019c-.017.011-.034.023-.053.03a.741.741 0 0 1-.283.06.742.742 0 0 1-.283-.06.262.262 0 0 1-.051-.03l-.03-.019-.038-.019a.404.404 0 0 1-.088-.053l-2.59-2.239-4.558 3.962a.748.748 0 0 1-1.058-.073.75.75 0 0 1 .074-1.059l4.395-3.82L3.237 8.62a.749.749 0 1 1 .98-1.135l7.64 6.602 7.64-6.602a.75.75 0 1 1 .98 1.135Z" fill="currentColor"/></svg>