<svg width="24" height="24" viewBox="0 0 24 24" fill="none" xmlns="http://www.w3.org/2000/svg"><path fill-rule="evenodd" clip-rule="evenodd" d="M12.09 18.75A6.757 6.757 0 0 1 5.34 12a6.757 6.757 0 0 1 6.75-6.75A6.757 6.757 0 0 1 18.84 12a6.757 6.757 0 0 1-6.75 6.75Zm11.16-7.5h-2.948a8.202 8.202 0 0 0-1.919-4.573l2.102-2.101a.75.75 0 1 0-1.06-1.06l-2.108 2.107a8.206 8.206 0 0 0-4.567-1.84V.75a.75.75 0 1 0-1.5 0v3.043a8.21 8.21 0 0 0-4.483 1.914L4.575 3.515a.75.75 0 1 0-1.06 1.06l2.198 2.198a8.208 8.208 0 0 0-1.835 4.477H.75a.75.75 0 1 0 0 1.5h3.128a8.21 8.21 0 0 0 1.835 4.477l-2.198 2.197a.75.75 0 0 0 1.06 1.06l2.192-2.19a8.21 8.21 0 0 0 4.483 1.913v3.043a.75.75 0 1 0 1.5 0v-3.034a8.206 8.206 0 0 0 4.567-1.839l2.108 2.108a.746.746 0 0 0 1.06 0 .749.749 0 0 0 0-1.06l-2.102-2.102a8.202 8.202 0 0 0 1.919-4.573h2.948a.75.75 0 1 0 0-1.5Z" fill="currentColor"/></svg>