<svg width="24" height="24" viewBox="0 0 24 24" fill="none" xmlns="http://www.w3.org/2000/svg"><path fill-rule="evenodd" clip-rule="evenodd" d="M11.998 22.5c3.016 0 7.074-.958 8.684-2.73.235-.325.471-1.178.177-1.513a.324.324 0 0 1-.029-.034c-.249-.296-.778-.67-1.813-.275a.748.748 0 0 1-.983-.48c-.064-.209-1.584-5.13-2.135-7.44-.16-.667-.152-2.237-.15-2.544a.75.75 0 0 1 .916-.724l2.973.671.435-.435-1.981-3.636a.747.747 0 0 1-.091-.358V1.534c-1.306.12-2.333.563-3.06 1.32-1.06 1.109-1.546 2.91-1.443 5.357a.751.751 0 0 1-.749.781H9.741c-.883 0-1.256-.024-1.964-.596a3.901 3.901 0 0 1-.258-.239L7.51 8.15c-.287-.28-.676-.659-1.139-.659-.953 0-1.11.421-1.124 1.425l-.001 1.272c.973-.612 2.07-.59 2.545-.384a.75.75 0 0 1 .417.926l-2.251 6.753a.747.747 0 0 1-.97.468c-.543-.198-1.27-.228-1.686.138a.296.296 0 0 1-.005.006l-.005.006-.053.056-.087.094c-.332.354-.062 1.3.152 1.577.493.65 1.417 1.192 1.475 1.226l.002.002c1.411.839 4.442 1.443 7.217 1.443Zm10-5.22.003.003c.93 1.082.367 2.76-.146 3.424l-.025.03a4.257 4.257 0 0 1-.008.01C19.69 23.133 14.78 24 11.998 24c-2.506 0-6.07-.516-7.973-1.648-.037-.021-1.22-.703-1.912-1.61-.537-.694-1.02-2.453-.078-3.493.604-.743 1.633-1.07 2.72-.901l1.695-5.086c-.378.123-.82.405-1.13 1.036a.812.812 0 0 1-.919.431.84.84 0 0 1-.655-.819l.002-3.012c.024-1.929.907-2.907 2.624-2.907 1.078 0 1.804.71 2.195 1.093l.002.002.038.037a1.636 1.636 0 0 0 .136.124c.302.245.307.249.967.244h2.274C12 5.005 12.63 3.1 13.858 1.817 15.013.611 16.66 0 18.75 0a.75.75 0 0 1 .751.75v2.06l2.16 3.96a.751.751 0 0 1-.129.89l-1.126 1.125a.752.752 0 0 1-.695.201l-2.45-.553c.014.519.045 1.027.098 1.246.419 1.756 1.447 5.179 1.895 6.649 1.572-.282 2.464.608 2.742.95l.003.002Zm-9.944.717c.443.008 1.663.002 2.08-.421a.36.36 0 0 0 .11-.222l-.97-2.858a.39.39 0 0 0-.355-.25h-1.886c-.16 0-.302.106-.365.273l-.917 2.833a.348.348 0 0 0 .103.223c.189.193.714.422 2.144.422h.056Zm.865-5.253c.789 0 1.483.489 1.768 1.246l1.024 3.015a.766.766 0 0 1 .038.232 1.904 1.904 0 0 1-.547 1.394c-.832.84-2.358.867-3.078.867h-.126c-1.098 0-2.457-.099-3.214-.872-.36-.366-.546-.848-.537-1.393a.765.765 0 0 1 .037-.218l.968-2.991c.297-.791.993-1.28 1.78-1.28h1.887Z" fill="currentColor"/></svg>