<svg width="24" height="24" viewBox="0 0 24 24" fill="none" xmlns="http://www.w3.org/2000/svg"><path fill-rule="evenodd" clip-rule="evenodd" d="M18.375 19.5a4.13 4.13 0 0 1-4.124-4.106l.049-.626a4.128 4.128 0 0 1 4.075-3.517c1.511 0 2.831.82 3.55 2.034l.258.509c.204.487.317 1.021.317 1.58a4.13 4.13 0 0 1-4.125 4.126Zm-12.75 0A4.13 4.13 0 0 1 1.5 15.375a4.1 4.1 0 0 1 .317-1.581l.258-.507a4.122 4.122 0 0 1 3.55-2.036A4.13 4.13 0 0 1 9.7 14.767l.05.627A4.13 4.13 0 0 1 5.624 19.5Zm.521-14.227c.02-.043.445-1 1.62-.717 1.136.276 1.227 1.087 1.236 1.288l.422 5.395A5.6 5.6 0 0 0 5.625 9.75a5.57 5.57 0 0 0-1.93.349l2.451-4.827ZM11.231 15a5.758 5.758 0 0 0-.038-.38l-.028-.37h1.67l-.029.371a6.29 6.29 0 0 0-.037.379H11.23Zm-.655-8.25h2.846l-.469 6h-1.906l-.47-6Zm5.658-2.194c1.104-.27 1.547.556 1.641.764l2.43 4.779a5.583 5.583 0 0 0-1.93-.348 5.598 5.598 0 0 0-3.8 1.488L15 5.803c.007-.16.098-.972 1.234-1.247Zm7.311 8.606v-.002l-.007-.013a5.397 5.397 0 0 0-.29-.569l-4.014-7.89c-.318-.754-1.433-2.057-3.354-1.59-1.518.37-2.128 1.42-2.309 2.167a.176.176 0 0 1-.032-.007.128.128 0 0 0-.039-.007h-3a.135.135 0 0 0-.041.007c-.012.003-.023.007-.035.008-.19-.772-.804-1.803-2.303-2.167-1.93-.467-3.037.835-3.334 1.542L.752 12.578a5.623 5.623 0 0 0-.29.569l-.007.013v.002A5.608 5.608 0 0 0 0 15.375 5.63 5.63 0 0 0 5.625 21a5.635 5.635 0 0 0 5.512-4.5h1.726a5.635 5.635 0 0 0 5.512 4.5A5.63 5.63 0 0 0 24 15.375c0-.785-.163-1.533-.454-2.213Zm-17.92-1.161a.75.75 0 1 0 0 1.499c1.034 0 1.875.84 1.875 1.875a.75.75 0 1 0 1.5 0A3.378 3.378 0 0 0 5.625 12Zm12 .749a.75.75 0 0 1 .75-.75 3.378 3.378 0 0 1 3.375 3.375.75.75 0 1 1-1.5 0c0-1.034-.84-1.875-1.875-1.875a.75.75 0 0 1-.75-.75Z" fill="currentColor"/></svg>