<svg width="24" height="24" viewBox="0 0 24 24" fill="none" xmlns="http://www.w3.org/2000/svg"><path fill-rule="evenodd" clip-rule="evenodd" d="m23.175 4.177.023.06h-.008a.78.78 0 0 1 .052.263v9c0 .262-.142.51-.367.645l-3.735 2.242a.562.562 0 0 1-.15.075.314.314 0 0 1-.112.03c-.046.015-.09.015-.136.015a.766.766 0 0 1-.375-.105h-.007l-3.75-2.25-3.75-2.25a.743.743 0 0 1-.367-.645v-4.5a.74.74 0 0 1 .052-.262l.011-.03a.799.799 0 0 1 .154-.24.098.098 0 0 1 .023-.015.863.863 0 0 1 .127-.105l7.5-4.5a.751.751 0 0 1 .773 0l3.75 2.242a.92.92 0 0 1 .127.105.108.108 0 0 0 .022.015c.06.06.105.135.143.21Zm-2.13.315L18.75 3.12l-6.045 3.622L15 8.115l6.045-3.623ZM14.25 9.42 12 8.07v2.752l2.25 1.35V9.42Zm2.205 4.08 1.545.922v-1.845l-1.545.923Zm3.045.918V11.25a.744.744 0 0 0-.383-.653.76.76 0 0 0-.757.008l-2.617 1.567V9.42l6-3.6v7.252L19.5 14.418Zm-6.217.057a.81.81 0 0 1 .142.21l-.015.008.011.03a.78.78 0 0 1 .064.293v4.5c0 .014-.004.027-.008.04a.145.145 0 0 0-.007.042 1.062 1.062 0 0 1-.03.15.638.638 0 0 1-.043.094l-.017.033a.977.977 0 0 1-.075.113.505.505 0 0 1-.112.105c-.03.022-.068.06-.068.06l-3.75 2.25a.15.15 0 0 1-.06.03.774.774 0 0 1-.322.082.774.774 0 0 1-.255-.052c-.012-.004-.023-.01-.034-.015a.168.168 0 0 0-.034-.015c-.015-.015-.06-.03-.06-.03l-7.5-4.5a.142.142 0 0 1-.041-.035.15.15 0 0 0-.026-.025c-.038-.03-.075-.068-.113-.105-.022-.028-.04-.06-.057-.09a.665.665 0 0 1-.078-.159l-.005-.016a.462.462 0 0 1-.025-.133c0-.03-.015-.082-.015-.082v-9a.744.744 0 0 1 .064-.293l.011-.03a.799.799 0 0 1 .143-.21C.975 7.718.99 7.71.99 7.71a.863.863 0 0 1 .127-.105L4.86 5.348a.751.751 0 0 1 .772 0l3.75 2.25c.046.03.09.067.128.105a.108.108 0 0 0 .023.015.799.799 0 0 1 .153.24.78.78 0 0 1 .064.293v4.072l3.383 2.032c.045.03.09.068.127.105a.098.098 0 0 0 .023.015ZM4.5 10.928l-2.25-1.35v7.26l6 3.6v-2.753l-3.383-2.032a.863.863 0 0 1-.127-.105.102.102 0 0 0-.022-.015.799.799 0 0 1-.143-.21l-.011-.03A.78.78 0 0 1 4.5 15v-4.072ZM6 13.68l2.25-1.35V9.578L6 10.928v2.752Zm6 2.648-2.25 1.35v2.752L12 19.08v-2.752Zm-5.295-1.32L9 16.38l2.295-1.372L9 13.635l-2.295 1.373Zm.84-6.758L5.25 6.878 2.955 8.25 5.25 9.623 7.545 8.25Z" fill="currentColor"/></svg>