<svg width="24" height="24" viewBox="0 0 24 24" fill="none" xmlns="http://www.w3.org/2000/svg"><path fill-rule="evenodd" clip-rule="evenodd" d="M5.085 8.82A7.03 7.03 0 0 1 12 3c2.152 0 4.125.967 5.422 2.55l-1.071 1.072A5.483 5.483 0 0 0 12 4.5c-2.894 0-5.317 2.265-5.505 5.152l-.053.802-.795-.112c-.006 0-.013 0-.02-.002a4.623 4.623 0 0 0-.444-.027A3.684 3.684 0 0 0 1.5 13.994a3.683 3.683 0 0 0 3.683 3.676h.12l-1.35 1.35C1.688 18.464 0 16.423 0 13.993A5.176 5.176 0 0 1 5.085 8.82Zm4.463 8.85h8.542c2.43 0 4.41-1.98 4.41-4.418a4.41 4.41 0 0 0-4.14-4.395L9.548 17.67ZM21.563 5.655l-1.897 1.897c2.497.698 4.334 2.993 4.334 5.7 0 3.263-2.647 5.918-5.91 5.918H8.048l-2.349 2.347a.752.752 0 0 1-1.056 0 .748.748 0 0 1 0-1.057v-.008L20.498 4.597a.747.747 0 0 1 1.057 0h.008a.746.746 0 0 1 0 1.058Z" fill="currentColor"/></svg>