<svg width="25" height="24" viewBox="0 0 25 24" fill="none" xmlns="http://www.w3.org/2000/svg"><path fill-rule="evenodd" clip-rule="evenodd" d="M20.92 22.5c-.87 0-1.583-.712-1.583-1.582 0-.443.188-.848.488-1.133l.375 1.335a.745.745 0 0 0 .922.517.748.748 0 0 0 .518-.922l-.375-1.335a1.583 1.583 0 0 1 1.237 1.538c0 .87-.712 1.582-1.582 1.582Zm-1.883-11.438a.752.752 0 0 1-.127-1.057l.63-.795h-.87a.756.756 0 0 1-.668-.405.767.767 0 0 1 .053-.78l1.402-1.98a.755.755 0 0 1 1.05-.18.752.752 0 0 1 .18 1.042l-.57.803h.96c.292 0 .555.165.675.42a.734.734 0 0 1-.082.787l-1.583 2.018a.738.738 0 0 1-.585.285.757.757 0 0 1-.465-.158ZM3.564 21.669h1.358a1.56 1.56 0 0 1-1.38.832 1.58 1.58 0 0 1-1.575-1.582c0-.871.705-1.583 1.575-1.583.6 0 1.117.345 1.387.832H3.564a.752.752 0 0 0-.75.75c0 .42.338.75.75.75Zm17.355-3.833c-.03 0-.052.008-.082.015l-1.35-4.785 3.232-.907a1.314 1.314 0 0 0 .9-1.613l-1.642-5.827a1.323 1.323 0 0 0-.615-.788 1.306 1.306 0 0 0-.99-.113l-3.233.908-1.02-3.637A1.5 1.5 0 0 0 14.687 0h-2.018a.752.752 0 0 0-.75.75c0 .42.338.75.75.75l2.003-.008 1.23 4.358 1.942 6.9.818 2.924-4.38 4.389a.357.357 0 0 1-.255.105H8.814c-.367-2.58-2.587-4.583-5.272-4.583a5.38 5.38 0 0 0-3.248 1.11.751.751 0 0 0-.142 1.05c.255.33.727.39 1.057.135a3.86 3.86 0 0 1 2.333-.795 3.838 3.838 0 0 1 3.757 3.082h-.78a3.08 3.08 0 0 0-2.977-2.332 3.086 3.086 0 0 0-3.075 3.082A3.08 3.08 0 0 0 3.542 24a3.08 3.08 0 0 0 2.977-2.332h7.508c.495 0 .96-.188 1.312-.54l3.795-3.796.255.93a3.065 3.065 0 0 0-1.552 2.655 3.082 3.082 0 1 0 3.082-3.082Z" fill="currentColor"/></svg>