<svg width="24" height="24" viewBox="0 0 24 24" fill="none" xmlns="http://www.w3.org/2000/svg"><path fill-rule="evenodd" clip-rule="evenodd" d="M8.126 13.335h10.74c.038-.39.075-1.05.075-1.335 0-4.095-2.31-7.5-7.072-7.5-4.178 0-7.365 3.194-7.365 7.5 0 4.35 3.187 7.5 7.402 7.5 3.15 0 5.13-1.118 6.847-3.188l-2.602-2.032c-.803 1.335-2.603 2.175-4.245 2.175-1.838 0-3.488-1.365-3.78-3.12ZM20.441 12c0 .36-.046 1.088-.083 1.477a1.507 1.507 0 0 1-1.117 1.313l.434.338c.323.254.525.622.571 1.027.044.405-.083.802-.337 1.117C17.756 19.852 15.287 21 11.905 21c-5.078 0-8.902-3.87-8.902-9s3.81-9 8.864-9c5.123 0 8.573 3.622 8.573 9ZM8.246 10.755h7.215C15.318 8.647 14.006 7.5 11.996 7.5c-1.965 0-3.39 1.358-3.75 3.255Z" fill="currentColor"/></svg>