<svg width="24" height="24" viewBox="0 0 24 24" fill="none" xmlns="http://www.w3.org/2000/svg"><path d="M23.544 5.408c-.758-1.65-2.37-2.864-4.791-3.546-1.964-.555-3.606-.345-4.88.63-1.867 1.394-2.392 3.988-2.55 5.45a1.5 1.5 0 0 1-.682-.6c-.24-.465-.157-1.214.27-2.346 1.095-2.962-.255-4.124-1.155-4.55a5.533 5.533 0 0 0-4.348 0c-1.65.779-2.864 2.39-3.553 4.812-.555 1.964-.338 3.606.637 4.888 1.394 1.859 3.988 2.384 5.45 2.541a1.5 1.5 0 0 1-.6.682c-.464.24-1.214.158-2.346-.27-2.969-1.094-4.124.255-4.55 1.155a5.532 5.532 0 0 0 0 4.348c.749 1.672 2.368 2.864 4.797 3.553a7.63 7.63 0 0 0 2.002.3 4.603 4.603 0 0 0 2.879-.937c1.844-1.394 2.384-3.988 2.541-5.45a1.5 1.5 0 0 1 .683.6c.24.465.157 1.214-.27 2.346-1.072 2.962.277 4.124 1.177 4.55A5.344 5.344 0 0 0 16.42 24a5.247 5.247 0 0 0 2.182-.458c1.672-.75 2.864-2.369 3.554-4.798.554-1.956.337-3.605-.638-4.88-1.394-1.844-3.988-2.391-5.45-2.549a1.5 1.5 0 0 1 .6-.674c.465-.24 1.214-.158 2.346.27 3 1.087 4.124-.255 4.551-1.155a5.532 5.532 0 0 0-.022-4.348Zm-11.538 8.846a2.25 2.25 0 1 1 0-4.499 2.25 2.25 0 0 1 0 4.499ZM3.684 9.239c-.675-.885-.802-2.084-.383-3.561.563-1.987 1.5-3.276 2.73-3.846a4.049 4.049 0 0 1 3.08 0c.323.15 1.17.555.39 2.669-.397 1.064-.75 2.436-.194 3.56.168.318.397.598.674.825a3.749 3.749 0 0 0-1.641 2.37c-1.155-.143-3.532-.533-4.656-2.017Zm5.555 11.087c-.885.675-2.084.802-3.561.383-1.987-.563-3.276-1.5-3.846-2.73a4.048 4.048 0 0 1 0-3.08c.15-.315.555-1.17 2.669-.39 1.065.397 2.429.75 3.554.195.32-.166.603-.396.832-.675a3.75 3.75 0 0 0 2.369 1.642c-.143 1.154-.532 3.53-2.017 4.655Zm11.088-5.555c.675.885.802 2.084.383 3.561-.563 1.987-1.5 3.276-2.73 3.846a4.012 4.012 0 0 1-3.08 0c-.323-.15-1.17-.555-.39-2.669.397-1.064.75-2.436.194-3.553a2.646 2.646 0 0 0-.674-.832 3.746 3.746 0 0 0 1.642-2.362c1.154.135 3.53.525 4.655 2.01Zm1.882-5.66c-.15.323-.555 1.17-2.669.39-1.064-.397-2.429-.75-3.553-.195a2.657 2.657 0 0 0-.833.675 3.749 3.749 0 0 0-2.361-1.642c.105-1.154.495-3.53 1.979-4.655.885-.675 2.084-.803 3.561-.383 1.987.563 3.276 1.5 3.846 2.73.416.982.427 2.09.03 3.08Z" fill="currentColor"/></svg>