<svg width="24" height="24" viewBox="0 0 24 24" fill="none" xmlns="http://www.w3.org/2000/svg"><path fill-rule="evenodd" clip-rule="evenodd" d="M6.75 12a.751.751 0 0 0 .521-1.29C5.968 9.452 5.25 7.778 5.25 6c0-1.777.718-3.451 2.021-4.71A.75.75 0 1 0 6.23.21C4.63 1.757 3.75 3.813 3.75 6s.88 4.244 2.479 5.79a.75.75 0 0 0 .521.21Zm1.739-2.076a.745.745 0 0 0 1.06-.038.749.749 0 0 0-.038-1.06C8.697 8.068 8.251 7.064 8.251 6s.446-2.068 1.26-2.826a.749.749 0 1 0-1.022-1.098C7.368 3.122 6.75 4.515 6.75 6c0 1.485.618 2.878 1.739 3.924ZM20.25 20.25v.755L22.5 21v-4.5h-21V21l12.75.02v-.77a.75.75 0 1 1 1.5 0v.766l.75-.002v-.764a.75.75 0 1 1 1.5 0v.76l.75-.001v-.76a.75.75 0 1 1 1.5 0ZM12.75 6a.75.75 0 0 0-1.5 0 .748.748 0 0 0 .742.745.025.025 0 0 1 .008-.001l.008.001.007.002A.748.748 0 0 0 12.75 6Zm0 9h9.799c.8 0 1.451.65 1.451 1.451v4.598c0 .8-.651 1.45-1.451 1.45h-.799v.75a.75.75 0 1 1-1.5 0v-.75H3.75v.75a.75.75 0 1 1-1.5 0v-.75h-.799A1.45 1.45 0 0 1 0 21.05v-4.6C0 15.651.651 15 1.451 15h9.799V8.112A2.247 2.247 0 0 1 9.75 6c0-1.24 1.01-2.25 2.25-2.25S14.25 4.76 14.25 6c0 .976-.63 1.801-1.5 2.112V15ZM3 18.75a1.5 1.5 0 1 1 3.001.001A1.5 1.5 0 0 1 3 18.75Zm12-8.625a.75.75 0 0 1-.51-1.298c.813-.759 1.26-1.763 1.26-2.827 0-1.065-.447-2.068-1.261-2.826a.75.75 0 1 1 1.022-1.098C16.633 3.121 17.25 4.515 17.25 6c0 1.485-.617 2.878-1.739 3.924a.748.748 0 0 1-.511.2Zm1.729.586C18.032 9.45 18.75 7.777 18.75 6c0-1.777-.718-3.451-2.021-4.71A.75.75 0 0 1 17.77.21c1.6 1.547 2.48 3.603 2.48 5.79s-.88 4.244-2.479 5.79a.75.75 0 1 1-1.042-1.08Z" fill="currentColor"/></svg>