<svg width="24" height="24" viewBox="0 0 24 24" fill="none" xmlns="http://www.w3.org/2000/svg"><path fill-rule="evenodd" clip-rule="evenodd" d="M22.5 19.502c0 .826-.673 1.499-1.5 1.499H5.597c.257-.442.403-.954.403-1.5V3.013L22.5 3v16.503ZM3 21c-.01 0-.02.003-.029.005a.094.094 0 0 1-.024.006.07.07 0 0 1-.025-.006c-.009-.002-.018-.005-.029-.005C2.1 21 1.5 20.357 1.5 19.5v-9.007h3v9.008C4.5 20.328 3.827 21 3 21ZM23.78 1.719a.752.752 0 0 0-.53-.22l-18 .015a.75.75 0 0 0-.75.75v6.73H.75a.75.75 0 0 0-.75.75v9.758c0 1.68 1.27 2.998 2.893 2.998.011 0 .02-.003.03-.006.007-.002.015-.005.024-.006.009.001.016.004.024.006.01.003.019.006.029.006h18c1.654 0 3-1.345 3-2.998V2.249a.748.748 0 0 0-.22-.53Zm-6.53 13.272h2.25v-4.497h-2.25v4.497Zm3-5.996H16.5a.75.75 0 0 0-.75.75v5.995c0 .415.335.75.75.75h3.75a.75.75 0 0 0 .75-.75V9.744a.75.75 0 0 0-.75-.75Zm-6.75 2.998H8.25a.75.75 0 1 1 0-1.499h5.25a.749.749 0 1 1 0 1.499Zm-5.25 2.998h5.25a.749.749 0 1 0 0-1.5H8.25a.749.749 0 1 0 0 1.5Zm12-7.495h-12a.75.75 0 1 1 0-1.499h12a.75.75 0 1 1 0 1.499Z" fill="currentColor"/></svg>