<svg width="24" height="24" viewBox="0 0 24 24" fill="none" xmlns="http://www.w3.org/2000/svg"><path fill-rule="evenodd" clip-rule="evenodd" d="M12.234 3a.75.75 0 0 0 .75-.75V.75a.75.75 0 1 0-1.5 0v1.5c0 .415.335.75.75.75Zm1.463 3.652c0-.807-.656-1.463-1.463-1.463s-1.463.656-1.463 1.463a1.464 1.464 0 0 0 2.926 0Zm1.5 0a2.966 2.966 0 0 1-2.963 2.962A2.966 2.966 0 0 1 9.27 6.652a2.966 2.966 0 0 1 2.964-2.963 2.966 2.966 0 0 1 2.963 2.963Zm.269 13.107.242 2.741h4.048l-.685-2.741h-3.605Zm-6.586 0H5.396L4.71 22.5h3.926l.243-2.741Zm.374-4.243H6.456l-.685 2.743h3.24l.243-2.743ZM14.2 22.5l-.241-2.741h-3.575l-.242 2.741H14.2Zm-3.442-6.984-.241 2.743h3.31l-.241-2.743h-2.828Zm4.575 2.743h3.362l-.685-2.743h-2.918l.241 2.743Zm3.99-3.675 2.12 8.485a.75.75 0 0 1-.727.931H3.75a.749.749 0 0 1-.727-.931l2.12-8.484a.75.75 0 0 1 .728-.569h12.725a.75.75 0 0 1 .727.569ZM9.12 4.29a.748.748 0 0 1-.53-.22L7.53 3.01a.75.75 0 1 1 1.06-1.06l1.06 1.06a.75.75 0 0 1-.53 1.28ZM6.33 7.402h1.5a.75.75 0 1 0 0-1.5h-1.5a.75.75 0 1 0 0 1.5Zm1.2 2.892 1.06-1.06a.75.75 0 1 1 1.06 1.06l-1.06 1.06a.748.748 0 0 1-1.06 0 .75.75 0 0 1 0-1.06Zm3.953.759v1.5a.75.75 0 1 0 1.5 0v-1.5a.75.75 0 1 0-1.5 0Zm3.332-.759a.749.749 0 1 1 1.06-1.06l1.061 1.06a.75.75 0 1 1-1.06 1.06l-1.062-1.06Zm1.07-3.642c0 .415.335.75.75.75h1.5a.75.75 0 1 0 0-1.5h-1.5a.75.75 0 0 0-.75.75Zm-.01-2.583a.748.748 0 0 1-1.06 0 .75.75 0 0 1 0-1.06l1.06-1.06a.75.75 0 1 1 1.061 1.06l-1.061 1.06Z" fill="currentColor"/></svg>