<svg width="24" height="24" viewBox="0 0 24 24" fill="none" xmlns="http://www.w3.org/2000/svg"><path fill-rule="evenodd" clip-rule="evenodd" d="M13.787 22.5 12 18.927 10.213 22.5h3.574ZM11.47 11.78l-1.561-1.56L4.177 22.5h4.36l2.792-5.586a.164.164 0 0 1 .03-.04.232.232 0 0 0 .023-.027.716.716 0 0 1 .095-.122.755.755 0 0 1 .117-.091l.03-.025a.2.2 0 0 1 .04-.03.101.101 0 0 1 .03-.008c.008-.002.015-.003.022-.006.046-.02.093-.028.14-.038h.005l.013-.003c.042-.008.084-.016.126-.016a.65.65 0 0 1 .124.016l.015.002.004.001c.048.01.094.019.14.038a.079.079 0 0 0 .022.005c.01.002.02.004.03.009a.19.19 0 0 1 .042.031l.03.024a.74.74 0 0 1 .115.09.717.717 0 0 1 .096.123c.007.01.015.02.023.028a.179.179 0 0 1 .03.04l2.793 5.585h4.359L14.09 10.22l-1.56 1.56a.748.748 0 0 1-1.061 0Zm.53-1.59 1.417-1.417L12 5.738l-1.417 3.035L12 10.19Zm9.478 12.31h1.772a.75.75 0 1 1 0 1.5H.75a.75.75 0 1 1 0-1.5h1.772l8.65-18.536L9.82 1.067a.75.75 0 1 1 1.36-.634L12 2.19l.82-1.758a.75.75 0 1 1 1.359.634l-1.351 2.897 8.65 18.536Zm-8.728-8.25a.75.75 0 1 1-1.5 0 .75.75 0 0 1 1.5 0Zm1.5.75a.75.75 0 1 0 0-1.5.75.75 0 0 0 0 1.5Zm-3.75-.75a.75.75 0 1 1-1.5 0 .75.75 0 0 1 1.5 0Z" fill="currentColor"/></svg>