<svg width="24" height="24" viewBox="0 0 24 24" fill="none" xmlns="http://www.w3.org/2000/svg"><path fill-rule="evenodd" clip-rule="evenodd" d="M21.198 8.1h1.262V1.5h-1.262v6.6Zm-6.632-3.18a.74.74 0 0 1 .658.372.753.753 0 0 1-.001.758l-.557.945h5.032v-4.39H4.262v4.39h4.797l.57-.609-.247-1.24a.748.748 0 0 1 .322-.773l1.783-1.174a.752.752 0 0 1 1.14.446l.322 1.296 1.617-.022ZM1.5 8.1h1.262V1.5H1.5v6.6ZM20.91 0h1.838c.668 0 1.212.544 1.212 1.21v7.18c0 .667-.544 1.211-1.212 1.211H20.91a1.208 1.208 0 0 1-1.2-1.105h-6.354a.752.752 0 0 1-.646-1.13l.546-.928-.882.012c-.362-.024-.654-.23-.738-.57l-.21-.845-.475.314.223 1.123a.748.748 0 0 1-.187.66L9.932 8.257a.752.752 0 0 1-.549.237H4.251a1.209 1.209 0 0 1-1.2 1.105H1.21A1.213 1.213 0 0 1 0 8.388V1.21C0 .543.542 0 1.21 0h1.84a1.21 1.21 0 0 1 1.2 1.105h15.46A1.21 1.21 0 0 1 20.91 0ZM9.968 16.06c0 1.109.903 2.011 2.012 2.011 1.11 0 2.012-.902 2.012-2.011 0-.608-.796-2.143-2.012-3.906-1.234 1.785-2.012 3.29-2.012 3.906Zm-1.5 0c0-1.31 1.426-3.576 2.622-5.248.412-.573 1.37-.57 1.78 0 1.195 1.67 2.622 3.936 2.622 5.248a3.516 3.516 0 0 1-3.512 3.511 3.516 3.516 0 0 1-3.512-3.511Zm8.42-2.766a.75.75 0 0 1 1.061 0 4.287 4.287 0 0 1 0 6.057.748.748 0 0 1-1.06 0 .75.75 0 0 1 0-1.06 2.788 2.788 0 0 0 0-3.936.75.75 0 0 1 0-1.06Zm2.405-2.363a.75.75 0 0 0 0 1.061 6.083 6.083 0 0 1 1.795 4.33 6.083 6.083 0 0 1-1.795 4.332.75.75 0 1 0 1.06 1.06 7.576 7.576 0 0 0 2.235-5.391 7.576 7.576 0 0 0-2.234-5.392.75.75 0 0 0-1.06 0ZM6.02 13.294a.75.75 0 1 1 1.06 1.06 2.788 2.788 0 0 0 0 3.937.75.75 0 1 1-1.06 1.06 4.287 4.287 0 0 1 0-6.057Zm-3.138 3.029c0-1.637.637-3.174 1.794-4.33a.75.75 0 0 0-1.06-1.061 7.573 7.573 0 0 0-2.234 5.39c0 2.038.794 3.953 2.234 5.392a.747.747 0 0 0 1.06 0 .75.75 0 0 0 0-1.06 6.081 6.081 0 0 1-1.794-4.331Z" fill="currentColor"/></svg>