<svg width="24" height="24" viewBox="0 0 24 24" fill="none" xmlns="http://www.w3.org/2000/svg">
<path fill-rule="evenodd" clip-rule="evenodd" d="M9.375 17.25C13.7242 17.25 17.25 13.7242 17.25 9.375C17.25 5.02576 13.7242 1.5 9.375 1.5C5.02576 1.5 1.5 5.02576 1.5 9.375C1.5 13.7242 5.02576 17.25 9.375 17.25ZM9.375 15C6.2684 15 3.75 12.4816 3.75 9.375C3.75 6.2684 6.2684 3.75 9.375 3.75C12.4816 3.75 15 6.2684 15 9.375C15 12.4816 12.4816 15 9.375 15ZM17.8927 16.1313L22.1339 20.3661C22.622 20.8543 22.622 21.6457 22.1339 22.1339C21.6457 22.622 20.8543 22.622 20.3661 22.1339L16.1249 17.8991C15.6368 17.4109 15.6368 16.6195 16.1249 16.1313C16.6131 15.6432 17.4045 15.6432 17.8927 16.1313Z" fill="black"/>
</svg>
