<svg xmlns="http://www.w3.org/2000/svg" width="24" height="24" fill="none" viewBox="0 0 24 24"><path fill="currentColor" fill-rule="evenodd" d="m16.695 2.42 4.558 2.92c.31.207.498.56.497.932 0 .373-.186.704-.497.911l-4.558 2.92a1.12 1.12 0 0 1-1.098.042 1.07 1.07 0 0 1-.56-.953l.001-1.76H8.905a3.51 3.51 0 0 0-3.501 3.5v1.367a1.203 1.203 0 0 1-2.404 0V10.93a5.89 5.89 0 0 1 5.884-5.88h6.133V3.33c0-.394.207-.767.56-.953a1.13 1.13 0 0 1 1.118.041m1.922 9.282c0-.663.54-1.202 1.202-1.202.643 0 1.181.538 1.181 1.201v1.368c0 3.232-2.631 5.884-5.884 5.884H8.963v1.719c0 .394-.207.767-.56.953a1.1 1.1 0 0 1-.518.125 1 1 0 0 1-.58-.166L2.747 18.66a1.06 1.06 0 0 1-.497-.911c0-.372.186-.704.497-.911l4.558-2.922a1.09 1.09 0 0 1 1.119-.041c.352.186.559.56.559.953v1.74h6.133a3.51 3.51 0 0 0 3.501-3.5z" clip-rule="evenodd"/></svg>