<svg xmlns="http://www.w3.org/2000/svg" width="24" height="24" fill="none" viewBox="0 0 24 24"><path fill="currentColor" fill-rule="evenodd" d="M3 22h11V4.003A2.005 2.005 0 0 0 11.997 2H4.999A2 2 0 0 0 3 3.999zM18.673 3.221l4 3.639A1 1 0 0 1 23 7.6v11.361c0 1.654-1.346 3-3 3s-3-1.346-3-3h-1V23a1 1 0 0 1-1 1H2a1 1 0 0 1-1-1V3.999A4.004 4.004 0 0 1 4.999 0h6.998A4.01 4.01 0 0 1 16 4.003v12.958h1c1.103 0 2 .897 2 2a1.001 1.001 0 0 0 2 0v-8a2.005 2.005 0 0 1-2-2.003V6.223l-1.673-1.522a1 1 0 0 1 1.346-1.48m-9.964 7.783H10a1 1 0 0 1 .871 1.491l-2.25 3.995a.999.999 0 1 1-1.742-.98l1.41-2.506H7a1 1 0 0 1-.872-1.49l2.25-4.004a1 1 0 0 1 1.362-.382c.482.271.653.88.382 1.361z" clip-rule="evenodd"/></svg>