<svg width="24" height="24" viewBox="0 0 24 24" fill="none" xmlns="http://www.w3.org/2000/svg">
<path fill-rule="evenodd" clip-rule="evenodd" d="M13.5909 12.0001L19.9201 5.67081C20.3596 5.23131 20.3596 4.51881 19.9201 4.07931C19.4814 3.64056 18.7689 3.64056 18.3294 4.07931L12.0001 10.4093L5.67013 4.07931C5.23138 3.64056 4.51888 3.64056 4.07938 4.07931C3.63988 4.51881 3.63988 5.23131 4.07938 5.67081L10.4094 12.0001L4.07938 18.3293C3.63988 18.7688 3.63988 19.4813 4.07938 19.9208C4.29913 20.1406 4.58713 20.2501 4.87513 20.2501C5.16313 20.2501 5.45038 20.1406 5.67013 19.9208L12.0001 13.5908L18.3294 19.9208C18.5491 20.1406 18.8371 20.2501 19.1251 20.2501C19.4131 20.2501 19.7004 20.1406 19.9201 19.9208C20.3596 19.4813 20.3596 18.7688 19.9201 18.3293L13.5909 12.0001Z" fill="black"/>
</svg>
