<svg width="24" height="24" viewBox="0 0 24 24" fill="none" xmlns="http://www.w3.org/2000/svg"><path d="M2.625 16.5A1.124 1.124 0 0 1 1.5 15.375V2.625c0-.623.502-1.125 1.125-1.125h12.727c.623 0 1.125.502 1.125 1.125L16.5 15.36a1.124 1.124 0 0 1-1.125 1.125l-12.75.015ZM3.75 3.75v10.5h10.5l-.015-10.5H3.75Z" fill="currentColor"/><path d="M8.625 22.5A1.124 1.124 0 0 1 7.5 21.375v-2.25c0-.622.502-1.125 1.125-1.125s1.125.503 1.125 1.125v1.125h10.5l-.015-10.5h-1.102a1.123 1.123 0 0 1-1.125-1.125c0-.623.502-1.125 1.125-1.125h2.227c.623 0 1.125.502 1.125 1.125l.023 12.735a1.124 1.124 0 0 1-1.125 1.125l-12.75.015h-.008Z" fill="currentColor"/></svg>