<svg width="24" height="24" viewBox="0 0 24 24" fill="none" xmlns="http://www.w3.org/2000/svg">
<path fill-rule="evenodd" clip-rule="evenodd" d="M8 13V12H16V13C16 15.206 14.206 17 12 17C9.794 17 8 15.206 8 13ZM12 0C5.383 0 0 5.383 0 12C0 15.21 1.426 18.473 3.813 20.727C4.215 21.107 4.848 21.088 5.228 20.687C5.606 20.285 5.588 19.652 5.187 19.273C3.191 17.389 2 14.67 2 12C2 6.486 6.486 2 12 2C17.514 2 22 6.486 22 12C22 15.737 19.979 21 15.485 21C14.276 21 12.985 20.475 12.985 19V18.912C15.826 18.439 18 15.972 18 13V11C18 10.448 17.553 10 17 10H16V6C16 5.448 15.553 5 15 5C14.447 5 14 5.448 14 6V10H10V6C10 5.448 9.553 5 9 5C8.447 5 8 5.448 8 6V10H7C6.447 10 6 10.448 6 11V13C6 15.962 8.159 18.423 10.985 18.907V19C10.985 21.355 12.836 23 15.485 23C21.358 23 24 16.567 24 12C24 5.383 18.617 0 12 0Z" fill="black"/>
</svg>
