<svg xmlns="http://www.w3.org/2000/svg" width="24" height="24" fill="none" viewBox="0 0 24 24"><path fill="currentColor" fill-rule="evenodd" d="M23.283 2.675 21.16.554a1.69 1.69 0 0 0-2.386 0L8.204 11.125a.92.92 0 0 0-.286.486L6.86 15.84a.937.937 0 0 0 1.137 1.137l4.228-1.057a.95.95 0 0 0 .485-.286L23.283 5.062a1.69 1.69 0 0 0 0-2.387M9.059 14.777l.28-1.12.84.84zm10.415-8.559-7.461 7.46-1.856-1.855 7.46-7.46zm1.325-1.326 1.025-1.024-1.856-1.856-1.025 1.024zM.004 21.701A2.44 2.44 0 0 0 2.438 24h15.75l.138-.004a2.44 2.44 0 0 0 2.299-2.433v-6.375l-.005-.096a.938.938 0 0 0-1.87.095v6.376l-.005.076a.56.56 0 0 1-.558.486H2.438l-.076-.005a.56.56 0 0 1-.486-.558V5.813l.005-.076a.56.56 0 0 1 .558-.486h7.874l.096-.005a.938.938 0 0 0-.095-1.87H2.436l-.138.004A2.44 2.44 0 0 0 0 5.812v15.75z" clip-rule="evenodd"/></svg>