<svg xmlns="http://www.w3.org/2000/svg" width="24" height="24" fill="none" viewBox="0 0 24 24"><path fill="currentColor" fill-rule="evenodd" d="M18.75 18.689h-2.98v-4.712c0-1.224-.425-2.02-1.459-2.02-.67 0-1.278.429-1.52 1.102-.062.245-.123.49-.123.734v4.957H9.75s.06-8.016 0-8.812h2.919v1.224c.547-.918 1.58-1.469 2.614-1.407 1.947 0 3.407 1.285 3.407 3.977v4.957zM6.808 8.246c-.808.06-1.5-.54-1.558-1.378v-.12c0-.839.634-1.498 1.442-1.498h.116c.807 0 1.442.66 1.442 1.498 0 .839-.577 1.498-1.442 1.498M5.25 18.75h3v-9h-3zm15.09-16.5H3.656c-.734 0-1.406.61-1.406 1.402v16.696c0 .793.672 1.402 1.406 1.402H20.34c.795 0 1.406-.61 1.406-1.402V3.652c.06-.793-.61-1.402-1.406-1.402q.093 0 0 0" clip-rule="evenodd"/></svg>