<svg xmlns="http://www.w3.org/2000/svg" width="24" height="24" fill="none" viewBox="0 0 24 24"><path fill="currentColor" fill-rule="evenodd" d="M9.925 14.075a4.73 4.73 0 0 0 3.354 1.387 4.73 4.73 0 0 0 3.354-1.387l4.478-4.478A4.7 4.7 0 0 0 22.5 6.243a4.7 4.7 0 0 0-1.39-3.354c-1.848-1.849-4.858-1.849-6.688-.019L11.6 5.56a1.125 1.125 0 1 0 1.552 1.63l2.842-2.71a2.5 2.5 0 0 1 3.527 0c.47.47.73 1.097.73 1.763s-.26 1.292-.73 1.763l-4.478 4.478a2.5 2.5 0 0 1-3.526 0 1.124 1.124 0 1 0-1.59 1.59M2.89 21.11a4.74 4.74 0 0 0 3.36 1.39 4.7 4.7 0 0 0 3.328-1.37l2.823-2.69a1.125 1.125 0 1 0-1.552-1.63l-2.842 2.71a2.5 2.5 0 0 1-3.527 0 2.48 2.48 0 0 1-.73-1.763c0-.666.26-1.292.73-1.763l4.478-4.478a2.5 2.5 0 0 1 3.526 0 1.124 1.124 0 1 0 1.59-1.591 4.75 4.75 0 0 0-6.707 0l-4.478 4.478A4.7 4.7 0 0 0 1.5 17.757c0 1.267.493 2.458 1.39 3.353" clip-rule="evenodd"/></svg>