<svg width="24" height="24" viewBox="0 0 24 24" fill="none" xmlns="http://www.w3.org/2000/svg">
<path fill-rule="evenodd" clip-rule="evenodd" d="M7.49988 12.0002C7.49988 12.8282 6.82863 13.5002 5.99988 13.5002C5.17188 13.5002 4.49988 12.8282 4.49988 12.0002C4.49988 11.1722 5.17188 10.5002 5.99988 10.5002C6.82863 10.5002 7.49988 11.1722 7.49988 12.0002ZM13.4999 12.0002C13.4999 12.8282 12.8286 13.5002 11.9999 13.5002C11.1719 13.5002 10.4999 12.8282 10.4999 12.0002C10.4999 11.1722 11.1719 10.5002 11.9999 10.5002C12.8286 10.5002 13.4999 11.1722 13.4999 12.0002ZM17.9999 13.5002C18.8286 13.5002 19.4999 12.8282 19.4999 12.0002C19.4999 11.1722 18.8286 10.5002 17.9999 10.5002C17.1719 10.5002 16.4999 11.1722 16.4999 12.0002C16.4999 12.8282 17.1719 13.5002 17.9999 13.5002Z" fill="black"/>
</svg>
