<svg width="24" height="24" viewBox="0 0 24 24" fill="none" xmlns="http://www.w3.org/2000/svg">
<path d="M19.5 4.5H4.5C4.10218 4.5 3.72064 4.65804 3.43934 4.93934C3.15804 5.22064 3 5.60218 3 6V18C3 18.3978 3.15804 18.7794 3.43934 19.0607C3.72064 19.342 4.10218 19.5 4.5 19.5H19.5C19.8978 19.5 20.2794 19.342 20.5607 19.0607C20.842 18.7794 21 18.3978 21 18V6C21 5.60218 20.842 5.22064 20.5607 4.93934C20.2794 4.65804 19.8978 4.5 19.5 4.5ZM6.75 13.5C6.45333 13.5 6.16332 13.412 5.91664 13.2472C5.66997 13.0824 5.47771 12.8481 5.36418 12.574C5.25065 12.2999 5.22094 11.9983 5.27882 11.7074C5.3367 11.4164 5.47956 11.1491 5.68934 10.9393C5.89912 10.7296 6.16639 10.5867 6.45736 10.5288C6.74834 10.4709 7.04994 10.5006 7.32403 10.6142C7.59811 10.7277 7.83238 10.92 7.9972 11.1666C8.16203 11.4133 8.25 11.7033 8.25 12C8.25 12.3978 8.09196 12.7794 7.81066 13.0607C7.52936 13.342 7.14782 13.5 6.75 13.5ZM12 13.5C11.7033 13.5 11.4133 13.412 11.1666 13.2472C10.92 13.0824 10.7277 12.8481 10.6142 12.574C10.5006 12.2999 10.4709 11.9983 10.5288 11.7074C10.5867 11.4164 10.7296 11.1491 10.9393 10.9393C11.1491 10.7296 11.4164 10.5867 11.7074 10.5288C11.9983 10.4709 12.2999 10.5006 12.574 10.6142C12.8481 10.7277 13.0824 10.92 13.2472 11.1666C13.412 11.4133 13.5 11.7033 13.5 12C13.5 12.3978 13.342 12.7794 13.0607 13.0607C12.7794 13.342 12.3978 13.5 12 13.5ZM17.25 13.5C16.9533 13.5 16.6633 13.412 16.4166 13.2472C16.17 13.0824 15.9777 12.8481 15.8642 12.574C15.7506 12.2999 15.7209 11.9983 15.7788 11.7074C15.8367 11.4164 15.9796 11.1491 16.1893 10.9393C16.3991 10.7296 16.6664 10.5867 16.9574 10.5288C17.2483 10.4709 17.5499 10.5006 17.824 10.6142C18.0981 10.7277 18.3324 10.92 18.4972 11.1666C18.662 11.4133 18.75 11.7033 18.75 12C18.75 12.3978 18.592 12.7794 18.3107 13.0607C18.0294 13.342 17.6478 13.5 17.25 13.5Z" fill="black"/>
</svg>
