<svg width="24" height="24" viewBox="0 0 24 24" fill="none" xmlns="http://www.w3.org/2000/svg">
<path fill-rule="evenodd" clip-rule="evenodd" d="M20.625 6H3.375C2.75325 6 2.25 5.496 2.25 4.875C2.25 4.254 2.75325 3.75 3.375 3.75H20.625C21.2467 3.75 21.75 4.254 21.75 4.875C21.75 5.496 21.2467 6 20.625 6ZM20.625 13.125H3.375C2.75325 13.125 2.25 12.621 2.25 12C2.25 11.379 2.75325 10.875 3.375 10.875H20.625C21.2467 10.875 21.75 11.379 21.75 12C21.75 12.621 21.2467 13.125 20.625 13.125ZM3.375 20.25H20.625C21.2467 20.25 21.75 19.746 21.75 19.125C21.75 18.504 21.2467 18 20.625 18H3.375C2.75325 18 2.25 18.504 2.25 19.125C2.25 19.746 2.75325 20.25 3.375 20.25Z" fill="black"/>
</svg>
