<svg width="24" height="24" viewBox="0 0 24 24" fill="none" xmlns="http://www.w3.org/2000/svg">
<path fill-rule="evenodd" clip-rule="evenodd" d="M6.16652 20.7304C7.89323 21.8842 9.9233 22.5 12 22.5C14.7848 22.5 17.4555 21.3938 19.4246 19.4246C21.3938 17.4555 22.5 14.7848 22.5 12C22.5 9.9233 21.8842 7.89323 20.7304 6.16652C19.5767 4.4398 17.9368 3.09399 16.0182 2.29927C14.0996 1.50455 11.9884 1.29661 9.95156 1.70176C7.91476 2.1069 6.04383 3.10693 4.57538 4.57538C3.10693 6.04383 2.1069 7.91476 1.70176 9.95156C1.29661 11.9884 1.50455 14.0996 2.29927 16.0182C3.09399 17.9368 4.4398 19.5767 6.16652 20.7304ZM7.41655 5.14038C8.77326 4.23386 10.3683 3.75 12 3.75C14.188 3.75 16.2865 4.6192 17.8336 6.16637C19.3808 7.71355 20.25 9.81197 20.25 12C20.25 13.6317 19.7661 15.2268 18.8596 16.5835C17.9531 17.9402 16.6646 18.9976 15.1571 19.622C13.6497 20.2464 11.9909 20.4098 10.3905 20.0915C8.79017 19.7732 7.32016 18.9874 6.16637 17.8336C5.01259 16.6799 4.22685 15.2098 3.90853 13.6095C3.5902 12.0092 3.75358 10.3504 4.378 8.84287C5.00242 7.33538 6.05984 6.0469 7.41655 5.14038ZM7.125 13.125H16.875C17.1734 13.125 17.4595 13.0065 17.6705 12.7955C17.8815 12.5845 18 12.2984 18 12C18 11.7016 17.8815 11.4155 17.6705 11.2045C17.4595 10.9935 17.1734 10.875 16.875 10.875H7.125C6.82663 10.875 6.54048 10.9935 6.3295 11.2045C6.11853 11.4155 6 11.7016 6 12C6 12.2984 6.11853 12.5845 6.3295 12.7955C6.54048 13.0065 6.82663 13.125 7.125 13.125Z" fill="black"/>
</svg>
