<svg xmlns="http://www.w3.org/2000/svg" width="24" height="24" fill="none" viewBox="0 0 24 24"><path fill="currentColor" fill-rule="evenodd" d="m13.398 21.983-.002-.002L2.002 10.586V2h8.585l11.397 11.397zm9.999-10L12 .585A2 2 0 0 0 10.586 0H2C.898 0 0 .897 0 2v8.586c0 .534.208 1.035.585 1.413l11.397 11.397c.39.39.901.584 1.413.584s1.024-.195 1.414-.584l8.587-8.586c.378-.378.586-.88.586-1.414 0-.535-.209-1.038-.587-1.414m-15.79-1.49c.1.61.314 1.204.604 1.768l-.543.544a.749.749 0 1 0 1.06 1.06l.337-.336q.445.535.984.978l-.339.34a.749.749 0 1 0 1.06 1.06l.56-.56a6 6 0 0 0 1.71.579q.398.065.776.065c1.564-.001 2.844-.814 3.366-2.2.144-.377.224-.804.238-1.27a.751.751 0 0 0-1.5-.047q-.013.451-.14.788c-.356.939-1.297 1.379-2.498 1.184a4 4 0 0 1-.818-.233l1.36-1.36a.75.75 0 1 0-1.06-1.06l-1.647 1.646a6 6 0 0 1-.984-.978l1.65-1.65a.75.75 0 1 0-1.062-1.06l-1.375 1.375a4 4 0 0 1-.259-.874c-.126-.781.02-1.473.411-1.95.356-.433.895-.673 1.557-.695a.75.75 0 0 0-.024-1.5h-.025c-1.089.036-2.037.477-2.667 1.242-.67.814-.929 1.93-.732 3.144M3 4.499a1.5 1.5 0 1 1 3.001.002A1.5 1.5 0 0 1 3 4.499" clip-rule="evenodd"/></svg>