<svg xmlns="http://www.w3.org/2000/svg" width="24" height="24" fill="none" viewBox="0 0 24 24"><path fill="currentColor" fill-rule="evenodd" d="M12.254 0q2.955 0 4.726 1.652 1.77 1.654 1.77 4.379 0 1.488-.57 2.764-.57 1.277-1.724 2.39l-1.292 1.252q-1.2 1.16-1.593 2.052t-.393 2.194c0 .133.003.348.007.517q.008.072.008.147l-.002.033-.002.017.001.01v.011l-.002.002a1.39 1.39 0 0 1-1.374 1.33 1.39 1.39 0 0 1-1.377-1.424q-.009-.076-.014-.17v-.01a6 6 0 0 1-.015-.338q0-1.723.569-3.063.57-1.339 1.878-2.655l1.2-1.222q.938-.94 1.34-1.832.399-.894.399-2.005 0-1.582-1.008-2.546t-2.655-.963q-2.031 0-3.07 1.261-.87 1.057-1.077 3.023l-.017.201a1.374 1.374 0 0 1-1.355 1.271A1.375 1.375 0 0 1 5.257 6.76a.6.6 0 0 1-.002-.111c.18-1.591.693-3.644 1.798-4.768Q8.899 0 12.254 0M12 24a1.875 1.875 0 1 0 0-3.75A1.875 1.875 0 0 0 12 24" clip-rule="evenodd"/></svg>