<svg width="24" height="24" viewBox="0 0 24 24" fill="none" xmlns="http://www.w3.org/2000/svg">
<path fill-rule="evenodd" clip-rule="evenodd" d="M18.375 0.75C16.0968 0.75 14.25 2.59683 14.25 4.875C14.25 5.30312 14.3152 5.716 14.4363 6.10426L8.61213 9.53022C7.86078 8.74152 6.80029 8.25 5.625 8.25C3.34683 8.25 1.5 10.0968 1.5 12.375C1.5 14.6532 3.34683 16.5 5.625 16.5C6.86677 16.5 7.98039 15.9513 8.73662 15.0831L14.3852 18.0736C14.297 18.4092 14.25 18.7616 14.25 19.125C14.25 21.4032 16.0968 23.25 18.375 23.25C20.6532 23.25 22.5 21.4032 22.5 19.125C22.5 16.8468 20.6532 15 18.375 15C17.1332 15 16.0196 15.5487 15.2634 16.4169L9.61478 13.4265C9.70301 13.0908 9.75 12.7384 9.75 12.375C9.75 11.9469 9.68478 11.534 9.56375 11.1458L15.3879 7.71981C16.1392 8.50849 17.1997 9 18.375 9C20.6532 9 22.5 7.15317 22.5 4.875C22.5 2.59683 20.6532 0.75 18.375 0.75ZM18.375 2.625C19.6176 2.625 20.625 3.63236 20.625 4.875C20.625 6.11764 19.6176 7.125 18.375 7.125C17.1324 7.125 16.125 6.11764 16.125 4.875C16.125 3.63236 17.1324 2.625 18.375 2.625ZM5.625 10.125C6.86764 10.125 7.875 11.1324 7.875 12.375C7.875 13.6176 6.86764 14.625 5.625 14.625C4.38236 14.625 3.375 13.6176 3.375 12.375C3.375 11.1324 4.38236 10.125 5.625 10.125ZM20.625 19.125C20.625 17.8824 19.6176 16.875 18.375 16.875C17.1324 16.875 16.125 17.8824 16.125 19.125C16.125 20.3676 17.1324 21.375 18.375 21.375C19.6176 21.375 20.625 20.3676 20.625 19.125Z" fill="black"/>
</svg>
