<svg xmlns="http://www.w3.org/2000/svg" width="64" height="64" fill="none" viewBox="0 0 64 64"><path fill="currentColor" fill-rule="evenodd" d="m32.88.285 30.5 22-.01.01c.67.48.82 1.42.34 2.09-.3.4-.75.62-1.22.62-.31 0-.61-.09-.88-.28l-2.62-1.89v39.66c0 .83-.67 1.5-1.5 1.5h-51c-.83 0-1.5-.67-1.5-1.5v-39.67l-2.62 1.89c-.67.48-1.6.33-2.09-.34-.48-.67-.33-1.6.34-2.09l30.5-22c.53-.38 1.23-.38 1.76 0M19 49.005v12h7v-12zm10 12h27v-40.34L32 3.355 8 20.665v40.34h8v-13.5c0-.83.67-1.5 1.5-1.5h10c.83 0 1.5.67 1.5 1.5zm-11.5-39h10c.83 0 1.5.67 1.5 1.5s-.67 1.5-1.5 1.5h-10c-.83 0-1.5-.67-1.5-1.5s.67-1.5 1.5-1.5m10 8h-10c-.83 0-1.5.67-1.5 1.5s.67 1.5 1.5 1.5h10c.83 0 1.5-.67 1.5-1.5s-.67-1.5-1.5-1.5m-10 8h10c.83 0 1.5.67 1.5 1.5s-.67 1.5-1.5 1.5h-10c-.83 0-1.5-.67-1.5-1.5s.67-1.5 1.5-1.5m19-13h10c.83 0 1.5-.67 1.5-1.5s-.67-1.5-1.5-1.5h-10c-.83 0-1.5.67-1.5 1.5s.67 1.5 1.5 1.5m10 8h-10c-.83 0-1.5-.67-1.5-1.5s.67-1.5 1.5-1.5h10c.83 0 1.5.67 1.5 1.5s-.67 1.5-1.5 1.5m-10 8h10c.83 0 1.5-.67 1.5-1.5s-.67-1.5-1.5-1.5h-10c-.83 0-1.5.67-1.5 1.5s.67 1.5 1.5 1.5m10 8h-10c-.83 0-1.5-.67-1.5-1.5s.67-1.5 1.5-1.5h10c.83 0 1.5.67 1.5 1.5s-.67 1.5-1.5 1.5" clip-rule="evenodd"/></svg>