<svg xmlns="http://www.w3.org/2000/svg" width="64" height="64" fill="none" viewBox="0 0 64 64"><path fill="currentColor" fill-rule="evenodd" d="M40 61V49.5a1.5 1.5 0 0 0-.714-1.277l-6.5-4a1.5 1.5 0 0 0-1.572 0l-6.5 4A1.5 1.5 0 0 0 24 49.5V61H10V27h11.5c.223 0 .443-.05.645-.146L32 22.161l9.855 4.693c.202.096.422.146.645.146H54v34zm-13 0V50.338l5-3.076 5 3.076V61zM13.074 13h37.852l5.205 11H42.839l-10.194-4.854a1.5 1.5 0 0 0-1.29 0L21.161 24H7.869zM58.5 61H57V27h1.5c.514 0 .992-.264 1.268-.697.274-.435.308-.98.087-1.445l-6.625-14A1.5 1.5 0 0 0 51.875 10h-39.75c-.58 0-1.107.334-1.355.858l-6.625 14a1.5 1.5 0 0 0 .087 1.445c.276.433.754.697 1.268.697H7v34H5.5a1.5 1.5 0 0 0 0 3h53a1.5 1.5 0 0 0 0-3m-40-30h-3a1.5 1.5 0 0 0 0 3h3a1.5 1.5 0 0 0 0-3m7 0h3a1.5 1.5 0 0 1 0 3h-3a1.5 1.5 0 0 1 0-3m13 0h-3a1.5 1.5 0 0 0 0 3h3a1.5 1.5 0 0 0 0-3m7 0h3a1.5 1.5 0 0 1 0 3h-3a1.5 1.5 0 0 1 0-3m-27 7h-3a1.5 1.5 0 0 0 0 3h3a1.5 1.5 0 0 0 0-3m-3 7h3a1.5 1.5 0 0 1 0 3h-3a1.5 1.5 0 0 1 0-3m3 7h-3a1.5 1.5 0 0 0 0 3h3a1.5 1.5 0 0 0 0-3m7-14h3a1.5 1.5 0 0 1 0 3h-3a1.5 1.5 0 0 1 0-3m13 0h-3a1.5 1.5 0 0 0 0 3h3a1.5 1.5 0 0 0 0-3m7 0h3a1.5 1.5 0 0 1 0 3h-3a1.5 1.5 0 0 1 0-3m3 7h-3a1.5 1.5 0 0 0 0 3h3a1.5 1.5 0 0 0 0-3m-3 7h3a1.5 1.5 0 0 1 0 3h-3a1.5 1.5 0 0 1 0-3" clip-rule="evenodd"/></svg>