<svg width="64" height="64" viewBox="0 0 64 64" fill="none" xmlns="http://www.w3.org/2000/svg"><path fill-rule="evenodd" clip-rule="evenodd" d="m39.586 8.934-6.511-3.77a.162.162 0 0 0-.025-.01l-.023-.008a.936.936 0 0 0-.343-.109.55.55 0 0 1-.07-.017c-.035-.01-.07-.02-.11-.02a.495.495 0 0 0-.133.023.883.883 0 0 1-.11.025c-.02.004-.04.008-.06.014a1.14 1.14 0 0 0-.244.1l-.003.002h-.002L25.41 8.919a1.126 1.126 0 0 0 1.123 1.952l4.85-2.801v6.271a1.123 1.123 0 0 0 2.246 0V8.073l4.826 2.798c.17.097.365.148.562.147l.007.016a1.124 1.124 0 0 0 .562-2.099Zm16.406 28.454a1.123 1.123 0 0 0-2.246 0v5.602l-4.85-2.8a1.124 1.124 0 1 0-1.123 1.95l4.84 2.795-4.84 2.79a1.123 1.123 0 0 0 .562 2.099c.196.002.39-.05.561-.147l6.38-3.68c.038-.014.071-.036.105-.058l.02-.013a.652.652 0 0 1 .024-.015l.005-.002v-.001l.003-.002c.121-.072.223-.162.31-.272.01-.014.02-.028.028-.043l.01-.014a.386.386 0 0 1 .011-.017l.004-.007.01-.014a.785.785 0 0 0 .02-.03.027.027 0 0 1 .008-.01v-.002a.083.083 0 0 0 .006-.006l.001-.003.001-.002a1.11 1.11 0 0 0 .121-.366l.005-.027a.854.854 0 0 0 .01-.064c0-.012.003-.023.007-.034.003-.013.007-.025.007-.04v-7.567ZM33.63 55.974l4.795-2.779a1.121 1.121 0 0 1 1.44.666c.164.438.037.932-.317 1.237l-6.472 3.753c-.024.015-.05.024-.076.033l-.036.013-.042.018-.007.003a1.12 1.12 0 0 1-.4.082h-.008a1.157 1.157 0 0 1-.471-.112.512.512 0 0 0-.034-.012.287.287 0 0 1-.056-.025l-6.55-3.753a1.125 1.125 0 1 1 1.123-1.95l4.865 2.818v-5.619a1.123 1.123 0 1 1 2.246-.003v5.63Zm4.826-28.737-5.949 3.45-5.973-3.45a1.125 1.125 0 0 0-1.123 1.951l5.973 3.451v6.896c0 .62.503 1.122 1.123 1.122v-.039c.62 0 1.123-.503 1.123-1.123v-6.864l5.95-3.45a1.124 1.124 0 0 0-1.123-1.943Zm9.888-3.292a1.123 1.123 0 0 1-.562-2.099l4.839-2.797-4.846-2.805a1.125 1.125 0 0 1 1.123-1.95l6.526 3.776c.016.01.029.023.04.036h.001l.03.028a.78.78 0 0 1 .085.065l.013.012a1.042 1.042 0 0 1 .21.242c.005.008.011.013.017.02.006.005.012.01.017.018.005.01.008.02.01.03a.139.139 0 0 0 .009.026.993.993 0 0 1 .1.302.94.94 0 0 1 .018.14c0 .01.003.018.006.027.003.01.006.019.006.03v7.536a1.123 1.123 0 1 1-2.247 0v-5.58l-4.834 2.795c-.17.097-.365.148-.561.148Zm-31.128-2.137-4.83-2.79 4.822-2.758a1.125 1.125 0 1 0-1.123-1.95l-6.392 3.687a1.124 1.124 0 0 0-.365.256l-.002.003a1.464 1.464 0 0 1-.054.054.646.646 0 0 0-.12.143.301.301 0 0 0-.025.073.536.536 0 0 1-.017.057c-.008.017-.014.034-.021.052l-.003.008a1.136 1.136 0 0 0-.055.174l-.002.01a1.52 1.52 0 0 0-.013.11l-.007.043c-.004.023-.008.045-.008.069 0 .004 0 .007.002.01l.002.01v7.513a1.123 1.123 0 1 0 2.246 0v-5.61l4.834 2.825c.17.098.365.149.562.149l.007-.04a1.123 1.123 0 0 0 .562-2.099ZM12.363 44.93l4.844 2.803a1.123 1.123 0 0 1-.562 2.1c-.196 0-.39-.05-.561-.149l-6.526-3.776a.358.358 0 0 1-.079-.067.547.547 0 0 0-.047-.045l-.024-.02a.696.696 0 0 1-.111-.099.995.995 0 0 1-.151-.22l-.005-.01a1.09 1.09 0 0 1-.063-.129 1.133 1.133 0 0 1-.059-.289.175.175 0 0 0-.007-.034.123.123 0 0 1-.008-.038l-.002-.01a.034.034 0 0 1-.002-.01c0-.006 0-.01.002-.015a.076.076 0 0 0 .002-.016v-.103a.07.07 0 0 1 0-.013v-7.403a1.123 1.123 0 1 1 2.246-.003v5.596l4.826-2.799a1.125 1.125 0 1 1 1.123 1.95l-4.836 2.8Z" fill="currentColor"/><path opacity=".197" fill-rule="evenodd" clip-rule="evenodd" d="m33.145 33.104 20.443 11.831-20.443 11.852V33.104Zm-1.279-.014v23.688L11.404 44.932 31.866 33.09Zm0-2.206-20.46-11.839L31.865 7.23v23.655Zm1.28-.01V7.233l20.437 11.811-20.438 11.828Zm21.083 12.95L33.773 31.988 54.23 20.15v23.675Zm-43.447-23.66 20.434 11.825-20.434 11.825v-23.65Zm44.698-1.26-.005-.024a.627.627 0 0 0-.378-.429L32.825 5.571c-.01-.007-.025-.006-.036-.012a.622.622 0 0 0-.228-.062c-.02-.002-.036-.01-.056-.01-.007 0-.014.003-.023.003a.727.727 0 0 0-.14.025l-.023.008c-.028.01-.056.014-.082.026-.015.006-.029.006-.044.014L9.807 18.491c-.017.01-.024.03-.04.04-.015.01-.025.024-.039.036a.497.497 0 0 0-.07.074.641.641 0 0 0-.104.151l-.005.022c-.008.021-.01.044-.018.066-.009.035-.024.067-.028.102-.002.022-.015.04-.015.062 0 .028.011.051.014.077v25.754c-.002.02-.014.037-.014.057 0 .048.016.09.026.134.003.014.005.027.01.042.017.06.043.115.077.167.013.02.024.04.04.06a.603.603 0 0 0 .114.104c.02.015.031.035.052.047l22.38 12.96c.012.008.028.005.042.012a.629.629 0 0 0 .253.067c.008 0 .016.007.023.007h.008a.655.655 0 0 0 .32-.086l22.237-12.89a.629.629 0 0 0 .418-.497c.004-.024.011-.047.013-.07.001-.012.007-.022.007-.033V19.044c0-.05-.018-.094-.028-.14Z" fill="currentColor"/></svg>