<svg xmlns="http://www.w3.org/2000/svg" width="64" height="64" fill="none" viewBox="0 0 64 64"><path fill="currentColor" fill-rule="evenodd" d="m39.586 8.934-6.511-3.77-.025-.01-.023-.008a.9.9 0 0 0-.343-.109q-.036-.006-.07-.017c-.035-.01-.07-.02-.11-.02a.5.5 0 0 0-.133.023 1 1 0 0 1-.11.025q-.03.005-.06.014a1 1 0 0 0-.244.1l-.003.002h-.002L25.41 8.919a1.126 1.126 0 0 0 1.123 1.952l4.85-2.801v6.272a1.123 1.123 0 0 0 2.246 0V8.07l4.826 2.799c.17.097.365.148.562.147l.007.016a1.124 1.124 0 0 0 .562-2.099m16.406 28.454a1.123 1.123 0 0 0-2.246 0v5.602l-4.85-2.8a1.124 1.124 0 1 0-1.123 1.95l4.84 2.795-4.84 2.79a1.123 1.123 0 0 0 .562 2.099c.196.002.39-.05.561-.147l6.38-3.68q.055-.023.105-.058l.02-.013.024-.015.005-.002v-.001l.003-.002q.18-.108.31-.272.016-.02.028-.043l.01-.014.011-.017.004-.007.01-.014.02-.03q.003-.007.008-.01v-.002l.006-.006.001-.003.001-.002a1.1 1.1 0 0 0 .121-.366l.005-.027.01-.064q0-.018.007-.034.006-.018.007-.04zM33.63 55.974l4.795-2.779a1.12 1.12 0 0 1 1.44.666c.164.438.037.932-.317 1.237l-6.472 3.753q-.036.021-.076.033l-.036.013-.042.018-.007.003a1.1 1.1 0 0 1-.4.082h-.008c-.136 0-.267-.033-.394-.079q-.039-.014-.077-.033L32 58.876a.3.3 0 0 1-.056-.025l-6.55-3.753a1.125 1.125 0 1 1 1.123-1.95l4.865 2.818v-5.619a1.123 1.123 0 1 1 2.246-.003v5.63m4.826-28.737-5.949 3.45-5.973-3.45a1.125 1.125 0 0 0-1.123 1.951l5.973 3.451v6.896c0 .62.503 1.122 1.123 1.122v-.039c.62 0 1.123-.503 1.123-1.123v-6.864l5.95-3.45a1.124 1.124 0 0 0-1.123-1.943m9.888-3.292a1.123 1.123 0 0 1-.562-2.099l4.839-2.797-4.846-2.805a1.125 1.125 0 0 1 1.123-1.95l6.526 3.776q.024.016.04.036h.001l.03.028a1 1 0 0 1 .085.065l.013.012q.053.044.1.095.063.069.11.147l.017.02q.01.007.017.018.007.015.01.03l.009.026a1 1 0 0 1 .1.302q.014.07.018.14 0 .014.006.027.005.014.006.03v7.536a1.123 1.123 0 1 1-2.247 0v-5.58l-4.834 2.795c-.17.097-.365.148-.561.148m-31.128-2.137-4.83-2.79 4.822-2.758a1.125 1.125 0 1 0-1.123-1.95l-6.392 3.687a1.1 1.1 0 0 0-.365.256l-.002.003-.054.054a.7.7 0 0 0-.12.143.3.3 0 0 0-.025.073q-.007.03-.017.057l-.021.052-.003.008a1 1 0 0 0-.055.174l-.002.01-.013.11-.007.043q-.007.034-.008.069 0 .006.002.01l.002.01v7.513a1.123 1.123 0 1 0 2.246 0v-5.61l4.834 2.825c.17.098.365.149.562.149l.007-.04a1.123 1.123 0 0 0 .562-2.099M12.363 44.93l4.844 2.803a1.123 1.123 0 0 1-.562 2.1c-.196 0-.39-.05-.561-.149l-6.526-3.776a.4.4 0 0 1-.079-.067l-.047-.045-.024-.02q-.06-.044-.111-.099a1 1 0 0 1-.151-.22l-.005-.01a1 1 0 0 1-.063-.129 1.1 1.1 0 0 1-.059-.289l-.007-.034q-.007-.018-.008-.038l-.002-.01-.002-.01q0-.008.002-.015l.002-.016v-7.519a1.123 1.123 0 1 1 2.246-.003v5.596l4.826-2.799a1.125 1.125 0 1 1 1.123 1.95z" clip-rule="evenodd"/><path fill="currentColor" fill-rule="evenodd" d="m33.145 33.104 20.443 11.831-20.443 11.852zm-1.279-.014v23.688L11.404 44.932zm0-2.206-20.46-11.839L31.865 7.23zm1.28-.01V7.233l20.437 11.811zm21.083 12.95L33.773 31.988 54.23 20.15zm-43.447-23.66 20.434 11.825-20.434 11.825zm44.698-1.26-.005-.024a.63.63 0 0 0-.378-.429L32.825 5.571c-.01-.007-.025-.006-.036-.012l-.066-.03a.6.6 0 0 0-.162-.032c-.02-.002-.036-.01-.056-.01l-.023.003a1 1 0 0 0-.14.025l-.023.008c-.028.01-.056.014-.082.026-.015.006-.029.006-.044.014L9.807 18.491c-.017.01-.024.03-.04.04-.015.01-.025.024-.039.036a.5.5 0 0 0-.07.074.6.6 0 0 0-.104.151l-.005.022c-.008.021-.01.044-.018.066-.009.035-.024.067-.028.102-.002.022-.015.04-.015.062 0 .028.011.051.014.077v25.754c-.002.02-.014.037-.014.057 0 .048.016.09.026.134l.01.042q.026.09.077.167.018.03.04.06a.6.6 0 0 0 .114.104c.02.015.031.035.052.047l22.38 12.96c.012.008.028.005.042.012a.6.6 0 0 0 .253.067c.008 0 .016.007.023.007h.008a.66.66 0 0 0 .32-.086l22.237-12.89a.63.63 0 0 0 .418-.497c.004-.024.011-.047.013-.07.001-.012.007-.022.007-.033V19.044c0-.05-.018-.094-.028-.14" clip-rule="evenodd" opacity=".197"/></svg>