<svg xmlns="http://www.w3.org/2000/svg" width="64" height="64" fill="none" viewBox="0 0 64 64"><path fill="currentColor" fill-rule="evenodd" d="M15 11.5c0-1.379 1.121-2.5 2.5-2.5H23V3.5c0-.275.225-.5.5-.5h17c.275 0 .5.225.5.5V9h5.5c1.379 0 2.5 1.121 2.5 2.5v47c0 1.379-1.121 2.5-2.5 2.5h-29a2.5 2.5 0 0 1-2.5-2.5zM17.5 64h29c3.032 0 5.5-2.468 5.5-5.5v-47C52 8.468 49.532 6 46.5 6H44V3.5C44 1.57 42.43 0 40.5 0h-17C21.57 0 20 1.57 20 3.5V6h-2.5a5.507 5.507 0 0 0-5.5 5.5v47c0 3.032 2.468 5.5 5.5 5.5m13.18-28.44-4.625-3.443 9.809-9.77-3.861 8.611a1.5 1.5 0 0 0 .924 2.046l4.35 1.353-9.483 11.715 3.39-8.768a1.5 1.5 0 0 0-.504-1.744M22.2 55.735a1.5 1.5 0 0 0 1.918-.354L41 34.525a1.5 1.5 0 0 0-.72-2.376l-4.848-1.508 6.485-14.465A1.501 1.501 0 0 0 39.49 14.5L22.705 31.22a1.5 1.5 0 0 0 .163 2.265l5.106 3.801-6.422 16.61a1.5 1.5 0 0 0 .648 1.84" clip-rule="evenodd"/></svg>