<svg xmlns="http://www.w3.org/2000/svg" width="64" height="64" fill="none" viewBox="0 0 64 64"><path fill="currentColor" fill-rule="evenodd" d="m63.92 10.56.03.09h-.03c.03.11.05.23.05.35v26.51c0 .53-.28 1.02-.74 1.29l-11 6.5h-.01c-.09.05-.18.08-.27.11a.2.2 0 0 0-.036.018c-.018.011-.036.022-.054.022-.12.03-.23.05-.35.05h-.07c-.12 0-.24-.02-.36-.05l-.05-.02-.05-.02c-.09-.03-.18-.06-.26-.11h-.01l-10.98-6.49-.01-.012q-.01-.016-.02-.018c-.01-.01-.03-.01-.03-.01l-11-7a1.52 1.52 0 0 1-.69-1.27v-13c0-.12.02-.24.05-.35l.012-.03a.2.2 0 0 0 .018-.06c.03-.08.06-.16.1-.24q.014-.023.025-.045.011-.023.025-.045c.06-.09.12-.17.19-.25.01-.01.02-.03.02-.03.08-.09.18-.16.28-.22.01-.01.03-.02.03-.02l11-6.5 11-6.5c.48-.28 1.06-.28 1.53 0l10.99 6.5a2 2 0 0 1 .31.24c.01.01.02.03.02.03a1.5 1.5 0 0 1 .215.295q.011.023.025.045c.04.08.07.16.1.24m-4.37.45L51.5 6.25v-.01L32.45 17.51l8.05 4.76zM39 24.87l-8-4.73v9.55l8 5.09zm4.45 12.64L50 41.38v-7.74zm9.55-6.5v10.37l-.01.01 8-4.73V13.64l-8.74 5.16-10.26 6.06v10.02l8.74-5.16c.47-.27 1.04-.28 1.51-.01.47.26.76.76.76 1.3m-17.08 9.04h.01l.012.03q.016.03.018.06c.03.11.05.23.05.35v13c0 .52-.26.99-.69 1.27l-11 7c-.01.02-.03.02-.04.02a1 1 0 0 1-.211.1l-.029.01q-.041.01-.075.028a.3.3 0 0 1-.055.022c-.13.03-.26.05-.39.05h-.03c-.12 0-.24-.02-.36-.05q-.03-.009-.06-.025a2 2 0 0 0-.132-.05c-.055-.019-.109-.037-.158-.065-.01 0-.02-.01-.02-.01h-.02l-22-13C.28 48.52 0 48.03 0 47.5v-26q0-.27.09-.51c-.05-.15-.09-.32-.09-.49 0-.53.28-1.02.74-1.29l10.97-6.5c.48-.28 1.06-.28 1.53 0l11 6.5a2 2 0 0 1 .31.24c.01.01.02.03.02.03.07.08.14.16.19.25q.014.022.025.045t.025.045c.04.08.07.16.1.24l.012.03q.017.03.018.06c.03.11.05.23.05.35v12.64l10.26 6.06a2 2 0 0 1 .31.24c.01.01.02.03.02.03a1.5 1.5 0 0 1 .215.295q.011.023.025.045c.04.08.07.16.1.24m-20.47.45 8.05 4.76 8.05-4.76-8.05-4.76zM22 23.13l-8 4.73v10.02l8-4.73zm-1.45-2.62-8.05-4.76-8.05 4.76 8.05 4.76zM11 27.87l-8-4.73v23.5l19.01 11.24V47.86L11.75 41.8a2 2 0 0 1-.31-.24.1.1 0 0 1-.02-.03 1.5 1.5 0 0 1-.19-.25q-.015-.023-.025-.045-.011-.023-.025-.045c-.04-.08-.07-.16-.1-.24l-.012-.03q-.016-.03-.018-.06c-.03-.11-.05-.23-.05-.35zm14 20v9.91l8-5.09v-9.55z" clip-rule="evenodd"/></svg>