<svg xmlns="http://www.w3.org/2000/svg" width="64" height="64" fill="none" viewBox="0 0 64 64"><path fill="currentColor" d="M62.5 17H50V9h1.5A1.5 1.5 0 0 0 53 7.5v-6A1.5 1.5 0 0 0 51.5 0h-39A1.5 1.5 0 0 0 11 1.5v6A1.5 1.5 0 0 0 12.5 9H14v8H1.5A1.5 1.5 0 0 0 0 18.5v44A1.5 1.5 0 0 0 1.5 64h61a1.5 1.5 0 0 0 1.5-1.5v-44a1.5 1.5 0 0 0-1.5-1.5M14 3h36v3H14zM3 20h11v41H3zm14-1.5V9h30v52H17zM61 61H50V20h11z"/><path fill="currentColor" d="M28.5 25h-5a1.5 1.5 0 1 0 0 3h5a1.5 1.5 0 1 0 0-3m12 0h-5a1.5 1.5 0 1 0 0 3h5a1.5 1.5 0 1 0 0-3m-12-8h-5a1.5 1.5 0 1 0 0 3h5a1.5 1.5 0 1 0 0-3m12 0h-5a1.5 1.5 0 1 0 0 3h5a1.5 1.5 0 1 0 0-3m-12 16h-5a1.5 1.5 0 1 0 0 3h5a1.5 1.5 0 1 0 0-3m12 0h-5a1.5 1.5 0 1 0 0 3h5a1.5 1.5 0 1 0 0-3m-12 8h-5a1.5 1.5 0 1 0 0 3h5a1.5 1.5 0 1 0 0-3m12 0h-5a1.5 1.5 0 1 0 0 3h5a1.5 1.5 0 1 0 0-3m-12 8h-5a1.5 1.5 0 1 0 0 3h5a1.5 1.5 0 1 0 0-3m12 0h-5a1.5 1.5 0 1 0 0 3h5a1.5 1.5 0 1 0 0-3"/></svg>