<svg width="64" height="64" viewBox="0 0 64 64" fill="none" xmlns="http://www.w3.org/2000/svg"><path fill-rule="evenodd" clip-rule="evenodd" d="M28.339 5.996a7.381 7.381 0 0 0-5.19 2.122c-1.387 1.367-2.15 3.174-2.148 5.088a6.898 6.898 0 0 0 2.083 4.951l12.428 12.235L47.919 18.17A6.93 6.93 0 0 0 50 13.201c0-1.915-.762-3.72-2.145-5.083-2.85-2.806-7.453-2.833-10.266-.062l-1.034 1.018a1.498 1.498 0 0 1-2.105 0l-1.034-1.018a7.202 7.202 0 0 0-5.076-2.06Zm7.173 28.002c-.38 0-.76-.144-1.051-.43L20.98 20.297A9.876 9.876 0 0 1 18 13.208c0-2.725 1.08-5.291 3.045-7.227 4.003-3.946 10.48-3.977 14.458-.08 3.973-3.897 10.453-3.865 14.459.08C51.921 7.912 53 10.476 53 13.201a9.9 9.9 0 0 1-2.974 7.105l-13.46 13.26a1.496 1.496 0 0 1-1.053.432Zm24.36 13.246a1.99 1.99 0 0 0 1.017-1.146 2 2 0 0 0-2.77-2.451l-12.721 6.19a.634.634 0 0 1-.09.034l-.05.018a4.939 4.939 0 0 1-1.965.538c-.097.02-.2.03-.302.03H24.159a1.5 1.5 0 1 1 0-3H42.99a2.003 2.003 0 0 0 2-2 2.004 2.004 0 0 0-2.014-2.002.097.097 0 0 0-.016-.001H29.249a1.502 1.502 0 0 1-1.45-1.111c-.058-.204-1.648-5.345-10.134-5.345H3v14.907l28.877 8.986 27.996-13.647Zm.754-6.527a4.974 4.974 0 0 1 2.867 2.537c.584 1.2.667 2.558.232 3.822a4.972 4.972 0 0 1-2.537 2.866L32.657 63.849c-.027.012-.055.02-.083.03l-.048.016A1.486 1.486 0 0 1 32 64h-.001l-.004-.001a1.477 1.477 0 0 1-.42-.063l-.021-.003-30.499-9.491A1.5 1.5 0 0 1 0 53.009V35.498a1.5 1.5 0 0 1 1.5-1.5h16.165c8.419 0 11.563 4.348 12.593 6.456H42.99a1.5 1.5 0 0 1 .316.035 4.982 4.982 0 0 1 4.664 4.76l8.835-4.3a4.974 4.974 0 0 1 3.82-.232Z" fill="currentColor"/></svg>