<svg xmlns="http://www.w3.org/2000/svg" width="64" height="64" fill="none" viewBox="0 0 64 64"><path fill="currentColor" fill-rule="evenodd" d="M28.339 5.996a7.38 7.38 0 0 0-5.19 2.122c-1.387 1.367-2.15 3.174-2.148 5.088a6.9 6.9 0 0 0 2.083 4.951l12.428 12.235L47.919 18.17A6.93 6.93 0 0 0 50 13.201c0-1.915-.762-3.72-2.145-5.083-2.85-2.806-7.453-2.833-10.266-.062l-1.034 1.018a1.5 1.5 0 0 1-2.105 0l-1.034-1.018a7.2 7.2 0 0 0-5.076-2.06m7.173 28.002c-.38 0-.76-.144-1.051-.43L20.98 20.297A9.88 9.88 0 0 1 18 13.208c0-2.725 1.08-5.291 3.045-7.227 4.003-3.946 10.48-3.977 14.458-.08 3.973-3.897 10.453-3.865 14.459.08C51.921 7.912 53 10.476 53 13.201a9.9 9.9 0 0 1-2.974 7.105l-13.46 13.26a1.5 1.5 0 0 1-1.053.432m24.36 13.246a2 2 0 0 0 1.017-1.146 2 2 0 0 0-2.77-2.451l-12.721 6.19a1 1 0 0 1-.09.034l-.05.018a4.9 4.9 0 0 1-1.965.538q-.147.03-.302.03H24.159a1.5 1.5 0 1 1 0-3H42.99a2.003 2.003 0 0 0 2-2 2.004 2.004 0 0 0-2.014-2.002l-.016-.001H29.249a1.5 1.5 0 0 1-1.45-1.111c-.058-.204-1.648-5.345-10.134-5.345H3v14.907l28.877 8.986zm.754-6.527a4.97 4.97 0 0 1 2.867 2.537c.584 1.2.667 2.558.232 3.822a4.97 4.97 0 0 1-2.537 2.866L32.657 63.849q-.04.017-.083.03l-.048.016A1.5 1.5 0 0 1 32 64h-.001l-.004-.001-.006-.001a1.5 1.5 0 0 1-.414-.062l-.021-.003-30.499-9.491A1.5 1.5 0 0 1 0 53.009V35.498a1.5 1.5 0 0 1 1.5-1.5h16.165c8.419 0 11.563 4.348 12.593 6.456H42.99a1.5 1.5 0 0 1 .316.035 4.98 4.98 0 0 1 4.664 4.76l8.835-4.3a4.97 4.97 0 0 1 3.82-.232" clip-rule="evenodd"/></svg>