<svg xmlns="http://www.w3.org/2000/svg" width="64" height="64" fill="none" viewBox="0 0 64 64"><path fill="currentColor" fill-rule="evenodd" d="M4.033 13.067c0-4.677 9.458-9.334 21.234-9.334 11.775 0 21.233 4.656 21.233 9.334h3.033C49.534 5.393 38.58 0 25.268 0S1 5.393 1 13.067zM25.267 22.4c11.775 0 21.233-4.656 21.233-9.333h3.034v14.756a20 20 0 0 0-4.175-.277c.737-.847 1.138-1.73 1.141-2.607v-5.356c-4.154 4.037-12.144 6.55-21.233 6.55S8.188 23.62 4.033 19.584v5.345c0 4.283 9.476 8.673 21.234 8.673 2.526 0 4.947-.203 7.19-.564a19.8 19.8 0 0 0-3.295 4.15c-1.269.097-2.57.147-3.895.147-9.099 0-17.082-2.36-21.234-6.192v4.985c0 4.283 9.476 8.673 21.234 8.673q.647 0 1.285-.017a20 20 0 0 0-.115 3.737q-.582.013-1.17.013c-9.099 0-17.082-2.36-21.234-6.192v4.986C4.033 51.61 13.51 56 25.267 56q1.588-.001 3.113-.103a19.8 19.8 0 0 0 2.229 3.556c-1.72.184-3.509.28-5.342.28C11.936 59.733 1 54.667 1 47.327v-34.26h3.033v.012c.017 4.674 9.469 9.321 21.234 9.321" clip-rule="evenodd"/><path fill="currentColor" fill-rule="evenodd" d="M46.132 60.761c7.454 0 13.496-6.042 13.496-13.495 0-7.454-6.042-13.496-13.496-13.496-7.453 0-13.495 6.042-13.495 13.496 0 7.453 6.042 13.495 13.495 13.495m0 3.24c9.242 0 16.735-7.493 16.735-16.735S55.374 30.53 46.132 30.53s-16.734 7.493-16.734 16.735S36.89 64 46.132 64" clip-rule="evenodd"/><path fill="currentColor" fill-rule="evenodd" d="M38.526 47.821v.008c0 .145.029.283.075.41l.006.018c.054.142.134.27.234.375l5.536 5.906a1.02 1.02 0 0 0 1.509 0 1.19 1.19 0 0 0 0-1.609l-3.727-3.975 12.545-.043c.589-.002 1.065-.513 1.063-1.142-.001-.628-.48-1.134-1.067-1.134h-.003l-12.52.043 3.807-4.062a1.19 1.19 0 0 0 0-1.61 1.03 1.03 0 0 0-.754-.333 1.03 1.03 0 0 0-.755.334l-5.637 6.013v.001a1.2 1.2 0 0 0-.232.372l-.004.015a1.2 1.2 0 0 0-.076.413" clip-rule="evenodd"/></svg>