<svg xmlns="http://www.w3.org/2000/svg" width="64" height="64" fill="none" viewBox="0 0 64 64"><path fill="currentColor" fill-rule="evenodd" d="M58.396 41.537c-2.966 1.637-7.73 2.613-12.746 2.613-.47 0-.939-.01-1.425-.03a24 24 0 0 1-1.176-.056 41 41 0 0 1-1.584-.148 23 23 0 0 1-1.209-.149 39 39 0 0 1-1.049-.172l-.186-.038c-.393-.075-.785-.149-1.181-.248-.356-.083-.704-.164-1.033-.263L36.625 43a19 19 0 0 1-.957-.298c-.225-.072-.451-.144-.661-.23-.034-.015-.062-.024-.097-.038a13 13 0 0 1-.729-.29 12 12 0 0 1-1.29-.625c-.143-.08-.285-.159-.415-.24-.208-.13-.397-.262-.577-.39-.046-.035-.087-.068-.131-.1l-.427-.355c-.084-.078-.17-.154-.247-.238l-.083-.084c-.081-.075-.146-.165-.209-.246a2 2 0 0 1-.12-.167l-.062-.095q-.045-.066-.08-.127a1.6 1.6 0 0 1-.124-.27 1 1 0 0 1-.042-.115l-.061-.292a1 1 0 0 1-.013-.169v-4.293c.106.087.228.172.34.257.085.065.168.131.258.195.304.22.625.436.985.654.826.5 1.759.957 2.778 1.363 3.133 1.234 7.037 1.914 10.989 1.914 5.326 0 10.348-1.195 13.777-3.277.334-.202.647-.415.947-.632.093-.067.181-.137.272-.207.117-.089.242-.177.354-.269v4.295c0 .926-.952 1.986-2.604 2.907m.029 8.43C55.45 51.61 50.674 52.59 45.65 52.59c-5.022 0-9.789-.98-12.753-2.622a8.7 8.7 0 0 1-1.299-.877q-.14-.115-.267-.23l-.107-.095a8 8 0 0 1-.365-.386 2.8 2.8 0 0 1-.443-.744l-.029-.07-.002-.137-.063-.13a2 2 0 0 1-.022-.229v-3.636q.279.196.582.386c.168.106.356.211.589.342.508.281 1.035.536 1.537.742.261.114.53.218.753.3l.099.04c.284.117.586.216.86.304.33.114.671.218 1.031.321q.122.041.26.07c.367.108.751.2 1.126.287l.02.004.014.004c.417.094.846.187 1.286.27l.157.031c.386.072.783.136 1.202.2.445.064.912.126 1.347.165.548.063 1.098.115 1.67.157.434.031.878.052 1.296.062.5.021 1.01.031 1.521.031 5.581 0 10.755-1.089 14.201-2.989q.634-.354 1.149-.717v3.626c0 .922-.943 1.98-2.575 2.897M61 55.48C61 57.785 55.16 61 45.65 61S30.3 57.785 30.3 55.48v-3.606c.037.026.08.048.118.074.328.227.666.445 1.026.645 3.438 1.904 8.616 2.997 14.206 2.997 5.591 0 10.775-1.092 14.234-3.002q.614-.345 1.116-.698zm-42.64-4.93C8.843 50.55 3 47.335 3 45.03v-3.607c.038.026.083.05.121.076.324.223.665.441 1.039.652.156.084.311.166.382.196.241.131.495.253.714.347a23 23 0 0 0 3.375 1.21c.646.182 1.314.343 1.961.472.399.086.797.162 1.184.223.307.052.628.105.952.148l.945.122c.529.064 1.068.106 1.674.151.416.031.832.06 1.214.068.699.036 1.413.045 2.116.04.499-.005.994-.014 1.455-.039.366-.01.731-.03 1.118-.053a38 38 0 0 0 1.619-.152c.262-.023.526-.056.785-.089l.447-.062c.273-.04.527-.08.789-.13.192-.024.366-.056.464-.079q.346-.05.677-.129c.127-.023.253-.048.369-.074q.174-.039.321-.076.295-.06.579-.13v5.305c-2.636.741-5.702 1.13-8.94 1.13M3 33.006c.106.074.221.147.333.22.071.046.135.093.209.14q.286.179.603.358c3.449 1.904 8.631 2.996 14.215 2.996a42 42 0 0 0 2.107-.059l.447-.023a40 40 0 0 0 1.994-.17c.108-.012.214-.028.322-.04q.893-.11 1.753-.257c.108-.019.219-.034.326-.054a30 30 0 0 0 1.81-.386c.059-.013.123-.023.181-.038v5.319l-.018.004c-.397.104-.802.208-1.244.308a9 9 0 0 1-.42.096l-.233.045a6 6 0 0 1-.541.104 4 4 0 0 1-.355.061l-.112.016a15 15 0 0 1-.877.144l-.229.03a15 15 0 0 1-.705.08c-.498.058-1.007.106-1.514.143-.334.02-.67.038-1.041.05-1.09.057-2.16.06-3.336-.003a23 23 0 0 1-1.166-.066 36 36 0 0 1-1.467-.132l-.923-.119c-.282-.038-.563-.085-.857-.134a19 19 0 0 1-1.058-.2 23 23 0 0 1-1.764-.425 20 20 0 0 1-2.97-1.063 7 7 0 0 1-.576-.28c-.104-.049-.209-.106-.288-.148-1.363-.767-2.259-1.629-2.523-2.424l-.069-.273C3.008 36.76 3 36.684 3 36.61zm0-8.443q.527.37 1.175.731c3.441 1.897 8.611 2.986 14.185 2.986q1.148-.002 2.27-.065c.242-.013.476-.035.715-.053a39 39 0 0 0 1.492-.13c.274-.03.54-.066.809-.1a35 35 0 0 0 2.116-.343 30 30 0 0 0 1.265-.276c.161-.039.334-.067.492-.107-.049.174-.078.351-.11.527-.016.084-.04.166-.052.25a6 6 0 0 0-.057.807v3.798l-.016.005c-.597.166-1.225.31-1.868.441l-.285.06a32 32 0 0 1-2.277.352c-.662.08-1.335.146-2.018.19l-.297.016c-.72.041-1.448.068-2.179.068-5.018 0-9.79-.98-12.756-2.618C3.95 30.173 3 29.115 3 28.2zm0-9.108c.117.095.246.186.368.278.09.07.176.14.27.206.301.217.615.43.951.632 3.422 2.084 8.441 3.28 13.771 3.28 5.314 0 10.336-1.195 13.779-3.28.336-.204.65-.418.951-.637.087-.063.169-.128.254-.193.122-.094.251-.183.366-.279v4.298c0 .798-.695 1.537-1.28 2.016l-.318.27-.36.225c-.217.141-.449.274-.658.391l-.055.032c-.204.112-.43.213-.649.318-.184.088-.359.18-.554.263-.23.1-.481.188-.725.281-.204.076-.399.157-.611.23-.261.088-.541.165-.815.246-.218.065-.426.135-.651.194-.293.078-.603.144-.908.214-.224.051-.441.11-.672.156-.322.065-.659.118-.991.174-.229.04-.451.084-.684.12-.353.051-.717.09-1.078.132-.226.027-.447.06-.676.081-.399.04-.808.063-1.215.09-.2.012-.395.032-.597.042q-.918.045-1.853.045c-5.009 0-9.77-.976-12.733-2.61C3.958 21.742 3 20.682 3 19.76zM18.36 3c9.046 0 15.35 3.652 15.35 6.93 0 1.402-1.111 2.851-3.126 4.077-2.987 1.807-7.442 2.843-12.224 2.843-4.795 0-9.245-1.036-12.216-2.844C4.117 12.782 3 11.336 3 9.93 3 6.652 9.308 3 18.36 3M61 28.79c0 1.908-1.959 3.38-3.128 4.088-2.975 1.805-7.429 2.842-12.222 2.842-3.585 0-7.098-.606-9.885-1.704a16 16 0 0 1-2.327-1.138c-.622-.377-1.117-.737-1.527-1.115-1.069-.958-1.611-1.958-1.611-2.973q.001-.286.058-.562c.013-.06.038-.118.054-.178.032-.119.062-.24.107-.356.029-.07.069-.138.103-.209.046-.098.089-.199.145-.294.043-.074.096-.143.144-.216.056-.085.11-.172.172-.254.051-.068.108-.13.163-.195.067-.082.132-.165.205-.243.051-.056.106-.106.16-.159.08-.082.159-.165.242-.24l.131-.115a8 8 0 0 1 .291-.25l.068-.05a9 9 0 0 1 .31-.238l.12-.069.006-.007c.042-.024.088-.055.131-.079q.197-.115.402-.245c.039-.025.077-.045.117-.07l.226-.153q.066-.045.13-.092a15.4 15.4 0 0 1 1.979-.932c2.781-1.106 6.292-1.714 9.886-1.714 9.046 0 15.35 3.646 15.35 6.92m-15.35-9.92c-3.197 0-6.25.428-8.957 1.231.009-.116.017-.233.017-.34V9.93C36.71 4.36 28.65 0 18.36 0 8.065 0 0 4.36 0 9.93v35.1c0 5.532 9.459 8.52 18.36 8.52 3.187 0 6.233-.36 8.94-1.035v2.964c0 4.857 7.889 8.52 18.35 8.52S64 60.337 64 55.48V28.79c0-5.563-8.061-9.92-18.35-9.92" clip-rule="evenodd"/></svg>