<svg xmlns="http://www.w3.org/2000/svg" width="64" height="64" fill="none" viewBox="0 0 64 64"><path fill="currentColor" fill-rule="evenodd" d="M13.7 22.771C15.03 13.811 22.79 7 32 7a18.45 18.45 0 0 1 15.29 8.061l-2.18 2.169C42.33 12.79 37.44 10 32 10c-8.14 0-14.93 6.36-15.46 14.471l-.109 1.599-1.591-.21a10 10 0 0 0-1.34-.089c-5.79 0-10.5 4.709-10.5 10.5 0 5.79 4.71 10.5 10.5 10.5h2.08l-2.97 2.969C5.58 49.28 0 43.421 0 36.271c0-7.441 6.06-13.5 13.5-13.5zm10.36 24H48.5c6.89 0 12.5-5.61 12.5-12.5 0-6.71-5.319-12.2-11.96-12.48zm33.48-33.48-5.83 5.83C58.729 20.59 64 26.82 64 34.27c0 8.55-6.95 15.5-15.5 15.5H21.06l-6.52 6.52c-.29.3-.68.44-1.061.44a1.45 1.45 0 0 1-1.059-.44 1.49 1.49 0 0 1 0-2.12l4.4-4.4 29.701-29.7 2.289-2.29 6.61-6.61c.58-.58 1.53-.58 2.12 0 .58.59.58 1.54 0 2.12" clip-rule="evenodd"/></svg>