<svg width="64" height="64" viewBox="0 0 64 64" fill="none" xmlns="http://www.w3.org/2000/svg"><path fill-rule="evenodd" clip-rule="evenodd" d="M3 32c0 15.99 13.01 29 29 29s29-13.01 29-29S47.99 3 32 3 3 16.01 3 32Zm-3 0C0 14.355 14.355 0 32 0s32 14.355 32 32-14.355 32-32 32S0 49.645 0 32Zm39.208-7.82a1.5 1.5 0 0 1-2.098.318c-3.179-2.34-7.463-1.882-10.186 1.089A9.045 9.045 0 0 0 25.35 28h6.15a1.5 1.5 0 0 1 0 3h-6.95a9.975 9.975 0 0 0 0 2h6.95a1.5 1.5 0 0 1 0 3h-6.149c.392.87.911 1.687 1.573 2.41 2.16 2.355 5.292 3.187 8.18 2.162a7.73 7.73 0 0 0 2.005-1.088 1.499 1.499 0 1 1 1.781 2.414 10.719 10.719 0 0 1-2.785 1.502c-1.154.41-2.336.609-3.504.609-2.919 0-5.755-1.244-7.887-3.572-1.187-1.293-2.03-2.817-2.557-4.437H19.5a1.5 1.5 0 0 1 0-3h2.058a13.091 13.091 0 0 1 0-2H19.5a1.5 1.5 0 0 1 0-3h2.656c.526-1.621 1.371-3.146 2.558-4.44 3.778-4.122 9.74-4.746 14.175-1.478.667.491.81 1.431.32 2.098Zm.686 25.948c-3.87 1.712-8.131 2.248-11.987 1.516-4.008-.762-7.687-2.616-10.36-5.218a1.5 1.5 0 1 0-2.093 2.148c3.134 3.053 7.247 5.134 11.892 6.017a21.5 21.5 0 0 0 4.016.372c3.269 0 6.624-.71 9.745-2.091a1.5 1.5 0 0 0-1.213-2.744Zm4.546-2.688 1-1a1.5 1.5 0 1 1 2.12 2.12l-1 1a1.496 1.496 0 0 1-2.12 0 1.5 1.5 0 0 1 0-2.12ZM36.654 9.41c-4.453-.848-9.342-.237-13.76 1.718a1.5 1.5 0 1 0 1.212 2.744c3.87-1.712 8.13-2.249 11.987-1.516 4.008.762 7.687 2.615 10.36 5.218a1.498 1.498 0 0 0 2.121-.027 1.501 1.501 0 0 0-.027-2.12c-3.135-3.054-7.247-5.135-11.893-6.018Zm-18.093 8.15A1.495 1.495 0 0 1 17.5 18a1.502 1.502 0 0 1-1.061-2.561l1-1a1.502 1.502 0 0 1 2.122 0 1.502 1.502 0 0 1 0 2.122l-1 1Z" fill="currentColor"/></svg>