<svg xmlns="http://www.w3.org/2000/svg" width="64" height="64" fill="none" viewBox="0 0 64 64"><path fill="currentColor" fill-rule="evenodd" d="M3 32c0 15.99 13.01 29 29 29s29-13.01 29-29S47.99 3 32 3 3 16.01 3 32m-3 0C0 14.355 14.355 0 32 0s32 14.355 32 32-14.355 32-32 32S0 49.645 0 32m30.011 5c.844 0 1.476-.242 1.936-.741 1.031-1.12 1.098-3.322 1.036-4.076a1.6 1.6 0 0 1 .001-.256c.063-.78-.005-3.061-1.06-4.2-.459-.495-1.059-.727-1.888-.727h-.019c-.862.004-1.508.255-1.973.77-1.047 1.155-1.092 3.437-1.026 4.145q.015.134.001.268c-.058.75.015 2.952 1.05 4.074.463.5 1.098.743 1.942.743m.023-13c1.66 0 3.076.587 4.1 1.699 1.987 2.158 1.898 5.564 1.847 6.356.05.779.135 4.093-1.817 6.225-1.03 1.125-2.467 1.72-4.153 1.72s-3.122-.595-4.155-1.72c-1.954-2.127-1.882-5.432-1.834-6.217-.055-.791-.162-4.143 1.8-6.308 1.034-1.142 2.48-1.748 4.184-1.755zm-8.226 12.124c-.476 1.753-1.764 3.135-3.36 3.61a6.4 6.4 0 0 1-1.832.266c-2.244 0-3.897-1.148-3.982-1.208a1.5 1.5 0 0 1 1.732-2.45c.005.004 1.523 1.022 3.228.516.59-.176 1.12-.787 1.32-1.52.165-.607.175-1.529-.713-2.48-1.462-1.569-3.872-.064-3.896-.049a1.5 1.5 0 0 1-1.527.05A1.5 1.5 0 0 1 12 31.543V25.5a1.5 1.5 0 0 1 1.5-1.5h6a1.5 1.5 0 1 1 0 3H15v2.332c1.694-.394 3.772-.259 5.394 1.478 1.408 1.51 1.923 3.445 1.414 5.314m27.785-8.313a1.5 1.5 0 1 0 1.814-2.387c-2.923-2.222-6.851-1.806-9.336.992a8 8 0 0 0-1.533 2.592H39.5a1.5 1.5 0 0 0 0 3h.516c0 .334.026.666.063.999h-.58a1.5 1.5 0 0 0 0 2.999h1.488a7.8 7.8 0 0 0 1.084 1.591C43.455 39.156 45.36 40 47.297 40c.766 0 1.536-.13 2.28-.404a7 7 0 0 0 1.83-1.014 1.5 1.5 0 1 0-1.815-2.389 4 4 0 0 1-1.044.587c-1.315.481-2.736.18-3.827-.774H46.5a1.5 1.5 0 0 0 0-2.998h-3.42a6 6 0 0 1-.09-1h3.51a1.5 1.5 0 0 0 0-3h-2.623c.135-.207.27-.414.436-.6 1.439-1.619 3.61-1.864 5.28-.596m-9.7 22.334c-3.868 1.718-8.13 2.256-11.986 1.521-4.008-.763-7.687-2.625-10.36-5.238a1.495 1.495 0 0 0-2.121.028 1.51 1.51 0 0 0 .028 2.128c3.134 3.066 7.247 5.156 11.892 6.041 1.309.25 2.655.374 4.016.374 3.269 0 6.624-.712 9.744-2.099a1.51 1.51 0 0 0 .766-1.986 1.5 1.5 0 0 0-1.98-.77m4.547-2.706 1-1a1.5 1.5 0 1 1 2.12 2.121l-1 1a1.496 1.496 0 0 1-2.12 0 1.5 1.5 0 0 1 0-2.12M24.107 13.857c3.868-1.72 8.128-2.26 11.986-1.522 4.008.764 7.687 2.626 10.36 5.239a1.496 1.496 0 0 0 2.121-.029 1.51 1.51 0 0 0-.028-2.129c-3.134-3.065-7.247-5.155-11.892-6.04-4.453-.852-9.342-.239-13.76 1.725a1.51 1.51 0 0 0-.766 1.986 1.5 1.5 0 0 0 1.98.77m-5.546 3.705A1.5 1.5 0 0 1 17.5 18a1.502 1.502 0 0 1-1.061-2.561l1-1a1.5 1.5 0 0 1 2.122 0 1.5 1.5 0 0 1 0 2.122z" clip-rule="evenodd"/></svg>