<svg xmlns="http://www.w3.org/2000/svg" width="64" height="64" fill="none" viewBox="0 0 64 64"><path fill="currentColor" d="M56.5 10c4.136 0 7.5 3.364 7.5 7.5v29c0 4.136-3.364 7.5-7.5 7.5h-43C9.364 54 6 50.636 6 46.5V45a1.5 1.5 0 1 1 3 0v1.5c0 2.481 2.019 4.5 4.5 4.5h43c2.481 0 4.5-2.019 4.5-4.5v-29c0-2.481-2.019-4.5-4.5-4.5h-43A4.505 4.505 0 0 0 9 17.5v16a1.5 1.5 0 1 1-3 0v-16c0-4.136 3.364-7.5 7.5-7.5zM12.44 31.44a1.5 1.5 0 0 1 2.12 0l6.999 6.998q.212.212.328.493l.007.021c.067.17.107.354.107.548s-.04.379-.107.549l-.007.021a1.5 1.5 0 0 1-.328.492l-6.999 6.999a1.5 1.5 0 0 1-1.06.438 1.5 1.5 0 0 1-1.06-2.56L16.879 41H1.5a1.5 1.5 0 1 1 0-3h15.379l-4.439-4.438a1.5 1.5 0 0 1 0-2.122M44.5 16a1.5 1.5 0 0 1 1.433 1.941l-4 13a1.5 1.5 0 0 1-1.874.994h-.001a1.5 1.5 0 0 1-.993-1.874L42.468 19h-4.969a1.5 1.5 0 0 1-.002-3c2.073-.003 6.99 0 7.003 0M29 16a5.007 5.007 0 0 1 4.999 4.9c.098 1.006-.383 3.42-4.834 8.1H33a1.5 1.5 0 1 1 0 3h-7.5a1.501 1.501 0 0 1-1.02-2.599c6.038-5.601 6.494-8.035 6.525-8.279A1 1 0 0 1 31 21c0-1.103-.897-2-2-2s-2 .897-2 2a1.5 1.5 0 1 1-3 0c0-2.757 2.243-5 5-5m24 0c2.757 0 5 2.243 5 5v6c0 2.757-2.243 5-5 5s-5-2.243-5-5v-6c0-2.757 2.243-5 5-5m0 3c-1.103 0-2 .897-2 2v6c0 1.103.897 2 2 2s2-.897 2-2v-6c0-1.103-.897-2-2-2"/></svg>