<svg width="64" height="64" viewBox="0 0 64 64" fill="none" xmlns="http://www.w3.org/2000/svg">
<path fill-rule="evenodd" clip-rule="evenodd" d="M32 61C16.01 61 3 47.99 3 32C3 26.61 4.49 21.35 7.32 16.79C7.59 16.35 7.6 15.79 7.37 15.33L6.22 11.9L11.89 6.22L15.26 7.34C15.26 7.35 15.27 7.35 15.27 7.35C15.75 7.61 16.33 7.6 16.79 7.32C21.35 4.49 26.61 3 32 3C37.37 3 42.63 4.49 47.19 7.31C47.63 7.57 48.16 7.59 48.62 7.38L52.1 6.22L57.78 11.9L56.6 15.36C56.39 15.82 56.42 16.36 56.68 16.79C59.51 21.35 61 26.61 61 32C61 47.99 47.99 61 32 61ZM59.61 15.83L60.92 11.98C61.1 11.44 60.96 10.84 60.56 10.44L53.56 3.44C53.16 3.04 52.56 2.9 52.02 3.08L48.14 4.38C43.25 1.51 37.69 0 32 0C26.3 0 20.73 1.51 15.85 4.38L11.96 3.08C11.41 2.9 10.82 3.04 10.42 3.44L3.44 10.44C3.04 10.84 2.9 11.44 3.08 11.98L4.38 15.85C1.51 20.73 0 26.3 0 32C0 49.64 14.36 64 32 64C49.64 64 64 49.64 64 32C64 26.29 62.48 20.72 59.61 15.83ZM18 39C14.14 39 11 35.86 11 32C11 28.14 14.14 25 18 25C21.86 25 25 28.14 25 32C25 35.86 21.86 39 18 39ZM18 22C12.49 22 8 26.49 8 32C8 37.51 12.49 42 18 42C23.51 42 28 37.51 28 32C28 26.49 23.51 22 18 22ZM34.71 51.71C35.1 51.32 35.1 50.68 34.71 50.29L33.42 49L34.71 47.71C35.1 47.32 35.1 46.68 34.71 46.29C34.32 45.9 33.68 45.9 33.29 46.29L32 47.58L30.71 46.29C30.32 45.9 29.68 45.9 29.29 46.29C28.9 46.68 28.9 47.32 29.29 47.71L30.58 49L29.29 50.29C28.9 50.68 28.9 51.32 29.29 51.71C29.49 51.9 29.74 52 30 52C30.26 52 30.51 51.9 30.71 51.71L32 50.42L33.29 51.71C33.49 51.9 33.74 52 34 52C34.26 52 34.51 51.9 34.71 51.71ZM26 49C26 45.68 28.68 43 32 43C35.32 43 38 45.68 38 49C38 52.32 35.32 55 32 55C28.68 55 26 52.32 26 49ZM34.71 16.29C35.1 16.68 35.1 17.32 34.71 17.71C34.51 17.9 34.26 18 34 18C33.74 18 33.49 17.9 33.29 17.71L32 16.42L30.71 17.71C30.51 17.9 30.26 18 30 18C29.74 18 29.49 17.9 29.29 17.71C28.9 17.32 28.9 16.68 29.29 16.29L30.58 15L29.29 13.71C28.9 13.32 28.9 12.68 29.29 12.29C29.68 11.9 30.32 11.9 30.71 12.29L32 13.58L33.29 12.29C33.68 11.9 34.32 11.9 34.71 12.29C35.1 12.68 35.1 13.32 34.71 13.71L33.42 15L34.71 16.29ZM32 9C28.68 9 26 11.68 26 15C26 18.32 28.68 21 32 21C35.32 21 38 18.32 38 15C38 11.68 35.32 9 32 9ZM39 32C39 35.86 42.14 39 46 39C49.86 39 53 35.86 53 32C53 28.14 49.86 25 46 25C42.14 25 39 28.14 39 32ZM36 32C36 26.49 40.49 22 46 22C51.51 22 56 26.49 56 32C56 37.51 51.51 42 46 42C40.49 42 36 37.51 36 32Z" fill="black"/>
</svg>
