<svg width="64" height="64" viewBox="0 0 64 64" fill="none" xmlns="http://www.w3.org/2000/svg">
<path d="M62.5 25H58V19.51C58 19.27 57.94 19.04 57.84 18.83C52.86 9.07 42.96 3 32 3C21.04 3 11.14 9.07 6.16 18.83C6.05 19.04 6 19.27 6 19.51V25H1.5C0.67 25 0 25.67 0 26.5V37.5C0 38.33 0.67 39 1.5 39H6V44.49C6 44.73 6.06 44.96 6.16 45.17C11.14 54.93 21.04 61 32 61C42.96 61 52.86 54.93 57.84 45.17C57.95 44.96 58 44.73 58 44.49V39H62.5C63.33 39 64 38.33 64 37.5V26.5C64 25.67 63.33 25 62.5 25ZM61 36H56.5C55.67 36 55 36.67 55 37.5V44.12C50.72 52.24 42.61 57.43 33.5 57.94V53.49C33.5 52.66 32.83 51.99 32 51.99C31.17 51.99 30.5 52.66 30.5 53.49V57.94C21.39 57.42 13.28 52.24 9 44.12V37.5C9 36.67 8.33 36 7.5 36H3V28H7.5C8.33 28 9 27.33 9 26.5V19.88C13.28 11.75 21.39 6.57 30.5 6.05V10.5C30.5 11.33 31.17 12 32 12C32.83 12 33.5 11.33 33.5 10.5V6.05C42.61 6.57 50.72 11.75 55 19.87V26.49C55 27.32 55.67 27.99 56.5 27.99H61V35.99V36Z" fill="black"/>
<path d="M19 25C15.14 25 12 28.14 12 32C12 35.86 15.14 39 19 39C22.86 39 26 35.86 26 32C26 28.14 22.86 25 19 25ZM19 36C16.79 36 15 34.21 15 32C15 29.79 16.79 28 19 28C21.21 28 23 29.79 23 32C23 34.21 21.21 36 19 36Z" fill="black"/>
<path d="M45 25C41.14 25 38 28.14 38 32C38 35.86 41.14 39 45 39C48.86 39 52 35.86 52 32C52 28.14 48.86 25 45 25ZM45 36C42.79 36 41 34.21 41 32C41 29.79 42.79 28 45 28C47.21 28 49 29.79 49 32C49 34.21 47.21 36 45 36Z" fill="black"/>
</svg>
