<svg xmlns="http://www.w3.org/2000/svg" width="64" height="64" fill="none" viewBox="0 0 64 64"><path fill="currentColor" fill-rule="evenodd" d="M32 61C16.01 61 3 47.99 3 32c0-5.39 1.49-10.65 4.32-15.21.27-.44.28-1 .05-1.46L6.22 11.9l5.67-5.68 3.37 1.12c0 .01.01.01.01.01.48.26 1.06.25 1.52-.03A28.8 28.8 0 0 1 32 3c5.37 0 10.63 1.49 15.19 4.31.44.26.97.28 1.43.07l3.48-1.16 5.68 5.68-1.18 3.46c-.21.46-.18 1 .08 1.43A28.8 28.8 0 0 1 61 32c0 15.99-13.01 29-29 29m27.61-45.17 1.31-3.85c.18-.54.04-1.14-.36-1.54l-7-7c-.4-.4-1-.54-1.54-.36l-3.88 1.3A31.85 31.85 0 0 0 32 0c-5.7 0-11.27 1.51-16.15 4.38l-3.89-1.3c-.55-.18-1.14-.04-1.54.36l-6.98 7c-.4.4-.54 1-.36 1.54l1.3 3.87A31.83 31.83 0 0 0 0 32c0 17.64 14.36 32 32 32s32-14.36 32-32c0-5.71-1.52-11.28-4.39-16.17M18 39c-3.86 0-7-3.14-7-7s3.14-7 7-7 7 3.14 7 7-3.14 7-7 7m0-17c-5.51 0-10 4.49-10 10s4.49 10 10 10 10-4.49 10-10-4.49-10-10-10m16.71 29.71c.39-.39.39-1.03 0-1.42L33.42 49l1.29-1.29c.39-.39.39-1.03 0-1.42s-1.03-.39-1.42 0L32 47.58l-1.29-1.29c-.39-.39-1.03-.39-1.42 0s-.39 1.03 0 1.42L30.58 49l-1.29 1.29c-.39.39-.39 1.03 0 1.42.2.19.45.29.71.29s.51-.1.71-.29L32 50.42l1.29 1.29c.2.19.45.29.71.29s.51-.1.71-.29M26 49c0-3.32 2.68-6 6-6s6 2.68 6 6-2.68 6-6 6-6-2.68-6-6m8.71-32.71c.39.39.39 1.03 0 1.42-.2.19-.45.29-.71.29s-.51-.1-.71-.29L32 16.42l-1.29 1.29c-.2.19-.45.29-.71.29s-.51-.1-.71-.29c-.39-.39-.39-1.03 0-1.42L30.58 15l-1.29-1.29c-.39-.39-.39-1.03 0-1.42s1.03-.39 1.42 0L32 13.58l1.29-1.29c.39-.39 1.03-.39 1.42 0s.39 1.03 0 1.42L33.42 15zM32 9c-3.32 0-6 2.68-6 6s2.68 6 6 6 6-2.68 6-6-2.68-6-6-6m7 23c0 3.86 3.14 7 7 7s7-3.14 7-7-3.14-7-7-7-7 3.14-7 7m-3 0c0-5.51 4.49-10 10-10s10 4.49 10 10-4.49 10-10 10-10-4.49-10-10" clip-rule="evenodd"/></svg>