<svg xmlns="http://www.w3.org/2000/svg" width="65" height="64" fill="none" viewBox="0 0 65 64"><path fill="currentColor" fill-rule="evenodd" d="M64 19c0-7.72-6.28-14-14-14-.17 0-.33 0-.5.01L14.5 5H14C6.28 5 0 11.28 0 19c0 .17 0 .33.01.5H0v6.14c0 .57.05 13.26 7.86 22.89l-.02.03.89 1 .1.1.42.45q.059.061.115.125.056.065.115.125c.05.05.1.1.14.15q.037.038.075.08l.075.08.05.05.03.03c.66.67 1.36 1.29 2.08 1.88.18.14.36.28.54.41.13.11.26.21.4.31.13.1.27.2.4.29l.3.21q.2.138.4.262l.2.128q.039.03.08.055a1 1 0 0 1 .08.055c.07.05.14.1.22.14.06.05.12.08.18.11.187.125.38.231.575.339l.113.062.052.029.06.03.104.061q.084.052.176.099c.18.1.36.2.55.29q.127.071.261.138.09.045.179.092c.054.03.114.056.171.08l.049.02c.27.14.54.27.82.38.08.04.15.07.23.1l.035.015.035.015c.06.03.12.06.18.08.31.13.63.26.95.38.02 0 .04 0 .06.02.01 0 .02 0 .03.01l.166.061q.136.052.274.099c.26.1.53.2.8.28.01 0 .03 0 .04.01l.78.24c.03.01.06.02.1.03.19.06.38.11.57.16.42.12.85.22 1.29.32q.116.025.24.06l.07.02c.02 0 .04 0 .06.01q.21.044.42.085t.42.085q.057.002.109.017.03.008.061.013c.1.03.19.05.29.06l.045.01q.023.004.045.01.12.022.245.04.124.018.245.04l.242.037c.194.03.391.062.588.083l.11.015.05.007.06.008.11.015.11.015q.063.001.134.016l.026.004q.084.008.17.019.097.013.2.021.188.022.38.04t.38.04q.055.001.107.005.05.005.093.005.114.008.234.019.132.013.266.021h.05c.34.03.69.05 1.04.06h.19c.14 0 .28 0 .42.01h.11c.44.01.88.02 1.32.02s.88-.01 1.32-.02h.11c.14 0 .28 0 .42-.01h.19c.35-.01.7-.03 1.04-.06h.05q.127-.008.25-.02t.25-.02c.07 0 .13 0 .2-.01q.188-.022.38-.04t.38-.04q.103-.008.2-.021.085-.011.17-.019a1 1 0 0 0 .134-.016l.026-.004c.048 0 .101-.01.152-.019l.068-.011.11-.015.11-.015a11 11 0 0 0 .587-.083l.243-.037q.121-.022.245-.04t.245-.04q.023-.007.045-.01.023-.003.045-.01c.1-.01.19-.03.29-.06a.5.5 0 0 0 .109-.017l.04-.01.021-.003c.28-.05.56-.11.84-.17.02 0 .04 0 .06-.01q.116-.025.24-.06l.07-.02c.43-.1.86-.21 1.29-.32.19-.05.38-.1.57-.16l.05-.015.004-.001.016-.005.03-.009.78-.24c.01 0 .03 0 .04-.01.27-.08.54-.18.8-.28.15-.05.29-.1.44-.16.01 0 .02 0 .03-.01l.03-.01.03-.01c.32-.12.64-.25.95-.38q.045-.016.09-.04t.09-.04c.015 0 .036-.012.054-.022l.01-.005.006-.003c.08-.03.15-.06.23-.11.28-.11.55-.24.82-.38l.027-.011.022-.01a2 2 0 0 0 .171-.079l.179-.092q.135-.067.261-.138c.19-.09.37-.19.55-.29l.105-.061q.084-.052.175-.099l.06-.03c.25-.14.5-.28.74-.43.06-.03.12-.06.18-.11q.045-.026.09-.059.061-.045.13-.081l.044-.029c.042-.027.079-.051.116-.081l.2-.128q.2-.124.4-.262l.3-.21c.13-.09.27-.19.4-.29.14-.1.27-.2.4-.31.18-.13.36-.27.54-.41.72-.59 1.42-1.21 2.08-1.88l.03-.03.05-.05c.05-.05.1-.1.15-.16l.15-.15c.08-.08.16-.17.23-.25l.42-.45a.5.5 0 0 1 .069-.07l.031-.03.89-1-.02-.03c7.81-9.63 7.86-22.31 7.86-22.88v-6.15h-.01c.01-.17.01-.33.01-.5zM50 8c6.07 0 11 4.93 11 11s-4.93 11-11 11-11-4.93-11-11S43.93 8 50 8m-8.65 0C38.1 10.56 36 14.54 36 19c0 7.72 6.28 14 14 14 4.39 0 8.31-2.03 10.87-5.19-.35 3.81-1.7 11.97-6.8 18.49-5.47-5.44-12.89-8.18-22.07-8.18S15.4 40.86 9.93 46.3c-5.1-6.52-6.45-14.68-6.8-18.49A13.98 13.98 0 0 0 14 33c7.72 0 14-6.28 14-14 0-4.46-2.1-8.44-5.35-11zm3.15 43.5c-1.66 0-3-1.34-3-3s1.34-3 3-3 3 1.34 3 3-1.34 3-3 3M32 53.56c-2.76 0-5-2.24-5-5s2.24-5 5-5 5 2.24 5 5-2.24 5-5 5M16.5 48.5c0-1.66 1.34-3 3-3s3 1.34 3 3-1.34 3-3 3-3-1.34-3-3M14 8c6.07 0 11 4.93 11 11s-4.93 11-11 11S3 25.07 3 19 7.93 8 14 8m0 15a4 4 0 1 0 0-8 4 4 0 0 0 0 8m40-4a4 4 0 1 1-8 0 4 4 0 0 1 8 0" clip-rule="evenodd"/></svg>