<svg xmlns="http://www.w3.org/2000/svg" width="64" height="64" fill="none" viewBox="0 0 64 64"><path fill="currentColor" d="m63.56 26.447-4.004-4a1.5 1.5 0 0 0-2.122 0l-1.441 1.45V3.541A3.535 3.535 0 0 0 53.796.277a3.6 3.6 0 0 0-1.357-.266H23.457a1.1 1.1 0 0 0-.32 0 1.46 1.46 0 0 0-.931.63L8.31 18.528v.06a1.54 1.54 0 0 0-.31.88v40.993c0 .93.366 1.822 1.02 2.485A3.55 3.55 0 0 0 11.494 64h40.945a3.55 3.55 0 0 0 3.28-2.176c.18-.429.272-.889.273-1.353V36.295l7.579-7.739a1.5 1.5 0 0 0-.01-2.11m-5.005 3-1.942-1.94 1.882-1.88 1.892 1.89zm-2.562 2.559-3.004 3.07-13.575 13.857-.47.15-1.912-1.74.1-.3L52.99 31.145l1.512-1.51 1.492 1.49.43.43zM21.955 5.88v8.499l-8.509 2.43zM52.99 60.47a.54.54 0 0 1-.55.53H11.494a.54.54 0 0 1-.55-.53V20.639l12.923-3.69a1.49 1.49 0 0 0 1.092-1.44V3.012h27.48a.54.54 0 0 1 .55.53v23.366L34.76 45.173a1.44 1.44 0 0 0-.36.59l-1.882 5.58a.5.5 0 0 0-.09.06 6.2 6.2 0 0 1-4.005 1.569c-.83 0-1.712-1-2.633-2-1.27-1.41-2.703-3-4.875-3-3.213 0-5.506 3.29-5.756 3.67a1.49 1.49 0 0 0 .42 2.07 1.513 1.513 0 0 0 2.083-.4c.45-.58 1.922-2.31 3.293-2.31.831 0 1.712 1 2.633 2 1.271 1.41 2.703 3 4.875 3a9.22 9.22 0 0 0 5.897-2.28l6.327-2c.233-.071.443-.202.61-.38L52.99 39.354z"/><path fill="currentColor" d="M16.45 27.007h31.033a1.5 1.5 0 0 0 1.502-1.5 1.5 1.5 0 0 0-1.502-1.5H16.45a1.503 1.503 0 0 0-1.501 1.5 1.5 1.5 0 0 0 1.501 1.5m0 6.999h24.025a1.5 1.5 0 0 0 1.502-1.5 1.5 1.5 0 0 0-1.501-1.5H16.448a1.503 1.503 0 0 0-1.501 1.5 1.5 1.5 0 0 0 1.501 1.5M40.476 13.01h7.007a1.5 1.5 0 0 0 1.502-1.5 1.5 1.5 0 0 0-1.502-1.5h-7.007a1.503 1.503 0 0 0-1.502 1.5 1.5 1.5 0 0 0 1.502 1.5M16.45 41.005h15.016a1.503 1.503 0 0 0 1.501-1.5 1.5 1.5 0 0 0-1.501-1.5H16.449a1.5 1.5 0 0 0-1.501 1.5 1.5 1.5 0 0 0 1.501 1.5"/></svg>