<svg width="64" height="64" viewBox="0 0 64 64" fill="none" xmlns="http://www.w3.org/2000/svg"><path fill-rule="evenodd" clip-rule="evenodd" d="M25.214 36.89v-.001l-.98 2.756 6.773 6.76 6.771-6.76-.962-2.714c-1.53.708-3.16 1.107-4.809 1.107h-2c-1.62 0-3.25-.42-4.792-1.148Zm-5.21-13.83v1.997c0 4.564 4.901 9.986 10.002 9.986h2.001c5.121 0 10.002-5.422 10.002-9.986V23.06s2.001-.02 2.001-1.997v-1.997c0-.998-.49-1.497-.99-1.747-.49-.25-.99-.25-1.01-.25 4.73-6.85-2.732-13.98-2.732-13.98s-2.36 4.564-11.822 4.564c-8.252 0-7.775 5.433-7.521 8.334.037.423.07.791.07 1.082-2.002.02-2.002 1.235-2.002 1.976v2.018c0 1.957 1.831 1.997 1.991 1.997h.01Zm12.063 26.522a1.502 1.502 0 0 1-2.122 0l-7.799-7.786-9.08 3.664c-1.977.776-3.374 2.363-3.749 4.25L5.953 62.874a1.5 1.5 0 0 1-1.94 1.045c-.757-.26-1.14-1.11-.942-1.883L6.392 49.05c.556-2.815 2.643-5.227 5.562-6.372l9.362-3.777 1.191-3.36c.032-.088.072-.17.118-.248-3.262-2.486-5.6-6.35-5.622-10.185-1.17-.828-2-2.197-2-4.044v-2.017c0-1.977.76-3.275 1.85-4.044-.11-2.096.05-5.042 2.171-7.35 1.83-1.986 4.661-2.994 8.432-2.994 6.821 0 8.902-2.587 9.182-2.996.39-.88 1.14-1.418 2.091-1.607.17-.041.34-.051.5-.051.79 0 1.54.36 2.13.919C44.14 3.589 48.11 9.72 45.95 15.91c.651.799 1.061 1.857 1.061 3.155v1.997c0 1.838-.84 3.196-2 4.025-.01 3.924-2.33 7.788-5.592 10.265h-.001l.017.036c.026.048.053.099.071.152l1.417 3.994a1.494 1.494 0 0 1-.354 1.559l-8.502 8.488ZM35.774 59.9c-1.405-1.174-1.745-1.977-1.767-2.232.383-.508 1.928-2.06 3.964-3.404a6.34 6.34 0 0 1 .738-.433c.057-.028.08-.04.076-.047.21.1.732.662 1.192 1.16l.45.486c.885.93 1.887 1.382 2.976 1.327 2.123-.099 4.037-2.027 6.625-5.318 2.615-3.303 4.06-5.624 3.715-7.715-.175-1.069-.8-1.959-1.86-2.646l-.512-.329-.035-.022c-.586-.377-1.238-.795-1.335-.954-.005-.023-.034-.252.26-1.064.863-2.285 2.02-4.14 2.446-4.669.205.006.94.122 2.361 1.312 2.134 1.804 4.15 7.772-3.488 17.451l-.16.23c-5.122 6.398-9.38 7.716-11.475 7.931-1.668.167-3.149-.207-4.17-1.064Zm-1.927 2.296c1.408 1.18 3.271 1.804 5.33 1.804.352 0 .711-.019 1.074-.056 3.156-.322 8.088-2.186 13.664-9.23l.17-.244.001-.004c5.426-6.976 8.626-16.583 2.916-21.404l-.005-.005c-3.883-3.25-5.879-1.71-6.397-1.159-.78.826-2.204 3.261-3.153 5.773-1.156 3.192.058 4.162 2.305 5.601l.497.32c.485.312.521.535.534.618.198 1.194-2.204 4.23-3.11 5.373-.803 1.022-3.244 4.127-4.409 4.181-.077.008-.272.012-.653-.39l-.43-.463c-1.617-1.748-2.896-3.123-5.869-1.143-2.194 1.448-4.23 3.368-4.859 4.32-.409.621-1.446 2.895 2.394 6.108Z" fill="currentColor"/></svg>