<svg xmlns="http://www.w3.org/2000/svg" width="64" height="64" fill="none" viewBox="0 0 64 64"><path fill="currentColor" fill-rule="evenodd" d="M33.65 64a5.46 5.46 0 0 1-3.89-1.61L1.61 34.24A5.46 5.46 0 0 1 0 30.35V5.5C0 2.47 2.47 0 5.5 0h24.85c1.47 0 2.85.57 3.89 1.61l28.15 28.15A5.46 5.46 0 0 1 64 33.65c0 1.47-.57 2.85-1.61 3.89L37.54 62.39A5.46 5.46 0 0 1 33.65 64M5.5 3A2.5 2.5 0 0 0 3 5.5v24.85c0 .67.26 1.3.73 1.77l28.15 28.15c.94.94 2.59.94 3.54 0l24.85-24.85c.47-.47.73-1.1.73-1.77s-.26-1.3-.73-1.77L32.11 3.73c-.47-.47-1.1-.73-1.77-.73zm9 18C10.92 21 8 18.08 8 14.5S10.92 8 14.5 8s6.5 2.92 6.5 6.5-2.92 6.5-6.5 6.5m0-10c-1.93 0-3.5 1.57-3.5 3.5s1.57 3.5 3.5 3.5 3.5-1.57 3.5-3.5-1.57-3.5-3.5-3.5m16.1 39.99A3.48 3.48 0 0 0 33.045 52h-.005.01-.005a3.46 3.46 0 0 0 2.445-1.01L50.98 35.5a3.46 3.46 0 0 0 0-4.89l-6.59-6.59a3.46 3.46 0 0 0-4.89 0L24.01 39.51a3.46 3.46 0 0 0 0 4.89zm11-24.89c.1-.09.22-.14.35-.14s.25.04.35.14l6.59 6.59c.19.19.19.51 0 .7L33.4 48.88c-.19.19-.51.19-.7 0l-6.59-6.59a.5.5 0 0 1 0-.7z" clip-rule="evenodd"/></svg>