<svg width="64" height="65" viewBox="0 0 64 65" fill="none" xmlns="http://www.w3.org/2000/svg"><path fill-rule="evenodd" clip-rule="evenodd" d="m25.189 36.94-.001-.002-.98 2.76 6.772 6.77 6.77-6.77-.962-2.718c-1.53.71-3.16 1.11-4.808 1.11h-2c-1.62 0-3.25-.42-4.79-1.15h-.001Zm-5.21-13.85v2c0 4.57 4.9 10 10 10h2c5.12 0 10-5.43 10-10v-2s2-.02 2-2v-2c0-1-.49-1.5-.99-1.75-.49-.25-.99-.25-1.01-.25 4.73-6.86-2.73-14-2.73-14s-2.36 4.57-11.82 4.57c-8.248 0-7.772 5.44-7.518 8.346.037.423.069.793.069 1.084-2 .02-2 1.236-2 1.978v2.021c0 1.96 1.83 2 1.99 2h.01Zm12.062 26.56a1.495 1.495 0 0 1-1.061.44c-.384 0-.768-.147-1.061-.44l-7.797-7.797-9.08 3.67c-1.975.775-3.371 2.365-3.746 4.256L5.933 62.96a1.5 1.5 0 0 1-1.941 1.047c-.755-.26-1.138-1.112-.941-1.885l3.32-13.005c.557-2.82 2.643-5.235 5.56-6.381l9.36-3.783 1.192-3.364c.03-.088.072-.172.117-.25-3.26-2.49-5.6-6.36-5.62-10.2-1.17-.83-2-2.2-2-4.05v-2.018c0-1.982.76-3.28 1.85-4.052-.11-2.1.05-5.05 2.17-7.359 1.83-1.99 4.66-3 8.43-3 6.82 0 8.9-2.59 9.18-3C37 .78 37.75.24 38.7.05c.17-.04.34-.05.5-.05.79 0 1.54.36 2.13.92 2.78 2.67 6.75 8.81 4.59 15.01.65.8 1.06 1.86 1.06 3.16v2c0 1.84-.84 3.2-2 4.03-.01 3.93-2.33 7.8-5.59 10.28h-.002l.012.024c.028.053.057.107.077.165l1.417 4a1.5 1.5 0 0 1-.353 1.562l-8.5 8.5Zm2.279 11.4c.35 0 .69-.13.95-.39l12.22-12.21 1.07-1.07c.571-.573 1.419-.828 2.186-.57a5.403 5.403 0 0 0 1.734.28c.13 0 .26 0 .38-.02a5.5 5.5 0 0 0 5.04-4.54l-1.245 1.244a4.487 4.487 0 0 1-3.175 1.316h-.1a4.534 4.534 0 0 1-3.08-1.32 4.502 4.502 0 0 1-1.31-3.12 4.466 4.466 0 0 1 1.31-3.24l1.24-1.24c-2.45.43-4.35 2.47-4.541 4.99 0 .013-.002.025-.003.038a5.529 5.529 0 0 0 .242 2.075c.247.771-.006 1.615-.578 2.187l-1.07 1.08-12.174 12.174c-.533.533-.579 1.451-.027 1.964.267.248.599.372.931.372Zm25.06-23.27c.49.11.9.46 1.08.94.352.914.522 1.878.52 2.882-.007 4.371-3.464 8.137-7.822 8.462a8.437 8.437 0 0 1-2.798-.244L37.531 62.65c-.716.715-1.631 1.236-2.636 1.364a4.339 4.339 0 0 1-3.646-1.234 4.332 4.332 0 0 1-1.233-3.645c.128-1.005.649-1.92 1.364-2.636l12.85-12.85a8.266 8.266 0 0 1-.25-1.976c-.042-4.783 3.674-8.56 8.456-8.583a7.97 7.97 0 0 1 2.914.52c.48.18.83.59.94 1.08.1.5-.05 1.02-.41 1.38l-3.46 3.46a1.49 1.49 0 0 0 .037 2.154c.583.548 1.589.46 2.155-.106l3.387-3.389a1.532 1.532 0 0 1 1.381-.409Z" fill="currentColor"/></svg>