<svg xmlns="http://www.w3.org/2000/svg" width="64" height="64" fill="none" viewBox="0 0 64 64"><path fill="currentColor" fill-rule="evenodd" d="M33 15.5c0 1.11-1.16 2.53-1.56 2.94a1.49 1.49 0 0 0 0 2.12c.29.29.68.44 1.06.44s.77-.15 1.06-.44c.25-.25 2.44-2.51 2.44-5.06s-1.35-3.97-2.44-5.06C32.62 9.5 32 8.88 32 7.5s.62-2 1.56-2.94a1.5 1.5 0 0 0 0-2.12 1.49 1.49 0 0 0-2.12 0C30.35 3.53 29 4.88 29 7.5s1.35 3.97 2.44 5.06c.94.94 1.56 1.56 1.56 2.94M47 27h2.5c4.14 0 7.5 3.36 7.5 7.5v10c0 4.14-3.36 7.5-7.5 7.5h-3.17c-1.93 6.36-7.85 11-14.83 11h-9C13.95 63 7 56.05 7 47.5v-22c0-.83.67-1.5 1.5-1.5h37c.83 0 1.5.67 1.5 1.5zm1.5 8H47v9h1.5c.28 0 .5-.22.5-.5v-8c0-.28-.22-.5-.5-.5m-17 25C38.39 60 44 54.39 44 47.5V27H10v20.5C10 54.39 15.61 60 22.5 60zm18-11c2.48 0 4.5-2.02 4.5-4.5v-10c0-2.48-2.02-4.5-4.5-4.5H47v2h1.5c1.93 0 3.5 1.57 3.5 3.5v8c0 1.93-1.57 3.5-3.5 3.5H47v.5c0 .51-.03 1.01-.08 1.5zM16 47.5c0 3.58 2.92 6.5 6.5 6.5.83 0 1.5.67 1.5 1.5s-.67 1.5-1.5 1.5c-5.24 0-9.5-4.26-9.5-9.5 0-.83.67-1.5 1.5-1.5s1.5.67 1.5 1.5m4.44-29.06c.4-.41 1.56-1.83 1.56-2.94 0-1.38-.62-2-1.56-2.94C19.35 11.47 18 10.12 18 7.5s1.35-3.97 2.44-5.06a1.49 1.49 0 0 1 2.12 0 1.5 1.5 0 0 1 0 2.12C21.62 5.5 21 6.12 21 7.5s.62 2 1.56 2.94C23.65 11.53 25 12.95 25 15.5s-2.19 4.81-2.44 5.06c-.29.29-.68.44-1.06.44s-.77-.15-1.06-.44a1.49 1.49 0 0 1 0-2.12" clip-rule="evenodd"/></svg>