<svg xmlns="http://www.w3.org/2000/svg" width="64" height="64" fill="none" viewBox="0 0 64 64"><path fill="currentColor" fill-rule="evenodd" d="m33.05.428 30.5 30a1.5 1.5 0 0 1-2.1 2.14L55 26.228v36.27c0 .83-.67 1.5-1.5 1.5h-43c-.83 0-1.5-.67-1.5-1.5v-36.27l-6.45 6.34a1.5 1.5 0 0 1-2.1-2.14l30.5-30c.58-.57 1.52-.57 2.1 0M23 48.998v12h6v-12zm29 12v-37.51q.001-.052.01-.1.009-.05.01-.1L32 3.598l-20.02 19.7c.01.06.02.13.02.2v37.5h8v-13.5c0-.83.67-1.5 1.5-1.5h9c.83 0 1.5.67 1.5 1.5v13.5zm-21.5-24v-8c0-.83.67-1.5 1.5-1.5h13c.83 0 1.5.67 1.5 1.5v8c0 .83-.67 1.5-1.5 1.5H32c-.83 0-1.5-.67-1.5-1.5m13-6.5h-10v5h10z" clip-rule="evenodd"/></svg>