<svg width="64" height="64" viewBox="0 0 64 64" fill="none" xmlns="http://www.w3.org/2000/svg"><path fill-rule="evenodd" clip-rule="evenodd" d="M53.013 23.614C50.787 21.81 45 16.591 45 11.1 45 6.634 48.588 3 52.999 3c4.337 0 8 3.81 8 8.318 0 5.47-5.757 10.54-7.986 12.296ZM52.999 0c-6.064 0-11 4.98-11 11.1 0 8.314 9.717 15.327 10.13 15.621a1.498 1.498 0 0 0 1.72.014C54.266 26.45 64 19.646 64 11.318 64 5.078 59.067 0 53 0ZM3 41.318C3 36.81 6.664 33 11.001 33 15.337 33 19 36.81 19 41.318c0 5.481-5.78 10.56-7.999 12.306C8.782 51.878 3 46.8 3 41.318ZM11.001 57c.298 0 .595-.088.851-.265C12.267 56.45 22 49.647 22 41.318 22 35.078 17.065 30 11.001 30 4.935 30 0 35.077 0 41.318c0 8.33 9.735 15.132 10.15 15.417.256.177.553.265.851.265ZM11 37a4 4 0 1 1 0 8 4 4 0 0 1 0-8ZM53 7a4 4 0 1 0 0 8 4 4 0 0 0 0-8Zm-.5 27H35c-3.309 0-6 2.69-6 6 0 3.309 2.691 6 6 6h10c4.963 0 9 4.037 9 9s-4.037 9-9 9H11.5a1.5 1.5 0 0 1 0-3H45c3.309 0 6-2.691 6-6 0-3.31-2.691-6-6-6H35c-4.963 0-9-4.037-9-9s4.037-9 9-9h17.5a1.5 1.5 0 0 1 0 3Z" fill="currentColor"/></svg>