<svg width="64" height="64" viewBox="0 0 64 64" fill="none" xmlns="http://www.w3.org/2000/svg"><path d="M40.23 0c.4 0 .78.16 1.06.44l8.25 8.18c.28.28.44.66.44 1.06v1.62c.02.06.02.13.02.2s0 .14-.02.2V20h2.75c2.96 0 5.27 2.42 5.27 5.5V53h4.5c.83 0 1.5.67 1.5 1.5v4c0 3.03-2.47 5.5-5.5 5.5h-53A5.51 5.51 0 0 1 0 58.5v-4c0-.83.67-1.5 1.5-1.5H6V25.5c0-3.03 2.45-5.5 5.46-5.5h2.52V3.55c0-1.96 1.6-3.55 3.56-3.55h22.69ZM3 58.5A2.5 2.5 0 0 0 5.5 61h53a2.5 2.5 0 0 0 2.5-2.5V56H38.82l-1.76 1.76c-.28.28-.66.44-1.06.44h-8c-.4 0-.78-.16-1.06-.44L25.18 56H3v2.5ZM11.46 23C10.1 23 9 24.12 9 25.5V53h46V25.5c0-1.43-.97-2.5-2.27-2.5h-2.75v21.45c0 1.96-1.6 3.55-3.56 3.55H17.54a3.56 3.56 0 0 1-3.56-3.55V23h-2.52Zm6.08-20a.55.55 0 0 0-.56.55v40.9c0 .3.25.55.56.55h28.88c.31 0 .56-.25.56-.55V13H40.5c-1.93 0-3.5-1.57-3.5-3.5V3H17.54Zm8.83 17.44a9.729 9.729 0 0 1 12.48-1.23c.68.47.86 1.41.39 2.09-.47.68-1.41.85-2.09.39-2.7-1.86-6.33-1.5-8.64.85-.15.15-.28.3-.41.46h2.4c.83 0 1.5.67 1.5 1.5s-.67 1.5-1.5 1.5h-3.83c-.15.65-.2 1.33-.15 2h3.98c.83 0 1.5.67 1.5 1.5s-.67 1.5-1.5 1.5h-3.07c.28.52.64 1.01 1.08 1.46 1.83 1.86 4.49 2.51 6.94 1.7.58-.19 1.14-.48 1.7-.86a1.499 1.499 0 1 1 1.7 2.47c-.79.54-1.61.96-2.45 1.24-1.02.33-2.05.5-3.07.5-2.57 0-5.07-1.03-6.96-2.95A10.04 10.04 0 0 1 24.12 31H22.5c-.83 0-1.5-.67-1.5-1.5s.67-1.5 1.5-1.5h1.01c-.03-.67.01-1.33.1-2H22.5c-.83 0-1.5-.67-1.5-1.5s.67-1.5 1.5-1.5h2.05c.46-.92 1.06-1.79 1.82-2.56ZM40 9.5c0 .28.22.5.5.5h6.17L40 3.39V9.5Z" fill="currentColor"/></svg>