<svg xmlns="http://www.w3.org/2000/svg" width="64" height="64" fill="none" viewBox="0 0 64 64"><path fill="currentColor" fill-rule="evenodd" d="M51.237 56.107a4.887 4.887 0 0 0 4.881 4.882A4.887 4.887 0 0 0 61 56.107c0-2.626-2.089-4.76-4.691-4.862l1.253 4.456a1.5 1.5 0 1 1-2.888.812l-1.256-4.467a4.88 4.88 0 0 0-2.181 4.061M60.1 29.01l-4.466-15.833-9.289 2.621 3.787 13.472.666 2.362zM4.305 56.107a4.887 4.887 0 0 0 4.882 4.882c2.134 0 3.932-1.385 4.595-3.296H9.216a1.5 1.5 0 0 1 0-3h4.62c-.611-1.999-2.452-3.468-4.649-3.468a4.89 4.89 0 0 0-4.882 4.882M55.47 48.26a8 8 0 0 1 .648-.034c4.346 0 7.882 3.536 7.882 7.882s-3.536 7.882-7.882 7.882-7.881-3.536-7.881-7.882c0-3.073 1.773-5.735 4.346-7.034l-.652-2.32-9.55 9.612a4.53 4.53 0 0 1-3.192 1.328h-22.28c-.736 3.588-3.918 6.296-7.722 6.296-4.346 0-7.882-3.536-7.882-7.882s3.536-7.882 7.882-7.882c3.863 0 7.079 2.795 7.748 6.468h2.438c-.693-5.009-4.99-8.88-10.186-8.88A10.3 10.3 0 0 0 2.478 48.3a1.501 1.501 0 0 1-1.956-2.276 13.3 13.3 0 0 1 8.665-3.21c6.853 0 12.509 5.212 13.218 11.88h16.784c.403 0 .781-.157 1.063-.442l10.746-10.817-3.532-12.563-4.424-15.699a.4.4 0 0 1-.011-.06l-.008-.047-3.289-11.7A.5.5 0 0 0 39.252 3h-5.434a1.5 1.5 0 0 1 0-3h5.434a3.514 3.514 0 0 1 3.37 2.552l2.912 10.36 9.291-2.619a2.97 2.97 0 0 1 2.277.27 2.98 2.98 0 0 1 1.42 1.8L62.985 28.2a3 3 0 0 1-2.071 3.697h-.001l-9.305 2.622zm-3.122-24.35H51.24a1.5 1.5 0 0 1-1.226-2.364l2.428-3.444a1.5 1.5 0 0 1 2.452 1.73l-.76 1.078h1.29a1.5 1.5 0 0 1 1.182 2.424l-2.715 3.474a1.5 1.5 0 1 1-2.364-1.847z" clip-rule="evenodd"/></svg>