<svg xmlns="http://www.w3.org/2000/svg" width="64" height="65" fill="none" viewBox="0 0 64 65"><path fill="currentColor" fill-rule="evenodd" d="m32 54.191 12.7 6.906H19.301zm-13.227-7.193 10.088 5.486-13.193 7.175zm4.62-18.841 6.227 5.053-9.321 7.564zM24 5.81l6.087 7.69L24 21.189zm8 5.274L25.6 3h12.8zm8 10.105L33.913 13.5 40 5.81zM25.601 24 32 15.916 38.399 24zm11.67 3L32 31.278 26.729 27zm-2.89 6.21 6.226-5.053 3.094 12.617zM32 50.777l-11.535-6.274L32 35.141l11.536 9.362zm13.228-3.779 3.105 12.661-13.193-7.175zM57.5 61.097h-5.726L43 25.317v-7.223l9.823 4.749v1.063h-.091a1.41 1.41 0 0 0-1.409 1.409v3.182a1.41 1.41 0 0 0 1.409 1.409h3.182a1.41 1.41 0 0 0 1.409-1.409v-3.182a1.41 1.41 0 0 0-1.409-1.409h-.091v-2.004c0-.575-.329-1.1-.846-1.351L43 14.761V3.891l9.823 4.749v1.063h-.091a1.41 1.41 0 0 0-1.409 1.409v3.182a1.41 1.41 0 0 0 1.409 1.409h3.182a1.41 1.41 0 0 0 1.409-1.409v-3.182a1.41 1.41 0 0 0-1.409-1.409h-.091V7.699c0-.575-.329-1.1-.846-1.351L42.153.149l-.035-.013q-.061-.026-.124-.047C41.956.077 41.92.06 41.882.05q-.024-.006-.05-.01-.056-.012-.114-.018c-.04-.007-.08-.016-.121-.019h-.067L41.5 0h-19l-.03.003h-.068c-.041.003-.08.013-.121.019q-.056.006-.113.018l-.051.01c-.038.01-.074.027-.112.04q-.062.02-.123.046l-.035.013L9.024 6.348a1.5 1.5 0 0 0-.846 1.351v2.004h-.091a1.41 1.41 0 0 0-1.409 1.409v3.182a1.41 1.41 0 0 0 1.409 1.409h3.182a1.41 1.41 0 0 0 1.409-1.409v-3.182a1.41 1.41 0 0 0-1.409-1.409h-.091V8.639L21 3.891v10.87l-11.976 5.79a1.5 1.5 0 0 0-.846 1.351v2.004h-.091a1.41 1.41 0 0 0-1.409 1.409v3.182a1.41 1.41 0 0 0 1.409 1.409h3.182a1.41 1.41 0 0 0 1.409-1.409v-3.182a1.41 1.41 0 0 0-1.409-1.409h-.091v-1.064L21 18.094v7.223l-8.773 35.78H6.5a1.5 1.5 0 0 0 0 3h51a1.5 1.5 0 0 0 0-3" clip-rule="evenodd"/></svg>