<svg width="64" height="64" viewBox="0 0 64 64" fill="none" xmlns="http://www.w3.org/2000/svg"><path fill-rule="evenodd" clip-rule="evenodd" d="M20 15h16v-5H20v5Zm16.5 3h-17a2.502 2.502 0 0 1-2.5-2.5v-6C17 8.121 18.121 7 19.5 7h17C37.879 7 39 8.121 39 9.5v6c0 1.379-1.121 2.5-2.5 2.5ZM9 28h10v-5H9v5Zm10.5 3h-11A2.502 2.502 0 0 1 6 28.5v-6C6 21.121 7.121 20 8.5 20h11c1.379 0 2.5 1.121 2.5 2.5v6c0 1.379-1.121 2.5-2.5 2.5ZM55 28H41v-5h14v5Zm-14.469 3h14.938A2.535 2.535 0 0 0 58 28.469v-5.938A2.535 2.535 0 0 0 55.469 20H40.531A2.535 2.535 0 0 0 38 22.531v5.938A2.535 2.535 0 0 0 40.531 31ZM47 41h14v-5H47v5Zm14.5 3h-15a2.502 2.502 0 0 1-2.5-2.5v-6c0-1.379 1.121-2.5 2.5-2.5h15c1.379 0 2.5 1.121 2.5 2.5v6c0 1.379-1.121 2.5-2.5 2.5ZM39 41H25v-5h14v5Zm-14.5 3h15c1.379 0 2.5-1.121 2.5-2.5v-6c0-1.379-1.121-2.5-2.5-2.5h-15a2.502 2.502 0 0 0-2.5 2.5v6c0 1.379 1.121 2.5 2.5 2.5ZM3 41h14v-5H3v5Zm14.5 3h-15A2.502 2.502 0 0 1 0 41.5v-6C0 34.121 1.121 33 2.5 33h15c1.379 0 2.5 1.121 2.5 2.5v6c0 1.379-1.121 2.5-2.5 2.5ZM33 28h-6v-5h6v5Zm-6.5 3h7c1.379 0 2.5-1.121 2.5-2.5v-6c0-1.379-1.121-2.5-2.5-2.5h-7a2.502 2.502 0 0 0-2.5 2.5v6c0 1.379 1.121 2.5 2.5 2.5ZM32 54h16v-5H32v5Zm16.5 3h-17a2.502 2.502 0 0 1-2.5-2.5v-6c0-1.379 1.121-2.5 2.5-2.5h17c1.379 0 2.5 1.121 2.5 2.5v6c0 1.379-1.121 2.5-2.5 2.5ZM24 54h-6v-5h6v5Zm-6.5 3h7c1.379 0 2.5-1.121 2.5-2.5v-6c0-1.379-1.121-2.5-2.5-2.5h-7a2.502 2.502 0 0 0-2.5 2.5v6c0 1.379 1.121 2.5 2.5 2.5Z" fill="currentColor"/></svg>