<svg xmlns="http://www.w3.org/2000/svg" width="64" height="65" fill="none" viewBox="0 0 64 65"><path fill="currentColor" fill-rule="evenodd" d="M22.293 61.003H16.22v-10h6.073c2.757 0 5 2.243 5 5s-2.243 5-5 5m26.443-29.231H3v-10.58L6.332 19h39.072l3.332 2.192zm-5.656 6.801a2.587 2.587 0 0 1-2.585 2.585 2.587 2.587 0 0 1-2.585-2.585v-3.801h5.17zm-29.33 0a2.59 2.59 0 0 1-2.586 2.585 2.587 2.587 0 0 1-2.585-2.585v-3.801h5.171zM13.341 3h25.055l5.24 13H8.108zM59.5 24.382h-7.764v-3.998a1.5 1.5 0 0 0-.675-1.253l-3.986-2.622L40.8.94A1.5 1.5 0 0 0 39.408 0h-27.08c-.612 0-1.163.372-1.391.94L4.673 16.501l-3.997 2.63A1.5 1.5 0 0 0 0 20.384v12.888a1.5 1.5 0 0 0 1.5 1.5h4.079v3.801a5.59 5.59 0 0 0 5.585 5.585 5.59 5.59 0 0 0 5.586-5.585v-3.801h18.16v3.801a5.59 5.59 0 0 0 5.585 5.585 5.59 5.59 0 0 0 5.585-5.585v-3.801h4.156a1.5 1.5 0 0 0 1.5-1.5v-5.89H59.5c.827 0 1.5.673 1.5 1.5v24.121c0 .827-.673 1.5-1.5 1.5H30.147c-.705-3.696-3.956-6.5-7.854-6.5H14.72a1.5 1.5 0 0 0-1.5 1.5v1.5h-5a1.5 1.5 0 0 0 0 3h5v4h-5a1.5 1.5 0 0 0 0 3h5v1.5a1.5 1.5 0 0 0 1.5 1.5h7.573c3.898 0 7.149-2.804 7.854-6.5H59.5c2.481 0 4.5-2.019 4.5-4.5V28.882c0-2.482-2.019-4.5-4.5-4.5m-45.501-.016h-5.67a1.5 1.5 0 0 0 0 3h5.67a1.5 1.5 0 0 0 0-3m23.661.03h5.67a1.5 1.5 0 0 1 0 3h-5.67a1.5 1.5 0 0 1 0-3" clip-rule="evenodd"/></svg>