<svg xmlns="http://www.w3.org/2000/svg" width="64" height="64" fill="none" viewBox="0 0 64 64"><path fill="currentColor" fill-rule="evenodd" d="M31.97 0a1.5 1.5 0 0 1 1.083.502l3.565 4a1.499 1.499 0 1 1-2.237 1.996l-2.5-2.803L5.075 31h4.542a1.5 1.5 0 0 1 1.5 1.5V61H26.5a1.5 1.5 0 0 1 0 3H9.617a1.5 1.5 0 0 1-1.5-1.5V34H1.5c-.605 0-1.15-.362-1.383-.92a1.5 1.5 0 0 1 .312-1.631l30.434-31c.29-.296.714-.429 1.106-.449M58.5 49a1.5 1.5 0 0 1 1.248.668l4 6a1.5 1.5 0 0 1 0 1.664l-4 6A1.5 1.5 0 0 1 58.5 64h-23a1.5 1.5 0 0 1-1.5-1.5v-12a1.5 1.5 0 0 1 1.5-1.5zM37 52v9h20.696l3-4.5-3-4.5zm15.5-21a1.5 1.5 0 0 1 1.171.561l4 5c.385.481.437 1.149.132 1.683l-4 7A1.5 1.5 0 0 1 52.5 46h-17a1.5 1.5 0 0 1-1.5-1.5v-12a1.5 1.5 0 0 1 1.5-1.5zM37 43h14.63l3.06-5.36L51.78 34H37zm9.5-30a1.5 1.5 0 0 1 1.248.668l4 6a1.5 1.5 0 0 1 0 1.664l-4 6A1.5 1.5 0 0 1 46.5 28h-11a1.5 1.5 0 0 1-1.5-1.5v-12a1.5 1.5 0 0 1 1.5-1.5zM37 25h8.697l3-4.5-3-4.5H37z" clip-rule="evenodd"/></svg>