<svg xmlns="http://www.w3.org/2000/svg" width="64" height="64" fill="none" viewBox="0 0 64 64"><path fill="currentColor" d="M58.43 19.26H52.5a1.5 1.5 0 0 0-1.5 1.5V27h-2.55l-7.79-9.45A1.5 1.5 0 0 0 39.5 17H28.41v-7h7.65a1.5 1.5 0 1 0 0-3H17.77a1.5 1.5 0 1 0 0 3h7.64v7H15a1.5 1.5 0 0 0-1.5 1.5V23h-4A1.5 1.5 0 0 0 8 24.5V35H3v-7.5a1.5 1.5 0 0 0-3 0v18a1.5 1.5 0 0 0 3 0V38h5v9.5A1.5 1.5 0 0 0 9.5 49h5l6.21 7.46a1.52 1.52 0 0 0 1.16.54H46.5a1.5 1.5 0 0 0 1.5-1.5V47h3v4.5a1.5 1.5 0 0 0 1.5 1.5h5.93A5.63 5.63 0 0 0 64 47.33V24.85a5.59 5.59 0 0 0-5.57-5.59M61 47.33A2.65 2.65 0 0 1 58.43 50H54v-4.5a1.5 1.5 0 0 0-1.5-1.5h-6a1.5 1.5 0 0 0-1.5 1.5V54H22.54l-6.22-7.46a1.5 1.5 0 0 0-1.15-.54H11V26h4a1.5 1.5 0 0 0 1.5-1.5V20h22.29l7.79 9.45a1.5 1.5 0 0 0 1.16.55h4.76a1.5 1.5 0 0 0 1.5-1.5v-6.24h4.43A2.58 2.58 0 0 1 61 24.85z"/></svg>