<svg xmlns="http://www.w3.org/2000/svg" width="64" height="64" fill="none" viewBox="0 0 64 64"><path fill="currentColor" fill-rule="evenodd" d="M54.703 39.487a2.52 2.52 0 0 1 .705-2.629l5.346-4.862-5.348-4.866a2.52 2.52 0 0 1-.703-2.627l2.198-6.887-7.064-1.54a2.53 2.53 0 0 1-1.923-1.921l-1.539-7.067-6.888 2.2c-.934.3-1.968.021-2.628-.706l-4.863-5.346-4.866 5.348a2.52 2.52 0 0 1-2.628.703l-6.887-2.199-1.539 7.065a2.53 2.53 0 0 1-1.922 1.923l-7.065 1.54 2.2 6.887c.297.938.02 1.967-.704 2.627l-5.349 4.865 5.35 4.866a2.53 2.53 0 0 1 .703 2.624l-2.2 6.89 7.064 1.54a2.52 2.52 0 0 1 1.923 1.922l1.54 7.064 6.888-2.199a2.53 2.53 0 0 1 2.626.703l4.866 5.35 4.865-5.35a2.52 2.52 0 0 1 2.627-.703l6.887 2.2 1.54-7.065a2.52 2.52 0 0 1 1.925-1.923l7.061-1.54zm8.464-9.353c.523.476.823 1.156.823 1.863a2.52 2.52 0 0 1-.825 1.86l-5.51 5.014 2.266 7.097a2.52 2.52 0 0 1-.218 2.025 2.52 2.52 0 0 1-1.644 1.2l-7.28 1.587-1.586 7.28a2.53 2.53 0 0 1-1.2 1.643 2.53 2.53 0 0 1-2.023.218l-7.099-2.267-5.015 5.513a2.53 2.53 0 0 1-1.86.823h-.002a2.52 2.52 0 0 1-1.86-.825l-5.014-5.51-7.1 2.265a2.53 2.53 0 0 1-2.023-.217 2.53 2.53 0 0 1-1.2-1.643l-1.586-7.28-7.28-1.587a2.52 2.52 0 0 1-1.644-1.2 2.52 2.52 0 0 1-.218-2.026l2.267-7.096-5.513-5.016A2.52 2.52 0 0 1 0 31.998c0-.707.3-1.387.823-1.863l5.513-5.015-2.266-7.1A2.5 2.5 0 0 1 4.286 16a2.53 2.53 0 0 1 1.643-1.203l7.282-1.586 1.586-7.282a2.52 2.52 0 0 1 3.224-1.86l7.1 2.266L30.134.823A2.52 2.52 0 0 1 31.995 0c.707 0 1.386.3 1.861.823l5.015 5.512 7.1-2.266a2.52 2.52 0 0 1 3.223 1.859l1.585 7.284 7.281 1.585a2.516 2.516 0 0 1 1.861 3.225l-2.266 7.097zm-25.498 13a11.6 11.6 0 0 0 2.91-1.444 1.5 1.5 0 0 1 1.68 2.486 14.6 14.6 0 0 1-3.665 1.811 14.8 14.8 0 0 1-4.574.727A14.65 14.65 0 0 1 23.642 42.4a14.6 14.6 0 0 1-3.678-6.12H15.89a1.5 1.5 0 1 1 0-3h3.508c-.036-.425-.062-.85-.062-1.28q.001-.758.077-1.502H15.89a1.5 1.5 0 1 1 0-3h4.154a14.65 14.65 0 0 1 3.6-5.898c4.968-4.968 12.797-5.722 18.614-1.797a1.5 1.5 0 0 1-1.678 2.486c-4.63-3.122-10.86-2.523-14.815 1.431a11.6 11.6 0 0 0-2.524 3.778H37.6a1.5 1.5 0 0 1 0 3H22.447a11.8 11.8 0 0 0-.032 2.782H37.6a1.5 1.5 0 0 1 0 3H23.151a11.7 11.7 0 0 0 2.613 3.999 11.66 11.66 0 0 0 11.905 2.855" clip-rule="evenodd"/></svg>