<svg xmlns="http://www.w3.org/2000/svg" width="64" height="64" fill="none" viewBox="0 0 64 64"><path fill="currentColor" fill-rule="evenodd" d="M35.556 53.4c1.783 2.76 4.898 4.6 8.424 4.6 5.519 0 10.016-4.49 10.016-10S49.498 38 43.98 38h-.2c-1.043.02-2.044.2-2.977.52-3.965 1.32-6.84 5.08-6.84 9.48 0 .88.11 1.73.33 2.54a9.7 9.7 0 0 0 1.263 2.86m-25.511-4.59c.04.02 4.547 2.19 15.906 2.19 1.973 0 3.746-.07 5.317-.17-.2-.91-.31-1.86-.31-2.83 0-5.69 3.687-10.54 8.794-12.29-2.084-4.03-6.27-6.71-11.108-6.71h-5.388c-6.53 0-11.888 4.9-12.47 11.39l-.75 8.42zM25.95 6c-5.52 0-10.016 4.49-10.016 10S20.43 26 25.95 26c5.517 0 10.016-4.49 10.016-10S31.469 6 25.95 6m16.827 29.06q.6-.06 1.202-.06C51.16 35 57 40.83 57 48s-5.84 13-13.02 13c-5.118 0-9.546-2.96-11.68-7.25-1.842.16-3.956.25-6.35.25-10.977 0-16.006-1.95-17.068-2.42a2.5 2.5 0 0 1-1.873-2.64l.782-8.81c.571-6.44 4.928-11.6 10.778-13.42-3.405-2.35-5.64-6.27-5.64-10.71 0-7.17 5.84-13 13.022-13 7.18 0 13.02 5.83 13.02 13 0 4.44-2.233 8.36-5.638 10.71a15.36 15.36 0 0 1 9.445 8.35M44.77 47.6l3.586-4.09a1.516 1.516 0 0 1 2.123-.14c.621.55.681 1.49.141 2.12l-7.012 8c-.27.31-.67.5-1.08.51h-.052a1.5 1.5 0 0 1-1.06-.44l-4.008-4a1.49 1.49 0 0 1 0-2.12 1.494 1.494 0 0 1 2.124 0l1.633 1.64h.01l1.231 1.23z" clip-rule="evenodd"/></svg>