<svg xmlns="http://www.w3.org/2000/svg" width="64" height="64" fill="none" viewBox="0 0 64 64"><path fill="currentColor" fill-rule="evenodd" d="M16.704 39.392h31.27a6.51 6.51 0 0 0 6.504-6.503v-7.373H37.286a5.504 5.504 0 0 1-5.286 4c-2.511 0-4.631-1.695-5.286-4H16.41a1.5 1.5 0 1 1 0-3h10.303c.117-.414.28-.81.487-1.178l-7.311-7.311a1.5 1.5 0 1 1 2.12-2.121l7.312 7.31c.399-.222.83-.394 1.282-.513V5.604A2.607 2.607 0 0 0 28 3h-3.373C12.703 3 3 12.703 3 24.627v6.764h23.766a1.5 1.5 0 0 1 0 3H3.182c.68 2.862 3.253 5 6.32 5h7.066l.03-.057zm5.51 3 7.637 4.158 7.636-4.158zM32 26.516c1.379 0 2.5-1.121 2.5-2.5s-1.121-2.5-2.5-2.5a2.5 2.5 0 0 0-2.5 2.5c0 1.379 1.12 2.5 2.5 2.5m16.646 28.982c0-3.032-2.468-5.5-5.5-5.5a5.507 5.507 0 0 0-5.5 5.5c0 3.033 2.468 5.5 5.5 5.5s5.5-2.467 5.5-5.5m-37.59 0c0 3.033 2.468 5.5 5.5 5.5s5.5-2.467 5.5-5.5-2.468-5.5-5.5-5.5a5.507 5.507 0 0 0-5.5 5.5M61.74 14.535l1.843 1.925a1.5 1.5 0 0 1-2.166 2.075l-.973-1.016c-3.426 2.616-2.987 6.062-2.981 6.1q.015.103.015.21v9.06c0 5.24-4.264 9.503-9.504 9.503H43.76l-10.773 5.866 3.535 1.925a8.49 8.49 0 0 1 6.623-3.185c4.686 0 8.5 3.814 8.5 8.5 0 4.687-3.814 8.5-8.5 8.5-4.687 0-8.5-3.813-8.5-8.5 0-.937.158-1.836.44-2.68l-5.235-2.852-5.235 2.85c.282.845.44 1.745.44 2.682 0 4.687-3.813 8.5-8.5 8.5s-8.5-3.813-8.5-8.5 3.814-8.5 8.5-8.5a8.49 8.49 0 0 1 6.622 3.185l3.535-1.925-10.773-5.866H9.502C4.263 42.392 0 38.13 0 32.89v-8.264C0 11.047 11.048 0 24.627 0H28a5.61 5.61 0 0 1 5.604 5.604v13.152a5.52 5.52 0 0 1 3.682 3.76h17.189c.157-2.034 1.086-5.672 5.418-8.235.6-.355 1.365-.25 1.847.254M33.152 31.39h3a1.5 1.5 0 0 1 0 3h-3a1.5 1.5 0 0 1 0-3M16.556 53.498a2 2 0 1 0 0 4 2 2 0 0 0 0-4m28.59 2a2 2 0 1 1-4.002-.001 2 2 0 0 1 4.002.001" clip-rule="evenodd"/></svg>