<svg xmlns="http://www.w3.org/2000/svg" width="65" height="64" fill="none" viewBox="0 0 65 64"><path fill="currentColor" d="M36.156 38.604c2.31-1.67 3.85-4.669 3.85-8.108 0-5.239-3.59-9.498-8-9.498-4.412 0-8.002 4.26-8.002 9.498 0 3.429 1.55 6.438 3.85 8.108-6.53 1.94-9.371 8.038-9.751 8.918-.58 1.06-1.69 3.51-.72 5.169.29.49 1 1.31 2.54 1.31h24.134c1.55 0 2.26-.82 2.54-1.31.98-1.66-.14-4.11-.72-5.17-.37-.869-3.22-6.968-9.751-8.917zm-4.15-14.607c2.76 0 5 2.92 5 6.499s-2.24 6.498-5 6.498c-2.761 0-5.002-2.919-5.002-6.498s2.24-6.499 5.001-6.499M20.002 50.991c.05-.46.34-1.31.77-2.09l.08-.16c.13-.32 3.28-7.748 11.152-7.748s11.012 7.399 11.152 7.739l.08.16c.43.78.72 1.64.77 2.09H20.003zm-4.499-8.998L3 41.963c.05-.45.35-1.3.8-2.07l.08-.16c.14-.32 3.42-7.728 11.612-7.728h.03c1.35 0 2.58.16 3.56.44a1.5 1.5 0 1 0 .84-2.88 12 12 0 0 0-1.33-.3c2.88-1.44 4.91-4.818 4.91-8.757 0-5.24-3.59-9.498-8-9.498S7.5 15.259 7.5 20.498c0 3.969 2.07 7.378 4.991 8.798-7.621 1.47-10.922 8.248-11.332 9.167-.59 1.05-1.75 3.48-.79 5.16.29.5 1.01 1.339 2.6 1.339l12.522.03c.83 0 1.5-.67 1.5-1.5s-.67-1.5-1.5-1.5zm-5.001-21.495c0-3.58 2.24-6.499 5-6.499s5.001 2.92 5.001 6.499-2.24 6.498-5 6.498c-2.761 0-5.001-2.92-5.001-6.498M62.85 38.464c-.41-.93-3.71-7.699-11.332-9.168 2.92-1.42 4.99-4.82 4.99-8.798 0-5.239-3.59-9.498-8-9.498s-8.002 4.259-8.002 9.498c0 3.939 2.03 7.328 4.911 8.758-.47.08-.92.18-1.33.3a1.499 1.499 0 1 0 .84 2.879c.97-.28 2.2-.44 3.56-.44h.03c8.182 0 11.472 7.418 11.612 7.728l.08.17c.45.77.75 1.62.8 2.07l-12.501.03c-.83 0-1.5.68-1.5 1.5 0 .83.67 1.5 1.5 1.5l12.522-.03c1.6 0 2.32-.84 2.6-1.34.97-1.68-.19-4.11-.79-5.16zM43.507 20.498c0-3.58 2.24-6.499 5-6.499 2.761 0 5.001 2.92 5.001 6.499s-2.24 6.498-5 6.498-5.001-2.919-5.001-6.498"/></svg>