<svg width="64" height="64" viewBox="0 0 64 64" fill="none" xmlns="http://www.w3.org/2000/svg">
<path d="M44.5 19.5C44.5 12.61 38.89 7 32 7C25.11 7 19.5 12.61 19.5 19.5C19.5 26.39 25.11 32 32 32C38.89 32 44.5 26.39 44.5 19.5ZM32 29C26.76 29 22.5 24.74 22.5 19.5C22.5 14.26 26.76 10 32 10C37.24 10 41.5 14.26 41.5 19.5C41.5 24.74 37.24 29 32 29Z" fill="black"/>
<path d="M43 45H37V38.34C45.34 36.14 51.5 28.52 51.5 19.5C51.5 8.75 42.75 0 32 0C21.25 0 12.5 8.75 12.5 19.5C12.5 28.52 18.66 36.14 27 38.34V45H21C19.34 45 18 46.34 18 48V52C18 53.66 19.34 55 21 55H27V61C27 62.66 28.34 64 30 64H34C35.66 64 37 62.66 37 61V55H43C44.66 55 46 53.66 46 52V48C46 46.34 44.66 45 43 45ZM43 52H34V61H30V52H21V48H30V35.87C28.97 35.75 27.96 35.53 27 35.23C20.34 33.1 15.5 26.86 15.5 19.5C15.5 10.4 22.9 3 32 3C41.1 3 48.5 10.4 48.5 19.5C48.5 26.86 43.66 33.1 37 35.23C36.04 35.53 35.03 35.75 34 35.87V48H43V52Z" fill="black"/>
</svg>
