<svg width="64" height="64" viewBox="0 0 64 64" fill="none" xmlns="http://www.w3.org/2000/svg"><path d="M13.65 64c-.47 0-.94-.17-1.32-.49-1.461-1.26-6.412-5.762-9.093-10.803a1.98 1.98 0 0 1-.13-1.58c.17-.52.56-.96 1.06-1.2l12.423-5.922C8.848 39.254-.654 27.951 6.168 10.447c.25-.64.79-1.1 1.46-1.25.67-.15 1.36.05 1.85.53 2.17 2.13 13.514 12.433 26.897 9.462-.27-2.81-.12-8.902 5.431-12.143 3.71-2.17 6.942-1.59 8.982-.71 3.15 1.34 5.752 4.381 6.732 7.832l3.02 3.06c.4.4.61.961.58 1.521-.03.56-.29 1.1-.73 1.46l-3.88 3.241s-1.19 1.03-1.3 4.021c-.23 6.662-1.671 12.623-4.392 18.215-3.61 7.411-15.303 14.183-28.076 12.443l-7.942 5.5c-.35.24-.76.36-1.16.36l.01.01ZM6.387 52.187c2.24 3.751 5.811 7.172 7.331 8.552l8.292-5.751.59.09c11.653 1.83 22.316-4.131 25.517-10.703 2.53-5.201 3.87-10.762 4.09-17.004.15-4.23 2.05-5.971 2.471-6.301l2.97-2.49-2.84-2.891-.1-.4c-.67-2.731-2.67-5.162-5.101-6.202-2.03-.86-4.211-.67-6.302.55-4.6 2.68-4.13 8.322-3.87 9.982.16 1.03-.48 2.01-1.49 2.271-13.704 3.58-25.457-5.391-29.488-9.012C1.235 33.743 19.71 42.335 20.52 42.695l2.95 1.33-17.093 8.152.01.01Z" fill="currentColor"/><path d="M38.045 14.918c-.54-.15-12.903-3.51-21.315-11.243-.98 2.3-2.53 6.632-2.31 10.823l-3.001.16c-.3-5.711 2.12-11.363 3.17-13.533.29-.59.84-1 1.48-1.1a2.07 2.07 0 0 1 1.771.57c7.812 7.831 20.835 11.392 20.965 11.432l-.78 2.901.02-.01Z" fill="currentColor"/><path d="M24.892 15.748c-.18 0-.37-.03-.55-.11-6.992-2.78-11.383-6.881-11.563-7.051a1.5 1.5 0 0 1 2.06-2.181c.04.04 4.181 3.89 10.613 6.452a1.5 1.5 0 0 1 .84 1.95c-.23.59-.8.95-1.39.95l-.01-.01Zm-.68 14.834h-.11C14.11 29.862 4.897 24.14 4.507 23.9c-.7-.44-.91-1.37-.47-2.07.44-.7 1.37-.91 2.07-.47.09.06 8.983 5.571 18.215 6.231a1.5 1.5 0 0 1 1.39 1.6c-.06.79-.71 1.391-1.49 1.391h-.01Zm-4.302 8.202c-.06 0-.13 0-.19-.01-8.701-1.11-11.582-3.191-11.882-3.421-.65-.51-.77-1.45-.26-2.1.5-.65 1.43-.77 2.09-.28.08.06 2.681 1.83 10.433 2.83.82.11 1.4.86 1.3 1.68a1.5 1.5 0 0 1-1.49 1.31v-.01Zm5.232 8.821c-.09 0-.17 0-.26-.02-1.97-.35-5.271-1.98-5.641-2.17a1.499 1.499 0 0 1 1.34-2.68c.9.45 3.51 1.66 4.821 1.89a1.5 1.5 0 0 1-.26 2.98ZM8.338 58.868c-.52 0-1.02-.27-1.3-.75-.41-.72-.17-1.63.55-2.05l7.232-4.171c.71-.41 1.63-.17 2.05.55.41.72.17 1.63-.55 2.05l-7.232 4.171c-.24.14-.49.2-.75.2Zm36.189-41.559c-.27 0-.54-.07-.79-.23-.7-.44-.92-1.36-.48-2.07.71-1.13 1.76-1.821 2.96-1.931 1.31-.12 2.67.46 3.671 1.55.56.61.52 1.56-.1 2.12a1.5 1.5 0 0 1-2.12-.09c-.35-.39-.8-.61-1.18-.58-.09 0-.38.03-.681.53-.28.46-.77.711-1.27.711l-.01-.01Z" fill="currentColor"/></svg>