<svg xmlns="http://www.w3.org/2000/svg" width="64" height="64" fill="none" viewBox="0 0 64 64"><path fill="currentColor" fill-rule="evenodd" d="m22.072 13.068-2.046-1.214 2.912-5.179 1.844 1.093a1.5 1.5 0 0 0 1.53 0l2.07-1.227a1.5 1.5 0 0 0 .735-1.29v-2.25h5.766v2.313c0 .53.28 1.021.735 1.29L37.635 7.8c.471.282 1.06.28 1.53 0l1.896-1.124 2.912 5.18-2.003 1.188c-.456.27-.735.76-.735 1.29v2.335a1.5 1.5 0 0 0 .735 1.29l2.003 1.188-2.912 5.178-2.088-1.237a1.5 1.5 0 0 0-1.529 0l-1.826 1.082a1.5 1.5 0 0 0-.735 1.29V28h-5.766v-2.479a1.5 1.5 0 0 0-.735-1.29l-1.878-1.113a1.5 1.5 0 0 0-1.53 0l-2.036 1.206-2.912-5.178 2.046-1.214c.456-.269.735-.76.735-1.29v-2.284a1.5 1.5 0 0 0-.735-1.29m-4.837 4.245a1.5 1.5 0 0 0-.543 2.026l4.383 7.793a1.497 1.497 0 0 0 2.072.555l2.592-1.535.378.224V29.5a1.5 1.5 0 0 0 1.5 1.5h8.766a1.5 1.5 0 0 0 1.5-1.5v-3.187l.326-.192 2.643 1.566a1.5 1.5 0 0 0 2.073-.555l4.382-7.793a1.5 1.5 0 0 0-.543-2.026l-2.529-1.5v-.626l2.53-1.5a1.5 1.5 0 0 0 .542-2.025l-4.382-7.794a1.504 1.504 0 0 0-2.073-.555L38.4 4.766l-.517-.306V1.5a1.5 1.5 0 0 0-1.5-1.5h-8.766a1.5 1.5 0 0 0-1.5 1.5v2.896l-.57.338-2.4-1.42a1.5 1.5 0 0 0-2.072.554l-4.383 7.794a1.5 1.5 0 0 0 .543 2.025l2.572 1.526v.575zm42.64 29.932L31.877 60.891 3 51.905V37h14.666c8.484 0 10.075 5.141 10.135 5.345a1.5 1.5 0 0 0 1.449 1.111h13.727l.004.001.01.001c1.104 0 2.002.897 2.002 2s-.898 2-2.002 2H24.158a1.5 1.5 0 0 0 0 3H42.99q.156 0 .302-.03a4.9 4.9 0 0 0 1.96-.536l.04-.014q.055-.015.105-.039l12.723-6.192a2.007 2.007 0 0 1 2.676.923 2.004 2.004 0 0 1-.922 2.675m3.619-3.989a5.007 5.007 0 0 0-6.686-2.306l-8.835 4.3a4.984 4.984 0 0 0-4.67-4.761 1.5 1.5 0 0 0-.312-.033H30.259C29.229 38.347 26.084 34 17.666 34H1.5A1.5 1.5 0 0 0 0 35.5v17.51c0 .657.427 1.237 1.055 1.432l30.5 9.49.007.001.012.002q.203.06.415.063h.005L32 64a1.5 1.5 0 0 0 .525-.106l.051-.017q.04-.011.08-.028L61.19 49.942a5.007 5.007 0 0 0 2.305-6.686M35 15.5c0-1.654-1.346-3-3-3s-3 1.346-3 3 1.346 3 3 3 3-1.346 3-3m3 0c0 3.309-2.691 6-6 6s-6-2.691-6-6 2.69-6 6-6 6 2.691 6 6" clip-rule="evenodd"/></svg>