<svg xmlns="http://www.w3.org/2000/svg" width="64" height="64" fill="none" viewBox="0 0 64 64"><path fill="currentColor" fill-rule="evenodd" d="M44.478 27.402C48.039 24.083 50 19.68 50 15s-1.961-9.083-5.522-12.402A1.5 1.5 0 1 1 46.522.402C50.699 4.296 53 9.48 53 15s-2.301 10.704-6.478 14.598a1.5 1.5 0 1 1-2.044-2.196M18.5 30a1.5 1.5 0 0 0 1.022-2.598C15.961 24.083 14 19.68 14 15s1.961-9.083 5.522-12.402A1.5 1.5 0 1 0 17.478.402C13.301 4.296 11 9.48 11 15s2.301 10.704 6.478 14.598c.289.27.656.402 1.022.402m5.009-5.374a1.5 1.5 0 0 0 2.117-.135 1.5 1.5 0 0 0-.135-2.117C23.24 20.394 22 17.774 22 15s1.24-5.393 3.49-7.374a1.5 1.5 0 0 0-1.981-2.252c-2.907 2.56-4.51 5.978-4.51 9.626s1.603 7.066 4.51 9.626M60.557 56a.444.444 0 0 0 .443-.443V42.444a.445.445 0 0 0-.443-.444H3.443c-.244 0-.443.2-.443.444v13.113c0 .244.199.443.443.443H38v-2.5a1.5 1.5 0 0 1 3 0V56h3v-2.5a1.5 1.5 0 0 1 3 0V56h3v-2.5a1.5 1.5 0 0 1 3 0V56zM56 61h-5v-2h5zm-43 0H8v-2h5zm21-46c0-1.102-.897-2-2-2s-2 .898-2 2c0 1.083.867 1.963 1.942 1.994q.015 0 .029-.003a.2.2 0 0 1 .058 0l.029.003A2 2 0 0 0 34 15m-.5 24h27.057A3.45 3.45 0 0 1 64 42.444v13.113A3.45 3.45 0 0 1 60.557 59H59v3.5a1.5 1.5 0 0 1-1.5 1.5h-8a1.5 1.5 0 0 1-1.5-1.5V59H16v3.5a1.5 1.5 0 0 1-1.5 1.5h-8A1.5 1.5 0 0 1 5 62.5V59H3.443A3.45 3.45 0 0 1 0 55.557V42.444A3.45 3.45 0 0 1 3.443 39H30.5V19.745C28.479 19.104 27 17.23 27 15c0-2.756 2.243-5 5-5s5 2.244 5 5c0 2.23-1.479 4.104-3.5 4.745zM10 49c0 1.103.897 2 2 2s2-.897 2-2-.897-2-2-2-2 .897-2 2m-3 0c0-2.757 2.243-5 5-5s5 2.243 5 5-2.243 5-5 5-5-2.243-5-5m31.374-24.509a1.5 1.5 0 0 1 .135-2.117c2.25-1.98 3.49-4.6 3.49-7.374s-1.24-5.393-3.49-7.374a1.5 1.5 0 0 1 1.982-2.252C43.399 7.934 45 11.352 45 15s-1.601 7.066-4.51 9.626a1.5 1.5 0 0 1-2.117-.135" clip-rule="evenodd"/></svg>