<svg width="64" height="64" viewBox="0 0 64 64" fill="none" xmlns="http://www.w3.org/2000/svg"><path fill-rule="evenodd" clip-rule="evenodd" d="M54.754 10.066C59.09 9.026 62.234 9 62.501 9a1.5 1.5 0 0 1 .002 3c-.07 0-4.064.041-9.226 1.602-1.289 2.736-3.164 5.998-5.87 9.48 5.176-1.254 10.786-1.094 11.144-1.08A1.5 1.5 0 0 1 58.5 25h-.035a.33.33 0 0 1-.014 0c-3.317-.105-12.653.324-15.89 3.561l-6 6a1.495 1.495 0 0 1-1.062.44 1.502 1.502 0 0 1-1.061-2.561l6-6c3.99-3.99 6.747-7.919 8.639-11.29-2.858 1.252-5.834 3.002-8.559 5.453l-8.958 8.958a1.495 1.495 0 0 1-1.06.44 1.502 1.502 0 0 1-1.061-2.561l9-9c6.465-6.465 3.65-16.417 3.622-16.516a1.5 1.5 0 0 1 2.877-.852c.104.352 1.88 6.573-.298 12.92a38.285 38.285 0 0 1 6.437-2.86c1.532-3.532 1.935-5.825 1.943-5.873a1.502 1.502 0 0 1 1.721-1.238 1.497 1.497 0 0 1 1.239 1.717c-.027.17-.302 1.783-1.227 4.328Zm-42.3 50.629c1.016.337 2.4.57 3.218-.249l18.308-18.51c-2.436-.467-5.132-1.967-7.54-4.376-2.359-2.357-3.844-5.12-4.303-7.613L3.55 48.335c-.812.811-.58 2.195-.243 3.212.574 1.73 1.881 3.671 3.678 5.47 1.798 1.797 3.741 3.104 5.47 3.678Zm16.107-25.256c3.553 3.551 7.458 4.42 8.88 3a1.5 1.5 0 0 1 2.126 2.115L17.8 62.561c-.953.954-2.213 1.439-3.672 1.439-.816 0-1.695-.152-2.618-.458-2.164-.719-4.525-2.283-6.646-4.405-2.122-2.12-3.686-4.48-4.405-6.645-.852-2.57-.507-4.803.975-6.284l22.012-21.775a1.5 1.5 0 0 1 2.116 2.127c-1.199 1.198-.626 5.253 3 8.88Z" fill="currentColor"/></svg>