<svg width="64" height="64" viewBox="0 0 64 64" fill="none" xmlns="http://www.w3.org/2000/svg"><path fill-rule="evenodd" clip-rule="evenodd" d="M33.5 24.465a1.5 1.5 0 1 1-3 0V15.5a1.5 1.5 0 1 1 3 0v8.965Zm14.701 29.482-3.612 7.05h15.457l-3.612-7.05h-8.233Zm-20.364 0-3.613 7.05h15.457l-3.612-7.05h-8.231Zm-20.27 0-3.612 7.05H19.41l-3.611-7.05H7.567Zm11.602 0 2.65 5.17 2.648-5.17H19.17Zm2.764-10.05h-4.116l-3.613 7.05h15.457l-3.613-7.05h-4.115Zm14.298-10.05h-8.233l-3.611 7.05h15.456l-3.612-7.05Zm-6.812 10.05 2.695 5.26 2.696-5.26h-5.39Zm10.021 10.05 2.695 5.262 2.696-5.262h-5.39Zm7.844-3h2.741l-3.612-7.05H38.18l-3.612 7.05h12.716Zm11.402.817 5.15 10.05a1.499 1.499 0 0 1-1.336 2.184H1.501a1.497 1.497 0 0 1-1.28-.718 1.496 1.496 0 0 1-.055-1.466l5.149-10.05a1.501 1.501 0 0 1 1.335-.817h4.184l4.73-9.233a1.501 1.501 0 0 1 1.335-.817h4.116l4.732-9.234a1.5 1.5 0 0 1 1.334-.816h10.067a1.5 1.5 0 0 1 1.335.816l4.731 9.234h4.116c.563 0 1.078.316 1.335.817l4.731 9.233h3.955c.563 0 1.078.316 1.335.817ZM53.81 41.662a1.5 1.5 0 0 0 2.122-.02l6.279-6.398a1.5 1.5 0 0 0-2.142-2.102l-6.28 6.399a1.5 1.5 0 0 0 .02 2.12ZM41.76 27.129a1.5 1.5 0 0 1-1.435-1.94l2.631-8.57a1.5 1.5 0 1 1 2.868.881l-2.63 8.57a1.501 1.501 0 0 1-1.435 1.06Zm6.008 6.085a1.5 1.5 0 0 0 2.094-.337l5.25-7.267a1.5 1.5 0 1 0-2.431-1.757l-5.25 7.266a1.5 1.5 0 0 0 .337 2.095ZM9.14 42.09c-.389 0-.777-.15-1.071-.449L1.79 35.244a1.5 1.5 0 0 1 2.141-2.102l6.28 6.398a1.501 1.501 0 0 1-1.071 2.551Zm11.667-16.02a1.5 1.5 0 1 0 2.868-.882l-2.632-8.57a1.5 1.5 0 0 0-2.868.881l2.632 8.57Zm-5.452 7.427a1.5 1.5 0 0 1-1.217-.621l-5.25-7.267a1.5 1.5 0 0 1 2.432-1.757l5.25 7.266a1.5 1.5 0 0 1-1.215 2.379Z" fill="currentColor"/></svg>