<svg xmlns="http://www.w3.org/2000/svg" width="64" height="64" fill="none" viewBox="0 0 64 64"><path fill="currentColor" fill-rule="evenodd" d="M61 42.45A4.555 4.555 0 0 1 56.45 47H25.392a1.5 1.5 0 0 0-.914.31L13.88 55.455V48.5a1.5 1.5 0 0 0-1.5-1.5H7.56A4.56 4.56 0 0 1 3 42.45V11.56A4.566 4.566 0 0 1 7.56 7h48.888A4.56 4.56 0 0 1 61 11.56zM56.45 4H7.56C3.392 4 0 7.39 0 11.56v30.89C0 46.613 3.392 50 7.56 50h3.321v8.5a1.5 1.5 0 0 0 2.414 1.188L25.902 50H56.45c4.162 0 7.55-3.387 7.55-7.55V11.56C64 7.39 60.612 4 56.45 4M31.976 34.45c-1.077-.03-1.982.818-2.055 1.896a2.03 2.03 0 0 0 .963 1.854 2.02 2.02 0 0 0 2.07.028 2.06 2.06 0 0 0 1.02-1.81 2.016 2.016 0 0 0-1.998-1.968M28.4 16.39a8.93 8.93 0 0 1 6.954-.345 5.72 5.72 0 0 1 3.549 3.318 6.6 6.6 0 0 1 .402 3.119 5.22 5.22 0 0 1-1.695 3.39 39 39 0 0 1-1.822 1.641q-.24.206-.477.414a4.3 4.3 0 0 0-1.38 1.738 5.7 5.7 0 0 0-.302 1.696c0 .137-.013.274-.026.411l-.017.192c0 .102-.028.158-.143.158h-3.046c-.101 0-.158-.028-.144-.13a12 12 0 0 1 .302-2.96 5.56 5.56 0 0 1 1.666-2.614 42 42 0 0 0 2.012-1.94 3.85 3.85 0 0 0 1.063-2.011c.259-1.293-.23-2.241-1.465-2.701a4.74 4.74 0 0 0-3.678.143 2.8 2.8 0 0 0-1.524 1.969 6 6 0 0 0-.143.877c0 .172-.086.229-.26.215h-3.403c-.101 0-.188 0-.173-.144a8.5 8.5 0 0 1 .719-3.405 6.22 6.22 0 0 1 3.03-3.031" clip-rule="evenodd"/></svg>