<svg width="65" height="64" viewBox="0 0 65 64" fill="none" xmlns="http://www.w3.org/2000/svg"><path fill-rule="evenodd" clip-rule="evenodd" d="M30.935 7.867a1.501 1.501 0 0 0 1.929-.884l1.844-4.96A1.5 1.5 0 1 0 31.896.976l-1.845 4.961c-.288.777.108 1.64.884 1.93Zm-7.677-.202a1.5 1.5 0 0 0 2.855-.922L24.271 1.04a1.503 1.503 0 0 0-1.89-.967 1.502 1.502 0 0 0-.966 1.89l1.841 5.703ZM60.903 37.25v.002l-.001.001a1.376 1.376 0 0 1-.356.55l-11.84 9.224c-3.41 2.566-7.719 3.231-11.523 1.777a11.547 11.547 0 0 1-1.941-.954l.029-.072c.01-.024.018-.048.029-.072.056-.124.106-.25.156-.377.024-.064.05-.127.075-.19.122-.303.242-.605.345-.914.062-.185.116-.374.169-.562l.017-.06a14.488 14.488 0 0 0 .369-1.56c.057-.307.104-.613.142-.922a14.636 14.636 0 0 0 .118-1.603l.003-.11c.004-.183.008-.366.006-.55a15.978 15.978 0 0 0-.051-.977l-.013-.187a9.39 9.39 0 0 0-.037-.439c-.04-.359-.101-.715-.166-1.07a9.455 9.455 0 0 1-.032-.195c-.017-.111-.034-.222-.058-.333a16.775 16.775 0 0 0-.414-1.58l-3.248-9.643 3.34-8.78a1.4 1.4 0 0 1 .74-.784c.35-.155.74-.166 1.045-.052l.242.101a1.416 1.416 0 0 1 .818 1.817v.002l-.001.001-2.817 7.397a1.498 1.498 0 0 0 1.401 2.034c.604 0 1.174-.367 1.401-.966l2.812-7.38.002-.005.003-.005.002-.004 2.001-5.253a1.524 1.524 0 0 1 1.96-.88c.386.147.685.427.843.79a1.59 1.59 0 0 1 .042 1.173v.002a.02.02 0 0 0-.003.004l-3.926 10.31a1.5 1.5 0 1 0 2.802 1.067l3.907-10.254a.19.19 0 0 1 .014-.028c.004-.008.009-.016.012-.025l1.176-3.112a1.53 1.53 0 0 1 1.969-.886c.378.143.676.426.847.811.167.365.179.773.033 1.152l-1.82 4.77a.326.326 0 0 0-.01.035l-.008.03-3.435 9.018a1.5 1.5 0 1 0 2.803 1.07l3.458-9.08.004-.014.004-.015a1.53 1.53 0 0 1 1.973-.844c.476.177.716.527.828.776.167.383.18.802.033 1.184l-4.818 12.654-2.241.82c-1.518-.636-5.259-1.589-9.395 1.9a1.502 1.502 0 0 0 1.936 2.292c3.561-3.008 6.48-1.355 6.588-1.292a1.5 1.5 0 0 0 1.305.135l3.481-1.272a.197.197 0 0 0 .013-.006l.013-.007 4.537-1.58c.575-.198 1.624-.366 2.225.725.213.38.244.842.084 1.27ZM25.596 52.884c-3.86 1.307-8.14.475-11.426-2.202L3.472 41.59a1.423 1.423 0 0 1-.386-.615 1.485 1.485 0 0 1 .132-1.26c.299-.49.83-.758 1.338-.758.241 0 .476.06.68.182l4.38 3.02a1.5 1.5 0 0 0 2.273-1.714L6.657 24.928a1.519 1.519 0 0 1 .091-1.168c.171-.354.481-.62.867-.753.391-.13.807-.102 1.173.081.357.178.624.482.753.86l.005.015.003.006.002.005a.112.112 0 0 1 .005.011l3.096 9.182a1.5 1.5 0 0 0 2.842-.959l-3.105-9.206-.001-.002-.002-.003-.003-.009-.001-.005-1.623-4.818a1.5 1.5 0 0 1 .084-1.168 1.49 1.49 0 0 1 .883-.764 1.482 1.482 0 0 1 1.145.074c.369.18.645.494.775.874l1.06 3.16.003.006.002.005 3.523 10.45a1.5 1.5 0 0 0 2.842-.959L17.551 19.39v-.001h-.001a1.546 1.546 0 0 1 .087-1.169c.175-.36.487-.633.868-.764a1.526 1.526 0 0 1 1.931.957l1.79 5.32a.088.088 0 0 0 .01.022l.004.009.003.005 2.516 7.466a1.503 1.503 0 0 0 1.902.943 1.501 1.501 0 0 0 .942-1.902l-2.528-7.5a.138.138 0 0 0-.004-.009l-.004-.007-.002-.005a1.415 1.415 0 0 1 .912-1.777l.174-.06a1.422 1.422 0 0 1 1.805.885l1.709 5.073v.006l.001.001 3.412 10.126c.425 1.337.635 2.714.637 4.08 0 .065-.005.129-.01.193a3.315 3.315 0 0 0-.008.154l-.001.038c-.009.326-.017.652-.05.974l-.01.074a.565.565 0 0 0-.011.07c-.045.401-.103.802-.184 1.196-.015.075-.036.148-.057.221-.015.051-.03.102-.042.154l-.014.058c-.069.294-.138.588-.23.877-.014.043-.03.085-.047.127-.014.035-.028.069-.04.104a12.776 12.776 0 0 1-.394 1.042l-.004.008c-.181.408-.382.808-.605 1.197v.001c-1.45 2.513-3.727 4.398-6.412 5.307ZM63.441 34.52c-1.154-2.096-3.441-2.92-5.826-2.1l-1.55.538 3.913-10.275c.43-1.12.4-2.349-.093-3.474a4.446 4.446 0 0 0-2.509-2.365 4.488 4.488 0 0 0-1.53-.3l.302-.79a4.434 4.434 0 0 0-.098-3.456 4.473 4.473 0 0 0-2.519-2.386 4.54 4.54 0 0 0-5.427 1.81 4.596 4.596 0 0 0-1.406-.85c-2.332-.882-4.951.293-5.832 2.618l-.51 1.337a4.221 4.221 0 0 0-1.197-.695l-.241-.1a4.406 4.406 0 0 0-3.38.098 4.368 4.368 0 0 0-2.322 2.461l-2.042 5.367-.374-1.108c-.767-2.304-3.28-3.553-5.622-2.77l-.185.065a4.385 4.385 0 0 0-1.255.672l-.458-1.36a4.53 4.53 0 0 0-7.161-2.05 4.507 4.507 0 0 0-1.93-1.795 4.455 4.455 0 0 0-3.414-.224 4.422 4.422 0 0 0-2.615 2.268 4.46 4.46 0 0 0-.244 3.467l.27.803a4.59 4.59 0 0 0-1.533.24 4.468 4.468 0 0 0-2.601 2.276 4.482 4.482 0 0 0-.235 3.452l3.789 11.238-.742-.51c-2.121-1.287-4.908-.6-6.209 1.534a4.466 4.466 0 0 0-.413 3.775 4.442 4.442 0 0 0 1.244 1.906l10.764 9.15c2.823 2.301 6.226 3.506 9.65 3.506a14.54 14.54 0 0 0 4.659-.767c2.872-.973 5.363-2.834 7.161-5.303a14.43 14.43 0 0 0 7.576 2.138c3.235 0 6.47-1.074 9.234-3.153l11.905-9.278a4.404 4.404 0 0 0 1.279-1.83 4.491 4.491 0 0 0-.273-3.78ZM38.589 55.364a1.502 1.502 0 0 1 1.89.967l1.841 5.704a1.502 1.502 0 0 1-1.428 1.961 1.5 1.5 0 0 1-1.428-1.039l-1.84-5.704a1.501 1.501 0 0 1 .965-1.889Zm-7.474 1.653a1.502 1.502 0 0 1 2.813 1.045l-1.844 4.96a1.501 1.501 0 0 1-1.93.884 1.5 1.5 0 0 1-.882-1.928l1.843-4.961ZM13.805 8.759l4.462 2.848a1.5 1.5 0 1 0 1.613-2.53L15.418 6.23a1.5 1.5 0 0 0-1.613 2.529Zm32.396 45.345 4.462 2.847a1.5 1.5 0 0 1-1.613 2.53l-4.462-2.847a1.5 1.5 0 0 1 1.613-2.53Z" fill="currentColor"/></svg>