<svg xmlns="http://www.w3.org/2000/svg" width="64" height="64" fill="none" viewBox="0 0 64 64"><path fill="currentColor" d="M30.162.352a3 3 0 0 1 2.816 0l27.545 14.496a3.02 3.02 0 0 1 1.618 2.677v6.723a3.03 3.03 0 0 1-3.028 3.027h-3.096v24.547h3.086a3.03 3.03 0 0 1 3.028 3.027v6.124A3.03 3.03 0 0 1 59.103 64H4.027A3.03 3.03 0 0 1 1 60.973v-6.124a3.03 3.03 0 0 1 3.027-3.027h3.097V27.275H4.027A3.03 3.03 0 0 1 1 24.248v-6.723c0-1.128.62-2.158 1.618-2.677zM3.997 54.849v6.124l55.116.03.03-6.154-55.116-.03zm13.776-3.027h8.472V27.275h-8.472zm-7.662 0h4.656V27.276H10.11zm19.131 0h4.656V27.276h-4.656zm7.653 0h7.712V27.275h-7.712zm10.71 0h5.415V27.276h-5.416zM3.997 17.525v6.723l55.116.03.03-6.753L31.592 3z"/></svg>