<svg width="64" height="64" viewBox="0 0 64 64" fill="none" xmlns="http://www.w3.org/2000/svg">
<path fill-rule="evenodd" clip-rule="evenodd" d="M44.6077 27.276H36.8952V51.8218H44.6077V27.276ZM17.7737 27.276H26.2455V51.8218H17.7737V27.276ZM7.12407 27.276H4.02706C2.35868 27.276 1 25.9174 1 24.249V17.5255C1 16.3966 1.6194 15.3676 2.61843 14.8481L30.1617 0.352158C31.0409 -0.117386 32.0998 -0.117386 32.979 0.352158L60.5223 14.8481C61.5213 15.3776 62.1407 16.3966 62.1407 17.5255V24.249C62.1407 25.9174 60.782 27.276 59.1136 27.276H56.0167V51.8218H59.1036C60.772 51.8218 62.1307 53.1805 62.1307 54.8489V60.9729C62.1307 62.6413 60.772 64 59.1036 64H4.02706C2.35868 64 1 62.6413 1 60.9729V54.8489C1 53.1805 2.35868 51.8218 4.02706 51.8218H7.12407V27.276ZM14.7667 51.8218H10.1112V27.2763H14.7667V51.8218ZM29.2426 51.8218H33.8981V27.2763H29.2426V51.8218ZM53.0196 51.8218H47.6048V27.2763H53.0196V51.8218ZM31.5903 2.99959L3.99709 17.5255V24.249L59.1136 24.279L59.1436 17.5255L31.5903 2.99959ZM4.02706 54.8189L3.99709 54.8489V60.9729L59.1136 61.0029L59.1436 54.8489L4.02706 54.8189Z" fill="black"/>
</svg>
