<svg width="64" height="65" viewBox="0 0 64 65" fill="none" xmlns="http://www.w3.org/2000/svg"><path fill-rule="evenodd" clip-rule="evenodd" d="M54.854 53.489a2.724 2.724 0 0 0 1.133-1.958 2.741 2.741 0 0 0-.705-2.16l-16.89-18.563a1.5 1.5 0 0 1-.167-1.796 10.556 10.556 0 0 0 1.54-6.207c-.298-4.915-4.161-9.09-8.984-9.714a10.509 10.509 0 0 0-3.47.122c5.414 2.253 8.502 7.876 7.595 14.15a12.162 12.162 0 0 1-2.815 6.217c.026-.008.054-.014.08-.02.037-.009.072-.017.108-.028a1.498 1.498 0 0 1 1.545.427l17.436 19.15a2.715 2.715 0 0 0 3.594.38ZM20.9 36.148a1.5 1.5 0 0 1 1.388-1.022c4.94-.113 8.998-3.555 9.648-8.185v-.007c.622-4.295-1.235-9.67-6.78-11.316-1.401-.416-2.662-.586-3.785-.586-2.08 0-3.686.585-4.863 1.272 1.156 1.518 2.712 2.622 4.416 3.087A3.467 3.467 0 0 1 22.503 19a3.5 3.5 0 1 1-3.5 3.5c0-.195.026-.383.057-.569-1.876-.748-3.56-2.052-4.864-3.73-1.611 1.806-2.472 4.242-2.402 6.855.077 2.925 1.486 5.88 3.676 7.713.476.398.658 1.046.458 1.633L8.027 57.663a.443.443 0 0 0 .02.343l1.629 2.979 3.083-1.323a.445.445 0 0 0 .242-.255l1.796-5.303-1.384-2.511a1.505 1.505 0 0 1-.105-1.21c.138-.401.439-.726.827-.892l2.618-1.122.38-1.114-1.158-3.26a1.503 1.503 0 0 1 .607-1.768l2.894-1.846 1.424-4.233Zm20.438-6.562L57.5 47.352a5.78 5.78 0 0 1-.895 8.573 5.718 5.718 0 0 1-7.564-.796L32.216 36.648a13.33 13.33 0 0 1-4.42.203 13.418 13.418 0 0 1-4.374 1.21L22.15 41.84a1.506 1.506 0 0 1-.614.785l-2.335 1.49.932 2.628c.113.32.115.666.006.986l-.763 2.24a1.508 1.508 0 0 1-.828.895l-1.71.732.905 1.643a1.5 1.5 0 0 1 .105 1.206l-2.007 5.923a3.422 3.422 0 0 1-1.905 2.054l-3.224 1.384a2.962 2.962 0 0 1-1.112.218 2.811 2.811 0 0 1-2.475-1.45L5.422 59.46a3.42 3.42 0 0 1-.235-2.763l7.586-22.33c-2.417-2.392-3.887-5.77-3.977-9.23-.1-3.721 1.294-7.18 3.815-9.585a12.854 12.854 0 0 1-.842-2.575c-.755-3.598-.03-7.212 1.94-9.667C15.42 1.18 17.935.035 20.986 0c5.782 0 8.39 3.994 8.965 6.106a1.5 1.5 0 0 1-1.054 1.841 1.496 1.496 0 0 1-1.841-1.054C27.012 6.746 25.867 3 21.003 3c-2.137.025-3.81.76-4.954 2.187-1.393 1.736-1.908 4.484-1.344 7.173.094.447.222.879.372 1.3 1.717-.99 4.105-1.803 7.2-1.601 2.656-1.68 5.725-2.352 8.889-1.944 6.327.819 11.204 6.079 11.594 12.507a13.561 13.561 0 0 1-1.422 6.965Zm-1.604 8.48a1.501 1.501 0 0 1 .102-2.118 1.498 1.498 0 0 1 2.118.102 1.498 1.498 0 0 1-.1 2.117 1.502 1.502 0 0 1-2.12-.1Zm12.283 14.058a1.5 1.5 0 1 1 2.221-2.018 1.5 1.5 0 0 1-2.22 2.018ZM46.164 41.23a1.5 1.5 0 1 0-2.22 2.019l3.364 3.699a1.501 1.501 0 0 0 2.22-2.02l-3.364-3.698Z" fill="currentColor"/></svg>