<svg xmlns="http://www.w3.org/2000/svg" width="65" height="64" fill="none" viewBox="0 0 65 64"><path fill="currentColor" fill-rule="evenodd" d="M54.574 40.502c-5.71 5.71-11.747 6.491-19.644 6.971-4.218.234-8.205.455-10.816 3.067l-.757.757-4.263-4.265L36.865 29.26l4.562.507.585 5.278a1.502 1.502 0 0 0 2.983-.332l-.719-6.471a1.5 1.5 0 0 0-1.325-1.325l-5.277-.586-.586-5.278a1.5 1.5 0 0 0-1.326-1.325l-6.47-.719a1.504 1.504 0 0 0-1.658 1.325 1.5 1.5 0 0 0 1.325 1.657l5.28.586.505 4.562-17.772 17.772-4.267-4.267.758-.758c2.582-2.582 2.818-6.389 3.094-10.828.48-7.905 1.261-13.943 6.97-19.653A21.8 21.8 0 0 1 39.027 3h.017a21.87 21.87 0 0 1 15.527 6.43 21.9 21.9 0 0 1 6.432 15.546c0 5.871-2.283 11.384-6.429 15.526m-42.34 20.5h-.004a3.4 3.4 0 0 1-2.428-1.007l-5.795-5.794a3.437 3.437 0 0 1-.005-4.854l1.275-1.276L15.93 58.724 14.655 60a3.4 3.4 0 0 1-2.422 1.002m3.667-12.92.01.014.012.008 5.313 5.314-3.184 3.185L7.398 45.949l3.186-3.184zM56.692 7.309l-.002-.002C51.972 2.6 45.707.005 39.046 0h-.02c-6.653 0-12.91 2.586-17.619 7.283-6.443 6.445-7.34 13.301-7.846 21.62-.246 3.957-.44 7.082-2.219 8.862L9.526 39.58l-.003.002-.002.003-7.64 7.64c-2.506 2.506-2.504 6.588.005 9.097l5.793 5.794A6.42 6.42 0 0 0 12.233 64a6.4 6.4 0 0 0 4.543-1.879l9.46-9.46c1.8-1.801 5.072-1.981 8.868-2.192 8.292-.504 15.148-1.402 21.591-7.845 4.712-4.708 7.308-10.976 7.308-17.648-.002-6.669-2.599-12.944-7.31-17.667" clip-rule="evenodd"/></svg>