<svg xmlns="http://www.w3.org/2000/svg" width="64" height="64" fill="none" viewBox="0 0 64 64"><path fill="currentColor" fill-rule="evenodd" d="M63.83 31.307 58.391 20.88A3.49 3.49 0 0 0 55.288 19H43v-3.5c0-1.93-1.57-3.5-3.5-3.5h-36C1.57 12 0 13.57 0 15.5v27C0 44.43 1.57 46 3.5 46h4.08c.488 3.386 3.401 6 6.92 6s6.432-2.614 6.92-6h23.66c.488 3.386 3.401 6 6.92 6s6.432-2.614 6.92-6h1.58c1.93 0 3.5-1.57 3.5-3.5V32c0-.241-.059-.479-.17-.693m-8.1-9.039L60.286 31H49v-9h6.288c.187 0 .356.103.442.268M3 42.5v-27c0-.275.225-.5.5-.5h36c.275 0 .5.225.5.5V43H3.5a.5.5 0 0 1-.5-.5M14.5 49c-1.859 0-3.411-1.279-3.858-3h7.716c-.447 1.721-1.999 3-3.858 3M52 49c-2.206 0-4-1.794-4-4s1.794-4 4-4 4 1.794 4 4-1.794 4-4 4m8.5-6h-1.795c-.863-2.888-3.541-5-6.705-5s-5.842 2.112-6.705 5H43V22h3v10.5a1.5 1.5 0 0 0 1.5 1.5H61v8.5c0 .275-.225.5-.5.5M30 36.5V28h.5a1.5 1.5 0 0 0 1.5-1.5v-5a1.5 1.5 0 0 0-1.5-1.5h-19a1.5 1.5 0 0 0-1.5 1.5v5a1.5 1.5 0 0 0 1.5 1.5h.5v8.5a1.5 1.5 0 0 0 1.5 1.5h15a1.5 1.5 0 0 0 1.5-1.5M13 23h16v2H13zm14 12H15v-7h12zm-4.5-2h-3a1.5 1.5 0 0 1 0-3h3a1.5 1.5 0 0 1 0 3" clip-rule="evenodd"/></svg>