<svg xmlns="http://www.w3.org/2000/svg" width="64" height="64" fill="none" viewBox="0 0 64 64"><path fill="currentColor" d="M11.45 43.338c-.55-.45-1.35-.45-1.9 0l-9 7.36a1.5 1.5 0 0 0-.55 1.16v10.64c0 .83.67 1.5 1.5 1.5h18c.83 0 1.5-.67 1.5-1.5v-10.64c0-.45-.2-.88-.55-1.16zM18 60.998H3v-8.43l7.5-6.14 7.5 6.14zM32.95.338c-.55-.45-1.35-.45-1.9 0l-9 7.36a1.5 1.5 0 0 0-.55 1.16v10.64c0 .83.67 1.5 1.5 1.5h18c.83 0 1.5-.67 1.5-1.5V8.857c0-.45-.2-.88-.55-1.16zm6.55 17.66h-15v-8.43l7.5-6.14 7.5 6.14zm23.95 32.7-9-7.36c-.55-.45-1.35-.45-1.9 0l-9 7.36a1.5 1.5 0 0 0-.55 1.16v10.64c0 .83.67 1.5 1.5 1.5h18c.83 0 1.5-.67 1.5-1.5v-10.64c0-.45-.2-.88-.55-1.16M61 60.998H46v-8.43l7.5-6.14 7.5 6.14zM40.76 41.197l-7.25-4.23v-8.48c0-.83-.67-1.5-1.5-1.5s-1.5.67-1.5 1.5v8.48l-7.26 4.23c-.72.42-.96 1.33-.54 2.05a1.5 1.5 0 0 0 2.05.55l7.25-4.22 7.24 4.22a1.513 1.513 0 0 0 2.05-.54c.42-.72.18-1.63-.54-2.05z"/></svg>