<svg xmlns="http://www.w3.org/2000/svg" width="64" height="64" fill="none" viewBox="0 0 64 64"><path fill="currentColor" d="M59.481 63.973H4.5A4.505 4.505 0 0 1 0 59.474V23.586c0-.96.57-1.83 1.45-2.22s1.899-.22 2.619.42L32 47.138l27.931-25.342c.71-.65 1.74-.81 2.62-.42S64 22.636 64 23.596v35.888c0 2.48-2.02 4.499-4.499 4.499zM3 24.875v34.6c0 .83.67 1.499 1.5 1.499h54.98c.83 0 1.5-.67 1.5-1.5V24.875L33 50.267c-.57.52-1.44.52-2.02 0z"/><path fill="currentColor" d="M9.997 54.976c-.4 0-.81-.16-1.1-.48a1.51 1.51 0 0 1 .08-2.12L21.973 40.38a1.51 1.51 0 0 1 2.12.08c.56.61.52 1.56-.08 2.12L11.015 54.576c-.29.27-.65.4-1.02.4m43.988 0c-.36 0-.73-.13-1.02-.4L39.968 42.579a1.49 1.49 0 0 1-.08-2.119 1.5 1.5 0 0 1 2.119-.08l12.996 11.996c.61.56.65 1.51.08 2.12-.3.32-.7.48-1.1.48M41.187 10.35a1.5 1.5 0 0 1-.85-.27L31.99 4.31l-8.347 5.769c-.68.47-1.62.3-2.09-.38s-.3-1.62.38-2.09l9.207-6.348c.51-.35 1.19-.35 1.71 0l9.197 6.358a1.505 1.505 0 0 1-.86 2.74zM2 24.245c-.48 0-.95-.23-1.24-.66-.46-.69-.28-1.619.4-2.079l7.177-4.848c.69-.46 1.62-.28 2.08.4.46.69.28 1.619-.4 2.079l-7.178 4.848c-.26.17-.55.26-.84.26m59.981 0c-.29 0-.58-.08-.84-.26l-6.677-4.508c-.69-.46-.87-1.4-.4-2.08.46-.69 1.4-.87 2.08-.4l6.677 4.51c.69.46.87 1.399.4 2.079-.29.43-.76.66-1.24.66"/><path fill="currentColor" d="M10.677 28.174h-3V11.16c0-1.93 1.57-3.5 3.5-3.5h42.126c1.93 0 3.5 1.57 3.5 3.5v16.894h-3V11.16c0-.28-.22-.5-.5-.5H11.177c-.27 0-.5.23-.5.5z"/><path fill="currentColor" d="m15.565 25.395 1.41-1.92-2.27-.74.51-1.569 2.27.74v-2.38h1.649v2.38l2.26-.75.51 1.57-2.26.75 1.41 1.919-1.33.96-1.41-1.9-1.42 1.9zm8.827 0 1.41-1.92-2.27-.74.51-1.569 2.27.74v-2.38h1.65v2.38l2.259-.75.51 1.57-2.26.75 1.41 1.919-1.33.96-1.41-1.9-1.419 1.9zm8.828 0 1.41-1.92-2.27-.74.51-1.569 2.269.74v-2.38h1.65v2.38l2.259-.75.51 1.57-2.26.75 1.41 1.919-1.33.96-1.41-1.9-1.419 1.9zm8.827 0 1.41-1.92-2.27-.74.51-1.569 2.27.74v-2.38h1.649v2.38l2.259-.75.51 1.57-2.26.75 1.41 1.919-1.33.96-1.409-1.9-1.43 1.9-1.33-.96z"/></svg>