<svg xmlns="http://www.w3.org/2000/svg" width="64" height="64" fill="none" viewBox="0 0 64 64"><path fill="currentColor" fill-rule="evenodd" d="M59.5 52c.827 0 1.5-.673 1.5-1.5v-36c0-.827-.673-1.5-1.5-1.5h-55c-.827 0-1.5.673-1.5 1.5v36c0 .827.673 1.5 1.5 1.5zm-55-42h55c2.481 0 4.5 2.019 4.5 4.5v36c0 2.481-2.019 4.5-4.5 4.5h-55A4.505 4.505 0 0 1 0 50.5v-36C0 12.019 2.019 10 4.5 10m50.136 12.27L42.259 32.964l12.38 10.764a1.5 1.5 0 1 1-1.968 2.263L39.966 34.945l-7.372 6.37-.015.01q-.01.003-.017.01a1.5 1.5 0 0 1-.404.237l-.05.017-.034.01c-.148.049-.301.08-.457.082h-.007a1.5 1.5 0 0 1-.49-.092q-.026-.007-.051-.017a1.5 1.5 0 0 1-.404-.237q-.008-.007-.017-.01l-.015-.01-7.372-6.37L10.556 45.99a1.496 1.496 0 0 1-2.116-.147 1.5 1.5 0 0 1 .147-2.116l12.38-10.764L8.592 22.27A1.5 1.5 0 1 1 10.55 20l21.062 18.198L52.675 20a1.5 1.5 0 1 1 1.96 2.27" clip-rule="evenodd"/></svg>