<svg width="64" height="64" viewBox="0 0 64 64" fill="none" xmlns="http://www.w3.org/2000/svg"><path d="M32.001 64c-10.741 0-19.492-8.77-19.492-19.55 0-10.78 8.74-19.55 19.492-19.55 10.751 0 19.492 8.77 19.492 19.55 0 10.78-8.74 19.55-19.492 19.55Zm0-36.09c-9.091 0-16.492 7.42-16.492 16.55s7.4 16.55 16.492 16.55c9.091 0 16.492-7.42 16.492-16.55s-7.4-16.55-16.492-16.55Z" fill="currentColor"/><path d="M37.082 54.1c-.28 0-.57-.07-.83-.21l-4.25-2.25-4.241 2.24c-.61.32-1.33.27-1.88-.13-.55-.4-.83-1.07-.71-1.75l.81-4.76-3.441-3.37c-.49-.48-.66-1.18-.45-1.83.21-.65.76-1.11 1.44-1.21l4.75-.69 2.12-4.33c.3-.61.911-1 1.601-1 .68 0 1.3.38 1.6 1l2.12 4.33 4.751.69c.67.1 1.23.56 1.44 1.21.21.65.04 1.35-.44 1.83l-3.45 3.38.81 4.76c.12.67-.16 1.34-.71 1.74-.31.23-.68.34-1.05.34l.01.01ZM26.39 43.45l1.99 1.95c.52.5.75 1.23.63 1.95l-.47 2.74 2.431-1.29c.65-.34 1.42-.34 2.06 0l2.43 1.29-.47-2.74c-.12-.71.11-1.44.63-1.95l1.99-1.95-2.73-.4c-.72-.11-1.35-.56-1.67-1.22l-1.21-2.47-1.22 2.48c-.32.65-.94 1.11-1.66 1.21l-2.74.4h.01Zm19.602-11.19a1.496 1.496 0 0 1-1.31-2.23L61.194.76c.41-.72 1.32-.97 2.04-.57.72.41.98 1.32.57 2.04l-16.5 29.26c-.28.49-.78.76-1.31.76v.01ZM32.94 27.37a1.496 1.496 0 0 1-1.31-2.23L45.383.76c.41-.72 1.32-.97 2.04-.57.72.41.98 1.32.57 2.04L34.252 26.6c-.28.49-.78.76-1.31.76v.01Zm-14.93 4.89c-.52 0-1.03-.27-1.31-.76L.196 2.24A1.506 1.506 0 0 1 .757.19c.73-.4 1.64-.15 2.05.57L19.31 30.02A1.494 1.494 0 0 1 18 32.25l.01.01Z" fill="currentColor"/><path d="M31.06 27.37c-.52 0-1.03-.27-1.31-.76L16.01 2.24c-.41-.72-.15-1.64.57-2.04.72-.41 1.64-.15 2.04.57l13.742 24.37a1.494 1.494 0 0 1-1.31 2.23h.01Z" fill="currentColor"/></svg>