<svg xmlns="http://www.w3.org/2000/svg" width="64" height="64" fill="none" viewBox="0 0 64 64"><path fill="currentColor" d="M45.5 0C47.98 0 50 2.02 50 4.5V7h3.5c3.03 0 5.5 2.47 5.5 5.5v43c0 3.03-2.47 5.5-5.5 5.5h-43A5.51 5.51 0 0 1 5 55.5v-43C5 9.47 7.47 7 10.5 7H14V4.5C14 2.02 16.02 0 18.5 0S23 2.02 23 4.5V7h18V4.5C41 2.02 43.02 0 45.5 0M8 55.5a2.5 2.5 0 0 0 2.5 2.5h43a2.5 2.5 0 0 0 2.5-2.5V23H8zM28.604 29a1.5 1.5 0 0 1 1.198 2.401l-4.345 5.774c1.4.31 2.612.934 3.543 1.84 1.476 1.437 2.203 3.517 2.1 6.015-.12 2.97-2.472 5.78-5.593 6.683a7.2 7.2 0 0 1-1.992.288c-2.428 0-4.713-1.294-6.36-3.68a1.5 1.5 0 0 1 2.467-1.705c1.365 1.978 3.16 2.764 5.05 2.217 1.857-.538 3.365-2.262 3.433-3.925.067-1.647-.335-2.906-1.196-3.744-.919-.893-2.404-1.317-4.201-1.197a1.498 1.498 0 0 1-1.3-2.398L25.598 32h-6.99a1.5 1.5 0 1 1 0-3zm13.959.33A1.502 1.502 0 0 1 45 30.5v20a1.5 1.5 0 1 1-3.001 0V33.621l-2.563 2.05a1.5 1.5 0 0 1-2.108-.234 1.5 1.5 0 0 1 .233-2.108zM10.5 10A2.5 2.5 0 0 0 8 12.5V20h48v-7.5a2.5 2.5 0 0 0-2.5-2.5H50v2.5c0 2.48-2.02 4.5-4.5 4.5S41 14.98 41 12.5V10H23v2.5c0 2.48-2.02 4.5-4.5 4.5S14 14.98 14 12.5V10zm8-7c-.83 0-1.5.67-1.5 1.5v8c0 .83.67 1.5 1.5 1.5s1.5-.67 1.5-1.5v-8c0-.83-.67-1.5-1.5-1.5m27 0c-.83 0-1.5.67-1.5 1.5v8c0 .83.67 1.5 1.5 1.5s1.5-.67 1.5-1.5v-8c0-.83-.67-1.5-1.5-1.5"/></svg>