<svg xmlns="http://www.w3.org/2000/svg" width="64" height="64" fill="none" viewBox="0 0 64 64"><path fill="currentColor" fill-rule="evenodd" d="M41.005 31.933c0 1.654 1.346 3 3 3s3-1.346 3-3-1.346-3-3-3-3 1.346-3 3m-11.002 22.49h12.502v-16.67a1 1 0 0 1-.132-.042q-.05-.02-.102-.036-.056-.016-.11-.036l-.05-.017c-2.467-.783-4.265-3.027-4.265-5.689s1.798-4.906 4.265-5.689l.05-.017q.054-.019.11-.036a1 1 0 0 0 .102-.035q.064-.025.132-.043V9.493H30.003zm-3.63 6.56a.49.49 0 0 0 .43-.087.5.5 0 0 0 .197-.398l.003-56.997a.5.5 0 0 0-.629-.483l-23 6.124a.5.5 0 0 0-.371.482L3 54.155a.5.5 0 0 0 .369.481h.002v.001h.003zm19.132-51.99V26.13c2.584.67 4.5 3.013 4.5 5.803s-1.916 5.134-4.5 5.803v17.187c0 1.38-1.121 2.5-2.5 2.5H30v3.075c0 1.1-.501 2.114-1.376 2.782a3.48 3.48 0 0 1-3.044.595L2.575 57.53A3.51 3.51 0 0 1 0 54.153L.003 9.625a3.5 3.5 0 0 1 2.599-3.381l23-6.124a3.48 3.48 0 0 1 3.034.607A3.47 3.47 0 0 1 30.003 3.5v2.993h13.002c1.379 0 2.5 1.12 2.5 2.5M17.503 30.459h5a1.5 1.5 0 0 1 0 3h-5a1.5 1.5 0 0 1 0-3m35.692-7.693a1.5 1.5 0 1 0-2.121 2.121 9.93 9.93 0 0 1 2.929 7.071 9.93 9.93 0 0 1-2.929 7.071 1.5 1.5 0 1 0 2.121 2.121 12.92 12.92 0 0 0 3.808-9.192c0-3.472-1.353-6.737-3.808-9.192m2.83-4.973a1.5 1.5 0 0 1 2.12 0c7.798 7.799 7.798 20.486 0 28.284a1.496 1.496 0 0 1-2.12 0 1.5 1.5 0 0 1 0-2.121c6.627-6.628 6.627-17.413 0-24.042a1.5 1.5 0 0 1 0-2.121" clip-rule="evenodd"/></svg>