<svg xmlns="http://www.w3.org/2000/svg" width="64" height="64" fill="none" viewBox="0 0 64 64"><path fill="currentColor" fill-rule="evenodd" d="M36.607 4H4.393C1.967 4 0 6.015 0 8.5v44.856c0 2.565 1.954 4.61 4.364 4.61l3.78.003a7.502 7.502 0 0 0 14.71.009l18.294.01a7.502 7.502 0 0 0 14.702.01l3.786.002C62.046 58 64 55.921 64 53.356V42h-.013v-8.93a4.5 4.5 0 0 0-1.968-3.72l-2.352-1.602a1.5 1.5 0 0 1-.535-.648l-4.027-9.376A4.5 4.5 0 0 0 50.971 15H41V8.5C41 6.015 39.033 4 36.607 4M41 18v24h19.987v-8.93a1.5 1.5 0 0 0-.656-1.24l-2.353-1.602a4.5 4.5 0 0 1-1.602-1.944l-4.027-9.376A1.5 1.5 0 0 0 50.97 18zm3 38.5a4.502 4.502 0 1 1 8.745 1.496A4.502 4.502 0 0 1 44 56.5m4.5-7.5a7.5 7.5 0 0 1 7.35 6h3.712c.794 0 1.438-.707 1.438-1.579V45H3v8.421C3 54.293 3.644 55 4.438 55H8.15a7.503 7.503 0 0 1 14.7 0h18.3a7.5 7.5 0 0 1 7.35-6m-37.244 6A4.5 4.5 0 0 0 11 56.5a4.502 4.502 0 1 0 8.744-1.5 4.502 4.502 0 0 0-8.488 0M38 42H3V8.5C3 7.672 3.653 7 4.458 7h32.084C37.347 7 38 7.672 38 8.5zm-8.5-17.413 1.46 1.474a1.5 1.5 0 0 0 2.121-2.122l-12.02-12.02a1.5 1.5 0 0 0-2.122 0L6.92 23.938a1.5 1.5 0 0 0 2.12 2.122l1.461-1.474V34.5A1.5 1.5 0 0 0 12 36h16a1.5 1.5 0 0 0 1.5-1.5zm-3-3.028V33h-13V21.559l6.5-6.56z" clip-rule="evenodd"/></svg>