<svg xmlns="http://www.w3.org/2000/svg" width="64" height="64" fill="none" viewBox="0 0 64 64"><path fill="currentColor" fill-rule="evenodd" d="M24.25 60.66c-.25.37-.54.37-.75.31-.14-.04-.488-.2-.488-.74V38.501c0-.829-.67-1.5-1.5-1.5H3.762c-.391 0-.651-.159-.731-.31-.08-.139.011-.33.09-.439l22.63-32.908c.18-.27.39-.34.57-.34.07 0 .14.01.2.03.15.05.5.21.5.74v20.718c0 .83.67 1.5 1.5 1.5h6.88l-4.88 6.66c-.61.88-.69 1.93-.22 2.82.5.94 1.53 1.53 2.69 1.53h7.31zm21.37-26.148a1.48 1.48 0 0 0-1.12-.51H33.25l5.86-8.01 2.202-3 6.579-8.989c.03-.01.1 0 .11-.04v13.54c0 .78.59 1.42 1.36 1.49.04.01.09.01.14.01h11.45c.029.04.06.12.08.13L46.11 50c-.03.01-.1 0-.11.04V35.502c0-.38-.14-.73-.38-.99m18-6.87c-.53-1.01-1.53-1.64-2.61-1.64H51V13.953c0-1.3-.83-2.4-2.12-2.8-1.3-.41-2.69.05-3.42 1.11l-7.858 10.73h-7.58V3.772c0-1.679-1.061-3.13-2.63-3.61-1.58-.48-3.201.12-4.13 1.5L.642 34.571c-.75 1.11-.85 2.441-.26 3.54.63 1.16 1.92 1.89 3.38 1.89h16.25V60.23c0 1.69 1.059 3.14 2.619 3.61.36.11.72.16 1.08.16 1.19 0 2.32-.6 3.03-1.67L43 38.361v11.69c0 1.3.83 2.4 2.12 2.8q.48.15.96.15c.98 0 1.91-.46 2.47-1.27L63.48 30.85c.64-.929.69-2.159.14-3.21" clip-rule="evenodd"/></svg>