<svg xmlns="http://www.w3.org/2000/svg" width="64" height="64" fill="none" viewBox="0 0 64 64"><path fill="currentColor" fill-rule="evenodd" d="M60.484 18.41c-1.447 4.728-5.926 8.022-8.979 9.787l4.571-14.986a1.5 1.5 0 0 0-2.869-.875l-4.57 14.99-.068-.135-.12-.254a28 28 0 0 1-.309-.676l-.13-.297a34 34 0 0 1-.35-.855l-.07-.176a28 28 0 0 1-.39-1.092c-.032-.097-.062-.199-.093-.297a23 23 0 0 1-.364-1.264 20 20 0 0 1-.197-.835q-.045-.202-.085-.405a18 18 0 0 1-.18-1.098c-.007-.054-.018-.105-.025-.158a17 17 0 0 1-.104-1.267c-.006-.126-.004-.252-.007-.377a15 15 0 0 1 .01-.92q.01-.223.027-.447.036-.452.104-.903c.02-.136.036-.272.061-.406.078-.43.174-.859.303-1.283.13-.433.296-.882.512-1.372 2.287-5.045 7.917-8.225 10.334-9.401 1.468 2.532 4.768 9.159 2.988 15.001M34.03 22.963c-3.633-4.914-2.736-12.262-2.199-15.14 2.518.283 8.318 1.292 12.192 4.752q-.138.378-.245.744a14 14 0 0 0-.356 1.473l-.07.397q-.105.636-.158 1.27c-.006.07-.017.14-.022.212-.033.484-.04.966-.034 1.447l.013.374q.022.59.08 1.173c.01.1.016.2.026.301q.058.487.135.965l-4.953-6.695a1.498 1.498 0 1 0-2.41 1.783l9.737 13.164c-3.469-.642-8.793-2.248-11.736-6.22M3 33.266V25.53h18.443v7.736c0 5.088-4.14 9.228-9.228 9.228-5.08 0-9.215-4.14-9.215-9.228M59.314.65A1.5 1.5 0 0 0 57.53.104c-.36.143-8.199 3.298-12.147 9.712-5.856-4.725-14.299-5.081-14.687-5.094a1.5 1.5 0 0 0-1.499 1.109c-.126.468-3.026 11.551 2.423 18.917 4.376 5.907 12.595 7.38 15.93 7.74v11.578c0 9.326-7.587 16.915-16.915 16.915-8.882 0-16.172-6.887-16.848-15.6 6.001-.775 10.655-5.906 10.655-12.115V24.03a1.5 1.5 0 0 0-1.5-1.5h-3.509v-7.375a1.5 1.5 0 0 0-2.998 0v7.375H7.547v-7.375a1.5 1.5 0 1 0-3 0v7.375H1.5a1.5 1.5 0 0 0-1.5 1.5v9.236c0 6.258 4.724 11.426 10.789 12.137.693 10.357 9.317 18.577 19.845 18.577 10.981 0 19.915-8.933 19.915-19.914v-11.98c2.745-1.27 10.557-5.455 12.802-12.8v-.002c2.67-8.76-3.764-18.235-4.038-18.635" clip-rule="evenodd"/></svg>