<svg xmlns="http://www.w3.org/2000/svg" width="65" height="64" fill="none" viewBox="0 0 65 64"><path fill="currentColor" fill-rule="evenodd" d="M60.89 32.099a1.98 1.98 0 0 1-1.015 1.146L31.878 46.891 3 37.906V23h14.666c8.485 0 10.076 5.14 10.135 5.344a1.5 1.5 0 0 0 1.449 1.111h13.713l.03.003c1.103 0 2.001.898 2.001 2 0 1.103-.898 2-2.001 2H24.159a1.5 1.5 0 1 0 0 3h18.834q.155 0 .301-.03a4.9 4.9 0 0 0 1.962-.536c.048-.018.096-.03.143-.053l12.722-6.191a2.006 2.006 0 0 1 2.676.922 1.98 1.98 0 0 1 .093 1.529m2.604-2.845a5.01 5.01 0 0 0-6.686-2.303l-8.836 4.299a4.98 4.98 0 0 0-4.663-4.759 1.4 1.4 0 0 0-.316-.036H30.259C29.229 24.347 26.084 20 17.666 20H1.5A1.5 1.5 0 0 0 0 21.5v17.51a1.5 1.5 0 0 0 1.055 1.433l30.5 9.49.021.003q.2.06.414.062L32 50h.001a1.5 1.5 0 0 0 .526-.105c.043-.017.088-.025.131-.046L61.19 35.943a4.97 4.97 0 0 0 2.537-2.866 4.98 4.98 0 0 0-.233-3.823" clip-rule="evenodd"/></svg>