<svg xmlns="http://www.w3.org/2000/svg" width="64" height="64" fill="none" viewBox="0 0 64 64"><path fill="currentColor" fill-rule="evenodd" d="m53.526 51.408-6.402-6.402V24.88h-.014a1.5 1.5 0 0 0-.426-1.06l-10.298-10.3a1.48 1.48 0 0 0-1.06-.425v-.014H20.144c-1.337 0-2.488.763-3.077 1.868l-4.477-4.477C17.734 5.832 24.542 3 32 3c15.99 0 29 13.01 29 29 0 7.456-2.831 14.263-7.474 19.407m-9.478-5.234a.49.49 0 0 1-.424.253h-23.48a.5.5 0 0 1-.5-.5V21.77zM36.826 23.38v-5.177l5.177 5.177zm-1.5 3h8.798v15.626l-24.48-24.48v-.945a.5.5 0 0 1 .5-.5h13.682v8.798a1.5 1.5 0 0 0 1.5 1.5M3 32c0-7.456 2.83-14.262 7.47-19.404l6.174 6.172v27.16c0 1.928 1.57 3.5 3.5 3.5h23.48a3.48 3.48 0 0 0 2.554-1.125l5.227 5.226C46.26 58.17 39.455 61 32 61 16.01 61 3 47.99 3 32M32 0C14.327 0 0 14.328 0 32s14.327 32 32 32c17.672 0 32-14.327 32-32S49.671 0 32 0" clip-rule="evenodd"/></svg>