<svg xmlns="http://www.w3.org/2000/svg" width="64" height="64" fill="none" viewBox="0 0 64 64"><path fill="currentColor" fill-rule="evenodd" d="M3 32c0 15.99 13.01 29 29 29s29-13.01 29-29S47.99 3 32 3 3 16.01 3 32m-3 0C0 14.355 14.355 0 32 0s32 14.355 32 32-14.355 32-32 32S0 49.645 0 32m27.287 1.035c4.727.108 10.08.224 12.183-1.676 1.632-1.477 2.53-3.427 2.53-5.492s-.898-4.015-2.53-5.49c-2.653-2.4-7.846-2.386-11.994-2.373H27v15.025zm.221-18.03c4.69-.01 10.471-.023 13.974 3.146C43.75 20.203 45 22.943 45 25.867s-1.25 5.665-3.518 7.717c-2.36 2.133-6.432 2.503-10.772 2.503-1.08 0-2.174-.023-3.264-.047l-.225-.005-.11-.002q-.056 0-.111-.003V51.5a1.5 1.5 0 0 1-3 0V16.481q.001-.06.012-.116l.007-.047.004-.046.01-.082a1 1 0 0 1 .035-.119l.017-.049.014-.045q.009-.034.022-.066.03-.069.07-.131l.016-.029.023-.042.03-.052q.044-.062.097-.12l.022-.025.026-.031a.4.4 0 0 1 .038-.044q.065-.061.136-.114l.01-.007.034-.028.04-.033q.063-.04.13-.072l.036-.018.038-.02q.024-.015.052-.028.08-.032.166-.053l.028-.008.034-.01q.025-.01.052-.016.146-.03.3-.03h.02a112 112 0 0 0 1.947.004z" clip-rule="evenodd"/></svg>