<svg xmlns="http://www.w3.org/2000/svg" width="64" height="64" fill="none" viewBox="0 0 64 64"><path fill="currentColor" fill-rule="evenodd" d="M56.15 61c1.02 0 1.85-.83 1.85-1.85V4.85C58 3.83 57.17 3 56.15 3h-41.3C13.83 3 13 3.83 13 4.85V8h2.5c2.48 0 4.5 2.02 4.5 4.5S17.98 17 15.5 17H13v4h2.5c2.48 0 4.5 2.02 4.5 4.5S17.98 30 15.5 30H13v4h2.5c2.48 0 4.5 2.02 4.5 4.5S17.98 43 15.5 43H13v4h2.5c2.48 0 4.5 2.02 4.5 4.5S17.98 56 15.5 56H13v3.15c0 1.02.83 1.85 1.85 1.85zM7.5 50c-.83 0-1.5.67-1.5 1.5S6.67 53 7.5 53h8c.83 0 1.5-.67 1.5-1.5s-.67-1.5-1.5-1.5zm0-13c-.83 0-1.5.67-1.5 1.5S6.67 40 7.5 40h8c.83 0 1.5-.67 1.5-1.5s-.67-1.5-1.5-1.5zm0-13c-.83 0-1.5.67-1.5 1.5S6.67 27 7.5 27h8c.83 0 1.5-.67 1.5-1.5s-.67-1.5-1.5-1.5zm0-13c-.83 0-1.5.67-1.5 1.5S6.67 14 7.5 14h8c.83 0 1.5-.67 1.5-1.5s-.67-1.5-1.5-1.5zm7.35-11h41.3A4.86 4.86 0 0 1 61 4.85v54.3A4.86 4.86 0 0 1 56.15 64h-41.3C12.18 64 10 61.82 10 59.15V56H7.5C5.02 56 3 53.98 3 51.5S5.02 47 7.5 47H10v-4H7.5C5.02 43 3 40.98 3 38.5S5.02 34 7.5 34H10v-4H7.5C5.02 30 3 27.98 3 25.5S5.02 21 7.5 21H10v-4H7.5C5.02 17 3 14.98 3 12.5S5.02 8 7.5 8H10V4.85A4.86 4.86 0 0 1 14.85 0m30.988 43a.16.16 0 0 0 .134-.062.11.11 0 0 0 .023-.102l-1.226-4.888C44.186 35.623 42.05 34 39.575 34h-5.157c-2.476 0-4.613 1.626-5.195 3.953l-1.22 4.882c-.003.017-.012.055.024.103a.16.16 0 0 0 .133.062zM42 26c0-2.757-2.243-5-5-5-2.756 0-5 2.243-5 5 0 2.756 2.244 5 5 5 2.757 0 5-2.244 5-5m5.68 11.217 1.226 4.89a3.1 3.1 0 0 1-.57 2.677A3.15 3.15 0 0 1 45.838 46H28.16a3.15 3.15 0 0 1-2.497-1.216 3.1 3.1 0 0 1-.569-2.676l1.218-4.882c.654-2.62 2.548-4.67 4.982-5.629A7.97 7.97 0 0 1 29 26c0-4.412 3.589-8 8-8s8 3.588 8 8a7.97 7.97 0 0 1-2.298 5.598c2.43.96 4.321 3.005 4.977 5.62" clip-rule="evenodd"/></svg>