<svg width="64" height="64" viewBox="0 0 64 64" fill="none" xmlns="http://www.w3.org/2000/svg"><path fill-rule="evenodd" clip-rule="evenodd" d="M44.331 58.533c-6.649 0-15.376-3.448-25.091-13.163C3.826 29.957 3.581 16.216 9.851 9.946c5.624-5.623 8.751-3.797 9.574-3.102 1.276 1.075 4.185 4.82 6.328 9.06 2.401 4.749.585 6.164-2.711 8.732l-.882.69c-1.087.858-1.248 1.552-1.274 1.999-.136 2.307 3.354 6.125 6.784 9.556 3.431 3.43 7.254 6.93 9.556 6.784.447-.027 1.141-.187 1.999-1.274l.692-.884c2.568-3.295 3.98-5.11 8.73-2.71 4.238 2.142 7.984 5.05 9.059 6.328.498.59 1.514 2.269.222 5.106a1.5 1.5 0 1 1-2.73-1.244c.476-1.046.413-1.693.214-1.93-.779-.923-4.158-3.58-8.118-5.582-2.546-1.287-2.547-1.285-5.01 1.875l-.704.9c-1.189 1.507-2.595 2.317-4.179 2.41-3.309.2-6.981-2.788-11.852-7.658-4.871-4.871-7.851-8.554-7.658-11.853.093-1.583.904-2.99 2.41-4.178l.898-.702c3.164-2.465 3.164-2.465 1.876-5.011-2.002-3.962-4.658-7.341-5.582-8.12-.366-.306-2.162-.43-5.521 2.929-2.548 2.548-3.514 6.719-2.649 11.444.787 4.299 3.504 11.205 11.979 19.679 13.726 13.726 24.785 14.116 30.106 10.299a1.5 1.5 0 0 1 1.749 2.438c-2.209 1.585-5.211 2.606-8.826 2.606Z" fill="currentColor"/></svg>