<svg xmlns="http://www.w3.org/2000/svg" width="64" height="65" fill="none" viewBox="0 0 64 65"><path fill="currentColor" fill-rule="evenodd" d="M55.8 42.539h5.174v-10h-5.061l-.384-.924C52.64 24.674 44.854 19.6 35.48 18.434a7.6 7.6 0 0 1-1.106 1.854c3.704.419 7.196 1.548 10.22 3.347a1.5 1.5 0 1 1-1.533 2.578c-3.356-1.995-7.381-3.072-11.64-3.115l-.26-.001c-6.517 0-12.501 2.463-16.048 6.619a1.5 1.5 0 0 1-2.115.167 1.5 1.5 0 0 1-.167-2.115c2.627-3.078 6.368-5.36 10.652-6.603a7.6 7.6 0 0 1-1.385-1.65c-9.66 2.887-16.075 9.952-16.075 17.884 0 6.679 4.483 12.789 11.992 16.345l.858.406v6.919h6v-5.04l1.72.257c3.47.514 7.326.446 10.709-.2l1.78-.34v5.293h6v-7.471l.796-.423c4.45-2.367 7.835-5.814 9.53-9.705zM33.058 15.548A4.554 4.554 0 0 0 28.509 11a4.553 4.553 0 0 0-4.548 4.548 4.554 4.554 0 0 0 4.548 4.549 4.554 4.554 0 0 0 4.548-4.549m17.365 5.393 5.868-5.866c-4.688-2.768-10.662-.179-14.046 1.795 3.016.982 5.78 2.364 8.178 4.07m7.464 8.598h3.588c1.378 0 2.5 1.12 2.5 2.5v11c0 1.379-1.122 2.5-2.5 2.5h-3.736c-1.95 3.899-5.328 7.337-9.654 9.815v6.185c0 1.379-1.122 2.5-2.5 2.5h-7a2.5 2.5 0 0 1-2.5-2.5V59.32a36.6 36.6 0 0 1-8.21.142v2.106c0 1.379-1.122 2.5-2.5 2.5h-7a2.5 2.5 0 0 1-2.5-2.5v-5.536c-8.066-4.124-12.85-11.031-12.85-18.634 0-1.484.207-2.936.563-4.35a3.96 3.96 0 0 1-1.853-.666A3.993 3.993 0 0 1 .695 26.84a1.5 1.5 0 1 1 2.476 1.693.987.987 0 1 0 1.629 1.115l.007-.008.014-.016c2.768-5.842 8.587-10.594 16.237-12.928a7.5 7.5 0 0 1-.097-1.149C20.96 11.386 24.347 8 28.509 8c4.139 0 7.507 3.349 7.545 7.479.758.099 1.51.215 2.25.361 2.614-1.887 13.45-8.916 21.274-2.072a1.5 1.5 0 0 1 .072 2.19l-6.872 6.869c2.164 1.956 3.91 4.217 5.108 6.712M48.04 31.04a2.094 2.094 0 1 1 4.189-.001 2.094 2.094 0 0 1-4.19.001" clip-rule="evenodd"/></svg>