<svg xmlns="http://www.w3.org/2000/svg" width="64" height="64" fill="none" viewBox="0 0 64 64"><path fill="currentColor" d="M62.5 36.014h-2.466V11.611A4.617 4.617 0 0 0 55.42 7H16.58a4.617 4.617 0 0 0-4.614 4.611v7.381H8.58a4.617 4.617 0 0 0-4.614 4.611v24.403H1.5A1.5 1.5 0 0 0 0 49.505v2.998A4.504 4.504 0 0 0 4.5 57h47c2.481 0 4.5-2.017 4.5-4.497v-2.998a1.5 1.5 0 0 0-1.5-1.499h-2.466v-2.998H59.5c2.481 0 4.5-2.017 4.5-4.497v-2.998a1.5 1.5 0 0 0-1.5-1.499M15.034 11.611c0-.852.693-1.545 1.546-1.545h38.84c.853 0 1.546.693 1.546 1.545v24.403h-4.932V23.603a4.617 4.617 0 0 0-4.614-4.611H15.034zm-8 11.992c0-.852.693-1.545 1.546-1.545h38.84c.853 0 1.546.693 1.546 1.545v24.369H7.034zM53 52.503c0 .827-.673 1.499-1.5 1.499h-47c-.827 0-1.5-.672-1.5-1.499v-1.499h2.181q.154.033.319.034h16.506l1.377 1.126c.269.219.604.339.95.339h7.334a1.5 1.5 0 0 0 .95-.339l1.377-1.126H50.5q.165 0 .319-.034H53zm8-11.992c0 .827-.673 1.499-1.5 1.499h-7.466v-2.998h6.147a1.5 1.5 0 0 0 .638 0H61z"/></svg>