<svg xmlns="http://www.w3.org/2000/svg" width="64" height="64" fill="none" viewBox="0 0 64 64"><path fill="currentColor" fill-rule="evenodd" d="M22.38 36.199v4.886c0 5.304 4.315 9.619 9.62 9.619s9.62-4.315 9.62-9.62V36.2zm23.12-9v6h-27v-6zM32 0c17.645 0 32 14.356 32 32a31.98 31.98 0 0 1-19.38 29.414h-.004l-.005.003-.006.003-.015.005a10 10 0 0 1-4.03.855c-5.076 0-9.274-3.773-9.966-8.66-6.299-.701-11.215-6.053-11.215-12.535v-4.886H17a1.5 1.5 0 0 1-1.5-1.5v-9a1.5 1.5 0 0 1 1.5-1.5h5.5v-11.49a1.5 1.5 0 1 1 3 0v11.49h13v-11.49a1.5 1.5 0 1 1 3 0v11.49H47a1.5 1.5 0 0 1 1.5 1.5v9a1.5 1.5 0 0 1-1.5 1.5h-2.38v4.886c0 6.407-4.806 11.703-10.999 12.503.646 3.24 3.51 5.691 6.94 5.691a7 7 0 0 0 2.847-.61l.001.002.014-.008A28.98 28.98 0 0 0 61 32C61 16.01 47.99 3 32 3S3 16.01 3 32c0 7.33 2.741 14.328 7.72 19.7a1.5 1.5 0 1 1-2.202 2.04A31.9 31.9 0 0 1 0 32C0 14.356 14.355 0 32 0m0 41.967a2.098 2.098 0 1 1 0 4.197 2.098 2.098 0 0 1-.001-4.197" clip-rule="evenodd"/></svg>