<svg xmlns="http://www.w3.org/2000/svg" width="64" height="65" fill="none" viewBox="0 0 64 65"><path fill="currentColor" fill-rule="evenodd" d="m19.472 37.135-2.855 3.394a.3.3 0 0 0-.034.066.3.3 0 0 1-.03.061V25.902a1.5 1.5 0 0 0-1.5-1.5H3.237l15.74-21.388V17.77a1.5 1.5 0 0 0 1.5 1.5h13.557a1.5 1.5 0 0 0 0-3H21.977V3.014c0-1.329-.838-2.484-2.084-2.875a2.94 2.94 0 0 0-3.334 1.146L.534 23.015c-.615.886-.704 1.947-.238 2.838.5.956 1.563 1.55 2.77 1.55h10.489v13.254c0 1.33.838 2.484 2.085 2.875.3.094.604.14.903.14.935 0 1.819-.447 2.409-1.256l2.816-3.348a1.5 1.5 0 0 0-2.297-1.93zm39.015.289c-3.08-4.115-6.571-8.779-7.784-15.843a1.502 1.502 0 0 0-2.365-.956 62 62 0 0 0-5.504 4.51 1.5 1.5 0 0 0 2.038 2.2 55 55 0 0 1 3.375-2.876c1.643 6.488 5.046 11.034 7.84 14.763 2.71 3.62 4.85 6.478 4.91 9.946.112 6.339-3.5 9.38-6.242 10.775.245-1.18.263-2.565-.296-3.998-.54-1.385-1.663-2.49-2.75-3.556-1.91-1.878-3.715-3.652-3.012-7.02a1.502 1.502 0 0 0-2.398-1.484c-3.864 3.044-5.979 6.483-6.285 10.22-.187 2.307.354 4.342 1.041 5.924-3.23-1.381-7.558-4.628-7.556-12.104v-1.69a1.5 1.5 0 0 0-3 0v1.69c-.003 11.514 8.934 15.545 13.66 16.068a1.503 1.503 0 0 0 1.276-2.498v-.001c-.061-.07-2.772-3.164-2.428-7.173.172-2.012 1.078-3.951 2.702-5.794.567 2.729 2.423 4.554 3.892 6l.003.003.005.004c.898.884 1.747 1.718 2.053 2.503.875 2.243-.814 4.537-.825 4.553a1.5 1.5 0 0 0 1.458 2.388c.12-.021 11.924-2.31 11.702-14.861-.079-4.437-2.717-7.96-5.51-11.69zM32 39.6a1.5 1.5 0 0 1-1.5-1.5v-4.599h-4.6a1.5 1.5 0 0 1 0-3h4.6v-4.599a1.5 1.5 0 0 1 3 0v4.6h4.6a1.5 1.5 0 0 1 0 3h-4.6V38.1a1.5 1.5 0 0 1-1.5 1.5" clip-rule="evenodd"/></svg>