<svg xmlns="http://www.w3.org/2000/svg" width="64" height="64" fill="none" viewBox="0 0 64 64"><path fill="currentColor" fill-rule="evenodd" d="M49.5 20h7a1.5 1.5 0 0 1 1.5 1.5v41a1.5 1.5 0 0 1-1.5 1.5h-7a1.5 1.5 0 0 1-1.5-1.5v-41a1.5 1.5 0 0 1 1.5-1.5m-28 7h7a1.5 1.5 0 0 1 1.5 1.5v34a1.5 1.5 0 0 1-1.5 1.5h-7a1.5 1.5 0 0 1-1.5-1.5v-34a1.5 1.5 0 0 1 1.5-1.5m-14 12h7a1.5 1.5 0 0 1 1.5 1.5v22a1.5 1.5 0 0 1-1.5 1.5h-7A1.5 1.5 0 0 1 6 62.5v-22A1.5 1.5 0 0 1 7.5 39m35-6h-7a1.5 1.5 0 0 0-1.5 1.5v28a1.5 1.5 0 0 0 1.5 1.5h7a1.5 1.5 0 0 0 1.5-1.5v-28a1.5 1.5 0 0 0-1.5-1.5" clip-rule="evenodd"/><path fill="currentColor" fill-rule="evenodd" d="m57.904.986-.007-.021-.007-.022a1.5 1.5 0 0 0-.304-.474l-.005-.007-.005-.007-.003-.001L57.57.45a1.5 1.5 0 0 0-.484-.332h-.002a1.5 1.5 0 0 0-.558-.116h-.012L56.507 0H46.458a1.5 1.5 0 0 0 0 3h6.344L38.625 16.772l-13.12-4.685a1.5 1.5 0 0 0-1.563.349l-17.1 17a1.5 1.5 0 0 0 2.116 2.127L25.386 15.23l13.11 4.682a1.51 1.51 0 0 0 1.55-.337L55 5.048v6.62a1.5 1.5 0 0 0 3 0V1.5a1.5 1.5 0 0 0-.096-.514M9 61h4V42H9zm5.5-22h-7A1.5 1.5 0 0 0 6 40.5v22A1.5 1.5 0 0 0 7.5 64h7a1.5 1.5 0 0 0 1.5-1.5v-22a1.5 1.5 0 0 0-1.5-1.5M27 61h-4V30h4zm-5.5-34h7a1.5 1.5 0 0 1 1.5 1.5v34a1.5 1.5 0 0 1-1.5 1.5h-7a1.5 1.5 0 0 1-1.5-1.5v-34a1.5 1.5 0 0 1 1.5-1.5M37 61h4V36h-4zm5.5-28h-7a1.5 1.5 0 0 0-1.5 1.5v28a1.5 1.5 0 0 0 1.5 1.5h7a1.5 1.5 0 0 0 1.5-1.5v-28a1.5 1.5 0 0 0-1.5-1.5M55 61h-4V23h4zm-5.5-41h7a1.5 1.5 0 0 1 1.5 1.5v41a1.5 1.5 0 0 1-1.5 1.5h-7a1.5 1.5 0 0 1-1.5-1.5v-41a1.5 1.5 0 0 1 1.5-1.5" clip-rule="evenodd"/></svg>