<svg xmlns="http://www.w3.org/2000/svg" width="64" height="64" fill="none" viewBox="0 0 64 64"><path fill="currentColor" fill-rule="evenodd" d="m63.451 31.34-30.5-25a1.5 1.5 0 0 0-1.902 0l-30.5 25a1.499 1.499 0 1 0 1.902 2.32l29.55-24.22 29.548 24.22a1.498 1.498 0 1 0 1.902-2.32M53.5 31a1.5 1.5 0 0 0-1.5 1.5v23.263H40.184a1.5 1.5 0 1 0 0 3H53.5a1.5 1.5 0 0 0 1.5-1.5V32.5a1.5 1.5 0 0 0-1.5-1.5M28 46.616a4 4 0 0 1 8 0 3.995 3.995 0 0 1-2.5 3.703v6.943a1.5 1.5 0 0 1-1.5 1.5H10.5a1.5 1.5 0 0 1-1.5-1.5V32.5a1.5 1.5 0 0 1 3 0v23.262h18.5v-5.443a4 4 0 0 1-2.5-3.703m-4.928-8.929a1.5 1.5 0 1 0 2.121 2.121 9.56 9.56 0 0 1 6.808-2.82 9.56 9.56 0 0 1 6.806 2.82 1.496 1.496 0 0 0 2.121 0 1.5 1.5 0 0 0 0-2.12 12.54 12.54 0 0 0-8.927-3.7 12.55 12.55 0 0 0-8.929 3.7m23.985-4.006a1.5 1.5 0 0 1-1.06.439c-.385 0-.769-.146-1.062-.44-7.132-7.132-18.737-7.13-25.87 0a1.5 1.5 0 0 1-2.12-2.121c8.302-8.301 21.81-8.302 30.112 0a1.5 1.5 0 0 1 0 2.122" clip-rule="evenodd"/></svg>