<svg width="64" height="64" viewBox="0 0 64 64" fill="none" xmlns="http://www.w3.org/2000/svg">
<path d="M32 0C24.31 0 16.94 2.75 11.13 7.75V1.5C11.13 0.67 10.46 0 9.63 0C8.8 0 8.13 0.67 8.13 1.5V11.67C8.13 12.5 8.8 13.17 9.63 13.17H19.8C20.63 13.17 21.3 12.5 21.3 11.67C21.3 10.84 20.63 10.17 19.8 10.17H12.92C18.21 5.55 24.96 3 32 3C47.99 3 61 16.01 61 32C61 47.99 47.99 61 32 61C16.01 61 3 47.99 3 32C3 31.17 2.33 30.5 1.5 30.5C0.67 30.5 0 31.17 0 32C0 49.64 14.36 64 32 64C49.64 64 64 49.64 64 32C64 14.36 49.64 0 32 0Z" fill="black"/>
<path d="M45.41 14.31C44.75 13.81 43.81 13.94 43.31 14.6L34.29 26.46C33.59 26.17 32.81 26.01 32.01 26.01C29.22 26.01 26.88 27.93 26.21 30.51H15.5C14.67 30.51 14 31.18 14 32.01C14 32.84 14.67 33.51 15.5 33.51H26.2C26.87 36.09 29.21 38.01 32 38.01C35.31 38.01 38 35.32 38 32.01C38 30.59 37.5 29.29 36.68 28.27L45.69 16.42C46.19 15.76 46.06 14.82 45.4 14.32L45.41 14.31ZM32 35C30.35 35 29 33.65 29 32C29 30.35 30.35 29 32 29C33.65 29 35 30.35 35 32C35 33.65 33.65 35 32 35Z" fill="black"/>
</svg>
