<svg xmlns="http://www.w3.org/2000/svg" width="65" height="65" fill="none" viewBox="0 0 65 65"><path fill="currentColor" fill-rule="evenodd" d="M38.187 44.988a1.52 1.52 0 0 1 1.445 1.04l2.504 7.513 4.003-4.004a10.14 10.14 0 0 0 2.852-8.556l-.274-1.915a1.52 1.52 0 0 1 .431-1.292C61.695 25.227 62.075 7.916 61.913 3.088c-4.834-.15-22.165.244-34.687 12.765a1.53 1.53 0 0 1-1.291.431l-1.916-.274a10.14 10.14 0 0 0-8.558 2.852l-4.002 4.003 7.512 2.504a1.523 1.523 0 0 1 .88 2.125c-.807 1.621-2.695 6.357-2.155 9.505L28 47.304c3.15.546 7.882-1.346 9.506-2.156a1.5 1.5 0 0 1 .68-.16m3.283 12.895q-.176 0-.35-.04a1.52 1.52 0 0 1-1.094-1l-2.754-8.26c-2.367.966-6.888 2.472-10.4 1.594a1.5 1.5 0 0 1-.706-.4L15.224 38.833a1.5 1.5 0 0 1-.401-.707c-.877-3.505.628-8.031 1.595-10.398l-8.26-2.753a1.52 1.52 0 0 1-.595-2.521l5.745-5.746a13.2 13.2 0 0 1 11.14-3.714l1.171.167C41.227-1.907 62.598.038 63.51.128c.72.072 1.292.643 1.363 1.363.091.913 2.034 22.282-13.033 37.89l.167 1.17a13.2 13.2 0 0 1-3.714 11.14l-5.745 5.746a1.52 1.52 0 0 1-1.077.446M3.048 61.94h.003q.222.004.442.004c11.148 0 15.367-6.454 16.527-8.785l-8.195-8.196c-2.382 1.16-8.96 5.416-8.777 16.977m.449 3.05q-.973 0-2.007-.062A1.52 1.52 0 0 1 .06 63.5c-.539-9.007 2.601-14.431 5.33-17.397 3.004-3.263 6.172-4.342 6.306-4.387a1.53 1.53 0 0 1 1.557.369l9.65 9.65c.408.409.551 1.011.37 1.557-.041.123-4.078 11.698-19.777 11.698M38.58 20.826c0-2.8 2.277-5.077 5.076-5.077 2.8 0 5.077 2.277 5.077 5.077s-2.278 5.076-5.077 5.076a5.08 5.08 0 0 1-5.076-5.076m-3.046 0c0 4.478 3.644 8.122 8.122 8.122 4.479 0 8.122-3.644 8.122-8.122 0-4.479-3.643-8.123-8.122-8.123-4.478 0-8.122 3.644-8.122 8.123" clip-rule="evenodd"/></svg>