<svg width="64" height="64" viewBox="0 0 64 64" fill="none" xmlns="http://www.w3.org/2000/svg"><path fill-rule="evenodd" clip-rule="evenodd" d="M46.97 52h5.004C51.2 30.305 33.696 12.8 12 12.026v5.004C30.936 17.8 46.2 33.064 46.97 52Zm6.53 3h-8a1.5 1.5 0 0 1-1.5-1.5C44 35.028 28.972 20 10.5 20A1.5 1.5 0 0 1 9 18.5v-8A1.5 1.5 0 0 1 10.5 9C35.037 9 55 28.963 55 53.5a1.5 1.5 0 0 1-1.5 1.5Zm-22.555-3h5.011C35.206 39.132 24.868 28.794 12 28.044v5.011c10.111.734 18.211 8.834 18.945 18.945Zm6.555 3h-8a1.5 1.5 0 0 1-1.5-1.5C28 43.851 20.15 36 10.5 36A1.5 1.5 0 0 1 9 34.5v-8a1.5 1.5 0 0 1 1.5-1.5C26.215 25 39 37.785 39 53.5a1.5 1.5 0 0 1-1.5 1.5ZM12 48.5c0-1.93 1.57-3.5 3.5-3.5s3.5 1.57 3.5 3.5-1.57 3.5-3.5 3.5-3.5-1.57-3.5-3.5Zm-3 0c0 3.584 2.916 6.5 6.5 6.5s6.5-2.916 6.5-6.5-2.916-6.5-6.5-6.5A6.508 6.508 0 0 0 9 48.5Z" fill="currentColor"/></svg>