<svg xmlns="http://www.w3.org/2000/svg" width="64" height="64" fill="none" viewBox="0 0 64 64"><path fill="currentColor" fill-rule="evenodd" d="M42.157 56c-3.155 0-4.807 1.625-6.134 2.93-1.22 1.202-2.103 2.07-4.03 2.07s-2.81-.868-4.032-2.07c-1.327-1.305-2.98-2.93-6.136-2.93-3.155 0-4.807 1.625-6.134 2.93q-.205.203-.402.392L10.97 51h42.188l-4.023 8.729c-.273-.243-.546-.51-.839-.798C46.967 57.625 45.315 56 42.157 56M15.018 37 27 14.882V37zm5.28-31.597L27 3.488V7.08zM49.966 37H32.684c3.83-5.081 7.073-14.352.423-24.563C39.367 15.524 49.314 22.656 49.966 37M30 13.209c7.427 10.457 2.637 18.932 0 22.309zm32.5 42.79c-3.157 0-4.81 1.626-6.138 2.932C55.14 60.13 54.258 61 52.329 61c-.166 0-.315-.015-.465-.027l4.998-10.845A1.5 1.5 0 0 0 55.5 48H30v-8h21.5a1.5 1.5 0 0 0 1.5-1.5C53 17.436 34.782 9.605 30 7.915V1.5A1.498 1.498 0 0 0 28.088.058l-14 4a1.498 1.498 0 0 0 .048 2.897l12.106 3.026L11.18 37.785A1.503 1.503 0 0 0 12.5 40H27v8H8.5a1.5 1.5 0 0 0-1.33 2.19l5.55 10.697a5 5 0 0 1-1.059.113c-1.926 0-2.808-.868-4.028-2.07C6.306 57.626 4.655 56 1.5 56a1.5 1.5 0 0 0 0 3c1.927 0 2.808.868 4.03 2.069 1.325 1.306 2.977 2.93 6.131 2.93 1.623 0 2.844-.432 3.831-1.026l.002-.001q.14-.075.26-.171c.804-.531 1.46-1.16 2.041-1.732 1.221-1.201 2.103-2.07 4.03-2.07s2.811.869 4.032 2.07c1.327 1.306 2.98 2.93 6.136 2.93 3.155 0 4.807-1.624 6.134-2.93 1.221-1.201 2.103-2.07 4.03-2.07 1.93 0 2.813.869 4.034 2.07 1.328 1.306 2.981 2.93 6.138 2.93s4.808-1.624 6.137-2.93c1.221-1.201 2.104-2.07 4.034-2.07a1.5 1.5 0 0 0 0-3" clip-rule="evenodd"/></svg>