<svg width="65" height="65" viewBox="0 0 65 65" fill="none" xmlns="http://www.w3.org/2000/svg"><path fill-rule="evenodd" clip-rule="evenodd" d="m33.527.411 30.968 28.933.02-.01c.609.579.65 1.534.07 2.153a1.525 1.525 0 0 1-2.152.081l-2.518-2.346v34.255A1.52 1.52 0 0 1 58.392 65H6.61a1.52 1.52 0 0 1-1.523-1.523V29.222l-2.518 2.346a1.515 1.515 0 0 1-2.153-.07 1.515 1.515 0 0 1 .071-2.154L31.445.411a1.522 1.522 0 0 1 2.082 0ZM8.123 26.37v35.584h5.076v-13.72c0-.842.68-1.523 1.523-1.523h9.138c.843 0 1.524.68 1.524 1.523v13.72h5.584V5.032L8.123 26.369Zm8.112 23.388v12.186h6.092V49.757h-6.092Zm26.4 0v12.186h6.091V49.757h-6.092Zm14.214 12.197V26.378L34.004 5.032v56.921h5.584v-13.72c0-.842.68-1.523 1.523-1.523h9.138c.843 0 1.523.68 1.523 1.523v13.72h5.077Zm-44.157-23.38h13.2a1.52 1.52 0 0 0 1.522-1.523v-8.124c0-.843-.68-1.524-1.523-1.524h-13.2a1.52 1.52 0 0 0-1.522 1.524v8.124c0 .843.68 1.523 1.523 1.523Zm1.523-8.124h10.153v5.078H14.215V30.45Zm24.876 8.124h13.2a1.52 1.52 0 0 0 1.522-1.523v-8.124c0-.843-.68-1.524-1.523-1.524h-13.2a1.52 1.52 0 0 0-1.522 1.524v8.124c0 .843.68 1.523 1.523 1.523Zm1.523-8.124h10.153v5.078H40.614V30.45Z" fill="currentColor"/></svg>