<svg xmlns="http://www.w3.org/2000/svg" width="64" height="64" fill="none" viewBox="0 0 64 64"><path fill="currentColor" fill-rule="evenodd" d="M56.998 61h1.5c.83 0 1.5.67 1.5 1.5s-.67 1.5-1.5 1.5H5.505c-.83 0-1.5-.67-1.5-1.5s.67-1.5 1.5-1.5h1.5V30h-1.5c-.52 0-.99-.27-1.27-.7a1.48 1.48 0 0 1-.09-1.44l6.62-14a1.5 1.5 0 0 1 1.36-.86h2.879V7.5c0-.83.67-1.5 1.5-1.5h5.999c.83 0 1.5.67 1.5 1.5V13h27.876c.58 0 1.11.34 1.36.86l6.619 14c.22.46.18 1.01-.09 1.44-.28.44-.76.7-1.27.7h-1.5zM33.501 27H56.14l-5.21-11H33.501zM21.003 9h-3v4h3zm9.499 7H13.084l-5.21 11h22.628zm0 14H10.004v31h4V46.5c0-.83.67-1.5 1.5-1.5h8.999c.83 0 1.5.67 1.5 1.5V61h4.499zM17.004 48v13h5.999V48zM41 48v13h6V48zm8.998-1.5V61h4V30H33.5v31H38V46.5c0-.83.67-1.5 1.5-1.5h9c.83 0 1.5.67 1.5 1.5M15.504 42h8.999c.83 0 1.5-.67 1.5-1.5v-6c0-.83-.67-1.5-1.5-1.5h-9c-.83 0-1.499.67-1.499 1.5v6c0 .83.67 1.5 1.5 1.5m1.5-6h5.999v3h-6zm31.495-3h-8.998c-.83 0-1.5.67-1.5 1.5v6c0 .83.67 1.5 1.5 1.5H48.5c.83 0 1.5-.67 1.5-1.5v-6c0-.83-.67-1.5-1.5-1.5M47 39h-5.998v-3H47z" clip-rule="evenodd"/></svg>