<svg xmlns="http://www.w3.org/2000/svg" width="64" height="64" fill="none" viewBox="0 0 64 64"><path fill="currentColor" d="M42.499 0c1.379 0 2.5 1.123 2.5 2.503v15.02a2.504 2.504 0 0 1-2.5 2.502h-2.442l-.022 6.381A5 5 0 0 1 42 26.001c2.261 0 4.154 1.52 4.77 3.585a4.9 4.9 0 0 1 2.23-.55c2.25 0 4.136 1.506 4.76 3.557a4.94 4.94 0 0 1 2.206-.554h.052c2.749.02 4.979 2.243 4.98 4.975v6.282h-.002c.005.138.119 4.554-1.707 9.259C56.506 59.72 50.328 64 42.764 64a17.12 17.12 0 0 1-14.827-8.607L18.726 40.57c-1.408-2.439-.585-5.515 1.81-6.9 2.352-1.361 5.006-.694 6.759 1.7l2.626 3.612.137-18.958H27.5a2.504 2.504 0 0 1-2.5-2.503V2.503A2.504 2.504 0 0 1 27.499 0zm-7.444 18.022a1.98 1.98 0 0 0-1.998 2.001l-.17 23.539c-.001.034-.009.066-.011.1q-.004.081-.017.162-.015.071-.036.139a1 1 0 0 1-.044.14q-.028.066-.062.13-.032.066-.07.13-.04.059-.087.114-.045.059-.094.113c-.037.039-.08.072-.12.107-.026.022-.048.048-.076.069l-.025.014q-.075.05-.157.092-.048.029-.098.053-.08.033-.166.056c-.038.012-.075.027-.113.035q-.073.013-.147.02c-.05.006-.099.015-.148.015l-.028.003h-.011c-.036-.001-.07-.009-.107-.012q-.076-.005-.153-.017-.071-.015-.14-.036a1 1 0 0 1-.142-.045q-.064-.026-.125-.06-.068-.034-.135-.074-.055-.038-.108-.082a1 1 0 0 1-.12-.098c-.036-.035-.068-.076-.1-.114-.025-.027-.052-.05-.073-.08l-5.302-7.295c-.48-.657-1.495-1.644-2.838-.871a2.02 2.02 0 0 0-.736 2.755l9.215 14.828c2.53 4.423 7.215 7.143 12.252 7.143 6.279 0 11.412-3.563 13.728-9.53l.001-.002c1.598-4.112 1.506-8.086 1.504-8.125v-6.327c0-1.103-.881-1.967-2.006-1.971A2 2 0 0 0 54 37.043v5.006c0 .829-.672 1.502-1.5 1.502s-1.5-.673-1.5-1.502V40.07q-.03-.148-.03-.304L51 34.03a1.98 1.98 0 0 0-2-1.995c-1.121 0-2 .88-2 2.002v5.507c0 .829-.672 1.502-1.5 1.502s-1.5-.673-1.5-1.502v-8.542A1.98 1.98 0 0 0 42 29a1.97 1.97 0 0 0-1.98 1.798L40 36.546c0 .05-.01.097-.015.145-.005.052-.006.105-.016.155s-.03.097-.045.146c-.014.045-.024.092-.042.135q-.041.089-.094.173c-.016.026-.027.056-.044.08-.046.068-.1.128-.154.187l-.03.035a1.5 1.5 0 0 1-.217.18l-.005.004a1.5 1.5 0 0 1-.229.125l-.026.014a1.5 1.5 0 0 1-.237.074l-.045.014q-.146.03-.302.03h-.005c-.05 0-.098-.009-.147-.014-.051-.005-.104-.006-.153-.016-.053-.011-.102-.032-.153-.048-.043-.014-.087-.023-.128-.04-.062-.026-.118-.061-.175-.095-.026-.015-.054-.026-.079-.043a2 2 0 0 1-.17-.14l-.051-.044a2 2 0 0 1-.148-.18c-.01-.014-.025-.026-.035-.042a1.4 1.4 0 0 1-.104-.191c-.01-.023-.024-.043-.034-.065-.026-.06-.042-.126-.06-.19l-.028-.092c-.01-.055-.012-.114-.017-.171-.004-.043-.013-.085-.013-.129v-5.538c0-.068.017-.131.02-.198l.038-10.79a1.98 1.98 0 0 0-2.002-1.995M20.5 0C21.879 0 23 1.123 23 2.503v15.019a2.504 2.504 0 0 1-2.5 2.502h-15A2.504 2.504 0 0 1 3 17.521V2.503A2.504 2.504 0 0 1 5.5 0zM6 17.022h14V3.003H6zm22 0h3.081c.914-1.207 2.348-2.003 3.975-2.003s3.062.794 3.976 2.002H42V3.005H28zm9.085-11.119a2 2 0 0 1 2.828 0c.78.782.781 2.05 0 2.832l-5 5.006a1.994 1.994 0 0 1-2.828 0l-2-2.002a2.005 2.005 0 0 1 0-2.832 2 2 0 0 1 2.828 0l.586.586z"/></svg>