<svg width="64" height="65" viewBox="0 0 64 65" fill="none" xmlns="http://www.w3.org/2000/svg"><path fill-rule="evenodd" clip-rule="evenodd" d="M31.998 61.169C22.625 61.169 15 53.848 15 44.85v-9.768c0-.829.726-1.503 1.617-1.503h19.777c.963 0 1.892.392 2.548 1.074.401.416.657.909.756 1.425.012.07.017.144.023.216.012.119.029.238.024.358a2.898 2.898 0 0 1-.882 1.951c-.6.572-1.394.886-2.235.886H22.749a1.5 1.5 0 0 0 0 3h2.645c6.456 0 11.708 5.035 11.708 11.224a1.5 1.5 0 1 0 3 0c0-4.563-2.242-8.619-5.707-11.224h2.233a6.225 6.225 0 0 0 4.316-1.725 5.941 5.941 0 0 0 1.593-2.726h3.339a6.075 6.075 0 0 0 3.12-.864v7.676c0 8.998-7.625 16.319-16.998 16.319ZM18.13 3c.842 0 1.633.316 2.222.884.579.563.897 1.301.897 2.076v24.619h-4.632c-.571 0-1.112.114-1.617.3V5.96C15 4.328 16.404 3 18.13 3Zm9.249 13.85c.841 0 1.635.314 2.223.874.578.563.896 1.299.896 2.075v10.78h-6.249v-10.78c0-1.626 1.404-2.949 3.13-2.949Zm9.249 2.309c.842 0 1.633.317 2.223.884.578.563.896 1.301.896 2.076v9.294a6.21 6.21 0 0 0-3.119-.834h-3.13v-8.46c0-1.632 1.404-2.96 3.13-2.96Zm6.123 5.628a3.042 3.042 0 0 1 3.039-3.039h.171A3.042 3.042 0 0 1 49 24.787v7.127a3.127 3.127 0 0 1-3.124 3.124h-3.125V24.787Zm9.249 0a6.046 6.046 0 0 0-6.039-6.039h-.171a6 6 0 0 0-3.495 1.123 6.028 6.028 0 0 0-1.358-1.982 6.173 6.173 0 0 0-4.309-1.73c-1.378 0-2.648.45-3.673 1.199a6.073 6.073 0 0 0-1.272-1.795 6.217 6.217 0 0 0-4.304-1.713 6.218 6.218 0 0 0-3.13.843V5.96c0-1.592-.641-3.092-1.81-4.23A6.173 6.173 0 0 0 18.13 0C14.75 0 12 2.674 12 5.96v38.89c0 10.652 8.971 19.319 19.998 19.319 11.027 0 19.998-8.667 19.998-19.319V33.069c0-.129-.021-.252-.052-.372.033-.257.056-.517.056-.783v-7.127Z" fill="currentColor"/></svg>