<svg xmlns="http://www.w3.org/2000/svg" width="64" height="64" fill="none" viewBox="0 0 64 64"><path fill="currentColor" fill-rule="evenodd" d="M41.593 49.653c-1.352-.246-2.75-.771-4.166-1.565l-13.22-7.275-.099-.05a1.28 1.28 0 0 1 .535-2.442c.179 0 .358.038.525.115l4.394 2.036a1.5 1.5 0 0 0 1.975-2.027l-7.644-15.438c-.331-.668-.133-1.48.442-1.809a1.283 1.283 0 0 1 1.784.542l5.525 11.158.003.005a1.5 1.5 0 1 0 2.688-1.331l-.002-.004a1.28 1.28 0 0 1 .58-1.71 1.25 1.25 0 0 1 .976-.063c.325.11.587.337.738.642a1.5 1.5 0 1 0 2.689-1.331l-.001-.001a1.28 1.28 0 0 1 .578-1.712c.392-.193.748-.142.976-.064.326.11.587.338.738.642a1.5 1.5 0 1 0 2.689-1.33l-.001-.003a1.28 1.28 0 0 1 .579-1.711c.39-.192.747-.141.976-.064.326.11.587.338.74.65 1.799 3.583 4.733 9.466 4.953 9.988.484 1.236 2.672 7.623-1.818 11.97-2.141 2.075-4.801 2.787-8.132 2.182M37.5 61h-23c-1.93 0-3.5-1.57-3.5-3.5v-51C11 4.57 12.57 3 14.5 3h1.35v.5c0 1.65 1.34 3 3 3h14c1.65 0 3-1.35 3-3V3h1.65C39.43 3 41 4.57 41 6.5v17.809a4.23 4.23 0 0 0-4.471 2.549 4.24 4.24 0 0 0-2.947.313 4.3 4.3 0 0 0-1.06.742l-3.714-7.504a4.26 4.26 0 0 0-2.48-2.159 4.25 4.25 0 0 0-3.484.344c-1.959 1.122-2.679 3.646-1.639 5.746l5.753 11.619-.531-.246a4.24 4.24 0 0 0-3.684.054 4.26 4.26 0 0 0-1.993 2.054 4.29 4.29 0 0 0 2.054 5.645l13.165 7.244c1.677.94 3.369 1.572 5.03 1.88v4.91c0 1.93-1.57 3.5-3.5 3.5m16.839-26.585c-.22-.572-3.616-7.357-5.062-10.24a4.26 4.26 0 0 0-2.466-2.154h-.001a4.23 4.23 0 0 0-2.81.045V6.5A6.505 6.505 0 0 0 37.5 0h-23A6.5 6.5 0 0 0 8 6.5v51c0 3.58 2.91 6.5 6.5 6.5h23c3.58 0 6.5-2.92 6.5-6.5v-4.65c3.02-.05 5.642-1.122 7.812-3.223 5.855-5.671 3.13-13.673 2.527-15.212" clip-rule="evenodd"/></svg>