<svg width="64" height="64" viewBox="0 0 64 64" fill="none" xmlns="http://www.w3.org/2000/svg">
<path fill-rule="evenodd" clip-rule="evenodd" d="M43.5 61C45.43 61 47 59.43 47 57.5V6.5C47 4.57 45.43 3 43.5 3H41.851V3.5C41.851 5.157 40.507 6.5 38.851 6.5H24.851C23.193 6.5 21.851 5.157 21.851 3.5V3H20.5C18.57 3 17 4.57 17 6.5V57.5C17 59.43 18.57 61 20.5 61H43.5ZM20.5 0H43.5C47.084 0 50 2.916 50 6.5V57.5C50 61.084 47.084 64 43.5 64H20.5C16.916 64 14 61.084 14 57.5V6.5C14 2.916 16.916 0 20.5 0ZM25.5 55H38.5C39.328 55 40 55.672 40 56.5C40 57.328 39.328 58 38.5 58H25.5C24.672 58 24 57.328 24 56.5C24 55.672 24.672 55 25.5 55Z" fill="black"/>
</svg>
