<svg xmlns="http://www.w3.org/2000/svg" width="64" height="64" fill="none" viewBox="0 0 64 64"><path fill="currentColor" fill-rule="evenodd" d="M44.402 8.522a1.5 1.5 0 1 0 2.196-2.044C42.704 2.301 37.521 0 32 0S21.296 2.301 17.402 6.478a1.5 1.5 0 1 0 2.196 2.044C22.917 4.961 27.321 3 32 3s9.083 1.961 12.402 5.522M51.5 61a2.5 2.5 0 0 0 2.5-2.5v-33a2.5 2.5 0 0 0-5 0v33a2.5 2.5 0 0 0 2.5 2.5M46 55h-2V31h2zm-7.5 6a2.5 2.5 0 0 0 2.5-2.5v-33a2.5 2.5 0 0 0-5 0v33a2.5 2.5 0 0 0 2.5 2.5M33 31v24h-2V31zm-7.5 30a2.5 2.5 0 0 0 2.5-2.5v-33a2.5 2.5 0 0 0-5 0v33a2.5 2.5 0 0 0 2.5 2.5M20 55h-2V31h2zm-7.5 6a2.5 2.5 0 0 0 2.5-2.5v-33a2.5 2.5 0 0 0-5 0v33a2.5 2.5 0 0 0 2.5 2.5M57 55h2.5c.83 0 1.5.67 1.5 1.5s-.67 1.5-1.5 1.5H57v.5c0 3.03-2.47 5.5-5.5 5.5a5.51 5.51 0 0 1-5.5-5.5V58h-2v.5c0 3.03-2.47 5.5-5.5 5.5a5.51 5.51 0 0 1-5.5-5.5V58h-2v.5c0 3.03-2.47 5.5-5.5 5.5a5.51 5.51 0 0 1-5.5-5.5V58h-2v.5c0 3.03-2.47 5.5-5.5 5.5A5.51 5.51 0 0 1 7 58.5V58H4.5c-.83 0-1.5-.67-1.5-1.5S3.67 55 4.5 55H7V31H4.5c-.83 0-1.5-.67-1.5-1.5S3.67 28 4.5 28H7v-2.5c0-3.03 2.47-5.5 5.5-5.5s5.5 2.47 5.5 5.5V28h2v-2.5c0-3.03 2.47-5.5 5.5-5.5s5.5 2.47 5.5 5.5V28h2v-2.5c0-3.03 2.47-5.5 5.5-5.5s5.5 2.47 5.5 5.5V28h2v-2.5c0-3.03 2.47-5.5 5.5-5.5s5.5 2.47 5.5 5.5V28h2.5c.83 0 1.5.67 1.5 1.5s-.67 1.5-1.5 1.5H57zM37 17c-.375 0-.751-.14-1.042-.421-2.182-2.107-5.734-2.107-7.916 0a1.5 1.5 0 1 1-2.084-2.158c3.332-3.217 8.752-3.217 12.084 0A1.5 1.5 0 0 1 37 17m3.431-4.448a1.497 1.497 0 0 0 2.121.017 1.5 1.5 0 0 0 .017-2.121C39.747 7.58 35.994 6 32 6s-7.747 1.58-10.569 4.448a1.5 1.5 0 1 0 2.138 2.104C25.822 10.262 28.816 9 32 9s6.178 1.262 8.431 3.552" clip-rule="evenodd"/></svg>