<svg xmlns="http://www.w3.org/2000/svg" width="64" height="64" fill="none" viewBox="0 0 64 64"><path fill="currentColor" d="M32 3C16.01 3 3 16.01 3 32s13.01 29 29 29 29-13.01 29-29S47.99 3 32 3m0 55C17.66 58 6 46.34 6 32S17.66 6 32 6s26 11.66 26 26-11.66 26-26 26"/><path fill="currentColor" d="M44.11 38.13c-.76-.34-1.64 0-1.98.76-.03.06-2.82 6.11-10.08 6.11S22 39.15 21.86 38.87a1.499 1.499 0 0 0-2.72 1.26c.15.32 3.74 7.87 12.91 7.87s12.68-7.56 12.82-7.89c.34-.76 0-1.64-.76-1.98M25.44 27.56c.29.29.68.44 1.06.44s.77-.15 1.06-.44c.59-.59.59-1.54 0-2.12l-5-5a1.49 1.49 0 0 0-2.12 0l-5 5a1.49 1.49 0 0 0 0 2.12c.59.58 1.54.59 2.12 0l3.94-3.94zm19.12-7.12a1.49 1.49 0 0 0-2.12 0l-5 5a1.49 1.49 0 0 0 0 2.12c.59.58 1.54.59 2.12 0l3.94-3.94 3.94 3.94c.29.29.68.44 1.06.44s.77-.15 1.06-.44c.59-.59.59-1.54 0-2.12z"/></svg>