<svg xmlns="http://www.w3.org/2000/svg" width="64" height="64" fill="none" viewBox="0 0 64 64"><path fill="currentColor" fill-rule="evenodd" d="M36.745 21H61V11H3v10h24.255c.641-2.021 2.515-3.5 4.745-3.5s4.104 1.479 4.745 3.5m5.968 11h5.965l3.502-8h-7.753zm-23.141-8H11.82l3.502 8h5.965zM30.5 32v-4.756A4.99 4.99 0 0 1 27.255 24h-4.614l1.714 8zm-.5-9.5c0 1.104.897 2 2 2s2-.896 2-2-.897-2-2-2-2 .896-2 2M41.358 24h-4.613a4.99 4.99 0 0 1-3.245 3.244V32h6.145zM1.5 8h61A1.5 1.5 0 0 1 64 9.5v13a1.5 1.5 0 0 1-1.5 1.5h-7.046l-4.422 10.102a1.5 1.5 0 0 1-1.374.898H14.342a1.5 1.5 0 0 1-1.374-.898L8.546 24H1.5A1.5 1.5 0 0 1 0 22.5v-13A1.5 1.5 0 0 1 1.5 8m18.665 37.336a1.5 1.5 0 1 1 2.121-2.121c5.356 5.355 14.072 5.355 19.428 0a1.5 1.5 0 1 1 2.121 2.12A16.7 16.7 0 0 1 32 50.232a16.7 16.7 0 0 1-11.835-4.895m18.918-4.755a1.5 1.5 0 0 0-2.123-2.119 6.96 6.96 0 0 1-4.96 2.06 6.96 6.96 0 0 1-4.96-2.06 1.5 1.5 0 0 0-2.123 2.119A9.94 9.94 0 0 0 32 43.521a9.94 9.94 0 0 0 7.083-2.94M32.001 54a20.27 20.27 0 0 0 14.438-5.991 1.5 1.5 0 1 1 2.123 2.119C44.138 54.56 38.256 57 32 57s-12.138-2.44-16.562-6.872a1.5 1.5 0 1 1 2.122-2.12A20.27 20.27 0 0 0 32.002 54" clip-rule="evenodd"/></svg>