<svg xmlns="http://www.w3.org/2000/svg" width="64" height="64" fill="none" viewBox="0 0 64 64"><path fill="currentColor" fill-rule="evenodd" d="M31.993 49.993c-9.925 0-18-8.075-18-18s8.075-18 18-18 18 8.075 18 18-8.075 18-18 18m30.493-19.5h-9.569a20.9 20.9 0 0 0-5.07-12.23l6.768-6.77a1.5 1.5 0 1 0-2.12-2.122l-6.77 6.77a20.9 20.9 0 0 0-12.232-5.072V1.5a1.5 1.5 0 0 0-3 0v9.57a20.9 20.9 0 0 0-12.23 5.071l-6.77-6.77a1.5 1.5 0 1 0-2.122 2.121l6.77 6.771a20.9 20.9 0 0 0-5.072 12.23H1.5a1.5 1.5 0 0 0 0 3h9.57a20.9 20.9 0 0 0 5.071 12.231l-6.77 6.771a1.5 1.5 0 1 0 2.121 2.121l6.771-6.77a20.9 20.9 0 0 0 12.23 5.071v9.57a1.5 1.5 0 0 0 3 0v-9.57a20.9 20.9 0 0 0 12.23-5.07l6.771 6.77a1.5 1.5 0 0 0 2.121-.001 1.5 1.5 0 0 0 0-2.12l-6.77-6.772a20.9 20.9 0 0 0 5.072-12.23h9.57a1.5 1.5 0 0 0 0-3" clip-rule="evenodd"/></svg>