<svg xmlns="http://www.w3.org/2000/svg" width="64" height="64" fill="none" viewBox="0 0 64 64"><path fill="currentColor" fill-rule="evenodd" d="M56.32 24H42.244l4.336-13h13.87zm-5.085 16H36.908l4.336-13h14.122zM28.001 53h3V43h-3zM7.68 27h13.401l-4.335 13H3.55zm5.084-16h13.654l-4.335 13H8.634zm12.48 13 4.336-13h13.84l-4.336 13zm-5.337 16 4.336-13h13.838l-4.336 13zM63.712 8.614A1.5 1.5 0 0 0 62.501 8H11.667a1.5 1.5 0 0 0-1.43 1.046l-10.167 32A1.5 1.5 0 0 0 1.5 43h16.29c.01 0 .024.006.036.006s.023-.006.037-.006H25v10h-5.485a1.5 1.5 0 0 0 0 3H39.49a1.5 1.5 0 0 0 0-3H34V43h.79c.01 0 .023.006.035.006.014 0 .024-.006.037-.006h17.471a1.5 1.5 0 0 0 1.43-1.046l4.95-15.577c.178-.247.287-.548.287-.877l-.002-.022L63.93 9.954a1.5 1.5 0 0 0-.218-1.34" clip-rule="evenodd"/></svg>