<svg xmlns="http://www.w3.org/2000/svg" width="64" height="64" fill="none" viewBox="0 0 64 64"><path fill="currentColor" d="M32.093 50c-.245 0-.49-.06-.712-.18L.788 33.32a1.5 1.5 0 0 1 .003-2.642l15.39-8.25 15.196-8.246a1.5 1.5 0 0 1 1.432 0l30.407 16.5a1.502 1.502 0 0 1 0 2.637l-30.407 16.5c-.224.12-.47.181-.716.181M4.667 32.005l27.424 14.79 27.264-14.794-27.262-14.793-14.487 7.86z" opacity=".2"/><path fill="currentColor" d="M32.046 50c-.245 0-.49-.06-.712-.18l-15.296-8.25a1.502 1.502 0 0 1 .003-2.642l15.289-8.245a1.5 1.5 0 0 1 1.432 0l15.204 8.25a1.502 1.502 0 0 1 0 2.636l-15.204 8.25c-.224.12-.47.181-.716.181m-12.129-9.745 12.127 6.54 12.061-6.544-12.059-6.543z"/></svg>