<svg xmlns="http://www.w3.org/2000/svg" width="65" height="65" fill="none" viewBox="0 0 65 65"><path fill="currentColor" fill-rule="evenodd" d="m50.385 55.77 8.165 5.314 2.542-2.543-5.315-8.164-4.467-1.2-12.718-12.72-2.126 2.127 12.718 12.718zm-29.33 3.091a10.51 10.51 0 0 0 2.598-10.61l-.276-.881 23.978-23.99.881.279a10.51 10.51 0 0 0 10.62-2.59 10.52 10.52 0 0 0 3.079-7.98l-5.849 5.848-8.054-1.978-1.978-8.056 5.838-5.838a10.52 10.52 0 0 0-7.95 3.082c-2.78 2.778-3.772 6.852-2.589 10.63l.275.881-23.995 23.954-.877-.272c-3.775-1.174-7.841-.178-10.614 2.596a10.52 10.52 0 0 0-3.08 7.983l5.847-5.849 8.055 1.977 1.978 8.056-5.838 5.838a10.52 10.52 0 0 0 7.95-3.08M5.275 15.978 18.28 28.983c.932.216 2.835.86 5.014 2.675l8.378-8.364c-1.82-2.181-2.466-4.088-2.681-5.021L15.985 5.266C13.028 2.31 8.22 2.305 5.256 5.25c-2.944 2.965-2.938 7.772.019 10.73m47.613 30.468 4.805 1.291 7.299 11.213-6.035 6.035-11.211-7.3-1.292-4.804L34.313 40.74l-7.502 7.505a13.54 13.54 0 0 1-3.603 12.77 13.54 13.54 0 0 1-13.69 3.35l-2.39-.756 8.446-8.445-1.128-4.597-4.596-1.129-8.458 8.458-.755-2.393a13.57 13.57 0 0 1 3.35-13.72 13.56 13.56 0 0 1 12.77-3.599l4.369-4.36c-2.086-1.66-3.692-1.907-3.771-1.918l-.512-.068-.385-.367L3.121 18.132c-4.138-4.139-4.15-10.865-.035-15.02l.017-.016.018-.019c4.154-4.115 10.88-4.103 15.018.036L31.857 16.83l.057.534c.009.064.257 1.674 1.926 3.765l4.355-4.349a13.56 13.56 0 0 1 3.593-12.788 13.53 13.53 0 0 1 13.69-3.35l2.39.756-8.446 8.445 1.129 4.598 4.595 1.129 8.459-8.459.754 2.393a13.57 13.57 0 0 1-3.35 13.72 13.53 13.53 0 0 1-12.781 3.592l-7.484 7.488zM25.016 22.875l-13.299-13.3 2.154-2.153 13.299 13.3zM7.43 13.863l13.3 13.3 2.153-2.153-13.3-13.3zm25.068 20.79-2.15-2.149 2.15-2.15 2.15 2.15zm3.065-7.364 2.149 2.15 2.15-2.15-2.15-2.15zm-8.266 12.565-2.15-2.15 2.15-2.15 2.15 2.15z" clip-rule="evenodd"/></svg>