<svg xmlns="http://www.w3.org/2000/svg" width="64" height="64" fill="none" viewBox="0 0 64 64"><path fill="currentColor" fill-rule="evenodd" d="m7.79 46.444 1.83 1.174a27.8 27.8 0 0 0 15.085 4.43c8.01.2 15.55-3.153 20.789-9.142a29.05 29.05 0 0 0 7.212-18.916v-.269c0-.506.25-.955.636-1.226a20 20 0 0 0 4.074-4.47l.96-1.437-.494.22a1.501 1.501 0 0 1-1.995-1.944q.16-.388.292-.797l.402-1.26-1.131.672a18.7 18.7 0 0 1-4.901 2.044 1.51 1.51 0 0 1-1.361-.32 10.18 10.18 0 0 0-10.88-1.59 10.21 10.21 0 0 0-5.964 9.251 1.503 1.503 0 0 1-1.717 1.48 27 27 0 0 1-17.07-9.688l-.455-.56-.368.63a10.21 10.21 0 0 0-.812 8.473 1.5 1.5 0 0 1-.612 1.758l-.032 1.855a10.23 10.23 0 0 0 2.19 6.301c.112.141.198.301.253.472l.972 3.036a10.24 10.24 0 0 0 5.07 5.967 1.499 1.499 0 0 1-.09 2.715 18.7 18.7 0 0 1-7.418 1.526 19 19 0 0 1-2.307-.13zm17.559 8.611q-.339 0-.678-.007h-.002a30.8 30.8 0 0 1-16.671-4.906l-7.31-4.689a1.5 1.5 0 0 1-.6-1.769c.235-.658.906-1.076 1.588-.983l8.624 1.02c.63.073 1.287.11 1.949.108q1.769 0 3.474-.385a13.25 13.25 0 0 1-3.887-5.908l-.893-2.785a13.26 13.26 0 0 1-2.665-7.937v-.16l.062-3.359c.006-.307.104-.598.276-.84a13.2 13.2 0 0 1 1.525-9.237l1.459-2.503a1.5 1.5 0 0 1 1.178-.74c.49-.038.969.164 1.28.547l1.826 2.24a24 24 0 0 0 13.584 8.327c.613-4.435 3.463-8.328 7.6-10.208a13.21 13.21 0 0 1 13.447 1.534 15.8 15.8 0 0 0 3.402-1.514l4.529-2.69a1.499 1.499 0 0 1 2.195 1.745l-.872 2.731 2.123-.942a1.5 1.5 0 0 1 1.855 2.204L59.91 19.69a23 23 0 0 1-4.212 4.745 32.04 32.04 0 0 1-7.95 20.447 29.7 29.7 0 0 1-22.4 10.173" clip-rule="evenodd"/></svg>