<svg xmlns="http://www.w3.org/2000/svg" width="64" height="64" fill="none" viewBox="0 0 64 64"><path fill="currentColor" fill-rule="evenodd" d="M15.41 52.84H50.5c5.79 0 10.5-4.715 10.5-10.51 0-5.79-4.71-10.5-10.5-10.5-.438 0-.879.027-1.31.079a1.5 1.5 0 0 1-1.639-1.84 15.2 15.2 0 0 0 .41-3.54c0-8.562-6.968-15.53-15.53-15.53-8.559 0-15.522 6.968-15.522 15.53a1.5 1.5 0 0 1-1.5 1.5C8.566 28.03 3 33.594 3 40.43c0 6.844 5.566 12.41 12.41 12.41m35.55-26.31q0 1.169-.142 2.304C58.116 29.003 64 34.992 64 42.33c0 7.449-6.056 13.51-13.5 13.51H15.41C6.911 55.84 0 48.927 0 40.43c0-8.004 6.143-14.602 13.964-15.332C14.697 15.547 22.7 8 32.43 8c10.217 0 18.53 8.313 18.53 18.53m-18.39-2.056c.185.076.352.187.49.326l7.5 7.5a1.5 1.5 0 1 1-2.12 2.12l-4.94-4.938V44.86a1.5 1.5 0 1 1-3 0V29.48l-4.94 4.94a1.5 1.5 0 1 1-2.12-2.121l7.5-7.5c.139-.14.306-.25.49-.326l.024-.007A1.5 1.5 0 0 1 32 24.36a1.5 1.5 0 0 1 .559.11z" clip-rule="evenodd"/></svg>