<svg xmlns="http://www.w3.org/2000/svg" width="65" height="64" fill="none" viewBox="0 0 65 64"><path fill="currentColor" d="M37.56 24.517a7.48 7.48 0 0 0 1.94-5.02C39.5 15.359 36.14 12 32 12s-7.5 3.36-7.5 7.499c0 1.93.74 3.679 1.94 5.019-3.74 1.28-6.44 4.819-6.44 8.978 0 .83.67 1.5 1.5 1.5s1.5-.67 1.5-1.5c0-3.58 2.92-6.499 6.5-6.499h5c3.58 0 6.5 2.92 6.5 6.499 0 .83.67 1.5 1.5 1.5s1.5-.67 1.5-1.5c0-4.17-2.7-7.709-6.44-8.978M32 14.999c2.48 0 4.5 2.02 4.5 4.499 0 2.48-2.02 4.499-4.5 4.499s-4.5-2.02-4.5-4.5S29.52 15 32 15"/><path fill="currentColor" d="M63.97 51.182v-.01c-.02-.11-.06-.21-.11-.31 0-.01 0-.02-.01-.04l-5.84-11.678V9.499A3.504 3.504 0 0 0 54.51 6H9.5C7.57 6 6 7.57 6 9.5v29.644L.16 50.822s0 .02-.01.04c-.05.1-.08.2-.11.31v.02c-.02.1-.03.2-.03.31V55.5c0 1.93 1.57 3.5 3.5 3.5h57c1.93 0 3.5-1.57 3.5-3.5v-3.999c0-.11-.01-.21-.03-.31zM9 9.499c0-.28.22-.5.5-.5h45c.28 0 .5.22.5.5v28.495H9zm-.57 31.494h47.15l4.5 8.999H41.59l-1.66-4.97c-.2-.61-.78-1.03-1.42-1.03h-13c-.65 0-1.22.41-1.42 1.03l-1.66 4.97H3.93zm29.99 8.999H25.58l1-3h10.84zM61 55.49c0 .28-.22.5-.5.5h-57c-.28 0-.5-.22-.5-.5v-2.5h58z"/></svg>