<svg width="64" height="64" viewBox="0 0 64 64" fill="none" xmlns="http://www.w3.org/2000/svg"><path fill-rule="evenodd" clip-rule="evenodd" d="M3 7.5C3 5.019 5.019 3 7.5 3h49C58.981 3 61 5.019 61 7.5v49c0 2.481-2.019 4.5-4.5 4.5h-49A4.505 4.505 0 0 1 3 56.5v-49ZM7.5 64h49c4.136 0 7.5-3.364 7.5-7.5v-49C64 3.364 60.636 0 56.5 0h-49C3.364 0 0 3.364 0 7.5v49C0 60.636 3.364 64 7.5 64ZM31 31a5 5 0 0 0 5-5 5 5 0 0 0-5-5 5 5 0 0 0-5 5 5 5 0 0 0 5 5Zm19 9a3 3 0 1 1-6 0 3 3 0 0 1 6 0Zm-3.006 8c-3.264 0-5.255-2.288-6.156-3.666-.37-.605-.704-1.17-1.015-1.696l-.006-.01c-2.346-3.971-3.763-6.368-9.7-7.02-3.26-.357-4.527-1.334-5.991-2.463l-.003-.002C22.215 31.67 20.052 30 13.983 30c-2.307 0-3.905-.64-4.62-1.849-.383-.651-.397-1.419-.341-1.948C9.31 23.493 11.07 22 13.982 22c.18 0 .374.005.58.01l.138.003c2.205.059 5.912.153 9.487-3.008 1.947-1.91 4.426-3.005 6.8-3.005 4.014 0 7.669 2.618 9.07 6.438.112.367 2.819 8.987 9.73 10.99 1.567.564 5.21 2.333 5.21 6.572 0 4.337-3.573 8-7.803 8h-.2Zm0 3h.2c5.957 0 10.803-4.935 10.803-11 0-4.261-2.69-7.773-7.284-9.424-5.41-1.57-7.745-8.88-7.811-9.09l-.001-.002C41.04 16.409 36.255 13 30.988 13c-3.2 0-6.361 1.372-8.844 3.81-2.633 2.326-5.37 2.256-7.367 2.204l-.06-.002a30.42 30.42 0 0 0-.734-.012c-4.45 0-7.494 2.639-7.944 6.886-.15 1.405.107 2.716.742 3.791C7.677 31.193 9.653 33 13.983 33c5.045 0 6.557 1.167 8.306 2.518h.001c1.593 1.23 3.399 2.623 7.5 3.073 4.444.487 5.14 1.664 7.445 5.564l.119.2c.288.488.597 1.009.935 1.562l.024.036C40.4 49.16 43.566 51 46.993 51Z" fill="currentColor"/></svg>