<svg width="64" height="64" viewBox="0 0 64 64" fill="none" xmlns="http://www.w3.org/2000/svg">
<path fill-rule="evenodd" clip-rule="evenodd" d="M6.5 0H57.5C58.33 0 59 0.67 59 1.5V62.5C59 63.33 58.33 64 57.5 64H6.5C5.67 64 5 63.33 5 62.5V1.5C5 0.67 5.67 0 6.5 0ZM23 11H56V3H23V11ZM20 11V3H8V11H20ZM8 14V61H56V14H8ZM14.5 37.5C14.5 27.85 22.35 20 32 20C41.65 20 49.5 27.85 49.5 37.5C49.5 47.15 41.65 55 32 55C22.35 55 14.5 47.15 14.5 37.5ZM46.43 36.07C45.7002 28.7416 39.5128 23.0025 32.005 23C24.6872 23.0025 18.6298 28.4716 17.66 35.53C18.08 35.75 18.48 35.98 18.87 36.21C20.54 37.19 21.99 38.04 25.06 38.04C28.113 38.04 29.554 37.1994 31.2222 36.2262L31.25 36.21C33.04 35.16 35.25 33.97 38.96 33.97C42.67 33.97 44.69 35.06 46.43 36.07ZM17.57 38.92C18.29 46.25 24.49 52 32 52L31.99 51.99C39.32 51.99 45.37 46.53 46.34 39.46C45.92 39.24 45.52 39.01 45.14 38.79C43.47 37.81 42.02 36.96 38.95 36.96C35.897 36.96 34.456 37.8006 32.7878 38.7738L32.76 38.79C30.97 39.84 28.77 41.03 25.05 41.03C21.33 41.03 19.31 39.94 17.57 38.92ZM50 9C51.1046 9 52 8.10457 52 7C52 5.89543 51.1046 5 50 5C48.8954 5 48 5.89543 48 7C48 8.10457 48.8954 9 50 9ZM46 7C46 8.10457 45.1046 9 44 9C42.8954 9 42 8.10457 42 7C42 5.89543 42.8954 5 44 5C45.1046 5 46 5.89543 46 7Z" fill="black"/>
</svg>
