<svg xmlns="http://www.w3.org/2000/svg" width="64" height="64" fill="none" viewBox="0 0 64 64"><path fill="currentColor" fill-rule="evenodd" d="M6.5 0h51c.83 0 1.5.67 1.5 1.5v61c0 .83-.67 1.5-1.5 1.5h-51c-.83 0-1.5-.67-1.5-1.5v-61C5 .67 5.67 0 6.5 0M23 11h33V3H23zm-3 0V3H8v8zM8 14v47h48V14zm6.5 23.5C14.5 27.85 22.35 20 32 20s17.5 7.85 17.5 17.5S41.65 55 32 55s-17.5-7.85-17.5-17.5m31.93-1.43C45.7 28.742 39.513 23.003 32.005 23c-7.318.003-13.375 5.472-14.345 12.53.42.22.82.45 1.21.68 1.67.98 3.12 1.83 6.19 1.83 3.053 0 4.494-.84 6.162-1.814l.028-.016c1.79-1.05 4-2.24 7.71-2.24s5.73 1.09 7.47 2.1m-28.86 2.85C18.29 46.25 24.49 52 32 52l-.01-.01c7.33 0 13.38-5.46 14.35-12.53-.42-.22-.82-.45-1.2-.67-1.67-.98-3.12-1.83-6.19-1.83-3.053 0-4.494.84-6.162 1.814l-.028.016c-1.79 1.05-3.99 2.24-7.71 2.24s-5.74-1.09-7.48-2.11M50 9a2 2 0 1 0 0-4 2 2 0 0 0 0 4m-4-2a2 2 0 1 1-4 0 2 2 0 0 1 4 0" clip-rule="evenodd"/></svg>