<svg width="64" height="64" viewBox="0 0 64 64" fill="none" xmlns="http://www.w3.org/2000/svg">
<path d="M33.5 26H6.5C5.67 26 5 25.33 5 24.5C5 23.67 5.67 23 6.5 23H33.5C37.08 23 40 20.08 40 16.5C40 12.92 37.08 10 33.5 10C32.67 10 32 9.33 32 8.5C32 7.67 32.67 7 33.5 7C38.74 7 43 11.26 43 16.5C43 21.74 38.74 26 33.5 26Z" fill="black"/>
<path d="M25.5 58C24.67 58 24 57.33 24 56.5C24 55.67 24.67 55 25.5 55C29.08 55 32 52.08 32 48.5C32 44.92 29.08 42 25.5 42H6.5C5.67 42 5 41.33 5 40.5C5 39.67 5.67 39 6.5 39H25.5C30.74 39 35 43.26 35 48.5C35 53.74 30.74 58 25.5 58Z" fill="black"/>
<path d="M51.5 34H6.5C5.67 34 5 33.33 5 32.5C5 31.67 5.67 31 6.5 31H51.5C53.98 31 56 28.98 56 26.5C56 24.02 53.98 22 51.5 22C50.67 22 50 21.33 50 20.5C50 19.67 50.67 19 51.5 19C55.64 19 59 22.36 59 26.5C59 30.64 55.64 34 51.5 34Z" fill="black"/>
</svg>
