<svg xmlns="http://www.w3.org/2000/svg" width="65" height="65" fill="none" viewBox="0 0 65 65"><path fill="currentColor" fill-rule="evenodd" d="M45.194 7.11c-1.22 0-2.366.476-3.228 1.341a4.53 4.53 0 0 0-1.345 3.232c0 1.22.477 2.365 1.341 3.226l9.325 9.797 9.296-9.767c.893-.891 1.37-2.037 1.37-3.256a4.53 4.53 0 0 0-1.342-3.228l-.004-.004A4.52 4.52 0 0 0 57.38 7.11c-1.22 0-2.365.476-3.227 1.341l-.827.827a2.886 2.886 0 0 1-4.078 0l-.826-.825a4.52 4.52 0 0 0-3.228-1.343m6.093 21.33c-.417 0-.816-.17-1.104-.474l-10.4-10.927a7.52 7.52 0 0 1-2.208-5.356c0-2.037.794-3.949 2.237-5.386a7.55 7.55 0 0 1 5.382-2.234c2.036 0 3.947.795 5.384 2.238l.709.708.71-.71a7.55 7.55 0 0 1 5.383-2.236 7.55 7.55 0 0 1 5.384 2.236A7.55 7.55 0 0 1 65 11.683a7.55 7.55 0 0 1-2.237 5.384l-10.371 10.9a1.52 1.52 0 0 1-1.104.473M32.5 32.502c2.8 0 5.077 2.278 5.077 5.078s-2.278 5.078-5.078 5.078a5.084 5.084 0 0 1-5.077-5.078c0-2.8 2.278-5.078 5.078-5.078m0 13.202c4.48 0 8.124-3.645 8.124-8.124s-3.645-8.125-8.124-8.125-8.125 3.645-8.125 8.125 3.645 8.124 8.125 8.124m30.975-10.156h-9.14c-.72 0-1.342.505-1.491 1.21l-3.527 16.75-6.167-5.396-.01-.006-.005-.003-.004-.002q-.01-.004-.017-.01a1.5 1.5 0 0 0-.415-.249l-.052-.015a1.5 1.5 0 0 0-.5-.092H22.852a1.5 1.5 0 0 0-.517.097l-.009.002-.026.008q-.23.092-.415.25l-.017.009q-.009.004-.019.011l-6.167 5.397-3.527-16.751a1.525 1.525 0 0 0-1.49-1.21h-9.14a1.524 1.524 0 0 0 0 3.047h7.904l3.807 18.087a1.526 1.526 0 0 0 2.493.832l5.6-4.898v10.86a1.524 1.524 0 0 0 3.046 0V50.783h16.25v12.695a1.524 1.524 0 0 0 3.046 0v-10.86l5.599 4.897a1.52 1.52 0 0 0 1.485.299 1.53 1.53 0 0 0 1.008-1.131l3.807-18.087h7.905a1.524 1.524 0 0 0 0-3.047M46.717 14.221c1.655 0 2.708-1.252 2.823-1.395a1.01 1.01 0 0 0-.151-1.418 1.02 1.02 0 0 0-1.426.138c-.011.013-.55.644-1.246.644-.69 0-1.225-.618-1.245-.643a1.016 1.016 0 0 0-1.579 1.279c.115.143 1.168 1.395 2.824 1.395m.43 2.216a1.016 1.016 0 0 1 1.414.244c.028.04 1.177 1.602 2.726 1.602 1.543 0 2.688-1.551 2.725-1.601v-.001a1.017 1.017 0 0 1 1.66 1.17c-.07.101-1.76 2.464-4.385 2.464s-4.315-2.363-4.386-2.463a1.017 1.017 0 0 1 .247-1.415m8.71-2.216c1.655 0 2.708-1.252 2.823-1.395a1.01 1.01 0 0 0-.151-1.418 1.02 1.02 0 0 0-1.426.138c-.011.013-.55.644-1.246.644-.69 0-1.225-.618-1.245-.643a1.016 1.016 0 0 0-1.579 1.279c.115.143 1.168 1.395 2.824 1.395m-34.53-1.015H3.047v3.047c0 1.12.91 2.03 2.03 2.03h5.587v-.507a1.524 1.524 0 0 1 3.046 0v.507h5.587c1.12 0 2.03-.91 2.03-2.03v-3.047m-7.109-3.047h-4.062V7.112h4.062zM3.047 20.9v4.491h18.28V20.9a5 5 0 0 1-2.03.43H13.71v.507a1.524 1.524 0 0 1-3.046 0v-.508H5.077a5 5 0 0 1-2.03-.43m19.804 7.538H1.523A1.52 1.52 0 0 1 0 26.916V11.682c0-.84.682-1.523 1.523-1.523H7.11v-4.57c0-.841.683-1.524 1.523-1.524h7.11c.84 0 1.523.683 1.523 1.524v4.57h5.586c.84 0 1.523.682 1.523 1.523v15.234c0 .84-.683 1.523-1.523 1.523" clip-rule="evenodd"/></svg>