<svg width="24" height="24" viewBox="0 0 24 24" fill="none" xmlns="http://www.w3.org/2000/svg"><path fill-rule="evenodd" clip-rule="evenodd" d="M11.257 16.957 5.31 11.01a1.124 1.124 0 1 1 1.591-1.59l4.014 4.014-.041-10.056a1.125 1.125 0 0 1 1.12-1.129H12c.62 0 1.123.501 1.125 1.12l.041 10.087 3.932-3.933a1.124 1.124 0 1 1 1.591 1.591l-5.837 5.837-.002.003-.003.002a.108.108 0 0 1-.013.01l-.01.01a1.112 1.112 0 0 1-.145.119l-.034.018-.022.011a1.008 1.008 0 0 1-.137.074.394.394 0 0 1-.044.014.553.553 0 0 0-.029.01l-.025.008a.932.932 0 0 1-.111.032c-.041.009-.084.011-.125.014h-.015l-.03.004a.358.358 0 0 1-.05.005h-.005a.954.954 0 0 1-.339-.056l-.021-.008-.03-.009a.33.33 0 0 1-.042-.013 1.082 1.082 0 0 1-.146-.078l-.021-.012a1.164 1.164 0 0 1-.196-.153ZM4.875 19.5h14.25a1.125 1.125 0 1 1 0 2.25H4.875a1.125 1.125 0 1 1 0-2.25Z" fill="currentColor"/></svg>