<svg width="24" height="24" viewBox="0 0 24 24" fill="none" xmlns="http://www.w3.org/2000/svg"><path fill-rule="evenodd" clip-rule="evenodd" d="M12.254 0c1.97 0 3.545.55 4.726 1.652 1.179 1.103 1.77 2.562 1.77 4.379a6.7 6.7 0 0 1-.57 2.764c-.38.852-.954 1.648-1.724 2.39l-1.292 1.252c-.8.773-1.332 1.457-1.593 2.052-.262.596-.393 1.326-.393 2.194 0 .133.003.348.007.517.005.048.008.097.008.147l-.002.033-.002.017.001.01v.011l-.002.002a1.388 1.388 0 0 1-1.374 1.33 1.39 1.39 0 0 1-1.377-1.424 3.248 3.248 0 0 1-.014-.17v-.01a5.604 5.604 0 0 1-.015-.338c0-1.149.19-2.17.569-3.063.38-.893 1.005-1.777 1.878-2.655l1.2-1.222c.626-.626 1.072-1.237 1.34-1.832.266-.596.399-1.264.399-2.005 0-1.055-.336-1.903-1.008-2.546-.672-.642-1.557-.963-2.655-.963-1.354 0-2.378.42-3.07 1.261-.58.705-.94 1.712-1.077 3.023l-.017.201a1.374 1.374 0 0 1-1.355 1.271A1.375 1.375 0 0 1 5.257 6.76a.553.553 0 0 1-.002-.111c.18-1.591.693-3.644 1.798-4.768C8.283.626 10.018 0 12.254 0ZM12 24a1.875 1.875 0 1 0 0-3.75A1.875 1.875 0 0 0 12 24Z" fill="currentColor"/></svg>