<svg xmlns="http://www.w3.org/2000/svg" width="24" height="24" fill="none" viewBox="0 0 24 24"><path fill="currentColor" fill-rule="evenodd" d="M8.25 6.75A3.754 3.754 0 0 1 12 3a3.754 3.754 0 0 1 3.75 3.75A3.754 3.754 0 0 1 12 10.5a3.754 3.754 0 0 1-3.75-3.75m-1.5 0A5.257 5.257 0 0 0 12 12a5.257 5.257 0 0 0 5.25-5.25A5.257 5.257 0 0 0 12 1.5a5.257 5.257 0 0 0-5.25 5.25m12.7 13.502H4.546c.105-.796.44-2.114 1.499-3.224 1.282-1.345 3.284-2.026 5.951-2.026 2.66 0 4.66.677 5.945 2.014 1.059 1.102 1.4 2.434 1.509 3.236m-15.699 1.5H20.25c.4 0 .73-.315.749-.714.004-.118.111-2.874-1.957-5.043-1.578-1.654-3.948-2.493-7.045-2.493-3.093 0-5.46.838-7.036 2.491-2.07 2.17-1.962 4.927-1.958 5.044.02.4.349.715.75.715" clip-rule="evenodd"/></svg>