<svg xmlns="http://www.w3.org/2000/svg" width="25" height="24" fill="none" viewBox="0 0 25 24"><path fill="currentColor" fill-rule="evenodd" d="m12.416.124 11.25 7.5a.75.75 0 0 1 .21 1.042.75.75 0 0 1-.623.338.76.76 0 0 1-.412-.128l-.338-.225v14.595c0 .413-.337.75-.75.75h-19.5a.75.75 0 0 1-.75-.75V8.651l-.337.225a.76.76 0 0 1-1.043-.21.76.76 0 0 1 .21-1.042l11.25-7.5a.76.76 0 0 1 .833 0m-4.92 17.872v4.5h2.25v-4.5zm3.75 4.5h9.75V7.646l-9-6-9 6v14.85h3v-5.25c0-.412.337-.75.75-.75h3.75c.412 0 .75.338.75.75zm-4.5-15h3.75c.412 0 .75.338.75.75 0 .413-.338.75-.75.75h-3.75a.75.75 0 0 1-.75-.75c0-.412.337-.75.75-.75m3.75 3h-3.75a.75.75 0 0 0-.75.75c0 .413.337.75.75.75h3.75c.412 0 .75-.337.75-.75a.75.75 0 0 0-.75-.75m-3.75 3h3.75c.412 0 .75.338.75.75 0 .413-.338.75-.75.75h-3.75a.75.75 0 0 1-.75-.75c0-.412.337-.75.75-.75m6.75-4.5h3.75c.412 0 .75-.337.75-.75a.75.75 0 0 0-.75-.75h-3.75a.75.75 0 0 0-.75.75c0 .413.337.75.75.75m3.75 3h-3.75a.75.75 0 0 1-.75-.75c0-.412.337-.75.75-.75h3.75c.412 0 .75.338.75.75 0 .413-.338.75-.75.75m-3.75 3h3.75c.412 0 .75-.337.75-.75a.75.75 0 0 0-.75-.75h-3.75a.75.75 0 0 0-.75.75c0 .413.337.75.75.75m3.75 3h-3.75a.75.75 0 0 1-.75-.75c0-.412.337-.75.75-.75h3.75c.412 0 .75.338.75.75 0 .413-.338.75-.75.75" clip-rule="evenodd"/></svg>