<svg xmlns="http://www.w3.org/2000/svg" width="24" height="24" fill="none" viewBox="0 0 24 24"><path fill="currentColor" fill-rule="evenodd" d="M15 21.75h6V8.25h-4.5a.75.75 0 0 1-.335-.078L12 6.089 7.835 8.172a.75.75 0 0 1-.335.078H3v13.5h6V16.5c0-.25.125-.484.334-.624l2.25-1.5a.75.75 0 0 1 .832 0l2.25 1.5A.75.75 0 0 1 15 16.5zm-4.5-4.849v4.849h3v-4.849l-1.5-1zM19.96 2.25H4.04l-2.11 4.5h5.393l4.342-2.171a.75.75 0 0 1 .67 0l4.342 2.171h5.393zm1.156-1.069 2.813 6a.75.75 0 0 1-.68 1.069h-.75V22.5a.75.75 0 0 1-.75.75H2.25a.75.75 0 0 1-.75-.75V8.25H.75a.75.75 0 0 1-.68-1.069l2.813-6A.75.75 0 0 1 3.562.75h16.875a.75.75 0 0 1 .68.431M5.25 18h1.5a.75.75 0 1 1 0 1.5h-1.5a.75.75 0 1 1 0-1.5m13.5 0h-1.5a.75.75 0 1 0 0 1.5h1.5a.75.75 0 1 0 0-1.5m-13.5-3.75h1.5a.75.75 0 1 1 0 1.5h-1.5a.75.75 0 1 1 0-1.5m13.5 0h-1.5a.75.75 0 1 0 0 1.5h1.5a.75.75 0 1 0 0-1.5M5.25 10.5h1.5a.75.75 0 1 1 0 1.5h-1.5a.75.75 0 1 1 0-1.5m7.5 0h-1.5a.75.75 0 1 0 0 1.5h1.5a.75.75 0 1 0 0-1.5m6 1.5h-1.5a.75.75 0 1 1 0-1.5h1.5a.75.75 0 1 1 0 1.5" clip-rule="evenodd"/></svg>