<svg xmlns="http://www.w3.org/2000/svg" width="24" height="24" fill="none" viewBox="0 0 24 24"><path fill="currentColor" d="M12.017 18.944c-.195 0-.39-.052-.57-.15-.532-.3-2.46-1.29-4.874-1.29-2.092 0-4.004.728-4.956 1.163a1.12 1.12 0 0 1-1.095-.083 1.13 1.13 0 0 1-.518-.944V3.4c0-.39.195-.743.525-.945C1.22 2.02 3.161 1 6.183 1c2.797 0 4.874.87 5.79 1.335C12.79 1.862 14.656 1 17.43 1c3.007 0 5.182 1.005 5.977 1.432.367.195.592.578.592.99V17.61c0 .39-.203.75-.532.952a1.14 1.14 0 0 1-1.118.045c-.817-.413-2.497-1.102-4.529-1.102-2.46 0-4.672 1.012-5.294 1.32-.157.082-.337.12-.51.12m-5.444-2.94c2.58 0 4.672.976 5.452 1.395.87-.412 3.202-1.394 5.796-1.394 1.965 0 3.637.562 4.68 1.02V3.647C21.764 3.28 19.905 2.5 17.43 2.5c-2.684 0-4.387.93-4.844 1.215a1.14 1.14 0 0 1-1.147.037C10.9 3.46 8.913 2.5 6.183 2.5c-2.43 0-4.049.757-4.679 1.117v13.46c1.162-.472 3.03-1.072 5.07-1.072m16.676 6.381a.75.75 0 0 1-.405-.12c-.03-.023-2.204-1.38-5.024-1.38-2.46 0-4.672 1.012-5.294 1.32a1.15 1.15 0 0 1-1.08-.03c-.532-.3-2.46-1.29-4.874-1.29-2.864 0-5.429 1.387-5.459 1.402a.75.75 0 0 1-1.02-.3.75.75 0 0 1 .293-1.02c.12-.067 2.924-1.59 6.179-1.59 2.58 0 4.671.976 5.451 1.396.87-.413 3.202-1.395 5.797-1.395 3.284 0 5.736 1.552 5.834 1.612a.751.751 0 0 1-.405 1.38z"/><path fill="currentColor" d="M12.002 18.577a.75.75 0 0 1-.75-.75V3.28c0-.412.338-.75.75-.75.413 0 .75.338.75.75v14.548c0 .412-.337.75-.75.75"/></svg>