<svg xmlns="http://www.w3.org/2000/svg" width="24" height="24" fill="none" viewBox="0 0 24 24"><path fill="currentColor" fill-rule="evenodd" d="M1.5 4.469V6h21V4.468c0-.81-.674-1.468-1.505-1.468H3.006C2.175 3 1.5 3.659 1.5 4.468M3.005 1.5h17.99C22.653 1.5 24 2.831 24 4.468v12.814c0 1.637-1.348 2.968-3.004 2.968a.75.75 0 1 1 0-1.5c.83 0 1.504-.659 1.504-1.468V7.5h-21v9.407c0 .829.695 1.843 1.505 1.843a.75.75 0 1 1 0 1.5C1.285 20.25 0 18.485 0 16.907V4.468C0 2.831 1.348 1.5 3.005 1.5M15.75 15.75c0-.22-.02-.444-.066-.685l-.096-.52 1.334-.77-.75-1.3-1.335.77-.402-.344a3.8 3.8 0 0 0-1.185-.683l-.5-.177V10.5h-1.5v1.541l-.5.177a3.7 3.7 0 0 0-1.184.683l-.403.345-1.335-.77-.75 1.298 1.334.77-.096.521c-.045.24-.066.465-.066.685s.021.444.066.685l.096.52-1.334.77.75 1.3 1.335-.77.403.343c.35.299.747.53 1.185.684l.5.177v1.54h1.5v-1.54l.499-.177a3.7 3.7 0 0 0 1.185-.684l.402-.344 1.335.77.75-1.299-1.334-.77.096-.52c.045-.241.066-.465.066-.685m1.637-4.168.916 1.585a1.34 1.34 0 0 1-.488 1.824l-.584.337a4.7 4.7 0 0 1 0 .845l.584.336c.636.368.855 1.186.488 1.823l-.915 1.585a1.34 1.34 0 0 1-1.824.489l-.583-.338q-.348.24-.73.421v.675c0 .737-.6 1.336-1.336 1.336h-1.83c-.736 0-1.335-.6-1.335-1.336v-.675a5 5 0 0 1-.73-.42l-.584.337a1.34 1.34 0 0 1-1.824-.488l-.915-1.585a1.34 1.34 0 0 1 .488-1.824l.583-.336a5 5 0 0 1 0-.845l-.582-.336a1.34 1.34 0 0 1-.489-1.824l.914-1.585a1.34 1.34 0 0 1 1.825-.49l.584.338q.347-.24.73-.42v-.675c0-.737.6-1.336 1.335-1.336h1.83c.736 0 1.335.6 1.335 1.336v.675q.383.18.73.42l.584-.337a1.34 1.34 0 0 1 1.823.488M12 13.75a2 2 0 1 0 0 4 2 2 0 0 0 0-4M2.25 4.5a.75.75 0 1 1 1.5 0 .75.75 0 0 1-1.5 0m3-.75a.75.75 0 1 0 0 1.5.75.75 0 0 0 0-1.5m1.5.75a.75.75 0 1 1 1.5 0 .75.75 0 0 1-1.5 0" clip-rule="evenodd"/></svg>