<svg xmlns="http://www.w3.org/2000/svg" width="24" height="24" fill="none" viewBox="0 0 24 24"><path fill="currentColor" d="M11.045.36A1.45 1.45 0 0 1 12.95.355l3.044 2.712a.75.75 0 0 1 .75-.7h3.202a.75.75 0 0 1 .75.75v4.136l1.31 1.167c.313.275.493.674.493 1.093v13.034c0 .8-.649 1.453-1.446 1.453H2.946A1.45 1.45 0 0 1 1.5 22.547V9.513c0-.42.181-.82.496-1.096zM2.988 9.542 3 22.547l18.054-.047L21 9.532 19.448 8.15a.75.75 0 0 1-.25-.561v-3.72h-1.704v.868a.75.75 0 0 1-1.249.56l-4.244-3.78zm8.27.188c2.05 0 3.72 1.681 3.72 3.749 0 .762-.23 1.471-.62 2.064L16.99 18.2a.751.751 0 0 1-1.066 1.057l-2.624-2.65a3.7 3.7 0 0 1-2.042.622c-2.052 0-3.722-1.683-3.722-3.75s1.67-3.75 3.722-3.75m0 1.5c-1.225 0-2.222 1.009-2.222 2.249s.997 2.25 2.222 2.25 2.22-1.01 2.22-2.25-.996-2.25-2.22-2.25"/></svg>