<svg xmlns="http://www.w3.org/2000/svg" width="24" height="24" fill="none" viewBox="0 0 24 24"><path fill="currentColor" fill-rule="evenodd" d="m23.175 4.177.023.06h-.008a.8.8 0 0 1 .052.263v9c0 .262-.142.51-.367.645l-3.735 2.242a.6.6 0 0 1-.15.075.3.3 0 0 1-.112.03c-.046.015-.09.015-.136.015a.8.8 0 0 1-.375-.105h-.007l-3.75-2.25-3.75-2.25a.74.74 0 0 1-.367-.645v-4.5a.7.7 0 0 1 .052-.262l.011-.03.012-.03a.8.8 0 0 1 .142-.21l.022-.015a1 1 0 0 1 .128-.105l7.5-4.5a.75.75 0 0 1 .773 0l3.75 2.242a1 1 0 0 1 .127.105l.022.015c.06.06.105.135.143.21m-2.13.315L18.75 3.12l-6.045 3.622L15 8.115zM14.25 9.42 12 8.07v2.752l2.25 1.35zm2.205 4.08 1.545.922v-1.845zm3.045.918V11.25a.74.74 0 0 0-.383-.653.76.76 0 0 0-.757.008l-2.617 1.567V9.42l6-3.6v7.252zm-6.217.057a.8.8 0 0 1 .142.21l-.015.007.011.03.011.03a.8.8 0 0 1 .053.263v4.5q-.001.022-.008.04-.006.02-.007.042a1 1 0 0 1-.03.15 1 1 0 0 1-.043.094l-.017.034c-.023.037-.045.075-.075.112a.5.5 0 0 1-.112.105 1 1 0 0 0-.068.06l-3.75 2.25a.2.2 0 0 1-.06.03q-.034.021-.067.03a.8.8 0 0 1-.255.053.8.8 0 0 1-.255-.053l-.034-.015-.034-.015c-.015-.015-.06-.03-.06-.03l-7.5-4.5a.14.14 0 0 1-.041-.035l-.026-.025q-.057-.047-.113-.105-.032-.042-.057-.089l-.018-.03a.7.7 0 0 1-.06-.128l-.005-.018a.5.5 0 0 1-.025-.132c0-.03-.015-.083-.015-.083v-9a.7.7 0 0 1 .064-.292l.011-.03a.8.8 0 0 1 .143-.21C.975 7.717.99 7.71.99 7.71a1 1 0 0 1 .127-.105L4.86 5.347a.75.75 0 0 1 .773 0l3.75 2.25c.045.03.09.068.127.105l.023.015a.8.8 0 0 1 .153.24l.011.03a.8.8 0 0 1 .053.263v4.072l3.383 2.033q.07.046.127.105c.008.007.023.015.023.015M4.5 10.927l-2.25-1.35v7.26l6 3.6v-2.752l-3.383-2.033a1 1 0 0 1-.127-.105c-.008-.007-.022-.015-.022-.015a.8.8 0 0 1-.143-.21l-.011-.03-.011-.03A.8.8 0 0 1 4.5 15zM6 13.68l2.25-1.35V9.577L6 10.927zm6 2.647-2.25 1.35v2.753L12 19.08zm-5.295-1.32L9 16.38l2.295-1.373L9 13.635zm.84-6.757L5.25 6.877 2.955 8.25 5.25 9.622z" clip-rule="evenodd"/></svg>