<svg width="24" height="24" viewBox="0 0 24 24" fill="none" xmlns="http://www.w3.org/2000/svg">
<path fill-rule="evenodd" clip-rule="evenodd" d="M4.5 22.5H19.4738V1.5H4.5V22.5ZM19.6463 0H4.3275C3.5955 0 3 0.5955 3 1.3275V22.6717C3 23.4045 3.5955 24 4.3275 24H19.6463C20.3783 24 20.9738 23.4045 20.9738 22.6717V1.3275C20.9738 0.5955 20.3783 0 19.6463 0ZM7.47524 9H16.4992V4.5H7.47524V9ZM5.97524 10.5H17.9992V3H5.97524V10.5ZM8.98125 14.2515H5.98125V12.7515H8.98125V14.2515ZM10.4865 14.2515H13.4865V12.7515H10.4865V14.2515ZM17.9865 14.2515H14.9865V12.7515H17.9865V14.2515ZM6 17.2515H8.98125V15.7515H6V17.2515ZM13.4865 17.2515H10.4865V15.7515H13.4865V17.2515ZM14.9865 17.2515H17.9865V15.7515H14.9865V17.2515ZM8.98125 20.2305H6V18.7305H8.98125V20.2305ZM10.4865 20.2515H13.4865V18.7515H10.4865V20.2515ZM17.9865 20.2515H14.9865V18.7515H17.9865V20.2515Z" fill="black"/>
</svg>
