<svg xmlns="http://www.w3.org/2000/svg" width="24" height="24" fill="none" viewBox="0 0 24 24"><path fill="currentColor" fill-rule="evenodd" d="M15.3 7.277c-1.098-1.344-2.427-2.973-3.113-5.283-3.651 2.685-5.436 5.58-5.436 8.828 0 2.01 1.2 3.075 2.295 3.623a4.3 4.3 0 0 1-.24-1.778c.12-1.463.997-2.79 2.609-3.96a.8.8 0 0 1 .443-.143.76.76 0 0 1 .412.128.745.745 0 0 1 .315.787c-.24 1.058.285 1.591 1.154 2.378.451.405.915.832 1.155 1.38.188.443.225.87.188 1.26 1.02-.54 2.205-1.612 2.167-3.66-.022-1.198-.86-2.225-1.922-3.527l-.005-.006zm-3.937 8.803a.75.75 0 0 1-.773.412c-1.844-.248-5.338-1.748-5.338-5.67 0-4.035 2.286-7.538 6.988-10.695a.753.753 0 0 1 1.154.487c.48 2.542 1.867 4.244 3.088 5.743l.002.002c1.148 1.403 2.227 2.73 2.264 4.448.076 3.847-3.134 5.4-4.836 5.685-.045.007-.083.007-.127.007a.76.76 0 0 1-.652-.375.77.77 0 0 1 .074-.854c.023-.023.592-.758.308-1.44-.1-.242-.401-.517-.726-.813l-.055-.05c-.539-.48-1.25-1.117-1.552-2.055-.532.607-.831 1.23-.885 1.875-.112 1.358.908 2.423.923 2.43a.77.77 0 0 1 .143.863M1.69 22.44a.35.35 0 0 0 .262.052L8.5 21.059l-1.906-.42-4.79 1.05c-.203.045-.338.263-.293.488a.4.4 0 0 0 .18.262m20.434-5.19q-.033-.002-.076.007l-6.547 1.432 1.905.42 4.792-1.05c.202-.045.337-.262.292-.487a.4.4 0 0 0-.18-.263.3.3 0 0 0-.186-.06m.187 5.19a.4.4 0 0 0 .18-.263c.044-.225-.083-.443-.293-.488l-4.777-1.05-3.516-.765-1.905-.42-3.509-.765-6.539-1.432c-.03-.008-.052-.008-.076-.008a.3.3 0 0 0-.186.06.4.4 0 0 0-.18.263c-.045.225.082.442.292.487l4.777 1.05 3.516.765 1.905.42 3.509.765 6.539 1.433a.34.34 0 0 0 .263-.053m-1.388-2.566 1.597.353c1.005.217 1.65 1.23 1.44 2.257a1.9 1.9 0 0 1-.833 1.215 1.83 1.83 0 0 1-1.401.255l-9.719-2.13-9.732 2.13q-.206.049-.4.049a1.83 1.83 0 0 1-1.003-.3 1.88 1.88 0 0 1-.833-1.222 1.917 1.917 0 0 1 1.447-2.258l1.59-.345-1.597-.352c-1.005-.218-1.65-1.23-1.44-2.258.105-.502.397-.937.833-1.215.412-.27.907-.367 1.402-.255l9.718 2.13 9.733-2.13c.487-.112.99-.014 1.401.255.435.278.728.713.833 1.223a1.917 1.917 0 0 1-1.447 2.257z" clip-rule="evenodd"/></svg>