<svg xmlns="http://www.w3.org/2000/svg" width="24" height="24" fill="none" viewBox="0 0 24 24"><path fill="currentColor" fill-rule="evenodd" d="M12.857 1.5c-.62 0-1.206.259-1.65.727-.936.988-.947 2.582-.023 3.553l4.196 4.424 4.187-4.419c.924-.975.913-2.57-.022-3.558a2.26 2.26 0 0 0-1.65-.727c-.609 0-1.18.25-1.61.703l-.365.384a.77.77 0 0 1-1.088 0l-.364-.383a2.2 2.2 0 0 0-1.61-.704m2.523 10.543a.75.75 0 0 1-.544-.234l-4.74-4.996c-1.464-1.54-1.453-4.06.022-5.617A3.75 3.75 0 0 1 12.857 0h.001c.94 0 1.826.351 2.519.993A3.68 3.68 0 0 1 17.894 0h.001c1.036 0 2.009.425 2.738 1.196 1.476 1.556 1.486 4.078.024 5.62l-4.733 4.993a.75.75 0 0 1-.544.234m-3.442 10.402 10.257-5.02a.55.55 0 0 0-.061-1.01.53.53 0 0 0-.411.027l-4.693 2.292-.019.006q-.009 0-.017.004c-.283.148-.599.24-.94.24H9.108a.75.75 0 1 1 0-1.5h6.946c.3 0 .542-.245.542-.546a.545.545 0 0 0-.542-.547h-5.067a.75.75 0 0 1-.726-.557C10.241 15.77 9.681 14 6.712 14H1.5v5.184zm10.685-7.447c.517.179.932.548 1.171 1.04a2.05 2.05 0 0 1-.939 2.735l-10.524 5.15q-.01.005-.02.005l-.018.005a.8.8 0 0 1-.29.067h-.009a.8.8 0 0 1-.208-.033h-.005l-.004-.002L.527 20.45A.75.75 0 0 1 0 19.735V13.25a.75.75 0 0 1 .75-.75h5.962c3.068 0 4.311 1.535 4.767 2.39h4.575l.008.002c.993.004 1.82.723 1.996 1.67l3.005-1.468a2.03 2.03 0 0 1 1.56-.096" clip-rule="evenodd"/></svg>