<svg xmlns="http://www.w3.org/2000/svg" width="24" height="24" fill="none" viewBox="0 0 24 24"><path fill="currentColor" d="M9.475 0c4.992 0 9.1 2.022 9.1 4.9v5.535a7.5 7.5 0 0 0-1.57-.104c.28-.32.433-.652.433-.983V7.34C15.88 8.855 12.885 9.8 9.476 9.8c-3.41 0-6.406-.945-7.963-2.46v2.008c0 1.606 3.554 3.252 7.963 3.252.949 0 1.858-.077 2.7-.213-.478.46-.896.981-1.238 1.554q-.715.057-1.462.059c-3.413 0-6.407-.887-7.963-2.324v1.872c0 1.606 3.553 3.252 7.962 3.252q.243-.001.484-.008a7.5 7.5 0 0 0-.044 1.4q-.22.007-.44.008c-3.413 0-6.406-.886-7.962-2.324v1.872C1.513 19.354 5.067 21 9.476 21q.595-.001 1.167-.04c.231.476.513.922.836 1.334-.645.07-1.316.106-2.003.106-5 0-9.101-1.9-9.101-4.652V4.899C.375 2.022 4.483 0 9.475 0m0 1.4c-4.416 0-7.962 1.747-7.962 3.5 0 1.754 3.547 3.5 7.963 3.5 4.415 0 7.96-1.746 7.961-3.5l-.01-.165C17.214 3.038 13.752 1.4 9.475 1.4"/><path fill="currentColor" fill-rule="evenodd" d="M17.3 22.785a5.06 5.06 0 1 0 0-10.121 5.06 5.06 0 0 0 0 10.121m0 1.215a6.275 6.275 0 1 0 0-12.55 6.275 6.275 0 0 0 0 12.55" clip-rule="evenodd"/><path fill="currentColor" fill-rule="evenodd" d="M20.912 17.896v-.002a.5.5 0 0 0-.028-.155l-.002-.007a.4.4 0 0 0-.088-.14l-2.076-2.215a.38.38 0 0 0-.566 0 .447.447 0 0 0 0 .603l1.398 1.491-4.704.016c-.221.001-.4.193-.399.428 0 .236.18.426.4.426h.001l4.696-.016-1.428 1.523a.447.447 0 0 0 0 .603c.078.084.18.125.282.125a.4.4 0 0 0 .283-.125l2.114-2.255a.4.4 0 0 0 .087-.14l.002-.005a.5.5 0 0 0 .028-.155" clip-rule="evenodd"/></svg>