<svg xmlns="http://www.w3.org/2000/svg" width="24" height="24" fill="none" viewBox="0 0 24 24"><path fill="currentColor" fill-rule="evenodd" d="M5.085 8.82A7.03 7.03 0 0 1 12 3c2.153 0 4.125.967 5.422 2.55l-1.071 1.072A5.48 5.48 0 0 0 12 4.5c-2.894 0-5.317 2.265-5.505 5.153l-.053.801-.795-.112-.02-.002a5 5 0 0 0-.444-.027A3.684 3.684 0 0 0 1.5 13.994a3.683 3.683 0 0 0 3.683 3.676h.12l-1.35 1.35C1.688 18.464 0 16.423 0 13.993A5.176 5.176 0 0 1 5.085 8.82m4.463 8.85h8.542c2.43 0 4.41-1.98 4.41-4.418a4.41 4.41 0 0 0-4.14-4.395zM21.563 5.655l-1.897 1.897c2.497.698 4.334 2.993 4.334 5.7 0 3.263-2.647 5.918-5.91 5.918H8.048l-2.349 2.347a.75.75 0 0 1-1.056 0 .75.75 0 0 1 0-1.057v-.008L20.498 4.597a.747.747 0 0 1 1.057 0h.008a.746.746 0 0 1 0 1.058" clip-rule="evenodd"/></svg>