<svg xmlns="http://www.w3.org/2000/svg" width="24" height="24" fill="none" viewBox="0 0 24 24"><path fill="currentColor" fill-rule="evenodd" d="M10.852 2.267c-.17.015-.283.072-.32.119-.038.046-.05.154-.031.29.043.328.186.328.312.328a.77.77 0 0 0 .526-.214 3 3 0 0 1-.085-.533c-.13.001-.268.004-.402.01m2.714-.655a1.24 1.24 0 0 0-.584-.112c-.176.001-.24.23-.241.427-.003.375.08.62.137.716.32-.011.513-.083.626-.142a3 3 0 0 1 .017-.682q.016-.1.045-.207m1.827-.108c-.286 0-.384.513-.385.519-.04.285-.018.609.087.634.278.067.454.076.565.07v-.005q0-.327.112-.69c.038-.134.083-.255.135-.375a1.1 1.1 0 0 0-.514-.153m2.247.364a.4.4 0 0 0-.098.014c-.045.023-.202.136-.338.593-.12.39.03.555.083.578l.004.002c.305.11.44.16.769-.558.022-.06.067-.284.007-.435l-.001-.002c-.015-.03-.048-.097-.216-.155a.7.7 0 0 0-.21-.037m-5.42 2.138a2.26 2.26 0 0 1-1.408.498c-.962 0-1.668-.64-1.799-1.632-.094-.702.137-1.163.347-1.425.313-.39.795-.624 1.394-.676a18 18 0 0 1 .837-.016c.312-.458.801-.751 1.379-.755h.024c.619 0 1.076.18 1.38.352a1.7 1.7 0 0 1 1.027-.348c.647.003 1.19.288 1.525.522.308-.151.773-.249 1.388-.046.668.217.982.652 1.124.983.263.6.158 1.267-.015 1.65-.45 1.005-1.072 1.507-1.852 1.507q-.383.001-.81-.164a1.5 1.5 0 0 1-.514-.321 2 2 0 0 1-.64.094c-.246 0-.532-.033-.866-.114a1.6 1.6 0 0 1-.571-.267c-.313.156-.76.296-1.373.296-.205 0-.399-.05-.577-.138m9.836 1.522c-1.125 1.065-1.35.96-1.687.66-.21-.188-.106-.855.442-1.658.338-.502.608-.766.795-.795h.03c.143 0 .36.12.6.33.173.15.255.33.263.548.007.306-.158.637-.443.915M23.22 2.94c-.608-.532-1.215-.765-1.808-.69-.833.105-1.402.788-1.845 1.433-.997 1.462-1.065 2.85-.187 3.63.472.427.944.585 1.38.585.48 0 .93-.196 1.327-.458.384-.246.713-.556.971-.8l.027-.025c.6-.57.929-1.305.915-2.032a2.22 2.22 0 0 0-.78-1.643m-7.17 10.342c-3.75 1.53-4.516 3.675-4.5 5.198.015 1.23-.548 2.872-1.65 3.615a2.34 2.34 0 0 1-1.597.39c.231-.653.426-1.62.201-2.738.57-.645 1.329-1.83 1.231-3.442-.052-.863-.443-1.905-1.726-2.813q.012-.313 0-.637v-.07a12.6 12.6 0 0 1 .315-3.305c.226-.99.729-1.695 1.539-2.152.72-.398 1.62-.563 2.535-.563.997 0 2.016.195 2.856.488 1.973.69 2.708 2.13 2.73 3.247.038 1.23-.69 2.272-1.934 2.782m-9.96 7.695c.36-.037.705-.112 1.012-.225 0 .503-.104.938-.21 1.253a1.86 1.86 0 0 1-.78-.968.3.3 0 0 1-.022-.06M1.523 12.51c1.072.547 2.294.922 3.051 1.117.601.158 1.245.375 1.824.653.494.24.937.532 1.266.877.331.353.54.758.571 1.238a3.04 3.04 0 0 1-.367 1.657 7.6 7.6 0 0 0-.984-1.327 9.4 9.4 0 0 0-1.176-1.035 10 10 0 0 0-.803-.57.756.756 0 0 0-1.035.225.75.75 0 0 0 .218 1.035 9.5 9.5 0 0 1 1.005.742c.502.413.884.825 1.169 1.23.233.315.397.615.525.908-.202.097-.465.18-.773.21-.389.06-.847.037-1.304-.083a2 2 0 0 1-.187-.06c-.773-.255-1.734-.87-2.318-2.355-.682-1.732-.742-3.412-.682-4.462M15.75 5.835c-1.785-.622-4.583-.945-6.622.188-1.186.66-1.95 1.717-2.265 3.134-.368 1.665-.368 2.738-.354 3.533q-.674-.284-1.551-.51c-1.56-.413-2.865-.968-3.585-1.523a.78.78 0 0 0-.72-.112c-.241.09-.42.3-.473.547-.03.128-.66 3.15.63 6.428.667 1.71 1.92 2.887 3.51 3.315l.061.014q.077.021.15.03c.036.233.097.458.17.669.338.944 1.028 1.642 2.05 2.062.052.022.112.045.163.06a.4.4 0 0 0 .114.045A4.7 4.7 0 0 0 8.595 24c.922 0 1.643-.315 2.145-.66 1.62-1.095 2.332-3.24 2.31-4.875-.016-1.545 1.185-2.82 3.57-3.795 1.815-.743 2.917-2.355 2.865-4.208a4.64 4.64 0 0 0-1.043-2.789c-.645-.803-1.567-1.448-2.692-1.838" clip-rule="evenodd"/></svg>