<svg xmlns="http://www.w3.org/2000/svg" width="24" height="24" fill="none" viewBox="0 0 24 24"><path fill="currentColor" fill-rule="evenodd" d="M1.5 12c0 5.79 4.71 10.5 10.5 10.5S22.5 17.79 22.5 12 17.79 1.5 12 1.5 1.5 6.21 1.5 12M0 12C0 5.384 5.384 0 12 0s12 5.384 12 12-5.384 12-12 12S0 18.616 0 12m8.25-1.27v-.98h1.875a.75.75 0 1 0 0-1.5H7.5a.75.75 0 0 0-.75.75v2.789a.752.752 0 0 0 1.11.658h.001c.039-.02 1.128-.579 1.558-.05.409.503.352.974.282 1.21-.098.33-.311.53-.478.584-.652.208-1.23-.192-1.268-.219h-.002a.749.749 0 1 0-.906 1.195c.039.03.783.582 1.798.582.262 0 .542-.036.832-.128.675-.216 1.234-.822 1.461-1.585.264-.885.062-1.827-.556-2.585-.636-.782-1.548-.878-2.332-.721m7.036 3.264c-.102.11-.282.256-.656.256-.376 0-.556-.147-.658-.257-.455-.488-.489-1.571-.465-1.91a1 1 0 0 0 0-.12c-.029-.344-.009-1.44.455-1.946.104-.114.287-.265.672-.267.345.026.542.141.642.25.463.495.494 1.615.468 1.967a1 1 0 0 0 0 .116c.025.34-.005 1.423-.458 1.91m1.09-5.015c-.444-.477-1.044-.729-1.736-.729h-.014c-.71.003-1.323.264-1.77.755-.918 1.003-.872 2.646-.848 3.024-.02.374-.052 1.995.861 2.98.449.485 1.058.741 1.761.741.704 0 1.312-.256 1.76-.74.912-.989.876-2.613.853-2.984.023-.378.06-2.048-.867-3.047m-5.75 10.532c-1.391-.238-2.714-.976-3.93-2.191-1.21-1.21-1.972-2.575-2.207-3.947a.745.745 0 0 0-.866-.612.75.75 0 0 0-.612.866c.287 1.68 1.195 3.324 2.625 4.753 1.418 1.42 3.057 2.321 4.737 2.61q.066.01.128.01a.749.749 0 0 0 .126-1.489m3.001-16.5c1.763.301 3.357 1.154 4.737 2.533 1.399 1.4 2.331 3.114 2.625 4.829a.75.75 0 1 1-1.478.253c-.242-1.411-1.026-2.84-2.207-4.021-1.156-1.155-2.48-1.867-3.93-2.116a.75.75 0 0 1 .253-1.478" clip-rule="evenodd"/></svg>