<svg xmlns="http://www.w3.org/2000/svg" width="24" height="24" fill="none" viewBox="0 0 24 24"><path fill="currentColor" d="M13.5.698A1.88 1.88 0 0 0 12 0a1.88 1.88 0 0 0-1.463.698c-1.59 1.972-7.5 10.192-7.5 14.34A9 9 0 0 0 12 24a9 9 0 0 0 9-8.962C21 10.89 15.052 2.67 13.5.698M12 22.5a7.5 7.5 0 0 1-7.5-7.462c0-3.158 4.695-10.283 7.207-13.395A.35.35 0 0 1 12 1.5a.35.35 0 0 1 .292.143C14.805 4.755 19.5 11.88 19.5 15.038A7.5 7.5 0 0 1 12 22.5"/><path fill="currentColor" d="M15.9 12.75a.75.75 0 0 0-1.028-.277l-2.122 1.23V11.25a.75.75 0 1 0-1.5 0v2.453l-2.123-1.23a.75.75 0 0 0-1.122.555.75.75 0 0 0 .372.75L10.5 15l-2.123 1.223a.75.75 0 0 0 .375 1.402.75.75 0 0 0 .375-.097l2.123-1.23v2.452a.75.75 0 1 0 1.5 0v-2.452l2.122 1.23a.75.75 0 0 0 .375.097.75.75 0 0 0 .375-1.402L13.5 15l2.122-1.222a.75.75 0 0 0 .278-1.028"/></svg>