<svg width="24" height="24" viewBox="0 0 24 24" fill="none" xmlns="http://www.w3.org/2000/svg">
<path d="M13.4997 0.697923C13.3197 0.474694 13.0908 0.295737 12.8308 0.174819C12.5708 0.0539004 12.2864 -0.00575654 11.9997 0.000437435C11.7193 -6.32063e-05 11.4424 0.0623389 11.1893 0.183049C10.9362 0.303759 10.7134 0.479702 10.5373 0.697923C8.94729 2.67038 3.03741 10.8902 3.03741 15.0376C3.04728 17.4115 3.9947 19.6854 5.67332 21.364C7.35195 23.0427 9.62582 23.9901 11.9997 24C14.3801 24 16.6636 23.0569 18.3503 21.3772C20.0371 19.6975 20.9896 17.418 20.9995 15.0376C20.9995 10.8902 15.0522 2.67038 13.4997 0.697923ZM11.9997 22.5C10.0171 22.5 8.11517 21.715 6.70975 20.3166C5.30433 18.9182 4.5098 17.0202 4.49988 15.0376C4.49988 11.8802 9.19479 4.75534 11.7072 1.6429C11.741 1.5974 11.7851 1.56069 11.8361 1.53589C11.887 1.51109 11.9431 1.49891 11.9997 1.50041C12.0563 1.49891 12.1125 1.51109 12.1634 1.53589C12.2143 1.56069 12.2585 1.5974 12.2922 1.6429C14.8047 4.75534 19.4996 11.8802 19.4996 15.0376C19.4897 17.0202 18.6951 18.9182 17.2897 20.3166C15.8843 21.715 13.9823 22.5 11.9997 22.5Z" fill="black"/>
<path d="M15.8996 12.7502C15.8506 12.6643 15.7851 12.5889 15.7068 12.5284C15.6286 12.4679 15.5391 12.4234 15.4436 12.3976C15.3481 12.3719 15.2485 12.3652 15.1504 12.3781C15.0523 12.391 14.9577 12.4231 14.8721 12.4727L12.7497 13.7027V11.2503C12.7497 11.0514 12.6707 10.8606 12.53 10.7199C12.3894 10.5793 12.1986 10.5003 11.9997 10.5003C11.8008 10.5003 11.61 10.5793 11.4694 10.7199C11.3287 10.8606 11.2497 11.0514 11.2497 11.2503V13.7027L9.12725 12.4727C9.04165 12.4231 8.94709 12.391 8.84901 12.3781C8.75092 12.3652 8.65126 12.3719 8.55576 12.3976C8.46026 12.4234 8.3708 12.4679 8.29254 12.5284C8.21428 12.5889 8.14877 12.6643 8.09977 12.7502C8.05018 12.8358 8.01802 12.9304 8.00513 13.0285C7.99224 13.1266 7.99889 13.2262 8.02468 13.3217C8.05047 13.4172 8.0949 13.5067 8.15542 13.5849C8.21593 13.6632 8.29133 13.7287 8.37726 13.7777L10.4997 15.0002L8.37726 16.2227C8.29133 16.2717 8.21593 16.3372 8.15542 16.4154C8.0949 16.4937 8.05047 16.5831 8.02468 16.6786C7.99889 16.7742 7.99224 16.8738 8.00513 16.9719C8.01802 17.07 8.05018 17.1645 8.09977 17.2501C8.16585 17.3646 8.26099 17.4595 8.37557 17.5254C8.49015 17.5912 8.6201 17.6257 8.75226 17.6251C8.88364 17.626 9.01295 17.5924 9.12725 17.5276L11.2497 16.2977V18.7501C11.2497 18.949 11.3287 19.1398 11.4694 19.2804C11.61 19.4211 11.8008 19.5001 11.9997 19.5001C12.1986 19.5001 12.3894 19.4211 12.53 19.2804C12.6707 19.1398 12.7497 18.949 12.7497 18.7501V16.2977L14.8721 17.5276C14.9864 17.5924 15.1157 17.626 15.2471 17.6251C15.3793 17.6257 15.5092 17.5912 15.6238 17.5254C15.7384 17.4595 15.8335 17.3646 15.8996 17.2501C15.9492 17.1645 15.9814 17.07 15.9943 16.9719C16.0071 16.8738 16.0005 16.7742 15.9747 16.6786C15.9489 16.5831 15.9045 16.4937 15.844 16.4154C15.7835 16.3372 15.7081 16.2717 15.6221 16.2227L13.4997 15.0002L15.6221 13.7777C15.7081 13.7287 15.7835 13.6632 15.844 13.5849C15.9045 13.5067 15.9489 13.4172 15.9747 13.3217C16.0005 13.2262 16.0071 13.1266 15.9943 13.0285C15.9814 12.9304 15.9492 12.8358 15.8996 12.7502Z" fill="black"/>
</svg>
