<svg xmlns="http://www.w3.org/2000/svg" width="24" height="24" fill="none" viewBox="0 0 24 24"><path fill="currentColor" d="M21.036 3.75A2.967 2.967 0 0 1 24 6.713v10.535c0 1.626-1.374 3-3 3H5.25c-1.756 0-2.434-.982-2.507-1.096a.75.75 0 1 1 1.265-.805c.007.007.33.402 1.242.402H21c.812 0 1.5-.687 1.5-1.5V6.713a1.466 1.466 0 0 0-1.464-1.463H5.176c-.8 0-1.426.642-1.426 1.463V9.75a.75.75 0 0 1-1.5 0V6.713c0-1.634 1.313-2.963 2.927-2.963zM3.97 11.47a.75.75 0 0 1 1.06 0l2.25 2.25a.75.75 0 0 1 0 1.06l-2.25 2.25a.75.75 0 0 1-1.06 0 .75.75 0 0 1 0-1.06l.97-.97H.75a.75.75 0 0 1 0-1.5h4.19l-.97-.97a.75.75 0 0 1 0-1.06m11.78-4.72a.75.75 0 0 1 .711.987l-1.5 4.5a.75.75 0 0 1-.949.474.75.75 0 0 1-.475-.949l1.171-3.512h-1.584a.75.75 0 0 1 0-1.5zm-5.9 0a1.97 1.97 0 0 1 1.974 1.914c.036.417-.166 1.212-1.393 2.585h.819a.75.75 0 0 1 0 1.5H8.625a.751.751 0 0 1-.507-1.302c1.934-1.775 2.18-2.592 2.207-2.707v-.03a.47.47 0 0 0-.475-.46.47.47 0 0 0-.474.46.75.75 0 0 1-1.5 0A1.97 1.97 0 0 1 9.85 6.75m9.274 0c1.034 0 1.876.84 1.876 1.875v2.25a1.88 1.88 0 0 1-1.875 1.874 1.88 1.88 0 0 1-1.875-1.874v-2.25c0-1.034.842-1.875 1.875-1.875m0 1.5a.375.375 0 0 0-.375.375v2.25a.375.375 0 0 0 .75 0v-2.25a.375.375 0 0 0-.375-.375"/></svg>