<svg xmlns="http://www.w3.org/2000/svg" width="24" height="24" fill="none" viewBox="0 0 24 24"><path fill="currentColor" fill-rule="evenodd" d="M4.5 19.5c0 1.654 1.346 3 3 3h9c1.654 0 3-1.346 3-3s-1.346-3-3-3h-9c-1.654 0-3 1.346-3 3M3.75 6.953c0 1.298.308 2.538.917 3.687C6.092 13.33 8.903 15 12 15s5.908-1.671 7.334-4.36a7.8 7.8 0 0 0 .916-3.688 7.87 7.87 0 0 0-1.427-4.522c-.383-.547-.92-.93-1.305-.93H6.486c-.466 0-1.02.508-1.363 1.011a8 8 0 0 0-.968 1.947 7.9 7.9 0 0 0-.404 2.494m16.91 4.389a9.64 9.64 0 0 1-3.5 3.712A4.5 4.5 0 0 1 21 19.5c0 2.482-2.018 4.5-4.5 4.5h-9A4.504 4.504 0 0 1 3 19.5a4.5 4.5 0 0 1 3.839-4.446 9.64 9.64 0 0 1-3.499-3.712 9.4 9.4 0 0 1-1.09-4.39c0-1.009.162-2.008.48-2.968a9.4 9.4 0 0 1 1.153-2.318C4.593.623 5.566 0 6.484 0h11.034c1.332 0 2.277 1.203 2.534 1.571a9.37 9.37 0 0 1 1.698 5.382 9.4 9.4 0 0 1-1.09 4.389m-9.41-7.217a1.125 1.125 0 1 1-2.25 0 1.125 1.125 0 0 1 2.25 0M9 7.5a1.5 1.5 0 1 0-3.001.001A1.5 1.5 0 0 0 9 7.5M12.034 9a1.5 1.5 0 1 1 .001-3.001 1.5 1.5 0 0 1 0 3.001M18 7.5a1.5 1.5 0 1 1-3.001-.001A1.5 1.5 0 0 1 18 7.5m-5.25 3.75a1.5 1.5 0 1 1 3.001.001 1.5 1.5 0 0 1-3.001-.001m-3-1.5a1.5 1.5 0 1 0 .001 3.001A1.5 1.5 0 0 0 9.75 9.75m4.125-4.5a1.125 1.125 0 1 0 0-2.25 1.125 1.125 0 0 0 0 2.25m-5.625 15a.75.75 0 1 1 0-1.5.75.75 0 0 1 0 1.5m0-3C7.01 17.25 6 18.26 6 19.5s1.01 2.25 2.25 2.25 2.25-1.01 2.25-2.25-1.01-2.25-2.25-2.25M15 19.5a.75.75 0 1 0 1.5 0 .75.75 0 0 0-1.5 0m-1.5 0c0-1.24 1.01-2.25 2.25-2.25S18 18.26 18 19.5s-1.01 2.25-2.25 2.25-2.25-1.01-2.25-2.25" clip-rule="evenodd"/></svg>