<svg xmlns="http://www.w3.org/2000/svg" width="24" height="24" fill="none" viewBox="0 0 24 24"><path fill="currentColor" fill-rule="evenodd" d="M12 21c3.936 0 7.51-2.214 9.328-5.778a10.7 10.7 0 0 0 1.171-4.91 10.7 10.7 0 0 0-1.825-6.018C20.243 3.65 19.525 3 18.9 3H5.105c-.688 0-1.427.754-1.85 1.4a10.7 10.7 0 0 0-1.238 2.59 10.9 10.9 0 0 0-.517 3.322c0 1.732.394 3.383 1.172 4.91C4.49 18.786 8.063 21 11.999 21m9.92-17.543a12.2 12.2 0 0 1 1.49 3.075 12.38 12.38 0 0 1-.747 9.37C20.59 19.973 16.504 22.5 12 22.5c-4.502 0-8.588-2.528-10.663-6.597A12.4 12.4 0 0 1 0 10.313c0-1.288.198-2.559.59-3.78A12.2 12.2 0 0 1 2 3.577C2.32 3.091 3.489 1.5 5.106 1.5H18.9c1.581 0 2.711 1.498 3.02 1.957M10.5 6a1.5 1.5 0 1 1-3.001-.001 1.5 1.5 0 0 1 3 .001m-2.25 5.25a2.25 2.25 0 1 0-4.5 0 2.25 2.25 0 0 0 4.5 0M12 9a2.25 2.25 0 1 1 0 4.5A2.25 2.25 0 0 1 12 9m3.75 2.25a2.25 2.25 0 1 1 4.5 0 2.25 2.25 0 0 1-4.5 0m-3 5.25a2.25 2.25 0 1 1 4.5 0 2.25 2.25 0 0 1-4.5 0M9 14.25a2.25 2.25 0 1 0 0 4.5 2.25 2.25 0 0 0 0-4.5m6-6.75a1.5 1.5 0 1 0-.001-3 1.5 1.5 0 0 0 0 3" clip-rule="evenodd"/></svg>