<svg width="24" height="24" viewBox="0 0 24 24" fill="none" xmlns="http://www.w3.org/2000/svg">
<path d="M21.0032 17.2499C20.4252 17.2491 19.8598 17.4187 19.3774 17.7374L15.2119 13.9199C15.5642 13.3411 15.7532 12.6776 15.7588 11.9999C15.7537 11.447 15.6284 10.9019 15.3917 10.4024L19.1377 7.58239C19.6638 8.01392 20.323 8.24978 21.0032 8.24989C21.6457 8.24989 22.2713 8.04313 22.7875 7.66014C23.3037 7.27715 23.6833 6.7382 23.8703 6.1228C24.0573 5.5074 24.0417 4.84814 23.8259 4.24228C23.6101 3.63641 23.2054 3.11603 22.6717 2.7579C22.1379 2.39976 21.5034 2.22285 20.8615 2.25325C20.2197 2.28365 19.6046 2.51975 19.1071 2.92673C18.6095 3.33371 18.2557 3.89001 18.098 4.51357C17.9403 5.13713 17.987 5.79491 18.2312 6.38989L14.4852 9.20239C13.8767 8.65961 13.1063 8.33304 12.2935 8.27337C11.4807 8.21371 10.671 8.42427 9.98997 8.87239L5.59216 4.49989C5.92254 3.92701 6.0545 3.26088 5.96753 2.60514C5.88055 1.9494 5.57951 1.34082 5.11125 0.874089C4.64299 0.407357 4.03376 0.108643 3.37835 0.0244199C2.72294 -0.0598028 2.0581 0.0751891 1.48727 0.408394C0.916433 0.741598 0.47161 1.25433 0.222012 1.86682C-0.0275871 2.47931 -0.0679637 3.15721 0.107155 3.79505C0.282275 4.43289 0.663074 4.99491 1.19031 5.39366C1.71754 5.79242 2.36165 6.00555 3.02241 5.99989C3.55079 5.99214 4.06773 5.84465 4.52081 5.57239L8.87366 9.93739C8.47461 10.5509 8.26365 11.2678 8.26681 11.9999C8.26656 12.2518 8.29165 12.503 8.34173 12.7499L5.40487 13.9724C4.97266 13.4056 4.35289 13.0114 3.65667 12.8605C2.96046 12.7097 2.23333 12.812 1.60566 13.1492C0.977995 13.4864 0.490836 14.0364 0.231529 14.7005C-0.027779 15.3647 -0.0422785 16.0996 0.190637 16.7735C0.423552 17.4474 0.888648 18.0163 1.50253 18.378C2.11641 18.7397 2.83894 18.8707 3.54056 18.7475C4.24218 18.6243 4.87701 18.2549 5.33123 17.7056C5.78545 17.1562 6.02935 16.4629 6.01921 15.7499C6.01575 15.6089 6.00072 15.4684 5.97426 15.3299L8.91861 14.1074C9.29774 14.6529 9.81485 15.0877 10.417 15.3674L9.76521 17.9999C9.0356 17.9987 8.33062 18.264 7.78248 18.7461C7.23434 19.2281 6.8807 19.8938 6.78789 20.6182C6.69507 21.3427 6.86945 22.0762 7.27833 22.6811C7.6872 23.286 8.30248 23.7208 9.00878 23.904C9.71507 24.0872 10.4639 24.0061 11.1147 23.676C11.7656 23.3459 12.2738 22.7895 12.544 22.1111C12.8142 21.4326 12.8279 20.6788 12.5826 19.9909C12.3372 19.3031 11.8496 18.7285 11.2112 18.3749L11.8555 15.7499H12.0128C12.8034 15.7407 13.5702 15.4779 14.2005 14.9999L18.366 18.8174C18.1305 19.2581 18.007 19.7501 18.0064 20.2499C18.0064 20.8432 18.1822 21.4233 18.5114 21.9166C18.8407 22.41 19.3088 22.7945 19.8564 23.0215C20.404 23.2486 21.0065 23.308 21.5878 23.1922C22.1692 23.0765 22.7031 22.7908 23.1223 22.3712C23.5414 21.9517 23.8268 21.4171 23.9424 20.8352C24.058 20.2532 23.9987 19.65 23.7719 19.1018C23.5451 18.5537 23.161 18.0851 22.6681 17.7555C22.1753 17.4258 21.5959 17.2499 21.0032 17.2499ZM3.02241 17.2499C2.72605 17.2499 2.43636 17.1619 2.18995 16.9971C1.94354 16.8323 1.75148 16.598 1.63807 16.3239C1.52466 16.0498 1.49499 15.7482 1.5528 15.4573C1.61062 15.1663 1.75333 14.899 1.96288 14.6892C2.17244 14.4795 2.43942 14.3366 2.73009 14.2787C3.02075 14.2208 3.32203 14.2505 3.59582 14.3641C3.86962 14.4776 4.10364 14.6699 4.26828 14.9165C4.43293 15.1632 4.52081 15.4532 4.52081 15.7499C4.52081 16.1477 4.36294 16.5292 4.08194 16.8106C3.80094 17.0919 3.41981 17.2499 3.02241 17.2499ZM9.76521 22.4999C9.46885 22.4999 9.17915 22.4119 8.93274 22.2471C8.68633 22.0823 8.49428 21.848 8.38087 21.5739C8.26746 21.2998 8.23778 20.9982 8.2956 20.7073C8.35341 20.4163 8.49612 20.149 8.70568 19.9392C8.91523 19.7295 9.18222 19.5866 9.47288 19.5287C9.76354 19.4708 10.0648 19.5005 10.3386 19.6141C10.6124 19.7276 10.8464 19.9199 11.0111 20.1665C11.1757 20.4132 11.2636 20.7032 11.2636 20.9999C11.2636 21.3977 11.1057 21.7792 10.8247 22.0606C10.5437 22.3419 10.1626 22.4999 9.76521 22.4999ZM21.0032 3.74989C21.2996 3.74989 21.5893 3.83787 21.8357 4.00269C22.0821 4.16751 22.2741 4.40178 22.3875 4.67587C22.5009 4.94996 22.5306 5.25156 22.4728 5.54253C22.415 5.8335 22.2723 6.10078 22.0627 6.31055C21.8532 6.52033 21.5862 6.66319 21.2955 6.72107C21.0049 6.77895 20.7036 6.74925 20.4298 6.63571C20.156 6.52218 19.922 6.32992 19.7573 6.08325C19.5927 5.83658 19.5048 5.54657 19.5048 5.24989C19.5048 4.85207 19.6627 4.47054 19.9437 4.18923C20.2247 3.90793 20.6058 3.74989 21.0032 3.74989ZM3.02241 4.49989C2.72605 4.49989 2.43636 4.41192 2.18995 4.2471C1.94354 4.08228 1.75148 3.84801 1.63807 3.57392C1.52466 3.29983 1.49499 2.99823 1.5528 2.70726C1.61062 2.41629 1.75333 2.14901 1.96288 1.93923C2.17244 1.72946 2.43942 1.58659 2.73009 1.52872C3.02075 1.47084 3.32203 1.50054 3.59582 1.61408C3.86962 1.72761 4.10364 1.91987 4.26828 2.16654C4.43293 2.41321 4.52081 2.70322 4.52081 2.99989C4.52081 3.39772 4.36294 3.77925 4.08194 4.06055C3.80094 4.34186 3.41981 4.49989 3.02241 4.49989ZM12.0128 14.2499C11.5683 14.2499 11.1337 14.1179 10.7641 13.8707C10.3945 13.6235 10.1064 13.2721 9.9363 12.8609C9.76618 12.4498 9.72167 11.9974 9.8084 11.5609C9.89512 11.1245 10.1092 10.7236 10.4235 10.4089C10.7378 10.0942 11.1383 9.87994 11.5743 9.79313C12.0103 9.70631 12.4622 9.75087 12.8729 9.92116C13.2836 10.0915 13.6346 10.3799 13.8816 10.7499C14.1286 11.1199 14.2604 11.5549 14.2604 11.9999C14.2604 12.5966 14.0236 13.1689 13.6021 13.5909C13.1806 14.0128 12.6089 14.2499 12.0128 14.2499ZM21.0032 21.7499C20.7068 21.7499 20.4171 21.6619 20.1707 21.4971C19.9243 21.3323 19.7323 21.098 19.6189 20.8239C19.5055 20.5498 19.4758 20.2482 19.5336 19.9573C19.5914 19.6663 19.7341 19.399 19.9437 19.1892C20.1532 18.9795 20.4202 18.8366 20.7109 18.7787C21.0015 18.7208 21.3028 18.7505 21.5766 18.8641C21.8504 18.9776 22.0844 19.1699 22.2491 19.4165C22.4137 19.6632 22.5016 19.9532 22.5016 20.2499C22.5016 20.6477 22.3437 21.0292 22.0627 21.3106C21.7817 21.5919 21.4006 21.7499 21.0032 21.7499Z" fill="black"/>
</svg>
