<svg xmlns="http://www.w3.org/2000/svg" width="24" height="24" fill="none" viewBox="0 0 24 24"><path fill="currentColor" d="M18.75 7.502H18V2.251A2.257 2.257 0 0 0 15.75 0a2.257 2.257 0 0 0-2.25 2.25v5.252h-3V2.251A2.257 2.257 0 0 0 8.25 0 2.257 2.257 0 0 0 6 2.25v5.252h-.75A2.257 2.257 0 0 0 3 9.753v5.567c0 .532.195 1.058.54 1.463l3.03 3.533a.77.77 0 0 1 .18.488V22.5c0 .825.675 1.5 1.5 1.5h7.5c.825 0 1.5-.675 1.5-1.5v-1.696c0-.18.067-.353.18-.488l3.03-3.533c.352-.405.54-.93.54-1.463V9.753a2.257 2.257 0 0 0-2.25-2.25M15 2.251c0-.413.338-.75.75-.75.413 0 .75.337.75.75v5.251H15zm-7.5 0c0-.413.338-.75.75-.75s.75.337.75.75v5.251H7.5zm12 13.069c0 .18-.067.352-.18.487l-3.03 3.534c-.352.405-.54.93-.54 1.463V22.5h-7.5v-1.696c0-.533-.195-1.058-.54-1.463l-3.03-3.534a.77.77 0 0 1-.18-.487V9.753c0-.413.338-.75.75-.75h13.5c.413 0 .75.337.75.75z"/><path fill="currentColor" d="M15.75 12.004h-7.5a.75.75 0 0 0-.75.75c0 .412.338.75.75.75h7.5c.413 0 .75-.338.75-.75a.75.75 0 0 0-.75-.75M15 15.005H9a.75.75 0 0 0-.75.75c0 .412.338.75.75.75h6c.412 0 .75-.338.75-.75a.75.75 0 0 0-.75-.75"/></svg>