<svg xmlns="http://www.w3.org/2000/svg" width="24" height="24" fill="none" viewBox="0 0 24 24"><path fill="currentColor" fill-rule="evenodd" d="M23.985 7.778C24 7.688 24 7.598 24 7.5a5.256 5.256 0 0 0-5.25-5.25c-.098 0-.195 0-.293.015V2.25H5.544v.015c-.098-.015-.195-.015-.293-.015A5.256 5.256 0 0 0 0 7.5c0 .098 0 .188.015.277H0v2.258c0 .232.022 5.685 3.653 9.33C5.723 21.443 8.535 22.5 12 22.5s6.278-1.058 8.348-3.135C23.978 15.72 24 10.268 24 10.035V7.777zM18.75 3.75c2.07 0 3.75 1.68 3.75 3.75s-1.68 3.75-3.75 3.75S15 9.57 15 7.5s1.68-3.75 3.75-3.75m-13.5 0C7.32 3.75 9 5.43 9 7.5s-1.68 3.75-3.75 3.75S1.5 9.57 1.5 7.5s1.68-3.75 3.75-3.75m1.125 14.625a1.124 1.124 0 1 1 2.25 0c0 .622-.502 1.125-1.125 1.125a1.123 1.123 0 0 1-1.125-1.125m9 0A1.124 1.124 0 1 1 16.5 19.5a1.123 1.123 0 0 1-1.125-1.125M12 20.25a1.876 1.876 0 1 1 .001-3.751A1.876 1.876 0 0 1 12 20.25m8.168-2.985c-2.048-2.017-4.785-3.038-8.168-3.038s-6.12 1.02-8.167 3.038c-1.53-2.085-2.056-4.552-2.235-6A5.2 5.2 0 0 0 5.25 12.75 5.256 5.256 0 0 0 10.5 7.5c0-1.47-.607-2.798-1.582-3.75h6.165A5.23 5.23 0 0 0 13.5 7.5a5.256 5.256 0 0 0 5.25 5.25 5.2 5.2 0 0 0 3.653-1.485c-.18 1.447-.713 3.915-2.235 6M5.25 8.985c.828 0 1.5-.668 1.5-1.492C6.75 6.667 6.078 6 5.25 6s-1.5.668-1.5 1.492c0 .825.672 1.493 1.5 1.493m15-1.485a1.5 1.5 0 1 1-3 0 1.5 1.5 0 0 1 3 0" clip-rule="evenodd"/></svg>