<svg xmlns="http://www.w3.org/2000/svg" width="24" height="24" fill="none" viewBox="0 0 24 24"><path fill="currentColor" d="M21.003 17.25c-.578 0-1.143.169-1.626.487l-4.165-3.817a3.75 3.75 0 0 0 .547-1.92 3.8 3.8 0 0 0-.367-1.598l3.746-2.82a2.94 2.94 0 0 0 1.865.668 2.995 2.995 0 0 0 2.867-2.127 3 3 0 0 0-1.198-3.365 2.994 2.994 0 0 0-4.574 1.756 3 3 0 0 0 .133 1.876l-3.746 2.812a3.7 3.7 0 0 0-4.495-.33L5.592 4.5A3.003 3.003 0 0 0 3.378.024 2.994 2.994 0 0 0 .222 1.867a3 3 0 0 0 .968 3.527A3 3 0 0 0 3.022 6a3 3 0 0 0 1.499-.428l4.353 4.365A3.75 3.75 0 0 0 8.267 12q0 .379.075.75l-2.937 1.222A2.997 2.997 0 0 0 .19 16.773a3 3 0 0 0 3.35 1.974 2.996 2.996 0 0 0 2.478-2.997 2.6 2.6 0 0 0-.045-.42l2.945-1.223c.379.546.896.98 1.498 1.26L9.765 18a2.995 2.995 0 0 0-2.977 2.618 3 3 0 0 0 2.22 3.286 2.994 2.994 0 0 0 3.536-1.793 3.004 3.004 0 0 0-1.333-3.736l.644-2.625h.158A3.7 3.7 0 0 0 14.2 15l4.165 3.817a3.06 3.06 0 0 0-.36 1.433 3 3 0 0 0 1.85 2.771 2.99 2.99 0 0 0 3.266-.65 3 3 0 0 0-2.119-5.121m-17.98 0a1.497 1.497 0 0 1-1.47-1.793 1.5 1.5 0 0 1 2.043-1.093 1.5 1.5 0 0 1 .486 2.447c-.281.28-.662.439-1.06.439m6.742 5.25a1.497 1.497 0 0 1-1.47-1.793 1.5 1.5 0 0 1 2.044-1.093 1.5 1.5 0 0 1-.574 2.886m11.24-18.75a1.497 1.497 0 0 1 1.47 1.793 1.5 1.5 0 0 1-2.043 1.093 1.5 1.5 0 0 1 .573-2.886m-17.98.75a1.497 1.497 0 0 1-1.47-1.793 1.5 1.5 0 0 1 2.043-1.093 1.5 1.5 0 0 1 .486 2.447c-.281.28-.662.439-1.06.439m8.99 9.75a2.246 2.246 0 0 1-2.205-2.69 2.25 2.25 0 0 1 1.766-1.767A2.245 2.245 0 0 1 14.26 12a2.25 2.25 0 0 1-2.247 2.25m8.99 7.5a1.497 1.497 0 0 1-1.47-1.793 1.5 1.5 0 0 1 2.044-1.093 1.5 1.5 0 0 1-.574 2.886"/></svg>