<svg width="24" height="24" viewBox="0 0 24 24" fill="none" xmlns="http://www.w3.org/2000/svg">
<path d="M12.06 0C7.4775 0 3.75 3.7275 3.75 8.31V15.69C3.75 20.2725 7.4775 24 12.06 24C16.6425 24 20.37 20.2725 20.37 15.69V8.31C20.37 3.7275 16.6425 0 12.06 0ZM18.87 15.69C18.87 19.4475 15.8175 22.5 12.06 22.5C8.3025 22.5 5.25 19.4475 5.25 15.69V8.31C5.25 4.8075 7.905 1.92 11.31 1.545V3C11.31 3.4125 11.6475 3.75 12.06 3.75C12.4725 3.75 12.81 3.4125 12.81 3V1.545C16.215 1.92 18.87 4.8075 18.87 8.31V15.69Z" fill="black"/>
<path d="M8.31006 12C9.13849 12 9.81006 11.3284 9.81006 10.5C9.81006 9.67157 9.13849 9 8.31006 9C7.48163 9 6.81006 9.67157 6.81006 10.5C6.81006 11.3284 7.48163 12 8.31006 12Z" fill="black"/>
<path d="M8.30245 6.74992C8.69995 6.74992 9.02995 6.42742 9.02995 6.02242C9.02995 5.61742 8.70745 5.29492 8.30245 5.29492C7.89745 5.29492 7.57495 5.61742 7.57495 6.02242C7.57495 6.42742 7.89745 6.74992 8.30245 6.74992Z" fill="black"/>
<path d="M15.8025 6.74992C16.2 6.74992 16.53 6.42742 16.53 6.02242C16.53 5.61742 16.2075 5.29492 15.8025 5.29492C15.3975 5.29492 15.075 5.61742 15.075 6.02242C15.075 6.42742 15.3975 6.74992 15.8025 6.74992Z" fill="black"/>
<path d="M8.31006 17.25C9.13849 17.25 9.81006 16.5784 9.81006 15.75C9.81006 14.9216 9.13849 14.25 8.31006 14.25C7.48163 14.25 6.81006 14.9216 6.81006 15.75C6.81006 16.5784 7.48163 17.25 8.31006 17.25Z" fill="black"/>
<path d="M12.0601 21C12.8885 21 13.5601 20.3284 13.5601 19.5C13.5601 18.6716 12.8885 18 12.0601 18C11.2316 18 10.5601 18.6716 10.5601 19.5C10.5601 20.3284 11.2316 21 12.0601 21Z" fill="black"/>
<path d="M15.8101 17.25C16.6385 17.25 17.3101 16.5784 17.3101 15.75C17.3101 14.9216 16.6385 14.25 15.8101 14.25C14.9816 14.25 14.3101 14.9216 14.3101 15.75C14.3101 16.5784 14.9816 17.25 15.8101 17.25Z" fill="black"/>
<path d="M15.8101 12C16.6385 12 17.3101 11.3284 17.3101 10.5C17.3101 9.67157 16.6385 9 15.8101 9C14.9816 9 14.3101 9.67157 14.3101 10.5C14.3101 11.3284 14.9816 12 15.8101 12Z" fill="black"/>
</svg>
