<svg xmlns="http://www.w3.org/2000/svg" width="24" height="24" fill="none" viewBox="0 0 24 24"><path fill="currentColor" d="M12.06 0C7.477 0 3.75 3.728 3.75 8.31v7.38c0 4.583 3.728 8.31 8.31 8.31s8.31-3.727 8.31-8.31V8.31c0-4.583-3.728-8.31-8.31-8.31m6.81 15.69a6.815 6.815 0 0 1-6.81 6.81 6.815 6.815 0 0 1-6.81-6.81V8.31c0-3.503 2.655-6.39 6.06-6.765V3c0 .413.338.75.75.75s.75-.337.75-.75V1.545c3.405.375 6.06 3.263 6.06 6.765z"/><path fill="currentColor" d="M8.31 12a1.5 1.5 0 1 0 0-3 1.5 1.5 0 0 0 0 3m-.008-5.25a.728.728 0 1 0 0-1.456.728.728 0 0 0 0 1.456m7.501 0a.728.728 0 1 0-.002-1.456.728.728 0 0 0 .002 1.456M8.31 17.25a1.5 1.5 0 1 0 0-3 1.5 1.5 0 0 0 0 3M12.06 21a1.5 1.5 0 1 0 0-3 1.5 1.5 0 0 0 0 3m3.75-3.75a1.5 1.5 0 1 0 0-3 1.5 1.5 0 0 0 0 3m0-5.25a1.5 1.5 0 1 0 0-3 1.5 1.5 0 0 0 0 3"/></svg>