<svg width="24" height="24" viewBox="0 0 24 24" fill="none" xmlns="http://www.w3.org/2000/svg"><path d="m23.782 9.97-1.5-1.5a.75.75 0 0 0-1.065 0L21 8.689V1.505a1.5 1.5 0 0 0-1.5-1.5H9a.683.683 0 0 0-.173 0H8.76l-.09.038h-.053a.353.353 0 0 0-.09.067l-.082.098-5.22 6.756-.075.09v.052a.405.405 0 0 0 0 .083.247.247 0 0 0-.045.075v.097a.375.375 0 0 0 0 .09L3 7.504V22.5A1.5 1.5 0 0 0 4.5 24h15a1.5 1.5 0 0 0 1.5-1.5v-8.66l2.782-2.812a.75.75 0 0 0 0-1.058ZM21 11.71l-1.5 1.5-4.793 4.866-.75.247.218-.667L19.5 12.31l1.5-1.5.75-.75.442.443L21 11.71ZM8.25 2.937v2.505l-2.505.712L8.25 2.937ZM19.5 22.5h-15V8.066l4.702-1.312a.75.75 0 0 0 .548-.75V1.505h9.75v8.683l-6.533 6.53a.793.793 0 0 0-.18.293l-.577 1.74h-1.403l-1.275-1.283a.75.75 0 0 0-.997-.052l-1.875 1.5a.75.75 0 0 0 .465 1.334.75.75 0 0 0 .465-.165l1.357-1.08 1.02 1.028a.75.75 0 0 0 .533.217h2.25c.1 0 .2-.02.292-.06l2.303-.75a.683.683 0 0 0 .3-.18l3.855-3.898V22.5Z" fill="currentColor"/><path d="M6.75 10.503h10.5a.75.75 0 0 0 0-1.5H6.75a.75.75 0 1 0 0 1.5ZM15 5.254h2.25a.75.75 0 0 0 0-1.5H15a.75.75 0 0 0 0 1.5Zm-3 8.249a.75.75 0 1 0 0-1.5H6.75a.75.75 0 1 0 0 1.5H12Z" fill="currentColor"/></svg>