<svg xmlns="http://www.w3.org/2000/svg" width="24" height="24" fill="none" viewBox="0 0 24 24"><path fill="currentColor" fill-rule="evenodd" d="M19.19 4.5H16.5V1.81zm1.174 17.998L4.5 22.5v-21H15v3.75c0 .415.335.75.75.75h3.75v9.75a.75.75 0 1 0 1.5 0V4.5c0-.2-.079-.39-.22-.53L17.03.22A.75.75 0 0 0 16.5 0H3.75A.75.75 0 0 0 3 .75v22.5a.75.75 0 0 0 .75.75l16.614-.002a.75.75 0 1 0 0-1.5m3.416-5.778a.75.75 0 0 0-1.06 0l-2.47 2.47-.97-.97a.75.75 0 1 0-1.06 1.06l1.5 1.5a.75.75 0 0 0 1.06 0l3-3a.75.75 0 0 0 0-1.06M12 7.06 9.75 9.31V12h4.5V9.31zm3.75 5.69a.75.75 0 0 1-.75.75H9a.75.75 0 0 1-.75-.75V9c0-.2.079-.39.22-.53l3-3a.75.75 0 0 1 1.06 0l3 3c.141.14.22.33.22.53zm1.5 3a.75.75 0 0 0-.75-.75h-9a.75.75 0 1 0 0 1.5h9a.75.75 0 0 0 .75-.75m-10.5 3A.75.75 0 0 1 7.5 18h6a.75.75 0 1 1 0 1.5h-6a.75.75 0 0 1-.75-.75" clip-rule="evenodd"/></svg>