<svg width="24" height="24" viewBox="0 0 24 24" fill="none" xmlns="http://www.w3.org/2000/svg"><path d="M20.57 15.887c-.136-.353-1.027-2.534-3.043-3.56.762-.736 1.253-1.83 1.253-3.06 0-2.218-1.57-4.017-3.503-4.017-1.533 0-2.816 1.14-3.292 2.714-.476-1.575-1.767-2.714-3.292-2.714-1.925-.007-3.496 1.799-3.496 4.01 0 1.23.49 2.316 1.254 3.059-2.016 1.026-2.907 3.215-3.043 3.568-.272.577-.65 1.604-.204 2.3.128.21.445.555 1.08.555h3.865a.755.755 0 0 0 .755-.75.755.755 0 0 0-.755-.749H4.533c.037-.195.128-.48.256-.734.016-.023.023-.053.03-.075.046-.128 1.163-3.141 3.882-3.141.475 0 .928.09 1.351.277a.758.758 0 0 0 .997-.39.742.742 0 0 0-.144-.809A4.066 4.066 0 0 0 12 10.58c.211.69.574 1.289 1.05 1.754-2.016 1.027-2.907 3.208-3.043 3.56-.272.577-.65 1.604-.204 2.301.128.21.445.555 1.08.555h8.834c.634 0 .943-.345 1.08-.555.437-.697.067-1.724-.205-2.3l-.022-.008ZM6.707 9.26c0-1.386.891-2.518 1.994-2.518 1.102 0 1.993 1.132 1.993 2.518 0 1.387-.891 2.519-1.993 2.519-1.103 0-1.994-1.132-1.994-2.519Zm6.592 0c0-1.386.89-2.518 1.993-2.518 1.102 0 1.993 1.132 1.993 2.518 0 1.387-.89 2.519-1.993 2.519-1.102 0-1.993-1.132-1.993-2.519Zm-2.175 7.976c.038-.195.128-.48.257-.735l.03-.075s1.14-3.14 3.881-3.14c2.74 0 3.828 2.99 3.88 3.14l.031.075c.128.263.219.54.257.735h-8.336Z" fill="currentColor"/></svg>