<svg xmlns="http://www.w3.org/2000/svg" width="24" height="25" fill="none" viewBox="0 0 24 25"><path fill="currentColor" fill-rule="evenodd" d="M12.41 14.323h-.82c-.498 0-.99-.1-1.459-.27l-.273.816L12 17.013l2.141-2.142-.272-.817c-.47.17-.96.27-1.46.27M8.318 8.805v.803c0 1.608 1.636 3.215 3.273 3.215h.819c1.635 0 3.272-1.607 3.272-3.215v-.803s.818 0 .818-.804v-.803c0-.804-.818-.804-.818-.804 1.636-2.41-.818-4.821-.818-4.821s-.819 1.607-4.092 1.607c-2.804 0-2.604 1.77-2.49 2.783.02.169.036.317.036.431-.818 0-.818.543-.818.804V8c0 .804.818.804.818.804M12 18.823a.75.75 0 0 1-.53-.22L8.817 15.95 5.45 17.274c-.653.256-1.117.782-1.241 1.406l-1.231 4.828a.75.75 0 0 1-1.454-.37l1.223-4.79c.215-1.088 1.024-2.026 2.155-2.47L8.4 14.503l.39-1.167.005-.01.005-.009c-1.12-.857-1.913-2.163-1.976-3.532C6.338 9.398 6 8.797 6 8.001v-.803c0-.834.3-1.404.731-1.768-.03-.762.073-1.746.807-2.566.7-.786 1.79-1.184 3.234-1.184 1.966 0 2.637-.667 2.77-.827.182-.453.546-.716 1.03-.824q.128-.03.255-.029c.404 0 .787.208 1.088.502.96.943 2.293 3.079 1.666 5.334.259.357.42.813.42 1.362V8c0 .796-.338 1.397-.824 1.784-.063 1.369-.855 2.675-1.977 3.532l.006.01q.003.003.005.009l.5 1.5a.75.75 0 0 1-.18.767l-3 3a.75.75 0 0 1-.53.22m9.045-2.956 1.298-1.297q.157.417.157.878a2.63 2.63 0 0 1-2.625 2.625 2.6 2.6 0 0 1-.873-.161l-5.831 5.83a1.12 1.12 0 0 1-1.592 0 1.124 1.124 0 0 1 0-1.59l5.832-5.831a2.6 2.6 0 0 1-.16-.873 2.63 2.63 0 0 1 2.624-2.625q.462 0 .878.157l-1.298 1.298a1.117 1.117 0 0 0 0 1.59c.218.217.51.33.795.33s.577-.113.795-.33" clip-rule="evenodd"/></svg>