<svg xmlns="http://www.w3.org/2000/svg" width="24" height="24" fill="none" viewBox="0 0 24 24"><path fill="currentColor" d="M8.25 7.29c0 .532-.202.787-.562 1.192a.748.748 0 0 0 .562 1.245c.21 0 .413-.082.563-.255.397-.45.937-1.057.937-2.19 0-1.132-.54-1.747-.937-2.197-.345-.39-.563-.63-.563-1.185s.173-.758.518-1.148l.037-.045c.278-.307.225-.765-.082-1.035-.308-.277-.803-.225-1.08.083-.398.45-.9 1.012-.9 2.145 0 1.132.54 1.74.937 2.182.338.383.563.638.563 1.2zm3.75 0c0 .532-.202.787-.562 1.192A.748.748 0 0 0 12 9.727c.21 0 .413-.082.563-.255.397-.45.937-1.057.937-2.19 0-1.132-.54-1.747-.937-2.197-.345-.39-.563-.63-.563-1.185s.173-.758.518-1.148l.037-.045c.278-.307.225-.765-.082-1.035-.308-.277-.803-.225-1.08.083-.398.45-.9 1.012-.9 2.145 0 1.132.54 1.74.937 2.182.338.383.563.638.563 1.2zm3.75 0c0 .532-.202.787-.562 1.192a.748.748 0 0 0 .562 1.245c.21 0 .413-.082.563-.255.397-.45.937-1.057.937-2.19 0-1.132-.54-1.747-.937-2.197-.345-.39-.563-.63-.563-1.185s.173-.758.518-1.148l.037-.045c.278-.307.225-.765-.082-1.035-.308-.277-.803-.225-1.08.083-.398.45-.9 1.012-.9 2.145 0 1.132.54 1.74.937 2.182.338.383.563.638.563 1.2zm7.05 3.195h-1.35c-.66 0-1.2.54-1.2 1.208v.3H3.75v-.3c0-.668-.54-1.208-1.2-1.208H1.2c-.66 0-1.2.54-1.2 1.208V21.3c0 .668.54 1.208 1.2 1.208h1.35c.66 0 1.2-.54 1.2-1.208V21h16.5v.3c0 .668.54 1.208 1.2 1.208h1.35c.66 0 1.2-.54 1.2-1.208v-9.607c0-.668-.54-1.208-1.2-1.208M1.5 21v-9.015h.75V21zm2.25-1.5v-6.007h16.5V19.5zM22.5 21h-.75v-9.015h.75z"/></svg>