<svg xmlns="http://www.w3.org/2000/svg" width="24" height="24" fill="none" viewBox="0 0 24 24"><path fill="currentColor" fill-rule="evenodd" d="m11.641 20.38 3.899 2.12H7.742zm-4.74-2.58 3.17 1.724-4.146 2.255zm1.688-6.885 1.862 1.51-2.788 2.263zm.303-8.01 1.792 2.263-1.792 2.263zM11.64 3.96 9.693 1.5h3.896zm2.75 3.472-1.793-2.263 1.792-2.263zM9.692 8.838l1.947-2.46 1.949 2.46zm3.332 1.5L11.64 11.46l-1.384-1.123zm-.194 2.089 1.862-1.51.925 3.772zm-1.19 6.245-3.894-2.119 3.894-3.16 3.894 3.16zm4.74-.87.976 3.978-4.145-2.255zm4.65 4.698h-1.953L15.889 9.496V7.589l3.223 1.558v.791h-.75a.75.75 0 1 0 0 1.5h1.5a.75.75 0 0 0 .75-.75V8.677a.75.75 0 0 0-.424-.675l-4.299-2.079V1.945l3.223 1.558v.791h-.75a.75.75 0 1 0 0 1.5h1.5a.75.75 0 0 0 .75-.75V3.033a.75.75 0 0 0-.424-.675L15.466.075c-.006-.003-.012-.002-.018-.005-.02-.01-.043-.014-.067-.02a1 1 0 0 0-.129-.03c-.032-.004-.063-.016-.094-.016-.006 0-.012-.004-.019-.004H8.142c-.006 0-.012.004-.018.004-.031 0-.061.012-.093.016A1 1 0 0 0 7.9.05q-.034.007-.066.02c-.006.003-.012.002-.018.005l-4.72 2.283a.75.75 0 0 0-.425.675v2.011c0 .414.336.75.75.75h1.5a.75.75 0 1 0 0-1.5h-.75v-.79l3.222-1.558v3.977L3.094 8.002a.75.75 0 0 0-.424.675v2.011c0 .415.336.75.75.75h1.5a.75.75 0 1 0 0-1.5h-.75v-.791L7.392 7.59v1.906L4.203 22.5H2.25a.75.75 0 1 0 0 1.5h18.782a.75.75 0 1 0 0-1.5" clip-rule="evenodd"/></svg>