<svg xmlns="http://www.w3.org/2000/svg" width="24" height="24" fill="none" viewBox="0 0 24 24"><path fill="currentColor" d="M4.286 16.179a.75.75 0 0 1 .75.75v3a.75.75 0 0 1-1.5 0v-3a.75.75 0 0 1 .75-.75m3.857 0a.75.75 0 0 1 .75.75v3a.75.75 0 0 1-1.5 0v-3a.75.75 0 0 1 .75-.75m3.857 0a.75.75 0 0 1 .75.75v3a.75.75 0 0 1-1.5 0v-3a.75.75 0 0 1 .75-.75m3.857 0a.75.75 0 0 1 .75.75v3a.75.75 0 0 1-1.5 0v-3a.75.75 0 0 1 .75-.75m3.857 0a.75.75 0 0 1 .75.75v3a.75.75 0 0 1-1.5 0v-3a.75.75 0 0 1 .75-.75"/><path fill="currentColor" fill-rule="evenodd" d="M20.571 12.857A3.43 3.43 0 0 1 24 16.286v4.285A3.43 3.43 0 0 1 20.571 24H3.43l-.177-.004A3.43 3.43 0 0 1 0 20.571v-4.285a3.43 3.43 0 0 1 3.252-3.424l.177-.005zm-17.142 1.5A1.93 1.93 0 0 0 1.5 16.286v4.285A1.93 1.93 0 0 0 3.429 22.5H20.57a1.93 1.93 0 0 0 1.93-1.93v-4.285a1.93 1.93 0 0 0-1.929-1.929z" clip-rule="evenodd"/><path fill="currentColor" d="M10.09 9.763a2.65 2.65 0 0 1 3.82 0 .75.75 0 1 1-1.077 1.044 1.15 1.15 0 0 0-1.667 0 .75.75 0 0 1-1.076-1.044M7.348 6.94a6.45 6.45 0 0 1 9.304 0 .75.75 0 0 1-1.076 1.044 4.95 4.95 0 0 0-7.152 0A.75.75 0 0 1 7.348 6.94"/><path fill="currentColor" d="M4.604 4.115a10.25 10.25 0 0 1 14.79 0A.75.75 0 1 1 18.32 5.16a8.753 8.753 0 0 0-12.638 0 .75.75 0 0 1-1.077-1.045"/></svg>