<svg xmlns="http://www.w3.org/2000/svg" width="24" height="24" fill="none" viewBox="0 0 24 24"><path fill="currentColor" d="M18 3c1.24 0 2.25 1.01 2.25 2.25v13.5c0 1.24-1.01 2.25-2.25 2.25H6c-1.24 0-2.25-1.01-2.25-2.25V5.25C3.75 4.01 4.76 3 6 3zM6 4.5a.75.75 0 0 0-.75.75v13.5c0 .414.336.75.75.75h12a.75.75 0 0 0 .75-.75V5.25A.75.75 0 0 0 18 4.5zm10.557 7.231a.75.75 0 0 1 .75.75v2.926a.75.75 0 0 1-.75.75h-9a.75.75 0 0 1-.75-.75v-2.926a.75.75 0 0 1 .75-.75zm-8.25 1.5v1.426h1.5v-1.426zm3 0v1.426h1.5v-1.426zm3 0v1.426h1.5v-1.426zm-5.25-5.924a.75.75 0 0 1 .75.75v1.798a.75.75 0 1 1-1.5 0V8.057a.75.75 0 0 1 .75-.75m3 0a.75.75 0 0 1 .75.75v1.798a.75.75 0 1 1-1.5 0V8.057a.75.75 0 0 1 .75-.75m3 0a.75.75 0 0 1 .75.75v1.798a.75.75 0 1 1-1.5 0V8.057a.75.75 0 0 1 .75-.75"/></svg>