<svg xmlns="http://www.w3.org/2000/svg" width="25" height="25" fill="none" viewBox="0 0 25 25"><path fill="currentColor" fill-rule="evenodd" d="M8.77 23.438H6.642v-3.433H8.77a1.717 1.717 0 0 1 0 3.433m9.955-11.231H1.562v-3.75L2.7 7.71h14.89l1.135.749zm-2.173 2.817a.79.79 0 0 1-1.577 0V13.77h1.577zm-11.27 0a.79.79 0 0 1-1.576 0V13.77h1.576zM5.47 1.562h9.35l1.847 4.585H3.624zm17.597 7.805h-2.779v-1.33a.78.78 0 0 0-.351-.653l-1.477-.972L16.07.489A.78.78 0 0 0 15.345 0H4.942a.78.78 0 0 0-.725.49L1.833 6.409l-1.48.975A.78.78 0 0 0 0 8.037v4.95c0 .433.35.782.781.782h1.363v1.255a2.354 2.354 0 0 0 2.35 2.352 2.353 2.353 0 0 0 2.35-2.352V13.77h6.568v1.255a2.354 2.354 0 0 0 2.351 2.352 2.354 2.354 0 0 0 2.352-2.352V13.77h1.391a.78.78 0 0 0 .781-.781V10.93h2.779a.37.37 0 0 1 .37.371v9.268a.37.37 0 0 1-.37.372H11.944a3.28 3.28 0 0 0-3.174-2.498H5.86a.78.78 0 0 0-.78.781v.372H3.362a.78.78 0 1 0 0 1.562h1.716v1.127H3.363a.78.78 0 1 0 0 1.563h1.716v.37c0 .433.35.782.781.782h2.91a3.28 3.28 0 0 0 3.174-2.497h11.122a1.936 1.936 0 0 0 1.933-1.934v-9.268a1.936 1.936 0 0 0-1.933-1.934M5.584 9.361H3.405a.78.78 0 1 0 0 1.563h2.179a.78.78 0 1 0 0-1.563m9.09.012h2.179a.78.78 0 1 1 0 1.563h-2.179a.78.78 0 1 1 0-1.563" clip-rule="evenodd"/></svg>