<svg xmlns="http://www.w3.org/2000/svg" width="24" height="24" fill="none" viewBox="0 0 24 24"><path fill="currentColor" fill-rule="evenodd" d="M20.795 11.773a611 611 0 0 0-2.43-1.365c-.128-.073-.18-.12-.185-.12h-.001q-.008-.04-.01-.079c-.1-.808-.583-1.215-1.848-1.558-1.219-.33-2.633-.717-3.448-.94l.29-1.454c.941.125 2.78.432 4.762 1.132 1.947.687 3.535 1.845 4.305 2.471zm2.973-2.566c-.092-.087-2.277-2.15-5.343-3.233-3.044-1.073-5.696-1.277-5.807-1.284a.737.737 0 0 0-.79.6l-.144.717c-1.373-.19-1.817-.735-2.315-1.359C8.782 3.913 8.053 3 6 3 4.15 3 3 4.437 3 6.75c0 2.514 2.287 4.066 4.498 5.568 1.93 1.31 3.753 2.548 3.753 4.182 0 1.12-.292 3-2.25 3-1.788 0-2.33-1.902-2.47-3.498-.103-1.196-.584-2.154-1.427-2.85C3.387 11.738.782 11.99.672 12.005a.75.75 0 0 0-.667.822.754.754 0 0 0 .822.67c.02-.004 2.1-.2 3.327.818.525.435.814 1.03.883 1.818C5.307 19.226 6.75 21 9 21c2.765 0 3.75-2.325 3.75-4.5 0-2.429-2.242-3.951-4.41-5.424C6.365 9.736 4.5 8.47 4.5 6.75c0-1.026.26-2.25 1.5-2.25 1.33 0 1.675.431 2.196 1.084.58.725 1.292 1.603 3.194 1.892l-.125.626a.75.75 0 0 0 .537.872s2.287.627 4.127 1.125c.476.129.673.228.748.274l.003.017c.053.443.206.91.955 1.328.955.532 2.996 1.684 2.996 1.685a.754.754 0 0 0 .969-.204l2.25-3a.75.75 0 0 0-.082-.992" clip-rule="evenodd"/></svg>