<svg xmlns="http://www.w3.org/2000/svg" width="24" height="24" fill="none" viewBox="0 0 24 24"><path fill="currentColor" d="M4.5 15.745a.75.75 0 0 0-.75.75v1.966A10.51 10.51 0 0 1 4.5 4.585a10.37 10.37 0 0 1 10.988-2.462.75.75 0 0 0 .967-.435.75.75 0 0 0-.442-.953 11.84 11.84 0 0 0-12.548 2.8 12.01 12.01 0 0 0-.81 15.962H.75a.75.75 0 0 0 0 1.501H4.5a.75.75 0 0 0 .75-.75v-3.753a.75.75 0 0 0-.75-.75M23.25 4.487a.75.75 0 0 0 0-1.5H19.5a.75.75 0 0 0-.75.75v3.752a.75.75 0 1 0 1.5 0V5.53a10.51 10.51 0 0 1-.75 13.854 10.3 10.3 0 0 1-10.95 2.462.755.755 0 0 0-1.042.707.76.76 0 0 0 .472.696c1.307.5 2.696.754 4.095.75a12 12 0 0 0 10.74-6.851 12.01 12.01 0 0 0-1.47-12.66z"/><path fill="currentColor" d="M9 12.743a4 4 0 0 0 .585-.053 3.56 3.56 0 0 0 2.325-1.448l1.313-1.854a.75.75 0 0 0-.173-1.043l-.263-.187.825-1.134a.75.75 0 0 0-.43-1.159.75.75 0 0 0-.784.289l-.825 1.14-1.5-1.11.794-1.103a.75.75 0 1 0-1.207-.886l-.847 1.103-.36-.262a.8.8 0 0 0-.563-.128.75.75 0 0 0-.487.3L6.083 7.07a3.626 3.626 0 0 0 .277 4.54l-.982 1.502A.75.75 0 0 0 6 14.244a.75.75 0 0 0 .623-.33l.96-1.441c.449.185.931.277 1.417.27M7.298 7.94l.885-1.246 3.39 2.447-.886 1.253a2.08 2.08 0 0 1-2.167.821A2.117 2.117 0 0 1 7.297 7.94m8.071 2.551a.8.8 0 0 0-.533.233c-.293.3-2.835 3.002-2.835 5.298s1.26 3.475 3.375 3.475a3.27 3.27 0 0 0 3.176-2.136c.159-.428.226-.884.199-1.339 0-2.401-2.558-5.02-2.842-5.306a.66.66 0 0 0-.54-.225m.75 7.37v-1.839a.75.75 0 1 0-1.5 0v1.869a1.7 1.7 0 0 1-1.118-1.869c0-1.133 1.095-2.702 1.883-3.655.75.923 1.867 2.462 1.867 3.655a1.75 1.75 0 0 1-1.125 1.839z"/></svg>