<svg xmlns="http://www.w3.org/2000/svg" width="25" height="24" fill="none" viewBox="0 0 25 24"><path fill="currentColor" fill-rule="evenodd" d="m8.145 19.786.076-.077.098.048a9 9 0 0 0 1.225.492c1.386.445 2.915.514 4.453.21 1.444-.284 2.832-.99 4.035-2.039.262-.228.468-.428.888-.858l.087-.09c.114-.116.184-.188.255-.258l.435-.435.904-.904a2.793 2.793 0 0 0 .149-3.77l-.091-.107.099-.099.009-.009.801-.801 1.603-1.603.013-.013.007-.007.02-.02a2.79 2.79 0 0 0-.001-3.93 2.79 2.79 0 0 0-3.93 0l-1.038 1.038-1.038 1.037-.37.37-.108.108-.107-.107-.305-.305-.364-.364.107-.108 2.407-2.407.02-.02.018-.018a2.79 2.79 0 0 0 0-3.93 2.79 2.79 0 0 0-3.93 0l-2.075 2.074-.476.476-.107-.09a2.793 2.793 0 0 0-3.77.148L5.948 5.614A8.9 8.9 0 0 0 3.732 9.33c-.425 1.403-.472 2.94-.146 4.455.139.646.36 1.28.66 1.892l.048.098-.076.077-.22.219-2.817 2.817-.372.372a2.79 2.79 0 0 0 0 3.931 2.79 2.79 0 0 0 3.93 0l.645-.645.645-.644.644-.645zm1.86-.973a7.7 7.7 0 0 1-2.024-.997l-2.374 2.375-1.934 1.933c-.49.49-1.308.49-1.797 0a1.283 1.283 0 0 1 0-1.797l.372-.372 2.817-2.818 1.126-1.125a7.1 7.1 0 0 1-1.13-2.544c-.263-1.218-.248-2.503.114-3.701a7.4 7.4 0 0 1 1.84-3.086L9.21 4.485c.49-.49 1.308-.49 1.797 0l1.01 1.01 1.545-1.544 2.076-2.075c.49-.49 1.307-.49 1.797 0s.49 1.307 0 1.797l-.039.039-3.58 3.58 1.43 1.432 1.48 1.479 1.544-1.545 2.075-2.075c.49-.49 1.308-.49 1.797 0 .49.49.49 1.308 0 1.797l-.038.04q-1.203 1.2-2.405 2.404L18.524 12l1.01 1.01c.49.49.49 1.308 0 1.798l-1.34 1.34c-.38.38-.748.782-1.153 1.135-.95.827-2.093 1.451-3.336 1.697-1.223.241-2.505.216-3.7-.167" clip-rule="evenodd"/></svg>