<svg width="24" height="24" viewBox="0 0 24 24" fill="none" xmlns="http://www.w3.org/2000/svg"><path fill-rule="evenodd" clip-rule="evenodd" d="M3.029 18.008c.427.157 2.437.817 6.72.817.278 0 .547 0 .803-.008a7.223 7.223 0 0 1-.053-.817 6.006 6.006 0 0 1 4.455-5.797c-.96-1.05-2.415-1.703-4.05-1.703h-2.31c-2.76 0-5.017 1.868-5.258 4.336l-.307 3.171ZM9.749 1.5A3.756 3.756 0 0 0 6 5.25C6 7.32 7.68 9 9.75 9c2.063 0 3.75-1.68 3.75-3.75A3.761 3.761 0 0 0 9.75 1.5Zm2.835 18.72A4.514 4.514 0 0 0 16.5 22.5c2.483 0 4.5-2.017 4.5-4.5a4.505 4.505 0 0 0-3.555-4.402 4.927 4.927 0 0 0-.946-.098c-.225 0-.442.015-.66.053A4.5 4.5 0 0 0 12 18c0 .262.023.51.068.758a4.25 4.25 0 0 0 .517 1.462Zm.473-10.897c1.537.464 2.828 1.418 3.652 2.684A6 6 0 0 1 22.5 18c0 3.308-2.692 6-6 6a6.003 6.003 0 0 1-5.536-3.69c-.382.008-.787.015-1.215.015-4.695 0-6.878-.765-7.35-.953-.563-.134-.953-.645-.893-1.215l.338-3.464c.247-2.558 2.1-4.612 4.598-5.37A5.23 5.23 0 0 1 4.499 5.25 5.256 5.256 0 0 1 9.749 0 5.256 5.256 0 0 1 15 5.25a5.23 5.23 0 0 1-1.942 4.072Zm4.763 7.042.398-.397a.756.756 0 0 1 1.065 0 .756.756 0 0 1 0 1.065l-1.291 1.29-1.133 1.132-.577.578a.765.765 0 0 1-.533.217.768.768 0 0 1-.532-.217l-.128-.128-1.32-1.32-.052-.052a.756.756 0 0 1 0-1.065.756.756 0 0 1 1.065 0l.795.795.172.18.308-.308.39-.39 1.373-1.38Z" fill="currentColor"/></svg>