<svg xmlns="http://www.w3.org/2000/svg" width="24" height="24" fill="none" viewBox="0 0 24 24"><path fill="currentColor" fill-rule="evenodd" d="M12 17.454c-1.685 0-3.277-.673-4.65-1.557l1.942-1.215A3.73 3.73 0 0 0 12 15.852a3.754 3.754 0 0 0 3.75-3.75c0-.461-.095-.898-.248-1.306l2.46-1.54a20 20 0 0 1 2.839 2.846c-1.091 1.349-4.68 5.352-8.8 5.352M9.807 12.59a2.2 2.2 0 0 1-.057-.488c0-1.24 1.01-2.25 2.25-2.25.528 0 1.008.19 1.39.495zm4.443-.488c0 1.241-1.01 2.25-2.25 2.25-.527 0-1.007-.19-1.39-.495l3.584-2.242q.054.236.056.487m-11.05 0c1.09-1.348 4.68-5.351 8.8-5.351 1.686 0 3.278.673 4.65 1.557l-1.94 1.215A3.73 3.73 0 0 0 12 8.353a3.754 3.754 0 0 0-3.75 3.75c0 .46.096.898.249 1.306l-2.46 1.539a20 20 0 0 1-2.84-2.846m19.16-.436c-.092-.13-1.234-1.698-3.05-3.253l2.838-1.777a.75.75 0 1 0-.795-1.271l-3.306 2.07C16.357 6.236 14.28 5.25 12 5.25c-5.704 0-10.172 6.154-10.36 6.415a.75.75 0 0 0 0 .873c.093.129 1.234 1.698 3.052 3.252l-2.84 1.777a.75.75 0 1 0 .796 1.272l3.306-2.07c1.69 1.198 3.766 2.184 6.046 2.184 5.705 0 10.173-6.154 10.36-6.415a.75.75 0 0 0 0-.873" clip-rule="evenodd"/></svg>