<svg xmlns="http://www.w3.org/2000/svg" width="24" height="24" fill="none" viewBox="0 0 24 24"><path fill="currentColor" d="M13.56 14.493c.862-.593 1.44-1.65 1.44-2.872 0-1.859-1.342-3.373-3-3.373s-3 1.514-3 3.373c0 1.222.585 2.287 1.455 2.88-2.182.726-3.15 2.825-3.3 3.185-.255.487-.607 1.364-.218 2.01.12.209.428.554 1.058.554h8.04c.63 0 .93-.345 1.058-.555.382-.645.037-1.522-.218-2.009-.15-.352-1.117-2.466-3.315-3.186zM12 9.747c.825 0 1.5.84 1.5 1.874s-.675 1.874-1.5 1.874-1.5-.84-1.5-1.874.675-1.874 1.5-1.874m-3.675 8.996c.038-.12.098-.262.173-.39l.037-.082c.037-.105 1.035-2.527 3.48-2.527s3.435 2.414 3.48 2.527l.038.082c.067.128.127.27.172.39zM5.22 15.745l-3.69-.015a3.2 3.2 0 0 1 .248-.645l.037-.082S3 11.997 5.843 11.997h.015c.48 0 .937.09 1.372.255a.745.745 0 0 0 .968-.428.744.744 0 0 0-.428-.967 3 3 0 0 0-.255-.082C8.4 10.19 9 9.118 9 7.88c0-1.859-1.342-3.373-3-3.373S3 6.015 3 7.874c0 1.184.548 2.226 1.38 2.826-2.632.742-3.787 3.328-3.945 3.726-.285.547-.667 1.536-.247 2.234.127.217.442.57 1.102.577l3.93.015c.413 0 .75-.338.75-.75s-.33-.75-.75-.75zM6 6c.825 0 1.5.84 1.5 1.874S6.825 9.748 6 9.748s-1.5-.84-1.5-1.874S5.175 6 6 6m17.565 8.425c-.158-.39-1.312-2.976-3.945-3.726.825-.6 1.38-1.641 1.38-2.826C21 6.014 19.657 4.5 18 4.5s-3 1.514-3 3.373c0 1.237.6 2.31 1.485 2.894-.082.03-.172.053-.255.083a.75.75 0 0 0-.428.966.75.75 0 0 0 .968.428 3.8 3.8 0 0 1 1.372-.255h.015c2.828 0 3.983 2.886 4.028 3.006l.038.083c.12.224.21.472.247.652l-3.69.015a.75.75 0 0 0-.75.75c0 .412.337.749.75.749l3.93-.015c.66 0 .975-.36 1.102-.577.42-.698.038-1.68-.247-2.234zM18 6c.825 0 1.5.84 1.5 1.874s-.675 1.875-1.5 1.875-1.5-.84-1.5-1.875C16.5 6.84 17.175 6 18 6"/></svg>