<svg xmlns="http://www.w3.org/2000/svg" width="24" height="24" fill="none" viewBox="0 0 24 24"><path fill="currentColor" fill-rule="evenodd" d="M17.891 14.53H3.701c-1.214 0-2.2-.987-2.2-2.202V9.28c0-4.29 3.49-7.78 7.78-7.78h1.243c.421 0 .764.343.764.764v4.693q-.12.04-.234.091l-2.6-2.6a.75.75 0 1 0-1.06 1.061l2.6 2.6a3 3 0 0 0-.08.196H6.25a.75.75 0 1 0 0 1.5h3.663A2.22 2.22 0 0 0 12 11.28a2.22 2.22 0 0 0 2.086-1.476h6.008v2.523a2.205 2.205 0 0 1-2.203 2.202m-6.684 2.612L9.162 16.03h4.09zM12 8.33a.726.726 0 1 1-.002 1.452A.726.726 0 0 1 12 8.329m4.111 10.506a1.833 1.833 0 0 1 0 3.664 1.834 1.834 0 0 1-1.832-1.832c0-1.01.822-1.832 1.832-1.832M6.303 22.5a1.834 1.834 0 0 1-1.832-1.832c0-1.01.822-1.832 1.832-1.832s1.832.822 1.832 1.832S7.314 22.5 6.303 22.5M23.792 6.133l-.68-.712a.75.75 0 0 0-.924-.126c-1.55.916-1.971 2.194-2.073 3.01h-6.029a2.22 2.22 0 0 0-1.298-1.324V2.264A2.266 2.266 0 0 0 10.524 0H9.281C4.163 0 .001 4.163.001 9.28v3.048a3.705 3.705 0 0 0 3.7 3.701h2.326l3.612 1.968-.857.466a3.3 3.3 0 0 0-2.478-1.128 3.336 3.336 0 0 0-3.333 3.332A3.336 3.336 0 0 0 6.304 24a3.336 3.336 0 0 0 3.331-3.332c0-.31-.056-.603-.135-.887l1.707-.929 1.707.93a3.3 3.3 0 0 0-.134.886A3.336 3.336 0 0 0 16.11 24a3.336 3.336 0 0 0 3.332-3.332 3.336 3.336 0 0 0-3.332-3.332c-.988 0-1.868.442-2.48 1.128l-.856-.466 3.612-1.968h1.505a3.706 3.706 0 0 0 3.702-3.701V8.986c0-.03-.003-.067-.006-.096-.006-.05-.114-1.104.886-1.965l.234.245a.75.75 0 1 0 1.084-1.037M6.303 19.93a.738.738 0 1 0 0 1.475.738.738 0 0 0 0-1.475m10.545.737a.737.737 0 1 1-1.474 0 .737.737 0 0 1 1.474 0" clip-rule="evenodd"/></svg>