<svg xmlns="http://www.w3.org/2000/svg" width="24" height="24" fill="none" viewBox="0 0 24 24"><path fill="currentColor" fill-rule="evenodd" d="M22.5 10.5h-.75a.75.75 0 0 0-.75.75v11.249h-.76l-.092-6.33c-.072-1.713-.454-2.944-1.078-3.607.267-.37.43-.822.43-1.312 0-1.24-1.01-2.25-2.25-2.25S15 10.01 15 11.25c0 .489.161.94.428 1.31-.623.662-1.004 1.893-1.076 3.608l-.035 2.424a3.1 3.1 0 0 0-.543-.725c.294-.38.476-.851.476-1.368 0-1.24-1.01-2.25-2.25-2.25s-2.25 1.01-2.25 2.25c0 .517.182.988.476 1.368a3.2 3.2 0 0 0-.628.866c-.132-1.47-.49-2.548-1.042-3.155.275-.373.444-.83.444-1.329 0-1.24-1.01-2.25-2.25-2.25a2.25 2.25 0 0 0-2.25 2.25c0 .498.168.954.442 1.327-.631.694-1.018 1.999-1.09 3.819l-.083 3.104H3v-11.25a.75.75 0 0 0-.75-.75H1.5V9.38L12 1.68l10.5 7.7zM17.25 12a.75.75 0 1 1 0-1.5.75.75 0 0 1 0 1.5m.586 1.5c.205 0 .731.785.813 2.71l.09 6.286-2.978.002.09-6.277c.083-1.938.601-2.722.802-2.722zM12 17.25a.75.75 0 1 1 0-1.501.75.75 0 0 1 0 1.5m.347 1.5c.394 0 .986.78 1.053 2.041l.07 1.706-2.94.001.07-1.701c.069-1.27.659-2.048 1.053-2.048zM6.75 15a.75.75 0 1 1 0-1.501.75.75 0 0 1 0 1.5m.586 1.5c.148 0 .725.738.813 2.945l.082 3.05-2.961.003.08-3.048c.09-2.213.658-2.95.803-2.95zM4.5 2.25H6v1.97l-1.5 1.1zm19.194 6.145L12.444.145a.75.75 0 0 0-.888 0L7.5 3.119V1.5a.75.75 0 0 0-.75-.75h-3A.75.75 0 0 0 3 1.5v4.92L.306 8.396A.75.75 0 0 0 0 9v2.25c0 .415.335.75.75.75h.75v11.25c0 .414.335.75.75.75h19.5a.75.75 0 0 0 .75-.75V12h.75a.75.75 0 0 0 .75-.75V9a.75.75 0 0 0-.306-.605" clip-rule="evenodd"/></svg>