<svg xmlns="http://www.w3.org/2000/svg" width="24" height="24" fill="none" viewBox="0 0 24 24"><path fill="currentColor" d="M21.75 6H21V2.25a.75.75 0 0 0-.75-.75H10.5a.75.75 0 0 0-.75.75V6h-1.5v-.375A1.875 1.875 0 0 0 6.375 3.75h-1.5A1.875 1.875 0 0 0 3 5.625V6h-.75A2.25 2.25 0 0 0 0 8.25v12a2.25 2.25 0 0 0 2.25 2.25h19.5A2.25 2.25 0 0 0 24 20.25v-12A2.25 2.25 0 0 0 21.75 6m-10.5 0V3h8.25v7.5h-8.25zM4.5 6v-.375a.375.375 0 0 1 .375-.375h1.5a.375.375 0 0 1 .375.375v12a.375.375 0 0 1-.375.375h-1.5a.375.375 0 0 1-.375-.375zm18 14.25a.75.75 0 0 1-.75.75H2.25a.75.75 0 0 1-.75-.75v-12a.75.75 0 0 1 .75-.75H3v10.125A1.875 1.875 0 0 0 4.875 19.5h1.5a1.875 1.875 0 0 0 1.875-1.875V7.5h1.5v3.75a.75.75 0 0 0 .75.75h9.75a.75.75 0 0 0 .75-.75V7.5h.75a.75.75 0 0 1 .75.75z"/><path fill="currentColor" d="M12 14.25h-.75a.75.75 0 1 0 0 1.5H12a.75.75 0 1 0 0-1.5m3.75 0H15a.75.75 0 1 0 0 1.5h.75a.75.75 0 1 0 0-1.5m3.75 0h-.75a.75.75 0 1 0 0 1.5h.75a.75.75 0 1 0 0-1.5m-7.5 3h-.75a.75.75 0 1 0 0 1.5H12a.75.75 0 1 0 0-1.5m3.75 0H15a.75.75 0 1 0 0 1.5h.75a.75.75 0 1 0 0-1.5m3.75 0h-.75a.75.75 0 1 0 0 1.5h.75a.75.75 0 1 0 0-1.5M13.5 6h3.75a.75.75 0 1 0 0-1.5H13.5a.75.75 0 1 0 0 1.5m0 3h3.75a.75.75 0 1 0 0-1.5H13.5a.75.75 0 1 0 0 1.5"/></svg>