<svg width="24" height="24" viewBox="0 0 24 24" fill="none" xmlns="http://www.w3.org/2000/svg"><path d="M19.5 7.5C19.5 3.367 16.133 0 12 0S4.5 3.368 4.5 7.5c0 3.338 2.19 6.18 5.22 7.148V16.5h-1.5c-.825 0-1.5.675-1.5 1.5v1.5a1.5 1.5 0 0 0 1.5 1.5h1.5v1.5c0 .825.675 1.5 1.5 1.5h1.5c.825 0 1.5-.675 1.5-1.5V21h1.5a1.5 1.5 0 0 0 1.5-1.5v-1.47c0-.825-.675-1.5-1.5-1.5h-1.5v-1.868c3.053-.945 5.28-3.802 5.28-7.162Zm-6.78 5.955v4.575h3v1.47h-3v3h-1.5v-3h-3V18h3v-4.553a5.897 5.897 0 0 1-1.5-.397A6.012 6.012 0 0 1 6 7.5c0-3.308 2.693-6 6-6s6 2.692 6 6a6.013 6.013 0 0 1-3.78 5.572 5.876 5.876 0 0 1-1.5.383Z" fill="currentColor"/><path d="M16.47 7.5c0-2.482-2.017-4.5-4.5-4.5a4.504 4.504 0 0 0-1.755 8.648 4.553 4.553 0 0 0 3.51 0A4.507 4.507 0 0 0 16.47 7.5Zm-4.5 3a3 3 0 1 1 0-6 3 3 0 1 1 0 6Z" fill="currentColor"/></svg>