<svg xmlns="http://www.w3.org/2000/svg" width="24" height="24" fill="none" viewBox="0 0 24 24"><path fill="currentColor" fill-rule="evenodd" d="M16.5 22.499H21v-9.75h-4.5zm-13.5 0h12v-9.75H3zM5.25 9.548c0-.377.143-.734.365-.966L7.25 7.125a.75.75 0 0 0 .25-.56V3.75H9v2.816a.75.75 0 0 0 .213.524l1.418 1.456c.308.318.515.744.515 1.06v1.612q0 .01.003.017l.004.015H5.25zm10.246-7.707c.378-.296.758-.397 1.204-.314q.023.002.044 0 .018-.003.037-.002l.01.004.009.004c.48.098.86.373 1.16.838 1.278 1.98.716 6.636.28 8.878h-5.595c.129-2.109.889-7.873 2.85-9.408m6.254 9.408h-1.985c.38-2.083 1.082-7.17-.543-9.69C18.699.746 17.984.243 17.1.062a.2.2 0 0 0-.059-.001H17q-.008-.001-.014-.005l-.015-.005c-.86-.16-1.689.051-2.401.609-1.633 1.278-2.5 4.267-2.955 6.745L10.5 6.26V3.749a.75.75 0 1 0 0-1.5H6a.75.75 0 1 0 0 1.5V6.23L4.577 7.501a2.93 2.93 0 0 0-.827 2.047v1.701h-1.5a.75.75 0 0 0-.75.75v11.25c0 .414.335.75.75.75h19.5a.75.75 0 0 0 .75-.75v-11.25a.75.75 0 0 0-.75-.75m-5.03-3.97a.75.75 0 0 0 1.06 0 .75.75 0 0 0 0-1.06l-1.5-1.5a.75.75 0 1 0-1.06 1.06zm-.75 3-1.5-1.5a.75.75 0 1 1 1.06-1.06l1.5 1.5a.75.75 0 1 1-1.06 1.06" clip-rule="evenodd"/></svg>