<svg xmlns="http://www.w3.org/2000/svg" width="24" height="24" fill="none" viewBox="0 0 24 24"><path fill="currentColor" fill-rule="evenodd" d="M22.24 22.332a.77.77 0 0 1-.58.171.72.72 0 0 1-.498-.293l-4.64-6.46-.544.221c-.868.353-1.846-.015-2.683-1.01-1.194-1.42-1.863-3.556-.915-4.354.524-.44 1.28-.282 1.82-.072.802.31 1.666.953 2.31 1.72.839.997 1.034 2.023.536 2.817l-.311.499 5.57 5.68a.7.7 0 0 1 .203.538.76.76 0 0 1-.268.543M12.155 15.92c1.101 1.31 2.49 1.884 3.81 1.608l.353.49a7.35 7.35 0 0 1-4.235 1.334c-4.1 0-7.436-3.335-7.436-7.435S7.983 4.48 12.083 4.48s7.435 3.336 7.435 7.436a7.4 7.4 0 0 1-.87 3.476l-.065-.067c.498-1.255.17-2.72-.931-4.03-.812-.964-1.873-1.75-2.914-2.152-1.293-.502-2.473-.388-3.317.323-1.721 1.446-.978 4.417.734 6.453M12 22.51C6.204 22.509 1.49 17.794 1.49 12S6.205 1.49 12 1.49c5.794 0 10.51 4.716 10.51 10.51 0 2.229-.526 4.046-1.637 5.66l-1.137-1.159a8.86 8.86 0 0 0 1.273-4.584c0-4.922-4.003-8.926-8.925-8.926s-8.927 4.004-8.927 8.926 4.005 8.926 8.927 8.926a8.8 8.8 0 0 0 5.103-1.616l.934 1.301a10.52 10.52 0 0 1-6.12 1.98m9.93-3.77C23.331 16.81 24 14.657 24 12c0-6.617-5.383-12-12-12S0 5.383 0 12c0 6.616 5.383 12 12 12 2.506 0 4.957-.803 6.989-2.263l.963 1.342a2.22 2.22 0 0 0 1.8.92 2.25 2.25 0 0 0 1.447-.526c.477-.402.768-.99.798-1.612a2.22 2.22 0 0 0-.628-1.655z" clip-rule="evenodd"/></svg>