<svg xmlns="http://www.w3.org/2000/svg" width="24" height="25" fill="none" viewBox="0 0 24 25"><path fill="currentColor" fill-rule="evenodd" d="M18.818 19.755a10.4 10.4 0 0 1-3.137 1.886c-.123.047-.244-.082-.193-.203l.782-1.845a.475.475 0 0 1 .488-.291l1.972.188c.13.012.187.179.088.265m-12.282-.822a.48.48 0 0 1 .451.333l.579 1.779c.041.126-.093.246-.213.186a10.4 10.4 0 0 1-2.801-2.061c-.092-.096-.018-.26.115-.26zm14.74-11.466a10.2 10.2 0 0 1 .982 3.238c.017.134-.143.221-.249.137l-1.463-1.175a.48.48 0 0 1-.151-.54l.601-1.643c.046-.124.223-.135.28-.017M15.26 15.62a.48.48 0 0 1-.033-.38l1.072-3.22a.48.48 0 0 1 .285-.295l2.352-.906a.49.49 0 0 1 .474.075s1.84 1.472 2.653 2.117a.5.5 0 0 1 .178.455 10.1 10.1 0 0 1-1.65 4.282.5.5 0 0 1-.452.214c-.573-.06-3.537-.355-3.569-.355a.48.48 0 0 1-.378-.252zM8.6 18.117l1.316-1.638a.48.48 0 0 1 .38-.179l3.17.037c.176.003.336.1.42.254l.918 1.716c.07.129.078.28.02.416 0 0-.946 2.25-1.355 3.245a.49.49 0 0 1-.394.297 10 10 0 0 1-1.093.067c-.67 0-1.361-.072-2.053-.214a.49.49 0 0 1-.37-.327c-.664-2.064-.927-2.885-1.08-3.21l.037-.013a.48.48 0 0 1 .084-.451m-6.62-4.874 2.62-2.178a.48.48 0 0 1 .443-.092l2.334.687a.48.48 0 0 1 .322.313l.984 3.029a.48.48 0 0 1-.082.45L7.284 17.09a.48.48 0 0 1-.38.18l-3.55-.047a.49.49 0 0 1-.42-.26 10.2 10.2 0 0 1-1.12-3.255.5.5 0 0 1 .166-.464M7.633 2.628a.5.5 0 0 1 .496.042l2.677 1.93c.12.087.194.223.2.371l.111 2.836a.48.48 0 0 1-.198.41l-2.517 1.811a.48.48 0 0 1-.418.072l-2.67-.786a.47.47 0 0 1-.31-.285l-1.17-2.954a.49.49 0 0 1 .075-.484 10.4 10.4 0 0 1 3.724-2.963m4.234.511a.19.19 0 0 1-.228.002l-1.465-1.055c-.107-.077-.069-.251.06-.274a9.9 9.9 0 0 1 3.052-.063c.134.017.177.193.07.274zm8.004 2.568L18.68 8.954a.48.48 0 0 1-.28.284l-2.293.882a.48.48 0 0 1-.454-.056l-2.662-1.89a.48.48 0 0 1-.202-.374l-.116-2.918a.48.48 0 0 1 .193-.403l2.604-1.957a.51.51 0 0 1 .485-.056c1.458.61 2.78 1.561 3.821 2.751a.49.49 0 0 1 .095.49m-6.106 8.631a.49.49 0 0 1-.467.33l-2.635-.032a.48.48 0 0 1-.451-.333l-.82-2.516a.48.48 0 0 1 .179-.54l2.134-1.54a.48.48 0 0 1 .561-.001l2.17 1.542a.48.48 0 0 1 .176.545zM1.73 10.94c.109-1.022.373-2.036.776-2.985.051-.123.232-.119.281.006l.6 1.507a.48.48 0 0 1-.14.549L1.98 11.07c-.104.085-.265.002-.25-.131m22.27.963a12 12 0 0 0-.17-1.867 12 12 0 0 0-1.383-3.926 12.2 12.2 0 0 0-4.04-4.248A11.94 11.94 0 0 0 12.048 0c-2.52-.009-5.002.78-7.047 2.251a12 12 0 0 0-1.807 1.6C.884 6.356-.236 9.615.042 13.028a11.9 11.9 0 0 0 1.994 5.677 12.1 12.1 0 0 0 4.418 3.947 12.06 12.06 0 0 0 7.042 1.257 12 12 0 0 0 6.204-2.705 12.1 12.1 0 0 0 3.425-4.677c.605-1.473.895-3.045.874-4.624" clip-rule="evenodd"/></svg>