<svg xmlns="http://www.w3.org/2000/svg" width="24" height="24" fill="none" viewBox="0 0 24 24"><path fill="currentColor" fill-rule="evenodd" d="m8.439 4.847-.59-.35.881-1.566.507.3c.238.14.53.14.765 0l.764-.452a.75.75 0 0 0 .367-.645V1.5h1.734v.657c0 .265.14.51.368.645l.744.441a.75.75 0 0 0 .764 0l.527-.312.88 1.568-.572.34a.75.75 0 0 0-.368.645v.86c0 .266.14.51.368.645l.573.34-.881 1.568-.597-.354a.75.75 0 0 0-.765 0l-.673.4a.75.75 0 0 0-.368.644v.741h-1.734v-.717a.75.75 0 0 0-.367-.646l-.693-.41a.76.76 0 0 0-.765 0l-.578.341-.88-1.566.589-.349a.75.75 0 0 0 .367-.646v-.843a.75.75 0 0 0-.367-.645M6.182 7.426 7.798 10.3a.75.75 0 0 0 1.037.279l.798-.474v.973c0 .414.336.75.75.75h3.234a.75.75 0 0 0 .75-.75v-.973l.798.474a.75.75 0 0 0 1.036-.278l1.617-2.875a.75.75 0 0 0-.271-1.013l-.837-.495.837-.503a.75.75 0 0 0 .271-1.013l-1.616-2.875a.753.753 0 0 0-1.037-.277l-.798.473V.75a.75.75 0 0 0-.75-.75h-3.234a.75.75 0 0 0-.75.75v.957l-.013.007-.785-.464a.75.75 0 0 0-1.037.277L6.182 4.402a.75.75 0 0 0 .272 1.013l.842.499-.842.5a.75.75 0 0 0-.272 1.012m16.013 10.021-10.256 4.999L1.5 19.198V14.04h5.212c2.968 0 3.53 1.76 3.549 1.826a.75.75 0 0 0 .724.556h5.069a.542.542 0 0 1 0 1.081H9.107a.75.75 0 1 0 0 1.5h6.947c.341 0 .657-.09.938-.238l.016-.004.02-.005 4.693-2.284a.544.544 0 0 1 .724.249.543.543 0 0 1-.25.725m1.598-1.382a2.03 2.03 0 0 0-1.17-1.035 2.02 2.02 0 0 0-1.56.094l-3.006 1.464a2.04 2.04 0 0 0-1.996-1.664h-.003l-.003-.001h-4.579c-.455-.854-1.698-2.382-4.764-2.382H.75a.75.75 0 0 0-.75.75v6.459c0 .328.214.62.527.716l11.25 3.5h.006l.005.002q.1.03.204.03L12 24h.002c.103 0 .2-.029.291-.068l.015-.003q.01 0 .021-.005l10.524-5.13a2.045 2.045 0 0 0 .94-2.73M13.66 5.915a1.66 1.66 0 1 1-3.32-.001 1.66 1.66 0 0 1 3.32 0" clip-rule="evenodd"/></svg>