<svg width="24" height="25" viewBox="0 0 24 25" fill="none" xmlns="http://www.w3.org/2000/svg"><path d="M15.742 18.742H8.25a.752.752 0 0 0-.75.75c0 .413.338.75.75.75h7.492c.413 0 .75-.337.75-.75a.752.752 0 0 0-.75-.75Zm0-3H8.25a.752.752 0 0 0-.75.75c0 .413.338.75.75.75h7.492c.413 0 .75-.337.75-.75a.752.752 0 0 0-.75-.75Zm0-3H8.25a.752.752 0 0 0-.75.75c0 .413.338.75.75.75h7.492c.413 0 .75-.337.75-.75a.752.752 0 0 0-.75-.75Z" fill="currentColor"/><path d="M23.235 22.493H22.5L22.485 8.64l.352.233c.128.082.27.127.413.127a.751.751 0 0 0 .413-1.38L12.42.128a.762.762 0 0 0-.832 0L.345 7.62a.758.758 0 0 0-.21 1.043.755.755 0 0 0 1.042.21l.338-.225.015 13.845H.75a.752.752 0 0 0-.75.75c0 .412.338.75.75.75h1.47s.037.015.06.015l9.165-.015h11.79c.413 0 .75-.338.75-.75a.752.752 0 0 0-.75-.75Zm-17.242 0v-11.13c0-.465.307-.863.667-.863h10.65c.367 0 .668.398.668.863v11.122h-6.533l-5.46.008h.007ZM3.006 7.65 12 1.658l8.977 5.985.015 14.842h-1.515V11.363c0-1.305-.974-2.363-2.167-2.363H6.66c-1.192 0-2.168 1.058-2.168 2.363v11.13h-1.47L3.009 7.65Z" fill="currentColor"/></svg>