<svg xmlns="http://www.w3.org/2000/svg" width="24" height="24" fill="none" viewBox="0 0 24 24"><path fill="currentColor" fill-rule="evenodd" d="M16.496 11.982c3.042-.096 4.912-.765 6.004-1.402v3.385c-.43.418-2.018 1.63-6 1.768v-3.734zM1.5 16.968v-3.387C2.68 14.27 4.754 15 8.25 15c3.494 0 5.57-.73 6.75-1.42v3.386c-.457.444-2.208 1.785-6.75 1.785-4.567 0-6.309-1.35-6.75-1.782M8.25 8.25c5.004 0 6.346 2.596 6.668 3.543-.569.507-2.373 1.707-6.668 1.707-4.18 0-5.998-1.133-6.613-1.656.508-1.006 2.244-3.594 6.613-3.594m7.5-3c5.01 0 6.349 2.601 6.668 3.543-.56.498-2.319 1.666-6.465 1.704-.675-1.242-2.155-2.952-5.32-3.537 1.057-.912 2.674-1.71 5.117-1.71M24 9c0-.02-.01-.037-.012-.057s.005-.042.002-.064c-.009-.051-.929-5.129-8.24-5.129-3.699 0-5.834 1.583-7.02 3.022-.163-.005-.312-.022-.48-.022-6.466 0-8.143 4.81-8.21 5.014-.01.027-.003.056-.01.085C.02 11.9 0 11.947 0 12v5.25c0 .024.012.044.013.067q.007.074.03.146.022.074.058.142c.01.019.012.041.024.06.176.266 1.896 2.585 8.125 2.585 6.218 0 7.947-2.318 8.124-2.582.013-.02.015-.044.026-.065a.7.7 0 0 0 .056-.136.7.7 0 0 0 .029-.143c.002-.026.015-.047.015-.073v-.018c5.6-.179 7.204-2.312 7.374-2.565.013-.02.015-.044.026-.065a.7.7 0 0 0 .056-.135.7.7 0 0 0 .029-.144c.002-.026.015-.047.015-.074z" clip-rule="evenodd"/></svg>