<svg xmlns="http://www.w3.org/2000/svg" width="24" height="24" fill="none" viewBox="0 0 24 24"><path fill="currentColor" d="M12 16.5a4.5 4.5 0 1 1 0-9 4.5 4.5 0 0 1 0 9M12 9a3 3 0 1 0 0 6 3 3 0 0 0 0-6"/><path fill="currentColor" d="M12.937 24h-1.875a1.77 1.77 0 0 1-1.74-1.455l-.187-1.035a10 10 0 0 1-1.815-.75l-.878.607a1.78 1.78 0 0 1-2.25-.202L2.85 19.822a1.785 1.785 0 0 1-.203-2.25l.675-.974a10 10 0 0 1-.645-1.68l-1.222-.225A1.77 1.77 0 0 1 0 12.938v-1.875a1.77 1.77 0 0 1 1.455-1.74l1.387-.255c.173-.492.386-.97.638-1.425l-.832-1.208a1.78 1.78 0 0 1 .202-2.25L4.177 2.85a1.785 1.785 0 0 1 2.25-.202l1.298.9Q8.34 3.224 9 3l.292-1.575A1.77 1.77 0 0 1 11.062 0h1.875a1.77 1.77 0 0 1 1.74 1.455L15 3q.667.21 1.297.518l1.29-.9a1.785 1.785 0 0 1 2.25.202l1.313 1.358a1.78 1.78 0 0 1 .202 2.25l-.832 1.2q.378.685.637 1.425l1.388.255A1.77 1.77 0 0 1 24 11.063v1.875a1.77 1.77 0 0 1-1.455 1.74l-1.223.224a8.7 8.7 0 0 1-.645 1.68l.675.983a1.76 1.76 0 0 1-.202 2.25l-1.328 1.335a1.785 1.785 0 0 1-2.25.202l-.877-.607q-.867.463-1.808.75l-.195 1.035A1.77 1.77 0 0 1 12.937 24M7.29 19.102c.14 0 .278.039.397.113.708.442 1.48.77 2.288.975a.75.75 0 0 1 .547.592l.278 1.5a.27.27 0 0 0 .262.225h1.875a.263.263 0 0 0 .263-.225l.277-1.5a.75.75 0 0 1 .548-.592 8 8 0 0 0 2.287-.975.75.75 0 0 1 .825 0l1.275.877a.27.27 0 0 0 .353 0l1.32-1.342a.285.285 0 0 0 0-.352l-.93-1.35a.75.75 0 0 1 0-.795 8.3 8.3 0 0 0 .84-2.183.75.75 0 0 1 .592-.57l1.695-.307a.285.285 0 0 0 .225-.27v-1.875a.285.285 0 0 0-.225-.27l-1.837-.278a.75.75 0 0 1-.585-.525 7.8 7.8 0 0 0-.87-1.942.75.75 0 0 1 0-.818l1.102-1.59a.285.285 0 0 0 0-.352L18.75 3.915a.27.27 0 0 0-.353 0l-1.65 1.118a.75.75 0 0 1-.75.045 8.2 8.2 0 0 0-1.845-.75.75.75 0 0 1-.577-.578l-.368-2.025a.28.28 0 0 0-.27-.225h-1.875a.285.285 0 0 0-.27.225l-.367 2.025a.75.75 0 0 1-.54.593 8.3 8.3 0 0 0-1.838.75.75.75 0 0 1-.795 0L5.587 3.885a.255.255 0 0 0-.345 0L3.915 5.25a.285.285 0 0 0 0 .353l1.072 1.575a.75.75 0 0 1 0 .817 7.8 7.8 0 0 0-.87 1.943.75.75 0 0 1-.585.525l-1.83.33a.285.285 0 0 0-.224.27v1.875a.285.285 0 0 0 .225.27l1.717.292a.75.75 0 0 1 .592.57c.178.763.46 1.498.84 2.183a.75.75 0 0 1 0 .794l-.937 1.35a.285.285 0 0 0 0 .353l1.335 1.335a.27.27 0 0 0 .352 0l1.275-.878a.75.75 0 0 1 .413-.105"/></svg>