<svg xmlns="http://www.w3.org/2000/svg" width="24" height="24" fill="none" viewBox="0 0 24 24"><path fill="currentColor" fill-rule="evenodd" d="M23.246 3.302h.02a.75.75 0 0 1-.016 1.501h-.043c-.203 0-1.49.022-3.094.428a17.3 17.3 0 0 1-1.888 3.29c1.655-.318 3.266-.277 3.554-.266a.75.75 0 0 1 .72.779c-.016.413-.364.756-.778.72-1.158-.045-4.42.09-5.59 1.214l-2.423 2.33a.75.75 0 0 1-1.04-1.082l2.417-2.324a17.7 17.7 0 0 0 3.005-3.965 9.7 9.7 0 0 0-2.462 1.559.1.1 0 0 1-.034.021l-.024.014-.084.095q-.069.083-.147.163l-3.565 3.564a.75.75 0 1 1-1.061-1.061l3.565-3.564c2.327-2.329 1.5-5.75 1.49-5.785a.75.75 0 1 1 1.456-.366c.03.117.49 2.032-.114 4.163a13 13 0 0 1 1.882-.748c.408-1.091.507-1.794.511-1.821V2.16a.75.75 0 0 1 1.49.18c-.005.054-.063.499-.27 1.215a14 14 0 0 1 2.523-.253M2.908 21.092c1.255 1.253 2.528 1.664 2.927 1.265l6.348-6.349c-.866-.24-1.785-.784-2.596-1.595-.796-.795-1.333-1.735-1.57-2.623l-6.374 6.375c-.4.4.012 1.673 1.265 2.927m9.71-6.513c.49.132.9.094 1.097-.102a.75.75 0 1 1 1.061 1.062l-7.88 7.88c-.392.39-.903.58-1.483.58-1.066 0-2.362-.642-3.566-1.845-1.859-1.86-2.38-3.936-1.265-5.05l7.88-7.88a.75.75 0 1 1 1.06 1.06c-.137.14-.212.526-.07 1.082.17.672.607 1.395 1.196 1.986.606.605 1.324 1.052 1.97 1.227" clip-rule="evenodd"/></svg>