<svg xmlns="http://www.w3.org/2000/svg" width="24" height="24" fill="none" viewBox="0 0 24 24"><path fill="currentColor" fill-rule="evenodd" d="M11.25 3.976 9.824 1.824a7.53 7.53 0 0 0-4.02 2.957l2.888 2.114c.193.14.306.366.306.605v4.099l1.917 1.277c.208.14.333.373.333.624v2.962q.372.038.75.038c1.054 0 2.057-.22 2.967-.615l-1.389-2.801a.76.76 0 0 1-.078-.334V10.5a.75.75 0 0 1 .75-.75H18c.186 0 .364.068.501.192l.807.723A7.5 7.5 0 0 0 19.5 9c0-.317-.026-.63-.064-.937l-3.1-2.025-4.213.702A.752.752 0 0 1 11.25 6zm5.66.646 1.89 1.235C17.61 3.29 15.012 1.5 12 1.5a7 7 0 0 0-.546.027l-.025.002 1.196 1.808a.74.74 0 0 1 .124.413v1.365l3.627-.605a.76.76 0 0 1 .534.112M15 12.574l1.278 2.578a7.55 7.55 0 0 0 2.495-2.951l-1.06-.951h-2.714zM5.08 6.11A7.45 7.45 0 0 0 4.5 9c0 3.351 2.21 6.195 5.25 7.154v-2.252l-1.916-1.278A.75.75 0 0 1 7.5 12V7.88zM4.2 4.525l.006-.006A9.02 9.02 0 0 1 9.96.243l.02-.007A9 9 0 0 1 12 0c4.43 0 8.111 3.217 8.855 7.435q.01.045.015.09l.002.018c.077.475.128.96.128 1.457a9 9 0 0 1-.636 3.303C19.043 15.636 15.796 18 12 18c-4.963 0-9-4.037-9-9 0-1.61.43-3.12 1.175-4.43q.006-.01.009-.02l.009-.02zM12 18.75c2.662 0 5.202-1.014 6.97-2.78a.749.749 0 1 1 1.06 1.06c-1.878 1.878-4.5 3.01-7.28 3.184V22.5h3a.75.75 0 1 1 0 1.5h-7.5a.75.75 0 1 1 0-1.5h3v-2.288C5.396 19.823.75 14.95.75 9c0-3.057 1.173-5.983 3.22-8.03a.75.75 0 1 1 1.06 1.06C3.264 3.799 2.25 6.339 2.25 9c0 5.376 4.374 9.75 9.75 9.75" clip-rule="evenodd"/></svg>