<svg xmlns="http://www.w3.org/2000/svg" width="24" height="24" fill="none" viewBox="0 0 24 24"><path fill="currentColor" d="M22.856 24H1.148c-.427 0-.809-.232-1.01-.608a1.13 1.13 0 0 1 .06-1.177l6.164-10.24c.464-.698 1.498-.668 1.925-.03l.517.765 3.558-5.889c.232-.345.584-.54.973-.54.382 0 .742.195.952.51l9.535 15.446c.217.33.24.78.045 1.156a1.13 1.13 0 0 1-1.011.607m-.307-.975s.007.015.015.022zM1.77 22.492h20.457L13.335 8.097l-3.61 5.97.592.886a.75.75 0 1 1-1.244.84l-1.722-2.565z"/><path fill="currentColor" d="M13.298 7.789a.75.75 0 0 1-.75-.75V4.472c0-.413.338-.75.75-.75s.749.337.749.75v2.565c0 .413-.337.75-.75.75"/><path fill="currentColor" d="M12.549 5.719V1.12c0-.383.187-.735.51-.938A1.1 1.1 0 0 1 14.121.1h.008l2.786 1.29c.39.173.637.555.652.983a1.12 1.12 0 0 1-.592 1.028l-4.434 2.318zm1.498-4.006v1.53l1.55-.81z"/></svg>