<svg xmlns="http://www.w3.org/2000/svg" width="25" height="24" fill="none" viewBox="0 0 25 24"><path fill="currentColor" fill-rule="evenodd" d="M12.842 8.393a.75.75 0 1 1-1.5 0V3.75a.75.75 0 1 1 1.5 0zm2.472 9.964-2.085 4.068h8.83l-2.085-4.068zm-11.232 0-2.084 4.068h8.83l-2.085-4.068zm6.347 0 1.6 3.123 1.6-3.123zm3.993-5.57h-4.66l-2.085 4.07h8.83zm6.01 4.07c.282 0 .54.157.669.408l2.852 5.568a.748.748 0 0 1-.668 1.092H.772a.75.75 0 0 1-.668-1.092l2.853-5.568a.75.75 0 0 1 .667-.409h2.368l2.644-5.16a.75.75 0 0 1 .667-.408h5.578a.75.75 0 0 1 .667.408l2.644 5.16zm-3.505-7.143a.75.75 0 0 0 .937-.496l1.363-4.44a.75.75 0 0 0-1.434-.44L16.43 8.776a.75.75 0 0 0 .497.937m5.899-1.621a.75.75 0 1 1 1.216.878l-2.72 3.764a.747.747 0 0 1-1.047.169.75.75 0 0 1-.168-1.048zM6.32 9.217a.75.75 0 0 0 1.434-.44l-1.363-4.44a.75.75 0 0 0-1.434.441zm-2.85 3.829a.75.75 0 0 1-.608-.31L.142 8.97a.75.75 0 1 1 1.216-.878l2.72 3.763a.75.75 0 0 1-.607 1.19" clip-rule="evenodd"/></svg>