<svg xmlns="http://www.w3.org/2000/svg" width="24" height="24" fill="none" viewBox="0 0 24 24"><path fill="currentColor" fill-rule="evenodd" d="M19.39 15.787V8.212A3.87 3.87 0 0 1 22.5 12a3.87 3.87 0 0 1-3.11 3.787M13.106 22.5h-2.212a.727.727 0 0 1-.726-.725c0-.4.326-.726.726-.726h2.212a.726.726 0 0 1 0 1.451m6.248-15.807C19.002 2.943 15.84 0 12 0S4.999 2.944 4.646 6.693A5.364 5.364 0 0 0 0 12a5.367 5.367 0 0 0 5.36 5.36.75.75 0 1 0 0-1.5A3.865 3.865 0 0 1 1.501 12a3.87 3.87 0 0 1 3.111-3.788v5.399a.75.75 0 1 0 1.5 0V7.39A5.896 5.896 0 0 1 12 1.5a5.896 5.896 0 0 1 5.89 5.89v11.434c0 1.213-.987 2.2-2.202 2.2h-.495a2.22 2.22 0 0 0-2.087-1.475h-2.212a2.23 2.23 0 0 0-2.226 2.226c0 1.227.998 2.225 2.226 2.225h2.212c.963 0 1.777-.618 2.087-1.476h.495a3.705 3.705 0 0 0 3.702-3.7v-1.516A5.37 5.37 0 0 0 24 12c0-2.713-2.027-4.956-4.646-5.307" clip-rule="evenodd"/></svg>