<svg width="24" height="24" viewBox="0 0 24 24" fill="none" xmlns="http://www.w3.org/2000/svg">
<path d="M20.4525 3.465C18.3563 1.39568 15.5723 0.169589 12.6306 0.0202217C9.68888 -0.129146 6.79498 0.808643 4.5 2.655V0.75C4.5 0.551088 4.42098 0.360322 4.28033 0.21967C4.13968 0.0790176 3.94891 0 3.75 0C3.55109 0 3.36032 0.0790176 3.21967 0.21967C3.07902 0.360322 3 0.551088 3 0.75V4.5C3 4.69891 3.07902 4.88968 3.21967 5.03033C3.36032 5.17098 3.55109 5.25 3.75 5.25H7.5C7.69891 5.25 7.88968 5.17098 8.03033 5.03033C8.17098 4.88968 8.25 4.69891 8.25 4.5C8.25 4.30109 8.17098 4.11032 8.03033 3.96967C7.88968 3.82902 7.69891 3.75 7.5 3.75H5.535C7.54146 2.16511 10.0573 1.36682 12.6105 1.5049C15.1636 1.64298 17.5787 2.70795 19.4025 4.5C20.8269 5.90017 21.8167 7.68182 22.2531 9.63091C22.6895 11.58 22.5539 13.6136 21.8625 15.4875C21.8275 15.5796 21.811 15.6777 21.814 15.7761C21.8169 15.8746 21.8392 15.9715 21.8796 16.0614C21.92 16.1512 21.9777 16.2322 22.0494 16.2997C22.1211 16.3673 22.2054 16.42 22.2975 16.455C22.382 16.4839 22.4707 16.4991 22.56 16.5C22.7107 16.4975 22.8571 16.4496 22.9802 16.3626C23.1032 16.2757 23.1973 16.1537 23.25 16.0125C24.0404 13.8736 24.1968 11.5521 23.7006 9.32642C23.2044 7.10079 22.0766 5.0656 20.4525 3.465Z" fill="black"/>
<path d="M20.2501 18.75H16.5001C16.3011 18.75 16.1104 18.8291 15.9697 18.9697C15.8291 19.1104 15.7501 19.3011 15.7501 19.5C15.7501 19.699 15.8291 19.8897 15.9697 20.0304C16.1104 20.171 16.3011 20.25 16.5001 20.25H18.4576C16.4528 21.8287 13.9417 22.6233 11.3937 22.4853C8.84565 22.3472 6.4351 21.286 4.61256 19.5C3.18735 18.1084 2.19638 16.3332 1.75974 14.3896C1.32311 12.4461 1.45956 10.4176 2.15256 8.55005C2.2236 8.36502 2.21851 8.15939 2.13841 7.9781C2.0583 7.79681 1.9097 7.6546 1.72506 7.58255C1.54003 7.51151 1.3344 7.5166 1.15312 7.5967C0.971827 7.6768 0.829615 7.82541 0.757559 8.01005C-0.0420128 10.1489 -0.203286 12.4739 0.293324 14.7027C0.789934 16.9314 1.92306 18.968 3.55506 20.565C5.80537 22.7813 8.84168 24.0163 12.0001 24C14.7292 23.9937 17.3747 23.0572 19.5001 21.345V23.25C19.5001 23.449 19.5791 23.6397 19.7197 23.7804C19.8604 23.921 20.0511 24 20.2501 24C20.449 24 20.6397 23.921 20.7804 23.7804C20.921 23.6397 21.0001 23.449 21.0001 23.25V19.5C21.0001 19.3011 20.921 19.1104 20.7804 18.9697C20.6397 18.8291 20.449 18.75 20.2501 18.75Z" fill="black"/>
<path d="M9.06747 17.5725C9.1288 17.7012 9.22559 17.8099 9.34647 17.8856C9.46736 17.9613 9.60733 18.001 9.74997 18C9.8595 18.0009 9.96761 17.9752 10.065 17.925C10.245 17.8404 10.384 17.6878 10.4515 17.5008C10.519 17.3137 10.5095 17.1075 10.425 16.9275C9.44247 14.85 9.90747 13.695 10.425 12.3525C10.8912 11.4372 11.1343 10.4246 11.1343 9.39746C11.1343 8.3703 10.8912 7.35771 10.425 6.44246C10.3845 6.35203 10.3264 6.27052 10.2543 6.20264C10.1821 6.13476 10.0972 6.08186 10.0044 6.04699C9.91165 6.01213 9.81291 5.99598 9.71389 5.9995C9.61486 6.00301 9.51751 6.02611 9.42747 6.06746C9.33769 6.10866 9.25694 6.16717 9.18984 6.23966C9.12274 6.31215 9.07062 6.39718 9.03647 6.48986C9.00233 6.58255 8.98682 6.68106 8.99085 6.77976C8.99489 6.87845 9.01837 6.97537 9.05997 7.06496C9.44548 7.79412 9.64701 8.60642 9.64701 9.43121C9.64701 10.256 9.44548 11.0683 9.05997 11.7975C8.59827 12.6902 8.35795 13.6808 8.35926 14.6859C8.36056 15.6909 8.60346 16.6809 9.06747 17.5725Z" fill="black"/>
<path d="M13.5675 17.5725C13.6288 17.7012 13.7256 17.8099 13.8465 17.8856C13.9674 17.9613 14.1073 18.001 14.25 18C14.3594 18.0003 14.4674 17.9746 14.565 17.925C14.745 17.8404 14.884 17.6878 14.9515 17.5008C15.019 17.3137 15.0095 17.1075 14.925 16.9275C13.9425 14.85 14.4075 13.695 14.925 12.3525C15.3912 11.4372 15.6343 10.4246 15.6343 9.39746C15.6343 8.3703 15.3912 7.35771 14.925 6.44246C14.8845 6.35203 14.8264 6.27052 14.7543 6.20264C14.6821 6.13476 14.5972 6.08186 14.5044 6.04699C14.4117 6.01213 14.3129 5.99598 14.2139 5.9995C14.1149 6.00301 14.0175 6.02611 13.9275 6.06746C13.8377 6.10866 13.7569 6.16717 13.6898 6.23966C13.6227 6.31215 13.5706 6.39718 13.5365 6.48986C13.5023 6.58255 13.4868 6.68106 13.4909 6.77976C13.4949 6.87845 13.5184 6.97537 13.56 7.06496C13.9455 7.79412 14.147 8.60642 14.147 9.43121C14.147 10.256 13.9455 11.0683 13.56 11.7975C13.0983 12.6902 12.858 13.6808 12.8593 14.6859C12.8606 15.6909 13.1035 16.6809 13.5675 17.5725Z" fill="black"/>
</svg>
