<svg width="24" height="24" viewBox="0 0 24 24" fill="none" xmlns="http://www.w3.org/2000/svg"><path d="M20.453 3.465A12 12 0 0 0 4.5 2.655V.75a.75.75 0 0 0-1.5 0V4.5a.75.75 0 0 0 .75.75H7.5a.75.75 0 0 0 0-1.5H5.535a10.5 10.5 0 0 1 13.867.75 10.373 10.373 0 0 1 2.46 10.988.748.748 0 0 0 .698 1.012.75.75 0 0 0 .69-.488 11.85 11.85 0 0 0-2.797-12.547ZM20.25 18.75H16.5a.75.75 0 0 0 0 1.5h1.958a10.5 10.5 0 0 1-13.845-.75 10.297 10.297 0 0 1-2.46-10.95.75.75 0 0 0-.428-.967.75.75 0 0 0-.967.427 11.79 11.79 0 0 0 2.797 12.555A11.947 11.947 0 0 0 12 24a12 12 0 0 0 7.5-2.655v1.905a.75.75 0 1 0 1.5 0V19.5a.75.75 0 0 0-.75-.75Z" fill="currentColor"/><path d="M9.067 17.573A.75.75 0 0 0 9.75 18c.11 0 .218-.025.315-.075a.75.75 0 0 0 .36-.998c-.983-2.077-.518-3.232 0-4.575a6.511 6.511 0 0 0 0-5.91.751.751 0 1 0-1.365.623 5.063 5.063 0 0 1 0 4.732 6.27 6.27 0 0 0 .007 5.776Zm4.501 0a.75.75 0 0 0 .682.427.69.69 0 0 0 .315-.075.75.75 0 0 0 .36-.998c-.982-2.077-.518-3.232 0-4.575a6.511 6.511 0 0 0 0-5.91.751.751 0 1 0-1.365.623 5.063 5.063 0 0 1 0 4.732 6.27 6.27 0 0 0 .008 5.776Z" fill="currentColor"/></svg>