<svg xmlns="http://www.w3.org/2000/svg" width="24" height="24" fill="none" viewBox="0 0 24 24"><path fill="currentColor" d="M17.708 8.565a2.7 2.7 0 0 0 1.042-2.13V4.5h.39c.615 0 1.11-.502 1.11-1.11V1.11c0-.615-.503-1.11-1.11-1.11H4.86c-.607 0-1.11.502-1.11 1.11v2.273c0 .615.503 1.11 1.11 1.11h.39v1.935c0 .832.39 1.627 1.043 2.13l4.477 3.435-4.477 3.435a2.7 2.7 0 0 0-1.043 2.13v1.935h-.39c-.615 0-1.11.502-1.11 1.11v2.272c0 .615.503 1.11 1.11 1.11h14.28c.615 0 1.11-.502 1.11-1.11v-2.273c0-.614-.503-1.11-1.11-1.11h-.39v-1.934c0-.833-.39-1.628-1.043-2.13l-4.477-3.436 4.477-3.435zM5.25 1.5h13.5V3H5.25zm13.5 21H5.25V21h13.5zm-1.5-4.935V19.5H6.75v-1.935c0-.367.173-.72.457-.937L12 12.953l4.793 3.675c.285.217.457.57.457.937M16.793 7.38 12 11.055 7.208 7.38a1.19 1.19 0 0 1-.458-.937V4.508h10.5v1.935c0 .367-.172.72-.457.937"/></svg>