<svg xmlns="http://www.w3.org/2000/svg" width="24" height="24" fill="none" viewBox="0 0 24 24"><path fill="currentColor" d="M11.853.152a1.3 1.3 0 0 1 1.221 0L23.23 5.496c.434.225.703.674.704 1.161V9.14c0 .726-.593 1.311-1.312 1.311v.007h-.944v8.664h.952c.727 0 1.311.592 1.311 1.312v2.256c0 .726-.592 1.31-1.311 1.311H2.312A1.313 1.313 0 0 1 1 22.689v-2.256c0-.727.592-1.312 1.312-1.312h.944v-8.664h-.944A1.313 1.313 0 0 1 1 9.146V6.665c0-.487.27-.937.704-1.162zM2.49 22.502h19.944v-1.889H2.49zm5.09-3.38h2.72v-8.665H7.58zm7.044 0h2.451v-8.665h-2.451zm-9.878-.01h1.327v-8.655H4.747zm7.053 0h1.326v-8.655H11.8zm6.775 0h1.604v-8.655h-1.604zM2.491 6.777v2.181h.765v-.001H7.58v.001h2.72v-.001h4.325v.001h2.451v-.001h4.602v.001h.757v-2.18L12.459 1.53z"/></svg>