<svg width="24" height="24" viewBox="0 0 24 24" fill="none" xmlns="http://www.w3.org/2000/svg">
<path fill-rule="evenodd" clip-rule="evenodd" d="M1.5 12C1.5 6.21 6.21 1.5 12 1.5C17.79 1.5 22.5 6.21 22.5 12C22.5 17.79 17.79 22.5 12 22.5C6.21 22.5 1.5 17.79 1.5 12ZM0 12C0 18.6165 5.3835 24 12 24C18.6165 24 24 18.6165 24 12C24 5.3835 18.6165 0 12 0C5.3835 0 0 5.3835 0 12ZM13.508 6.75803C13.508 7.58603 12.836 8.25803 12.008 8.25803C11.18 8.25803 10.508 7.58603 10.508 6.75803C10.508 5.93003 11.18 5.25803 12.008 5.25803C12.836 5.25803 13.508 5.93003 13.508 6.75803ZM10.875 9.7501V18.4674H13.125V9.7501H10.875Z" fill="black"/>
</svg>
