<svg xmlns="http://www.w3.org/2000/svg" width="24" height="24" fill="none" viewBox="0 0 24 24"><path fill="currentColor" fill-rule="evenodd" d="M5.25 2.25H3a1.5 1.5 0 0 0-1.5 1.5V6A1.5 1.5 0 0 0 3 7.5h2.25A1.5 1.5 0 0 0 6.75 6V3.75a1.5 1.5 0 0 0-1.5-1.5M3 3.75h2.25V6H3zM5.25 9H3a1.5 1.5 0 0 0-1.5 1.5v2.25a1.5 1.5 0 0 0 1.5 1.5h2.25a1.5 1.5 0 0 0 1.5-1.5V10.5A1.5 1.5 0 0 0 5.25 9M3 10.5h2.25v2.25H3zm0 5.25h2.25a1.5 1.5 0 0 1 1.5 1.5v2.25a1.5 1.5 0 0 1-1.5 1.5H3a1.5 1.5 0 0 1-1.5-1.5v-2.25a1.5 1.5 0 0 1 1.5-1.5m2.25 1.5H3v2.25h2.25zm4-13.5a1 1 0 0 0-1 1V5a1 1 0 0 0 1 1H21.5a1 1 0 0 0 1-1v-.25a1 1 0 0 0-1-1zm-1 7.75a1 1 0 0 1 1-1H21.5a1 1 0 0 1 1 1v.25a1 1 0 0 1-1 1H9.25a1 1 0 0 1-1-1zm1 5.75a1 1 0 0 0-1 1v.25a1 1 0 0 0 1 1H21.5a1 1 0 0 0 1-1v-.25a1 1 0 0 0-1-1z" clip-rule="evenodd"/></svg>