<svg xmlns="http://www.w3.org/2000/svg" width="24" height="24" fill="none" viewBox="0 0 24 24"><path fill="currentColor" fill-rule="evenodd" d="M11.507 9.955v-.003c.226-1.595-.739-3.242-2.197-3.75a3.5 3.5 0 0 0-1.139-.197 3.16 3.16 0 0 0-1.561.416c.486.658 1.2 1.081 1.952 1.081h.024l.002.001h.014a1.125 1.125 0 0 1 0 2.25 1.124 1.124 0 0 1-1.107-.934 4.2 4.2 0 0 1-1.962-1.34 3.37 3.37 0 0 0-.479 1.836c.025.97.479 1.949 1.186 2.553a.75.75 0 0 1 .223.806l-2.715 8.183.447.81.858-.376.121-.454.424-1.279-.432-.802a.75.75 0 0 1 .359-1.043l.806-.353.075-.23-.373-1.08a.75.75 0 0 1 .298-.873l.927-.606.466-1.415a.75.75 0 0 1 .695-.516c1.581-.037 2.88-1.167 3.088-2.685M7.453.825c2.826-.404 4.307.984 4.748 2.627 0 0-.48-.155-1.575-.075-.081-.318-.84-1.456-2.928-1.073-.58.106-1.038.388-1.341.837-.332.493-.443 1.174-.328 1.887a4.76 4.76 0 0 1 3.775-.242c2.146.747 3.516 3.058 3.189 5.376-.285 2.073-1.928 3.657-4 3.936l-.391 1.191a.75.75 0 0 1-.303.393l-.657.43.265.768a.75.75 0 0 1 .004.482l-.263.787a.75.75 0 0 1-.41.45l-.367.162.201.37a.75.75 0 0 1 .051.593l-.689 2.082a1.42 1.42 0 0 1-.783.86l-1.105.486a1.3 1.3 0 0 1-.483.096 1.19 1.19 0 0 1-1.057-.63L2.42 21.52a1.44 1.44 0 0 1-.094-1.137L4.89 12.65a5.08 5.08 0 0 1-1.337-3.296c-.032-1.27.395-2.46 1.184-3.336l-.01-.032a4 4 0 0 1-.147-.499c-.247-1.178-.058-2.31.532-3.185A3.35 3.35 0 0 1 7.453.824M19.89 19.277a.64.64 0 0 0 .652-.083c.255-.21.285-.555.075-.78a.62.62 0 0 0-.637-.15.59.59 0 0 0-.413.488.53.53 0 0 0 .323.524m-1.943-2.01c.21.224.585.24.833.037a.56.56 0 0 0 .21-.375.5.5 0 0 0-.135-.398l-1.05-1.124c-.21-.226-.585-.24-.833-.038-.255.203-.285.548-.074.772zm-2.692-2.873a.68.68 0 0 0 .713-.098c.277-.217.315-.6.082-.847a.68.68 0 0 0-.697-.165.64.64 0 0 0-.45.533.58.58 0 0 0 .352.577m-.232-3.232 6.36 6.825c.524.555.442 1.417-.172 1.912-.616.503-1.539.458-2.063-.098l-6.316-6.734a2 2 0 0 0 .1-.115l.043-.05h.007a5.6 5.6 0 0 0 1.178-2.663q.033-.178.045-.368.022-.248.022-.495a5.6 5.6 0 0 0-3.285-5.107c.09-.015.188-.015.285-.015 2.484 0 4.5 2.017 4.5 4.5a4.47 4.47 0 0 1-.704 2.407" clip-rule="evenodd"/></svg>