<svg xmlns="http://www.w3.org/2000/svg" width="24" height="24" fill="none" viewBox="0 0 24 24"><path fill="currentColor" fill-rule="evenodd" d="M7.07 2.386A1.194 1.194 0 1 0 7.071 0a1.194 1.194 0 0 0 0 2.387M1.774 19.593A4.425 4.425 0 0 0 5.922 22.5a4.42 4.42 0 0 0 4.147-2.907zm3.453-6.48a.75.75 0 0 1-.542.721 4.43 4.43 0 0 0-3.184 4.26h8.841v-.009l.001-.007a4.435 4.435 0 0 0-3.205-4.25.75.75 0 0 1-.544-.721V9.704H5.227zm2.867-3.409v2.866a5.95 5.95 0 0 1 3.75 5.508A5.93 5.93 0 0 1 5.921 24 5.93 5.93 0 0 1 0 18.078a5.945 5.945 0 0 1 3.727-5.5V9.705h-.435a.75.75 0 1 1 0-1.5h5.172a.75.75 0 0 1 0 1.5zm6.074 9.89L12.824 22.5h9.234l-1.345-2.907zm2.58-5.746a.75.75 0 0 1-.069.316l-1.817 3.93h5.157l-1.835-3.964a.75.75 0 0 1-.069-.315V10.98h-1.367zm2.867-.198 4.296 9.285a.75.75 0 0 1-.68 1.065h-11.58a.75.75 0 0 1-.68-1.065l4.277-9.251v-2.705h-.393a.75.75 0 1 1 0-1.5h5.172a.75.75 0 1 1 0 1.5h-.412zm-7.924-9.558a1.193 1.193 0 1 1-2.387 0 1.193 1.193 0 0 1 2.387 0m6.31 2.347a1.193 1.193 0 1 0 2.386 0 1.193 1.193 0 0 0-2.385 0m-2.033-.732a1.194 1.194 0 1 1-2.387-.001 1.194 1.194 0 0 1 2.387 0m1.193-2.46a1.193 1.193 0 1 0 0-2.386 1.193 1.193 0 0 0 0 2.386M6.35 5.164a1.193 1.193 0 1 1-2.386 0 1.193 1.193 0 0 1 2.386 0" clip-rule="evenodd"/></svg>