<svg xmlns="http://www.w3.org/2000/svg" width="24" height="24" fill="none" viewBox="0 0 24 24"><path fill="currentColor" fill-rule="evenodd" d="M20.074 18.704c-.34-1.522-1.329-3.815-4.203-5.42A5.23 5.23 0 0 0 17.25 9.75 5.256 5.256 0 0 0 12 4.5a5.256 5.256 0 0 0-5.25 5.25c0 1.361.526 2.6 1.38 3.533-2.875 1.605-3.864 3.898-4.204 5.42A10.45 10.45 0 0 1 1.5 12C1.5 6.21 6.21 1.5 12 1.5S22.5 6.21 22.5 12c0 2.546-.912 4.883-2.427 6.703M12 13.5a3.755 3.755 0 0 1-3.75-3.75A3.755 3.755 0 0 1 12 6a3.754 3.754 0 0 1 3.75 3.75A3.755 3.755 0 0 1 12 13.5m-6.75 6.532c.026-.784.376-3.905 4.168-5.717a5.2 5.2 0 0 0 5.164 0c3.792 1.813 4.142 4.935 4.166 5.717A10.45 10.45 0 0 1 12 22.5c-2.569 0-4.922-.932-6.75-2.468M12 0C5.383 0 0 5.383 0 12s5.383 12 12 12 12-5.383 12-12S18.617 0 12 0" clip-rule="evenodd"/></svg>