<svg xmlns="http://www.w3.org/2000/svg" width="24" height="24" fill="none" viewBox="0 0 24 24"><path fill="currentColor" d="M14.251 4.5c.827 0 1.5.664 1.5 1.48v.765h4.84c.56 0 1.064.296 1.317.774l2.018 4.147c.002.005 0 .013.003.019a.74.74 0 0 1 .071.31v3.75c0 .813-.687 1.5-1.5 1.5h-.788a2.62 2.62 0 0 1-2.587 2.25 2.62 2.62 0 0 1-2.587-2.25h-8.56a2.62 2.62 0 0 1-2.586 2.256 2.62 2.62 0 0 1-2.588-2.256H1.487c-.82 0-1.487-.664-1.487-1.48V5.98C0 5.164.668 4.5 1.487 4.5zM4.334 17.244c.154.439.567.756 1.058.756.49 0 .903-.317 1.056-.756zm14.792-1.5c-.62 0-1.125.505-1.125 1.125s.505 1.125 1.125 1.125 1.125-.505 1.125-1.125-.505-1.125-1.125-1.125M1.487 6l.013 9.766 2.016-.02H14.25V5.978zm14.264 2.242v7.502h1.013a2.62 2.62 0 0 1 2.362-1.5c1.043 0 1.938.618 2.361 1.501h1.014v-3h-4.5a.75.75 0 0 1-.75-.75V8.23zm-4.501-.748a.75.75 0 0 1 .751.75v2.25a.75.75 0 0 1-.751.75v2.25a.75.75 0 0 1-.75.75H5.25a.75.75 0 0 1-.75-.75v-2.25a.75.75 0 0 1-.75-.75v-2.25a.75.75 0 0 1 .75-.75zM6 11.244v1.5h3.75v-1.5zm12.751-3.03v3.03h3.3l-1.48-3.047zm-13.501.78v.75h5.25v-.75z"/></svg>