<svg xmlns="http://www.w3.org/2000/svg" width="24" height="24" fill="none" viewBox="0 0 24 24"><path fill="currentColor" d="M23.93 11.684q-.003-.008-.004-.018L21.908 7.52a1.48 1.48 0 0 0-1.317-.774h-4.84V5.98c0-.816-.672-1.48-1.5-1.48H1.487C.667 4.5 0 5.164 0 5.98v9.851c0 .816.668 1.48 1.487 1.48H2.81a2.62 2.62 0 0 0 2.581 2.19 2.62 2.62 0 0 0 2.588-2.256h8.559a2.62 2.62 0 0 0 2.587 2.25 2.62 2.62 0 0 0 2.587-2.25h.788c.813 0 1.5-.687 1.5-1.5v-3.75a.74.74 0 0 0-.071-.31zm-1.878-.44h-3.301v-3.03l1.82-.016zM1.487 6l12.763-.02v9.765h-6.5a2.62 2.62 0 0 0-2.359-1.494c-1.07 0-1.989.646-2.398 1.566l-1.494.015-.012-9.83zm3.904 12a1.126 1.126 0 0 1 0-2.25c.62 0 1.125.505 1.125 1.125S6.011 18 5.391 18m13.735-.006a1.126 1.126 0 0 1 0-2.25c.62 0 1.125.505 1.125 1.125s-.505 1.125-1.125 1.125m2.361-2.25a2.62 2.62 0 0 0-2.361-1.5 2.62 2.62 0 0 0-2.362 1.5H15.75V8.242l1.5-.014v3.767c0 .415.335.75.75.75h4.5v3h-1.014"/></svg>