<svg width="24" height="25" viewBox="0 0 24 25" fill="none" xmlns="http://www.w3.org/2000/svg"><path d="M12 24.002c-4.073 0-7.387-3.322-7.387-7.41S7.927 9.182 12 9.182c4.073 0 7.387 3.322 7.387 7.41s-3.314 7.41-7.387 7.41Zm0-13.316c-3.247 0-5.884 2.652-5.884 5.906 0 3.254 2.637 5.907 5.884 5.907 3.246 0 5.884-2.653 5.884-5.907S15.246 10.686 12 10.686Z" fill="currentColor"/><path d="M10.084 20.37a.783.783 0 0 1-.489-.164l-.376-.279.053-.526.293-1.713-1.24-1.217a.816.816 0 0 1-.203-.85.814.814 0 0 1 .669-.556l1.706-.248.766-1.555a.832.832 0 0 1 .744-.466.84.84 0 0 1 .744.458l.767 1.556 1.706.248a.828.828 0 0 1 .458 1.405l-1.247 1.218.293 1.713a.819.819 0 0 1-.323.804.831.831 0 0 1-.872.068l-1.526-.804-1.525.804a.836.836 0 0 1-.391.097l-.007.008Zm.27-4.012.45.436c.377.375.301.849.271 1.007l-.082.503.977-.518.42.188.624.33-.188-1.097.293-.338.527-.511-1.098-.158-.233-.39-.315-.647-.489.992-.443.098-.714.105Zm6.809-4.065a.751.751 0 0 1-.654-1.12L22.596.382a.751.751 0 0 1 1.307.736L17.816 11.91a.74.74 0 0 1-.653.383Zm-4.817-1.803a.751.751 0 0 1-.654-1.12L16.764.382a.751.751 0 0 1 1.308.736L13 10.106a.74.74 0 0 1-.654.383Zm-5.509 1.803a.74.74 0 0 1-.654-.383L.096 1.118A.751.751 0 0 1 1.404.382l6.087 10.791a.751.751 0 0 1-.654 1.12Z" fill="currentColor"/><path d="M11.654 10.49a.74.74 0 0 1-.653-.384L5.928 1.118A.751.751 0 0 1 7.236.382l5.072 8.988a.751.751 0 0 1-.654 1.12Z" fill="currentColor"/></svg>