<svg xmlns="http://www.w3.org/2000/svg" width="24" height="24" fill="none" viewBox="0 0 24 24"><path fill="currentColor" fill-rule="evenodd" d="M7.273 22.5H9.46v-4.033H7.273zm13.627 0h-9.939v-4.783a.75.75 0 0 0-.75-.75H6.523a.75.75 0 0 0-.75.75V22.5H3.576V8.258L12 1.701l8.15 6.343V14.3a.75.75 0 1 0 1.5 0V9.212l1.14.887a.75.75 0 0 0 1.051-.131.75.75 0 0 0-.13-1.053L12.46.159a.75.75 0 0 0-.922 0L.29 8.915a.751.751 0 0 0 .922 1.184l.865-.674V23.25c0 .415.335.75.75.75H20.9a.75.75 0 1 0 0-1.5m-10.69-8.473H6.523a.75.75 0 1 0 0 1.5h3.689a.75.75 0 1 0 0-1.5m-3.688-2.94h3.689a.75.75 0 1 1 0 1.5H6.522a.75.75 0 1 1 0-1.5m3.689-2.95H6.522a.75.75 0 1 0 0 1.5h3.689a.75.75 0 1 0 0-1.5m3.26 0h3.689a.75.75 0 1 1 0 1.5h-3.69a.75.75 0 1 1 0-1.5m3.689 2.95H13.47a.75.75 0 1 0 0 1.5h3.689a.75.75 0 1 0 0-1.5m-1.291 7.846 1.263 1.034a1.848 1.848 0 0 0 2.34-2.862l-1.262-1.032-2.017 2.465zm5.428 1.08c.378.235 1 .487 1.857.376a.75.75 0 1 1 .192 1.489q-.314.04-.603.04a4.2 4.2 0 0 1-2.392-.737 3.354 3.354 0 0 1-4.17-.053l-1.843-1.51a.75.75 0 0 1-.104-1.055l.323-.395-1.488-1.219a.75.75 0 0 1 .951-1.16l1.488 1.218.742-.908-1.488-1.218a.75.75 0 0 1 .95-1.16l1.488 1.217.325-.396a.75.75 0 0 1 1.056-.105l1.843 1.508a3.35 3.35 0 0 1 .873 4.069" clip-rule="evenodd"/></svg>