<svg width="24" height="24" viewBox="0 0 24 24" fill="none" xmlns="http://www.w3.org/2000/svg"><path fill-rule="evenodd" clip-rule="evenodd" d="M15.518 11.973a.91.91 0 0 0 1.82 0 .91.91 0 0 0-.908-.908h-.003a.594.594 0 0 0-.155.027l-.052.013a.894.894 0 0 0-.694.828.077.077 0 0 1-.004.02.072.072 0 0 0-.004.02Zm-4.058 8.1h4.217v-5.802a2.367 2.367 0 0 1-1.598-1.773l-.006-.023a2.463 2.463 0 0 1-.056-.5v-.002l.001-.009a2.452 2.452 0 0 1 .058-.501l.003-.012a2.383 2.383 0 0 1 .136-.43 2.35 2.35 0 0 1 1.255-1.256c.01-.006.02-.01.032-.014l.019-.008.063-.027c.03-.013.061-.026.093-.037V3.895H11.46v16.178ZM1.492 3.76l.008 16.4 8.476 2.34-.002-1.602a.162.162 0 0 0-.007-.035c-.003-.013-.007-.026-.007-.04V3.142a.01.01 0 0 0 .002-.004l-.002-1.65L1.492 3.76Zm15.685 5.936a2.405 2.405 0 0 1 1.66 2.278c0 1.065-.7 1.96-1.66 2.277v6.204a1.12 1.12 0 0 1-1.119 1.12h-4.6v.937c0 .467-.212.898-.583 1.181a1.474 1.474 0 0 1-1.294.254l-8.484-2.34A1.49 1.49 0 0 1 0 20.17L.002 3.747a1.49 1.49 0 0 1 1.104-1.438L9.59.05a1.482 1.482 0 0 1 1.29.258c.369.284.58.714.58 1.18v.906h4.598a1.12 1.12 0 0 1 1.12 1.12v6.18ZM6.653 11.234h1.844a.75.75 0 1 1 0 1.5H6.653a.75.75 0 1 1 0-1.5Zm13.303-2.78a.75.75 0 1 0-1.06 1.06 3.496 3.496 0 0 1 0 4.939.75.75 0 1 0 1.06 1.06 4.997 4.997 0 0 0 0-7.059Zm.766-1.834a.75.75 0 0 1 1.06 0c2.954 2.954 2.954 7.757 0 10.71a.745.745 0 0 1-.53.22.75.75 0 0 1-.53-1.28 6.08 6.08 0 0 0 0-8.59.75.75 0 0 1 0-1.06Z" fill="currentColor"/></svg>