<svg xmlns="http://www.w3.org/2000/svg" width="24" height="24" fill="none" viewBox="0 0 24 24"><path fill="currentColor" d="M19.5 11.244c-.62 0-1.209.125-1.747.353a27 27 0 0 1-.843-2.309c.384.228.957.413 1.812.448a.754.754 0 0 0 .778-.753V7.499a.754.754 0 0 0-.778-.753c-1.353.055-1.999.484-2.31.87-.088-.316-.17-.619-.247-.898-.517-1.896-.71-2.605-1.309-2.83-1.39-.523-3.09.602-3.279.732a.75.75 0 0 0 .847 1.24c.356-.243 1.19-.66 1.736-.606.143.337.36 1.136.556 1.853-3.33.216-4.467 1.709-4.837 2.512-2.023.426-2.753-.817-2.83-.96a1 1 0 0 0-.067-.111c-.1-.136-1.053-1.317-3.894-1.027-2.193.225-3.13 1.317-3.087 2.3.035.775.711 1.657 2.388 1.953a4.51 4.51 0 0 0-2.385 3.973 4.506 4.506 0 0 0 4.5 4.503 4.504 4.504 0 0 0 4.354-3.39 6.9 6.9 0 0 0 2.289.376 9 9 0 0 0 2.57-.396.75.75 0 0 0 .532-.788c-.003-.03-.226-2.786 1.925-4.34q.142.36.297.715a4.5 4.5 0 0 0-1.47 3.32 4.506 4.506 0 0 0 4.5 4.502c2.48 0 4.499-2.02 4.499-4.503a4.506 4.506 0 0 0-4.5-4.503M4.504 18.749a3.003 3.003 0 0 1 0-6.004c1.393 0 2.557.96 2.892 2.251h-1.6a1.49 1.49 0 0 0-1.292-.75 1.5 1.5 0 0 0 0 3.002c.553 0 1.032-.304 1.292-.751h1.601a2.996 2.996 0 0 1-2.893 2.252m8.24-3.202c-1.935.447-3.224.009-3.765-.25l-.006-.049c-.19-1.897-1.48-4.814-5.444-4.866-1.502-.019-2.024-.5-2.03-.628-.005-.118.417-.604 1.742-.74 1.755-.182 2.409.318 2.517.409.522.935 2.138 2.343 4.898 1.547a.79.79 0 0 0 .526-.575c.016-.072.437-1.682 3.948-1.804.154.536.325 1.096.515 1.667-2.458 1.519-2.858 4.09-2.9 5.288m6.756 3.202a3.003 3.003 0 0 1-2.999-3.002c0-.715.262-1.364.681-1.88.274.493.574.966.904 1.402-.05.151-.085.31-.085.478a1.5 1.5 0 1 0 1.218-1.472 11 11 0 0 1-.818-1.315c.342-.135.71-.215 1.1-.215a3.003 3.003 0 0 1 0 6.004"/></svg>