<svg xmlns="http://www.w3.org/2000/svg" width="24" height="24" fill="none" viewBox="0 0 24 24"><path fill="currentColor" fill-rule="evenodd" d="M22.142 19.562c.197 0 .357-.16.357-.357v-2.939H1.5v2.939c0 .193.164.357.356.357h1.177c.024-.091.058-.178.091-.264l.02-.051.018-.05q.009-.03.021-.059.11-.252.26-.479l.021-.026.024-.03q.133-.186.29-.352.045-.044.092-.085l.04-.035a3 3 0 0 1 .42-.323l.019-.012q.144-.09.299-.163l.012-.006q.084-.04.172-.076a3 3 0 0 1 .35-.11q.033-.007.065-.017.052-.016.107-.027c.181-.034.366-.056.556-.056s.375.022.555.056q.055.011.109.027l.06.017q.183.044.353.11.073.03.143.063l.04.018a3 3 0 0 1 .466.275 3 3 0 0 1 .318.265q.044.038.085.08.149.155.272.33l.03.036q.018.022.034.045.148.221.255.468.017.04.03.08.009.03.02.058l.023.063c.03.075.06.15.08.23h6.429c.023-.091.057-.178.091-.264l.02-.05.018-.052.02-.059q.11-.251.26-.477l.022-.027.022-.027q.132-.19.292-.355.044-.044.09-.084l.038-.034a2.8 2.8 0 0 1 .741-.5l.032-.016q.073-.035.15-.066a3 3 0 0 1 .42-.129q.05-.015.102-.025c.18-.034.364-.056.555-.056.19 0 .375.022.556.056q.052.01.103.026l.067.018q.18.044.353.11a3 3 0 0 1 .182.082q.155.074.3.163l.007.004a2.7 2.7 0 0 1 .43.328l.041.037q.048.041.092.087.15.157.277.334l.025.03q.018.022.034.046.15.222.257.47.015.037.027.075l.02.058.026.065q.045.113.079.232zm-5.528.752a1.472 1.472 0 0 0 2.944 0 1.48 1.48 0 0 0-1.473-1.473c-.809 0-1.469.66-1.47 1.473m-12.178 0a1.47 1.47 0 0 0 2.944 0 1.476 1.476 0 0 0-1.47-1.473c-.81 0-1.472.66-1.474 1.473M19.013 6.289h-3.497v8.477H22.5v-3.063a.36.36 0 0 0-.155-.295l-.872-.602a1.85 1.85 0 0 1-.654-.804l-1.48-3.496a.36.36 0 0 0-.326-.217M1.855 2.25a.354.354 0 0 0-.354.354v12.162h12.514V2.604a.354.354 0 0 0-.354-.354zm21.342 7.925c.503.347.802.919.802 1.528v3.816l-.002.004v3.682a1.86 1.86 0 0 1-1.857 1.857h-1.19a2.97 2.97 0 0 1-2.866 2.223 2.966 2.966 0 0 1-2.864-2.223H8.773a2.966 2.966 0 0 1-2.863 2.223 2.97 2.97 0 0 1-2.867-2.223H1.856A1.86 1.86 0 0 1 0 19.205v-4.439h.002V2.604C.002 1.582.832.75 1.856.75h11.806c1.022 0 1.854.832 1.854 1.854V4.79h3.497a1.85 1.85 0 0 1 1.708 1.133L22.2 9.417a.35.35 0 0 0 .126.154zM5.373 11.443h4.401v-3.93l-2.2-2.2-2.2 2.2zm1.67-7.721a.77.77 0 0 1 1.06 0l4.443 4.442a.75.75 0 1 1-1.06 1.061l-.212-.212v3.18a.75.75 0 0 1-.75.75h-5.9a.75.75 0 0 1-.75-.75v-3.18l-.212.212a.75.75 0 1 1-1.06-1.06z" clip-rule="evenodd"/></svg>