<svg xmlns="http://www.w3.org/2000/svg" width="24" height="24" fill="none" viewBox="0 0 24 24"><path fill="currentColor" fill-rule="evenodd" d="M3.029 18.007c.427.158 2.437.818 6.72.818q.418.002.803-.008a7 7 0 0 1-.053-.817 6.006 6.006 0 0 1 4.455-5.798c-.953-1.049-2.415-1.702-4.05-1.702h-2.31c-2.76 0-5.017 1.86-5.258 4.335zM9.749 1.5A3.751 3.751 0 0 0 9.748 9c2.063 0 3.75-1.68 3.75-3.75S11.812 1.5 9.75 1.5m2.835 18.72A4.51 4.51 0 0 0 16.5 22.5c2.483 0 4.5-2.018 4.5-4.5a4.505 4.505 0 0 0-3.554-4.403 5 5 0 0 0-.946-.097c-.225 0-.442.015-.66.053A4.5 4.5 0 0 0 11.999 18c0 .262.023.51.068.757a4.3 4.3 0 0 0 .517 1.463m.473-10.898c1.537.465 2.828 1.419 3.652 2.685A6 6 0 0 1 22.499 18c0 3.308-2.692 6-6 6a6 6 0 0 1-5.535-3.69c-.382.007-.787.015-1.215.015-4.696 0-6.878-.765-7.35-.953-.563-.134-.953-.645-.893-1.215l.338-3.465c.247-2.557 2.1-4.611 4.598-5.37A5.23 5.23 0 0 1 4.498 5.25 5.256 5.256 0 0 1 9.75 0 5.256 5.256 0 0 1 15 5.25a5.23 5.23 0 0 1-1.942 4.072m4.791 7.957h.93c.397 0 .722.325.722.721a.724.724 0 0 1-.722.721h-1.557v1.558a.724.724 0 0 1-.721.72.724.724 0 0 1-.722-.72v-1.557h-1.557A.72.72 0 0 1 13.5 18c0-.397.325-.723.721-.723h1.557v-1.556c0-.29.167-.534.412-.65A.75.75 0 0 1 16.5 15c.397 0 .721.325.721.722v1.557z" clip-rule="evenodd"/></svg>