<svg xmlns="http://www.w3.org/2000/svg" width="24" height="24" fill="none" viewBox="0 0 24 24"><path fill="currentColor" fill-rule="evenodd" d="M22.319 6.93c-.45 1.471-1.735 2.557-2.785 3.231l1.535-5.034a.75.75 0 1 0-1.434-.438l-1.536 5.035a10 10 0 0 1-.202-.511l-.055-.153a8 8 0 0 1-.191-.604 8 8 0 0 1-.165-.794 6 6 0 0 1-.07-.663l-.001-.008a5 5 0 0 1 .04-.835c.03-.225.07-.45.137-.67q.076-.251.18-.484c.77-1.7 2.617-2.813 3.555-3.29.56 1.003 1.595 3.237.992 5.218m-9.412 1.62c-1.226-1.659-1-4.117-.807-5.252.954.123 2.803.495 4.106 1.598l-.05.156q-.106.362-.163.726-.016.11-.029.223a6 6 0 0 0-.043.512q-.004.12-.005.24 0 .234.014.467l-1.397-1.89a.75.75 0 0 0-1.205.893l3.284 4.439c-1.216-.285-2.789-.876-3.705-2.112M1.5 12.468V9.81h6.41v2.658a3.21 3.21 0 0 1-3.207 3.206A3.21 3.21 0 0 1 1.5 12.468M22.237.325a.75.75 0 0 0-.892-.273c-.132.052-2.932 1.179-4.457 3.477-2.203-1.656-5.22-1.783-5.362-1.788-.372-.031-.66.219-.75.555-.047.177-1.14 4.353.926 7.146 1.586 2.142 4.487 2.745 5.837 2.912v4.097a6.05 6.05 0 0 1-6.042 6.042 6.05 6.05 0 0 1-6.006-5.39 4.71 4.71 0 0 0 3.918-4.635V9.06a.75.75 0 0 0-.75-.75H7.561V5.787a.75.75 0 1 0-1.5 0V8.31H3.178V5.787a.75.75 0 1 0-1.5 0V8.31H.75a.75.75 0 0 0-.75.75v3.408a4.71 4.71 0 0 0 3.988 4.646c.337 3.849 3.573 6.879 7.509 6.879 4.158 0 7.542-3.383 7.542-7.542v-4.294c1.123-.538 3.893-2.103 4.714-4.79C24.766 4.046 22.342.475 22.238.325" clip-rule="evenodd"/></svg>