<svg xmlns="http://www.w3.org/2000/svg" width="24" height="24" fill="none" viewBox="0 0 24 24"><path fill="currentColor" fill-rule="evenodd" d="M1.5 11.958c0-2.613.97-5 2.561-6.835L6.03 7.092v10.07a1.5 1.5 0 0 0 1.498 1.498H16.3c.363 0 .69-.134.949-.349l1.544 1.543a10.4 10.4 0 0 1-6.836 2.561C6.191 22.415 1.5 17.724 1.5 11.958m12.45-3.411V7.259l1.289 1.288zm2.148 8.613-8.568.002-.002-8.572zM7.528 6.468v-.27h4.923v3.099c0 .415.336.75.75.75h3.098l.002 5.195zm14.887 5.49c0 2.614-.97 5.001-2.561 6.836l-2.055-2.055V9.297h-.007a.75.75 0 0 0-.213-.53l-3.848-3.848a.74.74 0 0 0-.53-.213v-.007H7.528a1.49 1.49 0 0 0-1.182.588L5.122 4.062A10.4 10.4 0 0 1 11.958 1.5c5.766 0 10.457 4.692 10.457 10.458M11.958 0C5.354 0 0 5.354 0 11.958s5.354 11.957 11.958 11.957 11.957-5.353 11.957-11.957S18.562 0 11.958 0" clip-rule="evenodd"/></svg>