<svg xmlns="http://www.w3.org/2000/svg" width="24" height="24" fill="none" viewBox="0 0 24 24"><path fill="currentColor" fill-rule="evenodd" d="M2.25 22.5v-21h9.11v4.306a1.69 1.69 0 0 0 1.692 1.686h4.296V9.79a5.16 5.16 0 0 0-3.004 1.562c-.008.008-.018.009-.025.016-.01.012-.014.027-.025.039a5.15 5.15 0 0 0-1.372 3.498c0 2.598 1.927 4.75 4.426 5.115v2.48zM16.883 5.992h-3.83a.19.19 0 0 1-.194-.186V1.932zm-2.461 8.913c0-.682.2-1.313.524-1.861l5.047 4.995a3.64 3.64 0 0 1-1.895.541 3.68 3.68 0 0 1-3.676-3.675m7.353 0c0 .788-.255 1.516-.68 2.114l-5.14-5.088a3.65 3.65 0 0 1 2.143-.702 3.68 3.68 0 0 1 3.677 3.676m1.5 0c0-2.599-1.928-4.75-4.427-5.115V6.153a.75.75 0 0 0-.216-.528L13.276.222A.75.75 0 0 0 12.745 0H1.5a.75.75 0 0 0-.75.75v22.5c0 .415.336.75.75.75h16.598a.75.75 0 0 0 .75-.75v-3.23a5.16 5.16 0 0 0 2.791-1.35c.01-.01.025-.013.035-.024l.014-.02a5.16 5.16 0 0 0 1.587-3.721" clip-rule="evenodd"/></svg>