<svg xmlns="http://www.w3.org/2000/svg" width="24" height="24" fill="none" viewBox="0 0 24 24"><path fill="currentColor" fill-rule="evenodd" d="m18.803 17.897-8.736-3.172L21.943 4.343zm-9.437 1.939v-3.769l3.09 1.122zM19.01 4.915 8.456 14.14l-5.694-2.067zm4.933-2.648a.7.7 0 0 0-.03-.24l-.003-.015a.8.8 0 0 0-.13-.228c-.008-.009-.01-.02-.017-.028-.009-.01-.021-.014-.031-.024-.019-.02-.034-.042-.055-.06-.037-.031-.078-.051-.12-.073-.015-.009-.028-.021-.044-.028a.8.8 0 0 0-.242-.064h-.072a.7.7 0 0 0-.186.024c-.026.007-.05.011-.076.022l-.04.01L.446 11.455a.75.75 0 0 0 .047 1.392l7.372 2.676v5.945a.75.75 0 0 0 1.238.57l4.971-4.26 5.012 1.819a.75.75 0 0 0 .613-.047.75.75 0 0 0 .373-.49L23.93 2.42c.006-.026.004-.053.007-.08z" clip-rule="evenodd"/></svg>