<svg xmlns="http://www.w3.org/2000/svg" width="24" height="24" fill="none" viewBox="0 0 24 24"><path fill="currentColor" fill-rule="evenodd" d="M20.634 14.123H22.5V10.77h-1.826l-.192-.462c-.864-2.076-2.943-3.7-5.62-4.452a3.8 3.8 0 0 1-.784 1.278c1.076.265 1.665.621 1.704.646a.75.75 0 0 1-.808 1.265c-.019-.011-1.284-.775-3.656-.696-2.63.078-3.528.846-3.537.853a.77.77 0 0 1-.507.19.74.74 0 0 1-.546-.233.74.74 0 0 1 .015-1.039c.08-.078.607-.554 1.866-.903a3.8 3.8 0 0 1-.796-1.185c-3.293 1.126-5.45 3.602-5.45 6.363 0 2.42 1.633 4.636 4.368 5.93l.43.204v2.514h1.86V19.13l.86.128c1.274.19 2.69.164 3.934-.074l.891-.17v2.017h1.86v-2.714l.399-.211c1.624-.864 2.857-2.118 3.473-3.532zm-7.025-9.575a2.3 2.3 0 0 0-2.3-2.298 2.3 2.3 0 0 0-2.298 2.298c0 1.268 1.03 2.3 2.298 2.3s2.3-1.032 2.3-2.3m5.12 1.454 1.897-1.896c-1.484-.714-3.278-.053-4.476.588.941.342 1.81.778 2.579 1.308m2.927 3.267h1.22c.62 0 1.124.504 1.124 1.124V14.5c0 .62-.504 1.123-1.123 1.123h-1.28c-.737 1.418-1.967 2.668-3.53 3.585v2.2c0 .619-.504 1.123-1.124 1.123H14.33c-.62 0-1.124-.504-1.124-1.124v-.612a13.7 13.7 0 0 1-2.685.045v.58c0 .618-.504 1.122-1.123 1.122H6.784c-.62 0-1.124-.504-1.124-1.123v-1.952C2.646 17.89.863 15.274.863 12.394q.002-.73.155-1.431a1.4 1.4 0 0 1-.406-.184c-.68-.466-.81-1.468-.289-2.231a.75.75 0 0 1 1.043-.195.74.74 0 0 1 .25.92C2.67 7.162 4.768 5.438 7.511 4.547A3.804 3.804 0 0 1 11.309.75c1.776 0 3.26 1.23 3.674 2.878 1.65-.977 4.85-2.351 7.31-.2a.753.753 0 0 1 .037 1.095L19.9 6.952c.728.688 1.33 1.464 1.756 2.317m-5.095.775a.76.76 0 1 1 1.518-.001.76.76 0 0 1-1.518.001" clip-rule="evenodd"/></svg>