<svg width="24" height="25" viewBox="0 0 24 25" fill="none" xmlns="http://www.w3.org/2000/svg">
<path fill-rule="evenodd" clip-rule="evenodd" d="M12.5674 23.7673C18.1891 17.2637 21 12.3848 21 9.13068C21 4.08794 16.9706 0 12 0C7.02944 0 3 4.08794 3 9.13068C3 12.3848 5.81087 17.2637 11.4326 23.7673C11.7035 24.0807 12.1771 24.1151 12.4905 23.8442C12.5179 23.8205 12.5437 23.7948 12.5674 23.7673ZM4.5 9.13068C4.5 4.91157 7.86274 1.5 12 1.5C16.1373 1.5 19.5 4.91157 19.5 9.13068C19.5 11.8086 17.0169 16.2142 12 22.1241C6.98313 16.2142 4.5 11.8086 4.5 9.13068ZM12 13.5C14.4853 13.5 16.5 11.4853 16.5 9C16.5 6.51472 14.4853 4.5 12 4.5C9.51472 4.5 7.5 6.51472 7.5 9C7.5 11.4853 9.51472 13.5 12 13.5ZM12 12C10.3431 12 9 10.6569 9 9C9 7.34315 10.3431 6 12 6C13.6569 6 15 7.34315 15 9C15 10.6569 13.6569 12 12 12Z" fill="black"/>
</svg>
