<svg xmlns="http://www.w3.org/2000/svg" width="24" height="24" fill="none" viewBox="0 0 24 24"><path fill="currentColor" d="m22.2 11.31-4.119-.756-1.848-1.838c-1.107-1.021-2.43-1.966-4.602-1.966l-2.028.003c-3.197 0-5.996 2.002-6.61 2.473l-1.66.511C.548 9.98 0 10.748 0 11.61v2.525c0 .922.598 1.705 1.453 1.904l1.708.4c.023.005.046-.001.07.002A2.63 2.63 0 0 0 5.626 18a2.62 2.62 0 0 0 2.361-1.5h8.027a2.62 2.62 0 0 0 2.361 1.5 2.62 2.62 0 0 0 2.362-1.5h1.776c.82 0 1.487-.695 1.487-1.55v-1.332c0-1.11-.748-2.079-1.8-2.307M15.195 9.8l.643.64-4.22-.134-.264-2.056h.276c1.57 0 2.535.6 3.565 1.55M9.603 8.252h.24l.257 2.005-3.841-.123c.444-.809 1.4-1.882 3.344-1.882M5.625 16.5c-.62 0-1.125-.505-1.125-1.125s.505-1.125 1.125-1.125 1.125.505 1.125 1.125S6.245 16.5 5.625 16.5m12.75 0a1.126 1.126 0 0 1-.001-2.25 1.126 1.126 0 0 1 0 2.25M20.96 15a2.62 2.62 0 0 0-2.587-2.25A2.62 2.62 0 0 0 15.788 15H8.212a2.62 2.62 0 0 0-2.586-2.25 2.63 2.63 0 0 0-2.574 2.121l-1.257-.293c-.168-.039-.294-.23-.294-.444V11.61c0-.205.115-.39.274-.438l1.793-.552a.8.8 0 0 0 .253-.135c.01-.007.348-.277.905-.625a4.5 4.5 0 0 0-.282.832.75.75 0 0 0 .71.91l12.485.397 4.267.783c.344.075.595.426.595.836L22.513 15h-1.552"/></svg>