<svg xmlns="http://www.w3.org/2000/svg" width="24" height="24" fill="none" viewBox="0 0 24 24"><path fill="currentColor" fill-rule="evenodd" d="M22.33.655a.752.752 0 0 0-1.14-.542c-1.763 1.096-4.823 2.056-8.396 2.63C4.868 4.018 2.74 7.31 2.352 9.845c-.58 3.793 1.454 6.561 2.405 7.622-2.11 3.2-1.634 5.794-1.606 5.93a.745.745 0 0 0 .878.584.753.753 0 0 0 .593-.877c-.026-.141-.602-3.486 3.424-7.172.31-.282.618-.558.926-.836L13.659 14a.75.75 0 1 0-.34-1.46l-2.007.47c2.758-2.45 5.114-4.582 6.205-6.35a.75.75 0 1 0-1.275-.788c-.708 1.144-2.094 2.536-3.81 4.111V7.407a.75.75 0 1 0-1.5 0v3.932l-1.055.938c-.925.821-1.885 1.673-2.843 2.55a15 15 0 0 0-1.352 1.409c-.833-1.013-2.292-3.257-1.847-6.162.568-3.703 5.315-5.225 9.198-5.85 1.93-.31 5.299-.99 7.879-2.249.055 2.037-.141 6.532-2.446 11.033-3.317 6.477-10.044 5.397-10.329 5.35a.745.745 0 0 0-.868.608c-.073.408.2.797.608.868.02.004.595.1 1.5.1 2.523 0 7.606-.738 10.423-6.242C23.122 7.205 22.365.92 22.33.655" clip-rule="evenodd"/></svg>