<svg xmlns="http://www.w3.org/2000/svg" width="24" height="24" fill="none" viewBox="0 0 24 24"><path fill="currentColor" d="M17.91 7.644a.75.75 0 0 1 1.181.479c.44 2.56 1.712 4.26 2.835 5.76l-.002-.002c1.05 1.403 2.042 2.727 2.072 4.427.068 3.836-2.9 5.391-4.477 5.678a.75.75 0 0 1-.73-1.194c.003-.003.56-.766.278-1.488-.098-.25-.397-.545-.713-.857-.494-.484-1.1-1.081-1.39-1.93q-.631.836-.709 1.726c-.121 1.397.83 2.486.846 2.503a.75.75 0 0 1 .11.845.76.76 0 0 1-.748.403c-1.803-.2-5.215-1.735-5.213-6.122v-.624a.75.75 0 1 1 1.5 0v.624c0 2.314 1.174 3.484 2.231 4.069a4.6 4.6 0 0 1-.22-1.805c.117-1.435.921-2.75 2.39-3.91a.75.75 0 0 1 .86-.048.75.75 0 0 1 .34.792c-.238 1.137.361 1.727 1.056 2.41.415.408.845.83 1.06 1.38.159.41.2.812.174 1.179.898-.56 1.893-1.629 1.857-3.605-.02-1.215-.794-2.246-1.772-3.552-.999-1.335-2.207-2.95-2.846-5.223q-.528.426-.999.863a.75.75 0 1 1-1.02-1.1 23 23 0 0 1 2.049-1.678M6.146.553A1.29 1.29 0 0 1 7.592.06c.543.17.908.67.908 1.248V6h4.25a.75.75 0 1 1 0 1.5h-5A.75.75 0 0 1 7 6.75V1.924L1.78 9h3.97a.75.75 0 0 1 .75.75v4.887l.73-.869a.75.75 0 1 1 1.147.965l-1.053 1.252c-.219.319-.61.515-1.025.515q-.197.002-.392-.06A1.3 1.3 0 0 1 5 15.194V10.5H1.328c-.52 0-.978-.259-1.196-.676-.206-.395-.169-.863.1-1.251zM12 9a.75.75 0 0 1 .75.75v1.5h1.5a.75.75 0 1 1 0 1.5h-1.5v1.5a.75.75 0 1 1-1.5 0v-1.5h-1.5a.75.75 0 1 1 0-1.5h1.5v-1.5A.75.75 0 0 1 12 9"/></svg>