<svg xmlns="http://www.w3.org/2000/svg" width="24" height="24" fill="none" viewBox="0 0 24 24"><path fill="currentColor" fill-rule="evenodd" d="m7.23 13.768-.73.869V9.75A.75.75 0 0 0 5.75 9H1.78L7 1.923V6.75c0 .415.335.75.75.75h5a.75.75 0 1 0 0-1.5H8.5V1.308C8.5.73 8.135.229 7.592.06a1.29 1.29 0 0 0-1.446.493L.232 8.573c-.269.389-.306.856-.1 1.25.218.418.677.677 1.196.677H5v4.693A1.297 1.297 0 0 0 6.298 16.5c.415 0 .807-.196 1.026-.515l1.053-1.252a.75.75 0 0 0-1.148-.965m14.696.114c-1.123-1.499-2.395-3.199-2.835-5.759a.75.75 0 0 0-1.182-.478 23 23 0 0 0-2.047 1.678.75.75 0 0 0 1.02 1.1q.47-.437.998-.863c.639 2.273 1.847 3.887 2.846 5.222.979 1.306 1.751 2.338 1.772 3.553.036 1.976-.959 3.043-1.857 3.604a2.7 2.7 0 0 0-.175-1.179c-.215-.55-.644-.972-1.059-1.38-.695-.683-1.294-1.272-1.057-2.41a.752.752 0 0 0-1.198-.742c-1.47 1.158-2.274 2.473-2.392 3.908-.055.672.05 1.284.22 1.805-1.057-.584-2.231-1.754-2.23-4.069v-.623a.75.75 0 1 0-1.5 0v.623c-.002 4.387 3.41 5.922 5.213 6.122.3.03.604-.127.747-.403a.75.75 0 0 0-.108-.845c-.022-.025-.968-1.11-.846-2.502.05-.593.29-1.17.708-1.727.29.85.896 1.446 1.39 1.93.317.312.615.607.713.857.282.722-.275 1.485-.277 1.488a.75.75 0 0 0 .73 1.195c1.577-.288 4.544-1.843 4.477-5.68-.031-1.7-1.022-3.023-2.072-4.425zM12 15a.75.75 0 0 1-.75-.75v-1.5h-1.5a.75.75 0 1 1 0-1.5h1.5v-1.5a.75.75 0 1 1 1.5 0v1.5h1.5a.75.75 0 1 1 0 1.5h-1.5v1.5A.75.75 0 0 1 12 15" clip-rule="evenodd"/></svg>