<svg xmlns="http://www.w3.org/2000/svg" width="24" height="25" fill="none" viewBox="0 0 24 25"><path fill="currentColor" d="M22.5 6.758h-5.152c1.74-1.298 2.242-3.09 2.242-4.013 0-1.612-1.073-2.738-2.595-2.738-1.935 0-2.858 1.943-2.88 1.98l-2.107 3.93-2.093-3.892C9.878 1.942 8.955 0 7.02 0 5.49 0 4.425 1.125 4.425 2.738c0 .922.503 2.722 2.243 4.012H1.5a.75.75 0 0 0-.75.75V12c0 .412.337.75.75.75h.75v10.5c0 .413.337.75.75.75h18c.413 0 .75-.337.75-.75v-10.5h.75c.413 0 .75-.338.75-.75V7.5a.75.75 0 0 0-.75-.75zm-9.015 1.5v3h-2.97v-3zm1.965-5.595s.57-1.155 1.538-1.155c.682 0 1.095.464 1.095 1.237 0 1.012-.9 3.488-4.793 3.945l2.16-4.02zM7.013 1.507c.974 0 1.53 1.147 1.552 1.192l2.138 3.99C6.81 6.24 5.91 3.757 5.91 2.745c0-.773.412-1.237 1.095-1.237zM2.25 8.258h6.765v3H2.25zm1.5 4.5h5.258v9.75h-5.25v-9.75zm6.758 9.75v-9.75h2.97v9.75zm9.727 0h-5.257v-9.75h5.257zm1.5-11.25h-6.757v-3h6.757z"/></svg>