<svg xmlns="http://www.w3.org/2000/svg" width="24" height="24" fill="none" viewBox="0 0 24 24"><path fill="currentColor" fill-rule="evenodd" d="M22.5 19.502c0 .826-.673 1.499-1.5 1.499H5.597c.257-.442.403-.954.403-1.5V3.013L22.5 3zM3 21q-.015.001-.029.005-.011.004-.024.006-.013 0-.025-.006-.013-.004-.029-.005C2.1 21 1.5 20.357 1.5 19.5v-9.007h3v9.008C4.5 20.328 3.827 21 3 21M23.78 1.719a.75.75 0 0 0-.53-.22l-18 .015a.75.75 0 0 0-.75.75v6.73H.75a.75.75 0 0 0-.75.75v9.758c0 1.68 1.27 2.998 2.894 2.998q.016 0 .028-.006.012-.004.025-.006.013.002.024.006.014.005.029.006h18c1.654 0 3-1.345 3-2.998V2.249a.75.75 0 0 0-.22-.53m-6.53 13.272h2.25v-4.497h-2.25zm3-5.996H16.5a.75.75 0 0 0-.75.75v5.995c0 .415.335.75.75.75h3.75a.75.75 0 0 0 .75-.75V9.744a.75.75 0 0 0-.75-.75m-6.75 2.998H8.25a.75.75 0 1 1 0-1.499h5.25a.749.749 0 1 1 0 1.499M8.25 14.99h5.25a.749.749 0 1 0 0-1.5H8.25a.749.749 0 1 0 0 1.5m12-7.495h-12a.75.75 0 1 1 0-1.499h12a.75.75 0 1 1 0 1.499" clip-rule="evenodd"/></svg>