<svg width="24" height="25" viewBox="0 0 24 25" fill="none" xmlns="http://www.w3.org/2000/svg">
<path d="M22.5 6.7575H17.3475C19.0875 5.46 19.59 3.6675 19.59 2.745C19.59 1.1325 18.5175 0.0075 16.995 0.0075C15.06 0.0075 14.1375 1.95 14.115 1.9875L12.0075 5.9175L9.915 2.025C9.8775 1.9425 8.955 0 7.02 0C5.49 0 4.425 1.125 4.425 2.7375C4.425 3.66 4.9275 5.46 6.6675 6.75H1.5C1.0875 6.75 0.75 7.0875 0.75 7.5V12C0.75 12.4125 1.0875 12.75 1.5 12.75H2.25V23.25C2.25 23.6625 2.5875 24 3 24H21C21.4125 24 21.75 23.6625 21.75 23.25V12.75H22.5C22.9125 12.75 23.25 12.4125 23.25 12V7.5C23.25 7.0875 22.9125 6.75 22.5 6.75V6.7575ZM13.485 8.2575V11.2575H10.515V8.2575H13.485ZM15.45 2.6625C15.45 2.6625 16.02 1.5075 16.9875 1.5075C17.67 1.5075 18.0825 1.9725 18.0825 2.745C18.0825 3.7575 17.1825 6.2325 13.29 6.69L15.45 2.67V2.6625ZM7.0125 1.5075C7.9875 1.5075 8.5425 2.655 8.565 2.7L10.7025 6.69C6.81 6.24 5.91 3.7575 5.91 2.745C5.91 1.9725 6.3225 1.5075 7.005 1.5075H7.0125ZM2.25 8.2575H9.015V11.2575H2.25V8.2575ZM3.75 12.7575H9.0075V22.5075H3.7575V12.7575H3.75ZM10.5075 22.5075V12.7575H13.4775V22.5075H10.5075ZM20.235 22.5075H14.9775V12.7575H20.235V22.5075ZM21.735 11.2575H14.9775V8.2575H21.735V11.2575Z" fill="black"/>
</svg>
