<svg width="24" height="24" viewBox="0 0 24 24" fill="none" xmlns="http://www.w3.org/2000/svg"><path fill-rule="evenodd" clip-rule="evenodd" d="M6.75 8.25a.75.75 0 1 1 0-1.5h.771c-.016-.25-.016-.5 0-.75h-.77a.75.75 0 1 1 0-1.5h1.075a5.59 5.59 0 0 1 1.3-2.1 5.518 5.518 0 0 1 7.047-.688.749.749 0 1 1-.846 1.238 4.023 4.023 0 0 0-5.133.503c-.309.313-.54.672-.729 1.046H12A.75.75 0 1 1 12 6H9.036c-.022.25-.022.5 0 .75H12a.75.75 0 1 1 0 1.5H9.466c.189.374.42.733.728 1.046a4 4 0 0 0 4.124 1.003 4.02 4.02 0 0 0 1.008-.506.75.75 0 0 1 .848 1.237 5.487 5.487 0 0 1-1.388.695 5.56 5.56 0 0 1-1.733.28 5.51 5.51 0 0 1-3.927-1.656 5.589 5.589 0 0 1-1.3-2.098H6.75Zm5.189 14.195 10.257-4.998a.544.544 0 0 0-.061-1 .534.534 0 0 0-.413.025l-4.694 2.284a.054.054 0 0 1-.019.006.061.061 0 0 0-.017.004 2.02 2.02 0 0 1-.938.238H9.108a.75.75 0 1 1 0-1.5h6.946a.542.542 0 0 0 0-1.081h-5.068a.75.75 0 0 1-.725-.557c-.02-.064-.581-1.825-3.549-1.825H1.5v5.156l10.439 3.248Zm10.684-7.415c.517.177.932.545 1.171 1.035a2.044 2.044 0 0 1-.94 2.73l-10.525 5.128a.05.05 0 0 1-.02.005l-.016.003a.727.727 0 0 1-.29.067L12 24h-.005l-.003-.001a.714.714 0 0 1-.206-.031h-.006l-.004-.002-11.25-3.5A.75.75 0 0 1 0 19.75v-6.458a.75.75 0 0 1 .75-.75h5.962c3.066 0 4.31 1.528 4.764 2.381h4.578l.007.002a2.04 2.04 0 0 1 1.996 1.663l3.008-1.463a2.024 2.024 0 0 1 1.558-.095Z" fill="currentColor"/></svg>