<svg xmlns="http://www.w3.org/2000/svg" width="24" height="24" fill="none" viewBox="0 0 24 24"><path fill="currentColor" fill-rule="evenodd" d="m23.725 10.891-11.25-9.22a.75.75 0 0 0-.95 0L.274 10.89a.75.75 0 0 0 .95 1.16L12 3.22l10.774 8.832a.75.75 0 0 0 .951-1.16m-3.795.996a.75.75 0 0 0-.75.75v8.384h-4.162a.75.75 0 1 0 0 1.5h4.912a.75.75 0 0 0 .75-.75v-9.134a.75.75 0 0 0-.75-.75m-9.406 5.957a1.476 1.476 0 1 1 2.951 0 1.47 1.47 0 0 1-.725 1.263v2.664a.75.75 0 0 1-.75.75H4.07a.75.75 0 0 1-.75-.75v-9.135a.75.75 0 1 1 1.5 0v8.385h6.43v-1.914a1.47 1.47 0 0 1-.726-1.263M8.567 14.41a.75.75 0 1 0 1.06 1.06 3.36 3.36 0 0 1 4.744 0 .75.75 0 1 0 1.061-1.06 4.86 4.86 0 0 0-6.865 0m9.125-1.2a.75.75 0 0 1-1.06 0 6.56 6.56 0 0 0-9.265 0 .75.75 0 1 1-1.06-1.06c3.14-3.139 8.246-3.14 11.385 0a.75.75 0 0 1 0 1.06" clip-rule="evenodd"/></svg>