<svg xmlns="http://www.w3.org/2000/svg" width="24" height="24" fill="none" viewBox="0 0 24 24"><path fill="currentColor" fill-rule="evenodd" d="M5.345 6.386q-.008.017-.02.034a.8.8 0 0 0-.075.33.8.8 0 0 0 .038.232l.005.013a1 1 0 0 0 .048.1.7.7 0 0 0 .127.18c.022.028.052.051.081.074l.031.024q.011.002.023.014.006.007.011.009.006.002.011.007a.78.78 0 0 0 .75 0l.011-.007q.006-.002.012-.009.01-.012.023-.014l.03-.023c.029-.023.06-.047.082-.074a.7.7 0 0 0 .127-.181q.028-.05.048-.1l.005-.013a.8.8 0 0 0 .037-.232.8.8 0 0 0-.094-.364l-.018-.034-.002-.001q-.012-.01-.013-.02a.5.5 0 0 0-.097-.114 1 1 0 0 0-.113-.093q-.002-.003-.008-.003l-.037-.023q-.021-.011-.038-.023l-.02-.008-.017-.006q-.045-.022-.092-.033l-.043-.013h-.03A1 1 0 0 0 6 6h-.03c-.015.007-.022.007-.037.007l-.03.004q-.014.003-.03.004h-.004a.4.4 0 0 0-.16.046l-.018.006-.02.008-.046.022a.1.1 0 0 1-.045.03l-.01.009c-.033.026-.06.048-.095.081a.5.5 0 0 0-.097.114q-.001.01-.015.021zM17.04 13.5h-2.954L13.71 15h2.954zm.375-1.5.375-1.5h-2.954L14.46 12zm1.546 0h2.954l.375-1.5h-2.954zm-.375 1.5L18.21 15h2.954l.375-1.5zM4.122 18.873l.005.002c.375.2.707.375 1.123.489V8.866a2.2 2.2 0 0 1-.712-.414l-3.413 1.951a.764.764 0 0 1-1.027-.278.76.76 0 0 1 .277-1.028l3.413-1.949a2.3 2.3 0 0 1-.038-.398c0-.974.63-1.808 1.5-2.115V.75C5.25.338 5.588 0 6 0c.413 0 .75.338.75.75v3.885a2.25 2.25 0 0 1 1.463 2.513l3.412 1.95c.36.21.48.667.278 1.027a.76.76 0 0 1-.653.375.8.8 0 0 1-.375-.097l-3.412-1.95a2.2 2.2 0 0 1-.713.413v10.556q0 .02-.006.037l-.007.03c.843-.056 1.312-.306 1.887-.614h.002c.767-.41 1.637-.875 3.371-.875 1.737 0 2.608.464 3.376.874l.004.002c.374.2.707.374 1.123.488V16.5h-3.75a.75.75 0 0 1-.592-.285.77.77 0 0 1-.135-.645l.742-2.97.758-3.03A.745.745 0 0 1 14.25 9h9c.233 0 .45.105.592.285.143.187.188.42.135.646l-.742 2.97-.758 3.03a.745.745 0 0 1-.727.569H18v2.988c.835-.058 1.302-.306 1.873-.613h.003c.768-.41 1.639-.875 3.374-.875a.75.75 0 1 1 0 1.5c-1.362 0-1.968.323-2.67.698-.703.377-1.5.802-2.957.802-1.455 0-2.251-.426-2.952-.8l-.004-.003c-.701-.374-1.308-.697-2.67-.697-1.36 0-1.966.323-2.666.698-.703.376-1.499.802-2.957.802-1.455 0-2.252-.426-2.954-.802h-.002c-.7-.375-1.306-.698-2.668-.698a.75.75 0 1 1 0-1.5c1.735 0 2.605.464 3.372.873m15.752 3.003c.768-.411 1.639-.876 3.376-.876a.75.75 0 1 1 0 1.5c-1.361 0-1.968.324-2.67.698-.703.377-1.5.802-2.956.802s-2.252-.425-2.953-.8l-.003-.002c-.701-.374-1.308-.698-2.67-.698-1.36 0-1.966.324-2.668.699-.702.376-1.498.8-2.955.8-1.456 0-2.253-.424-2.954-.8H3.42c-.702-.375-1.308-.7-2.67-.7a.75.75 0 1 1 0-1.5c1.738 0 2.61.466 3.377.877.652.349 1.168.624 2.248.624s1.596-.275 2.249-.624c.767-.411 1.638-.876 3.373-.876 1.74 0 2.612.466 3.38.877.652.348 1.168.623 2.247.623 1.081 0 1.597-.275 2.25-.624" clip-rule="evenodd"/></svg>