<svg xmlns="http://www.w3.org/2000/svg" width="24" height="24" fill="none" viewBox="0 0 24 24"><path fill="currentColor" d="M12 1.5c-2.482 0-4.86.878-6.75 2.468V3a.75.75 0 0 0-.75-.75.75.75 0 0 0-.75.75v3c0 .412.338.75.75.75h3c.412 0 .75-.338.75-.75a.75.75 0 0 0-.75-.75H6.053A9 9 0 0 1 12 3c4.965 0 9 4.035 9 9s-4.035 9-9 9-9-4.035-9-9a.75.75 0 0 0-.75-.75.75.75 0 0 0-.75.75c0 5.79 4.71 10.5 10.5 10.5S22.5 17.79 22.5 12 17.79 1.5 12 1.5"/><path fill="currentColor" d="M12 12.75c.24 0 .473-.12.607-.315l3.75-5.25a.745.745 0 0 0-.172-1.042.745.745 0 0 0-1.042.172l-3.526 4.935H7.5a.75.75 0 0 0-.75.75c0 .413.338.75.75.75z"/></svg>