<svg xmlns="http://www.w3.org/2000/svg" width="24" height="24" fill="none" viewBox="0 0 24 24"><path fill="currentColor" fill-rule="evenodd" d="m1.498 8.083 2.228 11.414 18.772-3.585L20.27 4.499zm20.25-3.878 2.22 11.43c.076.39 0 .787-.225 1.118a1.54 1.54 0 0 1-.96.637L4.01 20.967c-.098.023-.195.03-.285.03a1.51 1.51 0 0 1-1.478-1.207L.028 8.36c-.075-.39 0-.787.225-1.117s.57-.555.96-.638l18.773-3.577a1.507 1.507 0 0 1 1.762 1.177m-10.17 11.213a1.124 1.124 0 1 1 1.59-1.59 1.124 1.124 0 0 1-1.59 1.59m.036-4.693a4.18 4.18 0 0 0-2.691 1.77.75.75 0 0 0 1.24.843 2.7 2.7 0 0 1 1.733-1.139 2.68 2.68 0 0 1 2.03.418.75.75 0 0 0 .842-1.24 4.17 4.17 0 0 0-3.154-.652m-4.98.217a6.93 6.93 0 0 1 4.459-2.934 6.94 6.94 0 0 1 5.229 1.08.75.75 0 1 1-.842 1.24 5.44 5.44 0 0 0-4.104-.846 5.44 5.44 0 0 0-3.502 2.302.749.749 0 1 1-1.24-.842" clip-rule="evenodd"/></svg>