<svg xmlns="http://www.w3.org/2000/svg" width="24" height="24" fill="none" viewBox="0 0 24 24"><path fill="currentColor" fill-rule="evenodd" d="M19.224 18.216a3.28 3.28 0 0 1-3.276-3.276c0-1.2.656-2.24 1.62-2.81l.595 1.92a1.38 1.38 0 0 0-.33.89 1.391 1.391 0 0 0 2.782 0c0-.638-.432-1.17-1.019-1.334l-.594-1.919c.074-.005.146-.022.222-.022A3.28 3.28 0 0 1 22.5 14.94a3.28 3.28 0 0 1-3.276 3.276m-7.607-4.566-.546-1.47 1.137-.426c.1-.038.153-.136.115-.216l-.945-2.052c-.034-.073-.132-.104-.222-.07l-.977.367-.398-1.071h5.596zm-6.842 4.557A3.28 3.28 0 0 1 1.5 14.932a3.28 3.28 0 0 1 3.275-3.276c.27 0 .53.042.78.104L3.95 14.743a.75.75 0 0 0 .66 1.105h3.294c-.4 1.358-1.643 2.359-3.129 2.359m2.113-5.758a3.26 3.26 0 0 1 1.104 1.9H5.865zm1.586-2.946 1.803 4.845h-.765a4.77 4.77 0 0 0-1.897-3.247zm10.75.662c-.23 0-.455.021-.677.053l-1.325-4.281a2.03 2.03 0 0 0-1.95-1.437h-1.528V6h1.528c.238 0 .446.153.516.38l.258.832H9.224l-.276-.74 1.1-.297s1.04-.271.607-.797h-4.3L6.212 6.59h1.18l.386 1.042-1.492 2.772a4.8 4.8 0 0 0-1.51-.248A4.78 4.78 0 0 0 0 14.932a4.78 4.78 0 0 0 4.775 4.775 4.78 4.78 0 0 0 4.686-3.859h1.448c.559 0 1.081-.247 1.453-.7l4.365-5.734.387 1.248a4.78 4.78 0 0 0-2.666 4.278 4.78 4.78 0 0 0 4.776 4.776A4.78 4.78 0 0 0 24 14.94a4.78 4.78 0 0 0-4.776-4.775" clip-rule="evenodd"/></svg>