<svg width="24" height="24" viewBox="0 0 24 24" fill="none" xmlns="http://www.w3.org/2000/svg">
<path fill-rule="evenodd" clip-rule="evenodd" d="M5.25 10.1025C5.25 7.01325 7.76325 4.5 10.8517 4.5C13.941 4.5 16.4535 7.01325 16.4535 10.1025C16.4535 13.191 13.941 15.7042 10.8517 15.7042C7.76325 15.7042 5.25 13.191 5.25 10.1025ZM20.7795 18.978L16.368 14.5665C17.358 13.3455 17.9535 11.793 17.9535 10.1025C17.9535 6.186 14.7675 3 10.8517 3C6.936 3 3.75 6.186 3.75 10.1025C3.75 14.0183 6.936 17.2042 10.8517 17.2042C12.5378 17.2042 14.0865 16.611 15.306 15.6255L19.719 20.0385C19.8652 20.1847 20.0573 20.2582 20.2493 20.2582C20.4412 20.2582 20.6332 20.1847 20.7795 20.0385C21.0728 19.7453 21.0728 19.2712 20.7795 18.978Z" fill="black"/>
</svg>
