<svg xmlns="http://www.w3.org/2000/svg" width="24" height="24" fill="none" viewBox="0 0 24 24"><path fill="currentColor" fill-rule="evenodd" d="m16.016 12.677 1.719 3.823H22.5V15h-3.344l-.002-.001a.7.7 0 0 1-.257-.051q-.028-.011-.055-.025l-.018-.008a.8.8 0 0 1-.178-.124l-.034-.03a.7.7 0 0 1-.143-.21l-.004-.009-1.061-2.422zm-4.867-.232c.11.27.427.4.697.29l9.622-3.861a.44.44 0 0 0 .241-.263.63.63 0 0 0-.016-.45l-.367-.957-7.561 3.035a.75.75 0 0 1-.973-.41c-.373-.905-1.436-1.65-2.376-1.26l-.735.281 1.426 3.492.001.002.001.002v.004zM8.28 9.39l-.85.326 1.217 2.815.786-.317zM4.33 7.77l1.105 1.106 4.426-1.7c1.51-.623 3.12.18 3.962 1.425l7.571-3.039q.017-.01.033-.022.021-.019.05-.03.023-.009.048-.01.018 0 .036-.005l.721-.29-1.152-2.989a1.18 1.18 0 0 0-1.532-.627zM22.5 12a.75.75 0 1 1 1.5 0v7.5a.75.75 0 1 1-1.5 0V18h-5.25a.75.75 0 0 1-.685-.442l-1.941-4.32-2.213.887a2 2 0 0 1-.764.152 2.05 2.05 0 0 1-1.549-.713l-1.567.633a.753.753 0 0 1-.97-.4l-1.53-3.542-.512.196a.75.75 0 0 1-.8-.17L2.47 8.03a.75.75 0 0 1 .25-1.226L19.033.2c1.36-.56 2.93.095 3.492 1.461l1.424 3.695a.75.75 0 0 1-.42.965l-.81.325.368.96c.198.48.211 1.024.032 1.517a1.93 1.93 0 0 1-1.088 1.14l-3.234 1.299.849 1.938H22.5zM8.25 21.75A6.757 6.757 0 0 1 1.5 15 .75.75 0 1 0 0 15c0 4.55 3.701 8.25 8.25 8.25a.75.75 0 1 0 0-1.5m0-3A3.754 3.754 0 0 1 4.5 15 .75.75 0 1 0 3 15a5.257 5.257 0 0 0 5.25 5.25.75.75 0 1 0 0-1.5" clip-rule="evenodd"/></svg>