<svg xmlns="http://www.w3.org/2000/svg" width="24" height="24" fill="none" viewBox="0 0 24 24"><path fill="currentColor" fill-rule="evenodd" d="M12 1.5A.75.75 0 1 1 12 3a.75.75 0 0 1 0-1.5m-.75 2.861V6.75a.75.75 0 1 0 1.5 0V4.361c.87-.31 1.5-1.134 1.5-2.111C14.25 1.01 13.24 0 12 0S9.75 1.01 9.75 2.25c0 .977.63 1.8 1.5 2.111M21 3.75a.75.75 0 1 0 1.5 0 .75.75 0 0 0-1.5 0m.75-2.25C22.99 1.5 24 2.51 24 3.75c0 .976-.63 1.8-1.5 2.111V7.5a.75.75 0 0 1-.334.624l-2.25 1.5a.753.753 0 0 1-1.04-.208.75.75 0 0 1 .208-1.04L21 7.099V5.86a2.25 2.25 0 0 1-1.5-2.111c0-1.24 1.01-2.25 2.25-2.25m-7.5 21H7.5V11.186c0-.379.308-.686.686-.686h5.378c.379 0 .686.307.686.686zm3.507-11.803a.75.75 0 0 0-1.014 1.106L18 12.955v1.108c0 .93.673 1.687 1.5 1.687V21a.75.75 0 1 1-1.501-.008l-.002-.007a1.873 1.873 0 0 0-1.87-1.857h-.377v-7.942A2.19 2.19 0 0 0 13.564 9H8.186A2.19 2.19 0 0 0 6 11.186V23.25c0 .415.335.75.75.75H15a.75.75 0 0 0 .75-.75v-2.622h.377c.204 0 .372.167.372.372l.001.008v.003l.002.004a2.25 2.25 0 0 0 2.248 2.235c1.24 0 2.25-1.01 2.25-2.25v-7c0-.21-.088-.41-.243-.553zM12 15.75h-.928l1.114-1.865a.75.75 0 1 0-1.288-.77l-1.791 3a.748.748 0 0 0 .643 1.135h.928l-1.114 1.865a.75.75 0 1 0 1.288.77l1.791-3A.748.748 0 0 0 12 15.75m-9-12a.75.75 0 1 0-1.5 0 .75.75 0 0 0 1.5 0m0 2.111V7.1l1.916 1.277a.75.75 0 1 1-.832 1.248l-2.25-1.5A.75.75 0 0 1 1.5 7.5V5.861A2.25 2.25 0 0 1 0 3.75C0 2.51 1.01 1.5 2.25 1.5S4.5 2.51 4.5 3.75c0 .976-.63 1.8-1.5 2.111" clip-rule="evenodd"/></svg>