<svg xmlns="http://www.w3.org/2000/svg" width="24" height="24" fill="none" viewBox="0 0 24 24"><path fill="currentColor" d="M21.27 3.038 12.254.03s-.06 0-.09-.007a.5.5 0 0 0-.15-.023c-.053 0-.098.008-.143.015-.03 0-.06 0-.09.015l-9.02 3.008a.75.75 0 0 0-.511.713V14.33c.03.3.909 7.293 9.562 9.648a.8.8 0 0 0 .376 0c8.653-2.355 9.532-9.347 9.562-9.647V3.75a.76.76 0 0 0-.51-.713zm-.992 11.164c-.075.495-1.067 6.204-8.263 8.268-7.234-2.071-8.188-7.713-8.263-8.268v-9.91l8.263-2.762 8.263 2.761z"/><path fill="currentColor" d="m11.039 14.584-2.99-3.083a.74.74 0 0 0-1.06-.015.74.74 0 0 0-.014 1.057l3.62 3.722c.143.15.338.225.541.225h.053a.74.74 0 0 0 .556-.308l5.393-7.502a.755.755 0 0 0-.173-1.05.756.756 0 0 0-1.051.172l-4.875 6.775z"/></svg>