<svg width="24" height="25" viewBox="0 0 24 25" fill="none" xmlns="http://www.w3.org/2000/svg"><path d="M23.782 4.885 19.536.605a.75.75 0 0 0-1.08 0L16.7 2.477a.75.75 0 0 0-.158.75l.953 2.549-9.25 9.295-2.477-2.474a.75.75 0 0 0-1.057 0l-2.626 2.624c-2.049 2.01-3.129 5.248-.66 7.721a4.562 4.562 0 0 0 3.24 1.432 6.665 6.665 0 0 0 4.502-2.091l2.626-2.624a.75.75 0 0 0 0-1.065L9.295 16.13l9.266-9.25 2.55.96a.75.75 0 0 0 .773-.157l1.876-1.755a.75.75 0 0 0 .24-.54.75.75 0 0 0-.218-.502ZM8.08 21.219c-1.56 1.56-3.894 2.406-5.604.66-1.71-1.747-.9-4.04.66-5.592l2.108-2.1 1.928 1.942-2.468 2.466a.75.75 0 1 0 1.058 1.065l2.476-2.474 1.943 1.942-2.1 2.091ZM21.201 6.272l-2.25-.848-.84-2.248.907-.967 3.151 3.14-.968.923Z" fill="currentColor"/></svg>