<svg xmlns="http://www.w3.org/2000/svg" width="24" height="24" fill="none" viewBox="0 0 24 24"><path fill="currentColor" fill-rule="evenodd" d="M7.463 20.25h4.5v-.75h-4.5zm3.75 2.25h-3c-.465 0-.71-.364-.738-.75h4.476c-.03.386-.281.75-.739.75M9.75 1.5a6.73 6.73 0 0 1 5.902 3.473 8.4 8.4 0 0 1 .818-1.515 8 8 0 0 0-.885-1.036A8.2 8.2 0 0 0 9.75 0a8.22 8.22 0 0 0-5.835 2.415A8.2 8.2 0 0 0 1.5 8.235c0 3.008 1.44 4.875 3.173 6.833.817.922 1.29 1.597 1.29 2.332v1.333l-.002.008-.002.009q0 .005.002.009l.002.008v2.216l-.002.008-.002.009q0 .005.002.009l.002.008v.658c0 1.305.982 2.325 2.25 2.325h3c1.26 0 2.25-1.02 2.25-2.325V17.4c0-.667.457-1.305 1.365-2.317.592-.675 1.155-1.343 1.634-2.048a8.4 8.4 0 0 1-.81-1.515c-.494.87-1.17 1.68-1.95 2.565-.952 1.065-1.74 2.055-1.74 3.315v.6H10.46V9.302l.75-.738.974.958a.75.75 0 0 0 .526.215.75.75 0 0 0 .526-1.284l-1.5-1.475a.75.75 0 0 0-1.052 0l-.974.958-.974-.958a.75.75 0 0 0-1.052 0l-1.5 1.475a.75.75 0 0 0 1.051 1.069l.975-.958.75.738V18H7.463v-.6c0-1.335-.825-2.37-1.665-3.322C4.162 12.225 3 10.725 3 8.235c0-1.792.705-3.487 1.98-4.755A6.7 6.7 0 0 1 9.75 1.5M18 8.25c0-1.628.712-3.157 2.003-4.32.307-.27.33-.75.052-1.057a.747.747 0 0 0-1.058-.053 7.8 7.8 0 0 0-1.68 2.13 7.1 7.1 0 0 0-.007 6.593 7.6 7.6 0 0 0 1.688 2.137.72.72 0 0 0 .502.195.74.74 0 0 0 .555-.248.747.747 0 0 0-.052-1.057C18.713 11.408 18 9.877 18 8.25m4.229-2.422C21.436 6.484 21 7.344 21 8.25s.436 1.765 1.229 2.422a.752.752 0 0 1-.48 1.328.75.75 0 0 1-.477-.172C20.129 10.882 19.5 9.611 19.5 8.25s.63-2.632 1.771-3.578a.75.75 0 0 1 .957 1.156" clip-rule="evenodd"/></svg>