<svg xmlns="http://www.w3.org/2000/svg" width="24" height="24" fill="none" viewBox="0 0 24 24"><path fill="currentColor" fill-rule="evenodd" d="M18.99 18.58c-.995.961-2.23 1.292-3.775 1.012q-.947-.174-1.942-.73l-6.252-3.439a.555.555 0 0 1 .46-1.009l2.061.956a.75.75 0 0 0 .987-1.013L6.943 7.113c-.145-.293-.06-.646.188-.789a.55.55 0 0 1 .454-.043.55.55 0 0 1 .32.277l2.593 5.239a.75.75 0 0 0 1.344-.665.555.555 0 0 1 .674-.77.55.55 0 0 1 .319.278.751.751 0 0 0 1.344-.666.555.555 0 0 1 .25-.742.55.55 0 0 1 .423-.027.55.55 0 0 1 .32.278.75.75 0 0 0 1.344-.667.55.55 0 0 1 .673-.769.55.55 0 0 1 .321.283c.842 1.677 2.217 4.433 2.322 4.682.225.576 1.244 3.547-.842 5.567m-5.662 3.92H4.844a1.095 1.095 0 0 1-1.094-1.094V2.594c0-.603.49-1.094 1.094-1.094h.5a1.105 1.105 0 0 0 1.104 1.094h5.165c.607 0 1.099-.49 1.105-1.094h.61c.603 0 1.094.49 1.094 1.094v5.097a2.05 2.05 0 0 0-1.618 1.194 2.05 2.05 0 0 0-1.84.473L9.248 5.892a2.05 2.05 0 0 0-1.19-1.035 2.04 2.04 0 0 0-1.672.165c-.94.539-1.286 1.75-.787 2.756l2.641 5.336-.13-.06a2.04 2.04 0 0 0-1.768.025 2.03 2.03 0 0 0-.957.986c-.471 1.03-.017 2.251.963 2.697l6.197 3.41a8 8 0 0 0 1.877.773v.46c0 .604-.49 1.095-1.094 1.095m7.903-10.03c-.105-.27-1.699-3.456-2.378-4.81a2.04 2.04 0 0 0-1.184-1.034 2.04 2.04 0 0 0-1.567.105c-.064.031-.12.072-.18.108V2.594A2.597 2.597 0 0 0 13.328 0H4.844A2.597 2.597 0 0 0 2.25 2.594v18.812A2.597 2.597 0 0 0 4.844 24h8.484a2.597 2.597 0 0 0 2.594-2.594v-.233c.104.005.21.015.312.015 1.474 0 2.748-.513 3.8-1.531 2.768-2.681 1.481-6.461 1.197-7.187" clip-rule="evenodd"/></svg>