<svg xmlns="http://www.w3.org/2000/svg" width="24" height="24" fill="none" viewBox="0 0 24 24"><path fill="currentColor" fill-rule="evenodd" d="M8.1 3.083a.75.75 0 0 1-.75-.75V.75a.75.75 0 1 1 1.5 0v1.583a.75.75 0 0 1-.75.75M4.133 8.1a3.967 3.967 0 1 1 7.936 0 3.968 3.968 0 0 1-7.936 0m6.436 0A2.47 2.47 0 0 0 8.1 5.633 2.47 2.47 0 0 0 5.633 8.1 2.47 2.47 0 0 0 8.1 10.568 2.47 2.47 0 0 0 10.57 8.1m6.93 14.363a4.96 4.96 0 0 1-2.976-.994c3.615.051 6.584-2.853 6.584-6.456q0-.502-.077-.994a4.963 4.963 0 0 1-3.531 8.444m-5.624-1.782a6.47 6.47 0 0 0 5.624 3.282 6.465 6.465 0 0 0 6.458-6.457 6.42 6.42 0 0 0-4.06-5.995.75.75 0 0 0-.93 1.068c.419.733.64 1.575.64 2.435a4.964 4.964 0 0 1-4.958 4.957 4.9 4.9 0 0 1-1.84-.354.751.751 0 0 0-.934 1.064M3.492 4.553a.75.75 0 0 0 1.062 0 .75.75 0 0 0-.001-1.06l-1.12-1.12a.75.75 0 1 0-1.06 1.06zM2.333 8.85H.75a.75.75 0 1 1 0-1.5h1.583a.75.75 0 1 1 0 1.5m.039 4.977a.75.75 0 0 0 1.06 0l1.12-1.119a.75.75 0 1 0-1.06-1.06l-1.12 1.119a.75.75 0 0 0 0 1.06M8.1 16.201a.75.75 0 0 1-.75-.75v-1.583a.75.75 0 1 1 1.5 0v1.583a.75.75 0 0 1-.75.75m4.668-2.373a.75.75 0 0 0 1.06 0 .75.75 0 0 0 0-1.06l-1.12-1.12a.75.75 0 1 0-1.06 1.061zm2.683-4.977h-1.583a.75.75 0 1 1 0-1.5h1.583a.75.75 0 1 1 0 1.5m-3.803-4.298a.75.75 0 0 0 1.06 0l1.12-1.12a.75.75 0 0 0-1.06-1.06l-1.12 1.12a.75.75 0 0 0 0 1.06" clip-rule="evenodd"/></svg>