<svg xmlns="http://www.w3.org/2000/svg" width="24" height="24" fill="none" viewBox="0 0 24 24"><path fill="currentColor" fill-rule="evenodd" d="M5.254 3a.75.75 0 0 1-.75-.75V.75a.75.75 0 1 1 1.5 0v1.5a.75.75 0 0 1-.75.75m.742 15h12V6h-12zm12.75 1.5h-13.5a.75.75 0 0 1-.75-.75V5.25a.75.75 0 0 1 .75-.75h13.5a.75.75 0 0 1 .75.75v13.5a.75.75 0 0 1-.75.75m-.75-17.25a.75.75 0 1 0 1.5 0V.75a.75.75 0 1 0-1.5 0zM5.254 24a.75.75 0 0 1-.75-.75v-1.5a.75.75 0 1 1 1.5 0v1.5a.75.75 0 0 1-.75.75m12.742-.75a.75.75 0 1 0 1.5 0v-1.5a.75.75 0 1 0-1.5 0zM23.25 6.005h-1.5a.75.75 0 1 1 0-1.5h1.5a.75.75 0 1 1 0 1.5m-1.5 13.49h1.5a.75.75 0 1 0 0-1.5h-1.5a.75.75 0 1 0 0 1.5M2.25 6.006H.75a.75.75 0 1 1 0-1.5h1.5a.75.75 0 1 1 0 1.5m-1.5 13.49h1.5a.75.75 0 1 0 0-1.5H.75a.75.75 0 1 0 0 1.5" clip-rule="evenodd"/></svg>