<svg xmlns="http://www.w3.org/2000/svg" width="24" height="24" fill="none" viewBox="0 0 24 24"><path fill="currentColor" fill-rule="evenodd" d="M1.505 12.75c0-1.628.525-3.232 1.518-4.64A.75.75 0 0 0 2.8 7.036c-.814-.493-1.3-1.3-1.3-2.161 0-1.447 1.346-2.625 3-2.625 1.232 0 2.356.683 2.797 1.7a.75.75 0 0 0 .925.414 12.02 12.02 0 0 1 7.554-.003.75.75 0 0 0 .924-.413c.44-1.015 1.565-1.698 2.796-1.698 1.654 0 3 1.178 3 2.625 0 .859-.483 1.666-1.293 2.158a.75.75 0 0 0-.223 1.074c.994 1.409 1.52 3.014 1.52 4.643 0 3.262-2.04 6.114-5.077 7.693a4.1 4.1 0 0 0 .574-2.068c0-2.688-2.691-4.875-6-4.875C8.69 13.5 6 15.687 6 18.375a4.1 4.1 0 0 0 .57 2.061c-3.03-1.58-5.064-4.43-5.064-7.686m10.528 8.999h-.016L12 21.75q-.162-.002-.322-.012l-.178-.01c-2.245-.186-4-1.618-4-3.353 0-1.5 1.311-2.772 3.118-3.21a1.5 1.5 0 1 0 2.762 0c1.806.438 3.118 1.71 3.118 3.21 0 1.736-1.757 3.17-4.008 3.354l-.176.009q-.14.009-.28.01M24 12.75c0-1.705-.48-3.383-1.393-4.893.88-.772 1.389-1.843 1.389-2.982 0-2.274-2.019-4.125-4.5-4.125-1.603 0-3.048.768-3.851 2.003a13.5 13.5 0 0 0-7.293.002C7.549 1.519 6.104.75 4.499.75 2.02.75 0 2.601 0 4.875c0 1.141.51 2.214 1.395 2.986C.483 9.37.005 11.047.005 12.75c0 5.6 5.038 10.176 11.354 10.471q.315.028.639.029h.004q.018 0 .035-.002l.023-.001a8 8 0 0 0 .572-.025C18.955 22.932 24 18.354 24 12.75m-14.251 0a1.5 1.5 0 1 0-.002-3 1.5 1.5 0 0 0 .002 3m5.998-1.5a1.5 1.5 0 1 1-3-.001 1.5 1.5 0 0 1 3 .001" clip-rule="evenodd"/></svg>