<svg width="24" height="25" viewBox="0 0 24 25" fill="none" xmlns="http://www.w3.org/2000/svg"><path fill-rule="evenodd" clip-rule="evenodd" d="m2.99 9.547.013 13.002 18.235-.048-.049-12.965-1.566-1.38a.752.752 0 0 1-.254-.565v-3.72h-1.732v.868a.751.751 0 0 1-1.247.564l-4.33-3.817-9.07 8.062Zm17.882-2.295 1.323 1.167c.316.275.497.675.497 1.095V22.55c0 .802-.652 1.454-1.454 1.454H2.956A1.457 1.457 0 0 1 1.5 22.549V9.514c0-.42.182-.82.5-1.097L11.14.358a1.462 1.462 0 0 1 1.91-.004l3.087 2.721a.752.752 0 0 1 .75-.707h3.235a.75.75 0 0 1 .751.751v4.133ZM9.088 15.925 8.62 17.83h6.984l-.503-1.909a2.008 2.008 0 0 0-1.963-1.517h-2.086a2.01 2.01 0 0 0-1.964 1.52Zm4.946-4.96a1.94 1.94 0 0 0-1.938-1.936 1.939 1.939 0 0 0-1.937 1.936 1.94 1.94 0 0 0 1.937 1.937 1.94 1.94 0 0 0 1.938-1.937Zm.615 2.284a3.478 3.478 0 0 1 1.91 2.313l.497 2.006c.106.43.01.874-.262 1.22-.272.347-.68.546-1.12.546H8.518c-.44 0-.848-.2-1.12-.546a1.415 1.415 0 0 1-.262-1.218l.494-2.005a3.475 3.475 0 0 1 1.913-2.316 3.416 3.416 0 0 1-.887-2.284 3.443 3.443 0 0 1 3.44-3.44 3.444 3.444 0 0 1 3.44 3.44 3.41 3.41 0 0 1-.887 2.284Z" fill="currentColor"/></svg>