<svg xmlns="http://www.w3.org/2000/svg" width="24" height="24" fill="none" viewBox="0 0 24 24"><path fill="currentColor" fill-rule="evenodd" d="M20.19 14.806a1.13 1.13 0 0 1 .313-1.173l1.814-1.65-1.813-1.65a1.13 1.13 0 0 1-.314-1.174l.745-2.336-2.395-.521a1.13 1.13 0 0 1-.86-.858l-.521-2.397-2.336.746c-.415.134-.877.01-1.174-.315L12 1.665l-1.65 1.813a1.13 1.13 0 0 1-1.174.315l-2.335-.746-.521 2.396a1.13 1.13 0 0 1-.861.86l-2.394.52.745 2.336c.134.417.01.878-.314 1.173l-1.814 1.65 1.813 1.65c.325.296.449.757.314 1.174l-.744 2.335 2.394.522c.429.093.765.43.86.858l.522 2.397 2.335-.746a1.13 1.13 0 0 1 1.174.314L12 22.3l1.65-1.813a1.13 1.13 0 0 1 1.173-.315l2.335.746.522-2.395a1.13 1.13 0 0 1 .86-.86l2.395-.522zm3.442-3.656a1.13 1.13 0 0 1 0 1.664l-1.94 1.765.797 2.5c.096.3.061.63-.096.904a1.13 1.13 0 0 1-.737.536l-2.561.559-.558 2.562a1.126 1.126 0 0 1-1.441.832l-2.5-.798-1.764 1.94a1.126 1.126 0 0 1-1.665 0l-1.764-1.94-2.5.798a1.126 1.126 0 0 1-1.44-.83l-.559-2.564-2.562-.56a1.13 1.13 0 0 1-.735-.535 1.13 1.13 0 0 1-.097-.906l.798-2.498-1.94-1.765a1.127 1.127 0 0 1 0-1.663l1.94-1.766-.797-2.498a1.127 1.127 0 0 1 .832-1.441l2.561-.558.558-2.563a1.125 1.125 0 0 1 1.441-.832l2.5.797L11.168.35c.424-.467 1.24-.466 1.664 0l1.765 1.94 2.499-.798a1.126 1.126 0 0 1 1.44.83l.559 2.566 2.562.558c.308.067.577.263.736.537.157.273.192.603.096.904l-.797 2.498zm-13.104 2.523 4.953-4.952a.75.75 0 1 1 1.06 1.06l-5.482 5.483a.75.75 0 0 1-1.061 0L7.51 12.776a.75.75 0 1 1 1.06-1.06z" clip-rule="evenodd"/></svg>