<svg xmlns="http://www.w3.org/2000/svg" width="24" height="24" fill="none" viewBox="0 0 24 24"><path fill="currentColor" fill-rule="evenodd" d="M13.787 22.5 12 18.927 10.213 22.5zM11.47 11.78l-1.561-1.56L4.177 22.5h4.36l2.792-5.586a.2.2 0 0 1 .03-.04l.023-.027a.7.7 0 0 1 .095-.122 1 1 0 0 1 .117-.091l.03-.025a.2.2 0 0 1 .04-.03.1.1 0 0 1 .03-.008q.012-.002.022-.006c.046-.02.093-.028.14-.038h.005l.013-.003q.063-.014.126-.016a1 1 0 0 1 .124.016l.015.002.004.001c.048.01.094.019.14.038q.01.004.022.005.015.002.03.009a.2.2 0 0 1 .042.031l.03.024a1 1 0 0 1 .115.09.7.7 0 0 1 .096.123q.01.016.023.028a.2.2 0 0 1 .03.04l2.793 5.585h4.359L14.09 10.22l-1.56 1.56a.75.75 0 0 1-1.061 0m.53-1.59 1.417-1.417L12 5.738l-1.417 3.035zm9.478 12.31h1.772a.75.75 0 1 1 0 1.5H.75a.75.75 0 1 1 0-1.5h1.772l8.65-18.536L9.82 1.067a.75.75 0 1 1 1.36-.634L12 2.19l.82-1.758a.75.75 0 1 1 1.359.634l-1.351 2.897zm-8.728-8.25a.75.75 0 1 1-1.5 0 .75.75 0 0 1 1.5 0m1.5.75a.75.75 0 1 0 0-1.5.75.75 0 0 0 0 1.5m-3.75-.75a.75.75 0 1 1-1.5 0 .75.75 0 0 1 1.5 0" clip-rule="evenodd"/></svg>