<svg width="24" height="24" viewBox="0 0 24 24" fill="none" xmlns="http://www.w3.org/2000/svg"><path fill-rule="evenodd" clip-rule="evenodd" d="M20.175 17.852c-.732-.732-1.686-1.162-2.742-1.13-.204 0-.403.028-.602.06a3.856 3.856 0 0 0-1.07-3.344 3.857 3.857 0 0 0-3.344-1.07 3.854 3.854 0 0 0-1.07-3.344 3.854 3.854 0 0 0-3.344-1.071c.031-.198.06-.397.06-.602a3.84 3.84 0 0 0-1.13-2.741 3.813 3.813 0 0 0-1.688-.968 11.644 11.644 0 0 1 5.544-1.391c3.129 0 6.07 1.218 8.281 3.43a11.632 11.632 0 0 1 3.43 8.28c0 1.956-.477 3.838-1.375 5.516a3.819 3.819 0 0 0-.95-1.624Zm.458-12.676 1.839-1.84a.75.75 0 1 0-1.06-1.06l-1.839 1.838A13.102 13.102 0 0 0 10.788.75a13.126 13.126 0 0 0-9.34 3.869.75.75 0 0 0 1.06 1.061 2.381 2.381 0 0 1 3.363-.01 2.377 2.377 0 0 1-.009 3.363.75.75 0 1 0 1.06 1.06 2.38 2.38 0 0 1 3.364-.008 2.38 2.38 0 0 1-.01 3.362l-5.96 5.962a1.652 1.652 0 0 1-2.334 0 1.652 1.652 0 0 1 0-2.334.75.75 0 0 0-1.06-1.061 3.153 3.153 0 0 0 0 4.455c.613.614 1.42.921 2.226.921.807 0 1.614-.307 2.228-.921l5.961-5.961a2.38 2.38 0 0 1 3.363-.01c.924.925.92 2.434-.01 3.363a.75.75 0 0 0 1.062 1.06 2.374 2.374 0 0 1 1.684-.7h.006c.632 0 1.226.245 1.672.692.783.783.893 1.982.345 2.896-.13.143-.253.293-.39.43a.75.75 0 0 0 0 1.061c.006.006.014.008.021.014.007.007.008.015.015.022a.748.748 0 0 0 1.06 0c.202-.2.372-.42.52-.65 4.408-4.995 4.39-12.536-.052-17.51Z" fill="currentColor"/></svg>