<svg width="24" height="24" viewBox="0 0 24 24" fill="none" xmlns="http://www.w3.org/2000/svg"><path d="M8.242 13.504c.413 0 .75-.337.75-.75 0-1.238.945-2.25 2.108-2.25h1.785c1.162 0 2.107 1.012 2.107 2.25 0 .413.338.75.75.75.413 0 .75-.337.75-.75 0-1.523-.885-2.836-2.137-3.421.397-.51.637-1.14.637-1.83a3 3 0 1 0-6 0c0 .69.248 1.32.638 1.83-1.26.585-2.138 1.898-2.138 3.421 0 .413.338.75.75.75Zm3.75-7.502c.825 0 1.5.675 1.5 1.5s-.675 1.5-1.5 1.5-1.5-.675-1.5-1.5.675-1.5 1.5-1.5Z" fill="currentColor"/><path d="M23.985 19.476a.574.574 0 0 0-.045-.225c0-.015-.008-.03-.015-.045 0-.007 0-.015-.008-.022l-2.175-4.42V3.745c0-.826-.667-1.494-1.492-1.494H3.735c-.825 0-1.492.668-1.492 1.493v11.014l-2.175 4.42s0 .014-.008.022a.1.1 0 0 1-.015.045.602.602 0 0 0-.045.225v1.538c0 .825.667 1.493 1.492 1.493h21.015c.825 0 1.493-.668 1.493-1.493V19.47l-.015.007ZM20.243 3.743v10.511h-16.5V3.751l16.5-.008ZM3.42 15.755h17.138l1.477 3.001H1.95l1.478-3.001H3.42Zm19.072 5.252h-21v-.75h21v.75Z" fill="currentColor"/></svg>