<svg xmlns="http://www.w3.org/2000/svg" width="24" height="24" fill="none" viewBox="0 0 24 24"><path fill="currentColor" fill-rule="evenodd" d="m16.243 15.182.49.49a5.96 5.96 0 0 0 1.215-2.922h-.698a.75.75 0 0 1 0-1.5h.698a5.96 5.96 0 0 0-1.214-2.923l-.49.49a.746.746 0 0 1-1.061 0 .75.75 0 0 1 0-1.06l.49-.49a5.96 5.96 0 0 0-2.923-1.215v.698a.75.75 0 1 1-1.5 0v-.698a5.96 5.96 0 0 0-2.923 1.214l.49.49a.75.75 0 1 1-1.06 1.061l-.49-.49a5.96 5.96 0 0 0-1.215 2.923h.698a.75.75 0 1 1 0 1.5h-.698a5.96 5.96 0 0 0 1.215 2.923l.49-.49a.749.749 0 1 1 1.06 1.06l-.49.49a5.96 5.96 0 0 0 2.923 1.215v-.698a.75.75 0 1 1 1.5 0v.698a5.96 5.96 0 0 0 2.923-1.215l-.49-.49a.75.75 0 1 1 1.06-1.06m4.965-3.932c.26-.447.738-.75 1.292-.75a1.5 1.5 0 1 1 0 3 1.49 1.49 0 0 1-1.292-.75h-1.746a7.47 7.47 0 0 1-1.658 3.993l1.237 1.238a1.49 1.49 0 0 1 1.444.383 1.5 1.5 0 1 1-2.12 2.12 1.49 1.49 0 0 1-.384-1.443l-1.238-1.237a7.47 7.47 0 0 1-3.993 1.658v1.746c.447.26.75.738.75 1.292a1.5 1.5 0 0 1-3 0c0-.554.303-1.032.75-1.292v-1.746a7.47 7.47 0 0 1-3.993-1.658L6.019 19.04c.132.5.01 1.053-.383 1.444a1.5 1.5 0 1 1-2.12-2.121 1.49 1.49 0 0 1 1.443-.383l1.237-1.238a7.47 7.47 0 0 1-1.658-3.993H2.792A1.494 1.494 0 0 1 0 12a1.5 1.5 0 0 1 1.5-1.5c.554 0 1.032.303 1.292.75h1.746a7.47 7.47 0 0 1 1.658-3.993L4.96 6.019a1.49 1.49 0 0 1-1.444-.383 1.5 1.5 0 1 1 2.121-2.121c.392.391.515.944.383 1.444l1.238 1.237a7.5 7.5 0 0 1 3.993-1.658V2.792A1.49 1.49 0 0 1 10.5 1.5a1.5 1.5 0 0 1 3 0c0 .554-.303 1.032-.75 1.292v1.746a7.5 7.5 0 0 1 3.993 1.658l1.238-1.237a1.49 1.49 0 0 1 .383-1.444 1.5 1.5 0 1 1 2.121 2.12 1.49 1.49 0 0 1-1.444.384l-1.237 1.238a7.47 7.47 0 0 1 1.658 3.993zM10.5 12a1.5 1.5 0 1 1 3.001.001 1.5 1.5 0 0 1-3-.001" clip-rule="evenodd"/></svg>