<svg width="24" height="24" viewBox="0 0 24 24" fill="none" xmlns="http://www.w3.org/2000/svg"><path fill-rule="evenodd" clip-rule="evenodd" d="M21 22.5c.827 0 1.5-.673 1.5-1.5V3c0-.827-.673-1.5-1.5-1.5H3c-.827 0-1.5.673-1.5 1.5v18c0 .827.673 1.5 1.5 1.5h18ZM3 0h18c1.654 0 3 1.345 3 3v18c0 1.654-1.346 3-3 3H3c-1.655 0-3-1.346-3-3V3c0-1.655 1.345-3 3-3Zm6.75 10.125a1.875 1.875 0 1 1 3.75 0 1.875 1.875 0 0 1-3.75 0Zm7.875 4.125a1.125 1.125 0 1 0 0 2.25 1.125 1.125 0 0 0 0-2.25Zm-2.196 2.564A2.617 2.617 0 0 0 17.625 18a2.628 2.628 0 0 0 2.625-2.625c0-1.041-.655-1.898-1.754-2.295-2.849-.872-3.722-3.796-3.838-4.23-.496-1.316-1.627-2.1-3.033-2.1-.89 0-1.729.343-2.363.966-1.435 1.33-2.97 1.302-3.795 1.287L5.25 9c-1.08 0-1.5.42-1.5 1.5.008.107.12.75 1.5.75 2.308 0 3.17.696 3.93 1.31l.002.003.002.002c.562.454 1.007.814 2.148.94 2.286.25 2.828 1.167 3.724 2.684l.06.1c.097.165.2.34.313.524Zm.676-8.363c.005.022.646 2.527 2.865 3.207 1.728.621 2.78 2.042 2.78 3.717a4.13 4.13 0 0 1-4.125 4.125 4.112 4.112 0 0 1-3.458-1.877l-.012-.018a50.23 50.23 0 0 1-.39-.652v-.001c-.833-1.409-1.057-1.787-2.597-1.957-1.58-.173-2.297-.754-2.93-1.266-.649-.526-1.208-.979-2.988-.979-2.373 0-3-1.472-3-2.25 0-1.906 1.094-3 3-3l.244.003h.005c.74.013 1.753.03 2.728-.872a4.832 4.832 0 0 1 3.398-1.381c2.044 0 3.75 1.195 4.454 3.117l.026.084Z" fill="currentColor"/></svg>