<svg xmlns="http://www.w3.org/2000/svg" width="24" height="24" fill="none" viewBox="0 0 24 24"><path fill="currentColor" fill-rule="evenodd" d="M21.746 0c.383 0 .698.285.742.668l1.508 13.5a.76.76 0 0 1-.188.585.77.77 0 0 1-.562.247h-8.998v6.975A2.026 2.026 0 0 1 12.223 24H2.025A2.026 2.026 0 0 1 0 21.975v-10.2C0 10.658.907 9.75 2.025 9.75h8.083L11.255.66a.75.75 0 0 1 .743-.66zm-2.31 9h2.46l-.33-3h-2.25zm-.172-4.5h2.13l-.33-3h-1.92zm-3.33 0h1.838l-.12-3h-1.567zm-1.507 0 .15-3h-1.92l-.382 3zm-2.212 18a.52.52 0 0 0 .525-.525h.008v-10.2a.52.52 0 0 0-.525-.525H2.025a.52.52 0 0 0-.525.525v10.2c0 .292.232.525.525.525zm-.607-12.75h.615c1.117 0 2.024.908 2.024 2.025V13.5h3.87l-.12-3h-.758a.75.75 0 0 1-.75-.75c0-.412.338-.75.75-.75h.698l-.12-3h-1.965l-.112 2.287a.755.755 0 0 1-.75.713h-.038a.753.753 0 0 1-.712-.787L14.352 6H12.08zm7.881.75.12 3h2.782l-.33-3zM8.953 14.565s.375 1.635 1.823 2.092c.704.263 1.222.863 1.222 1.68 0 1.035-.817 1.883-1.83 1.883a1.82 1.82 0 0 1-1.53-.855l-.2-.348c-.47-.824-.678-1.19-1.72-1.31-.738-.085-1.058-.352-1.377-.619-.384-.32-.767-.64-1.877-.64-1.214 0-1.214-.84-1.214-.84q0-1.251 1.214-1.253l.122.001c.43.008 1.12.02 1.768-.601.405-.405.96-.66 1.567-.66.96 0 1.717.585 2.032 1.47m-3.142.81c0 .623.503 1.125 1.125 1.125.623 0 1.125-.502 1.125-1.125S7.56 14.25 6.936 14.25c-.622 0-1.125.502-1.125 1.125m3.75 3.09a.656.656 0 1 0 1.312 0 .65.65 0 0 0-.652-.652.65.65 0 0 0-.66.652" clip-rule="evenodd"/></svg>