<svg xmlns="http://www.w3.org/2000/svg" width="24" height="24" fill="none" viewBox="0 0 24 24"><path fill="currentColor" d="M9.75 19.5a.75.75 0 0 1-.593-.292c-1.62-2.123-.75-3.533-.045-4.568s1.028-1.597 0-2.955a.75.75 0 1 1 1.2-.892c1.613 2.19.698 3.622 0 4.665-.697 1.042-.997 1.56 0 2.835A.75.75 0 0 1 9.75 19.5m3.75 0a.75.75 0 0 1-.593-.292c-1.62-2.123-.712-3.533-.045-4.568.668-1.035 1.028-1.597.038-2.955a.75.75 0 1 1 1.2-.892c1.612 2.19.697 3.622 0 4.665-.698 1.042-.998 1.56 0 2.835a.75.75 0 0 1-.6 1.207"/><path fill="currentColor" d="M12 24a9 9 0 0 1-9-9C3 10.875 8.947 2.64 10.537.668a1.934 1.934 0 0 1 2.925 0C15.052 2.64 21 10.875 21 15a9 9 0 0 1-9 9m0-22.5a.35.35 0 0 0-.293.143C9.195 4.733 4.5 11.865 4.5 15a7.5 7.5 0 1 0 15 0c0-3.157-4.695-10.29-7.208-13.41A.35.35 0 0 0 12 1.5"/></svg>