<svg xmlns="http://www.w3.org/2000/svg" width="24" height="24" fill="none" viewBox="0 0 24 24"><path fill="currentColor" fill-rule="evenodd" d="M2.25 0h19.5c.413 0 .75.338.75.75v22.5c0 .413-.337.75-.75.75H2.25a.75.75 0 0 1-.75-.75V.75c0-.412.337-.75.75-.75M3 1.5v21h18v-21zm16.125 12.375A7.13 7.13 0 0 1 12 21a7.13 7.13 0 0 1-7.125-7.125A7.13 7.13 0 0 1 12 6.75a7.13 7.13 0 0 1 7.125 7.125m-12.683.84C6.855 17.415 9.18 19.5 12 19.5h.008c2.805 0 5.137-2.07 5.55-4.77l-.122-.064a8 8 0 0 1-.246-.131l-.01-.006c-.649-.35-1.212-.654-2.405-.654s-1.756.304-2.404.654l-.011.006-.02.01c-.722.388-1.547.83-3.107.83-1.343 0-2.138-.322-2.79-.66m11.116-1.68C17.145 10.328 14.813 8.25 12 8.25h-.008c-2.805 0-5.137 2.078-5.55 4.77.128.06.255.128.375.195l.011.006c.648.35 1.211.654 2.404.654 1.194 0 1.757-.304 2.405-.654l.01-.006.02-.01c.723-.388 1.547-.83 3.108-.83 1.335 0 2.13.322 2.783.66m.817-7.785a1.125 1.125 0 1 0 0-2.25 1.125 1.125 0 0 0 0 2.25M16.5 4.125a1.125 1.125 0 1 1-2.25 0 1.125 1.125 0 0 1 2.25 0" clip-rule="evenodd"/></svg>