<svg xmlns="http://www.w3.org/2000/svg" width="24" height="24" fill="none" viewBox="0 0 24 24"><path fill="currentColor" fill-rule="evenodd" d="M7.5 5.813V3.75h-6v2.063h2.438a.563.563 0 0 1 1.124 0zM5.25 2.25h-1.5V1.5h1.5zM1.5 6.938V8.25h6V6.938H5.063a.563.563 0 0 1-1.125 0zM8.25 9.75H.75A.75.75 0 0 1 0 9V3a.75.75 0 0 1 .75-.75h1.5V.75A.75.75 0 0 1 3 0h3a.75.75 0 0 1 .75.75v1.5h1.5A.75.75 0 0 1 9 3v6a.75.75 0 0 1-.75.75m8.251-8.25c-.394 0-.766.163-1.047.46a1.674 1.674 0 0 0-.002 2.294l3.298 3.63 3.284-3.616c.62-.646.62-1.674.014-2.307l-.002-.002a1.455 1.455 0 0 0-2.093 0l-.305.32a1.267 1.267 0 0 1-1.796 0l-.305-.319a1.44 1.44 0 0 0-1.046-.46m2.25 8.25a.75.75 0 0 1-.556-.246l-3.84-4.226c-1.14-1.19-1.14-3.15.015-4.355a2.92 2.92 0 0 1 4.263.002l.117.122.117-.123a2.923 2.923 0 0 1 4.264 0c1.154 1.204 1.154 3.164 0 4.368l-3.826 4.212a.75.75 0 0 1-.555.246M12 12c.827 0 1.5.673 1.5 1.5S12.827 15 12 15s-1.5-.673-1.5-1.5.673-1.5 1.5-1.5m0 4.5c1.655 0 3-1.345 3-3s-1.345-3-3-3-3 1.345-3 3 1.345 3 3 3m11.25-3.75h-3a.75.75 0 0 0-.733.587l-1.261 5.682-2.465-1.643a.76.76 0 0 0-.416-.126h-6.75a.76.76 0 0 0-.416.126l-2.465 1.642-1.261-5.68a.75.75 0 0 0-.733-.588h-3a.75.75 0 1 0 0 1.5h2.399l1.368 6.163a.753.753 0 0 0 1.15.461l2.583-1.723v4.099a.75.75 0 1 0 1.5 0v-4.5h4.5v4.5a.75.75 0 1 0 1.5 0v-4.099l2.584 1.723a.75.75 0 0 0 .696.072.75.75 0 0 0 .453-.533l1.369-6.163h2.398a.75.75 0 1 0 0-1.5m-4.5-7.313c1.149 0 1.9-.913 1.938-.959a.563.563 0 0 0-.875-.708c-.012.014-.46.542-1.063.542-.6 0-1.049-.524-1.064-.542a.563.563 0 0 0-.875.707v.001c.039.046.79.96 1.939.96" clip-rule="evenodd"/></svg>