<svg width="25" height="24" viewBox="0 0 25 24" fill="none" xmlns="http://www.w3.org/2000/svg"><path fill-rule="evenodd" clip-rule="evenodd" d="M23.25 8.25a.739.739 0 0 0 .63-.345.747.747 0 0 0 .053-.72l-2.812-6a.75.75 0 0 0-.683-.435H3.563a.75.75 0 0 0-.682.435l-2.813 6a.747.747 0 0 0 .053.72.739.739 0 0 0 .63.345H7.5c.12 0 .232-.03.337-.082L12 6.09l4.162 2.078a.75.75 0 0 0 .338.082h6.75Zm-6 5.25h1.5c.413 0 .75-.338.75-.75a.752.752 0 0 0-.75-.75h-1.5a.752.752 0 0 0-.75.75c0 .412.338.75.75.75Zm0 3.75h1.5c.413 0 .75-.337.75-.75a.752.752 0 0 0-.75-.75h-1.5a.752.752 0 0 0-.75.75c0 .413.338.75.75.75Zm0 3.75h1.5c.413 0 .75-.337.75-.75a.752.752 0 0 0-.75-.75h-1.5a.752.752 0 0 0-.75.75c0 .413.338.75.75.75Zm-6.75-8.25c0 .412.338.75.75.75h1.5c.413 0 .75-.338.75-.75a.752.752 0 0 0-.75-.75h-1.5a.752.752 0 0 0-.75.75Zm-5.25.75h1.5c.413 0 .75-.338.75-.75a.752.752 0 0 0-.75-.75h-1.5a.752.752 0 0 0-.75.75c0 .412.338.75.75.75Zm0 3.75h1.5c.413 0 .75-.337.75-.75a.752.752 0 0 0-.75-.75h-1.5a.752.752 0 0 0-.75.75c0 .413.338.75.75.75Zm0 3.75h1.5c.413 0 .75-.337.75-.75a.752.752 0 0 0-.75-.75h-1.5a.752.752 0 0 0-.75.75c0 .413.338.75.75.75ZM16.164 9.667a.748.748 0 0 0 .338.083h6V22.5c0 .413-.338.75-.75.75h-7.5v-5.625a.37.37 0 0 0-.143-.293l-1.875-1.5a.363.363 0 0 0-.465 0l-1.875 1.5a.37.37 0 0 0-.142.293v5.625h-7.5a.752.752 0 0 1-.75-.75V9.75h6a.74.74 0 0 0 .337-.083l4.163-2.077 4.162 2.077Z" fill="currentColor"/></svg>