<svg width="24" height="24" viewBox="0 0 24 24" fill="none" xmlns="http://www.w3.org/2000/svg"><path fill-rule="evenodd" clip-rule="evenodd" d="M18.375 19.5a4.13 4.13 0 0 1-4.125-4.11l.053-.622a4.115 4.115 0 0 1 7.62-1.485l.262.51c.203.487.315 1.02.315 1.582a4.132 4.132 0 0 1-4.125 4.125Zm-5.422-6.75h-1.905l-.473-6h2.85l-.473 6ZM5.625 19.5A4.132 4.132 0 0 1 1.5 15.375c0-.562.113-1.095.315-1.582l.263-.503a4.097 4.097 0 0 1 3.547-2.04 4.12 4.12 0 0 1 4.072 3.518l.053.622a4.13 4.13 0 0 1-4.125 4.11Zm17.918-6.337-.008-.015a5.77 5.77 0 0 0-.285-.57l-4.012-7.89c-.323-.75-1.433-2.055-3.36-1.59-1.515.367-2.123 1.417-2.31 2.167a.109.109 0 0 1-.034-.007.11.11 0 0 0-.034-.008h-3a.141.141 0 0 0-.043.009.112.112 0 0 1-.032.006c-.188-.772-.803-1.8-2.303-2.167a2.825 2.825 0 0 0-3.337 1.545L.75 12.578a5.77 5.77 0 0 0-.285.57l-.008.015A5.586 5.586 0 0 0 0 15.375 5.627 5.627 0 0 0 5.625 21a5.636 5.636 0 0 0 5.512-4.5h1.726a5.636 5.636 0 0 0 5.512 4.5A5.627 5.627 0 0 0 24 15.375c0-.787-.165-1.53-.457-2.212ZM5.625 12a.75.75 0 1 0 0 1.5c1.034 0 1.875.84 1.875 1.874a.75.75 0 1 0 1.5 0A3.378 3.378 0 0 0 5.625 12Zm12 .75a.75.75 0 0 1 .75-.75 3.378 3.378 0 0 1 3.375 3.374.75.75 0 1 1-1.5 0c0-1.034-.84-1.875-1.875-1.875a.75.75 0 0 1-.75-.75Z" fill="currentColor"/></svg>