<svg width="24" height="24" viewBox="0 0 24 24" fill="none" xmlns="http://www.w3.org/2000/svg"><path fill-rule="evenodd" clip-rule="evenodd" d="M18 13.5a2.247 2.247 0 0 1-2.25-2.25A2.247 2.247 0 0 1 18 9a2.247 2.247 0 0 1 2.25 2.25A2.247 2.247 0 0 1 18 13.5Zm-3 5.25a2.247 2.247 0 0 1-2.25-2.25A2.247 2.247 0 0 1 15 14.25a2.247 2.247 0 0 1 2.25 2.25A2.247 2.247 0 0 1 15 18.75Zm-5.25-7.5A2.247 2.247 0 0 1 12 9a2.247 2.247 0 0 1 2.25 2.25A2.247 2.247 0 0 1 12 13.5a2.247 2.247 0 0 1-2.25-2.25ZM9 18.75a2.247 2.247 0 0 1-2.25-2.25A2.247 2.247 0 0 1 9 14.25a2.247 2.247 0 0 1 2.25 2.25A2.247 2.247 0 0 1 9 18.75Zm-5.25-7.5A2.247 2.247 0 0 1 6 9a2.247 2.247 0 0 1 2.25 2.25A2.247 2.247 0 0 1 6 13.5a2.247 2.247 0 0 1-2.25-2.25ZM9 4.5c.825 0 1.5.675 1.5 1.5S9.825 7.5 9 7.5 7.5 6.825 7.5 6 8.175 4.5 9 4.5Zm6 0c.825 0 1.5.675 1.5 1.5s-.675 1.5-1.5 1.5-1.5-.675-1.5-1.5.675-1.5 1.5-1.5Zm8.407 2.032a12.128 12.128 0 0 0-1.485-3.075C21.608 3 20.482 1.5 18.9 1.5H5.108c-1.62 0-2.79 1.59-3.105 2.078-.6.914-1.08 1.912-1.41 2.954A12.18 12.18 0 0 0 0 10.313c0 1.943.465 3.878 1.335 5.588C3.413 19.972 7.5 22.5 12 22.5c4.5 0 8.587-2.527 10.665-6.6A12.389 12.389 0 0 0 24 10.312c0-1.29-.195-2.557-.593-3.78Z" fill="currentColor"/></svg>