<svg width="25" height="24" viewBox="0 0 25 24" fill="none" xmlns="http://www.w3.org/2000/svg"><path d="M23.761 10.703 12.511.203a.743.743 0 0 0-1.02 0l-11.25 10.5a.74.74 0 0 0-.037 1.057.74.74 0 0 0 1.057.037l1.74-1.62V23.25c0 .413.338.75.75.75h2.625v-6.75c0-.413.338-.75.75-.75h3.75c.413 0 .75.337.75.75V24h8.625c.413 0 .75-.337.75-.75V10.178l1.74 1.62a.746.746 0 0 0 1.058-.038.74.74 0 0 0-.038-1.057Zm-5.01 3.547c0 .412-.337.75-.75.75h-3.75a.752.752 0 0 1-.75-.75v-3c0-.412.338-.75.75-.75h3.75c.413 0 .75.338.75.75v3Z" fill="currentColor"/></svg>