<svg width="24" height="24" viewBox="0 0 24 24" fill="none" xmlns="http://www.w3.org/2000/svg"><path d="M18.75 8.25A6.75 6.75 0 0 0 12 1.5H6.75A6.75 6.75 0 0 0 6 14.955a8.145 8.145 0 0 1-.63 2.707.75.75 0 0 0 .067.75.75.75 0 0 0 .563.338h.12c.195 0 4.462-.75 5.67-3.75H12a6.75 6.75 0 0 0 6.75-6.75Zm-6-.75h-7.5a.75.75 0 1 1 0-1.5h7.5a.75.75 0 0 1 0 1.5Zm-7.5 3a.75.75 0 0 1 0-1.5h4.5a.75.75 0 1 1 0 1.5h-4.5Z" fill="currentColor"/><path d="M24 15.165a5.25 5.25 0 0 0-3.525-5.01.755.755 0 0 0-.45 1.44 3.698 3.698 0 0 1 2.475 3.57 3.614 3.614 0 0 1-2.715 3.51.75.75 0 0 0-.555.6 5.538 5.538 0 0 0-.038 1.447A2.377 2.377 0 0 1 18 19.297a.75.75 0 0 0-.713-.51h-.922a3.105 3.105 0 0 1-2.948-1.875.75.75 0 0 0-1.335.675 4.56 4.56 0 0 0 4.283 2.7h.382A4.057 4.057 0 0 0 20.25 22.5a.75.75 0 0 0 .645-.36.75.75 0 0 0 0-.75 3.074 3.074 0 0 1-.24-1.425 5.13 5.13 0 0 0 3.345-4.8Z" fill="currentColor"/></svg>