<svg width="24" height="24" viewBox="0 0 24 24" fill="none" xmlns="http://www.w3.org/2000/svg"><path fill-rule="evenodd" clip-rule="evenodd" d="M8.59 1.54c1.483-.278 2.98.9 3.434 2.654A4.583 4.583 0 0 0 10.944 4c-.418-1.006-1.297-1.644-2.158-1.481-1.023.192-1.636 1.44-1.367 2.78.238 1.183 1.084 2.048 1.981 2.105a.695.695 0 0 1 .198.894l-.056.1C8.14 8.41 6.812 7.19 6.47 5.477c-.378-1.88.573-3.646 2.12-3.937Zm-.728 3.837a3.93 3.93 0 0 1 1.67.213 4.099 4.099 0 0 1 2.674 4.416 3.898 3.898 0 0 1-3.765 3.382L7.89 15.05l-1.144.75.456 1.32-.262.788-1.11.489.584 1.09-1.345.405.82 1.175-.167.504a.671.671 0 0 1-.367.405l-1.112.487a.447.447 0 0 1-.571-.203l-.587-1.092a.702.702 0 0 1-.05-.552l2.722-8.184a4.107 4.107 0 0 1-1.45-3.015 3.956 3.956 0 0 1 1.28-3.044 4.507 4.507 0 0 0 1.932 2.394c.36.592 1.08.848 1.716.61a1.407 1.407 0 0 0 .877-1.586 1.452 1.452 0 0 0-1.396-1.189 1.97 1.97 0 0 1-.853-1.225Zm11.256 13.395c.21.098.473.06.653-.082.255-.21.285-.555.075-.78a.617.617 0 0 0-.638-.15.586.586 0 0 0-.412.487.527.527 0 0 0 .322.525Zm-1.942-2.01c.209.225.584.24.832.038a.561.561 0 0 0 .21-.375.508.508 0 0 0-.135-.398l-1.05-1.125c-.21-.225-.585-.24-.832-.037-.256.202-.286.547-.075.772l1.05 1.125Zm-2.693-2.872a.682.682 0 0 0 .712-.098c.278-.217.315-.6.083-.847a.676.676 0 0 0-.697-.165.645.645 0 0 0-.45.532.579.579 0 0 0 .352.578Zm0-2.955 6.128 6.547c.524.555.442 1.418-.173 1.913-.615.502-1.537.457-2.062-.098l-6.128-6.555a.021.021 0 0 0-.01.004c-.005.002-.009.004-.013.004 1.133-1.208 1.56-2.835 1.148-4.358-.405-1.515-1.605-2.722-3.195-3.232 1.62-.263 3.225.352 4.148 1.582.915 1.23.975 2.858.157 4.193Z" fill="currentColor"/></svg>