<svg width="24" height="24" viewBox="0 0 24 24" fill="none" xmlns="http://www.w3.org/2000/svg"><path fill-rule="evenodd" clip-rule="evenodd" d="M17.157 9.638h-3.682a.747.747 0 0 1-.75-.75c0-.421.33-.75.75-.75h3.682c.42 0 .75.329.75.75 0 .412-.33.75-.75.75Zm0 2.947h-3.682a.748.748 0 0 1-.75-.75c0-.412.33-.75.75-.75h3.682c.42 0 .75.338.75.75s-.33.75-.75.75Zm-6.945-2.947h-3.69a.753.753 0 0 1-.75-.75c0-.421.338-.75.75-.75h3.69c.413 0 .75.329.75.75 0 .412-.337.75-.75.75Zm0 2.947h-3.69a.753.753 0 0 1-.75-.75c0-.412.338-.75.75-.75h3.69c.413 0 .75.338.75.75s-.337.75-.75.75Zm0 2.94h-3.69a.753.753 0 0 1-.75-.75c0-.412.338-.75.75-.75h3.69c.413 0 .75.338.75.75s-.337.75-.75.75Zm13.5-6.615-2.28-1.77-.112-.09L12.462.157a.755.755 0 0 0-.922 0l-9.135 7.11-.112.09L.29 8.91a.758.758 0 0 0-.135 1.057.757.757 0 0 0 1.057.127l.863-.674v13.83c0 .412.337.75.75.75h2.947v-5.91c0-.413.338-.75.75-.75h3.69c.413 0 .75.337.75.75V24H20.9c.412 0 .75-.338.75-.75v-.872a4.245 4.245 0 0 1-2.123-.713c-.6.45-1.32.69-2.047.69-.75 0-1.5-.247-2.116-.757L13.52 20.09a.722.722 0 0 1-.27-.503.744.744 0 0 1 .165-.555l.322-.398-1.484-1.215a.741.741 0 0 1-.106-1.049.75.75 0 0 1 1.05-.113l1.493 1.222.742-.907-1.492-1.223a.749.749 0 1 1 .952-1.155l1.493 1.215.322-.397a.758.758 0 0 1 1.058-.105l1.838 1.507a3.351 3.351 0 0 1 .877 4.081c.27.164.66.337 1.17.382V9.21l1.14.884a.746.746 0 0 0 1.05-.127.758.758 0 0 0-.128-1.057Zm-5.062 8.668-1.26-1.035-.315.382c0 .008 0 .008-.007.015l-.008.008-1.688 2.062-.322.398 1.26 1.035c.772.63 1.92.525 2.565-.225l.045-.045a1.846 1.846 0 0 0-.27-2.595Z" fill="currentColor"/></svg>