<svg width="24" height="24" viewBox="0 0 24 24" fill="none" xmlns="http://www.w3.org/2000/svg"><path fill-rule="evenodd" clip-rule="evenodd" d="M14.317 10.296c.34-.113.68-.282 1.008-.507a.75.75 0 0 1 .848 1.237 5.479 5.479 0 0 1-3.12.974 5.51 5.51 0 0 1-3.929-1.655 5.577 5.577 0 0 1-1.3-2.098H6.749a.75.75 0 1 1 0-1.5h.772c-.017-.25-.017-.5 0-.75h-.772a.75.75 0 1 1 0-1.499h1.077a5.586 5.586 0 0 1 1.3-2.099 5.52 5.52 0 0 1 7.047-.688.75.75 0 1 1-.847 1.239 4.023 4.023 0 0 0-5.133.502 4.131 4.131 0 0 0-.729 1.046h2.535a.75.75 0 1 1 0 1.5H9.034c-.021.25-.021.5 0 .75h2.964a.75.75 0 1 1 0 1.499H9.465c.188.374.418.732.727 1.045a4.003 4.003 0 0 0 4.125 1.004Zm-1.98 13.621 10.515-5.122a2.044 2.044 0 0 0-1.793-3.674l-2.024.99.002.02a3 3 0 0 1-2.986 3.285H9.104a.752.752 0 0 1-.75-.749c0-.412.338-.75.75-.75h6.945a1.5 1.5 0 0 0 1.5-1.5 1.5 1.5 0 0 0-1.102-1.447 1.25 1.25 0 0 0-.248-.037h-.03c-.038-.016-.075-.016-.12-.016h-4.575c-.457-.847-1.695-2.377-4.762-2.377H.75a.752.752 0 0 0-.75.75v6.458c0 .33.21.622.525.72l11.25 3.495c.008.007.022.007.037.007.06.023.12.03.188.03a.742.742 0 0 0 .33-.075l.008-.008Z" fill="currentColor"/></svg>